<?xml version="1.0" encoding="utf-8"?>
<!-- Generator: Adobe Illustrator 15.0.0, SVG Export Plug-In . SVG Version: 6.00 Build 0)  -->
<!DOCTYPE svg PUBLIC "-//W3C//DTD SVG 1.1//EN" "http://www.w3.org/Graphics/SVG/1.1/DTD/svg11.dtd">
<svg version="1.1" id="Слой_1" xmlns="http://www.w3.org/2000/svg" xmlns:xlink="http://www.w3.org/1999/xlink" x="0px" y="0px"
	 width="480px" height="123px" viewBox="0 0 480 123" enable-background="new 0 0 480 123" xml:space="preserve">
<g>
	<path fill="#808184" d="M28.77,121.872h0.538h43.915h2.333h1.97h26.709h25.273h1.436h22.224h5.201h9.499h2.688h1.254h4.84h96.257
		h21.331h3.405h1.254h7.17h1.435h49.293v0.429h122.605v-4.183v-1.707v-4.466h-4.84v-9.36h-6.006v-1.493h-4.749v1.493h-1.254v9.36
		h-2.689v-4.067h-6.991v4.067h-3.046v-6.715h-1.256v-0.852h-2.51v0.852h-9.142v-3.327h-12.188v3.327h-4.302v6.715h-3.586V93.026
		h-14.517v18.919h-6.095V96.951h-10.219V79.713h-4.66v-3.242h-18.821v3.242h-1.613v36.698h-4.122v-5.463v-9.045v-2.049V43.527
		H336.18v56.327h-2.868v-2.903h-3.045v-1.535h-4.124v1.535h-2.867v2.903h-2.867v-2.903h-2.689v13.997h-1.973v-1.252h-4.124v1.252
		h-4.121v-6.569h-3.405v-1.794h-5.199v1.794h-1.254v6.021h-4.303v-0.703h-4.84v-1.818h-10.037v2.521h-5.557v-5.083h-2.51V89.911
		h-10.485v-2.006h-9.143v2.006h-9.229v-2.006h-9.143v2.006h-1.254v15.405h-4.84V95.245h-3.766v-3.584h-5.915V75.445h-2.33v-3.584
		h-1.185v-1.28l-3.296-3.139v-0.359h-2.332v-3.946l0.159-0.151l-3.295-3.137l-3.296,3.137h-0.512v4.098h-1.48v0.359l-3.296,3.139
		h-0.108v1.28h-1.974v3.584h-2.15v16.216h-5.377v3.584h-3.406v10.071h-6.095v4.38h-4.84v6.716h-1.254v-2.219v-8.023h-2.688v-8.188
		h-9.499v16.212h-5.201v-2.561v-7.587h-4.657v-1.461h-3.765v1.461h-0.897v7.587h-1.613V99h-11.291v12.633h-1.436v4.607h-4.48
		v-13.655h-8.783v-1.631h-5.019v1.631h-2.151v13.655h-4.84v-64.35v-8.877l3.049-2.219v-2.218l3.045-1.537v-2.219l1.613-1.536h1.254
		v-2.901h-4.928l-4.033-2.9h0.896v-3.416h-3.854l-0.138-4.096h0.944v-0.683h-0.969l-0.167-4.95h1.136v-0.683h-1.159l-0.159-4.779
		h1.318V8.194h-1.343l-0.271-8.021h-0.538l-0.271,8.021h-1.343v0.683h1.32l-0.161,4.779h-1.159v0.683h1.136l-0.167,4.95h-0.969
		v0.683h0.944l-0.138,4.096h-4.213v3.416l-4.032,2.9h-4.929v2.901h1.256l1.612,1.536v2.219l3.046,1.537v2.218l3.047,2.219v8.877
		H77.525v64.35h-1.97v-6.657v-1.364V68.96H69.28v-4.097h-5.066c-0.249-5.692-4.888-10.242-10.617-10.242s-10.368,4.55-10.618,10.242
		h-5.066v4.097h-5.916v39.259h-2.688v-1.537v-3.243H3.856v3.243H0.271v-3.243"/>
</g>
</svg>
