<?xml version="1.0" encoding="utf-8"?>
<!-- Generator: Adobe Illustrator 15.0.0, SVG Export Plug-In . SVG Version: 6.00 Build 0)  -->
<!DOCTYPE svg PUBLIC "-//W3C//DTD SVG 1.1//EN" "http://www.w3.org/Graphics/SVG/1.1/DTD/svg11.dtd">
<svg version="1.1" id="Слой_1" xmlns="http://www.w3.org/2000/svg" xmlns:xlink="http://www.w3.org/1999/xlink" x="0px" y="0px"
	 width="53px" height="22px" viewBox="0 0 53 22" enable-background="new 0 0 53 22" xml:space="preserve">
<g>
	<circle cx="9.186" cy="17.166" r="4.261"/>
	<path fill="#FCCD28" d="M-0.006,14.443c0-0.667,0.258-0.82,0.461-1.182c0.207-0.357,0.412-0.563,0.566-0.615
		s4.209-1.078,4.416-1.181c0.205-0.103,2.361-2.465,2.156-2.771C7.387,8.386,7.029,8.232,7.029,8.232s1.23-0.258,1.539-0.258
		S9.494,7.923,9.75,7.77c0.256-0.154,7.906-4.826,12.732-5.957c4.826-1.129,9.396-1.692,15.713-1.334
		c6.314,0.359,10.32,0.976,10.525,1.386c0.205,0.412,1.539,3.236,1.951,4.673c0,0-1.9,0.668-2.313,1.336c0,0,2.209,2.156,3.596,2.72
		c0,0,0.719,0.616,0.719,0.976s0.102,2.055,0.102,2.413s0.256,0.308,0.205,1.026c-0.051,0.721-0.564,1.748-0.719,2.107
		c-0.152,0.356-1.539,0.667-1.539,0.667s-0.051-4.159-3.08-4.93s-4.98-0.102-6.111,1.027c-1.129,1.128-1.438,3.389-1.438,5.237
		H14.936c0,0-0.359-4.159-2.156-5.444c-1.797-1.283-3.953-1.54-6.418-0.462s-2.26,4.775-2.209,6.008c0,0-2.154,0-2.412-0.051
		c-0.256-0.051-0.412-0.771-0.412-0.771s-0.666-0.307-0.717-0.614c-0.053-0.311,0.205-0.412,0.307-0.667
		c0.104-0.258,0-1.233-0.359-1.387C0.199,15.574-0.006,14.443-0.006,14.443z"/>
	<path fill="#504F4F" d="M10.059,9.309c0.051-0.255,0.615-1.386,1.283-1.797c0.666-0.41,8.574-4.672,13.35-5.544
		s11.244-0.872,15.094-0.667c3.852,0.204,7.549,1.643,7.549,1.643s0.205,1.848-0.514,2.412c-0.719,0.565-5.393,1.541-6.572,1.695
		S10.059,9.309,10.059,9.309z"/>
	<circle fill="#FFFFFF" cx="9.186" cy="17.165" r="2.978"/>
	<circle fill="#4E4D4D" stroke="#737373" cx="9.186" cy="17.165" r="2.618"/>
	<g>
		<path fill="#FFFFFF" stroke="#656565" d="M11.895,17.026c0,0,0.143-0.335-0.393-1.204l-1.33,0.609
			c-0.125-0.169-0.289-0.303-0.482-0.389l0.201-1.496c0,0-0.273-0.238-1.266,0l0.166,1.451c-0.201,0.068-0.379,0.188-0.518,0.342
			l-1.359-0.655c0,0-0.314,0.188-0.393,1.206l1.432,0.289c0.002,0.217,0.063,0.422,0.164,0.599l-1.041,1.089
			c0,0,0.08,0.357,1.023,0.746l0.719-1.271c0.115,0.037,0.238,0.055,0.367,0.055c0.088,0,0.17-0.008,0.252-0.025l0.717,1.326
			c0,0,0.361,0.032,1.023-0.744l-0.988-1.075c0.119-0.167,0.197-0.366,0.221-0.581L11.895,17.026z"/>
	</g>
	<circle cx="45.33" cy="17.166" r="4.261"/>
	<circle fill="#FFFFFF" cx="45.33" cy="17.165" r="2.978"/>
	<circle fill="#4E4D4D" stroke="#737373" cx="45.33" cy="17.165" r="2.618"/>
	<g>
		<path fill="#FFFFFF" stroke="#656565" d="M48.039,17.026c0,0,0.145-0.335-0.393-1.204l-1.328,0.609
			c-0.125-0.169-0.291-0.303-0.482-0.389l0.201-1.496c0,0-0.275-0.238-1.268,0l0.168,1.451c-0.201,0.068-0.379,0.188-0.518,0.342
			l-1.361-0.655c0,0-0.311,0.188-0.393,1.206L44.1,17.18c0.004,0.217,0.063,0.422,0.164,0.599l-1.043,1.089
			c0,0,0.082,0.357,1.025,0.746l0.717-1.271c0.117,0.037,0.242,0.055,0.367,0.055c0.088,0,0.172-0.008,0.254-0.025l0.717,1.326
			c0,0,0.361,0.032,1.023-0.744l-0.988-1.075c0.119-0.167,0.197-0.366,0.221-0.581L48.039,17.026z"/>
	</g>
	
		<linearGradient id="SVGID_1_" gradientUnits="userSpaceOnUse" x1="-561.8242" y1="248.5381" x2="-559.1028" y2="247.1004" gradientTransform="matrix(1 0 0 -1 564 258)">
		<stop  offset="0" style="stop-color:#FFFFFF"/>
		<stop  offset="1" style="stop-color:#AFDCF6"/>
	</linearGradient>
	<path fill="url(#SVGID_1_)" d="M7.029,8.232c-0.207,0.017-2.842,1.111-3.766,1.864c-0.924,0.754-2.328,2.054-2.242,2.55
		c0,0,4.158-0.976,4.416-1.181c0.256-0.206,2.379-2.465,2.156-2.771C7.371,8.386,7.029,8.232,7.029,8.232z"/>
	<path fill="#A7C8D1" d="M12.094,8.934c0,0,0.615-1.85,0.754-1.918c0.137-0.067,5.545-2.669,5.545-2.669l-1.131,4.141L12.094,8.934z
		"/>
	<path fill="#A7C8D1" d="M18.871,4.244l-1.162,4.21l11.979-0.993L30.92,1.71c0,0-4.518,0.206-6.947,0.821
		C21.541,3.149,18.871,4.244,18.871,4.244z"/>
	<polygon fill="#A7C8D1" points="32.631,1.608 32.051,7.291 41.018,6.57 41.293,4.414 40.061,1.608 	"/>
	<path fill="none" stroke="#A2A3A4" stroke-width="0.5" d="M31.811,1.301c0,0-1.061,6.812-1.096,7.085
		c-0.033,0.272-0.514,3.936-0.377,5.647c0.137,1.711,0.344,3.834,0.344,3.834s-13.555,0-14.035,0c-0.479,0-0.889-0.035-1.061-0.65
		c-0.172-0.616-1.334-5.307-0.137-8.251"/>
	<path fill="none" stroke="#A2A3A4" stroke-width="0.5" d="M40.984,1.402l2.807,6.777c0,0-0.104,2.361-0.172,2.807
		s-0.17,0.891-0.582,1.096c-0.41,0.205-2.293,1.267-2.908,2.499c-0.615,1.231-0.48,3.079-1.232,3.148
		c-0.754,0.068-8.215,0.138-8.215,0.138"/>
	<path fill="#D0AC33" d="M26.197,10.063c0,0,0.309-0.547,0.752-0.65c0.445-0.104,2.225-0.479,2.225,0.035
		c0,0.513,0.24,0.821-0.752,1.026S26.367,10.781,26.197,10.063z"/>
	<path fill="#FFFFFF" d="M26.197,10.063l2.943-0.343c0,0,0.137-0.513-0.412-0.513c-0.547,0-1.779,0.205-2.018,0.343
		C26.471,9.686,26.197,10.063,26.197,10.063z"/>
	<path fill="#D0AC33" d="M39.752,8.658c0,0,0.309-0.546,0.752-0.649c0.445-0.104,2.225-0.479,2.225,0.034
		c0,0.514,0.24,0.822-0.752,1.027S39.924,9.379,39.752,8.658z"/>
	<path fill="#FFFFFF" d="M39.752,8.658l2.943-0.341c0,0,0.137-0.513-0.41-0.513c-0.549,0-1.781,0.204-2.02,0.341
		C40.025,8.283,39.752,8.658,39.752,8.658z"/>
	<path fill="#DE2C42" d="M50.672,6.537c0,0,0.924-0.034,1.162,0.205c0.24,0.24,0.549,1.131,0.582,1.644
		c0.035,0.513,0.035,2.772,0.035,2.772l-0.496-0.565c0,0-1.592-0.94-2.002-1.249c-0.412-0.308-1.594-1.471-1.594-1.471
		S49.131,7.051,50.672,6.537z"/>
	<path fill="#A7C8D1" d="M48.721,1.864c0,0,2.566,3.682,3.113,4.878c0,0-0.717-0.308-1.162-0.205
		C50.672,6.537,48.959,2.225,48.721,1.864z"/>
	<path fill="#FCCD28" d="M16.715,8.487c-0.17-0.308-0.307-0.614-0.273-0.924c0.035-0.308,0.309-0.958,0.891-1.164
		c0.58-0.205,1.197,0,1.197,0s-0.035,1.233-0.102,1.506c-0.068,0.274-0.275,0.412-0.719,0.549
		C17.262,8.591,16.715,8.487,16.715,8.487z"/>
	<path fill="#FFEDB2" d="M16.338,16.841c0,0,21.291-0.481,21.564-0.515c0.273-0.034-0.65-0.171-1.094-0.238
		c-0.445-0.068-12.289-0.104-14.582,0C19.934,16.189,16.031,16.703,16.338,16.841z"/>
	<path fill="#F5C7C1" d="M49.156,7.718c0,0,1.924-0.154,2.105-0.179c0.18-0.027,0.385,0.256,0.41,0.409
		c0.025,0.154,0.078,0.386,0.025,0.488c-0.051,0.104-0.59,0.129-0.846,0.129c-0.258,0-0.797,0.129-1.131,0S48.744,7.82,49.156,7.718
		z"/>
	<path fill="#F5C7C1" d="M50.287,8.898c0.15-0.023,1.539-0.076,1.617-0.076c0.076,0,0.205,0.847,0.025,0.847s-0.617,0.128-0.873,0
		C50.799,9.541,49.953,8.951,50.287,8.898z"/>
	<path fill="#535252" d="M7.285,8.77c0,0-0.77,0-0.924,0.053C6.207,8.873,6.207,9.463,6.336,9.645
		C6.336,9.645,6.848,9.463,7.285,8.77z"/>
	<path fill="#B3BABC" d="M6.182,9.054c0,0-3.029,0.925-4.75,3.413c0,0,3.492-0.796,3.799-0.949c0.309-0.154,2.105-1.849,2.363-2.619
		C7.594,8.898,6.67,8.796,6.182,9.054z"/>
	
		<linearGradient id="SVGID_2_" gradientUnits="userSpaceOnUse" x1="-562.4668" y1="247.0605" x2="-558.6152" y2="247.0605" gradientTransform="matrix(1 0 0 -1 564 258)">
		<stop  offset="0" style="stop-color:#FFFFFF"/>
		<stop  offset="1" style="stop-color:#535252"/>
	</linearGradient>
	<path fill="url(#SVGID_2_)" d="M5.385,9.438c0,0-1.564,1.515-1.564,2.438l-2.287,0.564C1.533,12.441,2.92,10.413,5.385,9.438z"/>
</g>
</svg>
