<?xml version="1.0" encoding="utf-8"?>
<!-- Generator: Adobe Illustrator 15.0.0, SVG Export Plug-In . SVG Version: 6.00 Build 0)  -->
<!DOCTYPE svg PUBLIC "-//W3C//DTD SVG 1.1//EN" "http://www.w3.org/Graphics/SVG/1.1/DTD/svg11.dtd">
<svg version="1.1" id="Слой_1" xmlns="http://www.w3.org/2000/svg" xmlns:xlink="http://www.w3.org/1999/xlink" x="0px" y="0px"
	 width="226px" height="146px" viewBox="0 0 226 146" enable-background="new 0 0 226 146" xml:space="preserve">
<path opacity="0.7" fill="#A6A8AB" d="M47.228,138.012c0,0-19.084,10.508-27.906,4.971l-8.104,2.533l-10.223-0.382
	c0,0-0.822-1.488-0.758-3.614c0.098-3.356,2.396-8.298,13.61-11.481c0,0,2.03-9.646,11.347-12.649c0,0,0.242-9.577,4.799-8.858
	c0,0,5.135-16.991,19.599-7.337c0,0,0.605-4.909,4.188-3.952c0,0,2.965-23.785,18.223-16.156c0,0-0.855-5.097,0.694-6.663
	c0,0-6.337-35.247,19.879-31.294c0,0,2.776-19.531,15.875-19.979c0,0-0.568-7.092,7.831-5.661c0,0-0.239-11.292,7.579-11.458
	c0,0,28.396-20.925,44.194,18.516c0,0,6.041-1.381,8.876,4.7c0,0,13.186-9.07,29.667,10.983c0,0,22.693,5.085,18.698,45.78
	c0,0-6.855,29.493-32.717,12.458c0,0-2.471,3.075-4.455,1.543c0,0-23.887,30.716-61.462,21.389c0,0-13.428,11.51-24.938,4.98
	c0,0-1.796,3.73-5.138,2.715c0,0-29.307,21.422-44.668,6.495C51.918,135.59,51.572,137.864,47.228,138.012z"/>
<path opacity="0.7" fill="#A6A8AB" d="M166.19,99.961c-2.749-5.764-4.401-1.403-18.185-9.215c0,0-14.471-13.386-23.032-1.264
	c0,0-18.506-17.342-23.873-0.722c0,0-16.425-1.081-17.144,10.53c0,0-15.932-4.663-20.061,11.882c0,0-2.095,1.288-2.488,5.519
	c0,0-13.417-4.577-13.61,10.462c0,0-8.981-0.12-7.831,6.005c0,0-6.622,0.98-7.01,5.241l-0.525,5.973l8.37,0.226
	c0,0,8.389-2.157,13.911-5c0,0,9.931,0.876,11.461-0.709c1.528-1.587,7.221,11.046,24.113-9.258c0,0,15.262,20.05,48.216-5.867
	c0,0,2.993-0.05,4.144-1.353C142.646,122.411,176.664,121.909,166.19,99.961z"/>
</svg>
