<?xml version="1.0" encoding="utf-8"?>
<!-- Generator: Adobe Illustrator 15.0.0, SVG Export Plug-In . SVG Version: 6.00 Build 0)  -->
<!DOCTYPE svg PUBLIC "-//W3C//DTD SVG 1.1//EN" "http://www.w3.org/Graphics/SVG/1.1/DTD/svg11.dtd">
<svg version="1.1" id="Слой_1" xmlns="http://www.w3.org/2000/svg" xmlns:xlink="http://www.w3.org/1999/xlink" x="0px" y="0px"
	 width="3995px" height="1100px" viewBox="0 0 3995 1100" enable-background="new 0 0 3995 1100" xml:space="preserve">
<rect x="3048.883" y="655.499" opacity="0.5" fill="#FFDD15" width="18.59" height="7.264"/>
<rect x="3070.891" y="635.165" opacity="0.5" fill="#FFDD15" width="10.471" height="7.266"/>
<rect x="3029.225" y="645.456" opacity="0.5" fill="#FFDD15" width="7.691" height="7.264"/>
<rect x="3084.518" y="553.823" opacity="0.5" fill="#FFDD15" width="7.693" height="7.264"/>
<rect x="3084.518" y="564.474" opacity="0.5" fill="#FFDD15" width="7.693" height="7.266"/>
<rect x="3050.758" y="543.565" opacity="0.5" fill="#FFDD15" width="18.59" height="7.266"/>
<rect x="3050.758" y="585.413" opacity="0.5" fill="#FFDD15" width="18.59" height="7.266"/>
<rect x="3061.654" y="512.583" opacity="0.5" fill="#FFDD15" width="7.693" height="7.264"/>
<rect x="3072.766" y="553.823" opacity="0.5" fill="#FFDD15" width="10.469" height="7.264"/>
<polygon opacity="0.5" fill="#FFDD15" points="2859.996,597.423 2847.752,597.423 2847.752,591.526 2859.996,589.101 "/>
<rect x="2905.037" y="600.007" opacity="0.5" fill="#FFDD15" width="9.795" height="13.652"/>
<rect x="2863.381" y="600.007" opacity="0.5" fill="#FFDD15" width="9.439" height="13.652"/>
<rect x="2919.836" y="617.925" opacity="0.5" fill="#FFDD15" width="9.795" height="10.922"/>
<polygon opacity="0.5" fill="#FFDD15" points="2782.824,634.629 2808.986,634.629 2808.986,622.025 2782.824,616.844 "/>
<rect x="2755.721" y="678.443" opacity="0.5" fill="#FFDD15" width="20.93" height="23.342"/>
<rect x="2934.834" y="714.588" opacity="0.5" fill="#FFDD15" width="20.93" height="23.344"/>
<rect x="2871.58" y="787.086" opacity="0.5" fill="#FFDD15" width="20.932" height="30.639"/>
<rect x="2966.506" y="795.582" opacity="0.5" fill="#FFDD15" width="16.141" height="20.943"/>
<rect x="2724.094" y="747.816" opacity="0.5" fill="#FFDD15" width="20.932" height="23.342"/>
<rect x="2665.064" y="750.215" opacity="0.5" fill="#FFDD15" width="16.137" height="20.943"/>
<rect x="2617.053" y="592.874" opacity="0.5" fill="#FFDD15" width="10.471" height="7.266"/>
<rect x="2626.418" y="531.716" opacity="0.5" fill="#FFDD15" width="14.354" height="7.266"/>
<rect x="2579.73" y="540.97" opacity="0.5" fill="#FFDD15" width="10.469" height="7.264"/>
<rect x="2536.141" y="592.874" opacity="0.5" fill="#FFDD15" width="10.471" height="7.266"/>
<rect x="2604.09" y="510.911" opacity="0.5" fill="#FFDD15" width="10.471" height="7.266"/>
<rect x="2617.053" y="510.911" opacity="0.5" fill="#FFDD15" width="10.471" height="7.266"/>
<rect x="2630.301" y="510.911" opacity="0.5" fill="#FFDD15" width="10.471" height="7.266"/>
</svg>
