<?xml version="1.0" encoding="utf-8"?>
<!-- Generator: Adobe Illustrator 16.0.0, SVG Export Plug-In . SVG Version: 6.00 Build 0)  -->
<!DOCTYPE svg PUBLIC "-//W3C//DTD SVG 1.1//EN" "http://www.w3.org/Graphics/SVG/1.1/DTD/svg11.dtd">
<svg version="1.1" id="Layer_1" xmlns="http://www.w3.org/2000/svg" xmlns:xlink="http://www.w3.org/1999/xlink" x="0px" y="0px"
	 width="1129px" height="411px" viewBox="0 0 1129 411" enable-background="new 0 0 1129 411" xml:space="preserve">
<symbol  id="biogaspie" viewBox="-144.099 -116.646 288.198 233.289">
	<path fill="#C5CCB8" d="M-129.179-9.459c0,55.227,44.771,100,100,100s100-44.773,100-100c0-55.225-44.771-100-100-100
		S-129.179-64.684-129.179-9.459z"/>
	<path fill="#C5CCB8" d="M-119.406-9.525c0,49.83,40.395,90.229,90.227,90.229c49.83,0,90.227-40.398,90.227-90.229
		c0-49.826-40.396-90.223-90.227-90.223C-79.011-99.748-119.406-59.352-119.406-9.525z"/>
	<text transform="matrix(1 0 0 -1 -76.2183 105.5938)" fill="#894B9D" font-family="'PTSans-Regular'" font-size="13">pigs</text>
	<text transform="matrix(1 0 0 -1 -20.585 101.5938)" fill="#3B97D3" font-family="'PTSans-Regular'" font-size="13">Sheep &amp; Goats</text>
	<text transform="matrix(1 0 0 -1 97.54 -26.0723)" fill="#C03A2B" font-family="'PTSans-Regular'" font-size="13">Cattle</text>
	<text transform="matrix(1 0 0 -1 -144.0996 84.4453)" fill="#E57E25" font-family="'PTSans-Regular'" font-size="13">Horses</text>
	<text transform="matrix(1 0 0 -1 -138.6572 -113.4609)" fill="#14A085" font-family="'PTSans-Regular'" font-size="13">Poultry</text>
	<path fill="#26B99A" d="M-29.996-8.188L-29.996-8.188l-59.148,66.581c-1.824-1.608-3.584-3.286-5.27-5.038
		c-4.999-5.196-9.36-11.011-12.99-17.312l63.46-36.943l-63.46,36.943c-7.546-13.098-11.889-28.325-11.992-44.65h-0.01
		c0-0.099,0.005-0.197,0.005-0.296c0-0.101-0.005-0.2-0.005-0.301h0.01c0.105-16.284,4.515-32.463,12.131-45.57
		c13.249-22.801,36.205-39.248,63.169-43.789l0,0c4.934-0.831,9.999-1.27,15.166-1.27v0.113
		c22.894,0.266,43.735,9.061,59.504,23.353L-29.996-8.188z"/>
	<path fill="#C03A2B" d="M60.227-9.506c0,49.83-40.396,90.227-90.223,90.227v-0.018V-8.188l60.569-68.179
		C48.785-59.86,60.227-36.022,60.227-9.506z"/>
	<path fill="#E57E25" d="M-47.667,78.912c-2.44-0.488-4.85-1.062-7.212-1.742c-12.882-3.707-24.528-10.186-34.265-18.776
		l58.548-65.904l0.917-1.032L-47.667,78.912z"/>
	<path fill="#3B97D3" d="M-29.679,80.703c-1.873,0-3.726-0.076-5.567-0.188l5.567-89.058V80.703z"/>
	<path fill="#894B9D" d="M-29.722-8.247c-0.479,4.562-3.962,62.167-5.559,88.759c-0.437-0.026-0.877-0.042-1.312-0.074
		c-1.979-0.149-3.942-0.355-5.883-0.628c-1.75-0.246-3.478-0.554-5.192-0.897l17.988-87.455L-29.722-8.247z"/>
	<path fill="#E57E25" d="M-29.722-8.249c0.019-0.179,0.033-0.283,0.043-0.294L-29.722-8.249z"/>
</symbol>
<g id="solar_hot_water">
</g>
<g id="biomasschart">
</g>
<g>
	
		<use xlink:href="#biogaspie"  width="288.198" height="233.289" x="-144.099" y="-116.646" transform="matrix(1 0 0 -1 594.9688 116.6436)" overflow="visible"/>
</g>
</svg>
