<?xml version="1.0" encoding="utf-8"?>
<!-- Generator: Adobe Illustrator 16.0.0, SVG Export Plug-In . SVG Version: 6.00 Build 0)  -->
<!DOCTYPE svg PUBLIC "-//W3C//DTD SVG 1.1//EN" "http://www.w3.org/Graphics/SVG/1.1/DTD/svg11.dtd">
<svg version="1.1" id="Layer_1" xmlns="http://www.w3.org/2000/svg" xmlns:xlink="http://www.w3.org/1999/xlink" x="0px" y="0px"
	 width="1129px" height="547.292px" viewBox="0 -117.708 1129 547.292" enable-background="new 0 -117.708 1129 547.292"
	 xml:space="preserve">
<g id="solar_hot_water">
</g>
<g>
	<text transform="matrix(1 0 0 1 515.0674 337.5654)" fill="#565756" font-family="'PTSans-Regular'" font-size="17.1521">Hectares </text>
</g>
<g>
	<rect x="286.539" y="-26.586" fill="#C5CCB8" width="556.784" height="297.744"/>
	<g>
		<g>
			<text transform="matrix(1 0 0 1 294.1787 293.7725)" fill="#6D6D6D" font-family="'PTSans-Regular'" font-size="17.1521">0</text>
		</g>
		<g>
			<text transform="matrix(1 0 0 1 803.0928 293.7725)" fill="#6D6D6D" font-family="'PTSans-Regular'" font-size="17.1521">1500</text>
		</g>
		<g>
			<text transform="matrix(1 0 0 1 695.7012 291.7705)" fill="#6D6D6D" font-family="'PTSans-Regular'" font-size="17.1521">1200</text>
		</g>
		<g>
			<text transform="matrix(1 0 0 1 588.3096 291.7705)" fill="#6D6D6D" font-family="'PTSans-Regular'" font-size="17.1521">9000</text>
		</g>
		<g>
			<text transform="matrix(1 0 0 1 480.918 291.7705)" fill="#6D6D6D" font-family="'PTSans-Regular'" font-size="17.1521">6000</text>
		</g>
		<g>
			<text transform="matrix(1 0 0 1 373.5264 291.7705)" fill="#6D6D6D" font-family="'PTSans-Regular'" font-size="17.1521">3000</text>
		</g>
	</g>
	<text transform="matrix(1 0 0 1 153.3311 260.9033)" fill="#2980BA" font-family="'PTSans-Regular'" font-size="17">Bowen Island</text>
	<g>
		<rect x="298.535" y="33.375" fill="#E64C3C" width="263.879" height="10"/>
	</g>
	<text transform="matrix(1 0 0 1 219.1211 40.6226)" fill="#E64C3C" font-family="'PTSans-Regular'" font-size="17">Delta</text>
	<g>
		<rect x="298.535" y="-15.578" fill="#E57E25" width="529.086" height="10"/>
	</g>
	<text transform="matrix(1 0 0 1 112.4468 -8.3306)" fill="#E57E25" font-family="'PTSans-Regular'" font-size="17">langley (township)</text>
	<g>
		<rect x="298.535" y="106.801" fill="#D25627" width="67.098" height="10"/>
	</g>
	<text transform="matrix(1 0 0 1 161.1514 114.0483)" fill="#D25627" font-family="'PTSans-Regular'" font-size="17">Maple Ridge</text>
	<text transform="matrix(1 0 0 1 121.7197 236.4287)" fill="#D25627" font-family="'PTSans-Regular'" font-size="17">New Westminster</text>
	<g>
		<rect x="298.535" y="58.244" fill="#9778B5" width="185.998" height="10"/>
	</g>
	<text transform="matrix(1 0 0 1 152.6172 65.0991)" fill="#9778B5" font-family="'PTSans-Regular'" font-size="17">Pitt Meadows</text>
	<g>
		<rect x="298.535" y="155.754" fill="#C03A2B" width="20.453" height="10"/>
	</g>
	<g>
		<text transform="matrix(1 0 0 1 140.4204 163.0015)" fill="#C03A2B" font-family="'PTSans-Regular'" font-size="17">Port Coquitlam</text>
	</g>
	<g>
		<rect x="298.535" y="82.326" fill="#14A085" width="163.501" height="10"/>
	</g>
	<g>
		<text transform="matrix(1 0 0 1 181.4995 89.5757)" fill="#14A085" font-family="'PTSans-Regular'" font-size="17">Richmond</text>
	</g>
	<g>
		<rect x="298.535" y="8.898" fill="#2980BA" width="327.001" height="10"/>
	</g>
	<g>
		<text transform="matrix(1 0 0 1 210.3828 16.146)" fill="#2980BA" font-family="'PTSans-Regular'" font-size="17">Surrey</text>
	</g>
	<g>
		<g>
			<text transform="matrix(1 0 0 1 178.4229 211.9546)" fill="#26B99A" font-family="'PTSans-Regular'" font-size="17">Vancouver</text>
		</g>
	</g>
	<text transform="matrix(1 0 0 1 179.3154 138.5249)" fill="#3B97D3" font-family="'PTSans-Regular'" font-size="17">Coquitlam</text>
	<g>
		<rect x="298.535" y="131.277" fill="#3B97D3" width="26.949" height="10"/>
	</g>
	<text transform="matrix(1 0 0 1 196.0518 187.478)" fill="#894B9D" font-family="'PTSans-Regular'" font-size="17">Burnaby</text>
	<g>
		<rect x="298.535" y="180.23" fill="#894B9D" width="7.158" height="10"/>
	</g>
</g>
</svg>
