<?xml version="1.0" encoding="utf-8"?>
<!-- Generator: Adobe Illustrator 16.0.0, SVG Export Plug-In . SVG Version: 6.00 Build 0)  -->
<!DOCTYPE svg PUBLIC "-//W3C//DTD SVG 1.1//EN" "http://www.w3.org/Graphics/SVG/1.1/DTD/svg11.dtd">
<svg version="1.1" id="Layer_1" xmlns="http://www.w3.org/2000/svg" xmlns:xlink="http://www.w3.org/1999/xlink" x="0px" y="0px"
	 width="1129px" height="581.292px" viewBox="0 0 1129 581.292" enable-background="new 0 0 1129 581.292" xml:space="preserve">
<g id="solar_hot_water">
</g>
<g id="biomasschart">
</g>
<g>
	<rect x="285.242" y="-104.499" fill="#C5CCB8" width="556.784" height="375.085"/>
	<g>
		<rect x="301.469" y="198.194" fill="#14A085" width="5.351" height="10"/>
	</g>
	<text transform="matrix(1 0 0 1 209.5601 207.1294)" fill="#14A085" font-family="'PTSans-Regular'" font-size="17">anmore</text>
	<g>
		<text transform="matrix(1 0 0 1 288.043 293.772)" fill="#6D6D6D" font-family="'PTSans-Regular'" font-size="17.1521">0</text>
	</g>
	<g>
		<text transform="matrix(1 0 0 1 810.1875 293.772)" fill="#6D6D6D" font-family="'PTSans-Regular'" font-size="17.1521">150</text>
	</g>
	<g>
		<text transform="matrix(1 0 0 1 630.9824 291.77)" fill="#6D6D6D" font-family="'PTSans-Regular'" font-size="17.1521">100</text>
	</g>
	<g>
		<text transform="matrix(1 0 0 1 455.645 291.77)" fill="#6D6D6D" font-family="'PTSans-Regular'" font-size="17.1521">50</text>
	</g>
	<g>
		<rect x="301.469" y="100.39" fill="#9778B5" width="11.948" height="10"/>
	</g>
	<text transform="matrix(1 0 0 1 200.7036 109.3208)" fill="#9778B5" font-family="'PTSans-Regular'" font-size="17">BELcarra</text>
	<g>
		<rect x="301.469" y="27.033" fill="#3B97D3" width="77.405" height="10"/>
	</g>
	<text transform="matrix(1 0 0 1 167.8091 35.9653)" fill="#3B97D3" font-family="'PTSans-Regular'" font-size="17">bowen island</text>
	<g>
		<rect x="301.469" y="2.581" fill="#C03A2B" width="109.697" height="10"/>
	</g>
	<text transform="matrix(1 0 0 1 192.0342 11.5122)" fill="#C03A2B" font-family="'PTSans-Regular'" font-size="17">coquitlam</text>
	<g>
		<rect x="301.469" y="247.099" fill="#C03A2B" width="3.033" height="10"/>
	</g>
	<text transform="matrix(1 0 0 1 130.3418 256.0317)" fill="#C03A2B" font-family="'PTSans-Regular'" font-size="17">langley (township)</text>
	<g>
		<rect x="301.469" y="173.743" fill="#E57E25" width="9.591" height="10"/>
	</g>
	<text transform="matrix(1 0 0 1 199.0039 182.6763)" fill="#E57E25" font-family="'PTSans-Regular'" font-size="17">lions bay</text>
	<g>
		<rect x="301.469" y="-70.774" fill="#E57E25" width="411.675" height="10"/>
	</g>
	<text transform="matrix(1 0 0 1 177.8052 -61.8413)" fill="#E57E25" font-family="'PTSans-Regular'" font-size="17">maple ridge</text>
	<g>
		<rect x="301.469" y="222.647" fill="#894B9D" width="5.351" height="10"/>
	</g>
	<text transform="matrix(1 0 0 1 102.7852 231.5786)" fill="#894B9D" font-family="'PTSans-Regular'" font-size="17">North Vancouver (city)</text>
	<g>
		<rect x="301.469" y="-46.322" fill="#14A085" width="261.83" height="10"/>
	</g>
	<g>
		<text transform="matrix(1 0 0 1 78.3057 -37.3901)" fill="#14A085" font-family="'PTSans-Regular'" font-size="17">North Vancouver (district)</text>
	</g>
	<g>
		<rect x="301.469" y="51.485" fill="#D25627" width="65.182" height="10"/>
	</g>
	<g>
		<text transform="matrix(1 0 0 1 165.5996 60.4185)" fill="#D25627" font-family="'PTSans-Regular'" font-size="17">Pitt MEadows</text>
	</g>
	<g>
		<rect x="301.469" y="149.292" fill="#2980BA" width="10.146" height="10"/>
	</g>
	<g>
		<text transform="matrix(1 0 0 1 157.6436 158.2231)" fill="#2980BA" font-family="'PTSans-Regular'" font-size="17">port coquitlam</text>
	</g>
	<g>
		<rect x="301.469" y="75.937" fill="#26B99A" width="46.418" height="10"/>
	</g>
	<g>
		<text transform="matrix(1 0 0 1 180.6777 84.8677)" fill="#26B99A" font-family="'PTSans-Regular'" font-size="17">port moody</text>
	</g>
	<g>
		<rect x="301.469" y="124.841" fill="#E64C3C" width="10.146" height="10"/>
	</g>
	<g>
		<text transform="matrix(1 0 0 1 217.8564 133.7739)" fill="#E64C3C" font-family="'PTSans-Regular'" font-size="17">Surrey</text>
	</g>
	<rect x="301.469" y="-21.871" fill="#9778B5" width="130.915" height="10"/>
	<g>
		<text transform="matrix(1 0 0 1 151.5571 -12.937)" fill="#9778B5" font-family="'PTSans-Regular'" font-size="17">west vancouver</text>
	</g>
	<rect x="301.469" y="-95.225" fill="#2980BA" width="530.205" height="10"/>
	<g>
		<text transform="matrix(1 0 0 1 151.8804 -86.2925)" fill="#2980BA" font-family="'PTSans-Regular'" font-size="17">electroal area a</text>
	</g>
	<g>
		<text transform="matrix(1 0 0 1 376.1538 337.5649)" fill="#565756" font-family="'PTSans-Regular'" font-size="17.1521">Tonnes of stemwood biomass per year (x 1,000)</text>
	</g>
</g>
<g id="biogaschart">
</g>
</svg>
