<?xml version="1.0" encoding="utf-8"?>
<!-- Generator: Adobe Illustrator 16.0.0, SVG Export Plug-In . SVG Version: 6.00 Build 0)  -->
<!DOCTYPE svg PUBLIC "-//W3C//DTD SVG 1.1//EN" "http://www.w3.org/Graphics/SVG/1.1/DTD/svg11.dtd">
<svg version="1.1" id="Layer_1" xmlns="http://www.w3.org/2000/svg" xmlns:xlink="http://www.w3.org/1999/xlink" x="0px" y="0px"
	 width="1130px" height="271px" viewBox="0 0 1130 271" enable-background="new 0 0 1130 271" xml:space="preserve">
<symbol  id="biggerplant" viewBox="-14.406 -14.337 28.813 28.675">
	<g>
		<path fill="#8FAA64" d="M-2.033,5.997c0,0-3.794,6.437-8.78,3.417C-10.813,9.414-8.591,4.305-2.033,5.997z"/>
	</g>
	<g>
		<path fill="#8FAA64" d="M-1.225,6.016c0,0,0.034,5.647,5.412,6.142C4.187,12.157,4.79,8.042-1.225,6.016z"/>
	</g>
	<g>
		<path fill="#8FAA64" d="M-1.418,6.93c0,0,0.478-1.258,0.98-3.207c0.253-0.975,0.519-2.12,0.747-3.359
			c0.241-1.237,0.433-2.569,0.59-3.907c0.155-1.338,0.252-2.684,0.309-3.948c0.036-0.632,0.028-1.244,0.043-1.825
			c0.019-0.581-0.004-1.13-0.014-1.638c-0.008-1.016-0.072-1.859-0.111-2.451c-0.038-0.593-0.06-0.931-0.06-0.931l-1.472,0.173
			c0,0,0.042,0.327,0.115,0.898c0.074,0.572,0.188,1.39,0.258,2.378c0.041,0.494,0.097,1.028,0.114,1.597
			c0.021,0.567,0.066,1.167,0.07,1.787c0.022,1.241,0.01,2.567-0.06,3.893C0.02-2.286-0.086-0.96-0.248,0.276
			c-0.149,1.238-0.34,2.388-0.53,3.369c-0.378,1.964-0.772,3.238-0.772,3.238L-1.418,6.93z"/>
	</g>
	<g>
		<path fill="#8FAA64" d="M6.64-2.3c0,0-0.663-0.148-1.479-0.735C4.34-3.604,3.44-4.611,2.813-5.778
			C2.647-6.064,2.496-6.357,2.371-6.66C2.234-6.955,2.105-7.247,2.009-7.544C1.784-8.122,1.636-8.685,1.505-9.163
			c-0.136-0.478-0.193-0.893-0.259-1.174c-0.059-0.284-0.091-0.446-0.091-0.446l-1.06,0.229c0,0,0.05,0.168,0.136,0.46
			c0.095,0.29,0.191,0.714,0.377,1.203C0.79-8.399,0.996-7.826,1.286-7.238c0.127,0.3,0.291,0.598,0.461,0.896
			c0.159,0.305,0.345,0.6,0.545,0.887c0.767,1.17,1.806,2.145,2.713,2.662c0.899,0.536,1.609,0.632,1.609,0.632L6.64-2.3z"/>
	</g>
	<g opacity="0.5">
		<path fill="#8FAA64" d="M-1.484,5.279c0,0-5.584,9.474-12.922,5.029C-14.407,10.309-11.136,2.79-1.484,5.279z"/>
	</g>
	<g opacity="0.5">
		<path fill="#8FAA64" d="M-0.676,5.299c0,0,0.05,8.311,7.964,9.038C7.289,14.337,8.175,8.28-0.676,5.299z"/>
	</g>
	<g>
		<path fill="#8FAA64" d="M6.08-2.459c0,0,0.814,4.75,5.412,4.418C11.491,1.959,11.425-1.59,6.08-2.459z"/>
	</g>
	<g opacity="0.5">
		<path fill="#8FAA64" d="M6.442-3.14c0,0,1.199,6.991,7.964,6.502C14.406,3.362,14.31-1.86,6.442-3.14z"/>
	</g>
	<g>
		<path fill="#8FAA64" d="M6.194-2.02c0,0-4.608,1.412-3.693,5.93C2.5,3.91,6.012,3.394,6.194-2.02z"/>
	</g>
	<g opacity="0.5">
		<path fill="#8FAA64" d="M6.542-3.024c0,0-6.781,2.079-5.436,8.728C1.106,5.703,6.275,4.942,6.542-3.024z"/>
	</g>
</symbol>
<symbol  id="biomassplant" viewBox="-434.254 -152.485 868.507 304.971">
	<g>
		<polygon fill="#444444" points="37.838,-122.11 24.425,-133.309 -38.399,-50.411 -24.987,-39.219 		"/>
		<polygon fill="#444444" points="-434.254,152.486 -413.663,152.486 -413.663,-149.137 -434.254,-149.137 		"/>
		<polygon fill="#26B99A" points="-241.455,-150.354 -77.358,-150.354 -77.358,8.881 -241.455,108.209 		"/>
		<polygon fill="#14A085" points="-420.152,-150.354 -240.582,-150.354 -240.582,21.501 -420.152,-42.668 		"/>
		<g>
			<polygon fill="#FFFFFF" points="-386.065,-100.333 -405.974,-100.333 -405.974,-77.662 -386.065,-77.662 			"/>
			<polygon fill="#FFFFFF" points="-359.292,-100.333 -379.21,-100.333 -379.21,-77.662 -359.292,-77.662 			"/>
			<polygon fill="#FFFFFF" points="-332.534,-100.333 -352.441,-100.333 -352.441,-77.662 -332.534,-77.662 			"/>
			<polygon fill="#FFFFFF" points="-305.762,-100.333 -325.673,-100.333 -325.673,-77.662 -305.762,-77.662 			"/>
			<polygon fill="#FFFFFF" points="-278.996,-100.333 -298.904,-100.333 -298.904,-77.662 -278.996,-77.662 			"/>
			<polygon fill="#FFFFFF" points="-251.128,-100.333 -271.046,-100.333 -271.046,-77.662 -251.128,-77.662 			"/>
		</g>
		
			<line fill="none" stroke="#465964" stroke-width="6.5246" stroke-miterlimit="10" x1="-56.816" y1="-2.1" x2="-247.089" y2="112.952"/>
		<polyline fill="none" stroke="#83A551" stroke-width="2.2263" stroke-miterlimit="10" points="-342.478,-150.354 -342.478,-58.83 
			-240.582,-58.83 -240.582,-150.354 		"/>
		<polyline fill="none" stroke="#83A551" stroke-width="2.2263" stroke-miterlimit="10" points="-342.478,-141.556 
			-243.744,-104.582 -342.478,-64.422 		"/>
		<polyline fill="none" stroke="#83A551" stroke-width="2.2263" stroke-miterlimit="10" points="-240.942,-141.556 
			-339.686,-104.582 -240.942,-64.422 		"/>
		<polygon fill="#83A551" points="-230.194,-58.786 -354.437,-58.786 -354.437,-52.18 -230.194,-52.18 		"/>
		<polygon fill="#D1E2E8" points="18.037,-150.354 18.037,-46.467 159.116,7.391 159.116,-150.354 		"/>
		
			<line fill="none" stroke="#465964" stroke-width="6.5246" stroke-miterlimit="10" x1="-3.369" y1="-54.646" x2="172.518" y2="12.496"/>
		<polyline fill="#EAC36E" points="153.568,-150.354 153.568,-6.896 24.888,-53.668 24.888,-150.354 		"/>
		
			<line fill="#6F6757" stroke="#BA9466" stroke-width="0.1215" stroke-miterlimit="10" x1="37.838" y1="-50.221" x2="37.838" y2="-150.555"/>
		
			<line fill="#6F6757" stroke="#BA9466" stroke-width="0.1252" stroke-miterlimit="10" x1="52.626" y1="-43.991" x2="52.626" y2="-150.555"/>
		
			<line fill="#6F6757" stroke="#BA9466" stroke-width="0.1283" stroke-miterlimit="10" x1="67.414" y1="-38.713" x2="67.414" y2="-150.555"/>
		
			<line fill="#6F6757" stroke="#BA9466" stroke-width="0.1315" stroke-miterlimit="10" x1="82.214" y1="-32.953" x2="82.214" y2="-150.555"/>
		
			<line fill="#6F6757" stroke="#BA9466" stroke-width="0.1344" stroke-miterlimit="10" x1="97.011" y1="-27.739" x2="97.011" y2="-150.555"/>
		
			<line fill="#6F6757" stroke="#BA9466" stroke-width="0.1374" stroke-miterlimit="10" x1="111.799" y1="-22.275" x2="111.799" y2="-150.555"/>
		
			<line fill="#6F6757" stroke="#BA9466" stroke-width="0.1398" stroke-miterlimit="10" x1="126.588" y1="-16.199" x2="126.588" y2="-149.137"/>
		
			<line fill="#6F6757" stroke="#BA9466" stroke-width="0.1415" stroke-miterlimit="10" x1="141.382" y1="-12.962" x2="141.382" y2="-149.137"/>
		<polygon fill="#D1E2E8" points="159.116,-150.354 159.116,-46.467 300.203,7.391 300.203,-150.354 		"/>
		<polyline fill="#EAC36E" points="161.85,-150.354 161.85,-53.668 290.534,-6.896 290.534,-150.354 		"/>
		
			<line fill="none" stroke="#465964" stroke-width="6.5246" stroke-miterlimit="10" x1="138.258" y1="-54.646" x2="314.14" y2="12.496"/>
		<g>
			
				<line fill="#6F6757" stroke="#BA9466" stroke-width="0.1215" stroke-miterlimit="10" x1="174.411" y1="-50.221" x2="174.411" y2="-150.555"/>
			
				<line fill="#6F6757" stroke="#BA9466" stroke-width="0.1252" stroke-miterlimit="10" x1="189.209" y1="-43.991" x2="189.209" y2="-150.555"/>
			
				<line fill="#6F6757" stroke="#BA9466" stroke-width="0.1283" stroke-miterlimit="10" x1="204.011" y1="-38.713" x2="204.011" y2="-150.555"/>
			
				<line fill="#6F6757" stroke="#BA9466" stroke-width="0.1315" stroke-miterlimit="10" x1="218.795" y1="-32.953" x2="218.795" y2="-150.555"/>
			
				<line fill="#6F6757" stroke="#BA9466" stroke-width="0.1344" stroke-miterlimit="10" x1="233.591" y1="-27.739" x2="233.591" y2="-150.555"/>
			
				<line fill="#6F6757" stroke="#BA9466" stroke-width="0.1374" stroke-miterlimit="10" x1="248.388" y1="-22.275" x2="248.388" y2="-150.555"/>
			
				<line fill="#6F6757" stroke="#BA9466" stroke-width="0.1398" stroke-miterlimit="10" x1="263.185" y1="-16.199" x2="263.185" y2="-149.137"/>
			
				<line fill="#6F6757" stroke="#BA9466" stroke-width="0.1415" stroke-miterlimit="10" x1="277.963" y1="-12.962" x2="277.963" y2="-149.137"/>
		</g>
		<g>
			<path fill="#C7904C" d="M27.578-150.354c0,0,10.021,66.94,42.802,66.94c34.843,0,51.712-17.827,63.955-30.625
				c5.799-6.056,19.333-36.315,19.333-36.315H27.578z"/>
			<path fill="#BA9466" d="M28.229-150.354c0,0,17.046,21.194,39.536,27.619c16.814,4.798,40.472,47.127,55.155,47.127
				c33.893,0,27.311-74.746,27.311-74.746H28.229z"/>
			<path fill="#D2A36B" d="M146.59-150.354c0,0-28.637,39.476-58.073,44.222c-29.444,4.743-20.691-28.082-36.606-27.708
				c-15.912,0.396-21.482-16.514-21.482-16.514H146.59z"/>
		</g>
		<g>
			<path fill="#C7904C" d="M289.244-150.354c0,0-10.023,85.952-42.815,85.952c-34.822,0-51.707-22.911-63.954-39.337
				c-5.799-7.773-19.329-46.615-19.329-46.615H289.244z"/>
			<path fill="#BA9466" d="M288.585-150.354c0,0-17.028,21.194-39.534,27.619c-16.81,4.798-40.471,47.127-55.16,47.127
				c-33.877,0-27.3-74.746-27.3-74.746H288.585z"/>
			<path fill="#D2A36B" d="M170.218-150.354c0,0,28.764,70.252,58.325,78.686c29.566,8.437,20.783-49.985,36.756-49.296
				c15.983,0.697,21.57-29.39,21.57-29.39H170.218z"/>
		</g>
		<polygon fill="#444444" points="-26.495,-117.415 -43.334,-117.415 -43.334,-39.825 -26.495,-39.825 		"/>
		<polygon fill="#D25627" points="-264.315,-43.392 -264.315,-25.728 -240.582,-25.728 -240.582,-43.392 		"/>
		<polygon fill="#D25627" points="-361.248,-43.392 -361.248,-25.728 -337.51,-25.728 -337.51,-43.392 		"/>
		<polygon fill="#D25627" points="-77.358,-150.354 -26.495,-150.354 -26.495,-117.415 -77.358,-117.415 		"/>
		<g>
			<polygon fill="#FFFFFF" points="-199.072,-43.406 -218.987,-43.406 -218.987,-20.716 -199.072,-20.716 			"/>
			<polygon fill="#FFFFFF" points="-199.072,-100.333 -218.987,-100.333 -218.987,-77.662 -199.072,-77.662 			"/>
		</g>
		<g>
			<polygon fill="#FFFFFF" points="-172.315,-43.406 -192.224,-43.406 -192.224,-20.716 -172.315,-20.716 			"/>
			<polygon fill="#FFFFFF" points="-172.315,-100.333 -192.224,-100.333 -192.224,-77.662 -172.315,-77.662 			"/>
		</g>
		<g>
			<polygon fill="#FFFFFF" points="-145.537,-43.406 -165.456,-43.406 -165.456,-20.716 -145.537,-20.716 			"/>
			<polygon fill="#FFFFFF" points="-145.537,-100.333 -165.456,-100.333 -165.456,-77.662 -145.537,-77.662 			"/>
		</g>
		<g>
			<polygon fill="#FFFFFF" points="-118.768,-43.406 -138.68,-43.406 -138.68,-20.716 -118.768,-20.716 			"/>
			<polygon fill="#FFFFFF" points="-118.768,-100.333 -138.68,-100.333 -138.68,-77.662 -118.768,-77.662 			"/>
		</g>
		<polygon fill="#FFFFFF" points="-91.997,-43.406 -111.917,-43.406 -111.917,-20.716 -91.997,-20.716 		"/>
		<polygon fill="#FFFFFF" points="-91.997,-100.333 -111.917,-100.333 -111.917,-77.662 -91.997,-77.662 		"/>
		
			<line fill="none" stroke="#465964" stroke-width="6.5246" stroke-miterlimit="10" x1="-432.192" y1="-46.094" x2="-227.529" y2="26.068"/>
		<polygon fill="#E57E25" points="-247.089,-8.867 -340.853,-8.867 -340.853,-52.18 -247.089,-52.18 		"/>
		<polygon fill="#D25627" points="-253.923,-0.571 -268.247,-0.571 -268.247,-8.867 -253.923,-8.867 		"/>
		<polygon fill="#D25627" points="-308.225,17.975 -323.222,17.975 -323.222,-8.867 -308.225,-8.867 		"/>
	</g>
	
		<use xlink:href="#biotruck"  width="167.679" height="92.358" id="XMLID_15_" x="-83.838" y="-46.178" transform="matrix(1.216 0 0 1.216 332.3022 -96.332)" overflow="visible"/>
</symbol>
<symbol  id="biotruck" viewBox="-83.838 -46.178 167.679 92.358">
	<polygon fill="#4C4D4F" points="-12.7,-30.205 -28.245,-37.378 -48.4,-37.378 -58.654,-30.205 	"/>
	<polyline fill="#4C4D4F" points="54.63,-41.104 46.366,-35.391 43.891,-23.635 54.63,-23.635 54.63,-43.41 	"/>
	<path fill="#7D7B7C" d="M81.711-25.073v15.043l-9.846,4.723L60.538,7.415c0,0-15.114,15.79-21.411,15.79s-15.743,0-15.743,0
		v-57.024h25.49h32.837V-25.073z"/>
	<polygon fill="#444345" points="29.04,-8.005 31.161,-8.005 31.161,-1.083 29.04,-1.083 	"/>
	<polygon fill="#B3B7BD" points="23.025,-24.891 23.025,-31.834 -13.55,-31.834 -83.837,-31.834 -83.837,-24.891 	"/>
	<polygon fill="#3F3E41" points="-83.837,-25.869 23.025,-25.869 23.025,-17.403 -83.837,-17.403 	"/>
	<polygon fill="#14A085" points="-83.837,-19.398 23.384,-19.398 23.384,46.18 -83.837,46.18 	"/>
	<path fill="#D1E2E8" d="M56.794-4.544v8.641c0,0-10.218,14.778-15.04,15.123c-4.821,0.345-13.776,0-13.776,0V2.688H44.51
		l4.477-7.232H56.794z"/>
	<polygon fill="#9CA2A8" points="66.942,-33.819 83.841,-33.819 83.841,-24.219 80.287,-24.219 66.942,-24.219 	"/>
	<g>
		<path fill="#383738" d="M50.854-33.786c0-6.844,5.549-12.393,12.393-12.393S75.64-40.63,75.64-33.786
			c0,6.845-5.548,12.394-12.393,12.394S50.854-26.941,50.854-33.786z"/>
		<path fill="#7E8F98" d="M54.63-33.786c0-4.759,3.858-8.617,8.618-8.617s8.617,3.858,8.617,8.617c0,4.76-3.858,8.618-8.617,8.618
			S54.63-29.026,54.63-33.786z"/>
		<path fill="#707174" d="M55.492-33.786c0-4.283,3.472-7.755,7.756-7.755c4.283,0,7.755,3.472,7.755,7.755
			c0,4.284-3.472,7.756-7.755,7.756C58.964-26.03,55.492-29.502,55.492-33.786z"/>
		<path fill="#BEC7CC" d="M61.696-33.786c0-0.856,0.694-1.551,1.551-1.551c0.856,0,1.551,0.694,1.551,1.551
			c0,0.857-0.694,1.552-1.551,1.552C62.391-32.234,61.696-32.929,61.696-33.786z"/>
		<path fill="#BEC7CC" d="M68.697-33.786c0-3.009-2.44-5.449-5.449-5.449c-3.01,0-5.45,2.44-5.45,5.449c0,3.01,2.44,5.45,5.45,5.45
			C66.257-28.336,68.697-30.776,68.697-33.786z"/>
		<path fill="#E0E0E0" d="M65.234-33.522c0-1.098-0.89-1.987-1.987-1.987c-1.098,0-1.987,0.89-1.987,1.987s0.89,1.987,1.987,1.987
			C64.345-31.535,65.234-32.425,65.234-33.522z"/>
	</g>
	<polygon fill="#F4D180" points="76.134,-21.083 80.361,-21.083 80.361,-17.715 76.134,-17.715 	"/>
	<polygon fill="#CCCFD0" points="52.547,8.239 46.844,-1.083 48.987,-4.544 56.794,-4.544 56.794,4.097 	"/>
	<line fill="none" stroke="#CCCFD0" stroke-width="1.0608" stroke-miterlimit="10" x1="44.51" y1="2.688" x2="44.51" y2="18.165"/>
	<g>
		<path fill="#CCCFD0" d="M76.134-15.324c0,0-0.622,0.459-1.833,1.026c-0.605,0.282-1.346,0.612-2.223,0.917
			c-0.87,0.325-1.879,0.61-2.978,0.913c-2.201,0.602-4.827,1.088-7.664,1.383c-0.706,0.099-1.43,0.149-2.161,0.216
			c-0.73,0.073-1.471,0.122-2.221,0.152l-1.126,0.058c-0.177,0.007-0.404,0.028-0.539,0.025l-0.572-0.002
			c-0.764-0.004-1.531-0.007-2.297-0.01c-6.135-0.037-12.271,0.048-16.872,0.219c-2.301,0.074-4.218,0.194-5.56,0.261
			c-1.342,0.068-2.108,0.136-2.108,0.136s0.767,0.067,2.108,0.136c1.342,0.066,3.259,0.187,5.56,0.261
			c4.602,0.171,10.737,0.256,16.872,0.219c0.767-0.003,1.534-0.006,2.297-0.01l0.572-0.002c0.247-0.001,0.398-0.022,0.602-0.034
			l1.142-0.087c0.759-0.05,1.51-0.119,2.251-0.213c0.741-0.088,1.475-0.154,2.19-0.278c2.866-0.444,5.509-1.073,7.714-1.797
			c1.104-0.36,2.091-0.761,2.948-1.154c0.862-0.38,1.583-0.776,2.17-1.11C75.57-14.791,76.134-15.324,76.134-15.324z"/>
	</g>
	<g>
		<path fill="#383738" d="M-50.555-33.786c0-6.844,5.548-12.393,12.393-12.393c6.845,0,12.393,5.549,12.393,12.393
			c0,6.845-5.548,12.394-12.393,12.394C-45.006-21.393-50.555-26.941-50.555-33.786z"/>
		<path fill="#7E8F98" d="M-46.779-33.786c0-4.759,3.858-8.617,8.617-8.617s8.618,3.858,8.618,8.617c0,4.76-3.858,8.618-8.618,8.618
			S-46.779-29.026-46.779-33.786z"/>
		<path fill="#707174" d="M-45.917-33.786c0-4.283,3.472-7.755,7.755-7.755c4.284,0,7.756,3.472,7.756,7.755
			c0,4.284-3.472,7.756-7.756,7.756C-42.445-26.03-45.917-29.502-45.917-33.786z"/>
		<path fill="#BEC7CC" d="M-39.713-33.786c0-0.856,0.694-1.551,1.551-1.551c0.857,0,1.551,0.694,1.551,1.551
			c0,0.857-0.694,1.552-1.551,1.552C-39.019-32.234-39.713-32.929-39.713-33.786z"/>
		<path fill="#BEC7CC" d="M-32.712-33.786c0-3.009-2.44-5.449-5.45-5.449c-3.009,0-5.449,2.44-5.449,5.449
			c0,3.01,2.44,5.45,5.449,5.45C-35.152-28.336-32.712-30.776-32.712-33.786z"/>
		<path fill="#E0E0E0" d="M-36.175-33.522c0-1.098-0.89-1.987-1.987-1.987c-1.097,0-1.987,0.89-1.987,1.987s0.89,1.987,1.987,1.987
			C-37.064-31.535-36.175-32.425-36.175-33.522z"/>
	</g>
	<polygon fill="#2980BA" points="8.712,-19.708 -71.129,-19.708 -71.129,46.157 8.712,46.157 	"/>
	<g>
		<line fill="none" stroke="#959797" stroke-miterlimit="10" x1="-71.129" y1="45.669" x2="-71.129" y2="-19.708"/>
		<line fill="none" stroke="#959797" stroke-miterlimit="10" x1="8.712" y1="45.669" x2="8.712" y2="-19.708"/>
	</g>
</symbol>
<symbol  id="smallplant" viewBox="-8.003 -6.985 16.006 13.97">
	<g>
		<path fill="#8FAA64" d="M1.468,0.615c0,0-2.904,4.927-6.721,2.615C-5.253,3.23-3.552-0.68,1.468,0.615z"/>
	</g>
	<g>
		<path fill="#8FAA64" d="M1.468,0.615c0,0,0.026,4.323,4.143,4.701C5.61,5.316,6.071,2.166,1.468,0.615z"/>
	</g>
	<g>
		<path fill="#8FAA64" d="M1.534,0.639c0,0,0.783-1.683,1.144-3.562c0.083-0.472,0.153-0.952,0.155-1.423
			C2.848-4.814,2.801-5.275,2.683-5.68C2.644-5.882,2.556-6.067,2.475-6.231c-0.072-0.168-0.153-0.308-0.25-0.414
			c-0.18-0.216-0.283-0.34-0.283-0.34l-0.948,1.14c0,0,0.047,0.047,0.146,0.123C1.196-5.692,1.25-5.63,1.303-5.545
			c0.06,0.078,0.135,0.164,0.184,0.298c0.125,0.239,0.233,0.58,0.291,0.971C1.85-3.889,1.867-3.447,1.871-3.004
			c-0.009,1.792-0.47,3.597-0.47,3.597L1.534,0.639z"/>
	</g>
	<g opacity="0.5">
		<path fill="#8FAA64" d="M1.888,0.066c0,0-4.274,7.251-9.891,3.85C-8.003,3.916-5.5-1.84,1.888,0.066z"/>
	</g>
	<g opacity="0.5">
		<path fill="#8FAA64" d="M1.888,0.066c0,0,0.039,6.361,6.097,6.919C7.984,6.985,8.663,2.349,1.888,0.066z"/>
	</g>
</symbol>
<use xlink:href="#biomassplant"  width="868.507" height="304.971" x="-434.254" y="-152.485" transform="matrix(0.8606 0 0 -0.8606 565 135.5005)" overflow="visible"/>
</svg>
