<?xml version="1.0" encoding="utf-8"?>
<!-- Generator: Adobe Illustrator 16.0.0, SVG Export Plug-In . SVG Version: 6.00 Build 0)  -->
<!DOCTYPE svg PUBLIC "-//W3C//DTD SVG 1.1//EN" "http://www.w3.org/Graphics/SVG/1.1/DTD/svg11.dtd">
<svg version="1.1" id="Layer_1" xmlns="http://www.w3.org/2000/svg" xmlns:xlink="http://www.w3.org/1999/xlink" x="0px" y="0px"
	 width="945.461px" height="804.008px" viewBox="0 0 945.461 804.008" enable-background="new 0 0 945.461 804.008"
	 xml:space="preserve">
<pattern  x="-536.833" y="95.969" width="144" height="150" patternUnits="userSpaceOnUse" id="Vertical_Stripe_copy_3" viewBox="0 -150 144 150" overflow="visible">
	<g>
		<polygon fill="none" points="0,-150 144,-150 144,0 0,0 		"/>
		<g>
			<line fill="none" stroke="#2980BA" stroke-width="2" stroke-miterlimit="10" x1="122" y1="-150" x2="122" y2="0"/>
			<line fill="none" stroke="#2980BA" stroke-width="2" stroke-miterlimit="10" x1="126" y1="-150" x2="126" y2="0"/>
			<line fill="none" stroke="#2980BA" stroke-width="2" stroke-miterlimit="10" x1="130" y1="-150" x2="130" y2="0"/>
			<line fill="none" stroke="#2980BA" stroke-width="2" stroke-miterlimit="10" x1="134" y1="-150" x2="134" y2="0"/>
			<line fill="none" stroke="#2980BA" stroke-width="2" stroke-miterlimit="10" x1="138" y1="-150" x2="138" y2="0"/>
			<line fill="none" stroke="#2980BA" stroke-width="2" stroke-miterlimit="10" x1="142" y1="-150" x2="142" y2="0"/>
		</g>
		<g>
			<line fill="none" stroke="#2980BA" stroke-width="2" stroke-miterlimit="10" x1="74" y1="-150" x2="74" y2="0"/>
			<line fill="none" stroke="#2980BA" stroke-width="2" stroke-miterlimit="10" x1="78" y1="-150" x2="78" y2="0"/>
			<line fill="none" stroke="#2980BA" stroke-width="2" stroke-miterlimit="10" x1="82" y1="-150" x2="82" y2="0"/>
			<line fill="none" stroke="#2980BA" stroke-width="2" stroke-miterlimit="10" x1="86" y1="-150" x2="86" y2="0"/>
			<line fill="none" stroke="#2980BA" stroke-width="2" stroke-miterlimit="10" x1="90" y1="-150" x2="90" y2="0"/>
			<line fill="none" stroke="#2980BA" stroke-width="2" stroke-miterlimit="10" x1="94" y1="-150" x2="94" y2="0"/>
			<line fill="none" stroke="#2980BA" stroke-width="2" stroke-miterlimit="10" x1="98" y1="-150" x2="98" y2="0"/>
			<line fill="none" stroke="#2980BA" stroke-width="2" stroke-miterlimit="10" x1="102" y1="-150" x2="102" y2="0"/>
			<line fill="none" stroke="#2980BA" stroke-width="2" stroke-miterlimit="10" x1="106" y1="-150" x2="106" y2="0"/>
			<line fill="none" stroke="#2980BA" stroke-width="2" stroke-miterlimit="10" x1="110" y1="-150" x2="110" y2="0"/>
			<line fill="none" stroke="#2980BA" stroke-width="2" stroke-miterlimit="10" x1="114" y1="-150" x2="114" y2="0"/>
			<line fill="none" stroke="#2980BA" stroke-width="2" stroke-miterlimit="10" x1="118" y1="-150" x2="118" y2="0"/>
			<line fill="none" stroke="#2980BA" stroke-width="2" stroke-miterlimit="10" x1="122" y1="-150" x2="122" y2="0"/>
			<line fill="none" stroke="#2980BA" stroke-width="2" stroke-miterlimit="10" x1="126" y1="-150" x2="126" y2="0"/>
			<line fill="none" stroke="#2980BA" stroke-width="2" stroke-miterlimit="10" x1="130" y1="-150" x2="130" y2="0"/>
			<line fill="none" stroke="#2980BA" stroke-width="2" stroke-miterlimit="10" x1="134" y1="-150" x2="134" y2="0"/>
			<line fill="none" stroke="#2980BA" stroke-width="2" stroke-miterlimit="10" x1="138" y1="-150" x2="138" y2="0"/>
			<line fill="none" stroke="#2980BA" stroke-width="2" stroke-miterlimit="10" x1="142" y1="-150" x2="142" y2="0"/>
		</g>
		<g>
			<line fill="none" stroke="#2980BA" stroke-width="2" stroke-miterlimit="10" x1="26" y1="-150" x2="26" y2="0"/>
			<line fill="none" stroke="#2980BA" stroke-width="2" stroke-miterlimit="10" x1="30" y1="-150" x2="30" y2="0"/>
			<line fill="none" stroke="#2980BA" stroke-width="2" stroke-miterlimit="10" x1="34" y1="-150" x2="34" y2="0"/>
			<line fill="none" stroke="#2980BA" stroke-width="2" stroke-miterlimit="10" x1="38" y1="-150" x2="38" y2="0"/>
			<line fill="none" stroke="#2980BA" stroke-width="2" stroke-miterlimit="10" x1="42" y1="-150" x2="42" y2="0"/>
			<line fill="none" stroke="#2980BA" stroke-width="2" stroke-miterlimit="10" x1="46" y1="-150" x2="46" y2="0"/>
			<line fill="none" stroke="#2980BA" stroke-width="2" stroke-miterlimit="10" x1="50" y1="-150" x2="50" y2="0"/>
			<line fill="none" stroke="#2980BA" stroke-width="2" stroke-miterlimit="10" x1="54" y1="-150" x2="54" y2="0"/>
			<line fill="none" stroke="#2980BA" stroke-width="2" stroke-miterlimit="10" x1="58" y1="-150" x2="58" y2="0"/>
			<line fill="none" stroke="#2980BA" stroke-width="2" stroke-miterlimit="10" x1="62" y1="-150" x2="62" y2="0"/>
			<line fill="none" stroke="#2980BA" stroke-width="2" stroke-miterlimit="10" x1="66" y1="-150" x2="66" y2="0"/>
			<line fill="none" stroke="#2980BA" stroke-width="2" stroke-miterlimit="10" x1="70" y1="-150" x2="70" y2="0"/>
			<line fill="none" stroke="#2980BA" stroke-width="2" stroke-miterlimit="10" x1="74" y1="-150" x2="74" y2="0"/>
			<line fill="none" stroke="#2980BA" stroke-width="2" stroke-miterlimit="10" x1="78" y1="-150" x2="78" y2="0"/>
			<line fill="none" stroke="#2980BA" stroke-width="2" stroke-miterlimit="10" x1="82" y1="-150" x2="82" y2="0"/>
			<line fill="none" stroke="#2980BA" stroke-width="2" stroke-miterlimit="10" x1="86" y1="-150" x2="86" y2="0"/>
			<line fill="none" stroke="#2980BA" stroke-width="2" stroke-miterlimit="10" x1="90" y1="-150" x2="90" y2="0"/>
			<line fill="none" stroke="#2980BA" stroke-width="2" stroke-miterlimit="10" x1="94" y1="-150" x2="94" y2="0"/>
			<line fill="none" stroke="#2980BA" stroke-width="2" stroke-miterlimit="10" x1="98" y1="-150" x2="98" y2="0"/>
			<line fill="none" stroke="#2980BA" stroke-width="2" stroke-miterlimit="10" x1="102" y1="-150" x2="102" y2="0"/>
			<line fill="none" stroke="#2980BA" stroke-width="2" stroke-miterlimit="10" x1="106" y1="-150" x2="106" y2="0"/>
			<line fill="none" stroke="#2980BA" stroke-width="2" stroke-miterlimit="10" x1="110" y1="-150" x2="110" y2="0"/>
			<line fill="none" stroke="#2980BA" stroke-width="2" stroke-miterlimit="10" x1="114" y1="-150" x2="114" y2="0"/>
			<line fill="none" stroke="#2980BA" stroke-width="2" stroke-miterlimit="10" x1="118" y1="-150" x2="118" y2="0"/>
		</g>
		<g>
			<line fill="none" stroke="#2980BA" stroke-width="2" stroke-miterlimit="10" x1="2" y1="-150" x2="2" y2="0"/>
			<line fill="none" stroke="#2980BA" stroke-width="2" stroke-miterlimit="10" x1="6" y1="-150" x2="6" y2="0"/>
			<line fill="none" stroke="#2980BA" stroke-width="2" stroke-miterlimit="10" x1="10" y1="-150" x2="10" y2="0"/>
			<line fill="none" stroke="#2980BA" stroke-width="2" stroke-miterlimit="10" x1="14" y1="-150" x2="14" y2="0"/>
			<line fill="none" stroke="#2980BA" stroke-width="2" stroke-miterlimit="10" x1="18" y1="-150" x2="18" y2="0"/>
			<line fill="none" stroke="#2980BA" stroke-width="2" stroke-miterlimit="10" x1="22" y1="-150" x2="22" y2="0"/>
			<line fill="none" stroke="#2980BA" stroke-width="2" stroke-miterlimit="10" x1="26" y1="-150" x2="26" y2="0"/>
			<line fill="none" stroke="#2980BA" stroke-width="2" stroke-miterlimit="10" x1="30" y1="-150" x2="30" y2="0"/>
			<line fill="none" stroke="#2980BA" stroke-width="2" stroke-miterlimit="10" x1="34" y1="-150" x2="34" y2="0"/>
			<line fill="none" stroke="#2980BA" stroke-width="2" stroke-miterlimit="10" x1="38" y1="-150" x2="38" y2="0"/>
			<line fill="none" stroke="#2980BA" stroke-width="2" stroke-miterlimit="10" x1="42" y1="-150" x2="42" y2="0"/>
			<line fill="none" stroke="#2980BA" stroke-width="2" stroke-miterlimit="10" x1="46" y1="-150" x2="46" y2="0"/>
			<line fill="none" stroke="#2980BA" stroke-width="2" stroke-miterlimit="10" x1="50" y1="-150" x2="50" y2="0"/>
			<line fill="none" stroke="#2980BA" stroke-width="2" stroke-miterlimit="10" x1="54" y1="-150" x2="54" y2="0"/>
			<line fill="none" stroke="#2980BA" stroke-width="2" stroke-miterlimit="10" x1="58" y1="-150" x2="58" y2="0"/>
			<line fill="none" stroke="#2980BA" stroke-width="2" stroke-miterlimit="10" x1="62" y1="-150" x2="62" y2="0"/>
			<line fill="none" stroke="#2980BA" stroke-width="2" stroke-miterlimit="10" x1="66" y1="-150" x2="66" y2="0"/>
			<line fill="none" stroke="#2980BA" stroke-width="2" stroke-miterlimit="10" x1="70" y1="-150" x2="70" y2="0"/>
		</g>
		<g>
			<line fill="none" stroke="#2980BA" stroke-width="2" stroke-miterlimit="10" x1="2" y1="-150" x2="2" y2="0"/>
			<line fill="none" stroke="#2980BA" stroke-width="2" stroke-miterlimit="10" x1="6" y1="-150" x2="6" y2="0"/>
			<line fill="none" stroke="#2980BA" stroke-width="2" stroke-miterlimit="10" x1="10" y1="-150" x2="10" y2="0"/>
			<line fill="none" stroke="#2980BA" stroke-width="2" stroke-miterlimit="10" x1="14" y1="-150" x2="14" y2="0"/>
			<line fill="none" stroke="#2980BA" stroke-width="2" stroke-miterlimit="10" x1="18" y1="-150" x2="18" y2="0"/>
			<line fill="none" stroke="#2980BA" stroke-width="2" stroke-miterlimit="10" x1="22" y1="-150" x2="22" y2="0"/>
		</g>
	</g>
</pattern>
<g>
	<path fill="none" stroke="#2980BA" stroke-width="3" stroke-linecap="square" stroke-linejoin="round" stroke-miterlimit="10" d="
		M794.373,364.438 M945.461,266.67c-0.772,2.007-1.129,4.319-2.393,5.97c-5.805,7.583-11.865,14.98-17.834,22.443l0.092,0.195
		c-6.209-6.025-8.693-5.833-12.475,0.964c-3.701,1.817-7.328,3.796-11.119,5.41c-5.365,2.287-11.99,3.077-16.061,6.675
		c-9.812,8.667-18.434,18.613-27.582,27.997c-1.51,1.549-3.027,3.419-4.945,4.2c-7.389,3.013-14.941,5.647-22.434,8.422
		c-1.496,0.045-2.994,0.069-4.488,0.146c-0.494,0.027-0.982,0.192-1.473,0.295c0.242,0.178,0.469,0.384,0.73,0.529
		c0.622,0.348,1.261,0.667,1.893,0.998c-0.738,0.095-1.477,0.202-2.215,0.285c-9.643,1.084-19.285,2.136-28.918,3.297
		c-0.857,0.104-1.629,0.911-2.439,1.39c0.525,0.71,1.004,1.983,1.586,2.029c2.373,0.189,4.779,0.005,7.173-0.043
		c-2.101,0.907-4.204,1.808-6.296,2.732c-0.121,0.054-0.162,0.298-0.229,0.456c-1.369,3.281,4.496,14.624,8.098,15.333
		c13.162,2.586,26.414,4.776,39.504,7.664c12.379,2.729,24.299,1.419,36.628-0.865c16.242-3.008,32.374-0.577,42.962,12.876
		c5.279,6.706,7.98,16.365,8.971,25.002c1.239,10.812,2.635,20.927,10.557,28.655 M444.264,189.603
		c1.387-0.28,13.361-3.096,14.764-2.684c5.828,1.715,11.732,3.273,17.385,5.441c9.426,3.616,15.17-3.374,21.631-7.228
		c6.479-3.862,10.947-2.721,16.617,1.383c4.672,3.381,10.637,5.052,15.998,7.541c1.312,0.61,2.703,1.265,3.719,2.235
		c4.967,4.758,10.584,5.923,17.055,3.394c4.984-1.947,9.873-4.298,15.037-5.581c6.449-1.603,13.098-2.748,19.727-3.278
		c10.543-0.844,21.822-5.115,30.676,4.942c0.677,0.768,2.887,0.611,4.281,0.355c4.494-0.825,8.1-1.854,13.336,0.562
		c5.133,2.368,14.809,2.202,18.602-1.101c5.629-4.901,10.459-5.421,16.807-4.644c2.25,0.275,4.619-0.178,6.91-0.466
		c9.607-1.216,19.135-2.305,26.209,6.397c3.607,4.436,7.31,8.793,11.008,13.157c1.578,1.859,3.663,3.588-0.439,5.076
		c-0.541,0.198-1.027,2.132-0.656,2.787c0.75,1.329,2.105,2.331,3.211,3.469c0.564-0.535,1.633-1.084,1.617-1.603
		c-0.156-5.142,3.604-3.896,6.203-3.308c4.273,0.963,9.414-2.172,12.971,2.564c0.293,0.39,2.04-0.238,3.105-0.424
		c4.484-0.782,7.619-7.669,13.393-2.842c0.033,0.027,0.816-0.565,1.002-0.975c2.746-6.027,0.107-10.404-6.828-11.44
		c-1.256-0.187-2.736-0.153-3.697-0.804c-4.51-3.05-8.85-6.336-13.295-9.476c-10.227-7.228-21.163-13.697-30.387-21.981
		c-3.68-3.304-6.91-4.346-10.848-4.351c-4.865-0.005-9.736,1.018-14.589,1.711c-0.846,0.121-1.696,0.71-2.392,1.267
		c-8.126,6.51-16.954,11.176-27.918,10.863c-1.746-0.049-4.148,0.423-5.18,1.568c-5.062,5.623-11.793,4.41-18.121,4.531
		c-1.687,0.032-4.922-1.588-4.877-2.288c0.526-7.896-10.994-6.831-10.85-14.184c0.002-0.147-0.266-0.287-0.299-0.451
		c-0.977-4.916-2.891-9.875-2.689-14.748c0.326-7.857,2.178-15.645,3.068-23.495c0.18-1.575-1.051-3.303-1.633-4.959
		c-1.023,0.674-2.012,1.405-3.076,2.01c-1.044,0.595-2.149,1.1-3.281,1.503c-0.072,0.026-1.018-1.335-0.834-1.747
		c0.51-1.155,1.281-2.256,2.164-3.185c1.424-1.497,3.168-2.713,4.506-4.272c2.832-3.299,5.533-6.708,8.207-10.135
		c2.606-3.341,7.391-6.939,7.125-10.097c-0.396-4.724,1.78-3.248,3.975-3.548c1.396-0.19,2.801-1.26,4.087-1.092
		c2.599,0.339,5.118,1.252,7.671,1.93c-1.248,1.657-2.18,4.316-3.797,4.799c-7.693,2.297-9.082,6.809-7.154,13.942
		c0.654,2.424-1.417,5.633-2.484,8.393c-1.228,3.175-2.722,6.247-4.102,9.365c1.035,0.314,2.654,1.208,3.018,0.859
		c3.961-3.805,7.855-7.695,11.502-11.786c2.912-3.265,5.254-7.018,8.215-10.234c4.637-5.038,9.783-9.631,14.336-14.735
		c4.236-4.747,7.035-11.525,12.221-14.4c4.379-2.425,2.891-3.783,1.205-5.301c-4.59-4.128-3.459-8.56-1.715-13.27
		c0.311-0.834,0.664-1.807,0.51-2.627c-2.004-10.718,3.348-19.247,8.397-27.977c6.454-11.158,12.585-22.495,18.854-33.754
		 M727.861,29.487c-1.439-6.169-2.246-11.708-4.223-16.819c-0.583-1.504-4.473-1.793-6.848-2.638
		c-0.584,3.02-1.402,6.02-1.682,9.066c-0.279,3.051,0.97,8.387-0.154,8.858c-6.812,2.857-2.914,6.787-2.016,10.58
		c0.744,3.154,2.311,7.601-2.912,7.778c-7.117,0.241-5.232,2.7-2.473,6.104c1.518,1.872,4.008,3.605,4.32,5.652
		c0.5,3.282,0.133,6.958-0.932,10.128c-1.221,3.644-3.943,6.796-5.29,10.42c-0.478,1.283,0.955,3.45,1.897,4.989
		c2.9,4.73,5.967,9.361,9.043,13.982c0.205,0.31,1.039,0.22,1.582,0.314c-0.232-0.575-0.396-1.187-0.709-1.718
		c-1.557-2.646-3.445-5.145-4.676-7.923c-3.664-8.277-1.572-14.997,4.988-16.883c6.844-1.966,8.057-5.424,4.754-11.884
		c-1.02-1.996-1.486-4.765-0.982-6.907C723.38,44.802,725.729,37.132,727.861,29.487z M674.078,118.27
		c0.205-4.582-7.977-10.94-12.299-9.96c-0.984,0.224-2.141,1.684-2.375,2.751c-0.783,3.572-0.461,6.694,2.357,9.906
		c2.68,3.053,3.908,7.312,5.812,11.022c0.307,0.598,0.811,1.103,1.223,1.65c0.652-0.548,1.713-0.995,1.895-1.664
		C671.972,127.226,673.07,122.433,674.078,118.27z"/>
	<path fill="none" stroke="#2980BA" stroke-width="3" stroke-linecap="square" stroke-linejoin="round" stroke-miterlimit="10" d="
		M575.73,512.57c-4.178,1.666-8.852,3.669-13.125,3.314c-15.026-1.243-29.932-5.403-44.215-0.426
		c-2.126-0.226-3.412-0.362-4.701-0.499c0.703-1.181,1.117-2.785,2.163-3.473c4.767-3.126,9.36-7.015,14.665-8.739
		c10.535-3.423,19.342-8.334,24.314-18.436c1.334-2.711,12.412-4.875,13.797-7.562"/>
	<path fill="none" stroke="#2980BA" stroke-width="3" stroke-linecap="square" stroke-linejoin="round" stroke-miterlimit="10" d="
		M361.896,612.472c0.334,0.876,12.646-4.494,13.955-5.198c9.652-5.189,16.344-15.437,28.799-15.9
		c0.441-0.017,0.947-0.602,1.275-1.029c3.736-4.853,8.576-9.253,10.957-14.678c9.334-21.252,26.27-31.047,49.022-33.064
		c0.503-0.044,0.829-1.579,1.314-2.375c0.378-0.624,0.771-1.496,1.349-1.678c0.564-0.176,1.371,0.386,2.071,0.623
		c-0.272,0.561-0.782,1.128-0.763,1.678c0.032,0.936,0.408,2.675,0.621,2.672c5.191-0.064,10.69,0.67,15.498-0.767
		c6.963-2.079,13.387-5.837,20.107-8.732c18.207-7.847,36.42-11.733,56.275-4.325c4.509,1.682,11.949-2.275,17.109-5.199"/>
	<path fill="none" stroke="#2980BA" stroke-width="3" stroke-linecap="square" stroke-linejoin="round" stroke-miterlimit="10" d="
		M579.488,524.498c9.273-8.318,28.596-26.848,37.799-35.239c0.469-0.429,0.832-1.193,0.857-1.813
		c0.105-2.707-0.68-5.681,0.209-8.082c3.695-9.997,7.068-20.238,12.113-29.591c4.84-8.969,11.594-16.954,17.521-25.362
		c0.944-1.342,1.961-2.631,2.945-3.945c-0.475-0.124-0.946-0.257-1.424-0.369"/>
	<path fill="none" stroke="#2980BA" stroke-width="3" stroke-linecap="square" stroke-linejoin="round" stroke-miterlimit="10" d="
		M568.629,476.751c1.281,0.149,4.344-2.319,5.643-3.017c9.051-4.871,18.076-9.785,27.098-14.707
		c0.412-0.225,0.713-0.645,1.066-0.976c-0.436-0.276-0.842-0.636-1.316-0.814c-1.152-0.434-2.336-0.784-3.505-1.169
		c0.972-1.534,3.138-2.387,4.411-3.628c8.204-3.614,11.717-13.526,18.383-19.743c0.797-0.744,1.975-1.101,2.975-1.637
		c-0.078,0.986,0.072,2.053-0.27,2.942c-4.973,12.964-11.266,25.6-14.68,38.938c-3.365,13.146-23.186,30.84-32.703,39.629"/>
	<g>
		<g>
			<pattern  id="SVGID_1_" xlink:href="#Vertical_Stripe_copy_3" patternTransform="matrix(1 0 0 1 1260.4951 3714.5645)">
			</pattern>
			<path fill="url(#SVGID_1_)" d="M275.962,631.914c-2.757,0-5.609-0.318-8.368-0.627c-1.767-0.197-3.593-0.401-5.406-0.524
				c-0.938-0.064-1.947-0.095-3.173-0.095c-0.871,0-1.747,0.016-2.622,0.03c-0.856,0.015-1.713,0.029-2.562,0.029
				c-2.703,0-5.545-0.133-8.013-1.1c-6.205-2.436-12.042-6.254-17.687-9.945c-1.148-0.751-2.296-1.502-3.444-2.24
				c-0.179-0.338-0.26-1.425-0.309-2.085c-0.054-0.708-0.107-1.44-0.25-2.111c-0.121-0.575-0.284-1.125-0.441-1.657
				c-0.068-0.231-0.138-0.464-0.202-0.696c-0.125-0.451-0.453-0.818-0.888-0.992c-0.18-0.072-0.369-0.107-0.558-0.107
				c-0.268,0-0.534,0.071-0.77,0.212c-0.173,0.104-0.383,0.193-0.592,0.287c-0.787,0.352-1.766,0.789-2.091,1.825
				c-0.474,1.519-0.869,1.762-0.873,1.764c-0.232-0.04-1.068-0.734-1.518-1.107c-0.424-0.353-0.862-0.717-1.321-1.015
				c-0.359-0.232-0.725-0.616-1.112-1.021c-0.667-0.699-1.424-1.492-2.493-1.867c-2.504-0.881-5.046-1.825-7.505-2.739
				c-11.332-4.211-23.049-8.564-35.805-8.564c-1.064,0-2.137,0.03-3.188,0.091c-0.104,0.006-0.208,0.009-0.312,0.009
				c-1.035,0-2.272-0.28-3.782-0.857c-0.292-0.111-0.584-0.271-0.879-0.461c0.341-0.135,0.68-0.265,1.023-0.388
				c0.182-0.064,0.473-0.095,0.78-0.126c0.195-0.02,0.392-0.04,0.583-0.069c0.564-0.084,1.031-0.48,1.207-1.022
				c0.175-0.542,0.027-1.137-0.381-1.535l-0.105-0.108c-0.166-0.174-0.338-0.342-0.529-0.482c-0.497-0.375-1.202-0.555-2.202-0.555
				c-1.919,0-5.193,0.736-6.58,1.611c-0.359-0.035-0.899-0.209-1.191-0.385c-8.672-5.247-18.428-9.242-30.001-12.234
				c0.045-0.049,0.083-0.095,0.114-0.137c1.642-2.184,2.749-2.184,3.112-2.184c1.157,0,2.458,0.896,3.835,1.845
				c0.793,0.547,1.613,1.111,2.483,1.557c0.9,0.462,1.878,0.464,2.74,0.466c0.294,0.001,0.587,0,0.867,0.025
				c0.045,0.004,0.09,0.006,0.135,0.006c0.399,0,0.784-0.159,1.067-0.446c0.315-0.319,0.471-0.763,0.425-1.208
				c-0.018-0.165-0.022-0.334-0.028-0.504c-0.014-0.388-0.03-0.845-0.146-1.318c0.05,0.036,0.098,0.073,0.144,0.112
				c0.7,0.592,1.277,1.432,1.889,2.32c0.412,0.6,0.838,1.219,1.331,1.807c0.55,0.652,1.353,0.781,1.883,0.867
				c0.124,0.02,0.249,0.036,0.358,0.067c0.134,0.037,0.271,0.056,0.406,0.056c0.366,0,0.725-0.134,1.004-0.386
				c0.383-0.344,0.562-0.86,0.475-1.367c-0.265-1.543-0.176-2.671,0.251-3.176c0.344-0.408,1.086-0.598,2.337-0.598
				c0.518,0,1.05,0.03,1.57,0.059c0.554,0.03,1.096,0.06,1.604,0.06c0.709,0,1.269-0.056,1.761-0.175
				c3.677-0.892,7.423-2.515,7.326-7.787c-0.23-12.188-0.475-23.19-1.13-34.441c-0.217-3.737-0.799-7.479-1.362-11.097
				c-0.388-2.489-0.788-5.062-1.061-7.587c-0.354-3.29-0.296-6.733-0.239-10.063c0.134-7.959,0.272-16.189-4.906-23.897
				c-0.581-0.965,0.519-5.41,1.511-6.096c2.394-0.88,6.073-1.971,9.601-1.971c1.31,0,2.494,0.155,3.52,0.461
				c6.4,1.907,13.419,2.796,22.088,2.796c4.474,0,9.007-0.226,13.39-0.444c4.342-0.217,8.831-0.441,13.22-0.441
				c3.063,0,5.812,0.107,8.403,0.328c0.702,0.06,1.422,0.09,2.142,0.09c3.052,0,5.973-0.518,8.448-1.498
				c17.749-7.039,28.548-21.015,33.014-42.727c1.279-6.22,14.595-17.588,21.689-18.553c0.35,0.01,0.699,0.014,1.05,0.014
				c1.419,0,2.852-0.071,4.237-0.141c1.343-0.066,2.731-0.136,4.064-0.136c1.688,0,3.062,0.108,4.321,0.342
				c3.471,0.643,6.956,1.768,10.326,2.854c2.7,0.872,5.494,1.773,8.32,2.446c2.598,0.617,6.173,0.944,10.341,0.944
				c11.633,0,31.851-2.783,40.249-10.433c5.01-2.126,10.225-3.16,15.932-3.16c3.854,0,7.904,0.47,12.384,1.436
				c1.136,0.245,2.259,0.248,3.345,0.252c0.82,0.002,1.595,0.005,2.32,0.109c1.789,0.26,3.588,0.489,5.388,0.719
				c4.808,0.613,9.778,1.247,14.448,2.478c3.64,0.958,7.254,2.41,10.75,3.815c2.755,1.106,5.603,2.25,8.497,3.172
				c13.867,4.418,29.594,10.211,40.718,23.11c3.43,3.979,7.705,7.694,12.363,10.745c5.481,3.591,11.082,6.789,17.012,10.175
				c2.479,1.415,4.984,2.846,7.512,4.325c0.233,0.136,0.495,0.205,0.758,0.205c0.21,0,0.42-0.044,0.616-0.133l4.731-2.129
				c5.471-2.46,10.194-4.584,14.955-6.795c0.36-0.167,0.64-0.471,0.776-0.845c0.537-1.467-0.617-2.583-1.381-3.321
				c-0.076-0.073-0.167-0.161-0.255-0.249c0.465-0.662,0.912-1.354,1.347-2.028c1.378-2.135,2.803-4.343,4.596-5.211
				c6.789-3.286,19.319-12.766,28.469-19.688c2.739-2.071,5.132-3.881,6.945-5.203c2.717,0.072,5.466,0.103,8.13,0.133
				c5.034,0.056,10.24,0.114,15.319,0.457c2.361,0.16,7.837,1.842,10.434,3.138c-0.294,1.049-1.041,2.875-1.74,3.571
				c-1.547,1.54-3.084,3.096-4.622,4.651c-5.942,6.013-12.087,12.23-18.788,17.47c-4.773,3.731-10.246,6.859-15.538,9.886
				c-2.931,1.676-5.962,3.408-8.866,5.236c-0.06,0.038-0.117,0.079-0.171,0.125c-0.722,0.612-2.312,1.794-4.152,3.163
				c-6.608,4.913-11.754,8.841-12.898,10.976c-2.926,5.453-7.26,8.715-14.96,11.255c-13.143,4.339-25.822,9.034-37.689,13.956
				c-2.97,1.232-5.354,3.557-7.661,5.805c-0.941,0.918-1.831,1.785-2.759,2.584c-1.13,0.972-2.184,2.098-3.202,3.187
				c-1.978,2.113-3.846,4.109-5.999,4.793c-13.39,4.251-27.715,7.709-39.225,10.487c-15.993,3.858-28.792,11.81-39.127,24.307
				c-6.437,7.782-18.009,19.811-28.22,30.423c-6.165,6.408-12.018,12.491-16.358,17.229c-0.246-0.332-0.522-0.706-0.82-1.106
				c-3.049-4.116-5.623-7.577-6.244-8.231c-0.586-0.622-1.457-0.622-1.744-0.622c-0.03,0-3.098,0.02-3.645,1.72
				c-0.519,1.6-0.464,3.54,0.14,4.941c0.659,1.523,0.832,2.655,0.487,3.188c-0.227,0.348-1.034,0.937-3.912,0.971
				c-1.803,0.021-3.688,0.145-5.262,0.907c-5.261,2.546-10.587,5.176-15.737,7.719c-9.545,4.713-19.415,9.586-29.24,14.111
				c-3.528,1.625-8.07,1.851-12.051,1.935C276.444,631.911,276.203,631.914,275.962,631.914z M112.261,578.775
				c-1.943-0.377-3.935-0.731-5.976-1.064c-0.223-0.036-0.574-0.292-0.914-0.564c0.104-0.124,0.215-0.252,0.313-0.359
				C107.885,577.381,110.093,578.074,112.261,578.775z"/>
			<path fill="#2980BA" d="M386.513,410.105c3.746,0,7.693,0.459,12.068,1.402c1.289,0.277,2.546,0.281,3.656,0.285
				c0.766,0.002,1.488,0.004,2.108,0.094c1.807,0.262,3.64,0.496,5.413,0.722c4.76,0.607,9.682,1.235,14.257,2.441
				c3.549,0.934,6.961,2.305,10.573,3.756c2.779,1.116,5.653,2.271,8.601,3.21c14.298,4.555,29.168,10.056,40.036,22.66
				c3.521,4.084,7.904,7.895,12.678,11.021c5.52,3.616,11.14,6.825,17.09,10.222c2.448,1.398,4.979,2.844,7.499,4.318
				c0.466,0.272,0.989,0.41,1.515,0.41c0.419,0,0.84-0.088,1.232-0.265l4.726-2.127c5.477-2.462,10.206-4.589,14.977-6.805
				c0.722-0.335,1.28-0.942,1.554-1.688c0.679-1.854-0.282-3.341-1.111-4.266c0.229-0.347,0.452-0.693,0.674-1.036
				c1.266-1.961,2.574-3.989,3.988-4.674c6.922-3.352,19.521-12.882,28.72-19.841c2.531-1.915,4.766-3.604,6.514-4.888
				c2.561,0.063,5.138,0.092,7.64,0.12c5.015,0.056,10.199,0.113,15.233,0.453c1.876,0.128,6.023,1.34,8.67,2.438
				c-0.303,0.729-0.675,1.455-0.931,1.712c-1.551,1.544-3.091,3.103-4.633,4.661c-5.908,5.979-12.018,12.162-18.644,17.342
				c-4.688,3.664-9.871,6.628-15.358,9.765c-2.944,1.684-5.989,3.424-8.921,5.27c-0.12,0.075-0.234,0.159-0.342,0.25
				c-0.686,0.581-2.257,1.75-4.077,3.104c-8.084,6.011-12.141,9.261-13.326,11.471c-2.725,5.078-6.812,8.132-14.108,10.54
				c-13.177,4.35-25.893,9.059-37.794,13.994c-3.235,1.343-5.725,3.77-8.133,6.116c-0.925,0.901-1.798,1.753-2.69,2.521
				c-1.19,1.024-2.272,2.181-3.319,3.299c-1.84,1.966-3.577,3.823-5.357,4.388c-13.34,4.235-27.636,7.687-39.122,10.459
				c-16.32,3.937-29.382,12.052-39.931,24.809c-6.4,7.739-17.953,19.746-28.146,30.339c-5.606,5.827-10.955,11.388-15.151,15.919
				c-3.641-4.914-5.492-7.378-6.093-8.01c-0.687-0.73-1.642-1.101-2.842-1.102c-0.428,0-4.21,0.078-5.071,2.756
				c-0.634,1.958-0.562,4.257,0.19,6.003c0.403,0.932,0.506,1.475,0.528,1.739c-0.301,0.115-1.029,0.304-2.594,0.322
				c-1.977,0.022-4.06,0.166-5.897,1.057c-5.267,2.549-10.596,5.18-15.749,7.725c-9.536,4.708-19.397,9.576-29.203,14.094
				c-3.268,1.504-7.626,1.717-11.455,1.798c-0.23,0.005-0.461,0.007-0.691,0.007c-2.674,0-5.358-0.3-8.201-0.617
				c-1.782-0.199-3.625-0.405-5.471-0.531c-0.974-0.066-2.015-0.098-3.276-0.098c-0.879,0-1.763,0.016-2.646,0.03
				c-0.849,0.015-1.695,0.029-2.536,0.029c-2.557,0-5.23-0.12-7.464-0.996c-6.062-2.379-11.834-6.154-17.415-9.805
				c-0.986-0.645-1.972-1.289-2.96-1.927c-0.052-0.361-0.091-0.876-0.119-1.254c-0.057-0.758-0.114-1.541-0.277-2.306
				c-0.134-0.637-0.305-1.217-0.471-1.776c-0.066-0.224-0.133-0.447-0.194-0.672c-0.249-0.898-0.91-1.626-1.775-1.976
				c-0.359-0.146-0.74-0.218-1.119-0.218c-0.534,0-1.065,0.142-1.535,0.419c-0.072,0.042-0.291,0.14-0.436,0.204
				c-0.884,0.396-2.356,1.054-2.897,2.708c-0.005-0.004-0.009-0.007-0.014-0.011c-0.457-0.38-0.931-0.772-1.463-1.118
				c-0.212-0.138-0.533-0.475-0.844-0.8c-0.745-0.78-1.673-1.752-3.078-2.245c-2.493-0.877-5.029-1.819-7.481-2.73
				c-11.456-4.257-23.302-8.659-36.328-8.659c-1.091,0-2.192,0.031-3.28,0.093c-0.072,0.005-0.146,0.007-0.219,0.007
				c-0.054,0-0.108-0.001-0.163-0.003c0.226-0.281,0.402-0.604,0.518-0.958c0.352-1.083,0.057-2.274-0.756-3.071l-0.068-0.071
				c-0.156-0.163-0.393-0.411-0.695-0.633c-0.787-0.593-1.779-0.868-3.12-0.868c-1.769-0.001-4.887,0.577-6.805,1.523
				c-0.078-0.027-0.147-0.056-0.191-0.08c-5.102-3.087-10.568-5.746-16.546-8.025c0.444-0.147,0.854-0.399,1.191-0.74
				c0.106-0.108,0.205-0.225,0.293-0.347c0.337,0.484,0.694,0.979,1.107,1.471c0.907,1.076,2.132,1.273,2.79,1.379
				c0.075,0.013,0.149,0.022,0.191,0.03c0.268,0.075,0.54,0.112,0.812,0.112c0.732,0,1.45-0.269,2.008-0.771
				c0.765-0.688,1.123-1.721,0.949-2.735c-0.196-1.146-0.124-1.7-0.073-1.909c0.152-0.045,0.493-0.11,1.183-0.11
				c0.463,0,0.961,0.027,1.488,0.056c0.552,0.031,1.122,0.062,1.686,0.062c0.832,0,1.504-0.069,2.114-0.218
				c2.354-0.57,8.604-2.086,8.472-9.273c-0.23-12.202-0.475-23.221-1.131-34.499c-0.222-3.811-0.81-7.588-1.378-11.24
				c-0.385-2.473-0.783-5.028-1.052-7.517c-0.344-3.198-0.289-6.442-0.231-9.878c0.138-8.125,0.28-16.523-5.029-24.562
				c-0.142-0.926,0.438-3.272,1.014-4.172c3.173-1.133,6.255-1.755,8.722-1.755c1.165,0,2.205,0.134,3.092,0.398
				c6.543,1.95,13.697,2.858,22.516,2.858c4.511,0,9.062-0.227,13.465-0.446c4.323-0.216,8.793-0.439,13.144-0.439
				c3.021,0,5.729,0.105,8.277,0.323c0.744,0.063,1.507,0.095,2.269,0.095c3.239,0,6.352-0.554,9.001-1.604
				c18.256-7.239,29.354-21.573,33.931-43.818c1.043-5.071,13.446-16.324,20.306-17.353c0.321,0.008,0.643,0.011,0.964,0.011
				c1.456,0,2.908-0.072,4.312-0.142c1.386-0.069,2.694-0.135,3.989-0.135c1.595,0,2.882,0.101,4.05,0.317
				c3.375,0.624,6.66,1.685,10.138,2.807c2.729,0.881,5.55,1.792,8.436,2.479c2.708,0.644,6.403,0.984,10.687,0.984
				c11.776,0,32.229-2.845,41.062-10.647C376.146,411.069,381.097,410.105,386.513,410.105 M125.629,580.233
				c0.352,0,0.839,0.217,1.374,0.527c-0.545-0.158-1.095-0.314-1.647-0.469C125.454,580.253,125.546,580.233,125.629,580.233
				 M386.513,407.105c-5.638,0-11.215,0.988-16.761,3.384c-7.262,6.837-26.114,10.209-39.42,10.209
				c-3.979,0-7.465-0.303-9.993-0.903c-6.312-1.502-12.366-4.141-18.721-5.316c-1.503-0.278-3.04-0.367-4.596-0.367
				c-2.743,0-5.542,0.276-8.301,0.276c-0.375,0-0.75-0.005-1.124-0.017c-7.787,0.951-21.709,13.066-23.084,19.754
				c-3.82,18.573-12.963,34.046-32.098,41.634c-2.398,0.95-5.204,1.393-7.896,1.393c-0.682,0-1.356-0.028-2.015-0.084
				c-2.84-0.242-5.683-0.334-8.531-0.334c-8.854,0-17.739,0.886-26.608,0.886c-7.238,0-14.468-0.59-21.659-2.733
				c-1.228-0.366-2.563-0.523-3.948-0.523c-3.404,0-7.103,0.952-10.194,2.099c-1.672,0.621-3.32,6.58-2.162,8.305
				c7.066,10.516,3.702,22.164,4.899,33.285c0.671,6.218,2.055,12.381,2.417,18.609c0.666,11.444,0.91,22.916,1.127,34.382
				c0.07,3.823-2.205,5.338-6.18,6.302c-0.412,0.1-0.89,0.133-1.407,0.133c-0.983,0-2.105-0.118-3.174-0.118
				c-2.605,0-4.894,0.702-4.066,5.526c-0.511-0.144-1.222-0.126-1.499-0.455c-1.18-1.405-2.025-3.146-3.398-4.307
				c-1.104-0.936-2.793-1.214-4.223-1.784c0.53,0.956,1.14,1.882,1.559,2.882c0.238,0.574,0.166,1.271,0.232,1.911
				c-1.027-0.093-2.213,0.102-3.059-0.332c-2.353-1.204-4.568-3.566-7.002-3.566c-1.35,0-2.767,0.728-4.311,2.782
				c-0.035,0.047-0.107,0.067-0.209,0.067c-0.624,0-2.354-0.785-3.432-1.128c-4.055-1.291-8.078-2.695-12.191-3.773
				c-0.022-0.006-0.045-0.009-0.068-0.009c-0.537,0-1.472,1.445-2.209,2.178c0.941,0.634,1.812,1.674,2.834,1.841
				c16.089,2.627,31.57,6.901,45.584,15.38c0.531,0.321,1.436,0.608,2.065,0.608c0.245,0,0.449-0.044,0.572-0.146
				c0.756-0.634,3.971-1.473,5.91-1.472c0.594,0,1.067,0.078,1.315,0.265c0.176,0.129,0.318,0.303,0.475,0.455
				c-0.551,0.082-1.135,0.084-1.648,0.267c-1.209,0.433-2.385,0.95-3.574,1.434c1.126,0.763,2.16,1.755,3.4,2.229
				c1.355,0.518,2.878,0.956,4.318,0.956c0.133,0,0.265-0.004,0.396-0.012c1.043-0.06,2.075-0.088,3.103-0.088
				c15.234,0,28.853,6.306,42.813,11.22c1.266,0.443,2.09,1.956,3.285,2.731c1.208,0.783,2.522,2.345,3.732,2.345
				c0.81,0,1.573-0.699,2.227-2.796c0.18-0.572,1.325-0.857,2.021-1.273c0.209,0.755,0.461,1.502,0.621,2.265
				c0.371,1.747,0.076,4.418,1.142,5.1c6.95,4.464,13.834,9.37,21.469,12.367c2.601,1.019,5.54,1.203,8.561,1.203
				c1.717,0,3.461-0.06,5.183-0.06c1.035,0,2.062,0.021,3.071,0.091c4.632,0.315,9.261,1.155,13.877,1.155
				c0.251,0,0.503-0.003,0.754-0.008c4.253-0.09,8.911-0.352,12.647-2.072c15.146-6.977,29.993-14.577,45.004-21.843
				c1.345-0.651,3.072-0.739,4.625-0.757c4.486-0.053,6.912-1.334,4.785-6.252c-0.492-1.143-0.474-2.703-0.09-3.889
				c0.109-0.342,1.387-0.68,2.217-0.68c0.308,0.001,0.554,0.047,0.656,0.156c0.868,0.914,7.244,9.632,8.039,10.658
				c11.226-12.426,35.186-36.157,45.848-49.049c10.084-12.194,22.746-20.047,38.322-23.805c13.197-3.186,26.414-6.416,39.327-10.516
				c3.763-1.194,6.474-5.474,9.726-8.272c3.273-2.818,6.186-6.551,10.016-8.14c12.326-5.112,24.895-9.728,37.585-13.917
				c6.901-2.277,12.298-5.421,15.812-11.971c1.512-2.817,14.057-11.464,16.699-13.703c8.148-5.129,17.018-9.338,24.529-15.21
				c8.491-6.639,15.895-14.624,23.545-22.24c1.369-1.363,2.607-5.248,2.246-5.479c-2.398-1.521-9.131-3.602-11.897-3.79
				c-7.981-0.538-16.011-0.377-24.019-0.606c-7.6,5.493-26.772,20.781-35.6,25.055c-2.988,1.447-4.756,5.385-6.926,8.295
				c-0.686,0.919,2.273,2.234,1.865,3.349c-6.091,2.829-12.227,5.562-19.671,8.917c-8.47-4.955-16.694-9.373-24.46-14.46
				c-4.434-2.903-8.615-6.486-12.049-10.47c-10.978-12.73-25.836-18.603-41.398-23.56c-6.529-2.08-12.717-5.271-19.32-7.009
				c-6.493-1.711-13.312-2.261-20.003-3.23c-1.833-0.266-3.771,0.043-5.563-0.343C394.937,407.652,390.708,407.105,386.513,407.105
				L386.513,407.105z"/>
		</g>
	</g>
	<g>
		<pattern  id="SVGID_2_" xlink:href="#Vertical_Stripe_copy_3" patternTransform="matrix(1 0 0 1 1260.4951 3714.5645)">
		</pattern>
		<path fill="url(#SVGID_2_)" d="M211.224,469.446c-4.774,0-8.819-0.723-12.021-2.148c-0.194-0.087-0.402-0.13-0.61-0.13
			c-0.194,0-0.389,0.038-0.572,0.113c0.002-0.001,0.003-0.001,0.001-0.001c-0.018,0-0.297,0.066-0.828,0.066
			c-1.862,0-7.379-0.845-18.356-8.676c-13.814-9.858-27.092-12.489-32.76-12.489c-0.735,0-1.375,0.043-1.907,0.127
			c-1.936-0.242-4.831-1.099-5.31-2.279c-0.27-0.664,0.437-1.658,0.881-2.192c0.298-0.356,0.412-0.832,0.312-1.286
			c-0.101-0.453-0.406-0.835-0.827-1.032c-1.315-0.616-2.688-1.464-3.321-2.021c0.145-0.104,0.306-0.212,0.444-0.306
			c1.267-0.854,3.388-2.282,3.506-5.261c0.03-0.761,0.105-1.918,0.193-3.279c0.648-9.968,0.607-13.256-0.265-14.565
			c0.269-0.343,1.071-0.88,1.884-0.88c0,0,0.218,0.009,0.25,0.009c0.589,0,1.125-0.254,1.47-0.697
			c0.653-0.84,0.391-1.881,0.086-3.087c-0.323-1.281-0.767-3.037-0.024-4.001c0.615-0.801,2.119-1.239,4.349-1.268
			c0.653-0.009,1.226-0.438,1.416-1.063c1.038-3.402,4.742-12.23,9.367-12.23c0.271,0,0.551,0.031,0.828,0.092
			c1.145,0.252,2.643,0.381,4.452,0.381c9.249,0,28.355-3.709,33.547-8.106c0.941-0.797,2.435-1.219,4.319-1.219
			c6.835,0,17.518,5.316,24.707,15.477c8.937,12.629,26.712,22.49,34.467,23.984c-4.027,6.854-14.941,26.37-13.135,33.656
			c0.179,0.72-0.347,1.59-0.818,2.193C242.652,462.815,225.76,469.445,211.224,469.446z"/>
		<path fill="#2980BA" d="M201.727,380.517v3c6.292,0,16.659,5.202,23.481,14.843c5.847,8.262,14.779,14.503,19.584,17.488
			c4.213,2.618,9.515,5.368,13.808,6.625c-1.534,2.686-3.636,6.49-5.687,10.614c-7.238,14.558-7.252,19.744-6.613,22.37
			c-0.094,0.961-2.945,4.111-10.958,7.427c-7.661,3.17-16.678,5.062-24.118,5.062c-4.563,0-8.402-0.68-11.412-2.019
			c-0.502-0.224-0.912-0.372-1.32-0.372c-0.303,0-0.605,0.082-0.942,0.275c-0.081,0.008-0.199,0.016-0.356,0.016
			c-1.34,0-6.562-0.605-17.485-8.397c-6.645-4.741-21.205-12.767-33.631-12.768c-0.715,0-1.357,0.038-1.917,0.112
			c-1.49-0.211-3.18-0.771-3.784-1.244c0.078-0.157,0.229-0.407,0.518-0.753c0.595-0.714,0.824-1.663,0.623-2.57
			s-0.813-1.671-1.654-2.065c-0.44-0.208-0.905-0.452-1.338-0.699c1.304-1.074,2.721-2.749,2.829-5.473
			c0.028-0.73,0.104-1.894,0.191-3.24c0.531-8.174,0.611-11.967,0.1-14.041c0.011-0.001,0.021-0.001,0.031-0.001l0,0
			c0.065,0.004,0.176,0.008,0.241,0.008c1.055,0,2.021-0.465,2.652-1.275c1.104-1.418,0.708-2.989,0.358-4.376
			c-0.161-0.638-0.589-2.332-0.291-2.72c0.005-0.007,0.529-0.648,3.18-0.682c1.307-0.017,2.452-0.877,2.832-2.128
			c1.184-3.894,4.725-11.166,7.932-11.166c0.166,0,0.331,0.019,0.505,0.057c1.25,0.276,2.857,0.417,4.775,0.417
			c9.685,0,29.001-3.791,34.517-8.461c0.656-0.557,1.847-0.863,3.35-0.863L201.727,380.517 M201.726,380.517
			c-2.205,0-4.043,0.519-5.289,1.574c-4.577,3.876-22.765,7.75-32.577,7.75c-1.646,0-3.058-0.109-4.129-0.346
			c-0.392-0.086-0.776-0.127-1.151-0.127c-6.763,0-10.802,13.294-10.802,13.294c-10.749,0.136-3.902,9.053-5.861,9.053
			c-0.015,0-0.03-0.001-0.046-0.002c-0.067-0.005-0.136-0.007-0.204-0.007c-2.056,0-4.26,1.966-3.171,3.16
			c1.125,1.234,0,13.439-0.141,17.005c-0.142,3.565-4.079,4.113-4.22,5.485c-0.141,1.371,4.453,3.521,4.453,3.521
			c-4.875,5.851,5.625,6.946,5.625,6.946c0.462-0.09,1.089-0.142,1.863-0.142c5.504,0.001,18.409,2.591,31.889,12.21
			c10.984,7.836,16.801,8.955,19.228,8.955c0.971,0,1.399-0.179,1.399-0.179c3.593,1.6,7.969,2.278,12.632,2.278
			c17.729,0,39.573-9.815,37.997-16.174c-1.991-8.031,14.251-34.677,14.251-34.677c-0.229,0.053-0.493,0.078-0.793,0.078
			c-6.025,0-25.777-10.482-35.021-23.547C220.217,386.113,208.975,380.516,201.726,380.517L201.726,380.517z M263.472,420.096h0.005
			H263.472z"/>
	</g>
	<path fill="none" stroke="#2980BA" stroke-width="3" stroke-linecap="square" stroke-linejoin="round" stroke-miterlimit="10" d="
		M320.643,136.259c-4.161-0.812-8.664,0.266-9.062,3.597c-0.396,3.316-2.338,3.553-4.854,3.301c-1.646-0.165-3.27-0.552-5.021-0.858
		c-0.246-1.758-0.475-3.403-0.703-5.048c-0.355,0.014-0.711,0.026-1.068,0.04c0,3.52,0,7.039,0,11.91
		c-12.684-7.567-24.801-14.176-36.085-21.938c-3.075-2.117-3.632-7.71-4.624-10.028c-4.773-1.167-8.665-3.462-11.146-2.454
		c-5.892,2.394-7.15-1.929-8.146-4.839c-1.719-5.025-4.929-5.857-9.633-5.911c-11.014-0.123-22.68,1.071-29.4-10.572
		c-0.085-0.149-0.256-0.287-0.422-0.354c-7.895-3.211-15.557-7.416-23.777-9.268c-5.512-1.243-10.133-1.431-14.328-6.334
		c-2.973-3.473-9.93-2.088-13.895-6.523c-1.434-1.602-5.645-0.841-8.907-1.193c-5.362,6.892-14.153,7.653-22.54,0.903
		c-4.457-3.586-7.93-2.985-11.764,0.458c-6.911,6.205-12.734,6.304-20.047,0.449c-3.424-2.745-5.967-1.99-7.326,2.21
		c-0.381,1.173-0.622,2.39-1.189,4.618c-2.611-1.164-4.799-2.139-6.852-3.053c1.979,11.896-0.004,10.841-9.078,13.34
		c-0.826,0.228-2.051,0.974-2.124,1.59c-0.425,3.516-2.448,4.983-7.304,5.003c-1.773-5.467-5.479-11.425-4.971-17.018
		c0.422-4.653-2.918-10.493,2.27-14.669c0.506-0.406,0.156-2.544-0.467-3.431c-2.025-2.882-4.363-5.556-5.726-7.246
		c1.587-2.787,3.466-5.004,4.114-7.52c0.671-2.607,0.148-5.507,0.148-8.697c-1.547,0.644-2.72,1.132-3.894,1.62
		c-0.308-0.287-0.614-0.572-0.923-0.857c1.811-3.263,3.619-6.524,5.428-9.788c-0.6-0.436-1.202-0.872-1.802-1.308
		c-2.853,2.021-5.825,3.897-8.524,6.099c-3.605,2.939-5.885,1.228-8.125-1.69c-0.815-1.063-1.986-2.758-2.913-2.707
		c-7.075,0.386-4.737-3.429-3.487-6.888c0.408-1.125,0.637-2.31,1.023-3.752c-4.244-0.896-8.57-1.828-6.758-7.095
		C17.906,6.971,20.037,3.9,22.098,0"/>
	<path fill="none" stroke="#2980BA" stroke-width="3" stroke-linecap="square" stroke-linejoin="round" stroke-miterlimit="10" d="
		M319.545,130.066"/>
	<path fill="none" stroke="#2980BA" stroke-width="3" stroke-linecap="square" stroke-linejoin="round" stroke-miterlimit="10" d="
		M440.455,171.051c-0.438-0.023-0.873-0.046-1.31-0.068c-0.376,1.781-0.751,3.564-1.16,5.512c-5.521-1.131-10.722-2.201-15.05-3.091
		c0.789-5.421,1.502-10.314,2.283-15.685c-2.066,4.43-3.861,8.279-5.599,12.006c-2.058-1.08-3.888-2.065-5.741-3.006
		c-1.917-0.973-3.855-1.902-5.971-2.944c1.275-1.692,2.248-2.98,3.539-4.691c-10.201,2.508-13.139,1.696-17.084-4.324
		c-0.373,0.001-0.76-0.062-1.117,0.012c-1.097,0.222-2.203,0.431-3.27,0.759c-12.342,3.783-23.114,2.374-31.762-8.151
		c-1.416-1.723-4.962-1.783-8.779-3.017c-2.495-3.201-5.904-7.573-9.517-12.208c-3.856,5.182-8.806,6.033-19.276,4.106"/>
	<path fill="none" stroke="#2980BA" stroke-width="3" stroke-linecap="square" stroke-linejoin="round" stroke-miterlimit="10" d="
		M666.439,1.179c-0.146,0.784-0.205,1.469-0.403,2.117c-1.847,6.009-3.558,12.067-5.646,17.998
		c-1.125,3.189-3.256,4.828-6.863,2.363c-0.803-0.549-2.521-0.4-3.542,0.04c-2.425,1.039-4.808,2.27-6.97,3.754
		c-1.846,1.27-4.029,2.709-4.887,4.585c-2.031,4.444-3.447,9.165-4.959,13.822c-2.311,7.122-5.607,13.357-13.018,16.838
		c-1.98,0.929-3.141,3.39-4.978,4.77c-3.609,2.714-7.901,4.704-11.06,7.817c-5.799,5.718-9.742,13.445-18.631,15.608
		c-3.684,0.897-7.455,1.461-11.122,2.412c-5.052,1.309-7.38,5.271-6.003,9.951c1.495,5.086,4.621,3.27,8.488,2.755
		c3.299-0.437,8.016,1.268,10.303,3.662c2.807,2.94-0.467,11.725-4.26,14.117c-2.883,1.819-8.848,0.224-7.621,6.653
		c0.037,0.192-1.93,0.73-2.949,1.14c-1.32,0.532-2.627,1.097-3.281,1.372c0,8.207,0.057,15.73-0.078,23.251
		c-0.016,0.895-0.908,1.971-1.695,2.621c-3.867,3.199-7.836,6.283-12.117,9.685c-3.66-2.581-7.441-6.586-13.295-5.874
		c-8.32,1.012-14.002-3.597-20.444-7.761c-4.38-2.83-10.772-2.782-16.31-3.79c-2.088-0.38-4.35,0.154-6.453-0.188
		c-7.105-1.156-11.759-1.721-14.965,5.793c-1.781,4.17-4.004,9.627-10.992,7.845c-0.922-0.234-2.064,0.358-2.732,0.492
		c-0.668,2.375-1.314,4.663-1.965,6.974c-1.904-1.269-3.215-2.142-4.523-3.014c-0.713,2.083-1.424,4.166-2.319,6.785
		c-1.409-0.558-3.177-1.256-5.077-2.01c-0.702,0.967-1.432,1.973-2.254,3.108c-3.015-4.743-5.975-9.401-8.314-13.083
		c0,6.614-6.358-0.802-6.358,7.196"/>
	<path fill="none" stroke="#2980BA" stroke-width="3" stroke-linecap="square" stroke-linejoin="round" stroke-miterlimit="10" d="
		M254.157,410.658c-1.372-1.5-2.647-3.101-4.149-4.466c-1.078-0.981-2.555-1.534-3.683-2.475
		c-4.085-3.407-8.464-6.569-12.061-10.419c-8.496-9.101-17.989-16.793-31.035-17.415c-10.562-0.503-20.437-1.288-27.487-10.219
		c-0.547-0.693-1.777-0.932-2.736-1.252c-15.657-5.217-31.328-10.403-46.976-15.646c-0.806-0.27-1.448-1-2.165-1.515
		c0.709-0.11,1.888-0.01,2.053-0.364c1.426-3.05,5.209-3.155,6.855-7.265c2.637-6.576-2.055-6.875-4.746-9.352
		c-0.955-0.877-1.811-1.888-2.869-2.624c-15.066-10.488-30.205-20.881-45.213-31.45c-3.033-2.139-6.307-4.482-8.225-7.486
		c-4.184-6.554-7.535-13.609-11.318-20.412c-0.445-0.803-1.893-1.987-2.172-1.828c-4.549,2.608-1.883-1.801-2.477-2.645
		c-0.874-1.243-0.295-3.937-1.283-4.54c-4.162-2.553-2.668-5.717-1.494-8.805c1.982-5.207,3.674-10.323,9.287-13.603
		c4.592-2.683,8.938-6.496,11.998-10.761c4.129-5.75,9.771-6.854,15.682-6.195c14.242,1.589,28.411,3.832,42.572,6.042
		c5.398,0.843,10.786,3.564,16.008,3.19c6.648-0.479,11.596-0.187,15.582,5.879c1.162,1.771,5.539,1.929,8.485,2.092
		c4.364,0.245,8.839-0.712,13.14-0.188c9.505,1.159,18.826,4.855,28.291-0.951c2.867-1.759,7.116-1.329,10.705-2.028
		c2.42-0.472,5.877-0.405,6.992-1.905c3.736-5.024,6.763-9.078,14.613-8.821c7.254,0.239,12.725,4.385,10.725,11.418
		c-1.172,4.123,0.201,6.73,4.43,7.895c1.531-1.188,3.061-2.377,4.592-3.565c1.811,1.899,3.713,3.73,5.328,5.777
		c0.217,0.273-0.879,1.781-1.621,2.447c-0.594,0.532-1.572,0.655-2.38,0.96c1.267,0.468,2.544,1.349,3.8,1.322
		c2.996-0.069,5.975-0.713,8.973-0.85c3.312-0.149,8.832,1.196,9.604-0.158c5.243-9.208,13.744-10.25,22.969-10.407
		c1.164-0.019,3.344-0.751,3.324-0.88c-0.377-2.278-0.354-5.237-1.822-6.53c-1.167-1.027-4.793-0.795-6.346,0.253
		c-4.547,3.079-7.963,8.345-14.878,5.33c-0.688-0.302-3.038,1.05-3.194,1.886c-0.826,4.439-3.018,3.769-5.975,2.063
		c-0.77-0.447-2.695-0.502-2.922-0.102c-2.448,4.294-4.817,1.431-7.09,0.001c-1.98-1.248-3.803-2.732-5.696-4.112
		c-3.532-4.605-7.706-8.877-10.436-13.896c-3.579-6.581-9.749-12.392-7.847-21.146c0.302-1.392-1.912-3.418-3.177-4.991
		c-2.526-3.144-5.261-6.131-7.786-9.277c-0.987-1.229-1.619-2.725-2.463-4.069c-2.203-3.514-3.889-7.71-9.561-6.635
		c-0.283,0.053-1.564-2.088-1.389-3.031c0.973-5.236,2.15-10.441,3.445-15.613c3.809-15.211,8.716-19.574,22.465-20.804
		c1.48-0.131,3.738,1.121,4.588,2.395c3.037,4.562,5.207,9.701,8.471,14.08c5.115,6.861,12.424,11.443,19.936,15.421
		c2.199,1.167,5.496,0.318,8.283,0.511c0.671,0.045,1.828,0.505,1.877,0.883c0.494,3.866-0.543,6.4-5.379,5.845
		c-1.592-0.182-3.285,0.491-4.932,0.773c0.469,1.145,1.125,2.255,1.355,3.444s0.383,2.607-0.088,3.642
		c-0.34,0.743-1.758,1.018-2.695,1.503c-0.053-1.256,0.055-2.544-0.195-3.761c-0.379-1.836-1.007-3.624-1.529-5.433
		c-3.114,4.106-6.494,3.949-10.51,1.058c-0.767-0.552-3.197,0.318-4.289,1.203c-0.957,0.777-1.932,2.918-1.492,3.728
		c2.91,5.342,11.902,3.587,13.565,10.767c0.073,0.316,2.032,0.159,3.095,0.327c5.08,0.801,11.821-0.001,14.803,2.881
		c3.631,3.512,5.223,1.354,7.919,0.563c1.379-0.405,2.876-0.425,4.319-0.619c-1.077,0.876-2.148,1.759-3.232,2.627
		c-1.086,0.868-2.185,1.718-3.279,2.578c0.553,0.424,1.316,1.331,1.621,1.201c6.482-2.73,12.844,8.486,19.328,0.175
		c0.053-0.067,0.352,0.003,0.51,0.067c0.924,0.375,1.843,0.77,2.764,1.157c-1.055-0.938-2.473-1.696-3.077-2.858
		c-0.821-1.576-1.019-3.461-1.482-5.213c1.278,0.024,2.653-0.239,3.819,0.128c2.828,0.892,6.322,3.702,8.201,2.865
		c8.346-3.712,9.961,0.162,9.947,7.013c-0.002,0.559,0.613,1.118,0.94,1.676c0.349-0.33,0.739-0.629,1.039-0.998
		c0.487-0.602,0.914-1.248,1.364-1.875c0.346,0.757,0.713,1.507,1.031,2.275c0.371,0.896,0.702,1.811,1.051,2.716
		c0.553-0.696,1.648-1.455,1.57-2.075c-0.562-4.493,2.752-4.688,5.814-5.548c1.059-0.297,2.691-1.988,2.51-2.619
		c-1.554-5.378,2.035-2.238,3.615-2.138c2.902,0.184,5.792,0.589,8.694,0.711c0.475,0.02,0.993-0.937,1.493-1.442
		c0.24,0.664,0.529,1.316,0.711,1.993c0.394,1.454,0.73,2.92,1.09,4.381c2.201-0.664,5.547-0.671,6.412-2.104
		c4.404-7.279,11.588-10.729,18.975-13.679c2.811-1.124,6.707-1.068,9.653-0.155c5.733,1.776,11.108,4.629,16.724,6.808
		c1.088,0.422,16.637-3.64,17.951-3.794 M285.229,408.45c-9.301,2.499-23.225,5.554-31.072,2.208 M226.002,804.008
		c1.501-3.478,13.69-26.852,14.369-30.475c1.434-7.673,3.225-9.236,11.061-7.677c10.988,2.188,61.332-70.835,70.502-77.731
		c0.007-0.007-0.158,0.166-0.158,0.166c5.113-2.508,10.344-4.815,15.279-7.621c2.002-1.136,3.364-3.347,4.983-5.098
		c0.028-0.029-0.485-0.655-0.54-0.627c-2.645,1.369-5.285,2.748-7.867,4.225c-0.391,0.225-0.367,1.089-0.754,1.381
		c-1.131,0.846-2.373,1.553-3.572,2.314c-0.029-1.24-0.363-2.557-0.043-3.701c2.141-7.602,3.983-15.323,6.769-22.701
		c3.466-9.182,7.53-18.174,11.79-27.038c1.584-3.298,3.607-6.36,9.113-4.276c3.82,1.447,8.67,0.355,13.054,0.207
		c0.292-0.01,0.524-1.656,0.785-2.541c-2.999-0.637-5.974-1.446-9.007-1.857c-2.447-0.332-4.963-0.185-7.451-0.252
		c1.102-1.469,2.077-3.055,3.342-4.379c1.333-1.396,3.771-2.306,4.24-3.854 M438.199,172.675 M649.51,420.096
		c-1.045-0.248-6.023-0.991-7.069-1.232c0.976-0.794,1.97-1.564,2.921-2.385c5.369-4.633,12.1-8.424,15.803-14.094
		c7.657-11.727,17.713-19.824,31.037-23.842c6.885-2.076,14.209-3.328,21.41-3.755c22.359-1.332,44.752-2.125,67.137-3.029
		c3.366-0.136,6.757,0.253,10.137,0.398c-1.127-4.018-2.065-8.104-3.521-12.005c-0.348-0.933-2.754-2.07-3.658-1.726
		c-13.062,4.987-25.892,4.121-39.355,0.812c-11.843-2.911-24.4-2.942-36.426-5.294c-13.664-2.674-26.168-0.671-37.539,6.759
		c-3.459,2.259-7.371,6.11-8.061,9.772c-3.482,18.438-13.622,32.351-28.553,43.398c-3.191,2.363-6.877,6.243-10.078,6.011
		c-7.346-0.528-14.568-3.041-21.771-4.995c-2.775-0.754-5.359-2.185-8.451-3.481c-4.09,1.675-8.119,3.047-11.857,4.957
		 M588.531,453.643 M356.098,400.286c2.287,1.726,15.707,0.198,17.924,2.013c-1.924,0.832-4.008,1.43-5.729,2.553 M581.613,416.365
		c-6.295,4.434-27.981,18.806-33.59,23.974c-5.511,5.075-9.713,11.478-14.854,16.97c-4.873,5.207-12.567,6.615-18.342,2.806
		c-7.184-4.74-15.713-9.126-20.205-15.858c-12.531-18.771-33.399-23.957-51.842-33.131c-5.598-2.785-11.962-4.176-18.066-5.896
		c-4.182-1.178-8.496-2.421-12.795-2.598c-14.814-0.602-29.979,1.277-43.4-7.334 M368.293,404.852
		c-1.907,0.824-22.479,7.48-24.271,8.604c-9.457,5.93-19.292,1.338-28.852-0.494c-5.779-1.107-2.232-0.459-7.866-2.325
		c-1.448-0.479-12.022-0.624-13.534-0.921c1.75-0.898,3.512-2.584,5.243-2.557c6.321,0.103,11.505-0.32,17.819,0.139
		c0.172,0.467,1.47-0.166,1.643,0.299c10.465-2.88,27.176-4.366,37.623-7.31 M368.52,395.297
		c-14.668-4.887-42.838,9.425-55.218,7.493c-10.462-1.632-19.415,0.767-28.072,5.661"/>
</g>
</svg>
