<?xml version="1.0" encoding="utf-8"?>
<!-- Generator: Adobe Illustrator 16.0.0, SVG Export Plug-In . SVG Version: 6.00 Build 0)  -->
<!DOCTYPE svg PUBLIC "-//W3C//DTD SVG 1.1//EN" "http://www.w3.org/Graphics/SVG/1.1/DTD/svg11.dtd">
<svg version="1.1" id="Layer_1" xmlns="http://www.w3.org/2000/svg" xmlns:xlink="http://www.w3.org/1999/xlink" x="0px" y="0px"
	 width="1130px" height="271px" viewBox="0 0 1130 271" enable-background="new 0 0 1130 271" xml:space="preserve">
<symbol  id="poweringhouse" viewBox="-55.098 -64.109 110.196 128.217">
	<g>
		<polygon fill="#9BB0B9" points="-23.891,42.055 23.353,42.055 53.514,10.732 -53.514,10.732 		"/>
		<polygon fill="#595870" points="22.072,39.415 -23.891,39.415 0,62.55 		"/>
		<polygon fill="#4E4D62" points="0,-21.579 44.519,-21.579 44.519,-62.685 0,-62.685 -44.52,-62.685 -44.52,-21.579 		"/>
		<polygon fill="#AAABAD" points="-3.085,-28.47 -3.085,16 44.519,16 44.519,-28.47 		"/>
		<polygon fill="#B9B9BA" points="-44.52,-28.47 -44.52,16 11.749,16 11.749,-28.47 		"/>
		<polyline fill="#7D8078" stroke="#616555" stroke-width="1.8937" stroke-miterlimit="10" points="44.519,-62.685 0,-62.685 
			-44.52,-62.685 		"/>
		<g>
			<polygon fill="#91ACB4" stroke="#D2D1D1" stroke-width="0.4573" stroke-miterlimit="10" points="-33.063,-18.076 -4.248,-18.076 
				-4.248,-1.375 -33.063,-1.375 			"/>
			
				<line fill="#91ACB4" stroke="#D2D1D1" stroke-width="0.4573" stroke-miterlimit="10" x1="-25.337" y1="-1.375" x2="-25.337" y2="-18.076"/>
			
				<line fill="#91ACB4" stroke="#D2D1D1" stroke-width="0.4573" stroke-miterlimit="10" x1="-11.815" y1="-1.375" x2="-11.815" y2="-18.076"/>
		</g>
		<g>
			<polygon fill="#B5C4CA" stroke="#D2D1D1" stroke-width="0.4573" stroke-miterlimit="10" points="-14.24,18.787 14.576,18.787 
				14.576,35.488 -14.24,35.488 			"/>
			
				<line fill="#B5C4CA" stroke="#D2D1D1" stroke-width="0.4573" stroke-miterlimit="10" x1="-6.513" y1="35.488" x2="-6.513" y2="18.787"/>
			
				<line fill="#B5C4CA" stroke="#D2D1D1" stroke-width="0.4573" stroke-miterlimit="10" x1="7.008" y1="35.488" x2="7.008" y2="18.787"/>
		</g>
		<polygon fill="#CED0D0" points="18.131,-28.551 35.383,-28.551 35.383,6.497 18.131,6.497 		"/>
		<g>
			<polygon fill="#91ACB4" stroke="#818282" stroke-width="0.1892" stroke-miterlimit="10" points="20.792,-11.068 32.723,-11.068 
				32.723,3.55 20.792,3.55 			"/>
			<g>
				<polygon fill="#91ACB4" stroke="#818282" stroke-width="0.1892" stroke-miterlimit="10" points="20.792,-22.561 23.353,-25.121 
					28.826,-25.121 20.792,-17.09 				"/>
				<polygon fill="#91ACB4" stroke="#818282" stroke-width="0.1892" stroke-miterlimit="10" points="20.792,-17.09 28.826,-25.121 
					32.723,-25.121 32.723,-23.686 20.792,-11.756 				"/>
				<polygon fill="#91ACB4" stroke="#818282" stroke-width="0.1892" stroke-miterlimit="10" points="20.792,-25.121 23.353,-25.121 
					20.792,-22.561 				"/>
				<polygon fill="#91ACB4" stroke="#818282" stroke-width="0.1892" stroke-miterlimit="10" points="24.526,-10.501 20.792,-10.501 
					20.792,-11.756 32.723,-23.686 32.723,-18.697 				"/>
				<polygon fill="#91ACB4" stroke="#818282" stroke-width="0.1892" stroke-miterlimit="10" points="32.723,-13.232 29.992,-10.501 
					24.526,-10.501 32.723,-18.697 				"/>
				<polygon fill="#91ACB4" stroke="#818282" stroke-width="0.1892" stroke-miterlimit="10" points="32.723,-10.501 29.992,-10.501 
					32.723,-13.232 				"/>
			</g>
		</g>
		<g>
			<polygon fill="#B5C4CA" stroke="#D2D1D1" stroke-width="0.4169" stroke-miterlimit="10" points="-33.063,-49.062 -5.321,-49.062 
				-5.321,-34.646 -33.063,-34.646 			"/>
			
				<line fill="#B5C4CA" stroke="#D2D1D1" stroke-width="0.4169" stroke-miterlimit="10" x1="-25.624" y1="-34.646" x2="-25.624" y2="-49.062"/>
			
				<line fill="#B5C4CA" stroke="#D2D1D1" stroke-width="0.4169" stroke-miterlimit="10" x1="-12.607" y1="-34.646" x2="-12.607" y2="-49.062"/>
		</g>
		<polygon fill="#91ACB4" stroke="#D2D1D1" stroke-width="0.4573" stroke-miterlimit="10" points="-4.248,5.606 -33.063,5.606 
			-33.063,-1.375 -4.248,-1.375 		"/>
		<polygon fill="#545453" points="36.785,10.226 37.245,10.226 37.02,10.254 		"/>
		<polygon fill="#545453" points="-14.708,15.995 -19.789,15.995 -17.242,15.739 		"/>
		<polygon fill="#545453" points="-5.547,15.995 -10.588,15.995 -8.063,15.739 		"/>
		<polygon fill="#545453" points="45.738,10.254 45.752,10.254 45.745,10.254 		"/>
		<polygon fill="#545453" points="-23.846,15.995 -28.968,16 -26.399,15.739 		"/>
		<polygon fill="#545453" points="12.731,15.991 7.768,15.991 10.257,15.739 		"/>
		<polygon fill="#545453" points="21.867,15.987 16.948,15.987 19.414,15.739 		"/>
		<polygon fill="#545453" points="-25.976,10.059 -22.424,10.067 -24.157,10.254 		"/>
		<polygon fill="#545453" points="31.086,15.987 26.204,15.987 28.651,15.739 		"/>
		<polygon fill="#545453" points="-43.881,10.009 -39.443,10.023 -41.608,10.254 		"/>
		<polygon fill="#545453" points="-34.927,10.038 -30.933,10.046 -32.88,10.254 		"/>
		<polygon fill="#545453" points="3.591,15.991 -1.409,15.991 1.096,15.739 		"/>
		<polygon fill="#545453" points="9.853,10.156 11.637,10.16 10.767,10.254 		"/>
		<polygon fill="#545453" points="27.833,10.204 28.732,10.204 28.292,10.254 		"/>
		<polygon fill="#545453" points="0.899,10.13 3.128,10.138 2.043,10.254 		"/>
		<polygon fill="#545453" points="-17.025,10.086 -13.896,10.09 -15.42,10.254 		"/>
		<polygon fill="#545453" points="-8.052,10.108 -5.383,10.117 -6.682,10.254 		"/>
		<polygon fill="#545453" points="-32.986,16 -38.148,16 -35.56,15.739 		"/>
		<polygon fill="#545453" points="-43.241,16 -43.388,15.875 -42.123,16 		"/>
		<polygon fill="#545453" points="49.364,15.981 44.563,15.981 46.966,15.739 		"/>
		<g>
			<polygon fill="#545453" points="53.875,10.272 53.374,10.759 48.004,15.981 -46.942,16 -53.699,9.992 			"/>
			<polygon fill="#545453" points="35.827,15.991 31.086,15.991 33.46,15.747 			"/>
			<polygon fill="#4E4F50" points="45.928,15.712 41.442,15.252 36.955,15.712 32.47,15.252 27.984,15.712 23.496,15.252 19,15.716 
				19,15.895 18.943,15.895 18.943,15.716 14.447,15.252 9.958,15.712 5.474,15.252 0.989,15.712 -3.5,15.252 -7.986,15.712 
				-12.474,15.252 -16.971,15.716 -21.467,15.252 -25.954,15.712 -30.439,15.252 -34.925,15.712 -39.414,15.252 -43.9,15.712 
				-47.581,15.335 -48.259,14.733 -43.911,15.182 -43.911,15.182 -43.9,15.182 -43.892,15.182 -43.892,15.182 -39.414,14.72 
				-34.936,15.182 -34.936,15.182 -34.925,15.182 -34.916,15.182 -34.916,15.182 -30.439,14.72 -25.963,15.182 -25.963,15.182 
				-25.954,15.182 -25.943,15.182 -25.943,15.182 -21.467,14.72 -16.971,15.182 -12.474,14.72 -7.997,15.182 -7.997,15.182 
				-7.986,15.182 -7.978,15.182 -7.978,15.182 -3.5,14.72 0.978,15.182 0.978,15.182 0.989,15.182 0.997,15.182 0.997,15.182 
				5.474,14.72 9.951,15.182 9.951,15.182 9.958,15.182 9.971,15.182 9.971,15.182 14.447,14.72 18.943,15.182 18.943,14.792 
				14.447,14.325 9.958,14.785 5.474,14.325 0.989,14.785 -3.5,14.325 -7.986,14.785 -12.474,14.325 -16.971,14.792 -21.467,14.325 
				-25.954,14.785 -30.439,14.325 -34.925,14.785 -39.414,14.325 -43.9,14.785 -48.388,14.325 -48.684,14.356 -49.221,13.878 
				-48.388,13.793 -43.911,14.255 -43.911,14.255 -43.9,14.255 -43.892,14.255 -43.892,14.255 -39.414,13.793 -34.936,14.255 
				-34.936,14.255 -34.925,14.255 -34.917,14.255 -34.917,14.255 -30.439,13.793 -25.963,14.255 -25.963,14.255 -25.954,14.255 
				-25.943,14.255 -25.943,14.255 -21.467,13.793 -16.971,14.255 -12.474,13.793 -7.997,14.255 -7.997,14.255 -7.986,14.255 
				-7.978,14.255 -7.978,14.255 -3.5,13.793 0.978,14.255 0.978,14.255 0.989,14.255 0.997,14.255 0.997,14.255 5.474,13.793 
				9.951,14.255 9.951,14.255 9.958,14.255 9.971,14.255 9.971,14.255 14.447,13.793 18.943,14.255 18.943,13.865 14.447,13.399 
				9.958,13.859 5.474,13.399 0.989,13.859 -3.5,13.399 -7.986,13.859 -12.474,13.399 -16.971,13.865 -21.467,13.399 
				-25.954,13.859 -30.439,13.399 -34.925,13.859 -39.414,13.399 -43.9,13.859 -48.388,13.399 -49.617,13.527 -50.154,13.049 
				-48.388,12.869 -43.911,13.329 -43.911,13.329 -43.9,13.329 -43.892,13.329 -43.892,13.329 -39.414,12.869 -34.936,13.329 
				-34.936,13.329 -34.925,13.329 -34.917,13.329 -34.917,13.329 -30.439,12.869 -25.963,13.329 -25.963,13.329 -25.954,13.329 
				-25.943,13.329 -25.943,13.329 -21.467,12.869 -16.971,13.329 -12.474,12.869 -7.997,13.329 -7.997,13.329 -7.986,13.329 
				-7.978,13.329 -7.978,13.329 -3.5,12.869 0.978,13.329 0.978,13.329 0.989,13.329 0.997,13.329 0.997,13.329 5.474,12.869 
				9.951,13.329 9.951,13.329 9.958,13.329 9.971,13.329 9.971,13.329 14.447,12.869 18.943,13.329 18.943,12.939 14.447,12.472 
				9.958,12.935 5.474,12.472 0.989,12.935 -3.5,12.472 -7.986,12.935 -12.474,12.472 -16.971,12.939 -21.467,12.472 
				-25.954,12.935 -30.439,12.472 -34.925,12.935 -39.414,12.472 -43.9,12.935 -48.388,12.472 -50.549,12.695 -51.088,12.216 
				-48.388,11.942 -43.911,12.402 -43.911,12.402 -43.9,12.402 -43.892,12.402 -43.892,12.402 -39.414,11.942 -34.936,12.402 
				-34.936,12.402 -34.925,12.402 -34.917,12.402 -34.917,12.402 -30.439,11.942 -25.963,12.402 -25.963,12.402 -25.954,12.402 
				-25.943,12.402 -25.943,12.402 -21.467,11.942 -16.971,12.402 -12.474,11.942 -7.997,12.402 -7.997,12.402 -7.988,12.402 
				-7.978,12.402 -7.978,12.402 -3.5,11.942 0.978,12.402 0.978,12.402 0.989,12.402 0.997,12.402 0.997,12.402 5.474,11.942 
				9.951,12.402 9.951,12.402 9.958,12.402 9.971,12.402 9.971,12.402 14.447,11.942 18.943,12.402 18.943,12.009 14.447,11.546 
				9.958,12.009 5.474,11.546 0.989,12.009 -3.5,11.546 -7.988,12.009 -12.474,11.546 -16.971,12.009 -21.467,11.546 
				-25.954,12.009 -30.439,11.546 -34.925,12.009 -39.414,11.546 -43.9,12.009 -48.388,11.546 -51.484,11.866 -52.02,11.389 
				-48.388,11.017 -43.911,11.476 -43.911,11.476 -43.9,11.476 -43.892,11.476 -43.892,11.476 -39.414,11.017 -34.936,11.476 
				-34.936,11.476 -34.925,11.476 -34.917,11.476 -34.917,11.476 -30.439,11.017 -25.963,11.476 -25.963,11.476 -25.954,11.476 
				-25.943,11.476 -25.943,11.476 -21.467,11.017 -16.971,11.476 -12.474,11.017 -7.997,11.476 -7.997,11.476 -7.988,11.476 
				-7.978,11.476 -7.978,11.476 -3.5,11.017 0.978,11.476 0.978,11.476 0.989,11.476 0.997,11.476 0.997,11.476 5.474,11.017 
				9.951,11.476 9.951,11.476 9.958,11.476 9.971,11.476 9.971,11.476 14.447,11.017 18.943,11.476 18.943,11.083 14.447,10.623 
				9.958,11.083 5.474,10.623 0.989,11.083 -3.5,10.623 -7.988,11.083 -12.474,10.623 -16.971,11.083 -21.467,10.623 
				-25.954,11.083 -30.439,10.623 -34.925,11.083 -39.414,10.623 -43.9,11.083 -48.388,10.623 -52.417,11.037 -53.699,9.895 
				-50.429,9.903 -52.884,10.156 -52.884,10.553 -48.388,10.09 -43.911,10.553 -43.911,10.553 -43.9,10.553 -43.892,10.553 
				-43.892,10.553 -39.414,10.09 -34.936,10.553 -34.936,10.553 -34.925,10.553 -34.917,10.553 -34.917,10.553 -30.439,10.09 
				-25.963,10.553 -25.963,10.553 -25.954,10.553 -25.943,10.553 -25.943,10.553 -21.467,10.09 -16.971,10.553 -12.474,10.09 
				-7.997,10.553 -7.997,10.553 -7.988,10.553 -7.978,10.553 -7.978,10.553 -3.5,10.09 0.978,10.553 0.978,10.553 0.989,10.553 
				0.997,10.553 0.997,10.553 5.474,10.09 9.951,10.553 9.951,10.553 9.958,10.553 9.971,10.553 9.971,10.553 14.447,10.09 
				18.943,10.553 18.943,10.156 18.226,10.086 19.679,10.09 19,10.156 19,10.553 23.405,10.099 23.591,10.099 27.974,10.553 
				27.974,10.553 27.984,10.553 27.993,10.553 27.993,10.553 32.155,10.121 32.797,10.121 36.944,10.553 36.944,10.553 
				36.955,10.553 36.966,10.553 36.966,10.553 40.908,10.143 42.004,10.148 45.918,10.553 45.918,10.553 45.928,10.553 
				45.939,10.553 45.939,10.553 49.659,10.167 51.21,10.171 53.626,10.417 53.375,10.662 53.129,10.9 50.417,10.623 45.928,11.083 
				41.442,10.623 36.955,11.083 32.47,10.623 27.984,11.083 23.496,10.623 19,11.083 19,11.476 23.496,11.017 27.974,11.476 
				27.974,11.476 27.984,11.476 27.993,11.476 27.993,11.476 32.47,11.017 36.944,11.476 36.944,11.476 36.955,11.476 
				36.966,11.476 36.966,11.476 41.442,11.017 45.92,11.476 45.92,11.476 45.928,11.476 45.939,11.476 45.939,11.476 50.417,11.017 
				52.764,11.255 52.271,11.737 50.417,11.546 45.928,12.009 41.442,11.546 36.955,12.009 32.47,11.546 27.984,12.009 
				23.496,11.546 19,12.009 19,12.402 23.496,11.942 27.974,12.402 27.974,12.402 27.984,12.402 27.993,12.402 27.993,12.402 
				32.47,11.942 36.944,12.402 36.944,12.402 36.955,12.402 36.966,12.402 36.966,12.402 41.442,11.942 45.92,12.402 45.92,12.402 
				45.928,12.402 45.939,12.402 45.939,12.402 50.417,11.942 51.905,12.093 51.41,12.574 50.417,12.472 45.928,12.935 
				41.442,12.472 36.955,12.935 32.47,12.472 27.984,12.935 23.496,12.472 19,12.939 19,13.329 23.496,12.869 27.974,13.329 
				27.974,13.329 27.984,13.329 27.993,13.329 27.993,13.329 32.47,12.869 36.944,13.329 36.944,13.329 36.955,13.329 
				36.966,13.329 36.966,13.329 41.442,12.869 45.92,13.329 45.92,13.329 45.928,13.329 45.939,13.329 45.939,13.329 50.417,12.869 
				51.044,12.93 50.547,13.412 50.417,13.399 45.928,13.859 41.442,13.399 36.955,13.859 32.47,13.399 27.984,13.859 23.496,13.399 
				19,13.865 19,14.255 23.496,13.793 27.974,14.255 27.974,14.255 27.984,14.255 27.993,14.255 27.993,14.255 32.47,13.793 
				36.944,14.255 36.944,14.255 36.955,14.255 36.966,14.255 36.966,14.255 41.442,13.793 45.92,14.255 45.92,14.255 45.928,14.255 
				45.939,14.255 45.939,14.255 50.126,13.82 49.513,14.419 45.928,14.785 41.442,14.325 36.955,14.785 32.47,14.325 27.984,14.785 
				23.496,14.325 19,14.792 19,15.182 23.496,14.72 27.974,15.182 27.974,15.182 27.984,15.182 27.993,15.182 27.993,15.182 
				32.47,14.72 36.944,15.182 36.944,15.182 36.955,15.182 36.966,15.182 36.966,15.182 41.442,14.72 45.92,15.182 45.92,15.182 
				45.928,15.182 45.939,15.182 45.939,15.182 49.06,14.858 48.451,15.455 			"/>
		</g>
		<polyline fill="none" stroke="#282827" stroke-width="0.4734" stroke-miterlimit="10" points="54.132,9.992 -0.149,9.992 
			-53.794,9.992 		"/>
		<polyline fill="none" stroke="#817B77" stroke-width="1.026" stroke-miterlimit="10" points="21.867,39.415 -0.409,39.415 
			-22.424,39.415 		"/>
		<polyline fill="none" stroke="#464648" stroke-width="2.2402" stroke-linecap="square" stroke-miterlimit="10" points="
			53.514,10.732 0,62.55 -53.514,10.732 		"/>
		<g>
			<polygon fill="#788080" points="41.898,-44.359 12.839,-44.359 12.839,-41.608 41.898,-41.608 			"/>
			<polygon fill="#788080" points="41.898,-48.798 12.839,-48.798 12.839,-46.042 41.898,-46.042 			"/>
			<polygon fill="#788080" points="41.898,-53.237 12.839,-53.237 12.839,-50.48 41.898,-50.48 			"/>
			<polygon fill="#788080" points="41.898,-62.108 12.839,-62.108 12.839,-59.359 41.898,-59.359 			"/>
			<polygon fill="#788080" points="41.898,-57.675 12.839,-57.675 12.839,-54.919 41.898,-54.919 			"/>
			<polygon fill="#545453" points="13.844,-38.425 11.749,-38.425 11.749,-23.362 13.844,-23.362 			"/>
			<polygon fill="#5C5959" points="13.52,-50.817 12.247,-50.817 12.247,-26.056 13.52,-26.056 			"/>
			<polygon fill="#545453" points="13.931,-64.108 11.835,-64.108 11.835,-49.05 13.931,-49.05 			"/>
			<polygon fill="#545453" points="42.298,-38.425 40.199,-38.425 40.199,-23.362 42.298,-23.362 			"/>
			<polygon fill="#5C5959" points="41.975,-50.817 40.699,-50.817 40.699,-26.056 41.975,-26.056 			"/>
			<polygon fill="#545453" points="42.383,-64.108 40.289,-64.108 40.289,-49.05 42.383,-49.05 			"/>
		</g>
	</g>
	<path opacity="0.4" fill="#D2EBDF" d="M34.457-6.759c0-19.153-15.527-34.68-34.681-34.68s-34.681,15.527-34.681,34.68
		c0,19.154,15.527,34.681,34.681,34.681S34.457,12.395,34.457-6.759z"/>
	<g>
		<path fill="none" stroke="#4075BB" stroke-width="5" stroke-miterlimit="10" d="M9.797,7.392c4.806-3.2,7.973-8.667,7.973-14.873
			c0-9.861-7.994-17.855-17.855-17.855s-17.855,7.995-17.855,17.855c0,5.715,2.685,10.803,6.862,14.07"/>
		<line fill="none" stroke="#4075BB" stroke-width="5" stroke-miterlimit="10" x1="-0.156" y1="13.128" x2="-0.156" y2="-16.842"/>
	</g>
</symbol>
<g>
	
		<use xlink:href="#poweringhouse"  width="110.196" height="128.217" x="-55.098" y="-64.109" transform="matrix(1 0 0 -1 698.7358 129.0186)" overflow="visible"/>
	<g>
		<path opacity="0.81" fill="#A2C4E8" d="M521.849,174.422c0,0-98.63-28.723-120.85-32.056
			c-22.221-3.332-57.552-14.733-47.903-26.365s5.674-9.818-10.783-13.652c-16.457-3.831-6.713-5.702-8.552-12.34
			c-1.84-6.639-46.681-8.863-46.681-8.863s23.581,6.426,23.642,12.638s-11.441,9.875-6.981,12.05
			c4.459,2.175,33.353,7.218,11.218,12.759c-22.134,5.542-9.575,19.175,1.547,22.173c0,0,37.971,13.756,50.34,19.921
			c16.412,8.182,121.588,45.404,121.588,45.404l0,0"/>
		<polygon fill="#C5CBBB" points="483.654,160.085 483.654,160.085 515.545,150.341 515.358,131.236 552.764,140.271 		"/>
		<polygon fill="#EECC80" points="408.95,110.21 408.514,105.703 440.447,90.063 439.393,105.4 		"/>
		<polygon fill="#EECC80" points="409.249,140.691 408.95,110.21 439.393,105.4 439.685,135.347 		"/>
		<polygon fill="#EECC80" points="485.15,160.071 409.249,140.691 408.937,108.659 484.837,127.984 		"/>
		<g>
			<polygon fill="#F1A74E" points="483.654,160.085 483.355,129.603 515.263,121.499 515.545,150.341 			"/>
			<polygon fill="#F1A74E" points="483.375,131.55 483.314,125.397 515.109,105.813 515.266,121.806 			"/>
		</g>
		<polygon fill="#B9A67E" points="440.408,85.968 519.708,102.925 482.187,128.793 404.287,109.551 		"/>
		<polygon fill="#A59573" points="440.388,83.949 519.691,101.233 482.169,127.102 404.271,107.859 		"/>
		<polygon fill="#817957" points="482.169,127.102 519.691,101.233 519.708,102.925 482.187,128.793 		"/>
		<polygon fill="#AB9978" points="482.169,127.102 404.271,107.859 404.287,109.551 482.187,128.793 		"/>
		<g>
			
				<line fill="none" stroke="#C5C7B5" stroke-width="0.2662" stroke-miterlimit="10" x1="440.293" y1="83.849" x2="404.271" y2="107.859"/>
			
				<line fill="none" stroke="#C5C7B5" stroke-width="0.2662" stroke-miterlimit="10" x1="443.469" y1="84.544" x2="407.405" y2="108.617"/>
			
				<line fill="none" stroke="#C5C7B5" stroke-width="0.2662" stroke-miterlimit="10" x1="446.645" y1="85.24" x2="410.542" y2="109.376"/>
			
				<line fill="none" stroke="#C5C7B5" stroke-width="0.2662" stroke-miterlimit="10" x1="449.821" y1="85.935" x2="413.676" y2="110.134"/>
			
				<line fill="none" stroke="#C5C7B5" stroke-width="0.2662" stroke-miterlimit="10" x1="452.996" y1="86.63" x2="416.811" y2="110.893"/>
			
				<line fill="none" stroke="#C5C7B5" stroke-width="0.2662" stroke-miterlimit="10" x1="456.173" y1="87.326" x2="419.947" y2="111.651"/>
			
				<line fill="none" stroke="#C5C7B5" stroke-width="0.2662" stroke-miterlimit="10" x1="459.349" y1="88.021" x2="423.082" y2="112.41"/>
			
				<line fill="none" stroke="#C5C7B5" stroke-width="0.2662" stroke-miterlimit="10" x1="462.524" y1="88.717" x2="426.217" y2="113.168"/>
			
				<line fill="none" stroke="#C5C7B5" stroke-width="0.2662" stroke-miterlimit="10" x1="465.7" y1="89.411" x2="429.352" y2="113.926"/>
			
				<line fill="none" stroke="#C5C7B5" stroke-width="0.2662" stroke-miterlimit="10" x1="468.876" y1="90.107" x2="432.488" y2="114.685"/>
			
				<line fill="none" stroke="#C5C7B5" stroke-width="0.2662" stroke-miterlimit="10" x1="472.053" y1="90.803" x2="435.623" y2="115.443"/>
			
				<line fill="none" stroke="#C5C7B5" stroke-width="0.2662" stroke-miterlimit="10" x1="475.228" y1="91.498" x2="438.757" y2="116.201"/>
			
				<line fill="none" stroke="#C5C7B5" stroke-width="0.2662" stroke-miterlimit="10" x1="478.404" y1="92.193" x2="441.893" y2="116.959"/>
			
				<line fill="none" stroke="#C5C7B5" stroke-width="0.2662" stroke-miterlimit="10" x1="481.581" y1="92.889" x2="445.028" y2="117.718"/>
			
				<line fill="none" stroke="#C5C7B5" stroke-width="0.2662" stroke-miterlimit="10" x1="484.756" y1="93.584" x2="448.164" y2="118.477"/>
			
				<line fill="none" stroke="#C5C7B5" stroke-width="0.2662" stroke-miterlimit="10" x1="487.932" y1="94.28" x2="451.298" y2="119.234"/>
			
				<line fill="none" stroke="#C5C7B5" stroke-width="0.2662" stroke-miterlimit="10" x1="491.108" y1="94.975" x2="454.434" y2="119.993"/>
			
				<line fill="none" stroke="#C5C7B5" stroke-width="0.2662" stroke-miterlimit="10" x1="494.284" y1="95.67" x2="457.569" y2="120.752"/>
			
				<line fill="none" stroke="#C5C7B5" stroke-width="0.2662" stroke-miterlimit="10" x1="497.459" y1="96.366" x2="460.705" y2="121.51"/>
			
				<line fill="none" stroke="#C5C7B5" stroke-width="0.2662" stroke-miterlimit="10" x1="500.636" y1="97.062" x2="463.839" y2="122.268"/>
			
				<line fill="none" stroke="#C5C7B5" stroke-width="0.2662" stroke-miterlimit="10" x1="503.812" y1="97.756" x2="466.975" y2="123.027"/>
			
				<line fill="none" stroke="#C5C7B5" stroke-width="0.2662" stroke-miterlimit="10" x1="506.988" y1="98.452" x2="470.11" y2="123.785"/>
			
				<line fill="none" stroke="#C5C7B5" stroke-width="0.2662" stroke-miterlimit="10" x1="510.164" y1="99.147" x2="473.245" y2="124.543"/>
			
				<line fill="none" stroke="#C5C7B5" stroke-width="0.2662" stroke-miterlimit="10" x1="513.339" y1="99.843" x2="476.38" y2="125.302"/>
			
				<line fill="none" stroke="#C5C7B5" stroke-width="0.2662" stroke-miterlimit="10" x1="516.516" y1="100.538" x2="479.516" y2="126.06"/>
			
				<line fill="none" stroke="#C5C7B5" stroke-width="0.2662" stroke-miterlimit="10" x1="519.691" y1="101.233" x2="482.651" y2="126.818"/>
		</g>
		<polygon fill="#D1E2E8" points="477.21,139.114 438.724,129.4 438.642,121.116 477.129,130.831 		"/>
		<polygon fill="#BCC2AE" points="478.352,158.273 467.616,155.346 467.476,141.104 478.212,144.032 		"/>
		<g>
		</g>
		<g>
		</g>
		<g>
		</g>
		<path fill="none" stroke="#D1E2E8" stroke-width="0.7448" stroke-miterlimit="10" d="M301.549,84.048
			c0,0,25.301,3.039,19.75,11.828c-5.552,8.79,1.897,15.307,13.068,15.307c11.172,0-15.127,9.545-1.397,16.526"/>
		<path fill="none" stroke="#D1E2E8" stroke-width="0.7448" stroke-miterlimit="10" d="M349.716,110.789
			c0,0-21.379,17.936-6.205,23.198c15.173,5.26,25.82,15.001,59.39,20.457c33.571,5.457,53.844,15.81,53.844,15.81"/>
		<path fill="none" stroke="#D1E2E8" stroke-width="0.7448" stroke-miterlimit="10" d="M321.061,119.521
			c0,0-13.956,13.343,18.416,23.143c32.371,9.801,43.886,13.149,54.16,16.439"/>
		<path fill="none" stroke="#D1E2E8" stroke-width="0.7448" stroke-miterlimit="10" d="M416.953,163.195
			c0,0,52.575,17.796,60.715,22.682c8.139,4.886,14.686,7.925,14.686,7.925"/>
		<path fill="none" stroke="#D1E2E8" stroke-width="0.7448" stroke-miterlimit="10" d="M462.575,165.231
			c0,0,12.491,6.085,29.626,12.9c17.134,6.815,13.398,5.611,13.398,5.611"/>
	</g>
	<g>
		<g>
			
				<line fill="none" stroke="#B5B7AE" stroke-width="5" stroke-miterlimit="10" x1="567.779" y1="140.661" x2="614.341" y2="140.661"/>
			<g>
				<polygon fill="#B5B7AE" points="612.518,146.894 623.312,140.661 612.518,134.428 				"/>
			</g>
		</g>
	</g>
	<text transform="matrix(1 0 0 1 766.1079 151.3965)" fill="#575756" font-family="'OpenSans-Semibold'" font-size="20">X 7,500</text>
</g>
</svg>
