<?xml version="1.0" encoding="utf-8"?>
<!-- Generator: Adobe Illustrator 15.0.0, SVG Export Plug-In . SVG Version: 6.00 Build 0)  -->
<!DOCTYPE svg PUBLIC "-//W3C//DTD SVG 1.1//EN" "http://www.w3.org/Graphics/SVG/1.1/DTD/svg11.dtd">
<svg version="1.1" id="Слой_1" xmlns="http://www.w3.org/2000/svg" xmlns:xlink="http://www.w3.org/1999/xlink" x="0px" y="0px"
	 width="76px" height="23px" viewBox="0 0 76 23" enable-background="new 0 0 76 23" xml:space="preserve">
<g>
	<path fill="#CCCDCE" d="M59.697,4.725c-0.586,0.184-1.188,0.322-1.79,0.444c-3.502,0.695-7.051,0.999-10.605,1.22
		c-3.685,0.228-7.368,0.431-11.055,0.613c-2.244,0.112-4.493,0.167-6.741,0.244c-0.007,0-0.017-0.007-0.025-0.016l-4.762-0.017
		c-0.035,0.003-0.072,0.001-0.109,0c-0.156-0.008-0.326-0.035-0.491-0.043c0.289-0.247,0.557-0.526,0.873-0.731
		c3.465-2.268,7.132-4.112,11.185-5.073c2.865-0.68,5.788-0.888,8.727-0.809c4.619,0.122,9.179,0.716,13.651,1.895
		c1.08,0.284,2.137,0.65,3.294,1.006C61.163,4.106,60.465,4.484,59.697,4.725z"/>
	<path d="M64.117,20.45c-0.27,0.098-0.549,0.182-0.811,0.299c-0.248,0.111-0.481,0.26-0.736,0.4
		c-0.162-0.166-0.278-0.316,0.023-0.424c0.324-0.117,0.604-0.281,0.855-0.658c-0.509-0.033-0.939-0.061-1.4-0.09
		c-0.099-0.135-0.206-0.287-0.316-0.439c-0.08,0.045-0.145,0.082-0.248,0.139c-0.142-0.551-0.279-1.094-0.417-1.635
		c-0.043,0-0.087,0-0.13,0c-0.023,0.096-0.098,0.211-0.065,0.281c0.422,1.008,0.548,2.078,0.71,3.199
		c-0.529,0-1.026-0.01-1.523,0.002c-0.33,0.01-0.659,0.049-0.988,0.074c0.139-0.301,0.255-0.615,0.422-0.904
		c0.275-0.471,0.617-0.904,0.709-1.473c0.031-0.195,0.195-0.369,0.325-0.598c-0.144-0.045-0.28-0.09-0.445-0.145
		c-0.233,0.943-0.597,1.811-1.095,2.631c-0.917-0.172-1.311-0.936-1.997-1.428c1.142-0.643,2.203-1.242,3.288-1.852
		c0.02-0.15,0.047-0.348,0.072-0.547c0.061-0.004,0.119-0.008,0.181-0.012c0.054,0.188,0.108,0.377,0.177,0.613
		c0.154-0.074,0.293-0.143,0.411-0.201c0.038-0.215-0.366-0.291-0.027-0.547c0.126,0.133,0.259,0.275,0.307,0.324
		c1.296,0.164,2.507,0.313,3.78,0.471c-0.236,0.506-0.451,0.967-0.678,1.447c-0.901-0.441-1.76-0.859-2.652-1.297
		c-0.066,0.078-0.152,0.186-0.252,0.311C62.58,18.948,63.328,19.722,64.117,20.45z"/>
	<g>
		<path fill="#313232" d="M24.782,7.231h-0.109C24.71,7.232,24.746,7.233,24.782,7.231z"/>
		<path fill="#313232" d="M36.041,8.852c0.879-0.063,1.76-0.122,2.638-0.192c0.298-0.022,0.546-0.148,0.803-0.544
			C38.238,8.345,37.052,8.089,36,8.676C36.014,8.735,36.028,8.793,36.041,8.852z"/>
		<path fill="#313232" d="M59.29,13.626c-0.177,0.436,0.221,0.828,0.465,1.258c0.034-0.334,0.063-0.604,0.09-0.871
			c0.025,0.004,0.051,0.008,0.075,0.012c0.068,0.26,0.135,0.52,0.202,0.779c0.027-0.004,0.055-0.008,0.083-0.012
			c-0.051-0.641-0.101-1.283-0.153-1.943C59.562,12.849,59.405,13.339,59.29,13.626z"/>
		<path fill="#313232" d="M52.782,7.972c0.886-0.067,1.771-0.127,2.657-0.208c0.292-0.026,0.574-0.11,0.713-0.427
			C55.242,7.112,53.24,7.424,52.782,7.972z"/>
		<path fill="#313232" d="M20.748,9.929c-0.715,0.041-1.428,0.083-2.213,0.129C19.106,10.705,19.709,10.668,20.748,9.929z"/>
		<path fill="#313232" d="M64.122,20.452c0.261,0.164,0.338-0.086,0.437-0.219c0.908-1.191,1.094-2.537,0.769-3.965
			c-0.069-0.307-0.25-0.588-0.385-0.879c-0.061,0.479,0.315,0.951,0.025,1.441c-0.089,0.023-0.167,0.055-0.25,0.066
			c-0.729,0.092-1.467,0.102-2.167,0.424c-0.244,0.113-0.623-0.006-0.919-0.092c-0.147-0.043-0.22-0.314-0.37-0.369
			c-0.373-0.139-0.016-0.551-0.241-0.688c-0.164,0.199-0.291,0.49-0.452,0.512c-0.166,0.02-0.365-0.221-0.549-0.348
			c-0.09,0.232-0.09,0.232-0.008,0.338c0.127,0.164,0.157,0.76,0.017,0.887c-0.254,0.229-0.508,0.475-0.802,0.643
			c-0.586,0.34-1.197,0.637-1.803,0.938c-0.126,0.064-0.274,0.08-0.465,0.131c-0.279-0.74-0.65-1.422-0.509-2.279
			c0.83,0.107,1.579,0.203,2.329,0.299c-0.004,0.029-0.004,0.059-0.005,0.086c-0.175,0.063-0.349,0.123-0.523,0.184
			c0.007,0.023,0.013,0.047,0.021,0.07c0.377-0.072,0.757-0.143,1.135-0.213c0.006-0.059,0.012-0.115,0.018-0.172
			c-0.277-0.203-0.652-0.102-0.968-0.178c-0.368-0.088-0.755-0.094-1.13-0.16c-0.335-0.061-0.667-0.158-1.039-0.25
			c0,0.225,0.006,0.436,0,0.646c-0.055,1.451,0.46,2.615,1.461,3.521l6.193,0.064c0.02-0.018,0.04-0.035,0.06-0.055
			C64.083,20.749,64.083,20.583,64.122,20.452z"/>
		<path fill="#313232" d="M63.891,14.56c-0.738,0.563-1.374,1.18-1.862,1.963c0.179,0.01,0.331-0.023,0.464-0.092
			c0.602-0.301,1.194-0.623,1.801-0.912c0.194-0.092,0.42-0.117,0.633-0.17C64.875,14.688,64.268,14.792,63.891,14.56z"/>
		<path fill="#313232" d="M61.347,16.112c0.492-0.951,0.986-1.902,1.54-2.967c-0.454,0.055-0.827,0.1-1.223,0.146
			C61.314,14.216,61.322,15.155,61.347,16.112z"/>
		<path fill="#313232" d="M58.33,21.298c0.215,0.148,0.498,0.195,0.75,0.289c0.051,0.061,0.09,0.148,0.153,0.178
			c1.402,0.643,3.606,0.229,4.708-0.873l-6.193-0.064C57.928,20.993,58.119,21.149,58.33,21.298z"/>
		<path fill="#313232" d="M64.926,15.349c0,0.006,0.002,0.01,0.002,0.014c0.006,0.01,0.011,0.02,0.015,0.027
			c0.003-0.016,0.001-0.029,0.003-0.045C64.938,15.345,64.934,15.347,64.926,15.349z"/>
		<path fill="#313232" d="M75.484,13.077c-0.234-0.305-0.372-0.639-0.424-1.04c-0.113-0.872-0.3-1.736-0.456-2.604
			c-0.603-0.043-1.176-0.082-1.764-0.125c-0.065-0.762-0.201-1.454,0.157-2.122c0.514,0.022,0.985,0.052,1.33,0.546
			c-0.051-0.645-0.095-1.208-0.141-1.776c-0.759-0.075-1.495-0.133-2.225-0.227c-1.422-0.183-2.752-0.682-4.084-1.185
			C64.41,3.23,60.893,2.079,57.246,1.352c-3.463-0.692-6.955-1.128-10.481-1.291c-2.976-0.138-5.944-0.026-8.892,0.407
			c-2.681,0.395-5.256,1.186-7.71,2.34c-2.131,1.005-4.243,2.047-6.374,3.049c-0.555,0.261-1.14,0.463-1.728,0.639
			c-0.442,0.133-0.909,0.225-1.37,0.259c-0.437,0.033-0.868,0.041-1.309,0.099c-1.914,0.255-3.834,0.474-5.755,0.657
			c-3.175,0.303-6.226,1.05-9.132,2.373C4.398,9.926,4.3,9.967,4.209,10.022l-2.713,1.44l0.013,0.207l2.749-1.527
			c0.468-0.008,0.939-0.014,1.412-0.027c0.525-0.018,1.051-0.05,1.709-0.083c-0.856,0.572-1.59,1.066-2.331,1.552
			c-0.083,0.056-0.2,0.063-0.3,0.096c-0.465,0.146-0.925,0.303-1.392,0.438c-0.151,0.041-0.369,0.1-0.473,0.029
			c-0.23-0.164-0.429-0.102-0.66-0.047c-0.212,0.049-0.438,0.049-0.688,0.074c-0.015-0.252-0.023-0.42-0.04-0.711
			c-0.273,0.312-0.57,0.503-0.635,0.754c-0.141,0.558-0.164,1.146-0.24,1.745c-0.297-0.047-0.283,0.182-0.305,0.4
			c-0.074,0.832,0.294,1.563,0.576,2.295c0.265,0.689,0.24,1.137-0.313,1.584c-0.062,0.049-0.096,0.131-0.143,0.199
			c0.33,0.426,0.745,0.629,1.253,0.705c1.597,0.24,3.189,0.498,4.747,0.744l12.742,0.543l38.568,0.395
			c-1.001-0.906-1.516-2.07-1.461-3.521c0.006-0.211,0-0.422,0-0.646c0.372,0.092,0.704,0.189,1.039,0.25
			c0.375,0.066,0.762,0.072,1.13,0.16c0.315,0.076,0.69-0.025,0.968,0.178c-0.006,0.057-0.012,0.113-0.018,0.172
			c-0.378,0.07-0.758,0.141-1.135,0.213c-0.008-0.023-0.014-0.047-0.021-0.07c0.175-0.061,0.349-0.121,0.523-0.184
			c0.001-0.027,0.001-0.057,0.005-0.086c-0.75-0.096-1.499-0.191-2.329-0.299c-0.142,0.857,0.229,1.539,0.509,2.279
			c0.19-0.051,0.339-0.066,0.465-0.131c0.605-0.301,1.217-0.598,1.803-0.938c0.294-0.168,0.548-0.414,0.802-0.643
			c0.141-0.127,0.11-0.723-0.017-0.887c-0.082-0.105-0.082-0.105,0.008-0.338c0.184,0.127,0.383,0.367,0.549,0.348
			c0.161-0.021,0.288-0.313,0.452-0.512c0.226,0.137-0.132,0.549,0.241,0.688c0.15,0.055,0.223,0.326,0.37,0.369
			c0.296,0.086,0.675,0.205,0.919,0.092c0.7-0.322,1.438-0.332,2.167-0.424c0.083-0.012,0.161-0.043,0.25-0.066
			c0.29-0.49-0.086-0.963-0.025-1.441c-0.004-0.008-0.009-0.018-0.015-0.027c0-0.004-0.002-0.008-0.002-0.014
			c-0.213,0.053-0.438,0.078-0.633,0.17c-0.606,0.289-1.199,0.611-1.801,0.912c-0.133,0.068-0.285,0.102-0.464,0.092
			c0.488-0.783,1.124-1.4,1.862-1.963c0.377,0.232,0.984,0.129,1.035,0.789c0.008-0.002,0.013-0.004,0.02-0.004
			c-0.002,0.016,0,0.029-0.003,0.045c0.135,0.291,0.315,0.572,0.385,0.879c0.325,1.428,0.14,2.773-0.769,3.965
			c-0.099,0.133-0.176,0.383-0.437,0.219c-0.039,0.131-0.039,0.297-0.121,0.385c-0.02,0.02-0.04,0.037-0.06,0.055l1.521,0.016
			c0.326-0.924,0.326-0.943,1.215-0.922c1.268,0.033,2.49-0.176,3.695-0.555c0.746-0.234,1.516-0.402,2.264-0.633
			c0.525-0.164,1.052-0.346,1.539-0.594c0.281-0.143,0.524-0.41,0.71-0.674c0.201-0.285,0.327-0.627,0.467-0.953
			c0.089-0.207,0.186-0.428,0.204-0.648c0.06-0.691,0.068-1.391,0.13-2.084C75.713,13.55,75.665,13.313,75.484,13.077z
			 M18.535,10.058c0.785-0.046,1.498-0.088,2.213-0.129C19.709,10.668,19.106,10.705,18.535,10.058z M38.679,8.66
			c-0.878,0.07-1.759,0.13-2.638,0.192C36.028,8.793,36.014,8.735,36,8.676c1.052-0.587,2.238-0.331,3.481-0.561
			C39.225,8.511,38.977,8.637,38.679,8.66z M55.439,7.764c-0.887,0.081-1.771,0.141-2.657,0.208c0.458-0.548,2.46-0.86,3.37-0.635
			C56.014,7.654,55.731,7.738,55.439,7.764z M60.122,14.804c-0.067-0.26-0.134-0.52-0.202-0.779
			c-0.024-0.004-0.05-0.008-0.075-0.012c-0.027,0.268-0.056,0.537-0.09,0.871c-0.244-0.43-0.642-0.822-0.465-1.258
			c0.115-0.287,0.271-0.777,0.762-0.777c0.053,0.66,0.103,1.303,0.153,1.943C60.177,14.796,60.149,14.8,60.122,14.804z
			 M59.762,4.742c-0.586,0.184-1.188,0.324-1.791,0.443c-3.502,0.697-7.051,1-10.606,1.221c-3.683,0.229-7.368,0.431-11.054,0.613
			c-2.244,0.111-4.493,0.167-6.74,0.245c-0.008,0-0.018-0.007-0.025-0.016l-4.763-0.018c-0.036,0.002-0.072,0.001-0.109,0
			c-0.157-0.007-0.326-0.036-0.49-0.045c0.289-0.245,0.556-0.524,0.871-0.73c3.468-2.265,7.133-4.112,11.186-5.072
			c2.865-0.679,5.788-0.887,8.727-0.81c4.62,0.123,9.179,0.716,13.652,1.896c1.079,0.284,2.136,0.65,3.293,1.007
			C61.229,4.123,60.528,4.5,59.762,4.742z M61.347,16.112c-0.024-0.957-0.032-1.896,0.317-2.82c0.396-0.047,0.769-0.092,1.223-0.146
			C62.333,14.21,61.839,15.161,61.347,16.112z"/>
	</g>
	<path fill="#262425" d="M10.51,12.483c-0.641,0.045-1.009,0.498-1.391,0.928c-0.034,0.01-0.064,0.025-0.09,0.055
		c-0.229,0.232-0.484,0.447-0.684,0.705c-0.861,1.125-1.154,2.424-1.039,3.809c0.259,3.152,3.142,5.438,6.307,4.949
		c3.095-0.477,5.074-3.176,4.644-6.281c-0.146-1.051-0.452-2.08-1.336-2.807l0.025,0.027c-0.255-0.547-0.722-0.848-1.249-1.08
		c-1.164-0.879-2.496-1.014-3.877-0.797C11.369,12.063,10.945,12.313,10.51,12.483z"/>
	<path fill="#DEE8ED" d="M10.892,13.312c-0.534,0.037-0.841,0.414-1.159,0.773c-0.029,0.006-0.053,0.021-0.073,0.043
		c-0.192,0.195-0.405,0.375-0.57,0.59c-0.719,0.938-0.961,2.02-0.866,3.174c0.215,2.627,2.617,4.529,5.254,4.123
		c2.58-0.396,4.23-2.646,3.871-5.232c-0.121-0.877-0.377-1.734-1.115-2.34l0.023,0.021c-0.215-0.455-0.603-0.707-1.041-0.9
		c-0.972-0.73-2.082-0.844-3.231-0.664C11.607,12.958,11.254,13.169,10.892,13.312z"/>
	<path fill="#262425" d="M58.433,12.483c-0.64,0.045-1.009,0.498-1.392,0.928c-0.033,0.01-0.063,0.025-0.089,0.055
		c-0.229,0.232-0.484,0.447-0.685,0.705c-0.859,1.125-1.151,2.424-1.039,3.809c0.259,3.152,3.142,5.438,6.308,4.949
		c3.094-0.477,5.075-3.176,4.645-6.281c-0.147-1.051-0.454-2.08-1.338-2.807l0.027,0.027c-0.256-0.547-0.723-0.848-1.25-1.08
		c-1.166-0.879-2.499-1.014-3.877-0.797C59.291,12.063,58.869,12.313,58.433,12.483z"/>
	<path fill="#DEE8ED" d="M58.813,13.312c-0.533,0.037-0.84,0.414-1.159,0.773c-0.027,0.006-0.051,0.021-0.072,0.043
		c-0.191,0.195-0.405,0.375-0.57,0.59c-0.719,0.938-0.962,2.02-0.868,3.174c0.216,2.627,2.618,4.529,5.258,4.123
		c2.578-0.396,4.228-2.646,3.868-5.232c-0.121-0.877-0.377-1.734-1.114-2.34l0.023,0.021c-0.213-0.455-0.603-0.707-1.042-0.9
		c-0.972-0.73-2.08-0.844-3.23-0.664C59.529,12.958,59.178,13.169,58.813,13.312z"/>
	<g>
		<path fill="#BFBFBF" d="M18.535,10.022c0.785-0.047,1.498-0.088,2.213-0.13C19.709,10.631,19.106,10.667,18.535,10.022z"/>
		<path fill="#BFBFBF" d="M38.679,8.624c-0.878,0.069-1.759,0.128-2.638,0.192C36.028,8.756,36.014,8.699,36,8.639
			c1.052-0.587,2.238-0.331,3.481-0.56C39.225,8.474,38.977,8.599,38.679,8.624z"/>
		<path fill="#BFBFBF" d="M55.439,7.729c-0.887,0.078-1.771,0.139-2.657,0.207c0.458-0.549,2.46-0.861,3.37-0.636
			C56.014,7.617,55.731,7.703,55.439,7.729z"/>
	</g>
	<path fill="#D6DAD7" d="M58.554,2.469c-4.473-1.18-9.032-1.772-13.651-1.896c-2.938-0.078-5.861,0.129-8.727,0.809
		c-4.053,0.961-7.72,2.808-11.185,5.072c-0.316,0.207-0.584,0.486-0.873,0.731c0.165,0.009,0.335,0.037,0.491,0.045h0.109
		c0.258-0.011,0.465-0.114,0.525-0.528c0.017-0.124,0.227-0.235,0.365-0.32c0.899-0.555,1.79-1.115,2.715-1.631
		c5.004-2.79,10.364-4.049,16.068-3.901c1.506,0.038,3.012,0.123,4.513,0.248c2.963,0.25,5.902,0.679,8.785,1.431
		c0.595,0.155,1.181,0.35,1.758,0.561c0.458,0.167,0.631,0.445,0.608,0.979l-0.072,0.575c0.656-0.242,1.267-0.603,1.863-1.168
		C60.69,3.12,59.634,2.753,58.554,2.469z"/>
	<path fill="#E2E2E2" d="M58.256,3.083c1.37,0.658-3.106-0.529-4.129-0.729c0.419,0.946,0.706,2.053,1.474,2.775
		c-0.871,0.335-1.923-2.568-2.726-2.661c-0.508-0.06-2.093-0.335-1.788,0.268c-3.991-0.39-7.696-1.943-6.747,3.416
		c-1.4,0.138-2.805,0.227-4.213,0.265c0.322-0.827,2.484-4.437,0.258-4.059c-2.528,0.43-7.803,0.799-9.525,3.015
		c0.621,0.277,0.912,0.755,0.875,1.433c-0.882,0.232-2.401-0.337-1.8,0.443c3.732-0.216,12.057-0.514,17.367-0.843
		c3.552-0.221,7.11-0.525,10.605-1.222C60.001,4.768,61.145,3.635,58.256,3.083C58.437,3.169,58.932,3.212,58.256,3.083z"/>
	<g>
		<path fill="#CCCDCE" d="M23.148,19.343c0,0,6.627,0.027,13.255,0.053c1.657-0.004,3.313-0.008,4.866-0.01
			c1.553-0.01,3.005,0.008,4.242-0.037c2.478-0.063,4.13-0.104,4.13-0.104l0.031,0.33c0,0-1.661,0.031-4.153,0.074
			c-1.247,0.037-2.695,0.008-4.249,0.006c-1.554-0.008-3.211-0.018-4.868-0.025c-6.628-0.076-13.256-0.152-13.256-0.152
			L23.148,19.343z"/>
	</g>
	<g opacity="0.2">
		<path fill="#CCCDCE" d="M33.135,17.585c0,0,1.155-0.072,2.889-0.178c0.867-0.041,1.878-0.088,2.961-0.139
			c1.084-0.037,2.238-0.078,3.395-0.119c2.308-0.074,4.615-0.148,6.347-0.205c0.862-0.041,1.586-0.059,2.079-0.123
			c0.508-0.033,0.748-0.145,0.76-0.129l0.064,0.117c0.002-0.025-0.277,0.166-0.779,0.256c-0.502,0.119-1.221,0.248-2.088,0.338
			c-0.866,0.102-1.877,0.205-2.963,0.258c-1.085,0.057-2.242,0.137-3.4,0.148c-1.158,0.018-2.315,0.037-3.401,0.053
			c-1.085-0.012-2.099-0.021-2.967-0.031c-1.737-0.043-2.896-0.111-2.896-0.111V17.585z"/>
	</g>
	<path fill="#B02A30" d="M68.998,9.095c0.346,0.131,1.099,0.193,1.917,0.22V7.449C69.573,8.013,68.301,8.83,68.998,9.095z"/>
	<path fill="#594A45" d="M72.289,6.977c-0.408,0.1-0.896,0.27-1.374,0.472v1.866c0.613,0.02,1.263,0.019,1.802,0.012V6.909
		C72.585,6.918,72.444,6.937,72.289,6.977z"/>
	<path fill="#CCCDCE" d="M72.717,6.909v2.418c0.717-0.008,1.242-0.029,1.242-0.029l0.2,0.012l-0.554-2.258
		C73.378,6.945,73.086,6.879,72.717,6.909z"/>
	<path fill="#F4F3F2" d="M74.318,7.742c0,0-0.188-0.45-0.713-0.69l0.554,2.258l0.362,0.022L74.318,7.742z"/>
	<g>
		<path fill="#BFBFBF" d="M7.029,10.075c-0.851-0.004-2.506,0.005-2.78,0.113c-0.548,0.219-2.775,1.546-2.775,1.546l0.04,0.55
			L2.6,12.152c0,0,0.16,0.055,0.305,0.103c0.145,0.049,0.486-0.03,0.486-0.03l1.393-0.438C4.754,11.47,6.33,10.491,7.029,10.075z"/>
		<path fill="#F4F3F2" d="M7.536,10.077c0,0-0.202-0.002-0.507-0.002c-0.699,0.416-2.275,1.396-2.246,1.712l0.352-0.109
			L7.536,10.077z"/>
		<path fill="#F4F3F2" d="M4.588,10.616v0.45c0,0,0.752-0.302,0.842-0.392S4.588,10.616,4.588,10.616z"/>
		<path fill="#8F8F8F" d="M2.468,11.787c0.186,0.123,1.112-0.261,1.677-0.514v-0.468C3.467,11.102,2.272,11.656,2.468,11.787z"/>
		<path fill="#F4F3F2" d="M4.588,10.616c0,0-0.136,0.055-0.335,0.142v0.466c0.199-0.092,0.335-0.157,0.335-0.157V10.616z"/>
		<path fill="#606060" d="M4.145,10.805v0.468c0.037-0.018,0.072-0.034,0.108-0.05v-0.466C4.218,10.773,4.182,10.789,4.145,10.805z"
			/>
		<path fill="#606060" d="M2.892,11.756c0,0,1.938-0.313,2.441-1.021L2.892,11.756z"/>
	</g>
	<path fill="#F37521" d="M2.554,14.634v0.1v0.846h1.028c0,0,0.157-0.912,0.1-1.059C3.627,14.374,2.554,14.634,2.554,14.634z"/>
	<polygon fill="#D1E2E8" points="2.385,16.819 2.554,15.579 3.582,15.579 2.983,16.864 	"/>
	<g>
		<polygon fill="#BFBFBF" points="1.048,15.788 2.158,15.376 2.17,15.372 2.184,15.372 3.535,15.392 3.675,15.394 3.581,15.499 
			2.963,16.2 2.94,16.226 2.906,16.229 1.063,16.438 1.051,16.366 2.877,16.034 2.82,16.063 3.488,15.411 3.535,15.519 
			2.184,15.538 2.209,15.534 1.065,15.845 		"/>
	</g>
	<g>
		<polygon fill="#BFBFBF" points="1.476,17.224 5.054,17.087 5.05,17.194 1.472,17.327 		"/>
	</g>
	<g>
		<path fill="#BFBFBF" d="M1.176,17.694c0,0,1.162,0,2.323-0.002c0.579-0.012,1.164-0.01,1.592-0.027
			c0.421-0.023,0.7-0.041,0.7-0.041l0.059,0.172c0,0-0.301,0.01-0.75,0.025c-0.442,0.004-1.02-0.016-1.602-0.023
			c-1.161-0.035-2.322-0.072-2.322-0.072V17.694z"/>
	</g>
	<g>
		<path fill="#313232" d="M13.485,13.448c0.37,0.178,0.742,0.357,1.082,0.521c-0.304,0.652-0.587,1.297-0.903,1.926
			c-0.068,0.133-0.254,0.207-0.387,0.309c-0.084-0.146-0.247-0.297-0.24-0.439c0.041-0.773,0.125-1.545,0.194-2.316
			C13.316,13.448,13.401,13.448,13.485,13.448z"/>
		<path fill="#313232" d="M12.089,13.448c0.116,0.748,0.244,1.494,0.342,2.246c0.023,0.186-0.054,0.385-0.084,0.578
			c-0.162-0.1-0.386-0.162-0.476-0.309c-0.387-0.623-0.732-1.271-1.13-1.975c0.452-0.201,0.836-0.371,1.221-0.541
			C12.004,13.448,12.046,13.448,12.089,13.448z"/>
		<path fill="#313232" d="M16.913,17.128c-0.083,0.393-0.167,0.785-0.259,1.213c-0.872-0.148-1.763-0.301-2.655-0.451
			c-0.008-0.055-0.017-0.109-0.026-0.164c0.896-0.531,1.91-0.654,2.94-0.725C16.913,17.044,16.913,17.087,16.913,17.128z"/>
		<path fill="#313232" d="M15.617,14.567c0.297,0.471,0.537,0.854,0.784,1.242c-0.782,0.404-1.519,0.785-2.256,1.166
			c-0.065-0.02-0.129-0.037-0.193-0.057c0.039-0.229,0.002-0.52,0.13-0.676C14.547,15.679,15.066,15.157,15.617,14.567z"/>
		<path fill="#313232" d="M15.467,20.671c-0.503-0.936-1.582-1.299-1.896-2.521c1.022,0.5,1.884,0.924,2.809,1.379
			C16.077,19.905,15.813,20.237,15.467,20.671z"/>
		<path fill="#313232" d="M11.78,16.825c-1.019,0.023-1.831-0.576-2.81-1.025c0.271-0.408,0.496-0.744,0.734-1.1
			c0.746,0.674,1.449,1.309,2.153,1.943C11.832,16.704,11.806,16.765,11.78,16.825z"/>
		<path fill="#313232" d="M11.877,18.247c-0.644,0.73-1.289,1.459-1.979,2.242c-0.321-0.375-0.59-0.688-0.866-1.01
			c0.894-0.498,1.766-0.984,2.636-1.471C11.737,18.089,11.806,18.169,11.877,18.247z"/>
		<path fill="#313232" d="M11.443,17.774c-0.878,0.168-1.758,0.336-2.725,0.52c-0.027-0.467-0.052-0.871-0.081-1.357
			c0.998,0.191,1.925,0.369,2.852,0.549C11.475,17.581,11.459,17.679,11.443,17.774z"/>
		<path fill="#313232" d="M13.924,20.974c-0.266,0-0.494,0-0.729,0c-0.169-0.736-0.333-1.455-0.51-2.219
			C13.52,19.048,14.098,20.108,13.924,20.974z"/>
		<path fill="#313232" d="M11.135,20.413c0.063,0.031,0.124,0.061,0.184,0.09L11.135,20.413l-0.394,0.561l1.327,0.473l0.096-0.525
			c0.117-0.797,0.217-1.482,0.327-2.234C11.517,18.952,11.627,19.854,11.135,20.413z"/>
		<path fill="#313232" d="M12.686,18.755"/>
		<polygon fill="#313232" points="13.861,20.067 13.195,20.974 13.32,21.446 14.332,21.192 		"/>
	</g>
	<g>
		<path fill="#313232" d="M61.589,13.448c0.371,0.178,0.742,0.357,1.081,0.521c-0.303,0.652-0.586,1.297-0.902,1.926
			c-0.067,0.133-0.254,0.207-0.385,0.309c-0.086-0.146-0.249-0.297-0.242-0.439c0.042-0.773,0.125-1.545,0.195-2.316
			C61.42,13.448,61.505,13.448,61.589,13.448z"/>
		<path fill="#313232" d="M60.192,13.448c0.116,0.748,0.245,1.494,0.343,2.246c0.023,0.186-0.055,0.385-0.085,0.578
			c-0.162-0.1-0.384-0.162-0.476-0.309c-0.385-0.623-0.731-1.271-1.129-1.975c0.452-0.201,0.835-0.371,1.221-0.541
			C60.109,13.448,60.15,13.448,60.192,13.448z"/>
		<path fill="#313232" d="M65.018,17.128c-0.084,0.393-0.168,0.785-0.26,1.213c-0.871-0.148-1.763-0.301-2.653-0.451
			c-0.01-0.055-0.019-0.109-0.028-0.164c0.896-0.531,1.91-0.654,2.941-0.725C65.018,17.044,65.018,17.087,65.018,17.128z"/>
		<path fill="#313232" d="M63.721,14.567c0.297,0.471,0.539,0.854,0.784,1.242c-0.782,0.404-1.519,0.785-2.257,1.166
			c-0.063-0.02-0.129-0.037-0.192-0.057c0.039-0.229,0.004-0.52,0.131-0.676C62.65,15.679,63.169,15.157,63.721,14.567z"/>
		<path fill="#313232" d="M63.57,20.671c-0.502-0.936-1.582-1.299-1.896-2.521c1.021,0.5,1.884,0.924,2.808,1.379
			C64.18,19.905,63.916,20.237,63.57,20.671z"/>
		<path fill="#313232" d="M59.884,16.825c-1.018,0.023-1.831-0.576-2.81-1.025c0.273-0.408,0.497-0.744,0.736-1.1
			c0.745,0.674,1.447,1.309,2.15,1.943C59.937,16.704,59.909,16.765,59.884,16.825z"/>
		<path fill="#313232" d="M59.98,18.247c-0.645,0.73-1.289,1.459-1.979,2.242c-0.322-0.375-0.59-0.688-0.867-1.01
			c0.895-0.498,1.766-0.984,2.636-1.471C59.841,18.089,59.909,18.169,59.98,18.247z"/>
		<path fill="#313232" d="M59.549,17.774c-0.881,0.168-1.759,0.336-2.726,0.52c-0.027-0.467-0.053-0.871-0.082-1.357
			c1,0.191,1.926,0.369,2.853,0.549C59.578,17.581,59.563,17.679,59.549,17.774z"/>
		<path fill="#313232" d="M62.028,20.974c-0.267,0-0.494,0-0.729,0c-0.17-0.736-0.333-1.455-0.508-2.219
			C61.624,19.048,62.201,20.108,62.028,20.974z"/>
		<path fill="#313232" d="M59.237,20.413c0.063,0.031,0.124,0.061,0.185,0.09L59.237,20.413l-0.392,0.561l1.326,0.473l0.096-0.525
			c0.117-0.797,0.218-1.482,0.327-2.234C59.621,18.952,59.729,19.854,59.237,20.413z"/>
		<path fill="#313232" d="M60.791,18.755"/>
		<polygon fill="#313232" points="61.966,20.067 61.299,20.974 61.424,21.446 62.436,21.192 		"/>
	</g>
	<g>
		<path fill="none" stroke="#231F20" stroke-width="0.1443" stroke-miterlimit="10" d="M24.118,7.619c0,0-0.831,10.671,0,11.136"/>
		<path fill="none" stroke="#231F20" stroke-width="0.1443" stroke-miterlimit="10" d="M56.741,5.414c0,0,3.664,0.965,3.25,1.638
			c-0.415,0.672-5.438,9.729-7.209,10.565c-1.772,0.836-10.417,1.139-10.417,1.139c-0.351-0.775,0-11.173,0-11.173"/>
		
			<line fill="none" stroke="#231F20" stroke-width="0.1443" stroke-miterlimit="10" x1="24.118" y1="18.755" x2="42.365" y2="18.755"/>
		<path fill="none" stroke="#231F20" stroke-width="0.1443" stroke-miterlimit="10" d="M5.436,9.478c0,0,14.646-1.785,15.998-1.859
			c1.354-0.077,1.714-1.491,1.714-1.491"/>
	</g>
</g>
</svg>
