<?xml version="1.0" encoding="utf-8"?>
<!-- Generator: Adobe Illustrator 15.0.0, SVG Export Plug-In . SVG Version: 6.00 Build 0)  -->
<!DOCTYPE svg PUBLIC "-//W3C//DTD SVG 1.1//EN" "http://www.w3.org/Graphics/SVG/1.1/DTD/svg11.dtd">
<svg version="1.1" id="Слой_1" xmlns="http://www.w3.org/2000/svg" xmlns:xlink="http://www.w3.org/1999/xlink" x="0px" y="0px"
	 width="275px" height="88px" viewBox="0 0 275 88" enable-background="new 0 0 275 88" xml:space="preserve">
<polygon fill="#808184" points="2.13,87.301 69.617,87.301 115.238,87.301 133.959,87.301 154.135,87.301 168.313,87.301 
	183.035,87.301 275.188,87.301 275.188,60.993 275.188,54.936 275.188,33.299 275.188,30.486 275.123,30.486 265.553,21.374 
	265.553,14.259 262.646,14.259 262.646,13.048 258.102,13.048 258.102,14.259 255.468,14.259 255.468,33.299 244.834,33.299 
	244.834,54.936 235.746,54.936 235.746,29.491 235.746,28.626 235.746,24.473 235.746,6.396 236.029,6.125 229.476,-0.117 
	222.92,6.125 222.658,6.125 222.658,24.473 212.481,24.473 212.481,28.626 210.119,28.626 210.119,27.414 199.394,27.414 
	199.394,28.626 198.485,28.626 198.485,22.396 198.485,19.626 190.486,19.626 190.486,22.396 187.033,22.396 187.033,60.993 
	183.035,60.993 183.035,43.685 168.313,43.685 168.313,39.877 168.313,37.627 168.313,36.501 165.769,36.501 165.769,37.627 
	162.859,37.627 162.859,35.68 155.588,35.68 155.588,37.627 154.135,37.627 154.135,42.473 133.959,42.473 129.053,42.473 
	129.053,39.877 121.782,39.877 121.782,42.473 115.238,42.473 115.238,36.501 111.422,36.501 111.422,24.473 75.252,24.473 
	75.252,36.501 69.617,36.501 69.617,64.8 66.164,64.8 66.164,43.685 66.164,36.501 66.164,33.904 62.164,33.904 62.164,36.501 
	60.893,36.501 60.893,34.856 52.531,34.856 52.531,36.501 52.531,39.877 49.985,39.877 49.985,43.685 46.897,43.685 46.897,21.011 
	46.897,10.798 41.989,10.798 41.989,8.895 27.265,8.895 27.265,21.011 25.632,21.011 25.632,20.145 17.268,20.145 17.268,21.011 
	11.453,21.011 11.453,39.877 0,39.877 0,69.127 "/>
</svg>
