<?xml version="1.0" encoding="utf-8"?>
<!-- Generator: Adobe Illustrator 15.0.0, SVG Export Plug-In . SVG Version: 6.00 Build 0)  -->
<!DOCTYPE svg PUBLIC "-//W3C//DTD SVG 1.1//EN" "http://www.w3.org/Graphics/SVG/1.1/DTD/svg11.dtd">
<svg version="1.1" id="Слой_1" xmlns="http://www.w3.org/2000/svg" xmlns:xlink="http://www.w3.org/1999/xlink" x="0px" y="0px"
	 width="13px" height="15px" viewBox="0 0 13 15" enable-background="new 0 0 13 15" xml:space="preserve">
<g>
	<path fill="#444443" d="M0.972,13.574c-0.055,0.021-0.109,0.044-0.163,0.066c-0.098,0.036-0.19,0.084-0.29,0.105
		c-0.082,0.018-0.17,0.003-0.256,0.003c0.063-0.064,0.119-0.137,0.188-0.193c0.199-0.162,0.402-0.318,0.662-0.522
		c-0.227-0.013-0.371-0.021-0.514-0.028c0.607-0.353,1.186-0.709,1.666-1.169c0.709-0.68,1.438-1.313,2.307-1.784
		c0.365-0.197,0.699-0.455,1.031-0.708c0.113-0.087,0.182-0.238,0.26-0.365c0.114-0.184,0.18-0.443,0.342-0.545
		c0.842-0.521,1.232-1.338,1.573-2.209c0.294-0.742,0.608-1.477,0.946-2.199c0.469-1.006,0.969-1.996,1.457-2.992
		c0.006-0.012,0.051-0.007,0.104-0.013c0,0.187,0,0.365,0,0.545c0.29-0.389,0.512-0.797,0.742-1.2
		c0.027-0.049,0.104-0.068,0.158-0.102c0.006,0.051,0.025,0.104,0.018,0.153c-0.031,0.2-0.07,0.398-0.105,0.598
		c0.119-0.039,0.147-0.101,0.193-0.147c0.169-0.182,0.346-0.358,0.519-0.537c-0.071,0.244-0.144,0.488-0.212,0.733
		c-0.02,0.073-0.025,0.149-0.037,0.225c0.059-0.031,0.121-0.059,0.178-0.094c0.205-0.127,0.41-0.256,0.613-0.384
		c-0.121,0.223-0.244,0.445-0.367,0.669c-0.016,0.029-0.033,0.06-0.051,0.089c-0.029,0.031-0.059,0.063-0.09,0.094
		c0.052,0.002,0.105,0.004,0.158,0.006c0.143-0.062,0.281-0.135,0.43-0.181c0.066-0.021,0.15,0.011,0.227,0.019
		c-0.035,0.056-0.063,0.121-0.111,0.164c-0.22,0.199-0.441,0.393-0.664,0.588c-0.039,0.045-0.078,0.091-0.117,0.137
		c0.064-0.021,0.13-0.042,0.194-0.063c0.101-0.027,0.199-0.065,0.3-0.079c0.094-0.012,0.191,0.003,0.287,0.006
		c-0.049,0.071-0.09,0.149-0.145,0.215c-0.11,0.131-0.278,0.235-0.33,0.384c-0.209,0.577-0.375,1.169-0.572,1.749
		c-0.066,0.191-0.27,0.369-0.262,0.546c0.035,0.771-0.391,1.391-0.677,2.037c-0.263,0.597-0.69,1.13-1.102,1.648
		C9.242,9.113,9.353,9.186,9.583,9.272c0.34,0.128,0.688,0.243,1.025,0.377c0.103,0.042,0.279,0.143,0.271,0.193
		c-0.057,0.386-0.043,0.849-0.26,1.128c-0.396,0.516-1.066,0.636-1.682,0.672c-0.422,0.024-0.493-0.47-0.689-0.761
		c-0.039-0.058-0.063-0.159-0.111-0.171c-0.082-0.02-0.217-0.019-0.26,0.032c-0.361,0.428-0.807,0.763-1.207,1.139
		c-0.779,0.729-1.793,1.033-2.604,1.668c-0.42,0.329-1.029,0.404-1.285,0.958c-0.029,0.063-0.139,0.09-0.211,0.133
		c-0.02-0.093-0.051-0.185-0.053-0.278c-0.002-0.063,0.047-0.128,0.055-0.194c0.008-0.06-0.01-0.123-0.017-0.185
		c-0.056,0.024-0.138,0.033-0.169,0.077c-0.098,0.143-0.168,0.304-0.266,0.447c-0.072,0.109-0.17,0.202-0.258,0.302
		c-0.021-0.123-0.045-0.247-0.068-0.371c-0.012-0.063-0.023-0.124-0.037-0.187c-0.059,0.027-0.123,0.045-0.174,0.082
		c-0.15,0.11-0.295,0.229-0.441,0.343c0.049-0.197,0.094-0.395,0.145-0.591c0.016-0.059,0.045-0.115,0.066-0.172
		c-0.18,0.068-0.301,0.184-0.438,0.277c-0.109,0.075-0.234,0.125-0.354,0.187c0.043-0.118,0.077-0.241,0.135-0.354
		c0.055-0.107,0.133-0.204,0.201-0.305C0.923,13.671,0.948,13.623,0.972,13.574z M1.821,14.184c0.012-0.011,0.031-0.024,0.029-0.032
		c-0.007-0.023-0.02-0.043-0.031-0.064c-0.012,0.011-0.021,0.022-0.035,0.036C1.796,14.143,1.809,14.163,1.821,14.184z"/>
	<path fill="#FFFFFF" d="M6.801,7.942L5.645,8.084c0,0-1.093,0.273-0.438,0.584s0.655,0.311,0.655,0.311"/>
</g>
</svg>
