<?xml version="1.0" encoding="utf-8"?>
<!-- Generator: Adobe Illustrator 15.0.0, SVG Export Plug-In . SVG Version: 6.00 Build 0)  -->
<!DOCTYPE svg PUBLIC "-//W3C//DTD SVG 1.1//EN" "http://www.w3.org/Graphics/SVG/1.1/DTD/svg11.dtd">
<svg version="1.1" id="Слой_1" xmlns="http://www.w3.org/2000/svg" xmlns:xlink="http://www.w3.org/1999/xlink" x="0px" y="0px"
	 width="108px" height="108px" viewBox="0 0 108 108" enable-background="new 0 0 108 108" xml:space="preserve">
<g>
	<g>
		<g>
			<g>
				<path fill="none" d="M58.881,52.439c-0.867-2.685-3.742-4.182-6.436-3.308c-2.703,0.851-4.189,3.735-3.326,6.419
					c0.86,2.693,3.737,4.188,6.438,3.326C58.249,58.02,59.73,55.141,58.881,52.439z"/>
				<path fill="none" d="M57.316,52.943c-0.582-1.83-2.541-2.847-4.379-2.256c-1.823,0.577-2.838,2.533-2.252,4.364
					c0.583,1.844,2.549,2.854,4.376,2.27C56.893,56.738,57.908,54.778,57.316,52.943z"/>
				<g>
					<g>
						<path fill="none" d="M91.979,91.977c20.991-20.99,20.991-54.963,0-75.955c-20.992-20.992-54.965-20.992-75.957,0
							c-20.992,20.991-20.992,54.964,0,75.955C37.014,112.969,70.986,112.969,91.979,91.977z"/>
						<path fill="none" d="M47.677,60.322c-3.505-3.504-3.505-9.141,0-12.646s9.143-3.505,12.647,0
							c3.504,3.505,3.504,9.142,0,12.648C56.819,63.828,51.182,63.828,47.677,60.322z"/>
						<path fill="none" d="M55.057,55.057c0.575-0.575,0.576-1.54,0-2.115c-0.574-0.574-1.539-0.574-2.113,0
							c-0.575,0.575-0.575,1.54,0,2.115C53.518,55.631,54.482,55.631,55.057,55.057z"/>
						<circle fill="none" cx="54" cy="54" r="0.236"/>
						<path fill="none" d="M54.037,54.037c0.019-0.019,0.019-0.056,0-0.074s-0.055-0.019-0.074,0.001
							c-0.018,0.018-0.019,0.055,0,0.073S54.019,54.055,54.037,54.037z"/>
						<rect x="54" y="54" fill="none" width="0" height="0"/>
						<rect x="54" y="54" fill="none" width="0" height="0"/>
						<rect x="54" y="54" fill="none" width="0" height="0"/>
						<rect x="54" y="54" fill="none" width="0" height="0"/>
						<rect x="54" y="54" fill="none" width="0" height="0"/>
						<rect x="54" y="54" fill="none" width="0" height="0"/>
						<rect x="54" y="54" fill="none" width="0" height="0"/>
						<rect x="54" y="54" fill="none" width="0" height="0"/>
						<rect x="54" y="54" fill="none" width="0" height="0"/>
						<rect x="54" y="54" fill="none" width="0" height="0"/>
						<rect x="54" y="54" fill="none" width="0" height="0"/>
						<rect x="54" y="54" fill="none" width="0" height="0"/>
						<rect x="54" y="54" fill="none" width="0" height="0"/>
						<rect x="54" y="54" fill="none" width="0" height="0"/>
						<rect x="54" y="54" fill="none" width="0" height="0"/>
						<rect x="54" y="54" fill="none" width="0" height="0"/>
						<rect x="54" y="54" fill="none" width="0" height="0"/>
						<rect x="54" y="54" fill="none" width="0" height="0"/>
						<rect x="54" y="54" fill="none" width="0" height="0"/>
						<rect x="54" y="54" fill="none" width="0" height="0"/>
						<rect x="54" y="54" fill="none" width="0" height="0"/>
						<rect x="54" y="54" fill="none" width="0" height="0"/>
						<rect x="54" y="54" fill="none" width="0" height="0"/>
						<rect x="54" y="54" fill="none" width="0" height="0"/>
						<rect x="54" y="54" fill="none" width="0" height="0"/>
						<rect x="54" y="54" fill="none" width="0" height="0"/>
						<rect x="54" y="54" fill="none" width="0" height="0"/>
					</g>
					<g>
						<line fill="none" x1="54" y1="54" x2="91.979" y2="91.977"/>
						<line fill="none" x1="54" y1="54" x2="2.114" y2="67.908"/>
						<line fill="none" x1="67.908" y1="2.114" x2="54" y2="54"/>
					</g>
				</g>
			</g>
			<g>
				<g>
					<path fill="#8FAAB7" d="M54,54c0-0.001-8.474,12.858-51.909,14.221c-0.041-0.152-0.082-0.307-0.123-0.459
						C40.265,47.224,54,53.999,54,54z"/>
					<path fill="#E2E7EA" d="M54,54c0-0.001-8.474,12.858-51.909,14.221"/>
				</g>
				<g>
					<path fill="#8FAAB7" d="M54,54c0.001,0-6.764-13.556,13.773-51.853c0.152,0.041,0.306,0.081,0.458,0.123
						C66.87,45.704,54.001,54,54,54z"/>
					<path fill="#E2E7EA" d="M54,54c0.001,0-6.764-13.556,13.773-51.853"/>
				</g>
				<g>
					<path fill="#E2E7EA" d="M54,54C53.999,54,69.248,54.875,92.145,91.811c-0.11,0.111-0.223,0.223-0.334,0.334
						C54.877,69.248,54,54,54,54z"/>
					<path fill="#8FAAB7" d="M54,54C53.999,54,69.248,54.875,92.145,91.811"/>
				</g>
			</g>
		</g>
		<g>
			<path fill="#E2E7EA" d="M58.881,52.439c-0.867-2.685-3.742-4.182-6.436-3.308c-2.703,0.851-4.189,3.735-3.326,6.419
				c0.86,2.693,3.737,4.188,6.438,3.326C58.249,58.02,59.73,55.141,58.881,52.439z"/>
			<path fill="#8FAAB7" d="M57.316,52.943c-0.582-1.83-2.541-2.847-4.379-2.256c-1.823,0.577-2.838,2.533-2.252,4.364
				c0.583,1.844,2.549,2.854,4.376,2.27C56.893,56.738,57.908,54.778,57.316,52.943z"/>
		</g>
	</g>
</g>
</svg>
