<?xml version="1.0" encoding="utf-8"?>
<!-- Generator: Adobe Illustrator 15.0.0, SVG Export Plug-In . SVG Version: 6.00 Build 0)  -->
<!DOCTYPE svg PUBLIC "-//W3C//DTD SVG 1.1//EN" "http://www.w3.org/Graphics/SVG/1.1/DTD/svg11.dtd">
<svg version="1.1" id="Слой_1" xmlns="http://www.w3.org/2000/svg" xmlns:xlink="http://www.w3.org/1999/xlink" x="0px" y="0px"
	 width="88px" height="66px" viewBox="0 0 88 66" enable-background="new 0 0 88 66" xml:space="preserve">
<path fill="#404041" d="M20.334,61.369c0.611-0.045,1.221-0.09,1.832-0.135c0.004,0.044,0.008,0.087,0.014,0.131
	c-0.611,0.074-1.223,0.147-1.834,0.222c0,0.028,0.002,0.057,0.002,0.084c0.338,0,0.674-0.006,1.01,0.006
	c0.066,0.002,0.129,0.074,0.193,0.114c-0.068,0.03-0.137,0.085-0.207,0.086c-0.436,0.008-0.871,0.004-1.316,0.063
	c0.27,0.06,0.539,0.119,0.809,0.18c0,0.017,0,0.033,0,0.05c-0.725,0.078-1.451,0.146-2.176,0.235
	c-2.246,0.278-4.387,0.918-6.42,1.916c-0.396,0.194-0.439,0.437-0.123,0.767c0.203,0.212,0.455,0.376,0.676,0.573
	c0.055,0.05,0.068,0.146,0.102,0.22c-0.078,0.031-0.156,0.092-0.23,0.087c-0.598-0.043-1.191-0.089-1.74-0.381
	c-0.211-0.112-0.459-0.155-0.689-0.229c-0.736-0.234-1.34-0.59-1.451-1.457c-0.016-0.116-0.168-0.261-0.291-0.308
	C7.99,63.397,7.477,63.24,6.969,63.06c-0.523-0.185-1.035-0.405-1.566-0.563c-0.514-0.154-1.043-0.265-1.57-0.366
	c-0.852-0.165-1.707-0.307-2.561-0.461c-0.041-0.007-0.076-0.038-0.113-0.058c0.041-0.021,0.086-0.038,0.121-0.065
	c0.051-0.039,0.094-0.085,0.141-0.128c-0.059-0.021-0.117-0.056-0.176-0.057c-0.295-0.006-0.59-0.003-0.906-0.076
	c0.229-0.062,0.459-0.122,0.688-0.183c0-0.014,0-0.027,0-0.04c-0.156-0.008-0.314-0.013-0.473-0.023
	c-0.148-0.01-0.432,0.062-0.146-0.231c0.012-0.012-0.021-0.082-0.049-0.115c-0.063-0.081-0.135-0.155-0.203-0.232
	c0.121,0.012,0.246,0.009,0.363,0.04c0.119,0.032,0.109,0.026,0.42-0.067c0.105-0.032,0.273,0.036,0.371,0.112
	c0.479,0.372,1.029,0.488,1.615,0.507c1.984,0.061,3.762,0.791,5.475,1.716c0.359,0.194,0.668,0.424,1.139,0.152
	c0.195-0.111,0.615,0.052,0.871,0.197c0.314,0.179,0.59,0.194,0.889,0.048c0.469-0.228,0.947-0.439,1.389-0.715
	c0.742-0.464,1.551-0.668,2.408-0.782c1.271-0.169,2.572-0.223,3.762-0.791c0.146-0.069,0.268-0.085,0.246,0.141
	c0.164,0.003,0.328,0.007,0.492,0.011c0.195,0.004,0.393,0.035,0.584,0.007c0.393-0.058,0.779-0.15,1.17-0.22
	c0.158-0.028,0.322-0.032,0.482-0.047c-0.145,0.083-0.277,0.195-0.434,0.243c-0.346,0.106-0.701,0.181-1.053,0.268
	C20.342,61.31,20.338,61.339,20.334,61.369z"/>
<path fill="#404041" d="M79.594,7.42c0.143-0.962,0.41-1.785,0.816-2.559c0.063-0.116,0.227-0.201,0.363-0.251
	c0.242-0.088,0.506-0.121,0.752-0.207c0.49-0.171,0.523-0.231,0.313-0.69c-0.148-0.322,0.045-0.404,0.275-0.473
	c0.316-0.093,0.752,0.042,0.893-0.39c0.1-0.308,0.08-0.651,0.172-0.962c0.064-0.215,0.176-0.478,0.35-0.587
	c0.834-0.522,1.656-1.1,2.709-1.089c0.1,0.001,0.223-0.021,0.299-0.08c0.373-0.291,0.73,0.159,1.102,0.021
	c0.027-0.01,0.115,0.181,0.193,0.26c0.096,0.099,0.064,0.068-0.059,0.28c-0.449,0.778-1.346,0.978-1.955,1.548
	c-0.24,0.225-0.393,0.424-0.463,0.762c-0.094,0.451-0.311,0.879-0.496,1.308c-0.137,0.318-0.063,0.526,0.248,0.672
	c0.598,0.279,1.191,0.564,1.785,0.852c0.086,0.043,0.164,0.107,0.246,0.162c-0.076,0.062-0.148,0.171-0.229,0.177
	c-0.555,0.042-0.85,0.256-0.672,0.871c0.025,0.086-0.082,0.211-0.129,0.318c-0.078-0.063-0.164-0.12-0.236-0.189
	c-0.479-0.46-0.951-0.924-1.43-1.384c-0.246-0.238-0.494-0.32-0.83-0.11c-0.459,0.29-1.035,0.443-1.412,0.81
	c-0.41,0.4-0.68,0.961-0.951,1.482c-0.184,0.353-0.256,0.762-0.4,1.137c-0.035,0.087-0.043,0.502-0.279,0.095
	c-0.004-0.007-0.066,0.006-0.088,0.025c-0.092,0.08-0.18,0.165-0.27,0.249c-0.107-0.121-0.281-0.228-0.313-0.366
	C79.77,8.525,79.682,7.93,79.594,7.42z"/>
</svg>
