<?xml version="1.0" encoding="utf-8"?>
<!-- Generator: Adobe Illustrator 15.0.0, SVG Export Plug-In . SVG Version: 6.00 Build 0)  -->
<!DOCTYPE svg PUBLIC "-//W3C//DTD SVG 1.1//EN" "http://www.w3.org/Graphics/SVG/1.1/DTD/svg11.dtd">
<svg version="1.1" id="Слой_1" xmlns="http://www.w3.org/2000/svg" xmlns:xlink="http://www.w3.org/1999/xlink" x="0px" y="0px"
	 width="3995px" height="1100px" viewBox="0 0 3995 1100" enable-background="new 0 0 3995 1100" xml:space="preserve">
<symbol  id="groundsmall" viewBox="-250 -131.247 500 262.495">
	<polyline fill="#595743" points="250,131.248 -250,131.248 -250,81.248 250,81.248 	"/>
	<polyline fill="#636249" points="250,85.793 -250,85.793 -250,51.162 250,51.162 	"/>
	<polyline fill="#606045" points="250,56.248 -250,56.248 -250,-131.247 250,-131.247 	"/>
	<path opacity="0.15" fill="#97998D" d="M-86.559,17.925c0,0,6.234,3.163,5.553,4.855c-0.681,1.691,1.586,8.269-0.749,6.88
		C-84.091,28.271-89.564,17.66-86.559,17.925z"/>
	<path opacity="0.15" fill="#AEB2A3" d="M-181.518-48.251c-1.636,1.551-2.528,5.779,0.147,8.412
		c2.632,2.674,6.859,1.781,8.412,0.148c1.678-1.593,0.065-3.316-2.568-5.992C-178.2-48.314-179.923-49.926-181.518-48.251z"/>
	<path opacity="0.15" fill="#AEB2A3" d="M-207.8-17.209c-1.185,1.103-1.725,4.86,0.849,7.396c2.535,2.572,6.294,2.03,7.396,0.849
		c1.222-1.145-0.646-2.489-3.181-5.064C-205.312-16.565-206.657-18.433-207.8-17.209z"/>
	<path opacity="0.15" fill="#AEB2A3" d="M-203.344,14.591c-1.231,1.176-1.933,4.174-0.093,5.984c1.812,1.841,4.811,1.14,5.986-0.092
		c1.262-1.204,0.241-2.48-1.572-4.322C-200.864,14.349-202.139,13.328-203.344,14.591z"/>
	<path opacity="0.15" fill="#AEB2A3" d="M-221.769,14.983c0.186,2.052,1.905,5.584,4.104,6.147c2.201,0.613,3.248-2.179,2.993-4.247
		c-0.191-2.099-1.597-2.688-3.799-3.299C-220.67,13.021-222.029,12.866-221.769,14.983z"/>
	<path opacity="0.15" fill="#AEB2A3" d="M-84.313,32.484c0,0-10.901-7.196-13.689-14.308c-2.789-7.111-3.061-7.781-0.288-8.67
		c2.774-0.889,8.824-1.49,11.199,4.357c2.378,5.847,2.374,6.766,1.929,8.771C-85.608,24.64-74.674,33.871-84.313,32.484z"/>
	<path opacity="0.15" fill="#AEB2A3" d="M145.115-54.78c-1.302-2.874-3.353-4.442-6.466-5.099c-2.056-0.434-4.388-1.887-6.366-2.161
		c-1.83-0.253-3.354,0.456-5.011,0.741c3.208,0.605,4.973,2.926,6.552,5.469c3.429,2.131,6.858,4.264,10.29,6.398
		c-0.09-1.057,0.25-2.195-0.354-3.15C142.268-54.936,143.828-54.678,145.115-54.78z"/>
	<path opacity="0.15" fill="#C6CCB8" d="M145.115-54.78c-1.287,0.103-2.847-0.155-1.355,2.198c0.605,0.955,0.264,2.094,0.354,3.15
		c-3.892-0.9-7.757-1.872-10.29-6.398c-1.579-2.543-3.344-4.863-6.552-5.469c1.746,5.678,4.853,9.137,10.873,12.003
		c2.385,1.137,4.786,2.158,7.179,3.231c-1.252-0.789-2.506-1.579-2.907-1.83c2.198,0.244,4.996,0.557,8.044,0.896
		c-1.097-2.275-1.804-3.742-2.509-5.208C147.005-53.063,146.061-53.922,145.115-54.78z"/>
	<path opacity="0.15" fill="#AEB2A3" d="M147.952-52.206c0.705,1.466,1.412,2.933,2.509,5.208c-3.048-0.34-5.846-0.652-8.044-0.896
		c0.401,0.251,1.655,1.041,2.907,1.83c0.793,0.027,1.637,0.142,2.37,0.063C152.613-46.534,152.636-47.294,147.952-52.206z"/>
	<path opacity="0.15" fill="#97998D" d="M133.824-55.83c2.533,4.526,6.398,5.498,10.29,6.398
		C140.683-51.566,137.253-53.699,133.824-55.83z"/>
	<path opacity="0.15" fill="#ACACAC" d="M-178.448-42.76l5.49,3.069c0,0,2.865-1.605-3.593-6.989
		C-183.007-52.062-178.448-42.76-178.448-42.76z"/>
	<path opacity="0.15" fill="#97998D" d="M-206.739-17.55c0,0,6.355-1.866,7.184,8.586"/>
	<path opacity="0.15" fill="#97998D" d="M-199.2,21.484c0,0,6.147,1.199,1.226-4.485c-4.923-5.684-5.082-3.196-3.232-0.377
		C-199.356,19.442-199.2,21.484-199.2,21.484z"/>
	<path opacity="0.15" fill="#97998D" d="M-85.671,24.183c0,0-8.694-9.271-10.322-10.322c-1.627-1.049,0.513-2.018,3.386,0.357
		C-89.734,16.593-85.671,24.183-85.671,24.183z"/>
	<path opacity="0.15" fill="#97998D" d="M-173.093-38.782c0,0-4.493-6.987-6.582-6.582
		C-181.763-44.962-173.093-38.782-173.093-38.782z"/>
	<path opacity="0.15" fill="#AEB2A3" d="M177.881-10.853c-1.636,1.551-2.528,5.779,0.147,8.412c2.632,2.674,6.859,1.781,8.412,0.148
		c1.678-1.593,0.065-3.316-2.568-5.992C181.199-10.916,179.476-12.527,177.881-10.853z"/>
	<path opacity="0.15" fill="#AEB2A3" d="M151.599,20.189c-1.185,1.103-1.725,4.86,0.849,7.396c2.535,2.572,6.294,2.03,7.396,0.849
		c1.222-1.145-0.646-2.489-3.181-5.064C154.087,20.833,152.742,18.966,151.599,20.189z"/>
	<path opacity="0.15" fill="#ACACAC" d="M180.951-5.361l5.49,3.069c0,0,2.865-1.605-3.593-6.989
		C176.392-14.663,180.951-5.361,180.951-5.361z"/>
	<path opacity="0.15" fill="#97998D" d="M152.66,19.849c0,0,6.355-1.866,7.184,8.586"/>
	<path opacity="0.15" fill="#97998D" d="M186.306-1.384c0,0-4.493-6.987-6.582-6.582C177.636-7.563,186.306-1.384,186.306-1.384z"/>
	<path opacity="0.15" fill="#97998D" d="M-144.271-25.43c0,0,4.398,6.371,6.705,4.089c2.306-2.28,5.446-1.868,1.709-4.59
		c-3.738-2.722-9.78-1.994-9.097-0.747"/>
	<polygon opacity="0.15" fill="#97998D" points="-123.722,24.763 -129.936,21.345 -127.389,18.798 	"/>
	<path opacity="0.15" fill="#97998D" d="M-131.376,28.995l3.668-1.818c0,0,2.153-2.498-3.375-3.43
		C-136.613,22.813-135.146,25.444-131.376,28.995z"/>
	<path opacity="0.15" fill="#97998D" d="M-71.967-6.155c3.201,2.829,3.521,0.935,3.763-0.873c0.385-2.879-2.557-6.84-6.097-8.318
		C-73.106-12.186-70.729-8.749-71.967-6.155z"/>
	<path opacity="0.15" fill="#AEB2A3" d="M-71.967-6.155c1.238-2.594-1.14-6.03-2.334-9.191c-0.73,1.678-1.873,3.154-1.951,5.149
		C-76.278-9.563-73.476-7.541-71.967-6.155z"/>
	<path opacity="0.15" fill="#AEB2A3" d="M18.045,13.538c1.238-2.594-1.14-6.03-2.334-9.191c-0.73,1.678-1.873,3.154-1.951,5.149
		C13.733,10.13,16.536,12.152,18.045,13.538z"/>
	<path opacity="0.15" fill="#AEB2A3" d="M131.816-49.381c-1.529-0.786-3.058-1.572-4.588-2.356c-0.236-0.12-0.471-0.241-0.707-0.361
		c-0.331,0.261-0.662,0.523-0.993,0.786c0.889,0.816,1.778,1.635,2.668,2.452c0.994,0.152,1.989,0.304,2.98,0.456
		C131.392-48.729,131.604-49.055,131.816-49.381z"/>
	<path opacity="0.15" fill="#C6CCB8" d="M131.177-48.404c-0.992-0.152-1.986-0.304-2.98-0.456c0.08,0.174,0.158,0.349,0.235,0.521
		c0.728,0.515,1.457,1.03,2.186,1.546c-0.366,0.229-0.731,0.455-1.097,0.684c-0.03,0.189-0.057,0.38-0.086,0.569
		c3.392,1.196,3.697-0.443,3.11-2.903C132.089-48.43,131.634-48.417,131.177-48.404z"/>
	<path opacity="0.15" fill="#97998D" d="M150.816-50.07c-0.117,0.127-0.236,0.254-0.353,0.381c0.05,0.715,0.1,1.43,0.148,2.145
		c0.004,0.164,0.008,0.328,0.015,0.492c0.579,1.01,1.159,2.02,1.739,3.029C154.12-45.514,153.678-47.514,150.816-50.07z"/>
	<path opacity="0.15" fill="#97998D" d="M131.177-48.404c0.457-0.013,0.912-0.025,1.367-0.039c-0.242-0.313-0.485-0.625-0.728-0.938
		C131.604-49.055,131.392-48.729,131.177-48.404z"/>
	<path opacity="0.15" fill="#737373" d="M126.521-52.099c0.236,0.12,0.471,0.241,0.707,0.361
		C127.002-51.912,126.767-52.032,126.521-52.099z"/>
	<path opacity="0.15" fill="#AEB2A3" d="M150.611-47.545c-0.048-0.715-0.098-1.43-0.148-2.145c-0.496,0.001-0.992,0.002-1.487,0.004
		C149.521-48.973,150.067-48.258,150.611-47.545z"/>
	<polygon opacity="0.15" fill="#97998D" points="151.479,-59.781 145.267,-63.201 147.813,-65.747 	"/>
</symbol>
<symbol  id="large_ground" viewBox="-1747.845 -230.091 3498.686 460.183">
	<polygon id="BACKGROUND_5_" fill="#8AC465" points="1750.841,32.404 -1747.845,32.404 -1747.845,164.977 1750.841,164.977 	"/>
	<polygon id="BACKGROUND_4_" fill="#8AC465" points="1750.841,180.807 -1747.845,180.807 -1747.845,230.092 1750.841,230.092 	"/>
	<polygon fill="#595743" points="1750.841,32.404 -1747.087,32.404 -1747.087,-17.596 1750.841,-17.596 	"/>
	<polygon fill="#636249" points="1750.841,-13.051 -1747.087,-13.051 -1747.087,-47.682 1750.841,-47.682 	"/>
	<polyline fill="#606045" points="1750.841,-230.091 1750.841,-42.596 -1747.087,-42.596 -1747.087,-230.091 	"/>
	<path opacity="0.2" fill="none" stroke="#97998D" stroke-miterlimit="10" d="M318.134-195.453l-9.523-11.754l6.961,10.825
		l-1.387,2.187l-10.398,4.047l0.34,3.07l-2.797,1.226l-0.236-0.253l2.408-2.873l-3.514,1.68l-0.225-0.369l1.5-1.701l-0.268-0.188
		l-2.629,1.438l-0.313-0.486l1.256-1.29l-3.789-0.36l0.943-1.002l-10.297-3.383l1.271-0.616l-6.012-6.255l-0.283,0.18l0.975,2.707
		l-0.158,0.102l-1.973-2.529l-0.109,1.739l3.854,6.249l15.254,10.057l1.105,5.285l2.166-0.266l-0.824,1.99l2.338,0.039l-2.26,2.111
		l2.992,0.207l-2.068,3.048l3.326-0.636l0.332,0.713l-3.211,2.33l0.721,1.407l3.834-1.177l-3.115,2.565l0.896,1.503l2.654-2.086
		l0.637,0.561l-2.656,2.825l0.738,1.163l4.617-3.07l0.33,0.407l-2.541,5.376l3.113-2.094l-0.455,5.355l2.795-3.518l-0.279,5.702
		l2.43-3.433l0.836,0.398l-1.123,3.01l0.951,2.027l3.029-2.524l0.457,4.2l1.223-2.949l0.715,3.701l1.529,0.97l0.25-1.715
		l1.115,2.585l1.379-0.455l1.125,1.085l11.658,2.052l1.074,1.992l1.371-2.337l2.529,3.322l0.268-3.837l2.537,4.803l0.857-0.327
		l-1.686-3.524l0.557-0.189l2.393,4.818l0.461-0.097l-1.33-3.958l0.779-0.186l1.961,4.447l0.295-0.089l-0.529-3.494l0.666-0.075
		l1.566,4.588l0.4-0.086l-0.543-3.684l0.795-0.158l1.807,4.296l0.33-0.104l-1.25-3.233l0.559-0.232l4.023,5.513l0.516-0.169
		l-0.805-3.306l0.598-0.14l2.186,4.527l0.447-0.16l-1.209-3.521l0.344-0.129l1.471,2.506l0.285-1.352l1.223-0.324l0.91,3.901
		l0.324-0.094l-0.43-2.333l0.525-0.133l1.688,3.879l-0.117-2.908l0.482-0.013l1.102,3.294l0.291-0.043l0.006-2.161l0.564-0.024
		l0.996,2.796l0.348-1.994l0.631-0.048l1.316,3.079l0.031-1.888l0.83-0.182l0.395,1.513l1.281-0.003l22.088,15.534l-0.842,4.821
		l-0.689-9.346l0.541-0.584l-3.877-3.015l-1.445,0.169l1.41-2.117l-2.086,1.167l-0.424-0.354l1.094-2.138l-2.303,1.439l-0.385-0.337
		l1.139-2.146l-2.445,1.518l-0.398-0.424l1.666-2.206l-3.012,1.624l-0.441-0.429l1.211-2.175l-0.182-0.141l-2.246,1.767
		l-0.441-0.363l1.613-2.328l-0.232-0.19l-2.545,1.962l-0.49-0.429l1.738-2.334l-0.242-0.19l-2.314,1.972l-1.287-1.033l1.916-1.993
		l-0.191-0.182l-3.121,1.636l-0.385-0.363l2.297-2.654l-3.799,1.914l-0.373-0.442l2.43-2.337l-0.264-0.189l-3.342,1.862
		l-0.432-0.475l2.324-2.687l-3.855,2.184l-0.406-0.459l2.561-3.047l-3.994,2.412l-0.568-0.591l2.301-2.497l-0.137-0.111
		l-3.477,2.289l-0.578-0.546l2.99-3.773l-5.264,2.788l2.881-3.697l-0.195-0.236l-3.762,3.219l-0.594-0.516l2.697-3.588l-0.445-0.268
		l-4.258,2.813l3.023-3.915l-4.861,2.858l3.146-3.563l-5.408,3.026l3.381-4.251l-0.412-0.354l-4.428,3.758l-0.426-0.438l3.453-3.689
		l-0.414-0.344l-4.541,3.778l-0.449-0.415l3.512-4.286l-0.49-0.34l-4.275,4.267l-0.648-0.516l3.598-4.229l-0.494-0.377l-4.594,4.199
		l-0.57-0.476l3.635-4.458l-0.563-0.383l-5.121,4.288l-0.416-0.379l3.803-4.609l-0.57-0.398l-5.139,4.332l-0.441-0.436l4.133-4.322
		l-0.555-0.424l-5.465,4.808l-9.031-2.709l0.145-0.314l3.445,0.259l0.531-5.807l4.85-5.455l-1.123-5.143l8.143-5.955l1.352-3.009
		l1.816-0.989l-0.725-7.799l-2.535-2.438l0.393,0.888l-1.932-0.258l2.477,4.505l-0.031,3.241l-4.094,5.897l-8.836,3.474
		l-0.285,1.932l0.396,0.547l-7.217,6.592l-0.516-9.633l2.955-2.494l5.34-19.839l-3.738-5.655l-0.477-0.252l-0.135,1.002
		l-3.572-2.147l-0.365,0.399l2.402,2.354l1.893,8.436l1.018,1.129l-0.531-0.216l-6.971,13.469l1.711,3.596l-2.043,0.447
		l-0.926,1.513l0.791,11.422l-4.861-2.273l-1.775,1.232l0.275,1.553l-1.598-0.376l1.443-4.89l-4.363,2.399l5.193-4.659l-6.314,2.297
		l-1.289-0.175l0.059-0.452l8.16-4.239l-0.279-0.446l-9.988,3.412l11.135-6.253l-0.406-0.536l-7.67,2.408l7.469-4.729l-13.576,3.874
		l11.93-4.186l-0.279-0.583l-10.436,3.245l-0.121-0.296l12.246-5.24l-0.236-0.508l-8.951,1.787l-0.086-0.279l7.895-3.606
		l-10.777,0.978l8.309-3.335l-0.258-0.489l-8.316,2.648l-0.344-1.222l6.137-3.233l-0.092-0.382l-6.045,1.517l2.818-3.204
		l-1.518-0.138l8.902-10.959l-0.656-8.436l-0.846-0.975l-3.693-1.559l3.227,4.91l-0.865,7.768L318.134-195.453L318.134-195.453z
		 M343.353-165.321l-1.396,4.16l-4.9,3.085L343.353-165.321L343.353-165.321z M340.37-162.973l-4.561,2.453L340.37-162.973
		L340.37-162.973z M323.214-156.604l4.52,2.17L323.214-156.604L323.214-156.604z M309.218-171.789l-0.334-0.691l4.523-1.194
		L309.218-171.789L309.218-171.789z"/>
	<g opacity="0.2">
		<path fill="#97998D" d="M-1440.884-154.813c0,0,6.645-2.172,7.359-0.494s6.969,4.726,4.336,5.395
			C-1431.823-149.242-1443.196-152.875-1440.884-154.813z"/>
		<path fill="#AEB2A3" d="M-1552.653-49.301c-2.334,1.232,19.195,6.285,22.021,3.16c1.738-2.843-0.83-11.502-12.695-14.736
			c-12.408-3.242-14.547,1.84-13.408,3.479C-1554.802-55.684-1554.782-49.275-1552.653-49.301z"/>
		<path fill="#AEB2A3" d="M-1554.823-134.46c-0.061,2.253,2.299,5.873,6.053,5.844c3.752,0.029,6.109-3.591,6.053-5.844
			c0.061-2.313-2.299-2.391-6.053-2.421C-1552.522-136.852-1554.88-136.772-1554.823-134.46z"/>
		<path fill="#AEB2A3" d="M-1551.458-93.926c-0.059,1.617,2.217,4.656,5.83,4.63c3.611,0.026,5.887-3.015,5.83-4.63
			c0.055-1.674-2.217-1.304-5.83-1.332C-1549.243-95.23-1551.515-95.6-1551.458-93.926z"/>
		<path fill="#AEB2A3" d="M-1525.821-74.591c-0.039,1.702,1.584,4.318,4.166,4.298c2.582,0.021,4.207-2.596,4.168-4.298
			c0.041-1.744-1.584-1.925-4.168-1.944C-1524.239-76.516-1525.862-76.336-1525.821-74.591z"/>
		<path fill="#AEB2A3" d="M-1538.571-61.285c1.582,1.319,5.295,2.601,7.248,1.445c1.99-1.123,0.756-3.837-0.887-5.119
			c-1.619-1.35-3.029-0.771-5.02,0.354C-1539.183-63.45-1540.253-62.598-1538.571-61.285z"/>
		<path fill="#AEB2A3" d="M-1688.95-119.174c0,0,12.795-2.62,19.795,0.438c7,3.057,7.668,3.338,6.334,5.928s-5.186,7.293-11,4.838
			c-5.814-2.453-6.463-3.104-7.564-4.838S-1696.747-113.338-1688.95-119.174z"/>
		<path fill="#AEB2A3" d="M-1429.001-146.105c0,0-12.797,2.62-19.797-0.438c-7-3.057-7.666-3.338-6.334-5.928
			c1.334-2.59,5.186-7.293,11-4.838c5.816,2.453,6.463,3.105,7.566,4.838C-1435.464-150.737-1421.204-151.941-1429.001-146.105z"/>
		<path fill="#AEB2A3" d="M-1537.587-225.408c-1.473,1.115-2.049,2.693-3.02,4.066c2.697-1.84,5.586-1.447,8.5-0.766
			c3.932-0.918,7.865-1.834,11.801-2.752c-0.811-0.683-1.375-1.729-2.479-1.977"/>
		<path fill="#C6CCB8" d="M-1522.784-226.836c1.104,0.248,1.668,1.294,2.479,1.977c-3.389,2.116-6.809,4.162-11.801,2.752
			c-2.914-0.682-5.803-1.074-8.5,0.766c5.25,2.781,9.893,3.029,16.176,0.8c2.49-0.883,4.91-1.858,7.361-2.792
			c-1.443,0.328-2.889,0.656-3.35,0.762"/>
		<path fill="#AEB2A3" d="M-1520.419-222.572c0.461-0.105,1.906-0.434,3.35-0.762c0.58-0.541,1.258-1.057,1.721-1.631"/>
		<path fill="#97998D" d="M-1532.106-222.107c4.992,1.41,8.412-0.636,11.801-2.752
			C-1524.241-223.941-1528.175-223.025-1532.106-222.107z"/>
		<path fill="#ACACAC" d="M-1548.771-132.748l6.053-1.712c0,0,0.891-3.161-7.482-2.401
			C-1558.571-136.102-1548.771-132.748-1548.771-132.748z"/>
		<path fill="#97998D" d="M-1550.948-94.917c0,0,3.174-5.813,11.15,0.991"/>
		<path fill="#97998D" d="M-1681.386-112.809c0,0,16.064-2.137,18.564,0c2.5,2.136,6.521-8.152-7-4.46
			C-1683.345-113.575-1687.63-117.08-1681.386-112.809z"/>
		<path fill="#97998D" d="M-1518.017-72.646c0,0,5.195-3.499-2.305-4.038c-7.5-0.538-5.854,1.333-2.553,2.019
			C-1519.571-73.98-1518.017-72.646-1518.017-72.646z"/>
		<path fill="#97998D" d="M-1435.831-151.016c0,0-12.703-0.408-14.598,0c-1.893,0.408-1.064-1.789,2.646-2.142
			S-1435.831-151.016-1435.831-151.016z"/>
		<path fill="#97998D" d="M-1542.171-133.723c0,0-8.117-1.764-9.309,0C-1552.671-131.961-1542.171-133.723-1542.171-133.723z"/>
		<path fill="#97998D" d="M-1552.88-48.469c2.559-0.936,1.992-6.164,8.025-6.621c6.033-0.459,11.9-0.784,9.592-1.901
			c-2.309-1.118-7.326-3.955-10.289-4.401C-1548.517-61.84-1552.88-48.469-1552.88-48.469z"/>
		<path fill="#C6CCB8" d="M-1554.474-51.711c0,0,16.299-9.361,8.922-9.682C-1552.931-61.714-1561.376-64.94-1554.474-51.711z"/>
		<path fill="#97998D" d="M-1512.349-144.661c0,0,7.615,1.395,7.633-1.85c0.018-3.243,2.529-5.172-2.037-4.454
			c-4.568,0.719-8.326,5.505-6.961,5.904"/>
		<polygon fill="#97998D" points="-1462.327,-123.699 -1469.138,-121.723 -1469.138,-125.324 		"/>
		<path fill="#97998D" d="M-1464.747-115.295l1.309-3.879c0,0-0.244-3.289-4.813-0.039
			C-1472.821-115.963-1469.923-115.14-1464.747-115.295z"/>
		<path fill="#97998D" d="M-1447.593-182.158c4.264-0.264,3.15-1.829,2.043-3.278c-1.764-2.308-6.645-3.028-10.193-1.571
			C-1452.663-185.616-1448.552-184.867-1447.593-182.158z"/>
		<path fill="#AEB2A3" d="M-1447.593-182.158c-0.959-2.709-5.07-3.458-8.15-4.85c0.67,1.703,0.906,3.555,2.262,5.021
			C-1453.052-181.52-1449.64-182.071-1447.593-182.158z"/>
		<path fill="#AEB2A3" d="M-1528.966-216.127c-1.637,0.525-3.273,1.051-4.91,1.578c-0.252,0.081-0.504,0.162-0.756,0.244
			c-0.049,0.418-0.098,0.838-0.146,1.258c1.207-0.051,2.414-0.101,3.621-0.152c0.811-0.596,1.621-1.191,2.43-1.785
			C-1528.806-215.366-1528.886-215.746-1528.966-216.127z"/>
		<path fill="#C6CCB8" d="M-1528.728-214.984c-0.809,0.594-1.619,1.189-2.43,1.785c0.18,0.066,0.357,0.135,0.535,0.202
			c0.879-0.15,1.758-0.302,2.639-0.452c-0.098,0.42-0.195,0.839-0.293,1.259c0.113,0.155,0.229,0.31,0.342,0.464
			c3.244-1.553,2.301-2.928,0.146-4.252C-1528.101-215.647-1528.413-215.316-1528.728-214.984z"/>
		<path fill="#97998D" d="M-1510.647-226.869"/>
		<path fill="#97998D" d="M-1528.728-214.984c0.314-0.332,0.627-0.663,0.939-0.994c-0.393-0.051-0.785-0.1-1.178-0.148
			C-1528.886-215.746-1528.806-215.366-1528.728-214.984z"/>
		<path fill="#737373" d="M-1534.632-214.305c0.252-0.082,0.504-0.163,0.756-0.244
			C-1534.159-214.513-1534.411-214.432-1534.632-214.305z"/>
		<path fill="#AEB2A3" d="M-1234.827-200.116c0.811,1.556,14.518-4.671,11.434-7.363c-3.086-2.112-15.107-5.358-23.242-2.149
			c-8.326,3.425-2.488,6.809,0.006,7.158C-1243.774-202.405-1235.505-199.241-1234.827-200.116z"/>
		<path fill="#AEB2A3" d="M-1690.522-97.24c-0.061,2.254,2.299,5.873,6.053,5.844c3.752,0.029,6.109-3.592,6.053-5.844
			c0.061-2.312-2.299-2.392-6.053-2.421C-1688.222-99.632-1690.581-99.552-1690.522-97.24z"/>
		<path fill="#AEB2A3" d="M-1219.093-157.492c2.037,0.828,7.031,0.965,8.768-1.198c1.807-2.135-0.961-4.981-3.051-5.738
			c-2.111-0.854-2.752,0.68-4.561,2.815C-1219.673-159.449-1221.259-158.278-1219.093-157.492z"/>
		<path fill="#AEB2A3" d="M-1181.839-163.265c2.154,0.858,6.291,1.176,7.531-0.371c1.291-1.526-1.252-3.775-3.445-4.588
			c-2.207-0.878-3.234,0-4.525,1.526C-1183.519-165.15-1184.087-164.097-1181.839-163.265z"/>
		<path fill="#AEB2A3" d="M-1171.101-149.154c2.457-0.295,5.914-1.876,5.398-3.604c-0.459-1.736-4.529-2.332-6.971-1.983
			c-2.518,0.302-2.471,1.424-2.012,3.16C-1174.167-149.854-1173.603-148.799-1171.101-149.154z"/>
		<path fill="#AEB2A3" d="M-1153.466-128.896c2.865,2.605,6.613,3.258,11.855,2.236c3.459-0.675,7.635-0.318,10.924-1.135
			c3.047-0.755,5.34-2.455,7.965-3.738c-5.381,1.135-8.859-0.559-12.09-2.617c-6.137-0.52-12.279-1.038-18.418-1.557
			c0.42,1.179,0.164,2.701,1.398,3.469C-1148.79-130.35-1151.397-129.754-1153.466-128.896z"/>
		<path fill="#C6CCB8" d="M-1153.466-128.896c2.068-0.857,4.676-1.453,1.635-3.342c-1.234-0.768-0.979-2.29-1.398-3.469
			c6.57-1.186,13.115-2.271,18.418,1.557c3.23,2.059,6.709,3.752,12.09,2.617c-4.322-5.62-10.281-7.871-20.824-7.759
			c-4.182,0.044-8.354,0.229-12.531,0.351c2.244,0.203,4.492,0.404,5.209,0.468c-3.643,0.976-8.275,2.218-13.328,3.571
			c2.379,2.023,3.912,3.327,5.443,4.63C-1156.991-129.813-1155.229-129.355-1153.466-128.896z"/>
		<path fill="#AEB2A3" d="M-1158.753-130.272c-1.531-1.303-3.064-2.606-5.443-4.63c5.053-1.354,9.686-2.596,13.328-3.571
			c-0.717-0.063-2.965-0.265-5.209-0.468c-1.297,0.426-2.701,0.773-3.873,1.287
			C-1167.817-134.211-1167.657-133.311-1158.753-130.272z"/>
		<path fill="#97998D" d="M-1134.812-134.15c-5.303-3.827-11.848-2.742-18.418-1.557
			C-1147.091-135.188-1140.948-134.67-1134.812-134.15z"/>
		<path fill="#ACACAC" d="M-1684.47-95.529l6.053-1.711c0,0,0.891-3.16-7.482-2.4C-1694.271-98.881-1684.47-95.529-1684.47-95.529z"
			/>
		<path fill="#97998D" d="M-1220.108-158.281c0,0-5.867-4.738,6.732-6.147"/>
		<path fill="#97998D" d="M-1175.532-166.955c0,0-1.918-4.806-6.283-0.608c-4.363,4.198-1.166,4.138,1.326,2.508
			C-1177.995-166.684-1175.532-166.955-1175.532-166.955z"/>
		<path fill="#97998D" d="M-1677.87-96.504c0,0-8.117-1.763-9.309,0C-1688.37-94.74-1677.87-96.504-1677.87-96.504z"/>
		<path fill="#97998D" d="M-1233.831-199.611c-0.35-1.502-7.279-3.86-5.854-6.533c1.424-2.673,2.965-5.213,0.752-4.83
			c-2.211,0.383-7.545,1.011-9.111,1.992C-1249.61-208.002-1233.831-199.611-1233.831-199.611z"/>
		<path fill="#C6CCB8" d="M-1238.542-200.572c0,0-6.625-11.242-9.502-8.41C-1250.923-206.15-1257.905-204.324-1238.542-200.572z"/>
		<path fill="#97998D" d="M-1264.692-205.636c0,0,5.514-3.847,1.381-5.448s-5.363-4.041-6.686-0.972
			c-1.324,3.069,2.945,7.653,4.125,7.036"/>
		<path fill="#97998D" d="M-786.673-180.18c0,0-6.646,2.172-7.361,0.495c-0.715-1.679-6.969-4.727-4.334-5.396
			C-795.733-185.75-784.362-182.117-786.673-180.18z"/>
		<path fill="#AEB2A3" d="M-672.733-200.532c0.061-2.253-2.301-5.873-6.055-5.844c-3.752-0.029-6.109,3.592-6.053,5.844
			c-0.061,2.313,2.299,2.392,6.053,2.421C-675.036-198.141-672.677-198.22-672.733-200.532z"/>
		<path fill="#AEB2A3" d="M-546.171-222.184c1.102,1.733,15.361,0.531,7.564,6.365c0,0-12.797,2.621-19.797-0.436
			c-7-3.058-7.666-3.339-6.334-5.93"/>
		<path fill="#AEB2A3" d="M-798.556-188.886c0,0,12.795-2.621,19.795,0.437c7,3.057,7.668,3.338,6.334,5.929
			c-1.334,2.589-5.186,7.292-11,4.839c-5.814-2.455-6.463-3.105-7.564-4.839S-806.353-183.051-798.556-188.886z"/>
		<path fill="#AEB2A3" d="M-704.179-105.644c2.953,1.112,5.514,0.772,8.18-0.967c1.76-1.147,4.438-1.769,6.027-2.974
			c1.475-1.115,2.049-2.693,3.021-4.066c-2.699,1.84-5.588,1.448-8.5,0.766c-3.934,0.918-7.867,1.836-11.801,2.754
			c0.809,0.681,1.375,1.727,2.479,1.975C-702.056-107.548-703.341-106.625-704.179-105.644z"/>
		<path fill="#C6CCB8" d="M-704.179-105.644c0.838-0.981,2.123-1.904-0.594-2.513c-1.104-0.248-1.67-1.294-2.479-1.975
			c3.389-2.118,6.809-4.163,11.801-2.754c2.912,0.683,5.801,1.074,8.5-0.766c-5.252-2.779-9.895-3.027-16.176-0.8
			c-2.49,0.884-4.91,1.858-7.363,2.794c1.445-0.33,2.889-0.658,3.352-0.764c-1.729,1.382-3.926,3.139-6.322,5.054
			c2.385,0.833,3.92,1.37,5.457,1.908C-706.729-105.521-705.454-105.582-704.179-105.644z"/>
		<path fill="#AEB2A3" d="M-708.003-105.458c-1.537-0.538-3.072-1.075-5.457-1.908c2.396-1.915,4.594-3.672,6.322-5.054
			c-0.463,0.105-1.906,0.434-3.352,0.764c-0.578,0.541-1.258,1.055-1.719,1.629C-715.31-106.173-714.788-105.619-708.003-105.458z"
			/>
		<path fill="#97998D" d="M-695.45-112.885c-4.992-1.409-8.412,0.636-11.801,2.754C-703.317-111.049-699.384-111.967-695.45-112.885
			z"/>
		<path fill="#ACACAC" d="M-678.788-202.242l-6.053,1.71c0,0-0.889,3.161,7.482,2.401
			C-668.985-198.891-678.788-202.242-678.788-202.242z"/>
		<path fill="#97998D" d="M-546.171-222.184c0,0-16.066,2.137-18.566,0c-2.498-2.136-6.521,8.153,7.002,4.46
			C-544.214-221.416-539.929-217.91-546.171-222.184z"/>
		<path fill="#97998D" d="M-791.728-183.977c0,0,12.705,0.408,14.598,0c1.895-0.408,1.066,1.789-2.645,2.142
			S-791.728-183.977-791.728-183.977z"/>
		<path fill="#97998D" d="M-685.386-201.268c0,0,8.117,1.762,9.309,0C-674.886-203.031-685.386-201.268-685.386-201.268z"/>
		<path fill="#97998D" d="M-715.208-190.331c0,0-7.615-1.395-7.633,1.85c-0.018,3.243-2.531,5.173,2.037,4.454
			c4.568-0.717,8.326-5.505,6.961-5.903"/>
		<polygon fill="#97998D" points="-765.231,-211.293 -758.419,-213.268 -758.419,-209.666 		"/>
		<path fill="#97998D" d="M-762.81-219.697l-1.309,3.879c0,0,0.242,3.289,4.813,0.04
			C-754.735-219.029-757.634-219.853-762.81-219.697z"/>
		<path fill="#97998D" d="M-779.966-152.834c-4.262,0.265-3.15,1.83-2.041,3.279c1.764,2.307,6.643,3.027,10.191,1.57
			C-774.894-149.375-779.005-150.124-779.966-152.834z"/>
		<path fill="#AEB2A3" d="M-779.966-152.834c0.961,2.71,5.072,3.459,8.15,4.85c-0.668-1.702-0.904-3.553-2.26-5.021
			C-774.505-153.472-777.917-152.92-779.966-152.834z"/>
		<path fill="#AEB2A3" d="M-698.593-118.863c1.639-0.526,3.275-1.053,4.912-1.58c0.252-0.081,0.502-0.162,0.754-0.244
			c0.051-0.418,0.098-0.838,0.148-1.258c-1.207,0.051-2.416,0.102-3.621,0.152c-0.811,0.596-1.621,1.191-2.432,1.787
			C-698.751-119.626-698.671-119.244-698.593-118.863z"/>
		<path fill="#C6CCB8" d="M-698.831-120.006c0.811-0.596,1.621-1.191,2.432-1.787c-0.18-0.066-0.357-0.133-0.535-0.202
			c-0.879,0.151-1.76,0.302-2.641,0.452c0.098-0.419,0.195-0.839,0.293-1.258c-0.113-0.154-0.227-0.311-0.342-0.465
			c-3.242,1.553-2.299,2.93-0.145,4.253C-699.456-119.345-699.144-119.676-698.831-120.006z"/>
		<path fill="#97998D" d="M-711.538-104.941c-0.008-0.173-0.016-0.346-0.021-0.52c-0.541-0.471-1.08-0.939-1.621-1.41
			c-0.117-0.113-0.236-0.227-0.357-0.339c-1.125-0.304-2.248-0.609-3.373-0.913C-717.099-105.826-715.37-104.727-711.538-104.941z"
			/>
		<path fill="#97998D" d="M-698.831-120.006c-0.313,0.33-0.625,0.661-0.938,0.993c0.393,0.05,0.783,0.099,1.176,0.149
			C-698.671-119.244-698.751-119.626-698.831-120.006z"/>
		<path fill="#737373" d="M-692.927-120.688c-0.252,0.082-0.502,0.163-0.754,0.244
			C-693.397-120.479-693.147-120.561-692.927-120.688z"/>
		<path fill="#AEB2A3" d="M-713.181-106.871c0.541,0.471,1.08,0.939,1.621,1.41c0.35-0.351,0.699-0.703,1.049-1.053
			C-711.401-106.635-712.29-106.753-713.181-106.871z"/>
		<path fill="#97998D" d="M-984.942-81.86c0,0-0.486,5.021-2.979,4.622c-2.492-0.396-9.451,1.83-9.014-0.066
			C-996.497-79.2-986.284-84.186-984.942-81.86z"/>
		<path fill="#AEB2A3" d="M-992.731-134.875c-0.809-1.557-14.518,4.67-11.432,7.362c3.084,2.113,15.105,5.358,23.24,2.149
			c8.326-3.425,2.488-6.809-0.004-7.157C-983.784-132.586-992.052-135.751-992.731-134.875z"/>
		<path fill="#AEB2A3" d="M-1008.464-177.5c-2.037-0.828-7.033-0.965-8.77,1.198c-1.805,2.136,0.961,4.981,3.053,5.738
			c2.109,0.854,2.752-0.679,4.559-2.815C-1007.884-175.543-1006.3-176.714-1008.464-177.5z"/>
		<path fill="#AEB2A3" d="M-1045.718-171.728c-2.156-0.858-6.291-1.175-7.533,0.372c-1.291,1.525,1.252,3.774,3.447,4.587
			c2.205,0.88,3.232,0.001,4.523-1.526C-1044.038-169.842-1043.472-170.896-1045.718-171.728z"/>
		<path fill="#AEB2A3" d="M-1056.456-185.836c-2.459,0.295-5.916,1.875-5.398,3.604c0.459,1.734,4.527,2.33,6.971,1.982
			c2.516-0.303,2.469-1.425,2.01-3.16C-1053.392-185.139-1053.954-186.193-1056.456-185.836z"/>
		<path fill="#AEB2A3" d="M-1001.886-79.059c0,0,2.928-8.897,10.264-11.564c7.336-2.665,8.021-2.925,10.674-0.861
			c2.654,2.063,6.77,6.66,0.785,8.918c-5.984,2.256-7.133,2.322-9.887,2.127C-992.804-80.633-998.259-71.559-1001.886-79.059z"/>
		<path fill="#AEB2A3" d="M-1074.093-206.096c-2.865-2.605-6.613-3.258-11.854-2.234c-3.461,0.674-7.637,0.318-10.924,1.133
			c-3.049,0.755-5.342,2.455-7.967,3.738c5.383-1.133,8.859,0.559,12.09,2.617c6.139,0.52,12.279,1.038,18.42,1.557
			c-0.422-1.178-0.166-2.701-1.398-3.469C-1078.769-204.641-1076.159-205.237-1074.093-206.096z"/>
		<path fill="#C6CCB8" d="M-1074.093-206.096c-2.066,0.858-4.676,1.455-1.633,3.342c1.232,0.768,0.977,2.291,1.398,3.469
			c-6.57,1.187-13.117,2.271-18.42-1.557c-3.23-2.059-6.707-3.75-12.09-2.617c4.322,5.62,10.283,7.871,20.826,7.76
			c4.18-0.043,8.354-0.23,12.531-0.352c-2.246-0.203-4.494-0.402-5.211-0.468c3.643-0.975,8.277-2.216,13.328-3.569
			c-2.377-2.023-3.912-3.328-5.441-4.632C-1070.567-205.179-1072.327-205.637-1074.093-206.096z"/>
		<path fill="#AEB2A3" d="M-1068.804-204.72c1.529,1.304,3.064,2.608,5.441,4.632c-5.051,1.354-9.686,2.595-13.328,3.569
			c0.717,0.065,2.965,0.265,5.211,0.468c1.297-0.426,2.699-0.773,3.871-1.287C-1059.739-200.781-1059.901-201.68-1068.804-204.72z"
			/>
		<path fill="#97998D" d="M-1092.747-200.842c5.303,3.828,11.85,2.743,18.42,1.557
			C-1080.468-199.804-1086.608-200.322-1092.747-200.842z"/>
		<path fill="#97998D" d="M-1007.448-176.71c0,0,5.865,4.737-6.732,6.146"/>
		<path fill="#97998D" d="M-1052.026-168.037c0,0,1.918,4.807,6.283,0.608s1.168-4.136-1.326-2.508
			S-1052.026-168.037-1052.026-168.037z"/>
		<path fill="#97998D" d="M-992.269-80.715c0,0,6.75-7.358,7.156-8.686c0.408-1.326,2.807,0.244,1.438,2.625
			S-992.269-80.715-992.269-80.715z"/>
		<path fill="#97998D" d="M-993.728-135.379c0.352,1.5,7.281,3.859,5.855,6.531c-1.426,2.674-2.967,5.214-0.754,4.831
			c2.211-0.383,7.547-1.012,9.113-1.993C-977.946-126.99-993.728-135.379-993.728-135.379z"/>
		<path fill="#C6CCB8" d="M-989.015-134.42c0,0,6.623,11.243,9.502,8.41C-976.634-128.842-969.651-130.668-989.015-134.42z"/>
		<path fill="#97998D" d="M-962.864-129.356c0,0-5.516,3.849-1.381,5.448c4.133,1.602,5.363,4.042,6.686,0.972
			c1.322-3.069-2.947-7.651-4.125-7.036"/>
		<polygon fill="#97998D" points="-705.142,-97.606 -698.329,-99.582 -698.329,-95.981 		"/>
		<path fill="#97998D" d="M-722.798-50.487l-1.309,3.878c0,0,0.242,3.289,4.813,0.039
			C-714.724-49.819-717.622-50.644-722.798-50.487z"/>
		<path fill="#97998D" d="M-946.743-72.443c-1.752,2.666,0.793,2.771,3.186,2.822c3.811,0.082,7.123-2.469,7.004-5.294
			C-939.839-73.765-942.812-71.686-946.743-72.443z"/>
		<path fill="#AEB2A3" d="M-946.743-72.443c3.932,0.758,6.904-1.321,10.189-2.472c-2.502-0.438-4.98-1.204-7.52-1.117
			C-944.88-76.004-945.849-73.704-946.743-72.443z"/>
		<path fill="#AEB2A3" d="M-856.628-92.85c-0.887,1.078-1.773,2.155-2.658,3.232c-0.135,0.165-0.271,0.332-0.408,0.497
			c0.316,0.361,0.635,0.723,0.951,1.083c0.939-0.52,1.879-1.039,2.818-1.559c0.154-0.806,0.309-1.612,0.461-2.418
			C-855.851-92.292-856.239-92.57-856.628-92.85z"/>
		<path fill="#C6CCB8" d="M-855.464-92.014c-0.152,0.806-0.307,1.612-0.461,2.418c0.203-0.018,0.406-0.032,0.607-0.047
			c0.588-0.471,1.178-0.943,1.766-1.413c0.277,0.38,0.555,0.76,0.83,1.14c0.225,0.082,0.449,0.162,0.674,0.242
			c1.322-2.549-0.615-3.294-3.496-3.521C-855.517-92.8-855.489-92.406-855.464-92.014z"/>
		<path fill="#97998D" d="M-852.048-89.674c-0.225-0.08-0.449-0.16-0.672-0.242c-0.867,0.092-1.73,0.183-2.598,0.273
			c-0.201,0.015-0.404,0.029-0.607,0.047c-0.939,0.52-1.879,1.039-2.818,1.559C-855.903-86.799-853.651-87.288-852.048-89.674z"/>
		<path fill="#97998D" d="M-855.464-92.014c-0.025-0.393-0.053-0.786-0.08-1.181c-0.361,0.116-0.723,0.23-1.084,0.345
			C-856.239-92.57-855.851-92.292-855.464-92.014z"/>
		<path fill="#737373" d="M-859.694-89.12c0.137-0.165,0.273-0.332,0.408-0.497C-859.485-89.477-859.622-89.311-859.694-89.12z"/>
		<path fill="#AEB2A3" d="M-855.317-89.643c0.867-0.091,1.73-0.182,2.598-0.273c-0.277-0.38-0.555-0.76-0.832-1.14
			C-854.14-90.586-854.729-90.113-855.317-89.643z"/>
		<path fill="#97998D" d="M-226.149-154.813c0,0,6.646-2.172,7.361-0.494s6.969,4.726,4.334,5.395
			C-217.089-149.242-228.46-152.875-226.149-154.813z"/>
		<path fill="#AEB2A3" d="M-337.919-49.301c-2.332,1.232,19.195,6.285,22.021,3.16c1.74-2.843-0.828-11.502-12.693-14.736
			c-12.408-3.242-14.549,1.84-13.408,3.479C-340.067-55.684-340.046-49.275-337.919-49.301z"/>
		<path fill="#AEB2A3" d="M-340.089-134.46c-0.061,2.253,2.301,5.873,6.055,5.844c3.752,0.029,6.109-3.591,6.053-5.844
			c0.061-2.313-2.299-2.391-6.053-2.421C-337.786-136.852-340.146-136.772-340.089-134.46z"/>
		<path fill="#AEB2A3" d="M-336.722-93.926c-0.059,1.617,2.217,4.656,5.828,4.63c3.611,0.026,5.889-3.015,5.83-4.63
			c0.057-1.674-2.217-1.304-5.83-1.332C-334.507-95.23-336.78-95.6-336.722-93.926z"/>
		<path fill="#AEB2A3" d="M-311.087-74.591c-0.039,1.702,1.584,4.318,4.168,4.298c2.58,0.021,4.207-2.596,4.166-4.298
			c0.041-1.744-1.584-1.925-4.166-1.944C-309.503-76.516-311.126-76.336-311.087-74.591z"/>
		<path fill="#AEB2A3" d="M-323.835-61.285c1.58,1.319,5.295,2.601,7.248,1.445c1.99-1.123,0.756-3.837-0.887-5.119
			c-1.619-1.35-3.029-0.771-5.02,0.354C-324.448-63.45-325.517-62.598-323.835-61.285z"/>
		<path fill="#AEB2A3" d="M-474.216-119.174c0,0,12.797-2.62,19.797,0.438c7,3.057,7.666,3.338,6.334,5.928
			c-1.334,2.59-5.186,7.293-11,4.838c-5.816-2.453-6.463-3.104-7.566-4.838C-467.753-114.542-482.013-113.338-474.216-119.174z"/>
		<path fill="#AEB2A3" d="M-214.267-146.105c0,0-12.795,2.62-19.795-0.438c-7-3.057-7.668-3.338-6.334-5.928s5.186-7.293,11-4.838
			c5.814,2.453,6.463,3.105,7.564,4.838C-220.729-150.737-206.47-151.941-214.267-146.105z"/>
		<path fill="#C6CCB8" d="M-309.696-220.542"/>
		<path fill="#ACACAC" d="M-334.034-132.748l6.053-1.712c0,0,0.889-3.161-7.482-2.401
			C-343.837-136.102-334.034-132.748-334.034-132.748z"/>
		<path fill="#97998D" d="M-336.212-94.917c0,0,3.172-5.813,11.148,0.991"/>
		<path fill="#97998D" d="M-466.651-112.809c0,0,16.066-2.137,18.566,0c2.498,2.136,6.521-8.152-7.002-4.46
			C-468.608-113.575-472.894-117.08-466.651-112.809z"/>
		<path fill="#97998D" d="M-303.282-72.646c0,0,5.195-3.499-2.305-4.038c-7.5-0.538-5.854,1.333-2.551,2.019
			C-304.837-73.98-303.282-72.646-303.282-72.646z"/>
		<path fill="#97998D" d="M-221.095-151.016c0,0-12.705-0.408-14.598,0c-1.895,0.408-1.066-1.789,2.645-2.142
			S-221.095-151.016-221.095-151.016z"/>
		<path fill="#97998D" d="M-327.437-133.723c0,0-8.117-1.764-9.309,0C-337.937-131.961-327.437-133.723-327.437-133.723z"/>
		<path fill="#97998D" d="M-338.146-48.469c2.559-0.936,1.994-6.164,8.027-6.621c6.031-0.459,11.898-0.784,9.59-1.901
			c-2.309-1.118-7.324-3.955-10.289-4.401C-333.782-61.84-338.146-48.469-338.146-48.469z"/>
		<path fill="#C6CCB8" d="M-339.739-51.711c0,0,16.299-9.361,8.922-9.682C-338.194-61.714-346.642-64.94-339.739-51.711z"/>
		<path fill="#97998D" d="M-297.614-144.661c0,0,7.615,1.395,7.633-1.85c0.018-3.243,2.531-5.172-2.037-4.454
			c-4.568,0.719-8.326,5.505-6.961,5.904"/>
		<polygon fill="#97998D" points="-247.591,-123.699 -254.403,-121.723 -254.403,-125.324 		"/>
		<path fill="#97998D" d="M-250.013-115.295l1.309-3.879c0,0-0.242-3.289-4.813-0.039S-255.188-115.14-250.013-115.295z"/>
		<path fill="#97998D" d="M-232.856-182.158c4.262-0.264,3.15-1.829,2.041-3.278c-1.764-2.308-6.643-3.028-10.191-1.571
			C-237.929-185.616-233.817-184.867-232.856-182.158z"/>
		<path fill="#AEB2A3" d="M-232.856-182.158c-0.961-2.709-5.072-3.458-8.15-4.85c0.668,1.703,0.904,3.555,2.26,5.021
			C-238.317-181.52-234.905-182.071-232.856-182.158z"/>
		<path fill="#AEB2A3" d="M-314.229-216.127c-1.639,0.525-3.275,1.051-4.912,1.578c-0.252,0.081-0.502,0.162-0.754,0.244
			c-0.051,0.418-0.098,0.838-0.148,1.258c1.207-0.051,2.416-0.101,3.621-0.152c0.811-0.596,1.621-1.191,2.432-1.785
			C-314.071-215.366-314.151-215.746-314.229-216.127z"/>
		<path fill="#C6CCB8" d="M-313.991-214.984c-0.811,0.594-1.621,1.189-2.432,1.785c0.18,0.066,0.357,0.135,0.535,0.202
			c0.879-0.15,1.76-0.302,2.641-0.452c-0.098,0.42-0.195,0.839-0.293,1.259c0.113,0.155,0.227,0.31,0.342,0.464
			c3.242-1.553,2.299-2.928,0.145-4.252C-313.366-215.647-313.679-215.316-313.991-214.984z"/>
		<path fill="#97998D" d="M-313.991-214.984c0.313-0.332,0.625-0.663,0.938-0.994c-0.393-0.051-0.783-0.1-1.176-0.148
			C-314.151-215.746-314.071-215.366-313.991-214.984z"/>
		<path fill="#737373" d="M-319.896-214.305c0.252-0.082,0.502-0.163,0.754-0.244C-319.425-214.513-319.675-214.432-319.896-214.305
			z"/>
		<path fill="#AEB2A3" d="M-20.091-200.116c0.809,1.556,14.518-4.671,11.432-7.363c-3.084-2.112-15.105-5.358-23.24-2.149
			c-8.326,3.425-2.488,6.809,0.004,7.158C-29.038-202.405-20.771-199.241-20.091-200.116z"/>
		<path fill="#AEB2A3" d="M-475.788-97.24c-0.061,2.254,2.301,5.873,6.053,5.844c3.754,0.029,6.111-3.592,6.055-5.844
			c0.059-2.312-2.301-2.392-6.055-2.421C-473.487-99.632-475.845-99.552-475.788-97.24z"/>
		<path fill="#AEB2A3" d="M-4.358-157.492c2.037,0.828,7.033,0.965,8.77-1.198c1.805-2.135-0.961-4.981-3.053-5.738
			c-2.109-0.854-2.752,0.68-4.559,2.815C-4.938-159.449-6.522-158.278-4.358-157.492z"/>
		<path fill="#AEB2A3" d="M32.896-163.265c2.156,0.858,6.291,1.176,7.533-0.371c1.291-1.526-1.252-3.775-3.447-4.588
			c-2.205-0.878-3.232,0-4.523,1.526C31.216-165.15,30.649-164.097,32.896-163.265z"/>
		<path fill="#AEB2A3" d="M43.634-149.154c2.459-0.295,5.916-1.876,5.398-3.604c-0.459-1.736-4.527-2.332-6.971-1.983
			c-2.516,0.302-2.469,1.424-2.01,3.16C40.569-149.854,41.132-148.799,43.634-149.154z"/>
		<path fill="#AEB2A3" d="M61.271-128.896c2.865,2.605,6.613,3.258,11.854,2.236c3.461-0.675,7.637-0.318,10.924-1.135
			c3.049-0.755,5.342-2.455,7.967-3.738c-5.383,1.135-8.859-0.559-12.09-2.617c-6.139-0.52-12.279-1.038-18.42-1.557
			c0.422,1.179,0.166,2.701,1.398,3.469C65.946-130.35,63.337-129.754,61.271-128.896z"/>
		<path fill="#C6CCB8" d="M61.271-128.896c2.066-0.857,4.676-1.453,1.633-3.342c-1.232-0.768-0.977-2.29-1.398-3.469
			c6.57-1.186,13.117-2.271,18.42,1.557c3.23,2.059,6.707,3.752,12.09,2.617c-4.322-5.62-10.283-7.871-20.826-7.759
			c-4.18,0.044-8.354,0.229-12.531,0.351c2.246,0.203,4.494,0.404,5.211,0.468c-3.643,0.976-8.277,2.218-13.328,3.571
			c2.377,2.023,3.912,3.327,5.441,4.63C57.745-129.813,59.505-129.355,61.271-128.896z"/>
		<path fill="#AEB2A3" d="M55.981-130.272c-1.529-1.303-3.064-2.606-5.441-4.63c5.051-1.354,9.686-2.596,13.328-3.571
			c-0.717-0.063-2.965-0.265-5.211-0.468c-1.297,0.426-2.699,0.773-3.871,1.287C46.917-134.211,47.079-133.311,55.981-130.272z"/>
		<path fill="#97998D" d="M79.925-134.15c-5.303-3.827-11.85-2.742-18.42-1.557C67.646-135.188,73.786-134.67,79.925-134.15z"/>
		<path fill="#ACACAC" d="M-469.735-95.529l6.055-1.711c0,0,0.889-3.16-7.482-2.4C-479.536-98.881-469.735-95.529-469.735-95.529z"
			/>
		<path fill="#97998D" d="M-5.374-158.281c0,0-5.865-4.738,6.732-6.147"/>
		<path fill="#97998D" d="M39.204-166.955c0,0-1.918-4.806-6.283-0.608c-4.365,4.198-1.168,4.138,1.326,2.508
			C36.741-166.684,39.204-166.955,39.204-166.955z"/>
		<path fill="#97998D" d="M-463.136-96.504c0,0-8.117-1.763-9.309,0C-473.636-94.74-463.136-96.504-463.136-96.504z"/>
		<path fill="#97998D" d="M-19.095-199.611c-0.352-1.502-7.281-3.86-5.855-6.533s2.967-5.213,0.754-4.83
			c-2.211,0.383-7.547,1.011-9.113,1.992C-34.876-208.002-19.095-199.611-19.095-199.611z"/>
		<path fill="#C6CCB8" d="M-23.808-200.572c0,0-6.623-11.242-9.502-8.41S-43.171-204.324-23.808-200.572z"/>
		<path fill="#97998D" d="M-49.958-205.636c0,0,5.516-3.847,1.381-5.448c-4.133-1.602-5.363-4.041-6.686-0.972
			s2.947,7.653,4.125,7.036"/>
		<path fill="#97998D" d="M428.062-180.18c0,0-6.645,2.172-7.359,0.495c-0.715-1.679-6.969-4.727-4.336-5.396
			C419.001-185.75,430.374-182.117,428.062-180.18z"/>
		<path fill="#AEB2A3" d="M542.001-200.532c0.061-2.253-2.299-5.873-6.053-5.844c-3.752-0.029-6.109,3.592-6.053,5.844
			c-0.061,2.313,2.299,2.392,6.053,2.421C539.7-198.141,542.058-198.22,542.001-200.532z"/>
		<path fill="#AEB2A3" d="M676.128-215.818c0,0-12.795,2.621-19.795-0.436c-7-3.058-7.668-3.339-6.334-5.93
			c1.334-2.589,5.186-7.291,11-4.838c5.814,2.454,6.463,3.104,7.564,4.838S683.925-221.652,676.128-215.818z"/>
		<path fill="#AEB2A3" d="M416.179-188.886c0,0,12.797-2.621,19.797,0.437c7,3.057,7.666,3.338,6.334,5.929
			c-1.334,2.589-5.186,7.292-11,4.839c-5.816-2.455-6.463-3.105-7.566-4.839C422.642-184.254,408.382-183.051,416.179-188.886z"/>
		<path fill="#AEB2A3" d="M510.558-105.644c2.953,1.112,5.512,0.772,8.178-0.967c1.76-1.147,4.438-1.769,6.029-2.974
			c1.473-1.115,2.049-2.693,3.02-4.066c-2.697,1.84-5.586,1.448-8.5,0.766c-3.932,0.918-7.865,1.836-11.801,2.754
			c0.811,0.681,1.375,1.727,2.479,1.975C512.681-107.548,511.396-106.625,510.558-105.644z"/>
		<path fill="#C6CCB8" d="M510.558-105.644c0.838-0.981,2.123-1.904-0.596-2.513c-1.104-0.248-1.668-1.294-2.479-1.975
			c3.389-2.118,6.809-4.163,11.801-2.754c2.914,0.683,5.803,1.074,8.5-0.766c-5.25-2.779-9.893-3.027-16.176-0.8
			c-2.49,0.884-4.91,1.858-7.361,2.794c1.443-0.33,2.889-0.658,3.35-0.764c-1.727,1.382-3.926,3.139-6.322,5.054
			c2.385,0.833,3.922,1.37,5.457,1.908C508.007-105.521,509.282-105.582,510.558-105.644z"/>
		<path fill="#AEB2A3" d="M506.731-105.458c-1.535-0.538-3.072-1.075-5.457-1.908c2.396-1.915,4.596-3.672,6.322-5.054
			c-0.461,0.105-1.906,0.434-3.35,0.764c-0.58,0.541-1.258,1.055-1.721,1.629C499.425-106.173,499.946-105.619,506.731-105.458z"/>
		<path fill="#97998D" d="M519.284-112.885c-4.992-1.409-8.412,0.636-11.801,2.754C511.419-111.049,515.353-111.967,519.284-112.885
			z"/>
		<path fill="#ACACAC" d="M535.948-202.242l-6.053,1.71c0,0-0.891,3.161,7.482,2.401
			C545.749-198.891,535.948-202.242,535.948-202.242z"/>
		<path fill="#97998D" d="M668.563-222.184c0,0-16.064,2.137-18.564,0c-2.5-2.136-6.521,8.153,7,4.46
			C670.522-221.416,674.808-217.91,668.563-222.184z"/>
		<path fill="#97998D" d="M423.009-183.977c0,0,12.703,0.408,14.598,0c1.893-0.408,1.064,1.789-2.646,2.142
			S423.009-183.977,423.009-183.977z"/>
		<path fill="#97998D" d="M529.349-201.268c0,0,8.117,1.762,9.309,0C539.849-203.031,529.349-201.268,529.349-201.268z"/>
		<path fill="#97998D" d="M499.526-190.331c0,0-7.615-1.395-7.633,1.85c-0.018,3.243-2.529,5.173,2.037,4.454
			c4.568-0.717,8.326-5.505,6.961-5.903"/>
		<polygon fill="#97998D" points="449.505,-211.293 456.315,-213.268 456.315,-209.666 		"/>
		<path fill="#97998D" d="M451.925-219.697l-1.309,3.879c0,0,0.244,3.289,4.813,0.04
			C459.999-219.029,457.101-219.853,451.925-219.697z"/>
		<path fill="#97998D" d="M434.771-152.834c-4.264,0.265-3.15,1.83-2.043,3.279c1.764,2.307,6.645,3.027,10.193,1.57
			C439.841-149.375,435.729-150.124,434.771-152.834z"/>
		<path fill="#AEB2A3" d="M434.771-152.834c0.959,2.71,5.07,3.459,8.15,4.85c-0.67-1.702-0.906-3.553-2.262-5.021
			C440.229-153.472,436.817-152.92,434.771-152.834z"/>
		<path fill="#AEB2A3" d="M516.144-118.863c1.637-0.526,3.273-1.053,4.91-1.58c0.252-0.081,0.504-0.162,0.756-0.244
			c0.049-0.418,0.098-0.838,0.146-1.258c-1.207,0.051-2.414,0.102-3.621,0.152c-0.811,0.596-1.621,1.191-2.43,1.787
			C515.983-119.626,516.063-119.244,516.144-118.863z"/>
		<path fill="#C6CCB8" d="M515.905-120.006c0.809-0.596,1.619-1.191,2.43-1.787c-0.18-0.066-0.357-0.133-0.535-0.202
			c-0.879,0.151-1.758,0.302-2.639,0.452c0.098-0.419,0.195-0.839,0.293-1.258c-0.113-0.154-0.229-0.311-0.342-0.465
			c-3.244,1.553-2.301,2.93-0.146,4.253C515.278-119.345,515.591-119.676,515.905-120.006z"/>
		<path fill="#97998D" d="M503.196-104.941c-0.008-0.173-0.014-0.346-0.02-0.52c-0.541-0.471-1.082-0.939-1.621-1.41
			c-0.119-0.113-0.238-0.227-0.359-0.339c-1.123-0.304-2.248-0.609-3.371-0.913C497.638-105.826,499.364-104.727,503.196-104.941z"
			/>
		<path fill="#97998D" d="M515.905-120.006c-0.314,0.33-0.627,0.661-0.939,0.993c0.393,0.05,0.785,0.099,1.178,0.149
			C516.063-119.244,515.983-119.626,515.905-120.006z"/>
		<path fill="#737373" d="M521.81-120.688c-0.252,0.082-0.504,0.163-0.756,0.244C521.337-120.479,521.589-120.561,521.81-120.688z"
			/>
		<path fill="#AEB2A3" d="M501.556-106.871c0.539,0.471,1.08,0.939,1.621,1.41c0.35-0.351,0.699-0.703,1.049-1.053
			C503.335-106.635,502.444-106.753,501.556-106.871z"/>
		<path fill="#97998D" d="M229.792-81.86c0,0-0.484,5.021-2.979,4.622c-2.492-0.396-9.449,1.83-9.012-0.066
			C218.237-79.2,228.45-84.186,229.792-81.86z"/>
		<path fill="#AEB2A3" d="M222.005-134.875c-0.811-1.557-14.518,4.67-11.434,7.362c3.086,2.113,15.107,5.358,23.242,2.149
			c8.326-3.425,2.488-6.809-0.006-7.157C230.952-132.586,222.683-135.751,222.005-134.875z"/>
		<path fill="#AEB2A3" d="M206.271-177.5c-2.037-0.828-7.031-0.965-8.768,1.198c-1.807,2.136,0.961,4.981,3.051,5.738
			c2.111,0.854,2.752-0.679,4.561-2.815C206.851-175.543,208.437-176.714,206.271-177.5z"/>
		<path fill="#AEB2A3" d="M169.017-171.728c-2.154-0.858-6.291-1.175-7.531,0.372c-1.291,1.525,1.252,3.774,3.445,4.587
			c2.207,0.88,3.234,0.001,4.525-1.526C170.696-169.842,171.265-170.896,169.017-171.728z"/>
		<path fill="#AEB2A3" d="M158.278-185.836c-2.457,0.295-5.914,1.875-5.398,3.604c0.459,1.734,4.529,2.33,6.971,1.982
			c2.518-0.303,2.471-1.425,2.012-3.16C161.345-185.139,160.78-186.193,158.278-185.836z"/>
		<path fill="#AEB2A3" d="M212.851-79.059c0,0,2.928-8.897,10.262-11.564c7.336-2.665,8.023-2.925,10.676-0.861
			c2.652,2.063,6.768,6.66,0.783,8.918c-5.984,2.256-7.133,2.322-9.887,2.127C221.933-80.633,216.478-71.559,212.851-79.059z"/>
		<path fill="#AEB2A3" d="M140.644-206.096c-2.865-2.605-6.613-3.258-11.855-2.234c-3.459,0.674-7.635,0.318-10.924,1.133
			c-3.047,0.755-5.34,2.455-7.965,3.738c5.381-1.133,8.859,0.559,12.09,2.617c6.137,0.52,12.279,1.038,18.418,1.557
			c-0.42-1.178-0.164-2.701-1.398-3.469C135.968-204.641,138.575-205.237,140.644-206.096z"/>
		<path fill="#C6CCB8" d="M140.644-206.096c-2.068,0.858-4.676,1.455-1.635,3.342c1.234,0.768,0.979,2.291,1.398,3.469
			c-6.57,1.187-13.115,2.271-18.418-1.557c-3.23-2.059-6.709-3.75-12.09-2.617c4.322,5.62,10.281,7.871,20.824,7.76
			c4.182-0.043,8.354-0.23,12.531-0.352c-2.244-0.203-4.492-0.402-5.209-0.468c3.643-0.975,8.275-2.216,13.328-3.569
			c-2.379-2.023-3.912-3.328-5.443-4.632C144.169-205.179,142.407-205.637,140.644-206.096z"/>
		<path fill="#AEB2A3" d="M145.931-204.72c1.531,1.304,3.064,2.608,5.443,4.632c-5.053,1.354-9.686,2.595-13.328,3.569
			c0.717,0.065,2.965,0.265,5.209,0.468c1.297-0.426,2.701-0.773,3.873-1.287C154.995-200.781,154.835-201.68,145.931-204.72z"/>
		<path fill="#97998D" d="M121.989-200.842c5.303,3.828,11.848,2.743,18.418,1.557C134.269-199.804,128.126-200.322,121.989-200.842
			z"/>
		<path fill="#97998D" d="M207.286-176.71c0,0,5.867,4.737-6.732,6.146"/>
		<path fill="#97998D" d="M162.71-168.037c0,0,1.918,4.807,6.283,0.608c4.363-4.198,1.166-4.136-1.326-2.508
			C165.173-168.309,162.71-168.037,162.71-168.037z"/>
		<path fill="#97998D" d="M222.466-80.715c0,0,6.75-7.358,7.158-8.686c0.408-1.326,2.807,0.244,1.438,2.625
			C229.69-84.395,222.466-80.715,222.466-80.715z"/>
		<path fill="#97998D" d="M221.009-135.379c0.35,1.5,7.279,3.859,5.854,6.531c-1.424,2.674-2.965,5.214-0.752,4.831
			c2.211-0.383,7.545-1.012,9.111-1.993C236.788-126.99,221.009-135.379,221.009-135.379z"/>
		<path fill="#C6CCB8" d="M225.72-134.42c0,0,6.625,11.243,9.502,8.41C238.101-128.842,245.083-130.668,225.72-134.42z"/>
		<path fill="#97998D" d="M251.87-129.356c0,0-5.514,3.849-1.381,5.448c4.133,1.602,5.363,4.042,6.686,0.972
			c1.324-3.069-2.945-7.651-4.125-7.036"/>
		<polygon fill="#97998D" points="509.595,-97.606 516.405,-99.582 516.405,-95.981 		"/>
		<path fill="#97998D" d="M491.937-50.487l-1.307,3.878c0,0,0.242,3.289,4.813,0.039C500.011-49.819,497.112-50.644,491.937-50.487z
			"/>
		<path fill="#97998D" d="M267.993-72.443c-1.752,2.666,0.791,2.771,3.186,2.822c3.811,0.082,7.123-2.469,7.004-5.294
			C274.896-73.765,271.923-71.686,267.993-72.443z"/>
		<path fill="#AEB2A3" d="M267.993-72.443c3.93,0.758,6.902-1.321,10.189-2.472c-2.504-0.438-4.982-1.204-7.521-1.117
			C269.854-76.004,268.888-73.704,267.993-72.443z"/>
		<path fill="#AEB2A3" d="M358.106-92.85c-0.885,1.078-1.771,2.155-2.656,3.232c-0.137,0.165-0.271,0.332-0.408,0.497
			c0.316,0.361,0.633,0.723,0.949,1.083c0.939-0.52,1.881-1.039,2.82-1.559c0.154-0.806,0.307-1.612,0.461-2.418
			C358.884-92.292,358.495-92.57,358.106-92.85z"/>
		<path fill="#C6CCB8" d="M359.272-92.014c-0.154,0.806-0.307,1.612-0.461,2.418c0.201-0.018,0.404-0.032,0.607-0.047
			c0.588-0.471,1.176-0.943,1.766-1.413c0.277,0.38,0.553,0.76,0.83,1.14c0.225,0.082,0.449,0.162,0.674,0.242
			c1.32-2.549-0.617-3.294-3.496-3.521C359.22-92.8,359.245-92.406,359.272-92.014z"/>
		<path fill="#97998D" d="M362.688-89.674c-0.225-0.08-0.449-0.16-0.674-0.242c-0.865,0.092-1.73,0.183-2.596,0.273
			c-0.203,0.015-0.406,0.029-0.607,0.047c-0.939,0.52-1.881,1.039-2.82,1.559C358.833-86.799,361.083-87.288,362.688-89.674z"/>
		<path fill="#97998D" d="M359.272-92.014c-0.027-0.393-0.053-0.786-0.08-1.181c-0.361,0.116-0.723,0.23-1.086,0.345
			C358.495-92.57,358.884-92.292,359.272-92.014z"/>
		<path fill="#737373" d="M355.042-89.12c0.137-0.165,0.271-0.332,0.408-0.497C355.249-89.477,355.114-89.311,355.042-89.12z"/>
		<path fill="#AEB2A3" d="M359.419-89.643c0.865-0.091,1.73-0.182,2.596-0.273c-0.277-0.38-0.553-0.76-0.83-1.14
			C360.595-90.586,360.007-90.113,359.419-89.643z"/>
		<path fill="#AEB2A3" d="M1421.585-72.729c-0.809-1.556-14.518,4.671-11.432,7.363c3.084,2.112,15.105,5.358,23.24,2.149
			c8.326-3.425,2.488-6.809-0.004-7.158C1430.532-70.439,1422.265-73.604,1421.585-72.729z"/>
		<path fill="#AEB2A3" d="M1405.853-115.353c-2.037-0.828-7.033-0.965-8.77,1.198c-1.805,2.135,0.961,4.981,3.053,5.738
			c2.109,0.854,2.752-0.68,4.559-2.815C1406.433-113.396,1408.017-114.566,1405.853-115.353z"/>
		<path fill="#AEB2A3" d="M1368.599-109.58c-2.156-0.858-6.291-1.176-7.533,0.371c-1.291,1.526,1.252,3.775,3.447,4.588
			c2.205,0.878,3.232,0,4.523-1.526C1370.278-107.694,1370.845-108.748,1368.599-109.58z"/>
		<path fill="#AEB2A3" d="M1357.86-123.69c-2.459,0.295-5.916,1.876-5.398,3.604c0.459,1.736,4.527,2.332,6.971,1.983
			c2.516-0.302,2.469-1.424,2.01-3.16C1360.925-122.991,1360.362-124.046,1357.86-123.69z"/>
		<path fill="#AEB2A3" d="M1340.224-143.948c-2.865-2.605-6.613-3.258-11.854-2.236c-3.461,0.675-7.637,0.318-10.924,1.135
			c-3.049,0.755-5.342,2.455-7.967,3.738c5.383-1.135,8.859,0.559,12.09,2.617c6.139,0.52,12.279,1.038,18.42,1.557
			c-0.422-1.179-0.166-2.701-1.398-3.469C1335.548-142.495,1338.157-143.091,1340.224-143.948z"/>
		<path fill="#C6CCB8" d="M1340.224-143.948c-2.066,0.857-4.676,1.453-1.633,3.342c1.232,0.768,0.977,2.29,1.398,3.469
			c-6.57,1.186-13.117,2.271-18.42-1.557c-3.23-2.059-6.707-3.752-12.09-2.617c4.322,5.62,10.283,7.871,20.826,7.759
			c4.18-0.044,8.354-0.229,12.531-0.351c-2.246-0.203-4.494-0.404-5.211-0.468c3.643-0.976,8.277-2.218,13.328-3.571
			c-2.377-2.023-3.912-3.327-5.441-4.63C1343.749-143.031,1341.989-143.489,1340.224-143.948z"/>
		<path fill="#AEB2A3" d="M1345.513-142.572c1.529,1.303,3.064,2.606,5.441,4.63c-5.051,1.354-9.686,2.596-13.328,3.571
			c0.717,0.063,2.965,0.265,5.211,0.468c1.297-0.426,2.699-0.773,3.871-1.287C1354.577-138.634,1354.415-139.534,1345.513-142.572z"
			/>
		<path fill="#97998D" d="M1321.569-138.694c5.303,3.827,11.85,2.742,18.42,1.557
			C1333.849-137.656,1327.708-138.175,1321.569-138.694z"/>
		<path fill="#97998D" d="M1406.868-114.563c0,0,5.865,4.738-6.732,6.147"/>
		<path fill="#97998D" d="M1362.29-105.89c0,0,1.918,4.806,6.283,0.608c4.365-4.198,1.168-4.138-1.326-2.508
			C1364.753-106.161,1362.29-105.89,1362.29-105.89z"/>
		<path fill="#97998D" d="M1420.589-73.233c0.352,1.502,7.281,3.86,5.855,6.533s-2.967,5.213-0.754,4.83
			c2.211-0.383,7.547-1.011,9.113-1.992C1436.37-64.843,1420.589-73.233,1420.589-73.233z"/>
		<path fill="#C6CCB8" d="M1425.302-72.272c0,0,6.623,11.242,9.502,8.41S1444.665-68.521,1425.302-72.272z"/>
		<path fill="#97998D" d="M1451.452-67.209c0,0-5.516,3.847-1.381,5.448c4.133,1.602,5.363,4.041,6.686,0.972
			s-2.947-7.653-4.125-7.036"/>
		<path fill="#97998D" d="M973.433-92.665c0,0,6.645-2.172,7.359-0.495c0.715,1.679,6.969,4.727,4.336,5.396
			C982.493-87.095,971.12-90.728,973.433-92.665z"/>
		<path fill="#AEB2A3" d="M859.493-72.313c-0.061,2.253,2.299,5.873,6.053,5.844c3.752,0.029,6.109-3.592,6.053-5.844
			c0.061-2.313-2.299-2.392-6.053-2.421C861.794-74.704,859.437-74.625,859.493-72.313z"/>
		<path fill="#AEB2A3" d="M725.366-57.026c0,0,12.795-2.621,19.795,0.436c7,3.058,7.668,3.339,6.334,5.93
			c-1.334,2.589-5.186,7.291-11,4.838c-5.814-2.454-6.463-3.104-7.564-4.838S717.569-51.192,725.366-57.026z"/>
		<path fill="#AEB2A3" d="M985.315-83.959c0,0-12.797,2.621-19.797-0.437c-7-3.057-7.666-3.338-6.334-5.929
			c1.334-2.589,5.186-7.292,11-4.839c5.816,2.455,6.463,3.105,7.566,4.839C978.853-88.591,993.112-89.794,985.315-83.959z"/>
		<path fill="#AEB2A3" d="M890.937-167.201c-2.953-1.112-5.512-0.772-8.178,0.967c-1.76,1.147-4.438,1.769-6.029,2.974
			c-1.473,1.115-2.049,2.693-3.02,4.066c2.697-1.84,5.586-1.448,8.5-0.766c3.932-0.918,7.865-1.836,11.801-2.754
			c-0.811-0.681-1.375-1.727-2.479-1.975C888.813-165.297,890.099-166.22,890.937-167.201z"/>
		<path fill="#C6CCB8" d="M890.937-167.201c-0.838,0.981-2.123,1.904,0.596,2.513c1.104,0.248,1.668,1.294,2.479,1.975
			c-3.389,2.118-6.809,4.163-11.801,2.754c-2.914-0.683-5.803-1.074-8.5,0.766c5.25,2.779,9.893,3.027,16.176,0.8
			c2.49-0.884,4.91-1.858,7.361-2.794c-1.443,0.33-2.889,0.658-3.35,0.764c1.727-1.382,3.926-3.139,6.322-5.054
			c-2.385-0.833-3.922-1.37-5.457-1.908C893.487-167.323,892.212-167.263,890.937-167.201z"/>
		<path fill="#AEB2A3" d="M894.763-167.387c1.535,0.538,3.072,1.075,5.457,1.908c-2.396,1.915-4.596,3.672-6.322,5.054
			c0.461-0.105,1.906-0.434,3.35-0.764c0.58-0.541,1.258-1.055,1.721-1.629C902.069-166.672,901.548-167.226,894.763-167.387z"/>
		<path fill="#97998D" d="M882.21-159.96c4.992,1.409,8.412-0.636,11.801-2.754C890.075-161.796,886.142-160.878,882.21-159.96z"/>
		<path fill="#ACACAC" d="M865.546-70.603l6.053-1.71c0,0,0.891-3.161-7.482-2.401C855.745-73.954,865.546-70.603,865.546-70.603z"
			/>
		<path fill="#97998D" d="M732.931-50.661c0,0,16.064-2.137,18.564,0c2.5,2.136,6.521-8.153-7-4.46
			C730.972-51.429,726.687-54.935,732.931-50.661z"/>
		<path fill="#97998D" d="M978.485-88.868c0,0-12.703-0.408-14.598,0c-1.893,0.408-1.064-1.789,2.646-2.142
			S978.485-88.868,978.485-88.868z"/>
		<path fill="#97998D" d="M872.146-71.577c0,0-8.117-1.762-9.309,0C861.646-69.813,872.146-71.577,872.146-71.577z"/>
		<path fill="#97998D" d="M901.968-82.514c0,0,7.615,1.395,7.633-1.85c0.018-3.243,2.529-5.173-2.037-4.454
			c-4.568,0.717-8.326,5.505-6.961,5.903"/>
		<polygon fill="#97998D" points="951.989,-61.552 945.179,-59.577 945.179,-63.179 		"/>
		<path fill="#97998D" d="M949.569-53.147l1.309-3.879c0,0-0.244-3.289-4.813-0.04C941.495-53.815,944.394-52.992,949.569-53.147z"
			/>
		<path fill="#97998D" d="M966.724-120.011c4.264-0.265,3.15-1.83,2.043-3.279c-1.764-2.307-6.645-3.027-10.193-1.57
			C961.653-123.47,965.765-122.721,966.724-120.011z"/>
		<path fill="#AEB2A3" d="M966.724-120.011c-0.959-2.71-5.07-3.459-8.15-4.85c0.67,1.702,0.906,3.553,2.262,5.021
			C961.265-119.373,964.677-119.925,966.724-120.011z"/>
		<path fill="#AEB2A3" d="M885.351-153.981c-1.637,0.526-3.273,1.053-4.91,1.58c-0.252,0.081-0.504,0.162-0.756,0.244
			c-0.049,0.418-0.098,0.838-0.146,1.258c1.207-0.051,2.414-0.102,3.621-0.152c0.811-0.596,1.621-1.191,2.43-1.787
			C885.511-153.219,885.431-153.601,885.351-153.981z"/>
		<path fill="#C6CCB8" d="M885.589-152.839c-0.809,0.596-1.619,1.191-2.43,1.787c0.18,0.066,0.357,0.133,0.535,0.202
			c0.879-0.151,1.758-0.302,2.639-0.452c-0.098,0.419-0.195,0.839-0.293,1.258c0.113,0.154,0.229,0.311,0.342,0.465
			c3.244-1.553,2.301-2.93,0.146-4.253C886.216-153.5,885.903-153.169,885.589-152.839z"/>
		<path fill="#97998D" d="M898.298-167.903c0.008,0.173,0.014,0.346,0.02,0.52c0.541,0.471,1.082,0.939,1.621,1.41
			c0.119,0.113,0.238,0.227,0.359,0.339c1.123,0.304,2.248,0.609,3.371,0.913C903.856-167.019,902.13-168.118,898.298-167.903z"/>
		<path fill="#97998D" d="M885.589-152.839c0.314-0.33,0.627-0.661,0.939-0.993c-0.393-0.05-0.785-0.099-1.178-0.149
			C885.431-153.601,885.511-153.219,885.589-152.839z"/>
		<path fill="#737373" d="M879.685-152.157c0.252-0.082,0.504-0.163,0.756-0.244C880.157-152.365,879.905-152.284,879.685-152.157z"
			/>
		<path fill="#AEB2A3" d="M899.938-165.974c-0.539-0.471-1.08-0.939-1.621-1.41c-0.35,0.351-0.699,0.703-1.049,1.053
			C898.159-166.21,899.05-166.092,899.938-165.974z"/>
		<path fill="#97998D" d="M1171.702-190.984c0,0,0.484-5.021,2.979-4.622c2.492,0.396,9.449-1.83,9.012,0.066
			C1183.257-193.645,1173.044-188.659,1171.702-190.984z"/>
		<path fill="#AEB2A3" d="M1179.489-137.97c0.811,1.557,14.518-4.67,11.434-7.362c-3.086-2.113-15.107-5.358-23.242-2.149
			c-8.326,3.425-2.488,6.809,0.006,7.157C1170.542-140.259,1178.812-137.094,1179.489-137.97z"/>
		<path fill="#AEB2A3" d="M1195.224-95.345c2.037,0.828,7.031,0.965,8.768-1.198c1.807-2.136-0.961-4.981-3.051-5.738
			c-2.111-0.854-2.752,0.679-4.561,2.815C1194.644-97.302,1193.058-96.131,1195.224-95.345z"/>
		<path fill="#AEB2A3" d="M1232.478-101.117c2.154,0.858,6.291,1.175,7.531-0.372c1.291-1.525-1.252-3.774-3.445-4.587
			c-2.207-0.88-3.234-0.001-4.525,1.526C1230.798-103.003,1230.229-101.949,1232.478-101.117z"/>
		<path fill="#AEB2A3" d="M1243.216-87.009c2.457-0.295,5.914-1.875,5.398-3.604c-0.459-1.734-4.529-2.33-6.971-1.982
			c-2.518,0.303-2.471,1.425-2.012,3.16C1240.149-87.706,1240.714-86.651,1243.216-87.009z"/>
		<path fill="#AEB2A3" d="M1188.644-193.786c0,0-2.928,8.897-10.262,11.564c-7.336,2.665-8.023,2.925-10.676,0.861
			c-2.652-2.063-6.768-6.66-0.783-8.918c5.984-2.256,7.133-2.322,9.887-2.127C1179.562-192.212,1185.017-201.286,1188.644-193.786z"
			/>
		<path fill="#AEB2A3" d="M1260.851-66.749c2.865,2.605,6.613,3.258,11.855,2.234c3.459-0.674,7.635-0.318,10.924-1.133
			c3.047-0.755,5.34-2.455,7.965-3.738c-5.381,1.133-8.859-0.559-12.09-2.617c-6.137-0.52-12.279-1.038-18.418-1.557
			c0.42,1.178,0.164,2.701,1.398,3.469C1265.526-68.204,1262.919-67.607,1260.851-66.749z"/>
		<path fill="#C6CCB8" d="M1260.851-66.749c2.068-0.858,4.676-1.455,1.635-3.342c-1.234-0.768-0.979-2.291-1.398-3.469
			c6.57-1.187,13.115-2.271,18.418,1.557c3.23,2.059,6.709,3.75,12.09,2.617c-4.322-5.62-10.281-7.871-20.824-7.76
			c-4.182,0.043-8.354,0.23-12.531,0.352c2.244,0.203,4.492,0.402,5.209,0.468c-3.643,0.975-8.275,2.216-13.328,3.569
			c2.379,2.023,3.912,3.328,5.443,4.632C1257.325-67.666,1259.087-67.208,1260.851-66.749z"/>
		<path fill="#AEB2A3" d="M1255.563-68.125c-1.531-1.304-3.064-2.608-5.443-4.632c5.053-1.354,9.686-2.595,13.328-3.569
			c-0.717-0.065-2.965-0.265-5.209-0.468c-1.297,0.426-2.701,0.773-3.873,1.287C1246.499-72.063,1246.659-71.165,1255.563-68.125z"
			/>
		<path fill="#97998D" d="M1279.505-72.003c-5.303-3.828-11.848-2.743-18.418-1.557
			C1267.226-73.041,1273.368-72.522,1279.505-72.003z"/>
		<path fill="#97998D" d="M1194.208-96.135c0,0-5.867-4.737,6.732-6.146"/>
		<path fill="#97998D" d="M1238.784-104.808c0,0-1.918-4.807-6.283-0.608c-4.363,4.198-1.166,4.136,1.326,2.508
			C1236.321-104.536,1238.784-104.808,1238.784-104.808z"/>
		<path fill="#97998D" d="M1179.028-192.13c0,0-6.75,7.358-7.158,8.686c-0.408,1.326-2.807-0.244-1.438-2.625
			C1171.804-188.45,1179.028-192.13,1179.028-192.13z"/>
		<path fill="#97998D" d="M1180.485-137.466c-0.35-1.5-7.279-3.859-5.854-6.531c1.424-2.674,2.965-5.214,0.752-4.831
			c-2.211,0.383-7.545,1.012-9.111,1.993C1164.706-145.854,1180.485-137.466,1180.485-137.466z"/>
		<path fill="#C6CCB8" d="M1175.774-138.425c0,0-6.625-11.243-9.502-8.41C1163.394-144.003,1156.411-142.177,1175.774-138.425z"/>
		<path fill="#97998D" d="M1149.624-143.488c0,0,5.514-3.849,1.381-5.448c-4.133-1.602-5.363-4.042-6.686-0.972
			c-1.324,3.069,2.945,7.651,4.125,7.036"/>
		<polygon fill="#97998D" points="891.899,-175.238 885.089,-173.263 885.089,-176.863 		"/>
		<path fill="#97998D" d="M909.558-222.357l1.307-3.878c0,0-0.242-3.289-4.813-0.039
			C901.483-223.025,904.382-222.201,909.558-222.357z"/>
		<path fill="#97998D" d="M1133.501-200.401c1.752-2.666-0.791-2.771-3.186-2.822c-3.811-0.082-7.123,2.469-7.004,5.294
			C1126.599-199.08,1129.571-201.159,1133.501-200.401z"/>
		<path fill="#AEB2A3" d="M1133.501-200.401c-3.93-0.758-6.902,1.321-10.189,2.472c2.504,0.438,4.982,1.204,7.521,1.117
			C1131.64-196.841,1132.606-199.141,1133.501-200.401z"/>
		<path fill="#AEB2A3" d="M1477.47-123.33c2.865,2.605,6.613,3.258,11.854,2.236c3.461-0.676,7.637-0.318,10.924-1.135
			c3.049-0.756,5.342-2.455,7.967-3.738c-5.383,1.135-8.859-0.559-12.09-2.617c-6.139-0.52-12.279-1.039-18.42-1.557
			c0.422,1.178,0.166,2.701,1.398,3.469C1482.146-124.783,1479.536-124.188,1477.47-123.33z"/>
		<path fill="#C6CCB8" d="M1477.47-123.33c2.066-0.857,4.676-1.453,1.633-3.342c-1.232-0.768-0.977-2.291-1.398-3.469
			c6.57-1.186,13.117-2.271,18.42,1.557c3.23,2.059,6.707,3.752,12.09,2.617c-4.322-5.621-10.283-7.871-20.826-7.76
			c-4.18,0.045-8.354,0.23-12.531,0.352c2.246,0.203,4.494,0.404,5.211,0.467c-3.643,0.977-8.277,2.219-13.328,3.572
			c2.377,2.023,3.912,3.326,5.441,4.629C1473.944-124.248,1475.704-123.789,1477.47-123.33z"/>
		<path fill="#AEB2A3" d="M1472.181-124.707c-1.529-1.303-3.064-2.605-5.441-4.629c5.051-1.354,9.686-2.596,13.328-3.572
			c-0.717-0.063-2.965-0.264-5.211-0.467c-1.297,0.426-2.699,0.773-3.871,1.287C1463.116-128.645,1463.278-127.744,1472.181-124.707
			z"/>
		<path fill="#97998D" d="M1496.124-128.584c-5.303-3.828-11.85-2.742-18.42-1.557
			C1483.845-129.623,1489.985-129.104,1496.124-128.584z"/>
		<path fill="#97998D" d="M1645.991-76.295c0,0-0.484,5.021-2.979,4.623c-2.492-0.396-9.449,1.83-9.012-0.066
			C1634.437-73.635,1644.649-78.619,1645.991-76.295z"/>
		<path fill="#AEB2A3" d="M1638.204-129.309c-0.811-1.557-14.518,4.67-11.434,7.361c3.086,2.113,15.107,5.359,23.242,2.15
			c8.326-3.426,2.488-6.809-0.006-7.158C1647.151-127.02,1638.882-130.186,1638.204-129.309z"/>
		<path fill="#AEB2A3" d="M1622.47-171.934c-2.037-0.828-7.031-0.965-8.768,1.197c-1.807,2.137,0.961,4.982,3.051,5.738
			c2.111,0.855,2.752-0.678,4.561-2.814C1623.05-169.977,1624.636-171.148,1622.47-171.934z"/>
		<path fill="#AEB2A3" d="M1585.216-166.162c-2.154-0.857-6.291-1.174-7.531,0.373c-1.291,1.525,1.252,3.773,3.445,4.586
			c2.207,0.881,3.234,0.002,4.525-1.525C1586.896-164.275,1587.464-165.33,1585.216-166.162z"/>
		<path fill="#AEB2A3" d="M1574.478-180.27c-2.457,0.295-5.914,1.875-5.398,3.604c0.459,1.734,4.529,2.33,6.971,1.982
			c2.518-0.303,2.471-1.426,2.012-3.16C1577.544-179.572,1576.979-180.627,1574.478-180.27z"/>
		<path fill="#AEB2A3" d="M1629.05-73.492c0,0,2.928-8.898,10.262-11.564c7.336-2.666,8.023-2.926,10.676-0.861
			c2.652,2.063,6.768,6.66,0.783,8.918c-5.984,2.256-7.133,2.322-9.887,2.127C1638.132-75.066,1632.677-65.992,1629.05-73.492z"/>
		<path fill="#AEB2A3" d="M1556.843-200.529c-2.865-2.605-6.613-3.258-11.855-2.234c-3.459,0.674-7.635,0.318-10.924,1.133
			c-3.047,0.754-5.34,2.455-7.965,3.738c5.381-1.133,8.859,0.559,12.09,2.617c6.137,0.52,12.279,1.037,18.418,1.557
			c-0.42-1.178-0.164-2.701-1.398-3.469C1552.167-199.074,1554.774-199.672,1556.843-200.529z"/>
		<path fill="#C6CCB8" d="M1556.843-200.529c-2.068,0.857-4.676,1.455-1.635,3.342c1.234,0.768,0.979,2.291,1.398,3.469
			c-6.57,1.186-13.115,2.271-18.418-1.557c-3.23-2.059-6.709-3.75-12.09-2.617c4.322,5.619,10.281,7.871,20.824,7.76
			c4.182-0.043,8.354-0.23,12.531-0.352c-2.244-0.203-4.492-0.402-5.209-0.469c3.643-0.975,8.275-2.215,13.328-3.568
			c-2.379-2.023-3.912-3.328-5.443-4.633C1560.368-199.613,1558.606-200.07,1556.843-200.529z"/>
		<path fill="#AEB2A3" d="M1562.13-199.154c1.531,1.305,3.064,2.609,5.443,4.633c-5.053,1.354-9.686,2.594-13.328,3.568
			c0.717,0.066,2.965,0.266,5.209,0.469c1.297-0.426,2.701-0.773,3.873-1.287C1571.194-195.215,1571.034-196.113,1562.13-199.154z"
			/>
		<path fill="#97998D" d="M1538.188-195.275c5.303,3.828,11.848,2.742,18.418,1.557
			C1550.468-194.238,1544.325-194.756,1538.188-195.275z"/>
		<path fill="#97998D" d="M1623.485-171.145c0,0,5.867,4.738-6.732,6.146"/>
		<path fill="#97998D" d="M1578.909-162.471c0,0,1.918,4.807,6.283,0.607c4.363-4.197,1.166-4.135-1.326-2.508
			C1581.372-162.742,1578.909-162.471,1578.909-162.471z"/>
		<path fill="#97998D" d="M1638.665-75.148c0,0,6.75-7.359,7.158-8.686s2.807,0.244,1.438,2.625
			C1645.89-78.828,1638.665-75.148,1638.665-75.148z"/>
		<path fill="#97998D" d="M1637.208-129.813c0.35,1.5,7.279,3.859,5.854,6.531c-1.424,2.674-2.965,5.213-0.752,4.83
			c2.211-0.383,7.545-1.012,9.111-1.992S1637.208-129.813,1637.208-129.813z"/>
		<path fill="#C6CCB8" d="M1641.919-128.854c0,0,6.625,11.242,9.502,8.41C1654.3-123.275,1661.282-125.102,1641.919-128.854z"/>
		<path fill="#97998D" d="M1668.069-123.791c0,0-5.514,3.85-1.381,5.449c4.133,1.602,5.363,4.041,6.686,0.971
			c1.324-3.068-2.945-7.65-4.125-7.035"/>
		<path fill="#97998D" d="M1684.192-66.877c-1.752,2.666,0.791,2.771,3.186,2.822c3.811,0.082,7.123-2.469,7.004-5.295
			C1691.095-68.199,1688.122-66.119,1684.192-66.877z"/>
		<path fill="#AEB2A3" d="M1684.192-66.877c3.93,0.758,6.902-1.322,10.189-2.473c-2.504-0.438-4.982-1.203-7.521-1.117
			C1686.054-70.438,1685.087-68.139,1684.192-66.877z"/>
		<path fill="#AEB2A3" d="M1043.388-179.995c0.885-1.078,1.771-2.155,2.656-3.232c0.137-0.165,0.271-0.332,0.408-0.497
			c-0.316-0.361-0.633-0.723-0.949-1.083c-0.939,0.52-1.881,1.039-2.82,1.559c-0.154,0.806-0.307,1.612-0.461,2.418
			C1042.61-180.553,1042.999-180.274,1043.388-179.995z"/>
		<path fill="#C6CCB8" d="M1042.222-180.831c0.154-0.806,0.307-1.612,0.461-2.418c-0.201,0.018-0.404,0.032-0.607,0.047
			c-0.588,0.471-1.176,0.943-1.766,1.413c-0.277-0.38-0.553-0.76-0.83-1.14c-0.225-0.082-0.449-0.162-0.674-0.242
			c-1.32,2.549,0.617,3.294,3.496,3.521C1042.274-180.045,1042.249-180.438,1042.222-180.831z"/>
		<path fill="#97998D" d="M1038.806-183.171c0.225,0.08,0.449,0.16,0.674,0.242c0.865-0.092,1.73-0.183,2.596-0.273
			c0.203-0.015,0.406-0.029,0.607-0.047c0.939-0.52,1.881-1.039,2.82-1.559C1042.661-186.046,1040.411-185.557,1038.806-183.171z"/>
		<path fill="#97998D" d="M1042.222-180.831c0.027,0.393,0.053,0.786,0.08,1.181c0.361-0.116,0.723-0.23,1.086-0.345
			C1042.999-180.274,1042.61-180.553,1042.222-180.831z"/>
		<path fill="#737373" d="M1046.452-183.725c-0.137,0.165-0.271,0.332-0.408,0.497
			C1046.245-183.368,1046.38-183.534,1046.452-183.725z"/>
		<path fill="#AEB2A3" d="M1042.075-183.202c-0.865,0.091-1.73,0.182-2.596,0.273c0.277,0.38,0.553,0.76,0.83,1.14
			C1040.899-182.259,1041.487-182.731,1042.075-183.202z"/>
	</g>
	<g id="Layer_2_2_" opacity="0.2">
		<g>
			<polygon fill="none" stroke="#97998D" stroke-miterlimit="10" points="-889.825,-123.78 -888.847,-123.994 -890.8,-132.905 
				-891.78,-132.69 			"/>
			<polygon fill="none" stroke="#97998D" stroke-miterlimit="10" points="-887.823,-124.008 -886.845,-124.222 -888.799,-133.13 
				-889.778,-132.916 			"/>
			<polygon fill="none" stroke="#97998D" stroke-miterlimit="10" points="-886.673,-125.317 -885.692,-125.532 -887.646,-134.443 
				-888.627,-134.229 			"/>
			<path fill="none" stroke="#97998D" stroke-miterlimit="10" d="M-881.042-120.93c0,0-6.947-7.814-6.85-18.131"/>
			<path fill="none" stroke="#97998D" stroke-miterlimit="10" d="M-876.765-118.048c0,0-8.074-9.085-7.963-21.071"/>
			<path fill="none" stroke="#97998D" stroke-miterlimit="10" d="M-872.413-118.152c0,0-9.506-10.693-9.374-24.808"/>
			<path fill="none" stroke="#97998D" stroke-miterlimit="10" d="M-882.22-159.688c0,0,6.342,8.764,5.184,19.326"/>
			<path fill="none" stroke="#97998D" stroke-miterlimit="10" d="M-879.976-160.752c0,0,6.648,9.195,5.435,20.273"/>
			<path fill="none" stroke="#97998D" stroke-miterlimit="10" d="M-876.839-161.121c0,0,6.654,9.196,5.439,20.271"/>
			<path fill="none" stroke="#97998D" stroke-miterlimit="10" d="M-873.983-161.215c0,0,8.811,12.18,7.201,26.855"/>
			<path fill="none" stroke="#97998D" stroke-miterlimit="10" d="M-871.197-161.551c0,0,8.812,12.181,7.202,26.857"/>
			<path fill="none" stroke="#97998D" stroke-miterlimit="10" d="M-868.575-162.23c0,0,8.811,12.181,7.204,26.855"/>
			<path fill="none" stroke="#97998D" stroke-miterlimit="10" d="M-864.616-160.157c0,0,7.51,10.38,6.139,22.888"/>
			<path fill="none" stroke="#97998D" stroke-miterlimit="10" d="M-861.263-160.814c0,0,7.13,10.66,5.301,23.097"/>
			<path fill="none" stroke="#97998D" stroke-miterlimit="10" d="M-857.624-159.939c0,0,5.833,9.645,3.736,20.467"/>
			<path fill="none" stroke="#97998D" stroke-miterlimit="10" d="M-854.402-158.358c0,0,5.613,9.778,3.268,20.543"/>
			<path fill="none" stroke="#97998D" stroke-miterlimit="10" d="M-851.745-157.539c0,0,5.613,9.78,3.268,20.546"/>
			<path fill="none" stroke="#97998D" stroke-miterlimit="10" d="M-848.64-156.707c0,0,5.369,9.358,3.127,19.66"/>
			<path fill="none" stroke="#97998D" stroke-miterlimit="10" d="M-845.491-155.116c0,0,4.381,7.636,2.549,16.042"/>
			<path fill="none" stroke="#97998D" stroke-miterlimit="10" d="M-842.341-153.435c0,0,3.629,6.323,2.113,13.287"/>
			<path fill="none" stroke="#97998D" stroke-miterlimit="10" d="M-838.616-151.108c0,0,2.727,4.744,1.586,9.971"/>
			<path fill="none" stroke="#97998D" stroke-miterlimit="10" d="M-874.284-124.748l3.103,1.974c0,0,0.247,2.066,0.661,2.083
				c0.415,0.015,1.047,0.09,1.371-0.301s0.023-2.232,0.023-2.232l-1.564-1.038l-1.422-1.814"/>
			<path fill="none" stroke="#97998D" stroke-miterlimit="10" d="M-871.319-126.671l3.594,1.864l0.571,1.682l1.945-0.96
				c0,0-0.433-1.497-0.768-1.634c-0.341-0.139-5.595-1.639-5.595-1.639"/>
			<polyline fill="none" stroke="#97998D" stroke-miterlimit="10" points="-871.095,-127.992 -865.53,-126.029 -864.679,-124.942 
				-863.31,-125.243 -863.604,-126.134 -870.641,-128.729 			"/>
			<path fill="none" stroke="#97998D" stroke-miterlimit="10" d="M-869.626-129.483c0,0,7.296,2.378,7.436,2.56
				c0.146,0.181,1.287,1.417,1.287,1.417s0.592-0.342,0.697-0.579c0.101-0.234-0.709-1.117-0.742-1.268
				c-0.033-0.153-8.059-2.582-8.059-2.582"/>
			<polyline fill="none" stroke="#97998D" stroke-miterlimit="10" points="-866.303,-130.307 -860.742,-128.344 -859.888,-127.254 
				-858.516,-127.556 -858.813,-128.446 -865.849,-131.041 			"/>
			<polyline fill="none" stroke="#97998D" stroke-miterlimit="10" points="-864.06,-130.955 -858.497,-128.993 -857.642,-127.908 
				-856.272,-128.207 -856.57,-129.098 -863.605,-131.693 			"/>
			<polyline fill="none" stroke="#97998D" stroke-miterlimit="10" points="-861.195,-131.583 -855.635,-129.621 -854.781,-128.534 
				-853.41,-128.836 -853.708,-129.725 -860.741,-132.321 			"/>
			<polyline fill="none" stroke="#97998D" stroke-miterlimit="10" points="-858.352,-133.006 -852.791,-131.041 -851.937,-129.954 
				-850.566,-130.255 -850.864,-131.145 -857.899,-133.74 			"/>
			<polyline fill="none" stroke="#97998D" stroke-miterlimit="10" points="-856.462,-134.215 -850.897,-132.254 -850.046,-131.167 
				-848.673,-131.468 -848.97,-132.356 -856.007,-134.953 			"/>
			<polyline fill="none" stroke="#97998D" stroke-miterlimit="10" points="-854.523,-135.915 -848.962,-133.952 -848.11,-132.865 
				-846.737,-133.166 -847.036,-134.054 -854.07,-136.651 			"/>
			<polyline fill="none" stroke="#97998D" stroke-miterlimit="10" points="-852.229,-137.372 -846.665,-135.409 -845.81,-134.323 
				-844.44,-134.624 -844.735,-135.514 -851.772,-138.108 			"/>
			<polyline fill="none" stroke="#97998D" stroke-miterlimit="10" points="-850.1,-138.558 -844.538,-136.593 -843.687,-135.506 
				-842.313,-135.807 -842.612,-136.697 -849.648,-139.294 			"/>
			<polyline fill="none" stroke="#97998D" stroke-miterlimit="10" points="-847.45,-139.453 -841.888,-137.494 -841.036,-136.406 
				-839.665,-136.707 -839.962,-137.596 -846.995,-140.189 			"/>
			<polyline fill="none" stroke="#97998D" stroke-miterlimit="10" points="-844.563,-140.329 -839.001,-138.361 -838.149,-137.277 
				-836.776,-137.578 -837.075,-138.469 -844.111,-141.063 			"/>
			<polyline fill="none" stroke="#97998D" stroke-miterlimit="10" points="-841.98,-141.53 -836.417,-139.566 -835.564,-138.479 
				-834.19,-138.781 -834.491,-139.672 -841.526,-142.27 			"/>
			<polyline fill="none" stroke="#97998D" stroke-miterlimit="10" points="-839.798,-142.805 -834.235,-140.843 -833.382,-139.756 
				-832.009,-140.057 -832.308,-140.945 -839.342,-143.541 			"/>
			<polyline fill="none" stroke="#97998D" stroke-miterlimit="10" points="-837.515,-143.626 -831.952,-141.661 -831.097,-140.575 
				-829.726,-140.875 -830.025,-141.766 -837.062,-144.36 			"/>
			<polyline fill="none" stroke="#97998D" stroke-miterlimit="10" points="-835.519,-144.699 -829.957,-142.734 -829.103,-141.648 
				-827.731,-141.949 -828.028,-142.838 -835.063,-145.436 			"/>
			<polyline fill="none" stroke="#97998D" stroke-miterlimit="10" points="-833.064,-146.47 -827.824,-143.702 -827.128,-142.503 
				-825.728,-142.596 -825.899,-143.521 -832.509,-147.129 			"/>
			<path id="skeleton_2_" fill="none" stroke="#97998D" stroke-miterlimit="10" d="M-911.589-200.964
				c0.653,0.078,7.387,1.679,7.387,1.679s2.364,14.66,4.909,18.498c2.544,3.844,9.192,11.842,9.21,10.959
				c0.02-0.885,0.816,11.477,0.816,11.477l1.917,4.86c0,0,2.66-11.144,2.478-11.979c-0.186-0.841-1.566-7.137-1.566-7.137
				s3.154-22.466,0.275-24.914c-2.876-2.449-4.572-3.394-4.572-3.394s1.912-1.96,3.285-2.479c1.372-0.522,5.619-0.573,6.079,1.523
				c0.46,2.1,0.823,8.618,0.823,8.618l-1.68,7.845c0,0,6.322,16.21,5.084,17.36c-1.236,1.154-3.414,3.828-3.414,3.828
				s-4.303,7.542-3.105,12.999c1.196,5.455,1.636,8.438,4.818,8.4c3.183-0.036,9.042-2.424,9.725-1.255
				c0.684,1.171,1.676,7.64,1.676,7.64s27.478-8.534,31.537-9.426c4.061-0.891,7.777-2.366,7.777-2.366s0.028-3.744-2.192-6.115
				c-2.222-2.375-5.569-4.06-5.032-5.496c0.533-1.438,3.719-0.595,5.32-0.945c1.603-0.351,2.707-1.034,0.729-4.338
				c-1.979-3.308-19.727-16.35-19.727-16.35s-2.201-17.773-6.732-22.938c-4.539-5.164-6.641-6.021-6.641-6.021l9.943-2.181
				l0.213,1.929l2.543,3.841l-1.365,2.501l2.552,10.658c0,0,2.294,3.675,5.108,6.796c2.812,3.124,13.003,16.726,13.003,16.726
				s6.495-0.852,3.254-10.014c-3.241-9.164-4.753-10.423-4.753-10.423s7.665-11.396,5.339-17.096
				c-2.329-5.699-5.942-9.526-5.205-9.688c0.733-0.161,10.978,3.006,10.978,3.006l0.019,4.295l-1.894,1.209l0.4,1.825
				c0,0-2.063,14.464-2.877,14.964c-0.813,0.494,1.207,3.395,1.207,3.395l0.912,18.909l2.352-0.516l3.834,5.529l-1.959,0.909
				l0.056,2.377l-1.374,2.849l-1.109,0.562l-0.143,1.466l-1.607,1.785l0.815,3.007c0,0,5.339-0.216,6.81-4.041
				c1.471-3.828,1.318-8.732,0-15.449c-1.32-6.715-3.405-20.434-2.541-21.417c0.861-0.986,0.965,0.902,0.965,0.902
				s1.497,13.843,3.08,20.345c1.578,6.5,2.934,13.373,0.53,17.878c-2.398,4.509-3.478,3.79-5.104,6.216
				c-1.624,2.426-2.479,4.844-4.376,4.622c-1.894-0.221-4.253-1.134-4.253-1.134s-37.7,15.594-41.007,14.566
				c-3.305-1.025-3.141,6.741-6.64,6.234s-3.905-7.267-6.221-6.596c-2.317,0.666-9.979,5.055-9.979,5.055l1.513,6.195l5.903-2.567
				l1.676,2.021l-2.903,0.798l-0.289,1.494l1.276,0.201l1.107,2.94c0,0-3.867-2.178-5.057-1.282
				c-1.189,0.897-2.578,7.894-5.156,8.778c-2.577,0.883-7.313-1.742-9.262-2.904c-1.949-1.166-3.52-1.3-4.988-0.978
				c-1.467,0.321-2.757,0.763-3.057-0.603c-0.3-1.368-0.518-3.069-1.286-3.063c-0.767,0.01-1.558-0.771-1.167-1.812
				c0.387-1.04-0.207-2.345-0.994-3.126c-0.789-0.784-2.203-3.021-2.223-3.815c-0.02-0.79-1.92-5.946-1.92-5.946
				s-3.845-4.89-6.924-6.285c-3.079-1.393-6.174-3.581-10.879-2.549c-4.701,1.031-12.342,2.707-14.963,9.016
				c-2.62,6.309-2.555,10.115-1.821,13.459s4.364,7.963,6.146,8.364c1.784,0.407,6.025,2.185,8.342,1.514
				c2.318-0.667,6.139-1.505,8.305-3.572c2.162-2.067,3.287-3.271,4.811-6.152c1.521-2.882,2.531-3.898,2.531-3.898l-3.391,9.82
				c0,0-3.941,3.093-6.893,4.379c-2.951,1.284-8.209,2.596-10.385,1.801c-2.179-0.798-7.596-2.318-9.203-4.035
				c-1.608-1.716-4.164-7.05-3.746-12.872c0.415-5.826,2.436-14.867,6.25-17.137s14.802-4.841,14.802-4.841l3.613,0.321l4.735-0.88
				l10.479,2.16l6.41,4.644c0,0,0.869-3.058,4.201-3.312c3.336-0.251,6.031,0.113,6.031,0.113l2.247,9.54l1.919,1.012l9.238-6.326
				l3.74-0.501l-8.199-6.484l-1.332-9.579l-0.886-4.742l-0.566-6.086l-5.288-5.848c0,0-0.989-10.133-3.882-13.482
				c-2.89-3.348-4.616-9.817-4.616-9.817L-911.589-200.964z"/>
			<path id="RTspike_2_" fill="none" stroke="#97998D" stroke-miterlimit="10" d="M-929.802-137.783c0,0-3.416,0.91-4.496,2.659
				s-1.59,4.326-0.146,5.998c1.443,1.673,2.266,2.606,4.391,3.176c2.125,0.568,2.594,0.943,5.254,0.44
				c2.66-0.504,7.832-1.48,7.832-1.48l0.477,0.773l-11.451,3.228c0,0-3.805,0.2-6.805-2.248c-2.998-2.445-5.098-4.294-4.285-7.256
				s1.863-5.184,1.863-5.184"/>
		</g>
	</g>
</symbol>
<rect x="-0.759" fill="#87D2DC" width="500" height="189.857"/>
<rect x="-1.518" y="189.857" fill="#9FD9E2" width="500" height="150"/>
<rect x="-1.518" y="339.857" fill="#C5E7EC" width="500" height="150"/>
<g>
	<rect x="494.863" y="-0.594" fill="#87D2DC" width="3499.686" height="189.857"/>
	<rect x="494.863" y="189.264" fill="#9FD9E2" width="3499.686" height="150"/>
	<rect x="494.863" y="339.264" fill="#C5E7EC" width="3499.686" height="150"/>
	<rect x="494.863" y="489.264" fill="#DCF1F6" width="3499.686" height="150"/>
</g>
<g id="suns_3_" opacity="0.2">
	<radialGradient id="SVGID_1_" cx="3119.1523" cy="269.8032" r="88.9758" gradientUnits="userSpaceOnUse">
		<stop  offset="0.551" style="stop-color:#FFDD15"/>
		<stop  offset="1" style="stop-color:#CCBA17;stop-opacity:0"/>
	</radialGradient>
	<path fill="url(#SVGID_1_)" stroke="#EAD57D" stroke-miterlimit="10" d="M3119.153,180.827c49.138,0,88.975,39.837,88.975,88.975
		c0,49.144-39.837,88.978-88.975,88.978c-49.141,0-88.978-39.834-88.978-88.978C3030.176,220.664,3070.013,180.827,3119.153,180.827
		z"/>
</g>
<g id="suns_1_">
	<circle fill="#FFDD15" stroke="#EAD57D" stroke-miterlimit="10" cx="3119.152" cy="269.803" r="26.309"/>
</g>
<use xlink:href="#groundsmall"  width="500" height="262.495" id="XMLID_13_" x="-250" y="-131.247" transform="matrix(1 0 0 -1 250 968.793)" overflow="visible"/>
<use xlink:href="#large_ground"  width="3498.686" height="460.183" id="XMLID_14_" x="-1747.845" y="-230.091" transform="matrix(1 0 0 -1 2245.1973 869.9199)" overflow="visible"/>
<rect y="639.857" fill="#8AC465" width="498.482" height="197.688"/>
<g>
	<g>
		<polygon fill="#E2E7EA" points="3354.348,644.536 3348.369,644.536 3348.369,542.206 3351.357,542.206 		"/>
		<polygon fill="#8FAAB7" points="3346.733,542.206 3344.551,644.536 3348.369,644.536 3348.369,542.206 		"/>
	</g>
	<g>
		<g>
			<path fill="#8FAAB7" d="M3350.575,541.808c-0.835,1.444,6.954,7.512,17.401,13.556c10.449,6.032,19.589,9.76,20.428,8.305
				L3350.575,541.808z"/>
			<path fill="#E2E7EA" d="M3350.432,542.062c0.834-1.456,9.983,2.271,20.424,8.313c10.441,6.043,18.236,12.103,17.403,13.549
				L3350.432,542.062z"/>
		</g>
		<g>
			<path fill="#8FAAB7" d="M3346.805,541.58c-0.436-1.608-10.23-0.392-21.889,2.717c-11.658,3.123-20.754,6.959-20.325,8.566
				L3346.805,541.58z"/>
			<path fill="#E2E7EA" d="M3346.733,541.299c0.427,1.615-8.67,5.449-20.329,8.569c-11.656,3.115-21.451,4.333-21.889,2.714
				L3346.733,541.299z"/>
		</g>
		<g>
			<path fill="#8FAAB7" d="M3349.512,539.434c-1.608-0.425-0.391-10.23,2.729-21.888c3.104-11.648,6.941-20.755,8.557-20.318
				L3349.512,539.434z"/>
			<path fill="#E2E7EA" d="M3349.241,539.362c1.608,0.427,5.442-8.67,8.558-20.325c3.116-11.65,4.334-21.453,2.726-21.882
				L3349.241,539.362z"/>
		</g>
		<g>
			<path fill="#E2E7EA" d="M3344.352,540.869c0,2.391,1.945,4.334,4.333,4.334c2.392,0,4.337-1.943,4.337-4.334
				c0-2.398-1.945-4.331-4.337-4.331C3346.297,536.538,3344.352,538.471,3344.352,540.869z"/>
			<path fill="#8FAAB7" d="M3345.734,540.869c0,1.628,1.326,2.944,2.95,2.944c1.628,0,2.954-1.316,2.954-2.944
				c0-1.625-1.326-2.954-2.954-2.954C3347.061,537.915,3345.734,539.244,3345.734,540.869z"/>
		</g>
	</g>
	<g>
		<polygon fill="#E2E7EA" points="3511.945,638.714 3506.9,638.714 3506.9,552.565 3509.419,552.565 		"/>
		<polygon fill="#8FAAB7" points="3505.527,552.565 3503.695,638.714 3506.9,638.714 3506.9,552.565 		"/>
	</g>
	<g>
		<g>
			<path fill="#8FAAB7" d="M3509.01,551.317c0.245,1.384,8.551,1.082,18.554-0.672c10.004-1.752,17.909-4.298,17.674-5.688
				L3509.01,551.317z"/>
			<path fill="#E2E7EA" d="M3509.056,551.563c-0.245-1.388,7.666-3.931,17.663-5.687c10.015-1.764,18.318-2.064,18.555-0.674
				L3509.056,551.563z"/>
		</g>
		<g>
			<path fill="#8FAAB7" d="M3506.457,553.216c-1.146-0.816-6.816,5.272-12.649,13.586c-5.823,8.314-9.613,15.712-8.469,16.518
				L3506.457,553.216z"/>
			<path fill="#E2E7EA" d="M3506.255,553.071c1.146,0.802-2.644,8.195-8.468,16.52c-5.833,8.306-11.502,14.392-12.647,13.595
				L3506.255,553.071z"/>
		</g>
		<g>
			<path fill="#8FAAB7" d="M3507.047,550.364c-1.28,0.59-5.787-6.388-10.087-15.593c-4.298-9.194-6.741-17.137-5.461-17.735
				L3507.047,550.364z"/>
			<path fill="#E2E7EA" d="M3506.818,550.465c1.283-0.592-1.172-8.532-5.469-17.748c-4.289-9.192-8.806-16.173-10.076-15.571
				L3506.818,550.465z"/>
		</g>
		<g>
			<path fill="#E2E7EA" d="M3504.492,554.072c1.291,1.545,3.602,1.752,5.145,0.454c1.545-1.292,1.745-3.6,0.445-5.145
				c-1.302-1.545-3.598-1.744-5.135-0.443C3503.401,550.235,3503.195,552.527,3504.492,554.072z"/>
			<path fill="#8FAAB7" d="M3505.383,553.325c0.884,1.055,2.455,1.191,3.498,0.311c1.047-0.882,1.193-2.454,0.301-3.498
				c-0.871-1.046-2.434-1.191-3.488-0.31C3504.638,550.708,3504.504,552.272,3505.383,553.325z"/>
		</g>
	</g>
	<g>
		<polygon fill="#E2E7EA" points="3439.289,651.349 3432.209,651.349 3432.209,530.458 3435.748,530.458 		"/>
		<polygon fill="#8FAAB7" points="3430.273,530.458 3427.711,651.349 3432.209,651.349 3432.209,530.458 		"/>
	</g>
</g>
</svg>
