<?xml version="1.0" encoding="utf-8"?>
<!-- Generator: Adobe Illustrator 15.0.0, SVG Export Plug-In . SVG Version: 6.00 Build 0)  -->
<!DOCTYPE svg PUBLIC "-//W3C//DTD SVG 1.1//EN" "http://www.w3.org/Graphics/SVG/1.1/DTD/svg11.dtd">
<svg version="1.1" id="Слой_1" xmlns="http://www.w3.org/2000/svg" xmlns:xlink="http://www.w3.org/1999/xlink" x="0px" y="0px"
	 width="34px" height="10px" viewBox="0 0 34 10" enable-background="new 0 0 34 10" xml:space="preserve">
<g>
	<path fill="#433F31" d="M13.751,7.739c0.04,0.116,0.071,0.206,0.104,0.306c-0.024,0.001-0.055,0.002-0.105,0.004
		c0.027,0.068,0.055,0.131,0.077,0.193c0.009,0.025,0.021,0.071,0.011,0.08c-0.066,0.052-0.033,0.106-0.019,0.164
		c0.017,0.062,0.03,0.124,0.037,0.188c0.021,0.208-0.073,0.331-0.277,0.359c-0.536,0.074-1.073,0.154-1.612,0.213
		c-0.222,0.024-0.45,0.011-0.674-0.004c-0.147-0.011-0.159-0.055-0.117-0.195c0.066-0.225,0.229-0.338,0.438-0.406
		c0.159-0.053,0.318-0.106,0.475-0.169c0.168-0.064,0.189-0.184,0.063-0.305c-0.038-0.038-0.08-0.072-0.115-0.112
		c-0.033-0.036-0.059-0.077-0.093-0.123c-0.009,0.009-0.021,0.023-0.038,0.043c-0.014-0.037-0.025-0.071-0.041-0.116
		c-0.027,0.029-0.047,0.052-0.078,0.085c-0.057-0.076-0.109-0.148-0.178-0.242c-0.015,0.033-0.027,0.066-0.047,0.107
		c-0.025-0.046-0.042-0.078-0.064-0.121c-0.019,0.026-0.032,0.047-0.06,0.088c-0.048-0.15-0.091-0.285-0.134-0.424
		c-0.019,0.007-0.045,0.018-0.076,0.029c-0.086-0.306-0.221-0.592-0.19-0.94c-0.052,0.05-0.089,0.085-0.134,0.127
		c-0.006-0.058-0.012-0.114-0.02-0.193c-0.037,0.069-0.063,0.117-0.096,0.183c-0.032-0.062-0.054-0.105-0.083-0.163
		c-0.05,0.032-0.099,0.063-0.162,0.103c-0.034-0.066-0.071-0.139-0.119-0.231c-0.027,0.073-0.047,0.127-0.069,0.189
		c-0.037-0.034-0.07-0.066-0.107-0.104c-0.021,0.019-0.042,0.038-0.074,0.067c-0.051-0.078-0.098-0.15-0.148-0.227
		C10.008,6.226,9.992,6.26,9.973,6.306C9.949,6.254,9.93,6.211,9.905,6.16C9.875,6.202,9.85,6.236,9.816,6.279
		C9.786,6.24,9.76,6.204,9.729,6.164C9.621,6.247,9.638,6.371,9.615,6.482C9.606,6.525,9.584,6.564,9.566,6.606
		c-0.009,0.024-0.027,0.046-0.03,0.071C9.504,6.94,9.475,7.201,9.441,7.464C9.427,7.581,9.433,7.713,9.38,7.813
		C9.338,7.896,9.354,7.962,9.353,8.037c-0.001,0.03-0.021,0.062-0.039,0.089C9.236,8.242,9.151,8.352,9.139,8.5
		C9.133,8.554,9.096,8.604,9.076,8.656C9.062,8.695,9.043,8.738,9.042,8.779C9.035,8.992,9.029,9.204,9.029,9.415
		c-0.002,0.17-0.071,0.278-0.233,0.304C8.424,9.78,8.049,9.833,7.675,9.88c-0.246,0.032-0.494,0.06-0.743,0.075
		C6.796,9.962,6.654,9.948,6.563,9.817C6.549,9.8,6.508,9.796,6.48,9.797C6.248,9.809,6.016,9.828,5.784,9.834
		C5.631,9.84,5.479,9.831,5.318,9.828c0.005-0.178,0.057-0.307,0.168-0.41C5.661,9.257,5.88,9.191,6.103,9.133
		C6.151,9.12,6.201,9.109,6.25,9.1c0.188-0.037,0.268-0.215,0.164-0.374C6.403,8.709,6.357,8.714,6.318,8.708
		C6.313,8.65,6.305,8.58,6.296,8.5C6.26,8.514,6.23,8.524,6.182,8.545C6.179,8.398,6.176,8.262,6.174,8.106
		C6.141,8.139,6.118,8.16,6.096,8.183c-0.01-0.003-0.02-0.004-0.028-0.006C6.075,8.02,6.084,7.861,6.094,7.697
		c-0.019,0.01-0.038,0.021-0.072,0.038C6.008,7.609,5.996,7.491,5.982,7.369C5.961,7.383,5.943,7.396,5.919,7.413
		C5.939,7.238,5.961,7.07,5.981,6.901C5.974,6.898,5.967,6.893,5.959,6.889C5.927,6.943,5.895,6.996,5.863,7.05
		c-0.01-0.005-0.02-0.011-0.029-0.017c0.014-0.15,0.032-0.301,0.037-0.453c0.004-0.096-0.01-0.193-0.021-0.29
		C5.838,6.195,5.788,6.129,5.687,6.109C5.657,6.105,5.63,6.09,5.601,6.083C5.41,6.03,5.257,5.947,5.217,5.726
		C5.203,5.644,5.141,5.569,5.098,5.494C4.95,5.233,4.682,5.187,4.426,5.141C4.359,5.13,4.275,5.197,4.225,5.147
		c-0.081,0.016-0.15,0.012-0.195,0.044C3.942,5.254,3.92,5.139,3.848,5.15C3.83,5.176,3.806,5.21,3.781,5.246
		C3.7,5.199,3.621,5.153,3.529,5.101C3.521,5.143,3.516,5.166,3.508,5.205C3.44,5.174,3.365,5.154,3.311,5.111
		C3.069,4.919,2.796,4.938,2.52,4.981C2.498,4.984,2.482,5.021,2.461,5.046C2.439,5.021,2.414,4.99,2.389,4.961
		c-0.16,0.182-0.16,0.182-0.268,0.053C2.1,5.038,2.079,5.061,2.053,5.09C2.046,5.084,2.031,5.063,2.025,5.065
		C1.921,5.108,1.879,5.01,1.814,4.969c-0.151-0.09-0.301-0.166-0.49-0.152C1.168,4.828,1.008,4.809,0.852,4.793
		C0.795,4.787,0.734,4.761,0.685,4.73c-0.112-0.069-0.11-0.115,0-0.191c0.024-0.017,0.051-0.032,0.087-0.053
		C0.684,4.472,0.607,4.462,0.533,4.447C0.318,4.4,0.281,4.337,0.338,4.159C0.256,4.072,0.17,4,0.11,3.911
		C0.047,3.818,0.07,3.77,0.17,3.719c0.082-0.04,0.17-0.068,0.246-0.117c0.209-0.128,0.416-0.26,0.616-0.398
		C1.074,3.173,1.112,3.1,1.109,3.05c-0.014-0.194,0.084-0.32,0.23-0.419c0.158-0.107,0.32-0.212,0.48-0.316
		c0.151-0.096,0.278-0.201,0.304-0.4C2.135,1.83,2.19,1.746,2.24,1.671c0.093-0.143,0.232-0.193,0.395-0.149
		c0.09,0.025,0.176,0.067,0.256,0.115C2.965,1.681,3.033,1.69,3.109,1.655c0.173-0.077,0.348-0.124,0.539-0.07
		c0.034,0.01,0.081-0.004,0.117-0.021c0.354-0.159,0.721-0.244,1.111-0.26C5.258,1.289,5.6,1.148,5.872,0.873
		c0.335-0.338,0.753-0.47,1.212-0.498c0.337-0.021,0.662,0.035,0.98,0.149c0.514,0.187,1.042,0.237,1.578,0.108
		c0.334-0.079,0.663-0.176,0.998-0.255c0.881-0.207,1.766-0.256,2.64,0.031c0.251,0.083,0.484,0.214,0.726,0.325
		c0.023,0.013,0.046,0.03,0.063,0.05c0.371,0.39,0.761,0.766,1.106,1.176c0.314,0.373,0.567,0.794,0.58,1.305
		c0.004,0.156-0.047,0.315-0.071,0.475c-0.009,0.058-0.023,0.117-0.021,0.175c0.018,0.246,0.076,0.492,0.052,0.732
		c-0.026,0.251-0.06,0.498-0.053,0.752c0.001,0.017-0.003,0.034-0.011,0.048c-0.158,0.285-0.123,0.592-0.086,0.893
		c0.009,0.084,0.092,0.167,0.158,0.234c0.049,0.052,0.078,0.097,0.1,0.165c0.025,0.08,0.079,0.16,0.141,0.22
		c0.146,0.134,0.314,0.247,0.453,0.39c0.055,0.056,0.092,0.171,0.076,0.246c-0.069,0.318-0.159,0.632-0.249,0.946
		c-0.023,0.081-0.074,0.156-0.115,0.233c-0.063,0.119-0.145,0.201-0.297,0.221c-0.306,0.041-0.608,0.11-0.913,0.165
		c-0.049,0.009-0.1,0.011-0.15,0.009c-0.154-0.006-0.231-0.111-0.18-0.258c0.023-0.064,0.065-0.126,0.113-0.176
		c0.071-0.075,0.157-0.136,0.233-0.208c0.111-0.105,0.104-0.226-0.031-0.296c-0.083-0.044-0.183-0.068-0.277-0.074
		c-0.21-0.013-0.386-0.076-0.538-0.234C14.012,7.842,13.885,7.809,13.751,7.739z"/>
	<path fill="#B0A18D" d="M1.398,4.364c0,0,0,0,0.138-0.1C1.65,4.182,1.179,3.812,0.973,3.658L0.869,3.313
		c-0.244,0.16-0.244,0.16-0.453,0.288C0.34,3.647,0.252,3.676,0.17,3.717c-0.1,0.051-0.123,0.1-0.061,0.192
		c0.061,0.089,0.146,0.16,0.229,0.247c-0.057,0.178-0.02,0.242,0.195,0.289C0.607,4.46,0.683,4.469,0.771,4.484
		C0.734,4.505,0.709,4.521,0.685,4.537c-0.11,0.076-0.113,0.122-0.001,0.19c0.051,0.032,0.11,0.058,0.168,0.063
		c0.127,0.014,0.255,0.025,0.382,0.025l0.001,0.002C1.26,4.82,1.284,4.817,1.309,4.815c0.005-0.001,0.01-0.002,0.016-0.001V4.813
		c0.229-0.045,0.373-0.311,0.43-0.486C1.818,4.129,1.398,4.364,1.398,4.364z"/>
	<path fill="#0F0F0F" d="M0.242,4.06c0,0-0.24-0.208-0.156-0.274s0.301-0.159,0.301-0.159S0.597,3.8,0.432,3.84
		S0.242,4.06,0.26,4.078"/>
	<path fill="#0F0F0F" d="M3.032,2.314c0,0,0.657-0.378,0.813-0.215C4,2.264,3.99,2.561,3.904,2.654
		C3.82,2.749,3.141,2.547,3.054,2.513C2.965,2.48,2.937,2.365,3.032,2.314z"/>
</g>
<g>
	<path fill="#4E4A38" d="M24.794,6.251c0.018,0.051,0.031,0.091,0.047,0.135c-0.012,0-0.025,0-0.047,0.001
		c0.012,0.03,0.023,0.058,0.033,0.085c0.004,0.012,0.01,0.031,0.004,0.035c-0.027,0.023-0.014,0.047-0.008,0.072
		c0.008,0.027,0.014,0.055,0.018,0.083c0.008,0.091-0.033,0.146-0.123,0.158c-0.236,0.032-0.471,0.067-0.709,0.093
		c-0.098,0.011-0.197,0.005-0.297-0.001c-0.064-0.005-0.068-0.024-0.051-0.086c0.029-0.099,0.102-0.149,0.193-0.179
		c0.068-0.023,0.139-0.047,0.209-0.074c0.072-0.028,0.082-0.081,0.027-0.135c-0.018-0.017-0.035-0.031-0.051-0.049
		c-0.016-0.016-0.027-0.034-0.041-0.055c-0.004,0.004-0.01,0.011-0.018,0.02c-0.006-0.017-0.012-0.031-0.018-0.051
		c-0.012,0.013-0.021,0.022-0.035,0.037c-0.023-0.034-0.047-0.065-0.078-0.106c-0.006,0.015-0.012,0.029-0.02,0.047
		c-0.012-0.021-0.02-0.034-0.029-0.054c-0.008,0.012-0.014,0.021-0.025,0.039C23.755,6.2,23.735,6.142,23.718,6.08
		c-0.01,0.003-0.021,0.008-0.035,0.013c-0.037-0.134-0.096-0.26-0.082-0.413c-0.023,0.021-0.039,0.037-0.061,0.056
		c-0.002-0.025-0.004-0.05-0.008-0.085c-0.016,0.03-0.027,0.052-0.043,0.08c-0.014-0.026-0.023-0.046-0.035-0.071
		c-0.021,0.014-0.043,0.027-0.072,0.045c-0.014-0.029-0.031-0.061-0.053-0.102c-0.012,0.032-0.02,0.056-0.029,0.083
		c-0.018-0.015-0.031-0.029-0.047-0.046c-0.01,0.009-0.02,0.018-0.033,0.03c-0.021-0.034-0.043-0.066-0.066-0.1
		c-0.006,0.015-0.012,0.03-0.021,0.05c-0.01-0.022-0.02-0.041-0.029-0.063c-0.014,0.019-0.025,0.033-0.039,0.052
		c-0.014-0.017-0.025-0.033-0.039-0.051c-0.047,0.037-0.039,0.092-0.049,0.141c-0.004,0.019-0.014,0.036-0.021,0.055
		c-0.004,0.011-0.012,0.02-0.014,0.031c-0.014,0.115-0.027,0.23-0.043,0.346c-0.006,0.052-0.002,0.109-0.025,0.153
		c-0.02,0.036-0.012,0.065-0.014,0.099c0,0.014-0.008,0.027-0.016,0.039c-0.035,0.051-0.072,0.1-0.078,0.164
		c-0.002,0.024-0.018,0.046-0.027,0.069c-0.006,0.017-0.014,0.036-0.014,0.054c-0.004,0.094-0.006,0.188-0.006,0.279
		c-0.002,0.075-0.031,0.123-0.104,0.134c-0.164,0.027-0.328,0.051-0.492,0.071c-0.109,0.014-0.219,0.026-0.328,0.033
		c-0.059,0.003-0.121-0.003-0.162-0.061c-0.006-0.008-0.023-0.01-0.035-0.01c-0.104,0.006-0.205,0.014-0.307,0.017
		c-0.066,0.003-0.135-0.001-0.205-0.003c0.002-0.078,0.025-0.135,0.074-0.18c0.076-0.071,0.174-0.1,0.271-0.126
		c0.021-0.005,0.043-0.01,0.064-0.015c0.082-0.016,0.117-0.094,0.072-0.164c-0.006-0.008-0.025-0.005-0.043-0.008
		c-0.002-0.025-0.006-0.057-0.01-0.092c-0.016,0.007-0.029,0.011-0.051,0.021c0-0.064-0.002-0.125-0.002-0.193
		c-0.016,0.015-0.025,0.023-0.035,0.034c-0.004-0.002-0.008-0.002-0.012-0.003c0.004-0.069,0.008-0.139,0.012-0.211
		c-0.008,0.004-0.018,0.009-0.033,0.017c-0.006-0.056-0.01-0.107-0.016-0.161c-0.01,0.006-0.018,0.012-0.029,0.02
		c0.01-0.077,0.02-0.15,0.027-0.226c-0.002-0.001-0.006-0.004-0.01-0.005c-0.014,0.023-0.027,0.047-0.041,0.07
		c-0.004-0.002-0.01-0.005-0.014-0.007c0.006-0.066,0.014-0.133,0.018-0.199c0-0.042-0.006-0.085-0.01-0.128
		c-0.006-0.042-0.027-0.07-0.072-0.079c-0.014-0.002-0.025-0.009-0.037-0.012c-0.084-0.023-0.152-0.06-0.17-0.157
		c-0.006-0.036-0.033-0.068-0.053-0.102c-0.064-0.115-0.182-0.136-0.295-0.155c-0.029-0.005-0.066,0.024-0.088,0.003
		c-0.035,0.007-0.066,0.005-0.086,0.019c-0.039,0.027-0.049-0.022-0.08-0.018c-0.008,0.011-0.02,0.026-0.029,0.042
		c-0.035-0.021-0.07-0.041-0.111-0.063c-0.004,0.018-0.006,0.028-0.008,0.045c-0.031-0.014-0.064-0.021-0.088-0.041
		c-0.105-0.084-0.227-0.076-0.348-0.057c-0.01,0.001-0.016,0.017-0.025,0.028c-0.01-0.012-0.021-0.024-0.033-0.037
		c-0.07,0.079-0.07,0.079-0.117,0.022c-0.01,0.011-0.018,0.021-0.029,0.034c-0.004-0.003-0.01-0.012-0.012-0.011
		c-0.047,0.019-0.064-0.024-0.094-0.043c-0.066-0.039-0.133-0.073-0.215-0.066c-0.068,0.005-0.139-0.004-0.209-0.011
		c-0.025-0.003-0.051-0.015-0.072-0.027c-0.051-0.03-0.049-0.051,0-0.084c0.01-0.008,0.021-0.015,0.037-0.023
		c-0.039-0.007-0.072-0.011-0.104-0.018c-0.096-0.021-0.111-0.048-0.086-0.126c-0.037-0.039-0.074-0.07-0.102-0.109
		c-0.027-0.041-0.018-0.063,0.027-0.085c0.035-0.018,0.074-0.03,0.107-0.052c0.092-0.056,0.184-0.114,0.271-0.175
		c0.018-0.014,0.035-0.046,0.033-0.067c-0.006-0.086,0.037-0.141,0.102-0.185c0.07-0.047,0.141-0.093,0.213-0.139
		c0.064-0.042,0.121-0.089,0.133-0.177c0.004-0.036,0.029-0.073,0.051-0.106c0.041-0.063,0.102-0.085,0.174-0.065
		c0.039,0.011,0.076,0.029,0.113,0.051c0.031,0.019,0.061,0.023,0.096,0.008c0.076-0.034,0.152-0.055,0.236-0.031
		c0.016,0.005,0.035-0.002,0.051-0.009c0.156-0.07,0.318-0.107,0.49-0.114c0.168-0.007,0.316-0.068,0.438-0.189
		c0.146-0.149,0.33-0.207,0.533-0.22c0.148-0.009,0.291,0.016,0.43,0.066c0.227,0.082,0.459,0.104,0.695,0.047
		c0.146-0.034,0.291-0.077,0.438-0.111c0.389-0.092,0.777-0.113,1.162,0.014c0.109,0.036,0.213,0.094,0.318,0.143
		c0.01,0.006,0.021,0.014,0.029,0.022c0.162,0.171,0.334,0.336,0.486,0.517c0.137,0.164,0.25,0.35,0.254,0.574
		c0.002,0.068-0.02,0.139-0.031,0.208c-0.004,0.025-0.01,0.052-0.008,0.077c0.008,0.108,0.033,0.217,0.021,0.322
		c-0.01,0.11-0.025,0.219-0.023,0.331c0.002,0.007,0,0.015-0.004,0.021c-0.07,0.126-0.055,0.261-0.037,0.393
		c0.004,0.037,0.039,0.073,0.068,0.104c0.021,0.022,0.035,0.042,0.045,0.072c0.01,0.035,0.035,0.07,0.061,0.097
		c0.064,0.059,0.139,0.108,0.199,0.171c0.025,0.024,0.041,0.075,0.033,0.108c-0.029,0.141-0.068,0.278-0.107,0.416
		c-0.012,0.036-0.033,0.069-0.051,0.104c-0.029,0.052-0.064,0.088-0.131,0.097c-0.135,0.018-0.268,0.049-0.402,0.072
		c-0.021,0.004-0.043,0.005-0.066,0.004c-0.068-0.002-0.102-0.049-0.078-0.113c0.01-0.028,0.029-0.056,0.049-0.077
		c0.031-0.033,0.07-0.06,0.104-0.092c0.049-0.046,0.045-0.099-0.014-0.13c-0.037-0.02-0.08-0.03-0.123-0.032
		c-0.092-0.006-0.17-0.034-0.236-0.104C24.909,6.296,24.853,6.281,24.794,6.251z"/>
	<path fill="#B0A18D" d="M19.36,4.767c0,0,0,0,0.061-0.044c0.051-0.036-0.156-0.199-0.246-0.267l-0.047-0.152
		c-0.107,0.07-0.107,0.07-0.199,0.127c-0.033,0.021-0.072,0.033-0.107,0.051c-0.045,0.022-0.055,0.044-0.027,0.085
		c0.027,0.039,0.064,0.07,0.102,0.108c-0.025,0.078-0.01,0.106,0.084,0.127c0.033,0.007,0.066,0.011,0.105,0.018
		c-0.016,0.009-0.027,0.016-0.037,0.023c-0.049,0.033-0.051,0.054,0,0.084c0.021,0.014,0.047,0.024,0.072,0.027
		c0.057,0.006,0.113,0.012,0.168,0.012l0,0c0.012,0.001,0.023,0,0.033-0.001c0.002,0,0.004-0.001,0.008,0V4.964
		c0.1-0.02,0.164-0.137,0.189-0.214C19.546,4.663,19.36,4.767,19.36,4.767z"/>
	<path fill="#0F0F0F" d="M18.853,4.633c0,0-0.105-0.092-0.068-0.121s0.133-0.07,0.133-0.07s0.092,0.077,0.02,0.095
		s-0.084,0.097-0.076,0.104"/>
	<path fill="#0F0F0F" d="M20.079,3.865c0,0,0.289-0.167,0.357-0.095s0.064,0.203,0.027,0.244s-0.336-0.048-0.375-0.063
		C20.05,3.938,20.038,3.888,20.079,3.865z"/>
</g>
<g>
	<path fill="#4E4A38" d="M32.478,5.33c0.018,0.047,0.029,0.083,0.045,0.123c-0.012,0-0.023,0-0.045,0.001
		c0.012,0.028,0.021,0.053,0.031,0.078c0.004,0.011,0.01,0.028,0.004,0.032c-0.027,0.021-0.014,0.043-0.008,0.065
		c0.008,0.025,0.014,0.051,0.016,0.076c0.008,0.083-0.031,0.134-0.117,0.146c-0.227,0.03-0.453,0.063-0.68,0.088
		C31.63,5.95,31.534,5.945,31.438,5.94c-0.061-0.004-0.066-0.022-0.049-0.078c0.029-0.091,0.098-0.138,0.186-0.165
		c0.068-0.021,0.135-0.043,0.201-0.068c0.07-0.026,0.08-0.075,0.027-0.124c-0.018-0.015-0.033-0.028-0.049-0.044
		c-0.014-0.015-0.025-0.031-0.039-0.05c-0.004,0.003-0.008,0.01-0.016,0.018c-0.006-0.015-0.012-0.028-0.018-0.046
		c-0.012,0.011-0.02,0.021-0.033,0.034c-0.023-0.031-0.045-0.061-0.074-0.098c-0.006,0.014-0.012,0.027-0.02,0.043
		c-0.012-0.019-0.018-0.031-0.027-0.049c-0.008,0.011-0.014,0.02-0.025,0.036c-0.02-0.061-0.037-0.114-0.055-0.171
		c-0.01,0.003-0.02,0.008-0.033,0.012c-0.035-0.122-0.092-0.237-0.078-0.377c-0.021,0.02-0.037,0.033-0.057,0.051
		c-0.002-0.023-0.004-0.046-0.008-0.078c-0.016,0.028-0.025,0.048-0.041,0.074c-0.014-0.024-0.021-0.042-0.035-0.065
		c-0.02,0.013-0.041,0.025-0.068,0.042c-0.014-0.027-0.029-0.056-0.049-0.093c-0.012,0.029-0.02,0.051-0.029,0.075
		c-0.016-0.013-0.031-0.026-0.045-0.041c-0.01,0.008-0.02,0.016-0.031,0.027c-0.021-0.031-0.041-0.061-0.063-0.091
		c-0.008,0.014-0.014,0.028-0.021,0.046c-0.01-0.021-0.02-0.037-0.029-0.058c-0.012,0.017-0.023,0.03-0.037,0.047
		c-0.012-0.015-0.023-0.03-0.037-0.046c-0.045,0.034-0.039,0.084-0.049,0.129c-0.004,0.017-0.012,0.033-0.02,0.05
		c-0.004,0.01-0.012,0.019-0.014,0.029c-0.014,0.105-0.027,0.211-0.041,0.316c-0.006,0.047-0.004,0.1-0.027,0.141
		c-0.018,0.033-0.01,0.06-0.012,0.09c0,0.013-0.01,0.025-0.016,0.036c-0.033,0.047-0.07,0.091-0.076,0.15
		c-0.002,0.022-0.018,0.042-0.025,0.063c-0.006,0.016-0.016,0.033-0.016,0.049c-0.004,0.086-0.006,0.172-0.006,0.256
		c-0.002,0.069-0.031,0.113-0.1,0.123c-0.156,0.025-0.314,0.048-0.473,0.067c-0.104,0.013-0.209,0.025-0.313,0.032
		c-0.059,0.003-0.117-0.002-0.156-0.055c-0.006-0.007-0.021-0.009-0.035-0.009c-0.098,0.006-0.195,0.014-0.293,0.017
		c-0.064,0.003-0.129,0-0.195-0.002c0.002-0.071,0.023-0.123,0.072-0.165c0.072-0.065,0.166-0.092,0.26-0.116
		c0.02-0.005,0.041-0.009,0.063-0.014c0.078-0.015,0.113-0.086,0.068-0.15c-0.004-0.007-0.023-0.005-0.039-0.007
		c-0.002-0.023-0.006-0.052-0.01-0.084c-0.016,0.006-0.027,0.01-0.049,0.019c0-0.059-0.002-0.114-0.002-0.177
		c-0.014,0.014-0.023,0.021-0.033,0.031c-0.004-0.002-0.008-0.001-0.012-0.002c0.004-0.063,0.008-0.127,0.012-0.193
		c-0.006,0.004-0.016,0.008-0.029,0.016c-0.006-0.051-0.012-0.099-0.016-0.147c-0.01,0.005-0.018,0.011-0.027,0.018
		c0.01-0.07,0.018-0.138,0.027-0.206c-0.004-0.001-0.006-0.004-0.01-0.005c-0.014,0.021-0.027,0.043-0.041,0.064
		c-0.004-0.002-0.008-0.004-0.012-0.006c0.006-0.061,0.014-0.122,0.018-0.183c0-0.038-0.004-0.077-0.01-0.117
		c-0.004-0.038-0.025-0.063-0.068-0.071c-0.012-0.002-0.023-0.009-0.035-0.011c-0.08-0.021-0.145-0.054-0.162-0.144
		c-0.006-0.033-0.031-0.063-0.049-0.093c-0.063-0.104-0.174-0.123-0.283-0.141C28.526,4.3,28.491,4.326,28.47,4.307
		c-0.035,0.007-0.064,0.005-0.082,0.018c-0.037,0.025-0.047-0.021-0.078-0.016c-0.006,0.01-0.018,0.024-0.027,0.039
		c-0.033-0.019-0.068-0.038-0.105-0.058c-0.004,0.016-0.006,0.025-0.01,0.041c-0.027-0.013-0.061-0.02-0.082-0.037
		c-0.102-0.076-0.217-0.069-0.334-0.051c-0.008,0.001-0.016,0.016-0.025,0.026c-0.008-0.011-0.02-0.022-0.029-0.034
		c-0.068,0.073-0.068,0.073-0.113,0.021c-0.01,0.01-0.018,0.019-0.029,0.031c-0.002-0.002-0.008-0.011-0.01-0.01
		c-0.045,0.018-0.063-0.021-0.09-0.039c-0.063-0.035-0.127-0.066-0.205-0.06c-0.066,0.005-0.135-0.003-0.201-0.009
		c-0.023-0.002-0.049-0.013-0.068-0.024c-0.049-0.027-0.047-0.047,0-0.077c0.01-0.007,0.021-0.014,0.035-0.021
		c-0.035-0.006-0.068-0.01-0.1-0.016c-0.09-0.019-0.105-0.043-0.082-0.115c-0.033-0.035-0.07-0.063-0.094-0.1
		c-0.027-0.037-0.018-0.057,0.025-0.077c0.033-0.017,0.07-0.028,0.104-0.048c0.088-0.052,0.176-0.105,0.26-0.161
		c0.018-0.013,0.033-0.043,0.033-0.063C27.155,3.391,27.196,3.34,27.259,3.3c0.066-0.043,0.135-0.086,0.203-0.128
		c0.064-0.039,0.117-0.082,0.129-0.162c0.004-0.033,0.027-0.067,0.049-0.098c0.041-0.058,0.1-0.079,0.168-0.062
		c0.037,0.01,0.074,0.027,0.107,0.047c0.031,0.017,0.059,0.021,0.092,0.006c0.072-0.031,0.146-0.051,0.227-0.029
		c0.016,0.004,0.035-0.002,0.051-0.008c0.148-0.065,0.303-0.101,0.469-0.107c0.16-0.007,0.305-0.064,0.42-0.176
		c0.141-0.137,0.318-0.19,0.512-0.203c0.143-0.009,0.277,0.013,0.412,0.059c0.217,0.074,0.439,0.094,0.666,0.04
		c0.141-0.032,0.279-0.072,0.42-0.104c0.371-0.086,0.744-0.107,1.111,0.008c0.107,0.032,0.205,0.084,0.307,0.129
		c0.01,0.005,0.02,0.012,0.025,0.021c0.156,0.155,0.318,0.306,0.465,0.47c0.131,0.149,0.238,0.319,0.242,0.524
		c0,0.063-0.021,0.127-0.031,0.19c-0.004,0.023-0.01,0.048-0.01,0.07c0.008,0.1,0.031,0.199,0.021,0.295
		c-0.012,0.102-0.027,0.201-0.025,0.304c0,0.006,0,0.013-0.004,0.019c-0.068,0.115-0.053,0.238-0.039,0.359
		c0.004,0.034,0.039,0.066,0.066,0.095c0.021,0.021,0.033,0.038,0.043,0.065c0.01,0.032,0.033,0.064,0.059,0.088
		c0.061,0.054,0.131,0.099,0.189,0.156c0.023,0.021,0.039,0.068,0.031,0.099c-0.029,0.129-0.068,0.255-0.105,0.381
		c-0.012,0.033-0.033,0.063-0.049,0.096c-0.027,0.047-0.063,0.08-0.127,0.089c-0.129,0.017-0.256,0.046-0.385,0.067
		c-0.021,0.004-0.043,0.005-0.064,0.004c-0.064-0.001-0.096-0.044-0.074-0.103c0.01-0.026,0.027-0.052,0.049-0.071
		c0.029-0.03,0.066-0.055,0.098-0.084c0.047-0.043,0.045-0.091-0.012-0.119c-0.035-0.018-0.078-0.027-0.117-0.029
		c-0.088-0.005-0.162-0.03-0.227-0.093C32.587,5.371,32.534,5.357,32.478,5.33z"/>
	<path fill="#B0A18D" d="M27.28,3.997c0,0,0,0,0.059-0.04c0.047-0.033-0.15-0.182-0.236-0.243L27.06,3.575
		c-0.104,0.064-0.104,0.064-0.191,0.117c-0.033,0.019-0.07,0.03-0.104,0.047c-0.043,0.021-0.053,0.04-0.027,0.078
		c0.025,0.035,0.063,0.063,0.096,0.099c-0.023,0.071-0.008,0.097,0.082,0.115c0.031,0.006,0.063,0.01,0.1,0.016
		c-0.014,0.008-0.025,0.015-0.035,0.021c-0.047,0.031-0.049,0.05,0,0.077c0.02,0.013,0.045,0.022,0.068,0.024
		c0.055,0.005,0.107,0.011,0.162,0.01l0,0c0.01,0.001,0.021,0,0.031-0.001c0.002,0,0.004-0.001,0.006,0V4.178
		c0.098-0.018,0.158-0.126,0.184-0.196C27.458,3.901,27.28,3.997,27.28,3.997z"/>
	<path fill="#0F0F0F" d="M26.794,3.877c0,0-0.102-0.083-0.066-0.11c0.037-0.026,0.127-0.064,0.127-0.064s0.09,0.07,0.02,0.086
		c-0.07,0.017-0.08,0.089-0.072,0.097"/>
	<path fill="#0F0F0F" d="M27.974,3.169c0,0,0.277-0.154,0.342-0.088c0.066,0.065,0.061,0.186,0.023,0.223
		c-0.035,0.038-0.32-0.042-0.357-0.055S27.933,3.19,27.974,3.169z"/>
</g>
</svg>
