<?xml version="1.0" encoding="utf-8"?>
<!-- Generator: Adobe Illustrator 15.0.0, SVG Export Plug-In . SVG Version: 6.00 Build 0)  -->
<!DOCTYPE svg PUBLIC "-//W3C//DTD SVG 1.1//EN" "http://www.w3.org/Graphics/SVG/1.1/DTD/svg11.dtd">
<svg version="1.1" id="Слой_1" xmlns="http://www.w3.org/2000/svg" xmlns:xlink="http://www.w3.org/1999/xlink" x="0px" y="0px"
	 width="110px" height="47px" viewBox="0 0 110 47" enable-background="new 0 0 110 47" xml:space="preserve">
<g>
	<rect x="0.477" y="39.898" fill="#CACBCD" width="10.477" height="0.729"/>
	<path fill="#8E9093" d="M95.358,34.385c0,0-0.852-2.916-2.718-2.916H82.358l-0.667-0.584l-56.585-0.583l-2.832,6.615h0.334
		l2.166,2.683v3.619h1V39.6h12.402v2.955h0.848V39.6h1.084v2.955h1.133l2.104-1.167l9.93-0.761l0.5,0.758h28.584h0.416v1.834h0.638
		v-1.834h12.82h0.376v-7H95.358z M30.964,32.346l-2.017-0.877h3.847L30.964,32.346z M38.177,32.302l-1.953-0.833l1.953-0.209V32.302
		z M40.588,32.346V31.26l1.953,0.209l0.445,0.877H40.588z M52.654,32.346h-2.398l0.446-0.877l1.952-0.209V32.346z M53.274,32.346
		V31.26l3.8,0.209l0.867,0.877H53.274z M63.566,32.346h-4.667l0.867-0.877l3.8-0.209V32.346z"/>
	<rect x="96.608" y="34.385" fill="#5D5F61" width="13.429" height="6.667"/>
	<rect x="105.183" y="10.197" fill="#E57E25" width="0.917" height="1.417"/>
	<polygon fill="#5D5F61" points="82.252,26.931 82.975,26.931 82.975,29.115 83.877,29.115 83.877,28.023 85.954,28.023 
		85.954,21.469 87.669,21.469 87.669,31.469 82.252,31.469 	"/>
	<path fill="#FFFFFF" d="M87.441,31.26V12.302c0,0,1.781-2,3.32-2.083c1.539-0.084,15.49-0.044,17.597,2.789
		c0,0,0.221,2.544,1.03,11.294c0,0,0.648-0.042,0.648,0.729c0,0.771,0,9.438,0,9.438H87.441V31.26z"/>
	<g>
		<circle fill="#2A292A" cx="89.822" cy="39.736" r="6.41"/>
		<circle fill="#6A7E88" cx="89.822" cy="39.736" r="4.458"/>
		<circle fill="#5C5D60" cx="89.822" cy="39.736" r="4.012"/>
		<circle fill="#B4BDC4" cx="89.822" cy="39.736" r="0.802"/>
		<circle fill="#B4BDC4" cx="89.822" cy="39.736" r="2.819"/>
		<circle fill="#DBDBDB" cx="89.822" cy="39.6" r="1.028"/>
	</g>
	<g>
		<circle fill="#2A292A" cx="46.998" cy="39.736" r="6.41"/>
		<circle fill="#6A7E88" cx="46.998" cy="39.736" r="4.457"/>
		<circle fill="#5C5D60" cx="46.998" cy="39.736" r="4.012"/>
		<circle fill="#B4BDC4" cx="46.998" cy="39.736" r="0.803"/>
		<circle fill="#B4BDC4" cx="46.998" cy="39.736" r="2.818"/>
		<circle fill="#DBDBDB" cx="46.998" cy="39.6" r="1.027"/>
	</g>
	<g>
		<circle fill="#2A292A" cx="31.767" cy="39.736" r="6.41"/>
		<circle fill="#6A7E88" cx="31.766" cy="39.736" r="4.458"/>
		<circle fill="#5C5D60" cx="31.767" cy="39.736" r="4.012"/>
		<circle fill="#B4BDC4" cx="31.766" cy="39.736" r="0.802"/>
		<circle fill="#B4BDC4" cx="31.766" cy="39.736" r="2.819"/>
		<circle fill="#DBDBDB" cx="31.766" cy="39.6" r="1.028"/>
	</g>
	<rect x="71.774" y="34.385" fill="#D3D4D6" width="10.584" height="6.667"/>
	<line fill="none" stroke="#EDEEEF" stroke-miterlimit="10" x1="73.691" y1="34.385" x2="73.691" y2="41.052"/>
	<line fill="none" stroke="#EDEEEF" stroke-miterlimit="10" x1="80.691" y1="34.385" x2="80.691" y2="41.052"/>
	<g>
		<polygon fill="none" stroke="#5D5F61" stroke-miterlimit="10" points="70.858,40.538 55.274,40.538 55.274,36.917 55.274,30.885 
			70.858,30.885 		"/>
		<line fill="none" stroke="#5D5F61" stroke-miterlimit="10" x1="70.441" y1="36.917" x2="55.691" y2="36.917"/>
	</g>
	<g>
		<polygon fill="#B9BBBE" points="84.513,31.469 84.93,13.219 86.691,13.219 87.108,31.469 		"/>
	</g>
	<polygon fill="#E0E1E2" points="86.691,13.219 84.93,13.219 84.752,20.969 86.868,20.969 	"/>
	<path fill="none" stroke="#E0E1E2" stroke-width="1.2" stroke-miterlimit="10" d="M85.811,13.219V2.302c0,0,0.131-2.25-1.536-2.25"
		/>
	<g>
		<circle fill="#262626" cx="86.239" cy="13.594" r="0.079"/>
		<circle fill="#262626" cx="85.813" cy="13.594" r="0.079"/>
		<circle fill="#262626" cx="85.387" cy="13.594" r="0.079"/>
	</g>
	<g>
		<circle fill="#262626" cx="86.239" cy="13.977" r="0.079"/>
		<circle fill="#262626" cx="85.813" cy="13.977" r="0.079"/>
		<circle fill="#262626" cx="85.387" cy="13.977" r="0.079"/>
	</g>
	<g>
		<circle fill="#262626" cx="86.239" cy="14.359" r="0.079"/>
		<circle fill="#262626" cx="85.813" cy="14.359" r="0.079"/>
		<circle fill="#262626" cx="85.387" cy="14.359" r="0.079"/>
	</g>
	<g>
		<circle fill="#262626" cx="86.239" cy="14.742" r="0.079"/>
		<circle fill="#262626" cx="85.813" cy="14.742" r="0.079"/>
		<circle fill="#262626" cx="85.387" cy="14.742" r="0.079"/>
	</g>
	<g>
		<circle fill="#262626" cx="86.239" cy="15.125" r="0.079"/>
		<circle fill="#262626" cx="85.813" cy="15.125" r="0.079"/>
		<circle fill="#262626" cx="85.387" cy="15.125" r="0.079"/>
	</g>
	<rect x="95.337" y="26.385" fill="#262626" width="2.542" height="0.667"/>
	<path fill="#FFFFFF" d="M27.309,31.469l-2.534,3.81h-1.666v2.023l-5.084,3.236c0,0-3.833,0.089-6.166,0.089
		c-2.334,0-5.9-3.893-5.9-3.893L4.62,35.396l2.071-2.07V16.052h-2v-1.583h2.167L18.024,2.302h10.923"/>
	<line fill="none" stroke="#B8BFA7" stroke-miterlimit="10" x1="8.37" y1="16.052" x2="25.691" y2="29.558"/>
	<path fill="#CACBCD" d="M6.691,23.719h-3.25v6.083c0,0,1.333,0.333,0.75,1.667c-0.583,1.333-0.75,2.166-0.75,2.166l1.179,1.762
		l2.071-2.07V23.719z"/>
	<polygon fill="#FFFFFF" points="24.191,31.469 82.358,31.469 82.358,2.302 28.947,2.302 	"/>
	<polygon fill="#B8BFA7" points="28.554,29.281 77.995,29.281 77.995,4.489 32.597,4.489 	"/>
	<polygon fill="#DAE5C7" points="29.373,28.219 77.191,28.219 77.191,5.385 33.283,5.385 	"/>
	<rect x="23.016" y="25.031" fill="#585655" width="2.25" height="4.125"/>
	<circle fill="#C03A2B" cx="24.578" cy="25.833" r="0.594"/>
	<rect x="24.078" y="26.719" fill="#F2CC68" width="1" height="0.875"/>
	<rect x="24.078" y="28.031" fill="#8CA84E" width="1" height="0.813"/>
	<rect x="28.328" y="30.635" fill="#E57E25" width="3.625" height="0.625"/>
	<rect x="75.808" y="30.635" fill="#E57E25" width="3.625" height="0.625"/>
	<rect x="6.024" y="16.156" fill="#E57E25" width="0.709" height="1.541"/>
	<rect x="6.024" y="17.697" fill="#D25627" width="0.709" height="1.667"/>
	<rect x="24.178" y="37.572" fill="#D25627" width="0.802" height="2"/>
	<rect x="82.203" y="2.302" fill="#E57E25" width="0.667" height="1.417"/>
	<path fill="#CACBCD" d="M7.441,34.023h14.25v2.865l-4.402,2.654c0,0-4.598,0.604-5.931,0c-1.334-0.604-5.334-4.175-5.334-4.175
		L7.441,34.023z"/>
	<rect x="8.37" y="35.135" fill="#E57E25" width="2.583" height="0.417"/>
	<polygon fill="none" stroke="#B8BFA7" stroke-miterlimit="10" points="8.37,32.302 8.37,16.052 18.941,4.489 30.141,4.489 
		25.691,29.558 24.25,32.302 	"/>
	<line fill="none" stroke="#B8BFA7" stroke-miterlimit="10" x1="8.233" y1="25.833" x2="30.141" y2="4.489"/>
	<line fill="none" stroke="#B8BFA7" stroke-width="2" stroke-miterlimit="10" x1="8.37" y1="32.137" x2="17.541" y2="23.202"/>
	<path fill="#D1E2E8" stroke="#D1E2E8" stroke-miterlimit="10" d="M90.023,13.008h17.564l1.783,11.167l-14.25-2.75
		c0,0-4.834-0.042-5.167-2.438S90.023,13.008,90.023,13.008z"/>
	
		<line fill="none" stroke="#8E9093" stroke-width="0.3771" stroke-miterlimit="10" x1="93.808" y1="21.703" x2="93.808" y2="32.346"/>
	<polygon fill="#EFF5F7" points="98.358,13.008 108.479,18.592 107.588,13.008 	"/>
	<g>
		
			<line fill="none" stroke="#B8B9BC" stroke-width="0.3443" stroke-miterlimit="10" x1="110.037" y1="26.719" x2="106.858" y2="26.719"/>
		
			<line fill="none" stroke="#B8B9BC" stroke-width="0.3443" stroke-miterlimit="10" x1="110.037" y1="27.552" x2="106.858" y2="27.552"/>
		
			<line fill="none" stroke="#B8B9BC" stroke-width="0.3443" stroke-miterlimit="10" x1="110.037" y1="28.635" x2="106.858" y2="28.635"/>
	</g>
	<rect x="106.864" y="35.135" fill="#FFFFFF" width="3.167" height="2.438"/>
	<rect x="106.864" y="35.135" fill="#D25627" width="0.833" height="2.438"/>
	<g opacity="0.8">
		<path fill="#8CA84E" d="M47.749,12.982l3.478,1.826l2.434-3.825c0,0-1.391-1.92-2.956-1.568
			C49.14,9.767,47.749,12.982,47.749,12.982z"/>
		<path fill="#8CA84E" d="M52.182,9.372l4.955,0.043c0,0,1.13,1.047,1.304,2.003l1.217-0.521l-1.999,3.216H53.66l0.986-0.956
			C54.646,13.156,55.92,11.511,52.182,9.372z"/>
		<path fill="#8CA84E" d="M59.771,13.447l-3.594,1.98l2.808,4.346c0,0,2.679-0.102,3.072-1.674
			C62.451,16.529,59.771,13.447,59.771,13.447z"/>
		<path fill="#8CA84E" d="M61.385,19.416l-2.452,4.306c0,0-1.642,0.38-2.724-0.022l-0.047,1.365l-2.385-3.612l1.943-3.495
			l0.518,1.418C56.238,19.375,57.337,21.442,61.385,19.416z"/>
		<path fill="#8CA84E" d="M53.19,23.336l-0.182-3.961l-4.676-0.001c0,0-0.988,2.229,0.139,3.376
			C49.6,23.895,53.19,23.336,53.19,23.336z"/>
		<path fill="#8CA84E" d="M47.665,21.511l-2.539-4.255c0,0,0.346-1.533,1.107-2.201l-1.098-0.756l3.907-0.039l2.08,3.414
			l-1.366-0.323C49.757,17.351,47.628,17.157,47.665,21.511z"/>
	</g>
</g>
</svg>
