<?xml version="1.0" encoding="utf-8"?>
<!-- Generator: Adobe Illustrator 16.0.0, SVG Export Plug-In . SVG Version: 6.00 Build 0)  -->
<!DOCTYPE svg PUBLIC "-//W3C//DTD SVG 1.1//EN" "http://www.w3.org/Graphics/SVG/1.1/DTD/svg11.dtd">
<svg version="1.1" id="Слой_1" xmlns="http://www.w3.org/2000/svg" xmlns:xlink="http://www.w3.org/1999/xlink" x="0px" y="0px"
	 width="571px" height="128px" viewBox="0 0 571 128" enable-background="new 0 0 571 128" xml:space="preserve">
<path fill="#A6A8AB" stroke="#929497" stroke-width="0.5" stroke-miterlimit="10" d="M0.879,128.569V40.276l5.349-5.093
	c0,0,2.797-1.097,4.772-1.097c1.975,0,4.277,0.784,4.277,0.784v-1.41h14.15v21.937h3.621V78.43h1.974V61.037h1.975v-1.253H63.16
	V3.534h1.316V1.341h8.392v2.036h4.278V2.125h1.646v1.722h1.316V60.88h15.466v7.835h11.847v10.811h1.645v-7.519h2.798v2.506h3.29
	v-5.484h1.48v-5.482h9.874v7.99h6.91v-5.642h3.455V55.867h2.303v-8.461h4.116v-1.409h4.771v0.938h28.467v-4.856h1.316
	c0-1.41,3.125-5.641,3.125-5.641s4.607,0,6.748,0c2.137,0,3.455,5.641,3.455,5.641h1.479v11.438h6.42V36.75h3.783v-0.939h6.911
	v0.783h1.809V35.34h1.154v1.254h1.479v6.112h1.646v-1.098h2.633v1.098h1.483v0.782h2.303v-0.939h4.275v1.41h2.304v25.069h7.57
	V50.383h0.823v-8.931h2.304v-2.193h1.317v2.35h9.708v-1.409h5.92v1.097h1.32v8.774h2.958V29.387h1.647h1.316v-3.133h0.988v3.603
	h1.482v-1.879h6.253v1.724h2.632v-0.94h1.646v0.783h2.467V26.88h1.15v2.35h4.937v62.049h14.481V22.337h3.291v-8.46h11.023v-2.194
	h8.887v75.99h20.072v-4.854h3.949v13.16h4.938V80.623h5.1v-6.11h37.187v-6.66h23.034V56.65h15.798v11.202h9.049v16.063h3.291V66.523
	h25.339V40.668h5.924v-2.505h5.925v-1.569h1.812v-0.939h4.604v0.783h1.482v1.411h1.808v0.938h5.104v23.034h34.387v-1.725h3.291
	v-3.133h0.988v3.133h5.428v1.88h2.8V60.88h10.036v0.785h1.154v4.858h1.313v9.713h3.786v23.816h3.619v-1.881h5.267v1.881h2.138"/>
</svg>
