<?xml version="1.0" encoding="utf-8"?>
<!-- Generator: Adobe Illustrator 15.0.0, SVG Export Plug-In . SVG Version: 6.00 Build 0)  -->
<!DOCTYPE svg PUBLIC "-//W3C//DTD SVG 1.1//EN" "http://www.w3.org/Graphics/SVG/1.1/DTD/svg11.dtd">
<svg version="1.1" id="Слой_1" xmlns="http://www.w3.org/2000/svg" xmlns:xlink="http://www.w3.org/1999/xlink" x="0px" y="0px"
	 width="3050px" height="1100px" viewBox="0 0 3050 1100" enable-background="new 0 0 3050 1100" xml:space="preserve">
<symbol  id="groundsmall" viewBox="-250 -131.247 500 262.495">
	<polyline fill="#595743" points="250,131.248 -250,131.248 -250,81.248 250,81.248 	"/>
	<polyline fill="#636249" points="250,85.793 -250,85.793 -250,51.162 250,51.162 	"/>
	<polyline fill="#606045" points="250,56.248 -250,56.248 -250,-131.247 250,-131.247 	"/>
	<path opacity="0.15" fill="#97998D" d="M-86.559,17.925c0,0,6.234,3.163,5.553,4.855c-0.681,1.691,1.586,8.269-0.749,6.88
		C-84.091,28.271-89.564,17.66-86.559,17.925z"/>
	<path opacity="0.15" fill="#AEB2A3" d="M-181.518-48.251c-1.636,1.551-2.528,5.779,0.147,8.412
		c2.632,2.674,6.859,1.781,8.412,0.148c1.678-1.593,0.065-3.316-2.568-5.992C-178.2-48.314-179.923-49.926-181.518-48.251z"/>
	<path opacity="0.15" fill="#AEB2A3" d="M-207.8-17.209c-1.185,1.103-1.725,4.86,0.849,7.396c2.535,2.572,6.294,2.03,7.396,0.849
		c1.222-1.145-0.646-2.489-3.181-5.064C-205.312-16.565-206.657-18.433-207.8-17.209z"/>
	<path opacity="0.15" fill="#AEB2A3" d="M-203.344,14.591c-1.231,1.176-1.933,4.174-0.093,5.984c1.812,1.841,4.811,1.14,5.986-0.092
		c1.262-1.204,0.241-2.48-1.572-4.322C-200.864,14.349-202.139,13.328-203.344,14.591z"/>
	<path opacity="0.15" fill="#AEB2A3" d="M-221.769,14.983c0.186,2.052,1.905,5.584,4.104,6.147c2.201,0.613,3.248-2.179,2.993-4.247
		c-0.191-2.099-1.597-2.688-3.799-3.299C-220.67,13.021-222.029,12.866-221.769,14.983z"/>
	<path opacity="0.15" fill="#AEB2A3" d="M-84.313,32.484c0,0-10.901-7.196-13.689-14.308c-2.789-7.111-3.061-7.781-0.288-8.67
		c2.774-0.889,8.824-1.49,11.199,4.357c2.378,5.847,2.374,6.766,1.929,8.771C-85.608,24.64-74.674,33.871-84.313,32.484z"/>
	<path opacity="0.15" fill="#AEB2A3" d="M145.115-54.78c-1.302-2.874-3.353-4.442-6.466-5.099c-2.056-0.434-4.388-1.887-6.366-2.161
		c-1.83-0.253-3.354,0.456-5.011,0.741c3.208,0.605,4.973,2.926,6.552,5.469c3.429,2.131,6.858,4.264,10.29,6.398
		c-0.09-1.057,0.25-2.195-0.354-3.15C142.268-54.936,143.828-54.678,145.115-54.78z"/>
	<path opacity="0.15" fill="#C6CCB8" d="M145.115-54.78c-1.287,0.103-2.847-0.155-1.355,2.198c0.605,0.955,0.264,2.094,0.354,3.15
		c-3.892-0.9-7.757-1.872-10.29-6.398c-1.579-2.543-3.344-4.863-6.552-5.469c1.746,5.678,4.853,9.137,10.873,12.003
		c2.385,1.137,4.786,2.158,7.179,3.231c-1.252-0.789-2.506-1.579-2.907-1.83c2.198,0.244,4.996,0.557,8.044,0.896
		c-1.097-2.275-1.804-3.742-2.509-5.208C147.005-53.063,146.061-53.922,145.115-54.78z"/>
	<path opacity="0.15" fill="#AEB2A3" d="M147.952-52.206c0.705,1.466,1.412,2.933,2.509,5.208c-3.048-0.34-5.846-0.652-8.044-0.896
		c0.401,0.251,1.655,1.041,2.907,1.83c0.793,0.027,1.637,0.142,2.37,0.063C152.613-46.534,152.636-47.294,147.952-52.206z"/>
	<path opacity="0.15" fill="#97998D" d="M133.824-55.83c2.533,4.526,6.398,5.498,10.29,6.398
		C140.683-51.566,137.253-53.699,133.824-55.83z"/>
	<path opacity="0.15" fill="#ACACAC" d="M-178.448-42.76l5.49,3.069c0,0,2.865-1.605-3.593-6.989
		C-183.007-52.062-178.448-42.76-178.448-42.76z"/>
	<path opacity="0.15" fill="#97998D" d="M-206.739-17.55c0,0,6.355-1.866,7.184,8.586"/>
	<path opacity="0.15" fill="#97998D" d="M-199.2,21.484c0,0,6.147,1.199,1.226-4.485c-4.923-5.684-5.082-3.196-3.232-0.377
		C-199.356,19.442-199.2,21.484-199.2,21.484z"/>
	<path opacity="0.15" fill="#97998D" d="M-85.671,24.183c0,0-8.694-9.271-10.322-10.322c-1.627-1.049,0.513-2.018,3.386,0.357
		C-89.734,16.593-85.671,24.183-85.671,24.183z"/>
	<path opacity="0.15" fill="#97998D" d="M-173.093-38.782c0,0-4.493-6.987-6.582-6.582
		C-181.763-44.962-173.093-38.782-173.093-38.782z"/>
	<path opacity="0.15" fill="#AEB2A3" d="M177.881-10.853c-1.636,1.551-2.528,5.779,0.147,8.412c2.632,2.674,6.859,1.781,8.412,0.148
		c1.678-1.593,0.065-3.316-2.568-5.992C181.199-10.916,179.476-12.527,177.881-10.853z"/>
	<path opacity="0.15" fill="#AEB2A3" d="M151.599,20.189c-1.185,1.103-1.725,4.86,0.849,7.396c2.535,2.572,6.294,2.03,7.396,0.849
		c1.222-1.145-0.646-2.489-3.181-5.064C154.087,20.833,152.742,18.966,151.599,20.189z"/>
	<path opacity="0.15" fill="#ACACAC" d="M180.951-5.361l5.49,3.069c0,0,2.865-1.605-3.593-6.989
		C176.392-14.663,180.951-5.361,180.951-5.361z"/>
	<path opacity="0.15" fill="#97998D" d="M152.66,19.849c0,0,6.355-1.866,7.184,8.586"/>
	<path opacity="0.15" fill="#97998D" d="M186.306-1.384c0,0-4.493-6.987-6.582-6.582C177.636-7.563,186.306-1.384,186.306-1.384z"/>
	<path opacity="0.15" fill="#97998D" d="M-144.271-25.43c0,0,4.398,6.371,6.705,4.089c2.306-2.28,5.446-1.868,1.709-4.59
		c-3.738-2.722-9.78-1.994-9.097-0.747"/>
	<polygon opacity="0.15" fill="#97998D" points="-123.722,24.763 -129.936,21.345 -127.389,18.798 	"/>
	<path opacity="0.15" fill="#97998D" d="M-131.376,28.995l3.668-1.818c0,0,2.153-2.498-3.375-3.43
		C-136.613,22.813-135.146,25.444-131.376,28.995z"/>
	<path opacity="0.15" fill="#97998D" d="M-71.967-6.155c3.201,2.829,3.521,0.935,3.763-0.873c0.385-2.879-2.557-6.84-6.097-8.318
		C-73.106-12.186-70.729-8.749-71.967-6.155z"/>
	<path opacity="0.15" fill="#AEB2A3" d="M-71.967-6.155c1.238-2.594-1.14-6.03-2.334-9.191c-0.73,1.678-1.873,3.154-1.951,5.149
		C-76.278-9.563-73.476-7.541-71.967-6.155z"/>
	<path opacity="0.15" fill="#AEB2A3" d="M18.045,13.538c1.238-2.594-1.14-6.03-2.334-9.191c-0.73,1.678-1.873,3.154-1.951,5.149
		C13.733,10.13,16.536,12.152,18.045,13.538z"/>
	<path opacity="0.15" fill="#AEB2A3" d="M131.816-49.381c-1.529-0.786-3.058-1.572-4.588-2.356c-0.236-0.12-0.471-0.241-0.707-0.361
		c-0.331,0.261-0.662,0.523-0.993,0.786c0.889,0.816,1.778,1.635,2.668,2.452c0.994,0.152,1.989,0.304,2.98,0.456
		C131.392-48.729,131.604-49.055,131.816-49.381z"/>
	<path opacity="0.15" fill="#C6CCB8" d="M131.177-48.404c-0.992-0.152-1.986-0.304-2.98-0.456c0.08,0.174,0.158,0.349,0.235,0.521
		c0.728,0.515,1.457,1.03,2.186,1.546c-0.366,0.229-0.731,0.455-1.097,0.684c-0.03,0.189-0.057,0.38-0.086,0.569
		c3.392,1.196,3.697-0.443,3.11-2.903C132.089-48.43,131.634-48.417,131.177-48.404z"/>
	<path opacity="0.15" fill="#97998D" d="M150.816-50.07c-0.117,0.127-0.236,0.254-0.353,0.381c0.05,0.715,0.1,1.43,0.148,2.145
		c0.004,0.164,0.008,0.328,0.015,0.492c0.579,1.01,1.159,2.02,1.739,3.029C154.12-45.514,153.678-47.514,150.816-50.07z"/>
	<path opacity="0.15" fill="#97998D" d="M131.177-48.404c0.457-0.013,0.912-0.025,1.367-0.039c-0.242-0.313-0.485-0.625-0.728-0.938
		C131.604-49.055,131.392-48.729,131.177-48.404z"/>
	<path opacity="0.15" fill="#737373" d="M126.521-52.099c0.236,0.12,0.471,0.241,0.707,0.361
		C127.002-51.912,126.767-52.032,126.521-52.099z"/>
	<path opacity="0.15" fill="#AEB2A3" d="M150.611-47.545c-0.048-0.715-0.098-1.43-0.148-2.145c-0.496,0.001-0.992,0.002-1.487,0.004
		C149.521-48.973,150.067-48.258,150.611-47.545z"/>
	<polygon opacity="0.15" fill="#97998D" points="151.479,-59.781 145.267,-63.201 147.813,-65.747 	"/>
</symbol>
<symbol  id="underground" viewBox="-1275 -126.657 2550 262.495">
	<polygon fill="#595743" points="1275,135.838 -1275,135.838 -1275,85.838 1275,85.838 	"/>
	<polygon fill="#636249" points="1275,90.383 -1275,90.383 -1275,55.752 1275,55.752 	"/>
	<polyline fill="#606045" points="1275,-126.657 1275,60.838 -1275,60.838 -1275,-126.657 	"/>
	<path opacity="0.2" fill="#97998D" d="M760.197-92.02l-9.523-11.754l6.961,10.825l-1.387,2.187l-10.398,4.047l0.34,3.07
		l-2.797,1.226l-0.236-0.253l2.408-2.873l-3.514,1.68l-0.225-0.369l1.5-1.701l-0.268-0.188l-2.629,1.438l-0.313-0.486l1.256-1.29
		l-3.789-0.36l0.943-1.002l-10.297-3.383l1.271-0.616l-6.012-6.255l-0.283,0.18l0.975,2.707l-0.158,0.102l-1.973-2.529l-0.109,1.739
		l3.854,6.249l15.254,10.057l1.105,5.285l2.166-0.266l-0.824,1.99l2.338,0.039l-2.26,2.111l2.992,0.207l-2.068,3.048l3.326-0.636
		l0.332,0.713l-3.211,2.33l0.721,1.407l3.834-1.177l-3.115,2.565l0.896,1.503l2.654-2.086l0.637,0.561l-2.656,2.825l0.738,1.163
		l4.617-3.07l0.33,0.407l-2.541,5.376l3.113-2.094l-0.455,5.355l2.795-3.518l-0.279,5.702l2.43-3.433l0.836,0.398l-1.123,3.01
		l0.951,2.027l3.029-2.524l0.457,4.2l1.223-2.949l0.715,3.701l1.529,0.97l0.25-1.715l1.115,2.585l1.379-0.455l1.125,1.085
		l11.658,2.052l1.074,1.992l1.371-2.337l2.529,3.322l0.268-3.837l2.537,4.803l0.857-0.327l-1.686-3.524l0.557-0.189l2.393,4.818
		l0.461-0.097l-1.33-3.958l0.779-0.186l1.961,4.447l0.295-0.089l-0.529-3.494l0.666-0.075l1.566,4.588l0.4-0.086l-0.543-3.684
		l0.795-0.158l1.807,4.296l0.33-0.104l-1.25-3.233l0.559-0.232l4.023,5.513l0.516-0.169l-0.805-3.306l0.598-0.14l2.186,4.527
		l0.447-0.16l-1.209-3.521l0.344-0.129l1.471,2.506l0.285-1.352l1.223-0.324l0.91,3.901l0.324-0.094l-0.43-2.333l0.525-0.133
		l1.688,3.879l-0.117-2.908l0.482-0.013l1.102,3.294l0.291-0.043l0.006-2.161l0.564-0.024l0.996,2.796l0.348-1.994l0.631-0.048
		l1.316,3.079l0.031-1.888l0.83-0.182l0.395,1.513l1.281-0.003l22.088,15.534l-0.842,4.821l-0.689-9.346l0.541-0.584l-3.877-3.015
		l-1.445,0.169l1.41-2.117l-2.086,1.167l-0.424-0.354L833.697-24l-2.303,1.439l-0.385-0.337l1.139-2.146l-2.445,1.518l-0.398-0.424
		l1.666-2.206l-3.012,1.624l-0.441-0.429l1.211-2.175l-0.182-0.141l-2.246,1.767l-0.441-0.363l1.613-2.328l-0.232-0.19l-2.545,1.962
		l-0.49-0.429l1.738-2.334l-0.242-0.19l-2.314,1.972l-1.287-1.033l1.916-1.993l-0.191-0.182l-3.121,1.636l-0.385-0.363L822.615-32
		l-3.799,1.914l-0.373-0.442l2.43-2.337l-0.264-0.189l-3.342,1.862l-0.432-0.475l2.324-2.687l-3.855,2.184l-0.406-0.459l2.561-3.047
		l-3.994,2.412l-0.568-0.591l2.301-2.497l-0.137-0.111l-3.477,2.289l-0.578-0.546l2.99-3.773l-5.264,2.788l2.881-3.697l-0.195-0.236
		l-3.762,3.219l-0.594-0.516l2.697-3.588l-0.445-0.268l-4.258,2.813l3.023-3.915l-4.861,2.858l3.146-3.563l-5.408,3.026l3.381-4.251
		l-0.412-0.354l-4.428,3.758l-0.426-0.438l3.453-3.689l-0.414-0.344l-4.541,3.778l-0.449-0.415l3.512-4.286l-0.49-0.34l-4.275,4.267
		l-0.648-0.516l3.598-4.229l-0.494-0.377l-4.594,4.199l-0.57-0.476l3.635-4.458l-0.563-0.383l-5.121,4.288l-0.416-0.379l3.803-4.609
		l-0.57-0.398l-5.139,4.332l-0.441-0.436l4.133-4.322l-0.555-0.424l-5.465,4.808l-9.031-2.709l0.145-0.314l3.445,0.259l0.531-5.807
		l4.85-5.455l-1.123-5.143l8.143-5.955l1.352-3.009l1.816-0.989l-0.725-7.799l-2.535-2.438l0.393,0.888l-1.932-0.258l2.477,4.505
		l-0.031,3.241l-4.094,5.897l-8.836,3.474l-0.285,1.932l0.396,0.547l-7.217,6.592l-0.516-9.633l2.955-2.494l5.34-19.839
		l-3.738-5.655l-0.477-0.252l-0.135,1.002l-3.572-2.147l-0.365,0.399l2.402,2.354l1.893,8.436l1.018,1.129l-0.531-0.216
		L771.5-71.255l1.711,3.596l-2.043,0.447l-0.926,1.513l0.791,11.422l-4.861-2.273l-1.775,1.232l0.275,1.553l-1.598-0.376l1.443-4.89
		l-4.363,2.399l5.193-4.659l-6.314,2.297l-1.289-0.175l0.059-0.452l8.16-4.239l-0.279-0.446l-9.988,3.412l11.135-6.253l-0.406-0.536
		l-7.67,2.408l7.469-4.729l-13.576,3.874l11.93-4.186l-0.279-0.583l-10.436,3.245l-0.121-0.296l12.246-5.24l-0.236-0.508
		l-8.951,1.787l-0.086-0.279l7.895-3.606l-10.777,0.978l8.309-3.335l-0.258-0.489l-8.316,2.648l-0.344-1.222l6.137-3.233
		l-0.092-0.382l-6.045,1.517l2.818-3.204l-1.518-0.138l8.902-10.959l-0.656-8.436l-0.846-0.975l-3.693-1.559l3.227,4.91
		l-0.865,7.768L760.197-92.02L760.197-92.02z M785.416-61.888l-1.396,4.16l-4.9,3.085L785.416-61.888L785.416-61.888z
		 M782.434-59.539l-4.561,2.453L782.434-59.539L782.434-59.539z M765.277-53.17l4.52,2.17L765.277-53.17L765.277-53.17z
		 M751.281-68.355l-0.334-0.691l4.523-1.194L751.281-68.355L751.281-68.355z"/>
	<g opacity="0.2">
		<path fill="#97998D" d="M-968.797-51.379c0,0,6.645-2.172,7.359-0.494s6.969,4.726,4.336,5.395
			C-959.736-45.809-971.109-49.441-968.797-51.379z"/>
		<path fill="#AEB2A3" d="M-1080.566,54.133c-2.334,1.232,19.195,6.285,22.021,3.16c1.738-2.843-0.83-11.502-12.695-14.736
			c-12.408-3.242-14.547,1.84-13.408,3.479C-1082.715,47.75-1082.695,54.158-1080.566,54.133z"/>
		<path fill="#AEB2A3" d="M-1082.736-31.026c-0.061,2.253,2.299,5.873,6.053,5.844c3.752,0.029,6.109-3.591,6.053-5.844
			c0.061-2.313-2.299-2.391-6.053-2.421C-1080.436-33.418-1082.793-33.339-1082.736-31.026z"/>
		<path fill="#AEB2A3" d="M-1079.371,9.508c-0.059,1.617,2.217,4.656,5.83,4.63c3.611,0.026,5.887-3.015,5.83-4.63
			c0.055-1.674-2.217-1.304-5.83-1.332C-1077.156,8.203-1079.428,7.834-1079.371,9.508z"/>
		<path fill="#AEB2A3" d="M-1053.734,28.843c-0.039,1.702,1.584,4.318,4.166,4.298c2.582,0.021,4.207-2.596,4.168-4.298
			c0.041-1.744-1.584-1.925-4.168-1.944C-1052.152,26.918-1053.775,27.098-1053.734,28.843z"/>
		<path fill="#AEB2A3" d="M-1066.484,42.148c1.582,1.319,5.295,2.601,7.248,1.445c1.99-1.123,0.756-3.837-0.887-5.119
			c-1.619-1.35-3.029-0.771-5.02,0.354C-1067.096,39.983-1068.166,40.836-1066.484,42.148z"/>
		<path fill="#AEB2A3" d="M-1216.863-15.74c0,0,12.795-2.62,19.795,0.438c7,3.057,7.668,3.338,6.334,5.928s-5.186,7.293-11,4.838
			c-5.814-2.453-6.463-3.104-7.564-4.838S-1224.66-9.904-1216.863-15.74z"/>
		<path fill="#AEB2A3" d="M-956.914-42.672c0,0-12.797,2.62-19.797-0.438c-7-3.057-7.666-3.338-6.334-5.928
			c1.334-2.59,5.186-7.293,11-4.838c5.816,2.453,6.463,3.105,7.566,4.838C-963.377-47.304-949.117-48.508-956.914-42.672z"/>
		<path fill="#AEB2A3" d="M-1065.5-121.975c-1.473,1.115-2.049,2.693-3.02,4.066c2.697-1.84,5.586-1.447,8.5-0.766
			c3.932-0.918,7.865-1.834,11.801-2.752c-0.811-0.683-1.375-1.729-2.479-1.977"/>
		<path fill="#C6CCB8" d="M-1050.697-123.402c1.104,0.248,1.668,1.294,2.479,1.977c-3.389,2.116-6.809,4.162-11.801,2.752
			c-2.914-0.682-5.803-1.074-8.5,0.766c5.25,2.781,9.893,3.029,16.176,0.8c2.49-0.883,4.91-1.858,7.361-2.792
			c-1.443,0.328-2.889,0.656-3.35,0.762"/>
		<path fill="#AEB2A3" d="M-1048.332-119.139c0.461-0.105,1.906-0.434,3.35-0.762c0.58-0.541,1.258-1.057,1.721-1.631"/>
		<path fill="#97998D" d="M-1060.02-118.674c4.992,1.41,8.412-0.636,11.801-2.752
			C-1052.154-120.508-1056.088-119.592-1060.02-118.674z"/>
		<path fill="#ACACAC" d="M-1076.684-29.314l6.053-1.712c0,0,0.891-3.161-7.482-2.401
			C-1086.484-32.668-1076.684-29.314-1076.684-29.314z"/>
		<path fill="#97998D" d="M-1078.861,8.517c0,0,3.174-5.813,11.15,0.991"/>
		<path fill="#97998D" d="M-1209.299-9.375c0,0,16.064-2.137,18.564,0c2.5,2.136,6.521-8.152-7-4.46
			C-1211.258-10.142-1215.543-13.646-1209.299-9.375z"/>
		<path fill="#97998D" d="M-1045.93,30.787c0,0,5.195-3.499-2.305-4.038c-7.5-0.538-5.854,1.333-2.553,2.019
			C-1047.484,29.453-1045.93,30.787-1045.93,30.787z"/>
		<path fill="#97998D" d="M-963.744-47.582c0,0-12.703-0.408-14.598,0c-1.893,0.408-1.064-1.789,2.646-2.142
			S-963.744-47.582-963.744-47.582z"/>
		<path fill="#97998D" d="M-1070.084-30.289c0,0-8.117-1.764-9.309,0C-1080.584-28.527-1070.084-30.289-1070.084-30.289z"/>
		<path fill="#97998D" d="M-1080.793,54.965c2.559-0.936,1.992-6.164,8.025-6.621c6.033-0.459,11.9-0.784,9.592-1.901
			c-2.309-1.118-7.326-3.955-10.289-4.401C-1076.43,41.594-1080.793,54.965-1080.793,54.965z"/>
		<path fill="#C6CCB8" d="M-1082.387,51.723c0,0,16.299-9.361,8.922-9.682C-1080.844,41.72-1089.289,38.493-1082.387,51.723z"/>
		<path fill="#97998D" d="M-1040.262-41.228c0,0,7.615,1.395,7.633-1.85c0.018-3.243,2.529-5.172-2.037-4.454
			c-4.568,0.719-8.326,5.505-6.961,5.904"/>
		<polygon fill="#97998D" points="-990.24,-20.266 -997.051,-18.289 -997.051,-21.891 		"/>
		<path fill="#97998D" d="M-992.66-11.861l1.309-3.879c0,0-0.244-3.289-4.813-0.039C-1000.734-12.529-997.836-11.706-992.66-11.861z
			"/>
		<path fill="#97998D" d="M-975.506-78.725c4.264-0.264,3.15-1.829,2.043-3.278c-1.764-2.308-6.645-3.028-10.193-1.571
			C-980.576-82.183-976.465-81.434-975.506-78.725z"/>
		<path fill="#AEB2A3" d="M-975.506-78.725c-0.959-2.709-5.07-3.458-8.15-4.85c0.67,1.703,0.906,3.555,2.262,5.021
			C-980.965-78.086-977.553-78.638-975.506-78.725z"/>
		<path fill="#AEB2A3" d="M-1056.879-112.693c-1.637,0.525-3.273,1.051-4.91,1.578c-0.252,0.081-0.504,0.162-0.756,0.244
			c-0.049,0.418-0.098,0.838-0.146,1.258c1.207-0.051,2.414-0.101,3.621-0.152c0.811-0.596,1.621-1.191,2.43-1.785
			C-1056.719-111.933-1056.799-112.313-1056.879-112.693z"/>
		<path fill="#C6CCB8" d="M-1056.641-111.551c-0.809,0.594-1.619,1.189-2.43,1.785c0.18,0.066,0.357,0.135,0.535,0.202
			c0.879-0.15,1.758-0.302,2.639-0.452c-0.098,0.42-0.195,0.839-0.293,1.259c0.113,0.155,0.229,0.31,0.342,0.464
			c3.244-1.553,2.301-2.928,0.146-4.252C-1056.014-112.214-1056.326-111.883-1056.641-111.551z"/>
		<path fill="#97998D" d="M-1038.561-123.436"/>
		<path fill="#97998D" d="M-1056.641-111.551c0.314-0.332,0.627-0.663,0.939-0.994c-0.393-0.051-0.785-0.1-1.178-0.148
			C-1056.799-112.313-1056.719-111.933-1056.641-111.551z"/>
		<path fill="#737373" d="M-1062.545-110.871c0.252-0.082,0.504-0.163,0.756-0.244
			C-1062.072-111.079-1062.324-110.998-1062.545-110.871z"/>
		<path fill="#AEB2A3" d="M-762.74-96.683c0.811,1.556,14.518-4.671,11.434-7.363c-3.086-2.112-15.107-5.358-23.242-2.149
			c-8.326,3.425-2.488,6.809,0.006,7.158C-771.688-98.972-763.418-95.808-762.74-96.683z"/>
		<path fill="#AEB2A3" d="M-1218.436,6.193c-0.061,2.254,2.299,5.873,6.053,5.844c3.752,0.029,6.109-3.592,6.053-5.844
			c0.061-2.312-2.299-2.392-6.053-2.421C-1216.135,3.802-1218.494,3.882-1218.436,6.193z"/>
		<path fill="#AEB2A3" d="M-747.006-54.059c2.037,0.828,7.031,0.965,8.768-1.198c1.807-2.135-0.961-4.981-3.051-5.738
			c-2.111-0.854-2.752,0.68-4.561,2.815C-747.586-56.016-749.172-54.845-747.006-54.059z"/>
		<path fill="#AEB2A3" d="M-709.752-59.831c2.154,0.858,6.291,1.176,7.531-0.371c1.291-1.526-1.252-3.775-3.445-4.588
			c-2.207-0.878-3.234,0-4.525,1.526C-711.432-61.717-712-60.663-709.752-59.831z"/>
		<path fill="#AEB2A3" d="M-699.014-45.721c2.457-0.295,5.914-1.876,5.398-3.604c-0.459-1.736-4.529-2.332-6.971-1.983
			c-2.518,0.302-2.471,1.424-2.012,3.16C-702.08-46.42-701.516-45.365-699.014-45.721z"/>
		<path fill="#AEB2A3" d="M-681.379-25.463c2.865,2.605,6.613,3.258,11.855,2.236c3.459-0.675,7.635-0.318,10.924-1.135
			c3.047-0.755,5.34-2.455,7.965-3.738c-5.381,1.135-8.859-0.559-12.09-2.617c-6.137-0.52-12.279-1.038-18.418-1.557
			c0.42,1.179,0.164,2.701,1.398,3.469C-676.703-26.916-679.311-26.32-681.379-25.463z"/>
		<path fill="#C6CCB8" d="M-681.379-25.463c2.068-0.857,4.676-1.453,1.635-3.342c-1.234-0.768-0.979-2.29-1.398-3.469
			c6.57-1.186,13.115-2.271,18.418,1.557c3.23,2.059,6.709,3.752,12.09,2.617c-4.322-5.62-10.281-7.871-20.824-7.759
			c-4.182,0.044-8.354,0.229-12.531,0.351c2.244,0.203,4.492,0.404,5.209,0.468c-3.643,0.976-8.275,2.218-13.328,3.571
			c2.379,2.023,3.912,3.327,5.443,4.63C-684.904-26.38-683.143-25.922-681.379-25.463z"/>
		<path fill="#AEB2A3" d="M-686.666-26.839c-1.531-1.303-3.064-2.606-5.443-4.63c5.053-1.354,9.686-2.596,13.328-3.571
			c-0.717-0.063-2.965-0.265-5.209-0.468c-1.297,0.426-2.701,0.773-3.873,1.287C-695.73-30.777-695.57-29.877-686.666-26.839z"/>
		<path fill="#97998D" d="M-662.725-30.717c-5.303-3.827-11.848-2.742-18.418-1.557C-675.004-31.755-668.861-31.236-662.725-30.717z
			"/>
		<path fill="#ACACAC" d="M-1212.383,7.904l6.053-1.711c0,0,0.891-3.16-7.482-2.4C-1222.184,4.553-1212.383,7.904-1212.383,7.904z"
			/>
		<path fill="#97998D" d="M-748.021-54.848c0,0-5.867-4.738,6.732-6.147"/>
		<path fill="#97998D" d="M-703.445-63.521c0,0-1.918-4.806-6.283-0.608c-4.363,4.198-1.166,4.138,1.326,2.508
			C-705.908-63.25-703.445-63.521-703.445-63.521z"/>
		<path fill="#97998D" d="M-1205.783,6.93c0,0-8.117-1.763-9.309,0C-1216.283,8.693-1205.783,6.93-1205.783,6.93z"/>
		<path fill="#97998D" d="M-761.744-96.178c-0.35-1.502-7.279-3.86-5.854-6.533c1.424-2.673,2.965-5.213,0.752-4.83
			c-2.211,0.383-7.545,1.011-9.111,1.992C-777.523-104.568-761.744-96.178-761.744-96.178z"/>
		<path fill="#C6CCB8" d="M-766.455-97.139c0,0-6.625-11.242-9.502-8.41C-778.836-102.717-785.818-100.891-766.455-97.139z"/>
		<path fill="#97998D" d="M-792.605-102.202c0,0,5.514-3.847,1.381-5.448s-5.363-4.041-6.686-0.972
			c-1.324,3.069,2.945,7.653,4.125,7.036"/>
		<path fill="#97998D" d="M-314.586-76.746c0,0-6.646,2.172-7.361,0.495c-0.715-1.679-6.969-4.727-4.334-5.396
			C-323.646-82.316-312.275-78.684-314.586-76.746z"/>
		<path fill="#AEB2A3" d="M-200.646-97.099c0.061-2.253-2.301-5.873-6.055-5.844c-3.752-0.029-6.109,3.592-6.053,5.844
			c-0.061,2.313,2.299,2.392,6.053,2.421C-202.949-94.707-200.59-94.786-200.646-97.099z"/>
		<path fill="#AEB2A3" d="M-74.084-118.75c1.102,1.733,15.361,0.531,7.564,6.365c0,0-12.797,2.621-19.797-0.436
			c-7-3.058-7.666-3.339-6.334-5.93"/>
		<path fill="#AEB2A3" d="M-326.469-85.452c0,0,12.795-2.621,19.795,0.437c7,3.057,7.668,3.338,6.334,5.929
			c-1.334,2.589-5.186,7.292-11,4.839c-5.814-2.455-6.463-3.105-7.564-4.839S-334.266-79.617-326.469-85.452z"/>
		<path fill="#AEB2A3" d="M-232.092-2.21c2.953,1.112,5.514,0.772,8.18-0.967c1.76-1.147,4.438-1.769,6.027-2.974
			c1.475-1.115,2.049-2.693,3.021-4.066c-2.699,1.84-5.588,1.448-8.5,0.766c-3.934,0.918-7.867,1.836-11.801,2.754
			c0.809,0.681,1.375,1.727,2.479,1.975C-229.969-4.114-231.254-3.191-232.092-2.21z"/>
		<path fill="#C6CCB8" d="M-232.092-2.21c0.838-0.981,2.123-1.904-0.594-2.513c-1.104-0.248-1.67-1.294-2.479-1.975
			c3.389-2.118,6.809-4.163,11.801-2.754c2.912,0.683,5.801,1.074,8.5-0.766c-5.252-2.779-9.895-3.027-16.176-0.8
			c-2.49,0.884-4.91,1.858-7.363,2.794c1.445-0.33,2.889-0.658,3.352-0.764c-1.729,1.382-3.926,3.139-6.322,5.054
			c2.385,0.833,3.92,1.37,5.457,1.908C-234.643-2.088-233.367-2.148-232.092-2.21z"/>
		<path fill="#AEB2A3" d="M-235.916-2.024c-1.537-0.538-3.072-1.075-5.457-1.908c2.396-1.915,4.594-3.672,6.322-5.054
			c-0.463,0.105-1.906,0.434-3.352,0.764c-0.578,0.541-1.258,1.055-1.719,1.629C-243.223-2.739-242.701-2.186-235.916-2.024z"/>
		<path fill="#97998D" d="M-223.363-9.451c-4.992-1.409-8.412,0.636-11.801,2.754C-231.23-7.615-227.297-8.533-223.363-9.451z"/>
		<path fill="#ACACAC" d="M-206.701-98.809l-6.053,1.71c0,0-0.889,3.161,7.482,2.401C-196.898-95.457-206.701-98.809-206.701-98.809
			z"/>
		<path fill="#97998D" d="M-74.084-118.75c0,0-16.066,2.137-18.566,0c-2.498-2.136-6.521,8.153,7.002,4.46
			C-72.127-117.982-67.842-114.477-74.084-118.75z"/>
		<path fill="#97998D" d="M-319.641-80.543c0,0,12.705,0.408,14.598,0c1.895-0.408,1.066,1.789-2.645,2.142
			S-319.641-80.543-319.641-80.543z"/>
		<path fill="#97998D" d="M-213.299-97.834c0,0,8.117,1.762,9.309,0C-202.799-99.598-213.299-97.834-213.299-97.834z"/>
		<path fill="#97998D" d="M-243.121-86.897c0,0-7.615-1.395-7.633,1.85c-0.018,3.243-2.531,5.173,2.037,4.454
			c4.568-0.717,8.326-5.505,6.961-5.903"/>
		<polygon fill="#97998D" points="-293.145,-107.859 -286.332,-109.834 -286.332,-106.232 		"/>
		<path fill="#97998D" d="M-290.723-116.264l-1.309,3.879c0,0,0.242,3.289,4.813,0.04
			C-282.648-115.596-285.547-116.419-290.723-116.264z"/>
		<path fill="#97998D" d="M-307.879-49.4c-4.262,0.265-3.15,1.83-2.041,3.279c1.764,2.307,6.643,3.027,10.191,1.57
			C-302.807-45.941-306.918-46.69-307.879-49.4z"/>
		<path fill="#AEB2A3" d="M-307.879-49.4c0.961,2.71,5.072,3.459,8.15,4.85c-0.668-1.702-0.904-3.553-2.26-5.021
			C-302.418-50.038-305.83-49.486-307.879-49.4z"/>
		<path fill="#AEB2A3" d="M-226.506-15.43c1.639-0.526,3.275-1.053,4.912-1.58c0.252-0.081,0.502-0.162,0.754-0.244
			c0.051-0.418,0.098-0.838,0.148-1.258c-1.207,0.051-2.416,0.102-3.621,0.152c-0.811,0.596-1.621,1.191-2.432,1.787
			C-226.664-16.192-226.584-15.811-226.506-15.43z"/>
		<path fill="#C6CCB8" d="M-226.744-16.572c0.811-0.596,1.621-1.191,2.432-1.787c-0.18-0.066-0.357-0.133-0.535-0.202
			c-0.879,0.151-1.76,0.302-2.641,0.452c0.098-0.419,0.195-0.839,0.293-1.258c-0.113-0.154-0.227-0.311-0.342-0.465
			c-3.242,1.553-2.299,2.93-0.145,4.253C-227.369-15.911-227.057-16.242-226.744-16.572z"/>
		<path fill="#97998D" d="M-239.451-1.508c-0.008-0.173-0.016-0.346-0.021-0.52c-0.541-0.471-1.08-0.939-1.621-1.41
			c-0.117-0.113-0.236-0.227-0.357-0.339c-1.125-0.304-2.248-0.609-3.373-0.913C-245.012-2.393-243.283-1.293-239.451-1.508z"/>
		<path fill="#97998D" d="M-226.744-16.572c-0.313,0.33-0.625,0.661-0.938,0.993c0.393,0.05,0.783,0.099,1.176,0.149
			C-226.584-15.811-226.664-16.192-226.744-16.572z"/>
		<path fill="#737373" d="M-220.84-17.254c-0.252,0.082-0.502,0.163-0.754,0.244C-221.311-17.046-221.061-17.127-220.84-17.254z"/>
		<path fill="#AEB2A3" d="M-241.094-3.438c0.541,0.471,1.08,0.939,1.621,1.41c0.35-0.351,0.699-0.703,1.049-1.053
			C-239.314-3.201-240.203-3.319-241.094-3.438z"/>
		<path fill="#97998D" d="M-512.855,21.573c0,0-0.486,5.021-2.979,4.622c-2.492-0.396-9.451,1.83-9.014-0.066
			C-524.41,24.233-514.197,19.248-512.855,21.573z"/>
		<path fill="#AEB2A3" d="M-520.645-31.441c-0.809-1.557-14.518,4.67-11.432,7.362c3.084,2.113,15.105,5.358,23.24,2.149
			c8.326-3.425,2.488-6.809-0.004-7.157C-511.697-29.152-519.965-32.317-520.645-31.441z"/>
		<path fill="#AEB2A3" d="M-536.377-74.066c-2.037-0.828-7.033-0.965-8.77,1.198c-1.805,2.136,0.961,4.981,3.053,5.738
			c2.109,0.854,2.752-0.679,4.559-2.815C-535.797-72.109-534.213-73.28-536.377-74.066z"/>
		<path fill="#AEB2A3" d="M-573.631-68.294c-2.156-0.858-6.291-1.175-7.533,0.372c-1.291,1.525,1.252,3.774,3.447,4.587
			c2.205,0.88,3.232,0.001,4.523-1.526C-571.951-66.408-571.385-67.462-573.631-68.294z"/>
		<path fill="#AEB2A3" d="M-584.369-82.402c-2.459,0.295-5.916,1.875-5.398,3.604c0.459,1.734,4.527,2.33,6.971,1.982
			c2.516-0.303,2.469-1.425,2.01-3.16C-581.305-81.705-581.867-82.76-584.369-82.402z"/>
		<path fill="#AEB2A3" d="M-529.799,24.375c0,0,2.928-8.897,10.264-11.564c7.336-2.665,8.021-2.925,10.674-0.861
			c2.654,2.063,6.77,6.66,0.785,8.918c-5.984,2.256-7.133,2.322-9.887,2.127C-520.717,22.801-526.172,31.875-529.799,24.375z"/>
		<path fill="#AEB2A3" d="M-602.006-102.662c-2.865-2.605-6.613-3.258-11.854-2.234c-3.461,0.674-7.637,0.318-10.924,1.133
			c-3.049,0.755-5.342,2.455-7.967,3.738c5.383-1.133,8.859,0.559,12.09,2.617c6.139,0.52,12.279,1.038,18.42,1.557
			c-0.422-1.178-0.166-2.701-1.398-3.469C-606.682-101.207-604.072-101.804-602.006-102.662z"/>
		<path fill="#C6CCB8" d="M-602.006-102.662c-2.066,0.858-4.676,1.455-1.633,3.342c1.232,0.768,0.977,2.291,1.398,3.469
			c-6.57,1.187-13.117,2.271-18.42-1.557c-3.23-2.059-6.707-3.75-12.09-2.617c4.322,5.62,10.283,7.871,20.826,7.76
			c4.18-0.043,8.354-0.23,12.531-0.352c-2.246-0.203-4.494-0.402-5.211-0.468c3.643-0.975,8.277-2.216,13.328-3.569
			c-2.377-2.023-3.912-3.328-5.441-4.632C-598.48-101.745-600.24-102.203-602.006-102.662z"/>
		<path fill="#AEB2A3" d="M-596.717-101.286c1.529,1.304,3.064,2.608,5.441,4.632c-5.051,1.354-9.686,2.595-13.328,3.569
			c0.717,0.065,2.965,0.265,5.211,0.468c1.297-0.426,2.699-0.773,3.871-1.287C-587.652-97.348-587.814-98.246-596.717-101.286z"/>
		<path fill="#97998D" d="M-620.66-97.408c5.303,3.828,11.85,2.743,18.42,1.557C-608.381-96.37-614.521-96.889-620.66-97.408z"/>
		<path fill="#97998D" d="M-535.361-73.276c0,0,5.865,4.737-6.732,6.146"/>
		<path fill="#97998D" d="M-579.939-64.604c0,0,1.918,4.807,6.283,0.608s1.168-4.136-1.326-2.508S-579.939-64.604-579.939-64.604z"
			/>
		<path fill="#97998D" d="M-520.182,22.719c0,0,6.75-7.358,7.156-8.686c0.408-1.326,2.807,0.244,1.438,2.625
			S-520.182,22.719-520.182,22.719z"/>
		<path fill="#97998D" d="M-521.641-31.945c0.352,1.5,7.281,3.859,5.855,6.531c-1.426,2.674-2.967,5.214-0.754,4.831
			c2.211-0.383,7.547-1.012,9.113-1.993C-505.859-23.557-521.641-31.945-521.641-31.945z"/>
		<path fill="#C6CCB8" d="M-516.928-30.986c0,0,6.623,11.243,9.502,8.41C-504.547-25.408-497.564-27.234-516.928-30.986z"/>
		<path fill="#97998D" d="M-490.777-25.923c0,0-5.516,3.849-1.381,5.448c4.133,1.602,5.363,4.042,6.686,0.972
			c1.322-3.069-2.947-7.651-4.125-7.036"/>
		<polygon fill="#97998D" points="-233.055,5.827 -226.242,3.852 -226.242,7.452 		"/>
		<path fill="#97998D" d="M-250.711,52.946l-1.309,3.878c0,0,0.242,3.289,4.813,0.039C-242.637,53.614-245.535,52.79-250.711,52.946
			z"/>
		<path fill="#97998D" d="M-474.656,30.99c-1.752,2.666,0.793,2.771,3.186,2.822c3.811,0.082,7.123-2.469,7.004-5.294
			C-467.752,29.669-470.725,31.748-474.656,30.99z"/>
		<path fill="#AEB2A3" d="M-474.656,30.99c3.932,0.758,6.904-1.321,10.189-2.472c-2.502-0.438-4.98-1.204-7.52-1.117
			C-472.793,27.43-473.762,29.729-474.656,30.99z"/>
		<path fill="#AEB2A3" d="M-384.541,10.584c-0.887,1.078-1.773,2.155-2.658,3.232c-0.135,0.165-0.271,0.332-0.408,0.497
			c0.316,0.361,0.635,0.723,0.951,1.083c0.939-0.52,1.879-1.039,2.818-1.559c0.154-0.806,0.309-1.612,0.461-2.418
			C-383.764,11.142-384.152,10.863-384.541,10.584z"/>
		<path fill="#C6CCB8" d="M-383.377,11.42c-0.152,0.806-0.307,1.612-0.461,2.418c0.203-0.018,0.406-0.032,0.607-0.047
			c0.588-0.471,1.178-0.943,1.766-1.413c0.277,0.38,0.555,0.76,0.83,1.14c0.225,0.082,0.449,0.162,0.674,0.242
			c1.322-2.549-0.615-3.294-3.496-3.521C-383.43,10.634-383.402,11.027-383.377,11.42z"/>
		<path fill="#97998D" d="M-379.961,13.76c-0.225-0.08-0.449-0.16-0.672-0.242c-0.867,0.092-1.73,0.183-2.598,0.273
			c-0.201,0.015-0.404,0.029-0.607,0.047c-0.939,0.52-1.879,1.039-2.818,1.559C-383.816,16.635-381.564,16.146-379.961,13.76z"/>
		<path fill="#97998D" d="M-383.377,11.42c-0.025-0.393-0.053-0.786-0.08-1.181c-0.361,0.116-0.723,0.23-1.084,0.345
			C-384.152,10.863-383.764,11.142-383.377,11.42z"/>
		<path fill="#737373" d="M-387.607,14.313c0.137-0.165,0.273-0.332,0.408-0.497C-387.398,13.957-387.535,14.123-387.607,14.313z"/>
		<path fill="#AEB2A3" d="M-383.23,13.791c0.867-0.091,1.73-0.182,2.598-0.273c-0.277-0.38-0.555-0.76-0.832-1.14
			C-382.053,12.848-382.643,13.32-383.23,13.791z"/>
		<path fill="#97998D" d="M245.938-51.379c0,0,6.646-2.172,7.361-0.494s6.969,4.726,4.334,5.395
			C254.998-45.809,243.627-49.441,245.938-51.379z"/>
		<path fill="#AEB2A3" d="M134.168,54.133c-2.332,1.232,19.195,6.285,22.021,3.16c1.74-2.843-0.828-11.502-12.693-14.736
			c-12.408-3.242-14.549,1.84-13.408,3.479C132.02,47.75,132.041,54.158,134.168,54.133z"/>
		<path fill="#AEB2A3" d="M131.998-31.026c-0.061,2.253,2.301,5.873,6.055,5.844c3.752,0.029,6.109-3.591,6.053-5.844
			c0.061-2.313-2.299-2.391-6.053-2.421C134.301-33.418,131.941-33.339,131.998-31.026z"/>
		<path fill="#AEB2A3" d="M135.365,9.508c-0.059,1.617,2.217,4.656,5.828,4.63c3.611,0.026,5.889-3.015,5.83-4.63
			c0.057-1.674-2.217-1.304-5.83-1.332C137.58,8.203,135.307,7.834,135.365,9.508z"/>
		<path fill="#AEB2A3" d="M161,28.843c-0.039,1.702,1.584,4.318,4.168,4.298c2.58,0.021,4.207-2.596,4.166-4.298
			c0.041-1.744-1.584-1.925-4.166-1.944C162.584,26.918,160.961,27.098,161,28.843z"/>
		<path fill="#AEB2A3" d="M148.252,42.148c1.58,1.319,5.295,2.601,7.248,1.445c1.99-1.123,0.756-3.837-0.887-5.119
			c-1.619-1.35-3.029-0.771-5.02,0.354C147.639,39.983,146.57,40.836,148.252,42.148z"/>
		<path fill="#AEB2A3" d="M-2.129-15.74c0,0,12.797-2.62,19.797,0.438c7,3.057,7.666,3.338,6.334,5.928
			c-1.334,2.59-5.186,7.293-11,4.838C7.186-6.99,6.539-7.642,5.436-9.375C4.334-11.108-9.926-9.904-2.129-15.74z"/>
		<path fill="#AEB2A3" d="M257.82-42.672c0,0-12.795,2.62-19.795-0.438c-7-3.057-7.668-3.338-6.334-5.928s5.186-7.293,11-4.838
			c5.814,2.453,6.463,3.105,7.564,4.838C251.357-47.304,265.617-48.508,257.82-42.672z"/>
		<path fill="#C6CCB8" d="M162.391-117.108"/>
		<path fill="#ACACAC" d="M138.053-29.314l6.053-1.712c0,0,0.889-3.161-7.482-2.401C128.25-32.668,138.053-29.314,138.053-29.314z"
			/>
		<path fill="#97998D" d="M135.875,8.517c0,0,3.172-5.813,11.148,0.991"/>
		<path fill="#97998D" d="M5.436-9.375c0,0,16.066-2.137,18.566,0c2.498,2.136,6.521-8.152-7.002-4.46
			C3.479-10.142-0.807-13.646,5.436-9.375z"/>
		<path fill="#97998D" d="M168.805,30.787c0,0,5.195-3.499-2.305-4.038c-7.5-0.538-5.854,1.333-2.551,2.019
			C167.25,29.453,168.805,30.787,168.805,30.787z"/>
		<path fill="#97998D" d="M250.992-47.582c0,0-12.705-0.408-14.598,0c-1.895,0.408-1.066-1.789,2.645-2.142
			S250.992-47.582,250.992-47.582z"/>
		<path fill="#97998D" d="M144.65-30.289c0,0-8.117-1.764-9.309,0C134.15-28.527,144.65-30.289,144.65-30.289z"/>
		<path fill="#97998D" d="M133.941,54.965c2.559-0.936,1.994-6.164,8.027-6.621c6.031-0.459,11.898-0.784,9.59-1.901
			c-2.309-1.118-7.324-3.955-10.289-4.401C138.305,41.594,133.941,54.965,133.941,54.965z"/>
		<path fill="#C6CCB8" d="M132.348,51.723c0,0,16.299-9.361,8.922-9.682C133.893,41.72,125.445,38.493,132.348,51.723z"/>
		<path fill="#97998D" d="M174.473-41.228c0,0,7.615,1.395,7.633-1.85c0.018-3.243,2.531-5.172-2.037-4.454
			c-4.568,0.719-8.326,5.505-6.961,5.904"/>
		<polygon fill="#97998D" points="224.496,-20.266 217.684,-18.289 217.684,-21.891 		"/>
		<path fill="#97998D" d="M222.074-11.861l1.309-3.879c0,0-0.242-3.289-4.813-0.039S216.898-11.706,222.074-11.861z"/>
		<path fill="#97998D" d="M239.23-78.725c4.262-0.264,3.15-1.829,2.041-3.278c-1.764-2.308-6.643-3.028-10.191-1.571
			C234.158-82.183,238.27-81.434,239.23-78.725z"/>
		<path fill="#AEB2A3" d="M239.23-78.725c-0.961-2.709-5.072-3.458-8.15-4.85c0.668,1.703,0.904,3.555,2.26,5.021
			C233.77-78.086,237.182-78.638,239.23-78.725z"/>
		<path fill="#AEB2A3" d="M157.857-112.693c-1.639,0.525-3.275,1.051-4.912,1.578c-0.252,0.081-0.502,0.162-0.754,0.244
			c-0.051,0.418-0.098,0.838-0.148,1.258c1.207-0.051,2.416-0.101,3.621-0.152c0.811-0.596,1.621-1.191,2.432-1.785
			C158.016-111.933,157.936-112.313,157.857-112.693z"/>
		<path fill="#C6CCB8" d="M158.096-111.551c-0.811,0.594-1.621,1.189-2.432,1.785c0.18,0.066,0.357,0.135,0.535,0.202
			c0.879-0.15,1.76-0.302,2.641-0.452c-0.098,0.42-0.195,0.839-0.293,1.259c0.113,0.155,0.227,0.31,0.342,0.464
			c3.242-1.553,2.299-2.928,0.145-4.252C158.721-112.214,158.408-111.883,158.096-111.551z"/>
		<path fill="#97998D" d="M158.096-111.551c0.313-0.332,0.625-0.663,0.938-0.994c-0.393-0.051-0.783-0.1-1.176-0.148
			C157.936-112.313,158.016-111.933,158.096-111.551z"/>
		<path fill="#737373" d="M152.191-110.871c0.252-0.082,0.502-0.163,0.754-0.244C152.662-111.079,152.412-110.998,152.191-110.871z"
			/>
		<path fill="#AEB2A3" d="M451.996-96.683c0.809,1.556,14.518-4.671,11.432-7.363c-3.084-2.112-15.105-5.358-23.24-2.149
			c-8.326,3.425-2.488,6.809,0.004,7.158C443.049-98.972,451.316-95.808,451.996-96.683z"/>
		<path fill="#AEB2A3" d="M-3.701,6.193c-0.061,2.254,2.301,5.873,6.053,5.844c3.754,0.029,6.111-3.592,6.055-5.844
			c0.059-2.312-2.301-2.392-6.055-2.421C-1.4,3.802-3.758,3.882-3.701,6.193z"/>
		<path fill="#AEB2A3" d="M467.729-54.059c2.037,0.828,7.033,0.965,8.77-1.198c1.805-2.135-0.961-4.981-3.053-5.738
			c-2.109-0.854-2.752,0.68-4.559,2.815C467.148-56.016,465.564-54.845,467.729-54.059z"/>
		<path fill="#AEB2A3" d="M504.982-59.831c2.156,0.858,6.291,1.176,7.533-0.371c1.291-1.526-1.252-3.775-3.447-4.588
			c-2.205-0.878-3.232,0-4.523,1.526C503.303-61.717,502.736-60.663,504.982-59.831z"/>
		<path fill="#AEB2A3" d="M515.721-45.721c2.459-0.295,5.916-1.876,5.398-3.604c-0.459-1.736-4.527-2.332-6.971-1.983
			c-2.516,0.302-2.469,1.424-2.01,3.16C512.656-46.42,513.219-45.365,515.721-45.721z"/>
		<path fill="#AEB2A3" d="M533.357-25.463c2.865,2.605,6.613,3.258,11.854,2.236c3.461-0.675,7.637-0.318,10.924-1.135
			c3.049-0.755,5.342-2.455,7.967-3.738c-5.383,1.135-8.859-0.559-12.09-2.617c-6.139-0.52-12.279-1.038-18.42-1.557
			c0.422,1.179,0.166,2.701,1.398,3.469C538.033-26.916,535.424-26.32,533.357-25.463z"/>
		<path fill="#C6CCB8" d="M533.357-25.463c2.066-0.857,4.676-1.453,1.633-3.342c-1.232-0.768-0.977-2.29-1.398-3.469
			c6.57-1.186,13.117-2.271,18.42,1.557c3.23,2.059,6.707,3.752,12.09,2.617c-4.322-5.62-10.283-7.871-20.826-7.759
			c-4.18,0.044-8.354,0.229-12.531,0.351c2.246,0.203,4.494,0.404,5.211,0.468c-3.643,0.976-8.277,2.218-13.328,3.571
			c2.377,2.023,3.912,3.327,5.441,4.63C529.832-26.38,531.592-25.922,533.357-25.463z"/>
		<path fill="#AEB2A3" d="M528.068-26.839c-1.529-1.303-3.064-2.606-5.441-4.63c5.051-1.354,9.686-2.596,13.328-3.571
			c-0.717-0.063-2.965-0.265-5.211-0.468c-1.297,0.426-2.699,0.773-3.871,1.287C519.004-30.777,519.166-29.877,528.068-26.839z"/>
		<path fill="#97998D" d="M552.012-30.717c-5.303-3.827-11.85-2.742-18.42-1.557C539.732-31.755,545.873-31.236,552.012-30.717z"/>
		<path fill="#ACACAC" d="M2.352,7.904l6.055-1.711c0,0,0.889-3.16-7.482-2.4C-7.449,4.553,2.352,7.904,2.352,7.904z"/>
		<path fill="#97998D" d="M466.713-54.848c0,0-5.865-4.738,6.732-6.147"/>
		<path fill="#97998D" d="M511.291-63.521c0,0-1.918-4.806-6.283-0.608c-4.365,4.198-1.168,4.138,1.326,2.508
			C508.828-63.25,511.291-63.521,511.291-63.521z"/>
		<path fill="#97998D" d="M8.951,6.93c0,0-8.117-1.763-9.309,0C-1.549,8.693,8.951,6.93,8.951,6.93z"/>
		<path fill="#97998D" d="M452.992-96.178c-0.352-1.502-7.281-3.86-5.855-6.533s2.967-5.213,0.754-4.83
			c-2.211,0.383-7.547,1.011-9.113,1.992C437.211-104.568,452.992-96.178,452.992-96.178z"/>
		<path fill="#C6CCB8" d="M448.279-97.139c0,0-6.623-11.242-9.502-8.41S428.916-100.891,448.279-97.139z"/>
		<path fill="#97998D" d="M422.129-102.202c0,0,5.516-3.847,1.381-5.448c-4.133-1.602-5.363-4.041-6.686-0.972
			s2.947,7.653,4.125,7.036"/>
		<path fill="#97998D" d="M900.148-76.746c0,0-6.645,2.172-7.359,0.495c-0.715-1.679-6.969-4.727-4.336-5.396
			C891.088-82.316,902.461-78.684,900.148-76.746z"/>
		<path fill="#AEB2A3" d="M1014.088-97.099c0.061-2.253-2.299-5.873-6.053-5.844c-3.752-0.029-6.109,3.592-6.053,5.844
			c-0.061,2.313,2.299,2.392,6.053,2.421C1011.787-94.707,1014.145-94.786,1014.088-97.099z"/>
		<path fill="#AEB2A3" d="M1148.215-112.385c0,0-12.795,2.621-19.795-0.436c-7-3.058-7.668-3.339-6.334-5.93
			c1.334-2.589,5.186-7.291,11-4.838c5.814,2.454,6.463,3.104,7.564,4.838S1156.012-118.219,1148.215-112.385z"/>
		<path fill="#AEB2A3" d="M888.266-85.452c0,0,12.797-2.621,19.797,0.437c7,3.057,7.666,3.338,6.334,5.929
			c-1.334,2.589-5.186,7.292-11,4.839c-5.816-2.455-6.463-3.105-7.566-4.839C894.729-80.82,880.469-79.617,888.266-85.452z"/>
		<path fill="#AEB2A3" d="M982.645-2.21c2.953,1.112,5.512,0.772,8.178-0.967c1.76-1.147,4.438-1.769,6.029-2.974
			c1.473-1.115,2.049-2.693,3.02-4.066c-2.697,1.84-5.586,1.448-8.5,0.766c-3.932,0.918-7.865,1.836-11.801,2.754
			c0.811,0.681,1.375,1.727,2.479,1.975C984.768-4.114,983.482-3.191,982.645-2.21z"/>
		<path fill="#C6CCB8" d="M982.645-2.21c0.838-0.981,2.123-1.904-0.596-2.513c-1.104-0.248-1.668-1.294-2.479-1.975
			c3.389-2.118,6.809-4.163,11.801-2.754c2.914,0.683,5.803,1.074,8.5-0.766c-5.25-2.779-9.893-3.027-16.176-0.8
			c-2.49,0.884-4.91,1.858-7.361,2.794c1.443-0.33,2.889-0.658,3.35-0.764c-1.727,1.382-3.926,3.139-6.322,5.054
			c2.385,0.833,3.922,1.37,5.457,1.908C980.094-2.088,981.369-2.148,982.645-2.21z"/>
		<path fill="#AEB2A3" d="M978.818-2.024c-1.535-0.538-3.072-1.075-5.457-1.908c2.396-1.915,4.596-3.672,6.322-5.054
			c-0.461,0.105-1.906,0.434-3.35,0.764c-0.58,0.541-1.258,1.055-1.721,1.629C971.512-2.739,972.033-2.186,978.818-2.024z"/>
		<path fill="#97998D" d="M991.371-9.451c-4.992-1.409-8.412,0.636-11.801,2.754C983.506-7.615,987.439-8.533,991.371-9.451z"/>
		<path fill="#ACACAC" d="M1008.035-98.809l-6.053,1.71c0,0-0.891,3.161,7.482,2.401
			C1017.836-95.457,1008.035-98.809,1008.035-98.809z"/>
		<path fill="#97998D" d="M1140.65-118.75c0,0-16.064,2.137-18.564,0c-2.5-2.136-6.521,8.153,7,4.46
			C1142.609-117.982,1146.895-114.477,1140.65-118.75z"/>
		<path fill="#97998D" d="M895.096-80.543c0,0,12.703,0.408,14.598,0c1.893-0.408,1.064,1.789-2.646,2.142
			S895.096-80.543,895.096-80.543z"/>
		<path fill="#97998D" d="M1001.436-97.834c0,0,8.117,1.762,9.309,0C1011.936-99.598,1001.436-97.834,1001.436-97.834z"/>
		<path fill="#97998D" d="M971.613-86.897c0,0-7.615-1.395-7.633,1.85c-0.018,3.243-2.529,5.173,2.037,4.454
			c4.568-0.717,8.326-5.505,6.961-5.903"/>
		<polygon fill="#97998D" points="921.592,-107.859 928.402,-109.834 928.402,-106.232 		"/>
		<path fill="#97998D" d="M924.012-116.264l-1.309,3.879c0,0,0.244,3.289,4.813,0.04
			C932.086-115.596,929.188-116.419,924.012-116.264z"/>
		<path fill="#97998D" d="M906.857-49.4c-4.264,0.265-3.15,1.83-2.043,3.279c1.764,2.307,6.645,3.027,10.193,1.57
			C911.928-45.941,907.816-46.69,906.857-49.4z"/>
		<path fill="#AEB2A3" d="M906.857-49.4c0.959,2.71,5.07,3.459,8.15,4.85c-0.67-1.702-0.906-3.553-2.262-5.021
			C912.316-50.038,908.904-49.486,906.857-49.4z"/>
		<path fill="#AEB2A3" d="M988.23-15.43c1.637-0.526,3.273-1.053,4.91-1.58c0.252-0.081,0.504-0.162,0.756-0.244
			c0.049-0.418,0.098-0.838,0.146-1.258c-1.207,0.051-2.414,0.102-3.621,0.152c-0.811,0.596-1.621,1.191-2.43,1.787
			C988.07-16.192,988.15-15.811,988.23-15.43z"/>
		<path fill="#C6CCB8" d="M987.992-16.572c0.809-0.596,1.619-1.191,2.43-1.787c-0.18-0.066-0.357-0.133-0.535-0.202
			c-0.879,0.151-1.758,0.302-2.639,0.452c0.098-0.419,0.195-0.839,0.293-1.258c-0.113-0.154-0.229-0.311-0.342-0.465
			c-3.244,1.553-2.301,2.93-0.146,4.253C987.365-15.911,987.678-16.242,987.992-16.572z"/>
		<path fill="#97998D" d="M975.283-1.508c-0.008-0.173-0.014-0.346-0.02-0.52c-0.541-0.471-1.082-0.939-1.621-1.41
			c-0.119-0.113-0.238-0.227-0.359-0.339c-1.123-0.304-2.248-0.609-3.371-0.913C969.725-2.393,971.451-1.293,975.283-1.508z"/>
		<path fill="#97998D" d="M987.992-16.572c-0.314,0.33-0.627,0.661-0.939,0.993c0.393,0.05,0.785,0.099,1.178,0.149
			C988.15-15.811,988.07-16.192,987.992-16.572z"/>
		<path fill="#737373" d="M993.896-17.254c-0.252,0.082-0.504,0.163-0.756,0.244C993.424-17.046,993.676-17.127,993.896-17.254z"/>
		<path fill="#AEB2A3" d="M973.643-3.438c0.539,0.471,1.08,0.939,1.621,1.41c0.35-0.351,0.699-0.703,1.049-1.053
			C975.422-3.201,974.531-3.319,973.643-3.438z"/>
		<path fill="#97998D" d="M701.879,21.573c0,0-0.484,5.021-2.979,4.622c-2.492-0.396-9.449,1.83-9.012-0.066
			C690.324,24.233,700.537,19.248,701.879,21.573z"/>
		<path fill="#AEB2A3" d="M694.092-31.441c-0.811-1.557-14.518,4.67-11.434,7.362c3.086,2.113,15.107,5.358,23.242,2.149
			c8.326-3.425,2.488-6.809-0.006-7.157C703.039-29.152,694.77-32.317,694.092-31.441z"/>
		<path fill="#AEB2A3" d="M678.357-74.066c-2.037-0.828-7.031-0.965-8.768,1.198c-1.807,2.136,0.961,4.981,3.051,5.738
			c2.111,0.854,2.752-0.679,4.561-2.815C678.938-72.109,680.523-73.28,678.357-74.066z"/>
		<path fill="#AEB2A3" d="M641.104-68.294c-2.154-0.858-6.291-1.175-7.531,0.372c-1.291,1.525,1.252,3.774,3.445,4.587
			c2.207,0.88,3.234,0.001,4.525-1.526C642.783-66.408,643.352-67.462,641.104-68.294z"/>
		<path fill="#AEB2A3" d="M630.365-82.402c-2.457,0.295-5.914,1.875-5.398,3.604c0.459,1.734,4.529,2.33,6.971,1.982
			c2.518-0.303,2.471-1.425,2.012-3.16C633.432-81.705,632.867-82.76,630.365-82.402z"/>
		<path fill="#AEB2A3" d="M684.938,24.375c0,0,2.928-8.897,10.262-11.564c7.336-2.665,8.023-2.925,10.676-0.861
			c2.652,2.063,6.768,6.66,0.783,8.918c-5.984,2.256-7.133,2.322-9.887,2.127C694.02,22.801,688.564,31.875,684.938,24.375z"/>
		<path fill="#AEB2A3" d="M612.73-102.662c-2.865-2.605-6.613-3.258-11.855-2.234c-3.459,0.674-7.635,0.318-10.924,1.133
			c-3.047,0.755-5.34,2.455-7.965,3.738c5.381-1.133,8.859,0.559,12.09,2.617c6.137,0.52,12.279,1.038,18.418,1.557
			c-0.42-1.178-0.164-2.701-1.398-3.469C608.055-101.207,610.662-101.804,612.73-102.662z"/>
		<path fill="#C6CCB8" d="M612.73-102.662c-2.068,0.858-4.676,1.455-1.635,3.342c1.234,0.768,0.979,2.291,1.398,3.469
			c-6.57,1.187-13.115,2.271-18.418-1.557c-3.23-2.059-6.709-3.75-12.09-2.617c4.322,5.62,10.281,7.871,20.824,7.76
			c4.182-0.043,8.354-0.23,12.531-0.352c-2.244-0.203-4.492-0.402-5.209-0.468c3.643-0.975,8.275-2.216,13.328-3.569
			c-2.379-2.023-3.912-3.328-5.443-4.632C616.256-101.745,614.494-102.203,612.73-102.662z"/>
		<path fill="#AEB2A3" d="M618.018-101.286c1.531,1.304,3.064,2.608,5.443,4.632c-5.053,1.354-9.686,2.595-13.328,3.569
			c0.717,0.065,2.965,0.265,5.209,0.468c1.297-0.426,2.701-0.773,3.873-1.287C627.082-97.348,626.922-98.246,618.018-101.286z"/>
		<path fill="#97998D" d="M594.076-97.408c5.303,3.828,11.848,2.743,18.418,1.557C606.355-96.37,600.213-96.889,594.076-97.408z"/>
		<path fill="#97998D" d="M679.373-73.276c0,0,5.867,4.737-6.732,6.146"/>
		<path fill="#97998D" d="M634.797-64.604c0,0,1.918,4.807,6.283,0.608c4.363-4.198,1.166-4.136-1.326-2.508
			C637.26-64.875,634.797-64.604,634.797-64.604z"/>
		<path fill="#97998D" d="M694.553,22.719c0,0,6.75-7.358,7.158-8.686c0.408-1.326,2.807,0.244,1.438,2.625
			C701.777,19.039,694.553,22.719,694.553,22.719z"/>
		<path fill="#97998D" d="M693.096-31.945c0.35,1.5,7.279,3.859,5.854,6.531c-1.424,2.674-2.965,5.214-0.752,4.831
			c2.211-0.383,7.545-1.012,9.111-1.993C708.875-23.557,693.096-31.945,693.096-31.945z"/>
		<path fill="#C6CCB8" d="M697.807-30.986c0,0,6.625,11.243,9.502,8.41C710.188-25.408,717.17-27.234,697.807-30.986z"/>
		<path fill="#97998D" d="M723.957-25.923c0,0-5.514,3.849-1.381,5.448c4.133,1.602,5.363,4.042,6.686,0.972
			c1.324-3.069-2.945-7.651-4.125-7.036"/>
		<polygon fill="#97998D" points="981.682,5.827 988.492,3.852 988.492,7.452 		"/>
		<path fill="#97998D" d="M964.023,52.946l-1.307,3.878c0,0,0.242,3.289,4.813,0.039C972.098,53.614,969.199,52.79,964.023,52.946z"
			/>
		<path fill="#97998D" d="M740.08,30.99c-1.752,2.666,0.791,2.771,3.186,2.822c3.811,0.082,7.123-2.469,7.004-5.294
			C746.982,29.669,744.01,31.748,740.08,30.99z"/>
		<path fill="#AEB2A3" d="M740.08,30.99c3.93,0.758,6.902-1.321,10.189-2.472c-2.504-0.438-4.982-1.204-7.521-1.117
			C741.941,27.43,740.975,29.729,740.08,30.99z"/>
		<path fill="#AEB2A3" d="M830.193,10.584c-0.885,1.078-1.771,2.155-2.656,3.232c-0.137,0.165-0.271,0.332-0.408,0.497
			c0.316,0.361,0.633,0.723,0.949,1.083c0.939-0.52,1.881-1.039,2.82-1.559c0.154-0.806,0.307-1.612,0.461-2.418
			C830.971,11.142,830.582,10.863,830.193,10.584z"/>
		<path fill="#C6CCB8" d="M831.359,11.42c-0.154,0.806-0.307,1.612-0.461,2.418c0.201-0.018,0.404-0.032,0.607-0.047
			c0.588-0.471,1.176-0.943,1.766-1.413c0.277,0.38,0.553,0.76,0.83,1.14c0.225,0.082,0.449,0.162,0.674,0.242
			c1.32-2.549-0.617-3.294-3.496-3.521C831.307,10.634,831.332,11.027,831.359,11.42z"/>
		<path fill="#97998D" d="M834.775,13.76c-0.225-0.08-0.449-0.16-0.674-0.242c-0.865,0.092-1.73,0.183-2.596,0.273
			c-0.203,0.015-0.406,0.029-0.607,0.047c-0.939,0.52-1.881,1.039-2.82,1.559C830.92,16.635,833.17,16.146,834.775,13.76z"/>
		<path fill="#97998D" d="M831.359,11.42c-0.027-0.393-0.053-0.786-0.08-1.181c-0.361,0.116-0.723,0.23-1.086,0.345
			C830.582,10.863,830.971,11.142,831.359,11.42z"/>
		<path fill="#737373" d="M827.129,14.313c0.137-0.165,0.271-0.332,0.408-0.497C827.336,13.957,827.201,14.123,827.129,14.313z"/>
		<path fill="#AEB2A3" d="M831.506,13.791c0.865-0.091,1.73-0.182,2.596-0.273c-0.277-0.38-0.553-0.76-0.83-1.14
			C832.682,12.848,832.094,13.32,831.506,13.791z"/>
	</g>
	<g id="Layer_2_3_" opacity="0.2">
		<g>
			<polygon fill="#97998D" points="-417.738,-20.347 -416.76,-20.561 -418.713,-29.472 -419.693,-29.257 			"/>
			<polygon fill="#97998D" points="-415.736,-20.574 -414.758,-20.788 -416.712,-29.696 -417.691,-29.482 			"/>
			<polygon fill="#97998D" points="-414.586,-21.884 -413.605,-22.099 -415.56,-31.01 -416.54,-30.795 			"/>
			<path fill="#97998D" d="M-408.955-17.496c0,0-6.947-7.814-6.85-18.131"/>
			<path fill="#97998D" d="M-404.678-14.614c0,0-8.074-9.085-7.963-21.071"/>
			<path fill="#97998D" d="M-400.326-14.719c0,0-9.506-10.693-9.374-24.808"/>
			<path fill="#97998D" d="M-410.133-56.254c0,0,6.342,8.764,5.184,19.326"/>
			<path fill="#97998D" d="M-407.889-57.318c0,0,6.648,9.195,5.435,20.273"/>
			<path fill="#97998D" d="M-404.752-57.688c0,0,6.654,9.196,5.439,20.271"/>
			<path fill="#97998D" d="M-401.896-57.781c0,0,8.811,12.18,7.201,26.855"/>
			<path fill="#97998D" d="M-399.11-58.117c0,0,8.812,12.181,7.202,26.857"/>
			<path fill="#97998D" d="M-396.488-58.797c0,0,8.811,12.181,7.204,26.855"/>
			<path fill="#97998D" d="M-392.529-56.724c0,0,7.51,10.38,6.139,22.888"/>
			<path fill="#97998D" d="M-389.176-57.381c0,0,7.13,10.66,5.301,23.097"/>
			<path fill="#97998D" d="M-385.537-56.506c0,0,5.833,9.645,3.736,20.467"/>
			<path fill="#97998D" d="M-382.315-54.925c0,0,5.613,9.778,3.268,20.543"/>
			<path fill="#97998D" d="M-379.658-54.105c0,0,5.613,9.78,3.268,20.546"/>
			<path fill="#97998D" d="M-376.553-53.273c0,0,5.369,9.358,3.127,19.66"/>
			<path fill="#97998D" d="M-373.404-51.683c0,0,4.381,7.636,2.549,16.042"/>
			<path fill="#97998D" d="M-370.254-50.001c0,0,3.629,6.323,2.113,13.287"/>
			<path fill="#97998D" d="M-366.529-47.675c0,0,2.727,4.744,1.586,9.971"/>
			<path fill="#97998D" d="M-402.197-21.314l3.103,1.974c0,0,0.247,2.066,0.661,2.083c0.415,0.015,1.047,0.09,1.371-0.301
				s0.023-2.232,0.023-2.232l-1.564-1.038l-1.422-1.814"/>
			<path fill="#97998D" d="M-399.232-23.237l3.594,1.864l0.571,1.682l1.945-0.96c0,0-0.433-1.497-0.768-1.634
				c-0.341-0.139-5.595-1.639-5.595-1.639"/>
			<polyline fill="#97998D" points="-399.008,-24.559 -393.443,-22.596 -392.592,-21.509 -391.223,-21.81 -391.518,-22.7 
				-398.554,-25.295 			"/>
			<path fill="#97998D" d="M-397.539-26.05c0,0,7.296,2.378,7.436,2.56c0.146,0.181,1.287,1.417,1.287,1.417
				s0.592-0.342,0.697-0.579c0.101-0.234-0.709-1.117-0.742-1.268c-0.033-0.153-8.059-2.582-8.059-2.582"/>
			<polyline fill="#97998D" points="-394.216,-26.873 -388.655,-24.91 -387.801,-23.82 -386.429,-24.122 -386.727,-25.013 
				-393.762,-27.607 			"/>
			<polyline fill="#97998D" points="-391.973,-27.521 -386.41,-25.56 -385.555,-24.475 -384.186,-24.773 -384.483,-25.664 
				-391.519,-28.26 			"/>
			<polyline fill="#97998D" points="-389.108,-28.149 -383.548,-26.188 -382.694,-25.101 -381.323,-25.402 -381.621,-26.291 
				-388.654,-28.888 			"/>
			<polyline fill="#97998D" points="-386.265,-29.572 -380.704,-27.607 -379.85,-26.521 -378.479,-26.821 -378.777,-27.711 
				-385.813,-30.307 			"/>
			<polyline fill="#97998D" points="-384.375,-30.781 -378.811,-28.82 -377.959,-27.733 -376.586,-28.034 -376.883,-28.923 
				-383.92,-31.52 			"/>
			<polyline fill="#97998D" points="-382.437,-32.481 -376.875,-30.519 -376.023,-29.432 -374.65,-29.732 -374.949,-30.62 
				-381.983,-33.218 			"/>
			<polyline fill="#97998D" points="-380.142,-33.938 -374.578,-31.976 -373.723,-30.89 -372.354,-31.19 -372.648,-32.08 
				-379.686,-34.675 			"/>
			<polyline fill="#97998D" points="-378.013,-35.124 -372.451,-33.159 -371.6,-32.072 -370.227,-32.373 -370.525,-33.264 
				-377.562,-35.86 			"/>
			<polyline fill="#97998D" points="-375.363,-36.02 -369.801,-34.061 -368.949,-32.973 -367.578,-33.273 -367.875,-34.162 
				-374.908,-36.756 			"/>
			<polyline fill="#97998D" points="-372.476,-36.896 -366.914,-34.928 -366.063,-33.844 -364.689,-34.145 -364.988,-35.035 
				-372.024,-37.629 			"/>
			<polyline fill="#97998D" points="-369.894,-38.097 -364.33,-36.133 -363.478,-35.046 -362.104,-35.348 -362.404,-36.238 
				-369.439,-38.836 			"/>
			<polyline fill="#97998D" points="-367.711,-39.371 -362.148,-37.409 -361.295,-36.322 -359.922,-36.623 -360.221,-37.512 
				-367.255,-40.107 			"/>
			<polyline fill="#97998D" points="-365.428,-40.192 -359.865,-38.228 -359.01,-37.142 -357.639,-37.441 -357.938,-38.332 
				-364.975,-40.927 			"/>
			<polyline fill="#97998D" points="-363.432,-41.266 -357.87,-39.301 -357.016,-38.215 -355.645,-38.516 -355.941,-39.404 
				-362.977,-42.002 			"/>
			<polyline fill="#97998D" points="-360.978,-43.036 -355.737,-40.269 -355.041,-39.069 -353.641,-39.162 -353.813,-40.087 
				-360.422,-43.695 			"/>
			<path id="skeleton_3_" fill="#97998D" d="M-439.502-97.53c0.653,0.078,7.387,1.679,7.387,1.679s2.364,14.66,4.909,18.498
				c2.544,3.844,9.192,11.842,9.21,10.959c0.02-0.885,0.816,11.477,0.816,11.477l1.917,4.86c0,0,2.66-11.144,2.478-11.979
				c-0.186-0.841-1.566-7.137-1.566-7.137s3.154-22.466,0.275-24.914c-2.876-2.449-4.572-3.394-4.572-3.394s1.912-1.96,3.285-2.479
				c1.372-0.522,5.619-0.573,6.079,1.523c0.46,2.1,0.823,8.618,0.823,8.618l-1.68,7.845c0,0,6.322,16.21,5.084,17.36
				c-1.236,1.154-3.414,3.828-3.414,3.828s-4.303,7.542-3.105,12.999c1.196,5.455,1.636,8.438,4.818,8.4
				c3.183-0.036,9.042-2.424,9.725-1.255c0.684,1.171,1.676,7.64,1.676,7.64s27.478-8.534,31.537-9.426
				c4.061-0.891,7.777-2.366,7.777-2.366s0.028-3.744-2.192-6.115c-2.222-2.375-5.569-4.06-5.032-5.496
				c0.533-1.438,3.719-0.595,5.32-0.945c1.603-0.351,2.707-1.034,0.729-4.338c-1.979-3.308-19.727-16.35-19.727-16.35
				s-2.201-17.773-6.732-22.938c-4.539-5.164-6.641-6.021-6.641-6.021l9.943-2.181l0.213,1.929l2.543,3.841l-1.365,2.501
				l2.552,10.658c0,0,2.294,3.675,5.108,6.796c2.812,3.124,13.003,16.726,13.003,16.726s6.495-0.852,3.254-10.014
				c-3.241-9.164-4.753-10.423-4.753-10.423s7.665-11.396,5.339-17.096c-2.329-5.699-5.942-9.526-5.205-9.688
				c0.733-0.161,10.978,3.006,10.978,3.006l0.019,4.295l-1.894,1.209l0.4,1.825c0,0-2.063,14.464-2.877,14.964
				c-0.813,0.494,1.207,3.395,1.207,3.395l0.912,18.909l2.352-0.516l3.834,5.529l-1.959,0.909l0.056,2.377l-1.374,2.849
				l-1.109,0.562l-0.143,1.466l-1.607,1.785l0.815,3.007c0,0,5.339-0.216,6.81-4.041c1.471-3.828,1.318-8.732,0-15.449
				c-1.32-6.715-3.405-20.434-2.541-21.417c0.861-0.986,0.965,0.902,0.965,0.902s1.497,13.843,3.08,20.345
				c1.578,6.5,2.934,13.373,0.53,17.878c-2.398,4.509-3.478,3.79-5.104,6.216c-1.624,2.426-2.479,4.844-4.376,4.622
				c-1.894-0.221-4.253-1.134-4.253-1.134s-37.7,15.594-41.007,14.566c-3.305-1.025-3.141,6.741-6.64,6.234
				s-3.905-7.267-6.221-6.596c-2.317,0.666-9.979,5.055-9.979,5.055L-417.3-15l5.903-2.567l1.676,2.021l-2.903,0.798l-0.289,1.494
				l1.276,0.201l1.107,2.94c0,0-3.867-2.178-5.057-1.282c-1.189,0.897-2.578,7.894-5.156,8.778
				c-2.577,0.883-7.313-1.742-9.262-2.904c-1.949-1.166-3.52-1.3-4.988-0.978c-1.467,0.321-2.757,0.763-3.057-0.603
				c-0.3-1.368-0.518-3.069-1.286-3.063c-0.767,0.01-1.558-0.771-1.167-1.812c0.387-1.04-0.207-2.345-0.994-3.126
				c-0.789-0.784-2.203-3.021-2.223-3.815c-0.02-0.79-1.92-5.946-1.92-5.946s-3.845-4.89-6.924-6.285
				c-3.079-1.393-6.174-3.581-10.879-2.549c-4.701,1.031-12.342,2.707-14.963,9.016c-2.62,6.309-2.555,10.115-1.821,13.459
				s4.364,7.963,6.146,8.364c1.784,0.407,6.025,2.185,8.342,1.514c2.318-0.667,6.139-1.505,8.305-3.572
				c2.162-2.067,3.287-3.271,4.811-6.152c1.521-2.882,2.531-3.898,2.531-3.898l-3.391,9.82c0,0-3.941,3.093-6.893,4.379
				c-2.951,1.284-8.209,2.596-10.385,1.801c-2.179-0.798-7.596-2.318-9.203-4.035c-1.608-1.716-4.164-7.05-3.746-12.872
				c0.415-5.826,2.436-14.867,6.25-17.137s14.802-4.841,14.802-4.841l3.613,0.321l4.735-0.88l10.479,2.16l6.41,4.644
				c0,0,0.869-3.058,4.201-3.312c3.336-0.251,6.031,0.113,6.031,0.113l2.247,9.54l1.919,1.012l9.238-6.326l3.74-0.501l-8.199-6.484
				l-1.332-9.579l-0.886-4.742l-0.566-6.086l-5.288-5.848c0,0-0.989-10.133-3.882-13.482c-2.89-3.348-4.616-9.817-4.616-9.817
				L-439.502-97.53z"/>
			<path id="RTspike_3_" fill="#97998D" d="M-457.715-34.35c0,0-3.416,0.91-4.496,2.659s-1.59,4.326-0.146,5.998
				c1.443,1.673,2.266,2.606,4.391,3.176c2.125,0.568,2.594,0.943,5.254,0.44c2.66-0.504,7.832-1.48,7.832-1.48l0.477,0.773
				l-11.451,3.228c0,0-3.805,0.2-6.805-2.248c-2.998-2.445-5.098-4.294-4.285-7.256s1.863-5.184,1.863-5.184"/>
		</g>
	</g>
</symbol>
<g>
	<rect x="498.09" y="-1" fill="#87D2DC" width="2550" height="189.857"/>
	<rect x="498.09" y="188.857" fill="#9FD9E2" width="2550" height="150"/>
	<rect x="498.09" y="338.857" fill="#C5E7EC" width="2550" height="150"/>
	<rect x="471.496" y="476.139" fill="#DCF1F6" width="2550" height="150"/>
</g>
<g id="suns_2_">
	<circle fill="#FFDD15" stroke="#EAD57D" stroke-miterlimit="10" cx="2770.76" cy="268.803" r="26.309"/>
</g>
<g>
	<rect x="0.482" y="-1" fill="#87D2DC" width="500" height="189.857"/>
	<rect x="0.482" y="188.857" fill="#9FD9E2" width="500" height="150"/>
	<rect x="0.482" y="338.857" fill="#C5E7EC" width="500" height="150"/>
	<rect x="0.482" y="488.857" fill="#DCF1F6" width="500" height="150"/>
</g>
<use xlink:href="#groundsmall"  width="500" height="262.495" x="-250" y="-131.247" transform="matrix(1 0 0 -1 250.4824 967.793)" overflow="visible"/>
<rect y="638.857" fill="#8AC465" width="500.482" height="198.072"/>
<g>
	<rect id="BACKGROUND_1_" x="499.778" y="639.348" fill="#8AC465" width="2550.001" height="51.008"/>
	
		<use xlink:href="#underground"  width="2550" height="262.495" id="XMLID_4_" x="-1275" y="-126.657" transform="matrix(1 0 0 -1 1774.7793 972.873)" overflow="visible"/>
	<rect x="499.778" y="704.639" fill="#8AC465" width="2550" height="132.396"/>
</g>
<path fill="#7EB25D" d="M2,837.217c0,0,422.719-165.519,497.913-151.324s279.301,162.615,375.763,151.324"/>
<g>
	<g>
		<g>
			<path opacity="0.3" fill="#FFFFFF" d="M726.982,147.5c-11.028,0-20-9.411-20-20.979v-25.043c0-11.567,8.972-20.979,20-20.979
				s20,9.411,20,20.979v25.043C746.982,138.089,738.01,147.5,726.982,147.5z"/>
			<path fill="#FFFFFF" d="M726.982,83c9.649,0,17.5,8.29,17.5,18.479v25.043c0,10.189-7.851,18.479-17.5,18.479
				s-17.5-8.29-17.5-18.479v-25.043C709.482,91.29,717.333,83,726.982,83 M726.982,78c-12.406,0-22.5,10.533-22.5,23.479v25.043
				c0,12.945,10.094,23.479,22.5,23.479c12.404,0,22.5-10.533,22.5-23.479v-25.043C749.482,88.533,739.387,78,726.982,78L726.982,78
				z"/>
		</g>
		<circle fill="none" stroke="#FFFFFF" stroke-width="5" stroke-miterlimit="10" cx="726.682" cy="99.6" r="1.5"/>
	</g>
</g>
</svg>
