<?xml version="1.0" encoding="utf-8"?>
<!-- Generator: Adobe Illustrator 15.0.0, SVG Export Plug-In . SVG Version: 6.00 Build 0)  -->
<!DOCTYPE svg PUBLIC "-//W3C//DTD SVG 1.1//EN" "http://www.w3.org/Graphics/SVG/1.1/DTD/svg11.dtd">
<svg version="1.1" id="Слой_1" xmlns="http://www.w3.org/2000/svg" xmlns:xlink="http://www.w3.org/1999/xlink" x="0px" y="0px"
	 width="3050px" height="1100px" viewBox="0 0 3050 1100" enable-background="new 0 0 3050 1100" xml:space="preserve">
<path fill="#3B97D3" d="M2640.145,758.635c0,0,32-24.494,86-12.174c54,12.318,89,6.027,119,12.174c30,6.145,37,43.145-82,43.145
	S2624.959,770.628,2640.145,758.635z"/>
<path fill="#7EB25D" d="M1,837.217c0,0,422.719-165.519,497.913-151.324s279.301,162.615,375.763,151.324"/>
<g id="delivery_1_">
	<path fill="#E0C1AF" d="M1854.274,787.181c0,0-0.403,0.562-0.347,1.032c0.057,0.47-1.979,1.738-1.979,1.738l-0.845-1.884
		c0,0,0.471-0.108,0.636-0.38c0.162-0.271,0.506-2.54,0.506-2.54"/>
	<path fill="#303C82" d="M1853.592,799.784l-4.951,0.109l-1.285-0.2v0.598c0,0-0.299-0.182-0.379,0.218
		c-0.082,0.398-0.381,1.086-0.563,1.249c-0.181,0.164-0.359,0.518-0.541,1.083c-0.181,0.565-0.711,2.015-0.767,2.448
		c-0.054,0.436-0.977,3.405-1.137,3.532c-0.16,0.126-0.142,0.488-0.142,0.488s-0.381,3.983-0.541,4.925
		c-0.16,0.943-1.805,5.651-1.805,5.651l3.188,1.013l0.079-0.688l0.356-0.742c0,0-0.356-0.689-0.175-1.358
		c0.18-0.669,1.422-3.006,1.523-3.93c0.101-0.924,0.08-3.296-0.02-3.495c0,0,0.299-0.488,0.219-0.796
		c-0.08-0.309,2.146-3.459,2.488-4.872c0,0,0.279,1.738,0.64,2.555c0.362,0.813,0.802,2.226,0.923,2.625
		c0.119,0.398,0.86,2.01,0.9,2.335c0.04,0.327,1.525,5.669,1.645,8.06l3.35-0.706c0,0-0.422-1.522-0.302-1.812
		c0.12-0.29-0.643-0.688-0.661-1.304c-0.021-0.616-0.203-4.563-1.504-6.013l-0.08-0.978l-0.381-0.29c0,0-0.102-5.451,0.019-5.703
		c0.12-0.255,0.542-1.757,0.222-2.88S1853.592,799.784,1853.592,799.784z"/>
	<path fill="#2F9EB4" d="M1854.348,788.938c0,0,0,0,0.181,0.271s0.544,0.199,1.358,0.742c0.813,0.544,0,2.155,0,2.155
		s-0.545,2.499-0.814,2.716c-0.273,0.218-1.068-0.289-1.068-0.289s-0.131,2.155-0.33,3.17c-0.197,1.013,0.254,2.588,0.254,2.588
		l-6.934-0.362c-0.038,0.219,0.809-2.767,0.905-4.962c0.073-1.646,0.743-3.35,0.743-3.35s-1.545-1.11-1.491-1.274
		c0.054-0.162,0.948-0.952,1.237-1.496s1.394-0.815,1.883-0.797c0.489,0.018,1.122-0.08,1.122-0.08s0.019,0.642,0.347,0.823
		c0.324,0.181,1.666-0.164,1.666-0.164L1854.348,788.938"/>
	<path fill="#E8C7B5" d="M1855.891,783.631c0,0-0.12,0.869-0.217,1.184c-0.096,0.314-0.096,0.314-0.096,0.314
		s0.386-0.267,0.157,0.192c-0.23,0.459-0.399,0.58-0.446,0.459c0,0-0.291,0.725-1.015,1.328c-0.386,0.32-0.696,0.429-0.821,0.386
		c-0.247-0.086-0.41-0.313-0.556-0.507c-0.144-0.192-0.532-0.628-0.579-0.942c-0.049-0.313,0-0.965,0-0.965
		s-0.289,0.193-0.338-0.289c-0.048-0.484-0.098-0.773,0.338-0.942c0.436-0.17,0.266,0.748,0.266,0.748l0.506-0.604l0.074-0.965
		C1853.164,783.028,1855.578,782.207,1855.891,783.631z"/>
	<path fill="#490E00" d="M1853.31,783.463c0,0,0.047,0.289-0.169,0.604c-0.22,0.313-0.387,0.725-0.387,0.725l-0.146-0.098
		c0,0,0-0.482,0-0.567s-0.361-0.326-0.361-0.326l0.072-0.266C1852.318,783.534,1852.779,783.033,1853.31,783.463z"/>
	<polygon fill="#490E00" points="1856.194,784.138 1855.813,784.142 1855.611,785.022 1856.049,784.489 	"/>
	<path fill="#303C82" d="M1856.592,785.08c0,0,0.652-0.314-0.506-1.16c0,0,0.193-0.941,0-1.279c-0.195-0.337-0.848-0.791-1.256-0.94
		c-0.412-0.149-1.207-0.049-1.57,0.12c-0.362,0.169-0.748,0.749-0.941,1.714c0,0,0.436-0.289,0.629-0.181
		c0.193,0.109,0.506,0.616,0.771,0.784c0.266,0.169,1.01-0.112,1.859-0.023s0.459,0.145,0.459,0.145l-0.217,0.29
		C1855.82,784.549,1856.206,784.959,1856.592,785.08z"/>
	<g>
		<path fill="#490E00" d="M1853.839,786.07c-0.141-0.104-0.311-0.176-0.479-0.207l-0.113-0.02c-0.021,0.009-0.01-0.009-0.051,0.04
			c-0.043,0.062-0.074,0.121-0.113,0.203c-0.068,0.153-0.125,0.317-0.143,0.479c-0.018,0.083-0.01,0.16-0.002,0.236
			c0.029,0.076,0.03,0.121,0.1,0.192c0.117,0.144,0.224,0.245,0.371,0.3c0.162,0.065,0.295,0.046,0.437-0.022l0.201-0.141
			c0.052-0.036,0.12-0.119,0.179-0.177l0.184-0.189c0.072-0.063,0.09-0.129,0.138-0.191l0.014-0.021l0.001-0.001
			c0.049-0.044,0.104-0.137,0.089-0.146c-0.005-0.017-0.13-0.047-0.199-0.069l-0.489-0.146l0.504,0.074l0.125,0.019
			c0.035,0.015,0.097-0.006,0.15,0.062c0.045,0.066,0.02,0.137,0.002,0.178c-0.02,0.048-0.045,0.084-0.074,0.125l0,0l0.013-0.021
			c-0.05,0.083-0.095,0.188-0.157,0.243l-0.176,0.196c-0.064,0.067-0.104,0.127-0.189,0.2l-0.23,0.163
			c-0.09,0.034-0.184,0.082-0.289,0.082c-0.115,0.004-0.192-0.025-0.289-0.055c-0.188-0.066-0.339-0.223-0.439-0.353
			c-0.058-0.052-0.115-0.183-0.135-0.271c-0.011-0.099-0.017-0.197,0.002-0.289c0.024-0.186,0.086-0.358,0.163-0.524
			c0.034-0.077,0.087-0.174,0.151-0.251c0.01-0.032,0.099-0.086,0.172-0.067c0.048,0.017,0.102,0.028,0.137,0.058
			C1853.557,785.865,1853.687,785.981,1853.839,786.07z"/>
	</g>
	<path fill="#490E00" d="M1853.928,787.328c0.003-0.002-0.355-0.316-0.258-0.631c0,0-0.586,0.259-0.789,0.214
		C1852.881,786.911,1853.34,787.619,1853.928,787.328z"/>
	<path fill="#303C82" d="M1853.922,787.977c0,0,0.098,0.363-0.146,0.436s-1.18,0.398-1.826,0.326c0,0,0.478-0.019,0.369,1.159
		c0,0,1.864-0.779,2.029-0.96c0,0-0.182-0.255-0.219-0.49C1854.093,788.213,1854,787.923,1853.922,787.977z"/>
	<path fill="#303C82" d="M1851.74,788.793c0,0-0.309-0.272-0.292-0.562c0.019-0.29,0.292-0.58,0.292-0.58s-0.076-0.253-0.292-0.072
		c-0.217,0.182-0.614,0.574-0.614,0.574v0.113l-0.108,1.068C1850.726,789.335,1851.448,788.376,1851.74,788.793z"/>
	<path fill="#E0C1AF" d="M1848.648,791.623c0,0-1.533,2.162-2.669,2.439c-1.134,0.277-0.784,0.326-1.158,0
		c-0.374-0.327-1.882-1.172-2.198-1.715c-0.313-0.543-0.613-0.652-0.725-0.652c-0.107,0-1.146-0.132-1.23-0.278h2.449
		c0,0,2.066,0.548,2.483,0.762c0.017,0.008,0.03,0.017,0.042,0.024c0.289,0.193,1.254-1.594,1.509-1.86
		C1847.405,790.078,1848.648,791.623,1848.648,791.623z"/>
	<polygon fill="#A7906D" points="1841.871,791.669 1838.894,789.446 1838.894,786.494 1844.586,786.7 1848.686,788.662 
		1848.686,792.034 	"/>
	<polygon fill="#C0A58D" points="1842.765,788.373 1840.875,787.474 1840.875,783.908 1844.678,784.275 1846.994,784.964 
		1846.994,788.568 	"/>
	<path fill="#E8C7B5" d="M1855.053,794.288c0,0-2.953,2.237-4.146,2.418c-1.195,0.181-2.246-1.413-2.609-1.992
		c-0.362-0.58-1.701-2.064-1.848-2.064c-0.143,0-1.388,0.048-1.689-0.085c-0.301-0.133-1.654-0.688-1.628-0.771
		c0,0-0.23-0.182-0.003-0.278c0.231-0.098,0.559,0.193,0.775,0.217c0.216,0.024,1.014-0.023,1.014-0.023s-0.617,0.012-0.748-0.073
		c-0.135-0.084-0.76-0.494-0.76-0.494s-0.026-0.241,0.154-0.218c0.182,0.024,0.834,0.255,1.003,0.313
		c0.169,0.061,0.776,0.193,0.938,0.193c0.16,0,0.861,0.037,0.824-0.109c-0.035-0.143,0.023-0.337-0.097-0.506
		s-0.169-0.664,0.037-0.863l0.155-0.054c0,0,0.063,0.409,0.135,0.579c0.07,0.169,0.182,0.41,0.182,0.41s0.359,0.387,0.324,0.748
		c-0.035,0.362,2.174,1.822,2.174,1.822s1.255,0.822,1.689,1.257c0,0,0.109,0.132,0.352-0.351c0.239-0.482,0.93-1.484,1.339-1.593"
		/>
	<path fill="#E4D5C8" d="M1856.573,820.715l0.026,0.387c0,0-1.387,0.676-1.662,0.796c-0.273,0.122-0.887,0.652-1.122,0.726
		c-0.237,0.072-2.29,0.223-2.991-0.227l0.266-0.402l3.429-1.001L1856.573,820.715z"/>
	<path fill="#85786C" d="M1843.916,822.43c0,0-1.038-0.15-1.594-0.33c-0.555-0.178-1.256-0.395-1.619-0.347
		c-0.359,0.048-2.099-0.725-2.172-1.328h0.506l4.347,1.11L1843.916,822.43z"/>
	<path fill="#E4D5C8" d="M1844.182,822.1l-0.266,0.33c0,0-0.363-0.387-1.689-0.605c-1.33-0.216-1.523-0.409-1.883-0.675
		c-0.363-0.266-1.692-0.748-1.813-0.725l0.362-0.347l2.462,0.903l2.055,0.482l0.625,0.627"/>
	<path fill="#A68F7C" d="M1844.567,820.617c0,0-0.097,1.619-0.532,1.474c-0.433-0.145-0.651-0.459-1.254-0.53
		c-0.604-0.073-1.522-0.097-1.932-0.411c-0.41-0.314-1.763-1.083-1.956-1.071c0,0,0.966-0.112,1.546,0.299c0,0,0.506,0,0.869-0.097
		c0.362-0.097,0.965-0.314,1.11-0.362c0.144-0.049,0.144-0.049,0.144-0.049L1844.567,820.617z"/>
	<path fill="#A68F7C" d="M1856.211,819.593c0,0,0.506,0.936,0.362,1.122c-0.169,0.218-0.654,0.063-2.125,1.086
		c-1.474,1.024-3.285,0.193-3.358,0.193c-0.07,0,0.148-0.144,0.556-0.168c0,0,0.918-0.435,1.329-0.725
		c0.41-0.29,0.557-0.551,0.557-0.551"/>
</g>
<g id="girl_1_">
	<path fill="#566B76" d="M2563.995,814.131c0,0-0.152,0.085,0.74,0.492c0.893,0.406,1.783,0.458,1.24,0.779h-1.979
		c0,0-0.895-0.033-1.352-0.305s-1.369-1.374-1.369-1.374v1.628h-0.305c0,0-0.066-1.237-0.283-1.78c-0.219-0.543-0.24-0.61,0-1.001
		c0.238-0.39,0.305-0.594,0.305-0.594l1.371,0.424L2563.995,814.131z"/>
	<path fill="#566B76" d="M2568.427,815.166c0,0-0.135,0.084,0.655,0.491s1.581,0.458,1.099,0.78h-1.752c0,0-0.791-0.034-1.195-0.305
		c-0.404-0.271-1.213-1.374-1.213-1.374v1.628h-0.272c0,0-0.056-1.238-0.25-1.781c-0.19-0.543-0.21-0.61,0-1
		c0.214-0.391,0.271-0.594,0.271-0.594l1.215,0.424L2568.427,815.166z"/>
	<path fill="#E5D0C0" d="M2566.661,807.568l0.225,4.635c0,0,0.42,1.374,0.367,1.283c-0.02-0.032,0.947,1.236,1.174,1.68
		c0.063,0.121-1.832-1.663-2.039-1.811c-0.188-0.134-0.451-0.1-0.535-0.203c-0.225-0.271-0.777-2.142-0.988-2.699
		c-0.125-0.327-0.389-1.227-0.586-1.911c-0.137-0.479-0.24-0.854-0.24-0.854L2566.661,807.568z"/>
	<path fill="#E5D0C0" d="M2561.784,807.318c0,0-0.215,2.381-0.215,3.135c0,0.755-0.463,1.886-0.617,1.977
		c-0.152,0.09,0.09,0.542,0.379,0.542s1.68,0.659,1.779,0.724s1.039,0.679,1.039,0.679s-0.627-0.718-0.988-1.107
		c-0.359-0.391-0.051-1.923,0.258-3.099s0.73-2.083,0.73-2.083l-0.371-1.31L2561.784,807.318z"/>
	<path fill="#E6906E" d="M2569.082,796.102c0,0,1.12,10.584,0.837,10.9s-0.549-0.227-1.188,0c-0.637,0.227-0.123,0.452-2.385,0.588
		c-2.26,0.136-4.563,0.136-4.563,0.136v-0.407h-0.453c0,0,0.297-10.902,0.422-11.211s5.57-0.594,5.57-0.594L2569.082,796.102z"/>
	<polygon fill="#FFFFFF" points="2567.565,784.473 2566.616,785.016 2564.46,784.744 2567.155,788.836 2568.235,787.011 	"/>
	<path fill="#DFCABB" d="M2567.067,784.757l-0.451,0.259l0,0l-1.58-0.176l-0.998-0.133c0,0,0.652-1.021,0.652-1.711
		c0-0.69,1.678-0.566,1.58,0.249C2566.171,784.062,2567.067,784.757,2567.067,784.757z"/>
	<path fill="#E5D0C0" d="M2568.698,782.092c0,0-0.541,1.527-0.926,1.9s-0.693,0.406-1.193,0.237
		c-0.502-0.17-1.695-0.814-1.695-0.814l-0.193-1.109v-1.367l1.311-0.475c0,0,3.081-0.78,3.081,0.916
		C2569.082,781.923,2568.698,782.092,2568.698,782.092z"/>
	<path fill="#D9D0E7" d="M2563.993,784.259c0,0,2.785,0.93,3.285,1.708s0,2.915,0,2.915s0.738-2.587-0.155-3.866l0.442-0.611
		c0,0,0.945,0.953,1.023,1.563c0.075,0.608,0.924,1.626,0.924,1.796s0,0.916,0,0.916s0.154,4.036,0,5.359s0.068,1.628,0.068,1.628
		v0.611l-7.828-0.17l1.402-3.46l-0.385-5.529l0.23-2.171L2563.993,784.259z"/>
	<path fill="#CFC6DC" d="M2563.001,785.016c0,0-1.503,0.479-1.617,1.019c-0.115,0.541,0,5.358,0,5.358s0.152,1.107,1.867,1.656
		s1.445,0.65,1.715,0.549c0.27-0.103,3.43-2.239,3.43-2.239s-0.693-1.595-1.002-1.391c-0.309,0.203-0.809,0.61-0.809,0.61
		l0.076,0.17l-2.424,1.018c0,0-0.85-1.018-0.773-1.934s0.076-1.968,0.076-1.968s0.078-1.899-0.615-2.069"/>
	<path fill="#CFC6DC" d="M2567.565,784.473c0,0,1.293,0.645,1.517,1.316c0.499,1.499,0.499,1.765,1.009,3.047l0.225,0.487
		l-0.773,0.306c0,0-0.628-2.826-1.051-3.572C2568.067,785.311,2567.565,784.473,2567.565,784.473z"/>
	<polygon fill="#FFFFFF" points="2575.427,787.133 2571.806,787.133 2568.731,790.182 2569.79,791.237 	"/>
	<path fill="#E5D0C0" d="M2567.657,790.266c0,0,0.701-0.682,1.324-0.536c0.625,0.146,0.74,0.405,0.5,0.44
		c-0.238,0.033,0.111-0.097,0.047,0.249c0,0,0.348-0.016,0.158,0.279c0,0,0.436,0.005,0.113,0.285c0,0,0.217,0.147,0.027,0.145
		c-0.163-0.003-0.34,0.068-0.498,0.06c-0.689-0.039-1.313,0.05-1.313,0.05L2567.657,790.266z"/>
	<path fill="#77491D" d="M2563.957,782.703l0.503-0.068l-0.117,0.746l0.732-0.813c0,0,0,0.224,0-0.262s-0.539-0.745-0.191-1.09
		c0.346-0.345,0.701-0.198,0.832,0s0.092,0.503,0.092,0.503l0.693-0.503l0.309-0.413l0.809-0.339c0,0-0.154,0.747-0.635,0.882
		c0,0,0.674,0.724,1.098-0.13l-0.539,0.639c0,0,0.963,0.351,0.924-0.639c0,0-0.23,0.774-0.424,0.843
		c-0.191,0.067,0.732,0.033,1.04-0.679l-0.464,0.926c0,0,0.387,0.295,0.811-0.485c0.424-0.779,0.848-1.255,0-2.103
		c-0.848-0.849-1.328-1.104-1.926-1.119c-0.963-0.026-2.158-0.001-2.582,0.373c-0.42,0.372-0.883,0.489-0.964,1.313
		c-0.079,0.823,0,1.129,0,1.129s-0.229,0.712,0,0.61c0.233-0.102,0.271-0.577-0.192-0.645c-0.461-0.067-1.387-0.475-1.154,1.188
		c0,0,0.615,2.408-0.424,3.053c0,0-1.041,0.067,0.23,0.61c0,0,2.275,0.805,1.502-2.069
		C2563.919,784.161,2563.573,782.635,2563.957,782.703z"/>
</g>
<g>
	<path fill="#69412C" d="M1788.687,807.37c0.11-0.159,0.024-0.332,0.046-0.504c-0.018,0.005-0.029,0.005-0.033,0.01
		c-0.223,0.198-0.494,0.311-0.76,0.435c-0.164,0.077-0.328,0.16-0.479,0.264c-0.207,0.145-0.375,0.338-0.418,0.595
		c-0.033,0.192,0.006,0.382,0.168,0.522c0.058,0.051,0.105,0.111,0.078,0.197c-0.006,0.018-0.023,0.04-0.041,0.044
		c-0.172,0.038-0.338,0.021-0.49-0.077c-0.063-0.04-0.055-0.11-0.08-0.167c-0.073-0.159-0.012-0.32-0.018-0.479
		c-0.006-0.166,0.016-0.333,0.008-0.499c-0.006-0.171,0.055-0.289,0.234-0.35c-0.025-0.015-0.033-0.021-0.041-0.024
		c-0.01-0.004-0.021-0.005-0.027-0.006c0.189-0.204,0.377-0.406,0.564-0.609c0.049-0.053,0.045-0.096-0.008-0.113
		c0.111-0.119,0.225-0.236,0.348-0.366c-0.043-0.005-0.064-0.007-0.096-0.01c0.027-0.033,0.051-0.059,0.068-0.088
		c0.008-0.015,0.006-0.035,0.008-0.054c0.002-0.024-0.004-0.055,0.008-0.073c0.037-0.054,0.044-0.112,0.049-0.176
		c0.004-0.054,0.027-0.105,0.043-0.157c0.008-0.023,0.02-0.045,0.034-0.082c-0.032,0.017-0.052,0.025-0.077,0.037
		c0.01-0.163,0.051-0.311,0.113-0.455c0.039-0.086,0.066-0.177,0.088-0.268c0.033-0.131-0.021-0.236-0.117-0.325
		c-0.242-0.222-0.502-0.424-0.707-0.683c-0.1-0.125-0.182-0.267-0.27-0.401c-0.1-0.154-0.197-0.311-0.297-0.466
		c-0.018-0.024-0.035-0.049-0.057-0.08c0.021,0.002,0.035,0.004,0.053,0.006c-0.006-0.017-0.01-0.031-0.016-0.044
		c-0.063-0.126-0.123-0.253-0.188-0.378c-0.092-0.178-0.227-0.318-0.393-0.43c-0.059-0.04-0.121-0.075-0.182-0.113
		c-0.066-0.041-0.102-0.125-0.084-0.196c0.014-0.055,0.088-0.106,0.16-0.111c0.203-0.012,0.398,0.011,0.564,0.139
		c0.061,0.047,0.115,0.106,0.157,0.171c0.054,0.08,0.089,0.172,0.134,0.258c0.139,0.268,0.266,0.543,0.42,0.801
		c0.105,0.176,0.236,0.34,0.377,0.487c0.174,0.185,0.367,0.35,0.559,0.517c0.047,0.043,0.111,0.069,0.172,0.094
		c0.088,0.036,0.178,0.064,0.271,0.098c0.002-0.013,0.004-0.024,0.01-0.044c0.176,0.082,0.361,0.068,0.545,0.055
		c0.291-0.021,0.574,0.022,0.861,0.064c0.293,0.043,0.588,0.082,0.883,0.119c0.254,0.032,0.508,0.072,0.764,0.085
		c0.229,0.011,0.461-0.006,0.689-0.022c0.189-0.014,0.371-0.069,0.553-0.124c0.179-0.054,0.367-0.06,0.554-0.03
		c0.097,0.015,0.194,0.032,0.29,0.034c0.203,0.003,0.402-0.021,0.594-0.09c0.02-0.007,0.037-0.021,0.053-0.032
		c0.061-0.044,0.115-0.097,0.18-0.13c0.176-0.092,0.324-0.218,0.463-0.358c0.023-0.024,0.046-0.05,0.066-0.077
		c0.029-0.037,0.049-0.08,0.082-0.111c0.018-0.018,0.053-0.019,0.078-0.027c0.008,0.025,0.02,0.05,0.02,0.074
		c0,0.041-0.008,0.081-0.012,0.13c0.104-0.054,0.17-0.149,0.287-0.192c-0.014,0.195-0.051,0.367-0.117,0.516
		c0.109,0.112,0.213,0.22,0.314,0.327c0.014,0.015,0.031,0.034,0.031,0.052c0,0.1,0.063,0.17,0.104,0.252
		c0.045,0.086,0.082,0.176,0.117,0.265c0.01,0.022,0.014,0.054,0.004,0.074c-0.033,0.072-0.066,0.146-0.111,0.212
		c-0.035,0.053-0.08,0.102-0.154,0.108c-0.018,0.001-0.039,0.013-0.055,0.025c-0.055,0.042-0.113,0.044-0.178,0.032
		c-0.17-0.034-0.342-0.063-0.514-0.02c-0.074,0.019-0.139,0.068-0.209,0.102c-0.014,0.007-0.033,0.006-0.051,0.008
		c-0.004-0.006-0.006-0.013-0.01-0.02c-0.031,0.039-0.059,0.084-0.098,0.115c-0.08,0.066-0.125,0.148-0.15,0.248
		c-0.012,0.038-0.035,0.078-0.065,0.105c-0.125,0.121-0.209,0.269-0.278,0.43c-0.018-0.014-0.029-0.022-0.041-0.033
		c-0.006,0.01-0.008,0.015-0.01,0.021c-0.025,0.069-0.049,0.14-0.072,0.209c-0.006,0.013-0.012,0.025-0.02,0.037
		c-0.02,0.03-0.059,0.062-0.057,0.091c0.004,0.076,0.014,0.15,0.062,0.222c0.116,0.174,0.29,0.29,0.423,0.447
		c0.064,0.079,0.123,0.165,0.174,0.255c0.068,0.12,0.121,0.25,0.191,0.367c0.1,0.162,0.162,0.34,0.203,0.521
		c0.027,0.122,0.035,0.257-0.02,0.381c-0.01,0.022-0.047,0.05-0.068,0.048c-0.063-0.005-0.129-0.012-0.172-0.071
		c-0.02-0.026-0.039-0.056-0.066-0.069c-0.09-0.046-0.119-0.127-0.15-0.213c-0.043-0.124-0.099-0.244-0.137-0.369
		c-0.053-0.164-0.158-0.297-0.254-0.435c-0.014-0.02-0.037-0.032-0.059-0.045c-0.238-0.134-0.477-0.265-0.713-0.399
		c-0.055-0.031-0.105-0.072-0.17-0.118c-0.006,0.087-0.017,0.165-0.018,0.243c-0.006,0.24-0.014,0.48-0.014,0.72
		c0,0.178,0.098,0.301,0.246,0.39c0.06,0.036,0.121,0.075,0.182,0.114c0.018,0.013,0.039,0.027,0.049,0.046
		c0.02,0.037,0.053,0.086,0.04,0.114c-0.011,0.028-0.067,0.052-0.106,0.055c-0.15,0.011-0.301,0.029-0.451-0.016
		c-0.123-0.036-0.225-0.137-0.24-0.265c-0.006-0.048-0.01-0.096-0.018-0.144c-0.004-0.021-0.016-0.042-0.023-0.063
		c-0.016-0.034-0.031-0.069-0.049-0.103c-0.008-0.015-0.021-0.025-0.035-0.041c-0.025-0.2-0.038-0.413-0.082-0.619
		c-0.051-0.235-0.131-0.464-0.199-0.696c-0.008-0.032-0.012-0.066-0.012-0.1c0-0.048-0.055-0.127-0.105-0.127
		c-0.109,0-0.219,0.011-0.328,0.015c-0.031,0.001-0.062-0.01-0.09-0.014c-0.008-0.001-0.016-0.003-0.021,0
		c-0.113,0.053-0.229-0.002-0.342,0.01c-0.164,0.017-0.322,0.053-0.459,0.149c-0.029,0.02-0.059,0.037-0.092,0.06
		c-0.006-0.025-0.01-0.045-0.016-0.064c-0.012-0.04-0.029-0.058-0.081-0.048c-0.056,0.012-0.116,0.009-0.175,0.007
		c-0.096-0.002-0.191-0.009-0.289-0.014c0.005-0.012,0.016-0.029,0.037-0.064c-0.092,0.047-0.162,0.024-0.232-0.012
		c-0.059-0.029-0.107-0.008-0.15,0.046c-0.109,0.142-0.229,0.277-0.34,0.419c-0.064,0.083-0.123,0.171-0.18,0.26
		c-0.061,0.101-0.117,0.204-0.174,0.307c-0.076,0.135-0.09,0.271,0.014,0.393c0.119,0.139,0.244,0.271,0.375,0.397
		c0.035,0.036,0.096,0.047,0.146,0.065c0.07,0.027,0.143,0.048,0.213,0.076c0.117,0.046,0.162,0.14,0.164,0.266
		c-0.203,0.052-0.409,0.07-0.62,0.029c-0.13-0.025-0.241-0.085-0.333-0.181c-0.021-0.023-0.043-0.047-0.068-0.068
		c-0.219-0.195-0.395-0.425-0.551-0.673c-0.061-0.098-0.07-0.192-0.035-0.302c0.039-0.115,0.066-0.233,0.092-0.353
		C1788.762,807.399,1788.754,807.398,1788.687,807.37z"/>
</g>
</svg>
