<?xml version="1.0" encoding="utf-8"?>
<!-- Generator: Adobe Illustrator 15.0.0, SVG Export Plug-In . SVG Version: 6.00 Build 0)  -->
<!DOCTYPE svg PUBLIC "-//W3C//DTD SVG 1.1//EN" "http://www.w3.org/Graphics/SVG/1.1/DTD/svg11.dtd">
<svg version="1.1" id="Слой_1" xmlns="http://www.w3.org/2000/svg" xmlns:xlink="http://www.w3.org/1999/xlink" x="0px" y="0px"
	 width="16px" height="23px" viewBox="0 0 16 23" enable-background="new 0 0 16 23" xml:space="preserve">
<path fill="#3D3A2A" d="M14.684,10.147c-0.076-0.078-0.135-0.137-0.256-0.258c-0.031,0.34-0.068,0.611-0.068,0.883
	c0,0.051,0.156,0.15,0.227,0.139c0.199-0.031,0.367-0.008,0.545,0.105c0.07,0.045,0.209-0.035,0.314-0.057
	c0.016-0.023,0.031-0.049,0.045-0.072c0.047,0.117,0.129,0.232,0.135,0.354c0.025,0.377,0.021,0.758,0.027,1.138
	c0.006,0.322-0.238,0.475-0.422,0.637c-0.07,0.064-0.275-0.031-0.412-0.078c-0.209-0.072-0.408-0.18-0.619-0.246
	c-0.277-0.088-0.469-0.268-0.568-0.557c-0.131-0.371-0.281-0.722-0.535-1.025c-0.102-0.119-0.1-0.336-0.162-0.502
	c-0.051-0.139-0.102-0.297-0.197-0.395c-0.297-0.305-0.531-0.635-0.557-1.098c-0.016-0.289-0.143-0.51-0.361-0.68
	c-0.328-0.26-0.545-0.615-0.711-1.014c-0.088-0.211-0.207-0.41-0.313-0.613c-0.031,0.01-0.063,0.021-0.092,0.031
	c0.016,0.145,0.01,0.297,0.057,0.43c0.09,0.26,0.191,0.521,0.322,0.762c0.201,0.369,0.318,0.752,0.359,1.184
	c0.051,0.547,0.15,1.092,0.404,1.586c0.018,0.033,0.033,0.072,0.039,0.111c0.02,0.186-0.004,0.393,0.063,0.557
	c0.166,0.406,0.055,0.794-0.008,1.189c-0.004,0.021-0.014,0.059-0.027,0.064c-0.406,0.158-0.363,0.682-0.65,0.941
	c-0.033,0.031-0.01,0.16,0.012,0.234c0.098,0.328,0.211,0.652,0.309,0.982c0.074,0.25,0.131,0.506,0.189,0.734
	c0.387,0.186,0.789,0.336,1.154,0.563c0.559,0.346,0.977,0.863,1.301,1.463c0.07,0.127,0.146,0.252,0.072,0.434
	c-0.063,0.156,0.121,0.43,0.33,0.541c0.148,0.08,0.307,0.137,0.482,0.215c-0.096,0.072-0.184,0.137-0.309,0.229
	c0.139,0.084,0.238,0.148,0.342,0.209c0.408,0.24,0.691,0.779,0.125,1.248c-0.424,0.35-0.781,0.754-1.045,1.26
	c-0.178,0.34-0.461,0.49-0.822,0.537c-0.26,0.033-0.508,0.158-0.762,0.242c-0.137,0.045-0.271,0.111-0.412,0.133
	c-0.352,0.055-0.545-0.215-0.426-0.572c0.02-0.059,0.027-0.123,0.035-0.164c-0.117-0.027-0.285-0.025-0.301-0.078
	c-0.07-0.232,0.059-0.389,0.246-0.484c-0.061-0.313,0.006-0.383,0.309-0.447c0.105-0.023,0.189-0.154,0.283-0.236
	c-0.053-0.068-0.104-0.139-0.184-0.246c0.012-0.063,0.043-0.18,0.059-0.299c0.023-0.164,0.033-0.303-0.145-0.418
	c-0.1-0.064-0.152-0.262-0.178-0.408c-0.092-0.529-0.377-0.91-0.766-1.213c-0.121-0.094-0.26-0.178-0.402-0.217
	c-0.201-0.053-0.338-0.172-0.443-0.354c-0.102-0.176-0.205-0.35-0.324-0.51c-0.094-0.129-0.193-0.299-0.32-0.342
	c-0.336-0.111-0.426-0.428-0.59-0.693c-0.167-0.271-0.359-0.527-0.57-0.836c0.25-0.137,0.501-0.273,0.773-0.424
	c-0.412-0.107-1.037,0.17-1.726,0.75C7.35,15.24,7.139,15.436,6.926,15.5c-0.209,0.064-0.195,0.258-0.194,0.422
	c0.004,0.686,0.03,1.371,0.029,2.055c0,0.197-0.062,0.395-0.097,0.609c-0.295-0.182-0.498-0.117-0.526,0.201
	c-0.04,0.445-0.001,0.9,0.012,1.352c0.008,0.283,0.03,0.568,0.05,0.912c-0.21-0.066-0.355-0.113-0.533-0.172
	c0.018,0.172,0.033,0.314,0.047,0.439c-0.07-0.012-0.16-0.059-0.212-0.027c-0.042,0.023-0.04,0.141-0.05,0.217
	c-0.004,0.041,0.004,0.084,0.014,0.123c0.102,0.408,0.011,0.723-0.328,0.975c-0.313,0.23-0.614,0.313-0.959,0.127
	c-0.283-0.15-0.566-0.127-0.835,0.025c-0.39,0.221-0.78,0.287-1.21,0.148c-0.146-0.047-0.317-0.002-0.477-0.004
	c-0.059,0-0.142,0.008-0.172-0.029c-0.219-0.271-0.605-0.428-0.555-0.898c0.002-0.021-0.012-0.045-0.023-0.066
	c-0.146-0.281-0.137-0.34,0.16-0.381c0.514-0.068,0.994-0.229,1.434-0.523c0.109-0.072,0.209-0.164,0.358-0.283
	c-0.154-0.063-0.243-0.096-0.37-0.146c0.822-0.357,0.814-1.203,1.012-1.916c0.049-0.178-0.014-0.393-0.026-0.631
	c-0.122,0.051-0.179,0.074-0.245,0.102c0.004-0.029,0.001-0.053,0.008-0.074c0.283-0.799,0.574-1.596,0.846-2.398
	c0.084-0.252,0.123-0.525,0.16-0.793c0.011-0.072,0.094-0.248-0.108-0.232c-0.002-0.064-0.016-0.129-0.005-0.191
	c0.07-0.41,0.3-0.707,0.575-0.982c0.604-0.602,1.196-1.219,1.793-1.828c0.044-0.045,0.084-0.117,0.136-0.129
	c0.373-0.096,0.416-0.428,0.444-0.748c0.024-0.287,0.007-0.578,0.003-0.867C7.08,9.834,7.055,9.78,7.034,9.731
	C6.998,9.643,6.92,9.561,6.92,9.475c0-0.488-0.111-0.939-0.285-1.389C6.552,7.872,6.55,7.622,6.502,7.389
	C6.491,7.329,6.444,7.28,6.414,7.225C6.379,7.27,6.315,7.317,6.317,7.362C6.325,7.77,5.968,7.883,5.792,8.139
	C5.775,8.163,5.721,8.17,5.689,8.163C5.35,8.083,5.285,8.112,5.103,8.438C5.059,8.516,5.021,8.596,4.977,8.672
	c-0.08,0.139-0.162,0.275-0.243,0.414c-0.042-0.029-0.085-0.061-0.126-0.09c0.123-0.229,0.102-0.408-0.135-0.539
	C4.261,8.668,4.185,9.055,3.826,9.135c0.021-0.129,0.041-0.246,0.062-0.363c-0.021-0.02-0.042-0.039-0.063-0.057
	C3.533,8.938,3.241,9.161,2.949,9.383C2.805,9.186,2.707,9.18,2.569,9.395c-0.147,0.229-0.28,0.471-0.406,0.715
	c-0.037,0.074-0.025,0.176-0.045,0.262c-0.033,0.146-0.07,0.289-0.107,0.434c-0.049,0.193-0.086,0.381-0.246,0.525
	c-0.254,0.227-0.536,0.26-0.805,0.057c-0.024-0.02-0.053-0.047-0.079-0.047c-0.322,0.02-0.336-0.244-0.384-0.482
	c-0.037-0.186-0.09-0.365-0.129-0.551c-0.064-0.297,0.021-0.543,0.208-0.77C0.668,9.426,0.737,9.28,0.778,9.135
	C0.839,8.924,0.933,8.782,1.131,8.69C1.279,8.62,1.42,8.497,1.522,8.36c0.373-0.512,0.865-0.816,1.414-1.045
	c0.382-0.162,0.76-0.34,1.121-0.547c0.149-0.086,0.29-0.248,0.367-0.412c0.164-0.348,0.363-0.646,0.682-0.84
	c0.17-0.104,0.246-0.264,0.242-0.469C5.338,4.534,5.52,4.12,5.883,3.792C5.924,3.754,5.944,3.665,5.942,3.6
	C5.94,3.477,5.917,3.354,5.899,3.233C5.833,2.77,5.833,2.315,5.955,1.86c0.039-0.146,0.007-0.314,0.007-0.473
	C5.93,1.375,5.899,1.364,5.869,1.354C5.771,1.54,5.672,1.727,5.575,1.913C5.561,1.909,5.547,1.905,5.534,1.901
	c0.02-0.115,0.021-0.236,0.063-0.34c0.131-0.324,0.25-0.658,0.427-0.951C6.117,0.458,6.33,0.278,6.471,0.293
	c0.268,0.029,0.475-0.092,0.696-0.176c0.712-0.271,1.483,0.045,1.844,0.77c0.293,0.588,0.293,0.588,0.672,0.887
	c-0.148-0.018-0.25-0.029-0.352-0.041c0.326,0.299,0.451,0.785,0.957,0.904c0.746,0.178,1.41,0.582,1.848,1.307
	c0.092,0.156,0.17,0.336,0.203,0.518c0.1,0.533,0.254,1.02,0.633,1.416c0.16,0.166,0.223,0.443,0.328,0.67
	c0.227,0.482,0.438,0.977,0.684,1.447c0.105,0.203,0.285,0.359,0.439,0.545c-0.045,0.021-0.094,0.047-0.146,0.074
	C14.316,9.153,14.854,9.52,14.684,10.147z"/>
</svg>
