<?xml version="1.0" encoding="utf-8"?>
<!-- Generator: Adobe Illustrator 15.0.0, SVG Export Plug-In . SVG Version: 6.00 Build 0)  -->
<!DOCTYPE svg PUBLIC "-//W3C//DTD SVG 1.1//EN" "http://www.w3.org/Graphics/SVG/1.1/DTD/svg11.dtd">
<svg version="1.1" id="Слой_1" xmlns="http://www.w3.org/2000/svg" xmlns:xlink="http://www.w3.org/1999/xlink" x="0px" y="0px"
	 width="9px" height="10px" viewBox="0 0 9 10" enable-background="new 0 0 9 10" xml:space="preserve">
<g id="BIRDS_4_">
	<path fill="#58595B" d="M8.449,7.724c-0.145-0.963-0.41-1.785-0.818-2.559C7.57,5.048,7.406,4.963,7.27,4.914
		C7.025,4.826,6.762,4.792,6.518,4.707c-0.49-0.171-0.523-0.231-0.313-0.69C6.354,3.693,6.16,3.612,5.93,3.544
		C5.613,3.45,5.176,3.586,5.037,3.153c-0.1-0.307-0.082-0.65-0.174-0.961C4.801,1.978,4.688,1.714,4.516,1.605
		c-0.834-0.523-1.656-1.1-2.709-1.09C1.705,0.517,1.584,0.495,1.508,0.437c-0.373-0.291-0.73,0.159-1.102,0.021
		c-0.027-0.011-0.115,0.18-0.193,0.259c-0.098,0.1-0.064,0.068,0.057,0.281c0.449,0.777,1.346,0.978,1.957,1.548
		C2.467,2.77,2.619,2.97,2.689,3.307C2.783,3.758,3,4.187,3.184,4.615c0.139,0.318,0.064,0.525-0.246,0.671
		C2.34,5.565,1.746,5.852,1.152,6.139C1.064,6.182,0.988,6.246,0.906,6.301c0.076,0.062,0.148,0.171,0.227,0.177
		c0.557,0.042,0.852,0.256,0.674,0.87C1.781,7.435,1.889,7.56,1.936,7.667C2.014,7.604,2.1,7.547,2.172,7.478
		c0.477-0.46,0.951-0.924,1.43-1.384c0.246-0.238,0.494-0.32,0.828-0.11c0.461,0.29,1.037,0.443,1.414,0.81
		c0.41,0.4,0.678,0.961,0.951,1.482c0.184,0.353,0.256,0.762,0.4,1.137c0.033,0.087,0.041,0.502,0.279,0.095
		c0.004-0.008,0.066,0.006,0.088,0.024c0.092,0.08,0.18,0.166,0.268,0.25c0.109-0.122,0.283-0.229,0.313-0.366
		C8.273,8.829,8.361,8.233,8.449,7.724z"/>
</g>
</svg>
