<?xml version="1.0" encoding="utf-8"?>
<!-- Generator: Adobe Illustrator 15.0.0, SVG Export Plug-In . SVG Version: 6.00 Build 0)  -->
<!DOCTYPE svg PUBLIC "-//W3C//DTD SVG 1.1//EN" "http://www.w3.org/Graphics/SVG/1.1/DTD/svg11.dtd">
<svg version="1.1" id="Слой_1" xmlns="http://www.w3.org/2000/svg" xmlns:xlink="http://www.w3.org/1999/xlink" x="0px" y="0px"
	 width="196px" height="48px" viewBox="0 0 196 48" enable-background="new 0 0 196 48" xml:space="preserve">
<g>
	<g>
		<path fill="none" stroke="#6C6D71" stroke-width="0.25" stroke-miterlimit="10" d="M141.476,19.469
			c-0.299,0.162,0.6,2.172,0.301,2.334"/>
		<path fill="none" stroke="#2D2C2E" stroke-width="0.25" stroke-miterlimit="10" d="M140.729,19.875
			c0.299-0.162,1.497,1.683,1.796,1.521"/>
		<path fill="none" stroke="#2D2C2E" stroke-width="0.25" stroke-miterlimit="10" d="M140.758,19.859
			c-0.299,0.162,0.6,2.172,0.3,2.334"/>
		<path fill="none" stroke="#6C6D71" stroke-width="0.25" stroke-miterlimit="10" d="M140.009,20.266
			c0.3-0.164,1.498,1.683,1.798,1.521"/>
		<path fill="none" stroke="#6C6D71" stroke-width="0.25" stroke-miterlimit="10" d="M140.009,20.266
			c-0.299,0.162,0.6,2.172,0.301,2.334"/>
		<path fill="none" stroke="#2D2C2E" stroke-width="0.25" stroke-miterlimit="10" d="M139.261,20.673
			c0.301-0.165,1.498,1.683,1.797,1.521"/>
		<path fill="none" stroke="#2D2C2E" stroke-width="0.25" stroke-miterlimit="10" d="M139.261,20.673
			c-0.299,0.162,0.602,2.172,0.301,2.334"/>
		<path fill="none" stroke="#6C6D71" stroke-width="0.25" stroke-miterlimit="10" d="M138.515,21.079
			c0.299-0.162,1.496,1.683,1.795,1.521"/>
		<path fill="none" stroke="#6C6D71" stroke-width="0.25" stroke-miterlimit="10" d="M138.515,21.079
			c-0.3,0.162,0.599,2.172,0.3,2.334"/>
		<path fill="none" stroke="#2D2C2E" stroke-width="0.25" stroke-miterlimit="10" d="M137.766,21.486
			c0.299-0.162,1.497,1.683,1.796,1.521"/>
		<path fill="none" stroke="#2D2C2E" stroke-width="0.25" stroke-miterlimit="10" d="M137.766,21.486
			c-0.299,0.162,0.6,2.172,0.301,2.334"/>
		<path fill="none" stroke="#6C6D71" stroke-width="0.25" stroke-miterlimit="10" d="M137.018,21.893
			c0.299-0.162,1.497,1.683,1.797,1.521"/>
		<path fill="none" stroke="#6C6D71" stroke-width="0.25" stroke-miterlimit="10" d="M137.018,21.893
			c-0.3,0.162,0.6,2.172,0.3,2.334"/>
		<path fill="none" stroke="#2D2C2E" stroke-width="0.25" stroke-miterlimit="10" d="M136.269,22.3
			c0.3-0.163,1.498,1.683,1.798,1.521"/>
		<path fill="none" stroke="#2D2C2E" stroke-width="0.25" stroke-miterlimit="10" d="M136.269,22.3
			c-0.299,0.162,0.6,2.171,0.301,2.334"/>
		<path fill="none" stroke="#6C6D71" stroke-width="0.25" stroke-miterlimit="10" d="M135.521,22.706
			c0.301-0.162,1.498,1.683,1.797,1.521"/>
		<path fill="none" stroke="#6C6D71" stroke-width="0.25" stroke-miterlimit="10" d="M135.521,22.706
			c-0.299,0.162,0.602,2.172,0.301,2.334"/>
		<path fill="none" stroke="#2D2C2E" stroke-width="0.25" stroke-miterlimit="10" d="M134.774,23.113
			c0.299-0.162,1.496,1.683,1.795,1.521"/>
		<path fill="none" stroke="#2D2C2E" stroke-width="0.25" stroke-miterlimit="10" d="M134.774,23.113
			c-0.3,0.162,0.599,2.172,0.3,2.334"/>
		<path fill="none" stroke="#6C6D71" stroke-width="0.25" stroke-miterlimit="10" d="M134.025,23.52
			c0.299-0.162,1.497,1.683,1.796,1.521"/>
		<path fill="none" stroke="#6C6D71" stroke-width="0.25" stroke-miterlimit="10" d="M134.025,23.52
			c-0.299,0.162,0.6,2.172,0.301,2.334"/>
		<path fill="none" stroke="#2D2C2E" stroke-width="0.25" stroke-miterlimit="10" d="M133.277,23.926
			c0.299-0.162,1.498,1.684,1.797,1.521"/>
		<path fill="none" stroke="#6C6D71" stroke-width="0.25" stroke-miterlimit="10" d="M142.731,25.062
			c-0.34,0-0.509,2.196-0.851,2.196"/>
		<path fill="none" stroke="#2D2C2E" stroke-width="0.25" stroke-miterlimit="10" d="M141.88,25.062
			c0.342,0,0.513,2.193,0.854,2.193"/>
		<path fill="none" stroke="#2D2C2E" stroke-width="0.25" stroke-miterlimit="10" d="M141.914,25.062
			c-0.341,0-0.511,2.196-0.851,2.196"/>
		<path fill="none" stroke="#6C6D71" stroke-width="0.25" stroke-miterlimit="10" d="M141.062,25.062
			c0.342,0,0.514,2.196,0.853,2.196"/>
		<path fill="none" stroke="#6C6D71" stroke-width="0.25" stroke-miterlimit="10" d="M141.062,25.062
			c-0.34,0-0.509,2.196-0.849,2.196"/>
		<path fill="none" stroke="#2D2C2E" stroke-width="0.25" stroke-miterlimit="10" d="M140.212,25.064
			c0.34-0.003,0.512,2.193,0.852,2.193"/>
		<path fill="none" stroke="#2D2C2E" stroke-width="0.25" stroke-miterlimit="10" d="M140.212,25.064
			c-0.341,0-0.511,2.193-0.852,2.193"/>
		<path fill="none" stroke="#6C6D71" stroke-width="0.25" stroke-miterlimit="10" d="M139.359,25.064
			c0.341,0,0.512,2.193,0.854,2.193"/>
		<path fill="none" stroke="#6C6D71" stroke-width="0.25" stroke-miterlimit="10" d="M139.359,25.064
			c-0.341,0-0.509,2.193-0.851,2.193"/>
		<path fill="none" stroke="#2D2C2E" stroke-width="0.25" stroke-miterlimit="10" d="M138.507,25.064
			c0.342,0,0.514,2.193,0.854,2.193"/>
		<path fill="none" stroke="#2D2C2E" stroke-width="0.25" stroke-miterlimit="10" d="M138.507,25.064
			c-0.341,0-0.509,2.193-0.849,2.193"/>
		<path fill="none" stroke="#6C6D71" stroke-width="0.25" stroke-miterlimit="10" d="M137.657,25.064
			c0.34,0,0.512,2.193,0.852,2.193"/>
		<path fill="none" stroke="#6C6D71" stroke-width="0.25" stroke-miterlimit="10" d="M137.657,25.064
			c-0.341,0-0.511,2.195-0.852,2.195"/>
		<path fill="none" stroke="#2D2C2E" stroke-width="0.25" stroke-miterlimit="10" d="M136.805,25.064
			c0.341,0,0.513,2.195,0.854,2.193"/>
		<path fill="none" stroke="#2D2C2E" stroke-width="0.25" stroke-miterlimit="10" d="M136.805,25.064
			c-0.34,0-0.509,2.195-0.851,2.195"/>
		<path fill="none" stroke="#6C6D71" stroke-width="0.25" stroke-miterlimit="10" d="M135.954,25.064
			c0.34,0,0.512,2.195,0.852,2.195"/>
		<path fill="none" stroke="#6C6D71" stroke-width="0.25" stroke-miterlimit="10" d="M135.954,25.064
			c-0.342,0.002-0.511,2.195-0.851,2.195"/>
		<path fill="none" stroke="#2D2C2E" stroke-width="0.25" stroke-miterlimit="10" d="M135.103,25.066
			c0.34,0,0.512,2.193,0.852,2.193"/>
		<path fill="none" stroke="#2D2C2E" stroke-width="0.25" stroke-miterlimit="10" d="M135.103,25.066
			c-0.341,0-0.511,2.193-0.853,2.193"/>
		<path fill="none" stroke="#6C6D71" stroke-width="0.25" stroke-miterlimit="10" d="M134.25,25.066
			c0.341,0,0.513,2.193,0.854,2.193"/>
		<path fill="none" stroke="#6C6D71" stroke-width="0.25" stroke-miterlimit="10" d="M134.25,25.066
			c-0.34,0-0.509,2.193-0.849,2.193"/>
		<path fill="none" stroke="#2D2C2E" stroke-width="0.25" stroke-miterlimit="10" d="M133.399,25.066
			c0.34,0,0.512,2.193,0.851,2.193"/>
	</g>
	<path fill="#26B99A" d="M193.734,26.922c0,0-6.295-4.498-17.808-4.631c0,0-1.077-6.226-2.211-7.632
		c-1.135-1.403-11.04-12.236-32.091-12.236v29.986h33.791c0,0,7.6-0.176,9.244,5.675h9.074V26.922z"/>
	<polygon fill="#3B3B3E" points="176.551,32.409 176.551,35.126 176.551,37.846 176.551,38.874 176.551,40.804 176.551,43.763 
		148.309,43.763 148.309,40.804 144.735,40.804 144.735,37.846 138.328,37.846 138.328,32.409 	"/>
	<polygon fill="#8D9299" points="36.531,40.203 36.531,33.842 10.435,33.842 3.866,40.203 	"/>
	<polygon fill="#A4A8AF" points="106.796,29.248 106.796,36.365 35.264,36.365 2.505,36.365 2.505,29.248 	"/>
	<rect x="0.189" y="29.248" fill="#302F32" width="106.606" height="3.402"/>
	<rect x="77.986" y="30.949" fill="#AFB4BB" width="17.921" height="6.295"/>
	
		<line fill="none" stroke="#C1C4D2" stroke-width="0.5216" stroke-miterlimit="10" x1="92.958" y1="30.949" x2="92.958" y2="37.244"/>
	<line fill="none" stroke="#C1C4D2" stroke-width="0.5216" stroke-miterlimit="10" x1="81.39" y1="30.949" x2="81.39" y2="37.244"/>
	<polygon fill="#8D9299" points="141.73,30.949 114.055,30.949 107.93,36.734 107.93,43.539 138.328,43.539 138.328,37.244 
		141.73,33.842 	"/>
	<g>
		<circle fill="#2A2A2A" cx="28.535" cy="41.043" r="6.729"/>
		<circle fill="#6A7E86" cx="28.535" cy="41.043" r="4.679"/>
		<circle fill="#5C5D60" cx="28.535" cy="41.043" r="4.211"/>
		<circle fill="#B2BCC2" cx="28.534" cy="41.043" r="0.842"/>
		<circle fill="#B2BCC2" cx="28.535" cy="41.043" r="2.959"/>
		<path fill="#DADADA" d="M29.613,40.902c0,0.596-0.482,1.076-1.078,1.076s-1.079-0.48-1.079-1.076c0-0.598,0.483-1.079,1.079-1.079
			S29.613,40.305,29.613,40.902z"/>
	</g>
	<g>
		<circle fill="#2A2A2A" cx="13.393" cy="41.043" r="6.729"/>
		<circle fill="#6A7E86" cx="13.394" cy="41.043" r="4.679"/>
		<circle fill="#5C5D60" cx="13.394" cy="41.043" r="4.211"/>
		<circle fill="#B2BCC2" cx="13.393" cy="41.043" r="0.842"/>
		<circle fill="#B2BCC2" cx="13.394" cy="41.043" r="2.959"/>
		<path fill="#DADADA" d="M14.472,40.902c0,0.596-0.482,1.076-1.078,1.076s-1.079-0.48-1.079-1.076c0-0.598,0.483-1.079,1.079-1.079
			S14.472,40.305,14.472,40.902z"/>
	</g>
	<g>
		<circle fill="#2A2A2A" cx="132.401" cy="41.043" r="6.729"/>
		<circle fill="#6A7E86" cx="132.401" cy="41.043" r="4.679"/>
		<circle fill="#5C5D60" cx="132.401" cy="41.043" r="4.211"/>
		<circle fill="#B2BCC2" cx="132.401" cy="41.043" r="0.842"/>
		<circle fill="#B2BCC2" cx="132.401" cy="41.043" r="2.959"/>
		<path fill="#DADADA" d="M133.479,40.902c0,0.596-0.482,1.076-1.078,1.076s-1.079-0.48-1.079-1.076
			c0-0.598,0.483-1.079,1.079-1.079S133.479,40.305,133.479,40.902z"/>
	</g>
	<g>
		<circle fill="#2A2A2A" cx="177.657" cy="41.043" r="6.728"/>
		<circle fill="#6A7E86" cx="177.656" cy="41.043" r="4.678"/>
		<circle fill="#5C5D60" cx="177.657" cy="41.043" r="4.21"/>
		<circle fill="#B2BCC2" cx="177.656" cy="41.043" r="0.842"/>
		<circle fill="#B2BCC2" cx="177.657" cy="41.043" r="2.958"/>
		<path fill="#DADADA" d="M178.734,40.902c0,0.596-0.482,1.076-1.078,1.076c-0.595,0-1.079-0.48-1.079-1.076
			c0-0.598,0.484-1.079,1.079-1.079C178.252,39.823,178.734,40.305,178.734,40.902z"/>
	</g>
	<g>
		<circle fill="#2A2A2A" cx="117.259" cy="41.043" r="6.728"/>
		<circle fill="#6A7E86" cx="117.26" cy="41.043" r="4.679"/>
		<circle fill="#5C5D60" cx="117.259" cy="41.043" r="4.21"/>
		<circle fill="#B2BCC2" cx="117.258" cy="41.043" r="0.842"/>
		<path fill="#B2BCC2" d="M120.218,41.043c0,1.635-1.324,2.959-2.958,2.959c-1.637,0-2.959-1.324-2.959-2.959
			c0-1.632,1.322-2.959,2.959-2.959C118.894,38.084,120.218,39.411,120.218,41.043z"/>
		<path fill="#DADADA" d="M118.337,40.902c0,0.596-0.482,1.076-1.077,1.076c-0.596,0-1.079-0.48-1.079-1.076
			c0-0.598,0.483-1.079,1.079-1.079C117.854,39.823,118.337,40.305,118.337,40.902z"/>
	</g>
	<rect x="158.517" y="35.033" fill="#4E4F52" width="9.697" height="8.506"/>
	
		<line fill="#C1C4D2" stroke="#C1C4D2" stroke-width="0.5" stroke-miterlimit="10" x1="168.214" y1="38.084" x2="158.517" y2="38.084"/>
	
		<line fill="#C1C4D2" stroke="#C1C4D2" stroke-width="0.5" stroke-miterlimit="10" x1="168.214" y1="40.902" x2="158.517" y2="40.902"/>
	<rect x="0.189" y="0.073" fill="#26B99A" width="133.986" height="29.175"/>
	<polyline fill="#DAE5C7" points="60.65,14.229 61.104,13.154 60.819,12.966 60.65,12.963 0.189,11.557 0.189,15.635 60.65,14.229 
		60.197,14.037 	"/>
	<polyline fill="#DAE5C7" points="60.322,12.695 59.646,13.014 134.176,14.565 134.176,9.646 59.646,11.197 59.315,11.203 
		58.97,11.515 59.646,13.014 	"/>
	<polyline fill="#DAE5C7" points="141.494,14.795 154.508,29.7 155,29.916 193.451,31.287 193.451,27.209 155,28.578 
		155.493,28.797 141.625,10.422 141.494,14.795 	"/>
	<path opacity="0.5" fill="#DAE5C7" d="M141.73,13.253l-0.222-6.499l14.655,20.594l-0.71-0.311l33.771-2.351
		c0,0,4.792,1.951,4.509,2.235c-0.283,0.287,0.255,3.281,0.255,3.281l-38.535-1.236l-0.711-0.314l-13.425-15.591"/>
	<polygon fill="#8D9299" points="184.385,43.539 195.554,43.539 195.554,38.084 193.677,38.084 184.385,38.084 	"/>
	<rect x="190.842" y="32.954" fill="#F2CB6E" width="2.609" height="2.079"/>
	<rect x="157.973" y="15.693" fill="#D1E2E8" width="10.241" height="6.606"/>
	<polygon fill="#D1E2E8" points="175.189,22.289 173.913,15.893 170.171,15.893 170.171,22.3 	"/>
	<rect x="159.027" y="25.04" fill="#343335" width="0.68" height="2.22"/>
	<rect x="164.386" y="23.007" fill="#343335" width="3.084" height="0.406"/>
	<rect x="164.386" y="22.3" fill="#343335" width="1.542" height="0.707"/>
	<rect x="139.13" y="37.244" fill="#5C5D60" width="1.242" height="0.84"/>
	<rect x="193.734" y="27.255" fill="#A4A8AF" width="0.511" height="10.829"/>
	<polyline opacity="0.5" fill="#DAE5C7" points="58.444,15.513 59.112,13.929 58.691,13.652 58.444,13.646 0.189,11.658 
		0.189,17.663 58.444,15.513 57.775,15.23 	"/>
	<polyline opacity="0.5" fill="#DAE5C7" points="63.77,11.224 62.774,11.695 134.176,14.152 134.176,6.905 62.774,9.016 
		62.288,9.029 61.781,9.487 62.774,11.695 	"/>
</g>
</svg>
