<?xml version="1.0" encoding="utf-8"?>
<!-- Generator: Adobe Illustrator 15.0.0, SVG Export Plug-In . SVG Version: 6.00 Build 0)  -->
<!DOCTYPE svg PUBLIC "-//W3C//DTD SVG 1.1//EN" "http://www.w3.org/Graphics/SVG/1.1/DTD/svg11.dtd">
<svg version="1.1" id="Слой_1" xmlns="http://www.w3.org/2000/svg" xmlns:xlink="http://www.w3.org/1999/xlink" x="0px" y="0px"
	 width="22px" height="12px" viewBox="0 0 22 12" enable-background="new 0 0 22 12" xml:space="preserve">
<g>
	<path fill="#F6EC50" d="M3.134,2.826c0,0-1.54,1.664-2.231,2.088c-0.692,0.422,1.211,0.105,1.484,0
		c0.272-0.107,1.9-0.875,1.9-0.875l0.6-0.813L3.686,2.4L3.134,2.826"/>
	<path fill="#D7B687" d="M5.814,11.307c0,0,8.246,0.736,11.953-0.861c3.706-1.6,4.076-3.27,4.076-3.27l0.051-0.145l-2.051,0.217
		L14.266,5.67H9.161L7.287,6.607L6.486,6.748l-1.35,2.824L5.814,11.307z"/>
	<path fill="#178A38" d="M3.134,2.826c0,0,0.638-3.883,3.903-2.059c0,0,1.213,0.941,0.746,4.432c0,0-2.287,1.49-3.141,0.354
		c0,0,0.334-0.186,0.244-0.555c-0.09-0.367-0.322-0.27-0.275-0.643c0.046-0.373-0.259-0.32-0.324-0.316
		C4.223,4.041,4.236,3.627,4.236,3.627s-0.619,0.02-0.551-0.4S3.611,2.74,3.611,2.74L3.134,2.826z"/>
	<path fill="#9F4526" d="M4.627,5.553c0,0-3.894,5.859,1.188,5.754c0,0,0.396,0.066,0.052-1.031C5.521,9.178,6.627,7.336,6.85,7.004
		C7.074,6.67,7.872,5.553,7.872,5.553L7.768,5.199L4.627,5.553z"/>
	<path fill="#FFFFFF" d="M4.643,5.506c0,0,0.137,0.889,3.125-0.307l0.05-0.285c0,0-2.661,0.785-2.882,0.285L4.643,5.506z"/>
	<path fill="#1A1718" d="M7.817,5.422c0,0,0.354,0.051,1.134-0.301c0.779-0.354,2.504-0.84,5.139-0.123
		c2.637,0.717,6.354,0.928,6.354,0.928s-1.602,0.533-2.102,0.541l2.601-0.063c0,0-0.723,0.523-0.999,0.57l1.951,0.057
		c0,0-1.793,0.689-5.736-0.385s-5.541-0.26-6.323,0C9.053,6.904,7.618,7.473,6.85,7.004"/>
	<path fill="#BD7E5C" d="M8.832,8.951c0,0,1.952-0.873,7.209-1.215c5.259-0.342,3.302-0.197,3.302-0.197s0.207,1.699-2.401,2.014
		C14.334,9.865,8.819,9.115,8.832,8.951z"/>
</g>
</svg>
