<?xml version="1.0" encoding="utf-8"?>
<!-- Generator: Adobe Illustrator 16.0.0, SVG Export Plug-In . SVG Version: 6.00 Build 0)  -->
<!DOCTYPE svg PUBLIC "-//W3C//DTD SVG 1.1//EN" "http://www.w3.org/Graphics/SVG/1.1/DTD/svg11.dtd">
<svg version="1.1" id="Слой_1" xmlns="http://www.w3.org/2000/svg" xmlns:xlink="http://www.w3.org/1999/xlink" x="0px" y="0px"
	 width="578px" height="98px" viewBox="0 0 578 98" enable-background="new 0 0 578 98" xml:space="preserve">
<polyline fill="#929497" points="568.721,97.992 542.395,97.992 505.537,97.992 484.256,97.992 478.332,97.992 455.516,97.992 
	450.689,97.992 363.813,97.992 305.674,97.992 248.414,97.992 193.345,97.992 170.75,97.992 146.395,97.992 129.284,97.992 
	111.513,97.992 0.284,97.992 0.284,66.236 0.284,58.924 0.284,32.809 0.284,29.417 0.36,29.417 11.911,18.417 11.911,9.829 
	15.42,9.829 15.42,8.368 20.906,8.368 20.906,9.829 24.088,9.829 24.088,32.809 36.921,32.809 36.921,58.924 47.891,58.924 
	47.891,28.214 47.891,27.169 47.891,22.157 47.891,0.336 63.371,0.009 63.686,0.009 63.686,22.157 75.972,22.157 75.972,27.169 
	78.825,27.169 78.825,25.707 91.768,25.707 91.768,27.169 92.866,27.169 92.866,19.648 92.866,16.304 102.518,16.304 
	102.518,19.648 106.687,19.648 106.687,66.236 111.513,66.236 111.513,45.345 129.284,45.345 129.284,40.748 129.284,38.033 
	129.284,36.675 132.357,36.675 132.357,38.033 135.865,38.033 135.865,35.683 144.642,35.683 144.642,38.033 146.395,38.033 
	146.395,43.882 170.75,43.882 176.674,43.882 176.674,40.748 185.449,40.748 185.449,43.882 193.345,43.882 193.345,36.675 
	197.952,36.675 197.952,22.157 241.61,22.157 241.61,36.675 248.414,36.675 248.414,70.834 252.582,70.834 252.582,45.345 
	252.582,36.675 252.582,33.54 257.408,33.54 257.408,36.675 258.943,36.675 258.943,34.691 269.034,34.691 269.034,36.675 
	269.034,40.748 272.107,40.748 272.107,45.345 275.835,45.345 275.835,17.977 275.835,5.653 281.759,5.653 281.759,3.353 
	299.531,3.353 299.531,17.977 301.506,17.977 301.506,16.933 311.598,16.933 311.598,17.977 318.617,17.977 318.617,40.748 
	332.439,40.748 332.439,76.055 363.813,76.055 363.813,57.461 369.297,57.461 369.297,39.705 376.316,39.705 376.316,36.257 
	379.825,36.257 379.825,33.96 393.208,33.96 393.208,36.257 398.256,36.257 398.256,39.705 401.547,39.705 401.547,27.169 
	402.642,27.169 402.642,25.707 412.516,25.707 412.516,24.452 417.781,24.452 417.781,25.707 419.538,25.707 419.538,27.169 
	447.398,27.169 447.398,57.461 450.689,57.461 450.689,40.748 455.516,40.748 455.516,32.393 478.332,32.393 478.332,9.204 
	484.256,9.204 484.256,7.115 484.256,5.862 490.619,5.862 490.619,4.19 498.078,4.19 498.078,5.862 500.712,5.862 500.712,7.115 
	505.537,7.115 505.537,30.095 539.104,30.095 539.104,28.632 542.395,28.632 542.395,25.707 543.49,25.707 543.49,28.632 
	549.636,28.632 549.636,30.095 562.139,30.095 562.139,34.691 564.334,34.691 564.334,44.718 568.721,44.718 568.721,67.705 
	572.451,67.705 572.451,66.443 577.715,66.443 577.715,67.705 "/>
</svg>
