<?xml version="1.0" encoding="utf-8"?>
<!-- Generator: Adobe Illustrator 16.0.0, SVG Export Plug-In . SVG Version: 6.00 Build 0)  -->
<!DOCTYPE svg PUBLIC "-//W3C//DTD SVG 1.1//EN" "http://www.w3.org/Graphics/SVG/1.1/DTD/svg11.dtd">
<svg version="1.1" id="Layer_1" xmlns="http://www.w3.org/2000/svg" xmlns:xlink="http://www.w3.org/1999/xlink" x="0px" y="0px"
	 width="1131px" height="750px" viewBox="0 0 1131 750" enable-background="new 0 0 1131 750" xml:space="preserve">
<pattern  x="-394" y="915.5" width="144" height="150" patternUnits="userSpaceOnUse" id="SVGID_6_" viewBox="0 -150 144 150" overflow="visible">
	<g>
		<polygon fill="none" points="0,0 144,0 144,-150 0,-150 		"/>
		<g>
			<polygon fill="none" points="0,-150 144,-150 144,0 0,0 			"/>
			<g>
				<polygon fill="none" points="0,-150 144,-150 144,0 0,0 				"/>
				<g>
					<line fill="none" stroke="#2980BA" stroke-width="2" stroke-miterlimit="10" x1="122" y1="-150" x2="122" y2="0"/>
					<line fill="none" stroke="#2980BA" stroke-width="2" stroke-miterlimit="10" x1="126" y1="-150" x2="126" y2="0"/>
					<line fill="none" stroke="#2980BA" stroke-width="2" stroke-miterlimit="10" x1="130" y1="-150" x2="130" y2="0"/>
					<line fill="none" stroke="#2980BA" stroke-width="2" stroke-miterlimit="10" x1="134" y1="-150" x2="134" y2="0"/>
					<line fill="none" stroke="#2980BA" stroke-width="2" stroke-miterlimit="10" x1="138" y1="-150" x2="138" y2="0"/>
					<line fill="none" stroke="#2980BA" stroke-width="2" stroke-miterlimit="10" x1="142" y1="-150" x2="142" y2="0"/>
				</g>
				<g>
					<line fill="none" stroke="#2980BA" stroke-width="2" stroke-miterlimit="10" x1="74" y1="-150" x2="74" y2="0"/>
					<line fill="none" stroke="#2980BA" stroke-width="2" stroke-miterlimit="10" x1="78" y1="-150" x2="78" y2="0"/>
					<line fill="none" stroke="#2980BA" stroke-width="2" stroke-miterlimit="10" x1="82" y1="-150" x2="82" y2="0"/>
					<line fill="none" stroke="#2980BA" stroke-width="2" stroke-miterlimit="10" x1="86" y1="-150" x2="86" y2="0"/>
					<line fill="none" stroke="#2980BA" stroke-width="2" stroke-miterlimit="10" x1="90" y1="-150" x2="90" y2="0"/>
					<line fill="none" stroke="#2980BA" stroke-width="2" stroke-miterlimit="10" x1="94" y1="-150" x2="94" y2="0"/>
					<line fill="none" stroke="#2980BA" stroke-width="2" stroke-miterlimit="10" x1="98" y1="-150" x2="98" y2="0"/>
					<line fill="none" stroke="#2980BA" stroke-width="2" stroke-miterlimit="10" x1="102" y1="-150" x2="102" y2="0"/>
					<line fill="none" stroke="#2980BA" stroke-width="2" stroke-miterlimit="10" x1="106" y1="-150" x2="106" y2="0"/>
					<line fill="none" stroke="#2980BA" stroke-width="2" stroke-miterlimit="10" x1="110" y1="-150" x2="110" y2="0"/>
					<line fill="none" stroke="#2980BA" stroke-width="2" stroke-miterlimit="10" x1="114" y1="-150" x2="114" y2="0"/>
					<line fill="none" stroke="#2980BA" stroke-width="2" stroke-miterlimit="10" x1="118" y1="-150" x2="118" y2="0"/>
					<line fill="none" stroke="#2980BA" stroke-width="2" stroke-miterlimit="10" x1="122" y1="-150" x2="122" y2="0"/>
					<line fill="none" stroke="#2980BA" stroke-width="2" stroke-miterlimit="10" x1="126" y1="-150" x2="126" y2="0"/>
					<line fill="none" stroke="#2980BA" stroke-width="2" stroke-miterlimit="10" x1="130" y1="-150" x2="130" y2="0"/>
					<line fill="none" stroke="#2980BA" stroke-width="2" stroke-miterlimit="10" x1="134" y1="-150" x2="134" y2="0"/>
					<line fill="none" stroke="#2980BA" stroke-width="2" stroke-miterlimit="10" x1="138" y1="-150" x2="138" y2="0"/>
					<line fill="none" stroke="#2980BA" stroke-width="2" stroke-miterlimit="10" x1="142" y1="-150" x2="142" y2="0"/>
				</g>
				<g>
					<line fill="none" stroke="#2980BA" stroke-width="2" stroke-miterlimit="10" x1="26" y1="-150" x2="26" y2="0"/>
					<line fill="none" stroke="#2980BA" stroke-width="2" stroke-miterlimit="10" x1="30" y1="-150" x2="30" y2="0"/>
					<line fill="none" stroke="#2980BA" stroke-width="2" stroke-miterlimit="10" x1="34" y1="-150" x2="34" y2="0"/>
					<line fill="none" stroke="#2980BA" stroke-width="2" stroke-miterlimit="10" x1="38" y1="-150" x2="38" y2="0"/>
					<line fill="none" stroke="#2980BA" stroke-width="2" stroke-miterlimit="10" x1="42" y1="-150" x2="42" y2="0"/>
					<line fill="none" stroke="#2980BA" stroke-width="2" stroke-miterlimit="10" x1="46" y1="-150" x2="46" y2="0"/>
					<line fill="none" stroke="#2980BA" stroke-width="2" stroke-miterlimit="10" x1="50" y1="-150" x2="50" y2="0"/>
					<line fill="none" stroke="#2980BA" stroke-width="2" stroke-miterlimit="10" x1="54" y1="-150" x2="54" y2="0"/>
					<line fill="none" stroke="#2980BA" stroke-width="2" stroke-miterlimit="10" x1="58" y1="-150" x2="58" y2="0"/>
					<line fill="none" stroke="#2980BA" stroke-width="2" stroke-miterlimit="10" x1="62" y1="-150" x2="62" y2="0"/>
					<line fill="none" stroke="#2980BA" stroke-width="2" stroke-miterlimit="10" x1="66" y1="-150" x2="66" y2="0"/>
					<line fill="none" stroke="#2980BA" stroke-width="2" stroke-miterlimit="10" x1="70" y1="-150" x2="70" y2="0"/>
					<line fill="none" stroke="#2980BA" stroke-width="2" stroke-miterlimit="10" x1="74" y1="-150" x2="74" y2="0"/>
					<line fill="none" stroke="#2980BA" stroke-width="2" stroke-miterlimit="10" x1="78" y1="-150" x2="78" y2="0"/>
					<line fill="none" stroke="#2980BA" stroke-width="2" stroke-miterlimit="10" x1="82" y1="-150" x2="82" y2="0"/>
					<line fill="none" stroke="#2980BA" stroke-width="2" stroke-miterlimit="10" x1="86" y1="-150" x2="86" y2="0"/>
					<line fill="none" stroke="#2980BA" stroke-width="2" stroke-miterlimit="10" x1="90" y1="-150" x2="90" y2="0"/>
					<line fill="none" stroke="#2980BA" stroke-width="2" stroke-miterlimit="10" x1="94" y1="-150" x2="94" y2="0"/>
					<line fill="none" stroke="#2980BA" stroke-width="2" stroke-miterlimit="10" x1="98" y1="-150" x2="98" y2="0"/>
					<line fill="none" stroke="#2980BA" stroke-width="2" stroke-miterlimit="10" x1="102" y1="-150" x2="102" y2="0"/>
					<line fill="none" stroke="#2980BA" stroke-width="2" stroke-miterlimit="10" x1="106" y1="-150" x2="106" y2="0"/>
					<line fill="none" stroke="#2980BA" stroke-width="2" stroke-miterlimit="10" x1="110" y1="-150" x2="110" y2="0"/>
					<line fill="none" stroke="#2980BA" stroke-width="2" stroke-miterlimit="10" x1="114" y1="-150" x2="114" y2="0"/>
					<line fill="none" stroke="#2980BA" stroke-width="2" stroke-miterlimit="10" x1="118" y1="-150" x2="118" y2="0"/>
				</g>
				<g>
					<line fill="none" stroke="#2980BA" stroke-width="2" stroke-miterlimit="10" x1="2" y1="-150" x2="2" y2="0"/>
					<line fill="none" stroke="#2980BA" stroke-width="2" stroke-miterlimit="10" x1="6" y1="-150" x2="6" y2="0"/>
					<line fill="none" stroke="#2980BA" stroke-width="2" stroke-miterlimit="10" x1="10" y1="-150" x2="10" y2="0"/>
					<line fill="none" stroke="#2980BA" stroke-width="2" stroke-miterlimit="10" x1="14" y1="-150" x2="14" y2="0"/>
					<line fill="none" stroke="#2980BA" stroke-width="2" stroke-miterlimit="10" x1="18" y1="-150" x2="18" y2="0"/>
					<line fill="none" stroke="#2980BA" stroke-width="2" stroke-miterlimit="10" x1="22" y1="-150" x2="22" y2="0"/>
					<line fill="none" stroke="#2980BA" stroke-width="2" stroke-miterlimit="10" x1="26" y1="-150" x2="26" y2="0"/>
					<line fill="none" stroke="#2980BA" stroke-width="2" stroke-miterlimit="10" x1="30" y1="-150" x2="30" y2="0"/>
					<line fill="none" stroke="#2980BA" stroke-width="2" stroke-miterlimit="10" x1="34" y1="-150" x2="34" y2="0"/>
					<line fill="none" stroke="#2980BA" stroke-width="2" stroke-miterlimit="10" x1="38" y1="-150" x2="38" y2="0"/>
					<line fill="none" stroke="#2980BA" stroke-width="2" stroke-miterlimit="10" x1="42" y1="-150" x2="42" y2="0"/>
					<line fill="none" stroke="#2980BA" stroke-width="2" stroke-miterlimit="10" x1="46" y1="-150" x2="46" y2="0"/>
					<line fill="none" stroke="#2980BA" stroke-width="2" stroke-miterlimit="10" x1="50" y1="-150" x2="50" y2="0"/>
					<line fill="none" stroke="#2980BA" stroke-width="2" stroke-miterlimit="10" x1="54" y1="-150" x2="54" y2="0"/>
					<line fill="none" stroke="#2980BA" stroke-width="2" stroke-miterlimit="10" x1="58" y1="-150" x2="58" y2="0"/>
					<line fill="none" stroke="#2980BA" stroke-width="2" stroke-miterlimit="10" x1="62" y1="-150" x2="62" y2="0"/>
					<line fill="none" stroke="#2980BA" stroke-width="2" stroke-miterlimit="10" x1="66" y1="-150" x2="66" y2="0"/>
					<line fill="none" stroke="#2980BA" stroke-width="2" stroke-miterlimit="10" x1="70" y1="-150" x2="70" y2="0"/>
				</g>
				<g>
					<line fill="none" stroke="#2980BA" stroke-width="2" stroke-miterlimit="10" x1="2" y1="-150" x2="2" y2="0"/>
					<line fill="none" stroke="#2980BA" stroke-width="2" stroke-miterlimit="10" x1="6" y1="-150" x2="6" y2="0"/>
					<line fill="none" stroke="#2980BA" stroke-width="2" stroke-miterlimit="10" x1="10" y1="-150" x2="10" y2="0"/>
					<line fill="none" stroke="#2980BA" stroke-width="2" stroke-miterlimit="10" x1="14" y1="-150" x2="14" y2="0"/>
					<line fill="none" stroke="#2980BA" stroke-width="2" stroke-miterlimit="10" x1="18" y1="-150" x2="18" y2="0"/>
					<line fill="none" stroke="#2980BA" stroke-width="2" stroke-miterlimit="10" x1="22" y1="-150" x2="22" y2="0"/>
				</g>
			</g>
		</g>
	</g>
</pattern>
<pattern  x="-394" y="915.5" width="144" height="150" patternUnits="userSpaceOnUse" id="SVGID_7_" viewBox="0 -150 144 150" overflow="visible">
	<g>
		<polygon fill="none" points="0,0 144,0 144,-150 0,-150 		"/>
		<g>
			<polygon fill="none" points="0,-150 144,-150 144,0 0,0 			"/>
			<g>
				<polygon fill="none" points="0,-150 144,-150 144,0 0,0 				"/>
				<g>
					<line fill="none" stroke="#2980BA" stroke-width="2" stroke-miterlimit="10" x1="122" y1="-150" x2="122" y2="0"/>
					<line fill="none" stroke="#2980BA" stroke-width="2" stroke-miterlimit="10" x1="126" y1="-150" x2="126" y2="0"/>
					<line fill="none" stroke="#2980BA" stroke-width="2" stroke-miterlimit="10" x1="130" y1="-150" x2="130" y2="0"/>
					<line fill="none" stroke="#2980BA" stroke-width="2" stroke-miterlimit="10" x1="134" y1="-150" x2="134" y2="0"/>
					<line fill="none" stroke="#2980BA" stroke-width="2" stroke-miterlimit="10" x1="138" y1="-150" x2="138" y2="0"/>
					<line fill="none" stroke="#2980BA" stroke-width="2" stroke-miterlimit="10" x1="142" y1="-150" x2="142" y2="0"/>
				</g>
				<g>
					<line fill="none" stroke="#2980BA" stroke-width="2" stroke-miterlimit="10" x1="74" y1="-150" x2="74" y2="0"/>
					<line fill="none" stroke="#2980BA" stroke-width="2" stroke-miterlimit="10" x1="78" y1="-150" x2="78" y2="0"/>
					<line fill="none" stroke="#2980BA" stroke-width="2" stroke-miterlimit="10" x1="82" y1="-150" x2="82" y2="0"/>
					<line fill="none" stroke="#2980BA" stroke-width="2" stroke-miterlimit="10" x1="86" y1="-150" x2="86" y2="0"/>
					<line fill="none" stroke="#2980BA" stroke-width="2" stroke-miterlimit="10" x1="90" y1="-150" x2="90" y2="0"/>
					<line fill="none" stroke="#2980BA" stroke-width="2" stroke-miterlimit="10" x1="94" y1="-150" x2="94" y2="0"/>
					<line fill="none" stroke="#2980BA" stroke-width="2" stroke-miterlimit="10" x1="98" y1="-150" x2="98" y2="0"/>
					<line fill="none" stroke="#2980BA" stroke-width="2" stroke-miterlimit="10" x1="102" y1="-150" x2="102" y2="0"/>
					<line fill="none" stroke="#2980BA" stroke-width="2" stroke-miterlimit="10" x1="106" y1="-150" x2="106" y2="0"/>
					<line fill="none" stroke="#2980BA" stroke-width="2" stroke-miterlimit="10" x1="110" y1="-150" x2="110" y2="0"/>
					<line fill="none" stroke="#2980BA" stroke-width="2" stroke-miterlimit="10" x1="114" y1="-150" x2="114" y2="0"/>
					<line fill="none" stroke="#2980BA" stroke-width="2" stroke-miterlimit="10" x1="118" y1="-150" x2="118" y2="0"/>
					<line fill="none" stroke="#2980BA" stroke-width="2" stroke-miterlimit="10" x1="122" y1="-150" x2="122" y2="0"/>
					<line fill="none" stroke="#2980BA" stroke-width="2" stroke-miterlimit="10" x1="126" y1="-150" x2="126" y2="0"/>
					<line fill="none" stroke="#2980BA" stroke-width="2" stroke-miterlimit="10" x1="130" y1="-150" x2="130" y2="0"/>
					<line fill="none" stroke="#2980BA" stroke-width="2" stroke-miterlimit="10" x1="134" y1="-150" x2="134" y2="0"/>
					<line fill="none" stroke="#2980BA" stroke-width="2" stroke-miterlimit="10" x1="138" y1="-150" x2="138" y2="0"/>
					<line fill="none" stroke="#2980BA" stroke-width="2" stroke-miterlimit="10" x1="142" y1="-150" x2="142" y2="0"/>
				</g>
				<g>
					<line fill="none" stroke="#2980BA" stroke-width="2" stroke-miterlimit="10" x1="26" y1="-150" x2="26" y2="0"/>
					<line fill="none" stroke="#2980BA" stroke-width="2" stroke-miterlimit="10" x1="30" y1="-150" x2="30" y2="0"/>
					<line fill="none" stroke="#2980BA" stroke-width="2" stroke-miterlimit="10" x1="34" y1="-150" x2="34" y2="0"/>
					<line fill="none" stroke="#2980BA" stroke-width="2" stroke-miterlimit="10" x1="38" y1="-150" x2="38" y2="0"/>
					<line fill="none" stroke="#2980BA" stroke-width="2" stroke-miterlimit="10" x1="42" y1="-150" x2="42" y2="0"/>
					<line fill="none" stroke="#2980BA" stroke-width="2" stroke-miterlimit="10" x1="46" y1="-150" x2="46" y2="0"/>
					<line fill="none" stroke="#2980BA" stroke-width="2" stroke-miterlimit="10" x1="50" y1="-150" x2="50" y2="0"/>
					<line fill="none" stroke="#2980BA" stroke-width="2" stroke-miterlimit="10" x1="54" y1="-150" x2="54" y2="0"/>
					<line fill="none" stroke="#2980BA" stroke-width="2" stroke-miterlimit="10" x1="58" y1="-150" x2="58" y2="0"/>
					<line fill="none" stroke="#2980BA" stroke-width="2" stroke-miterlimit="10" x1="62" y1="-150" x2="62" y2="0"/>
					<line fill="none" stroke="#2980BA" stroke-width="2" stroke-miterlimit="10" x1="66" y1="-150" x2="66" y2="0"/>
					<line fill="none" stroke="#2980BA" stroke-width="2" stroke-miterlimit="10" x1="70" y1="-150" x2="70" y2="0"/>
					<line fill="none" stroke="#2980BA" stroke-width="2" stroke-miterlimit="10" x1="74" y1="-150" x2="74" y2="0"/>
					<line fill="none" stroke="#2980BA" stroke-width="2" stroke-miterlimit="10" x1="78" y1="-150" x2="78" y2="0"/>
					<line fill="none" stroke="#2980BA" stroke-width="2" stroke-miterlimit="10" x1="82" y1="-150" x2="82" y2="0"/>
					<line fill="none" stroke="#2980BA" stroke-width="2" stroke-miterlimit="10" x1="86" y1="-150" x2="86" y2="0"/>
					<line fill="none" stroke="#2980BA" stroke-width="2" stroke-miterlimit="10" x1="90" y1="-150" x2="90" y2="0"/>
					<line fill="none" stroke="#2980BA" stroke-width="2" stroke-miterlimit="10" x1="94" y1="-150" x2="94" y2="0"/>
					<line fill="none" stroke="#2980BA" stroke-width="2" stroke-miterlimit="10" x1="98" y1="-150" x2="98" y2="0"/>
					<line fill="none" stroke="#2980BA" stroke-width="2" stroke-miterlimit="10" x1="102" y1="-150" x2="102" y2="0"/>
					<line fill="none" stroke="#2980BA" stroke-width="2" stroke-miterlimit="10" x1="106" y1="-150" x2="106" y2="0"/>
					<line fill="none" stroke="#2980BA" stroke-width="2" stroke-miterlimit="10" x1="110" y1="-150" x2="110" y2="0"/>
					<line fill="none" stroke="#2980BA" stroke-width="2" stroke-miterlimit="10" x1="114" y1="-150" x2="114" y2="0"/>
					<line fill="none" stroke="#2980BA" stroke-width="2" stroke-miterlimit="10" x1="118" y1="-150" x2="118" y2="0"/>
				</g>
				<g>
					<line fill="none" stroke="#2980BA" stroke-width="2" stroke-miterlimit="10" x1="2" y1="-150" x2="2" y2="0"/>
					<line fill="none" stroke="#2980BA" stroke-width="2" stroke-miterlimit="10" x1="6" y1="-150" x2="6" y2="0"/>
					<line fill="none" stroke="#2980BA" stroke-width="2" stroke-miterlimit="10" x1="10" y1="-150" x2="10" y2="0"/>
					<line fill="none" stroke="#2980BA" stroke-width="2" stroke-miterlimit="10" x1="14" y1="-150" x2="14" y2="0"/>
					<line fill="none" stroke="#2980BA" stroke-width="2" stroke-miterlimit="10" x1="18" y1="-150" x2="18" y2="0"/>
					<line fill="none" stroke="#2980BA" stroke-width="2" stroke-miterlimit="10" x1="22" y1="-150" x2="22" y2="0"/>
					<line fill="none" stroke="#2980BA" stroke-width="2" stroke-miterlimit="10" x1="26" y1="-150" x2="26" y2="0"/>
					<line fill="none" stroke="#2980BA" stroke-width="2" stroke-miterlimit="10" x1="30" y1="-150" x2="30" y2="0"/>
					<line fill="none" stroke="#2980BA" stroke-width="2" stroke-miterlimit="10" x1="34" y1="-150" x2="34" y2="0"/>
					<line fill="none" stroke="#2980BA" stroke-width="2" stroke-miterlimit="10" x1="38" y1="-150" x2="38" y2="0"/>
					<line fill="none" stroke="#2980BA" stroke-width="2" stroke-miterlimit="10" x1="42" y1="-150" x2="42" y2="0"/>
					<line fill="none" stroke="#2980BA" stroke-width="2" stroke-miterlimit="10" x1="46" y1="-150" x2="46" y2="0"/>
					<line fill="none" stroke="#2980BA" stroke-width="2" stroke-miterlimit="10" x1="50" y1="-150" x2="50" y2="0"/>
					<line fill="none" stroke="#2980BA" stroke-width="2" stroke-miterlimit="10" x1="54" y1="-150" x2="54" y2="0"/>
					<line fill="none" stroke="#2980BA" stroke-width="2" stroke-miterlimit="10" x1="58" y1="-150" x2="58" y2="0"/>
					<line fill="none" stroke="#2980BA" stroke-width="2" stroke-miterlimit="10" x1="62" y1="-150" x2="62" y2="0"/>
					<line fill="none" stroke="#2980BA" stroke-width="2" stroke-miterlimit="10" x1="66" y1="-150" x2="66" y2="0"/>
					<line fill="none" stroke="#2980BA" stroke-width="2" stroke-miterlimit="10" x1="70" y1="-150" x2="70" y2="0"/>
				</g>
				<g>
					<line fill="none" stroke="#2980BA" stroke-width="2" stroke-miterlimit="10" x1="2" y1="-150" x2="2" y2="0"/>
					<line fill="none" stroke="#2980BA" stroke-width="2" stroke-miterlimit="10" x1="6" y1="-150" x2="6" y2="0"/>
					<line fill="none" stroke="#2980BA" stroke-width="2" stroke-miterlimit="10" x1="10" y1="-150" x2="10" y2="0"/>
					<line fill="none" stroke="#2980BA" stroke-width="2" stroke-miterlimit="10" x1="14" y1="-150" x2="14" y2="0"/>
					<line fill="none" stroke="#2980BA" stroke-width="2" stroke-miterlimit="10" x1="18" y1="-150" x2="18" y2="0"/>
					<line fill="none" stroke="#2980BA" stroke-width="2" stroke-miterlimit="10" x1="22" y1="-150" x2="22" y2="0"/>
				</g>
			</g>
		</g>
	</g>
</pattern>
<pattern  x="-394" y="915.5" width="144" height="150" patternUnits="userSpaceOnUse" id="SVGID_8_" viewBox="0 -150 144 150" overflow="visible">
	<g>
		<polygon fill="none" points="0,0 144,0 144,-150 0,-150 		"/>
		<g>
			<polygon fill="none" points="0,-150 144,-150 144,0 0,0 			"/>
			<g>
				<polygon fill="none" points="0,-150 144,-150 144,0 0,0 				"/>
				<g>
					<line fill="none" stroke="#2980BA" stroke-width="2" stroke-miterlimit="10" x1="122" y1="-150" x2="122" y2="0"/>
					<line fill="none" stroke="#2980BA" stroke-width="2" stroke-miterlimit="10" x1="126" y1="-150" x2="126" y2="0"/>
					<line fill="none" stroke="#2980BA" stroke-width="2" stroke-miterlimit="10" x1="130" y1="-150" x2="130" y2="0"/>
					<line fill="none" stroke="#2980BA" stroke-width="2" stroke-miterlimit="10" x1="134" y1="-150" x2="134" y2="0"/>
					<line fill="none" stroke="#2980BA" stroke-width="2" stroke-miterlimit="10" x1="138" y1="-150" x2="138" y2="0"/>
					<line fill="none" stroke="#2980BA" stroke-width="2" stroke-miterlimit="10" x1="142" y1="-150" x2="142" y2="0"/>
				</g>
				<g>
					<line fill="none" stroke="#2980BA" stroke-width="2" stroke-miterlimit="10" x1="74" y1="-150" x2="74" y2="0"/>
					<line fill="none" stroke="#2980BA" stroke-width="2" stroke-miterlimit="10" x1="78" y1="-150" x2="78" y2="0"/>
					<line fill="none" stroke="#2980BA" stroke-width="2" stroke-miterlimit="10" x1="82" y1="-150" x2="82" y2="0"/>
					<line fill="none" stroke="#2980BA" stroke-width="2" stroke-miterlimit="10" x1="86" y1="-150" x2="86" y2="0"/>
					<line fill="none" stroke="#2980BA" stroke-width="2" stroke-miterlimit="10" x1="90" y1="-150" x2="90" y2="0"/>
					<line fill="none" stroke="#2980BA" stroke-width="2" stroke-miterlimit="10" x1="94" y1="-150" x2="94" y2="0"/>
					<line fill="none" stroke="#2980BA" stroke-width="2" stroke-miterlimit="10" x1="98" y1="-150" x2="98" y2="0"/>
					<line fill="none" stroke="#2980BA" stroke-width="2" stroke-miterlimit="10" x1="102" y1="-150" x2="102" y2="0"/>
					<line fill="none" stroke="#2980BA" stroke-width="2" stroke-miterlimit="10" x1="106" y1="-150" x2="106" y2="0"/>
					<line fill="none" stroke="#2980BA" stroke-width="2" stroke-miterlimit="10" x1="110" y1="-150" x2="110" y2="0"/>
					<line fill="none" stroke="#2980BA" stroke-width="2" stroke-miterlimit="10" x1="114" y1="-150" x2="114" y2="0"/>
					<line fill="none" stroke="#2980BA" stroke-width="2" stroke-miterlimit="10" x1="118" y1="-150" x2="118" y2="0"/>
					<line fill="none" stroke="#2980BA" stroke-width="2" stroke-miterlimit="10" x1="122" y1="-150" x2="122" y2="0"/>
					<line fill="none" stroke="#2980BA" stroke-width="2" stroke-miterlimit="10" x1="126" y1="-150" x2="126" y2="0"/>
					<line fill="none" stroke="#2980BA" stroke-width="2" stroke-miterlimit="10" x1="130" y1="-150" x2="130" y2="0"/>
					<line fill="none" stroke="#2980BA" stroke-width="2" stroke-miterlimit="10" x1="134" y1="-150" x2="134" y2="0"/>
					<line fill="none" stroke="#2980BA" stroke-width="2" stroke-miterlimit="10" x1="138" y1="-150" x2="138" y2="0"/>
					<line fill="none" stroke="#2980BA" stroke-width="2" stroke-miterlimit="10" x1="142" y1="-150" x2="142" y2="0"/>
				</g>
				<g>
					<line fill="none" stroke="#2980BA" stroke-width="2" stroke-miterlimit="10" x1="26" y1="-150" x2="26" y2="0"/>
					<line fill="none" stroke="#2980BA" stroke-width="2" stroke-miterlimit="10" x1="30" y1="-150" x2="30" y2="0"/>
					<line fill="none" stroke="#2980BA" stroke-width="2" stroke-miterlimit="10" x1="34" y1="-150" x2="34" y2="0"/>
					<line fill="none" stroke="#2980BA" stroke-width="2" stroke-miterlimit="10" x1="38" y1="-150" x2="38" y2="0"/>
					<line fill="none" stroke="#2980BA" stroke-width="2" stroke-miterlimit="10" x1="42" y1="-150" x2="42" y2="0"/>
					<line fill="none" stroke="#2980BA" stroke-width="2" stroke-miterlimit="10" x1="46" y1="-150" x2="46" y2="0"/>
					<line fill="none" stroke="#2980BA" stroke-width="2" stroke-miterlimit="10" x1="50" y1="-150" x2="50" y2="0"/>
					<line fill="none" stroke="#2980BA" stroke-width="2" stroke-miterlimit="10" x1="54" y1="-150" x2="54" y2="0"/>
					<line fill="none" stroke="#2980BA" stroke-width="2" stroke-miterlimit="10" x1="58" y1="-150" x2="58" y2="0"/>
					<line fill="none" stroke="#2980BA" stroke-width="2" stroke-miterlimit="10" x1="62" y1="-150" x2="62" y2="0"/>
					<line fill="none" stroke="#2980BA" stroke-width="2" stroke-miterlimit="10" x1="66" y1="-150" x2="66" y2="0"/>
					<line fill="none" stroke="#2980BA" stroke-width="2" stroke-miterlimit="10" x1="70" y1="-150" x2="70" y2="0"/>
					<line fill="none" stroke="#2980BA" stroke-width="2" stroke-miterlimit="10" x1="74" y1="-150" x2="74" y2="0"/>
					<line fill="none" stroke="#2980BA" stroke-width="2" stroke-miterlimit="10" x1="78" y1="-150" x2="78" y2="0"/>
					<line fill="none" stroke="#2980BA" stroke-width="2" stroke-miterlimit="10" x1="82" y1="-150" x2="82" y2="0"/>
					<line fill="none" stroke="#2980BA" stroke-width="2" stroke-miterlimit="10" x1="86" y1="-150" x2="86" y2="0"/>
					<line fill="none" stroke="#2980BA" stroke-width="2" stroke-miterlimit="10" x1="90" y1="-150" x2="90" y2="0"/>
					<line fill="none" stroke="#2980BA" stroke-width="2" stroke-miterlimit="10" x1="94" y1="-150" x2="94" y2="0"/>
					<line fill="none" stroke="#2980BA" stroke-width="2" stroke-miterlimit="10" x1="98" y1="-150" x2="98" y2="0"/>
					<line fill="none" stroke="#2980BA" stroke-width="2" stroke-miterlimit="10" x1="102" y1="-150" x2="102" y2="0"/>
					<line fill="none" stroke="#2980BA" stroke-width="2" stroke-miterlimit="10" x1="106" y1="-150" x2="106" y2="0"/>
					<line fill="none" stroke="#2980BA" stroke-width="2" stroke-miterlimit="10" x1="110" y1="-150" x2="110" y2="0"/>
					<line fill="none" stroke="#2980BA" stroke-width="2" stroke-miterlimit="10" x1="114" y1="-150" x2="114" y2="0"/>
					<line fill="none" stroke="#2980BA" stroke-width="2" stroke-miterlimit="10" x1="118" y1="-150" x2="118" y2="0"/>
				</g>
				<g>
					<line fill="none" stroke="#2980BA" stroke-width="2" stroke-miterlimit="10" x1="2" y1="-150" x2="2" y2="0"/>
					<line fill="none" stroke="#2980BA" stroke-width="2" stroke-miterlimit="10" x1="6" y1="-150" x2="6" y2="0"/>
					<line fill="none" stroke="#2980BA" stroke-width="2" stroke-miterlimit="10" x1="10" y1="-150" x2="10" y2="0"/>
					<line fill="none" stroke="#2980BA" stroke-width="2" stroke-miterlimit="10" x1="14" y1="-150" x2="14" y2="0"/>
					<line fill="none" stroke="#2980BA" stroke-width="2" stroke-miterlimit="10" x1="18" y1="-150" x2="18" y2="0"/>
					<line fill="none" stroke="#2980BA" stroke-width="2" stroke-miterlimit="10" x1="22" y1="-150" x2="22" y2="0"/>
					<line fill="none" stroke="#2980BA" stroke-width="2" stroke-miterlimit="10" x1="26" y1="-150" x2="26" y2="0"/>
					<line fill="none" stroke="#2980BA" stroke-width="2" stroke-miterlimit="10" x1="30" y1="-150" x2="30" y2="0"/>
					<line fill="none" stroke="#2980BA" stroke-width="2" stroke-miterlimit="10" x1="34" y1="-150" x2="34" y2="0"/>
					<line fill="none" stroke="#2980BA" stroke-width="2" stroke-miterlimit="10" x1="38" y1="-150" x2="38" y2="0"/>
					<line fill="none" stroke="#2980BA" stroke-width="2" stroke-miterlimit="10" x1="42" y1="-150" x2="42" y2="0"/>
					<line fill="none" stroke="#2980BA" stroke-width="2" stroke-miterlimit="10" x1="46" y1="-150" x2="46" y2="0"/>
					<line fill="none" stroke="#2980BA" stroke-width="2" stroke-miterlimit="10" x1="50" y1="-150" x2="50" y2="0"/>
					<line fill="none" stroke="#2980BA" stroke-width="2" stroke-miterlimit="10" x1="54" y1="-150" x2="54" y2="0"/>
					<line fill="none" stroke="#2980BA" stroke-width="2" stroke-miterlimit="10" x1="58" y1="-150" x2="58" y2="0"/>
					<line fill="none" stroke="#2980BA" stroke-width="2" stroke-miterlimit="10" x1="62" y1="-150" x2="62" y2="0"/>
					<line fill="none" stroke="#2980BA" stroke-width="2" stroke-miterlimit="10" x1="66" y1="-150" x2="66" y2="0"/>
					<line fill="none" stroke="#2980BA" stroke-width="2" stroke-miterlimit="10" x1="70" y1="-150" x2="70" y2="0"/>
				</g>
				<g>
					<line fill="none" stroke="#2980BA" stroke-width="2" stroke-miterlimit="10" x1="2" y1="-150" x2="2" y2="0"/>
					<line fill="none" stroke="#2980BA" stroke-width="2" stroke-miterlimit="10" x1="6" y1="-150" x2="6" y2="0"/>
					<line fill="none" stroke="#2980BA" stroke-width="2" stroke-miterlimit="10" x1="10" y1="-150" x2="10" y2="0"/>
					<line fill="none" stroke="#2980BA" stroke-width="2" stroke-miterlimit="10" x1="14" y1="-150" x2="14" y2="0"/>
					<line fill="none" stroke="#2980BA" stroke-width="2" stroke-miterlimit="10" x1="18" y1="-150" x2="18" y2="0"/>
					<line fill="none" stroke="#2980BA" stroke-width="2" stroke-miterlimit="10" x1="22" y1="-150" x2="22" y2="0"/>
				</g>
			</g>
		</g>
	</g>
</pattern>
<g id="background">
</g>
<g id="Layer_1_1_">
	<g>
		<g>
			<g opacity="0.8">
				<g>
					
						<linearGradient id="SVGID_1_" gradientUnits="userSpaceOnUse" x1="8443.3125" y1="461.0615" x2="8743.1309" y2="461.0615" gradientTransform="matrix(-1 0 0 1 9574.5723 139)">
						<stop  offset="0" style="stop-color:#2980BA;stop-opacity:0.2"/>
						<stop  offset="1" style="stop-color:#2980BA;stop-opacity:0.7"/>
					</linearGradient>
					<polyline opacity="0.1" fill="url(#SVGID_1_)" enable-background="new    " points="1131.26,750.123 831.441,450 1131,450 
											"/>
					
						<linearGradient id="SVGID_2_" gradientUnits="userSpaceOnUse" x1="8443.5723" y1="386.0391" x2="8743.1309" y2="386.0391" gradientTransform="matrix(-1 0 0 1 9574.5723 139)">
						<stop  offset="0" style="stop-color:#2980BA;stop-opacity:0.2"/>
						<stop  offset="1" style="stop-color:#2980BA;stop-opacity:0.7"/>
					</linearGradient>
					<polyline opacity="0.1" fill="url(#SVGID_2_)" enable-background="new    " points="981.215,600.078 831.441,450 1131,450 
											"/>
				</g>
			</g>
		</g>
		<polygon opacity="0.98" fill="#2980BA" enable-background="new    " points="-1,450 703.68,450 828,299.22 828,150 -1,150 		"/>
		<rect x="681" y="300" opacity="0.98" fill="#2980BA" enable-background="new    " width="450" height="150"/>
		<rect x="681" y="150" opacity="0.9" fill="#2980BA" enable-background="new    " width="450" height="150"/>
		<rect x="681" opacity="0.7" fill="#2980BA" enable-background="new    " width="450" height="150"/>
		<rect opacity="0.99" fill="#2980BA" enable-background="new    " width="1131" height="299"/>
		<pattern  id="SVGID_3_" xlink:href="#SVGID_6_" patternTransform="matrix(1 0 0 1 5676.9805 21197.2305)">
		</pattern>
		<polyline opacity="0.1" fill="url(#SVGID_3_)" enable-background="new    " points="595,150 595,0 745,0 		"/>
		<pattern  id="SVGID_4_" xlink:href="#SVGID_7_" patternTransform="matrix(1 0 0 1 5670.9805 19997.7188)">
		</pattern>
		<polyline opacity="0.1" fill="url(#SVGID_4_)" enable-background="new    " points="445,300 445,150 595,150 		"/>
		<rect x="681" y="150" opacity="0.83" fill="#2980BA" enable-background="new    " width="450" height="299"/>
		<polyline fill="#2980BA" points="595.99,0 446.98,150 594,150 		"/>
		<polyline opacity="0.05" fill="#3B97D3" enable-background="new    " points="445.99,299 296.98,449 444,449 		"/>
		<pattern  id="SVGID_5_" xlink:href="#SVGID_8_" patternTransform="matrix(1 0 0 1 5518.9805 19848.7188)">
		</pattern>
		<polyline opacity="0.2" fill="url(#SVGID_5_)" enable-background="new    " points="299.99,300 150.98,450 298,450 		"/>
		<rect x="979" y="300" opacity="0.2" fill="#2980BA" enable-background="new    " width="75" height="75"/>
		<rect x="1055" y="300" opacity="0.6" fill="#2980BA" enable-background="new    " width="76" height="75"/>
		<rect x="979" y="375" opacity="0.8" fill="#2980BA" enable-background="new    " width="75" height="75"/>
		<rect x="1055" y="375" fill="#2980BA" width="76" height="75"/>
		<g opacity="0.51">
			<polyline opacity="0.4" fill="#3B97D3" enable-background="new    " points="981,-0.141 1131,149.72 1131,1 			"/>
		</g>
		<rect x="295" opacity="0.1" fill="#3B97D3" enable-background="new    " width="150" height="150"/>
		<rect x="595" y="151" opacity="0.05" fill="#3B97D3" enable-background="new    " width="150" height="150"/>
	</g>
</g>
</svg>
