<?xml version="1.0" encoding="utf-8"?>
<!-- Generator: Adobe Illustrator 15.0.0, SVG Export Plug-In . SVG Version: 6.00 Build 0)  -->
<!DOCTYPE svg PUBLIC "-//W3C//DTD SVG 1.1//EN" "http://www.w3.org/Graphics/SVG/1.1/DTD/svg11.dtd">
<svg version="1.1" id="Слой_1" xmlns="http://www.w3.org/2000/svg" xmlns:xlink="http://www.w3.org/1999/xlink" x="0px" y="0px"
	 width="400px" height="200px" viewBox="0 0 400 200" enable-background="new 0 0 400 200" xml:space="preserve">
<symbol  id="issues-cost" viewBox="-187.477 -93.833 374.954 187.667">
	<g>
		<g>
			<polygon fill="#9CB764" points="134.35,-82.495 8.398,10.676 61.525,82.495 187.477,-10.675 			"/>
			<polyline fill="#9CB764" points="61.525,82.495 34.962,46.585 10.308,64.823 			"/>
			<polyline fill="#9CB764" points="8.398,10.676 34.962,46.585 10.308,64.823 			"/>
		</g>
		<g>
			<path fill="#E0E9D0" d="M119.53-32.112l-6.144,6.991c-5.981-5.134-13.202-9.271-18.296-10.68l-1.625,6.791
				c5.135,1.568,11.6,4.918,17.316,9.942c7.249,6.37,9.655,13.514,6.188,17.459c-3.345,3.807-9.395,2.662-18.774-1.9
				c-12.847-6.382-22.076-8.85-27.368-2.828C65.779-0.592,67.97,9.062,76.45,18.354l-6.144,6.991l6.33,5.562l5.9-6.714
				c6.247,5.244,11.406,7.815,15.401,9.24l1.462-6.812c-2.874-1.053-8.398-3.208-14.932-8.95
				c-7.861-6.908-8.023-12.693-5.591-15.462c3.163-3.599,8.522-2.08,19.594,3.233c13.07,6.333,21.542,7.399,26.955,1.238
				c4.805-5.468,3.691-15.524-5.79-25.942l6.326-7.198L119.53-32.112z"/>
		</g>
	</g>
	<g>
		<path fill="#8C9CB7" d="M-41.478-93.833h-134c-6.6,0-12,5.4-12,12V81.833c0,6.6,5.4,12,12,12h134c6.6,0,12-5.4,12-12V-81.833
			C-29.478-88.433-34.877-93.833-41.478-93.833z"/>
		<polygon fill="#EAF6FA" points="-47.478,49.179 -170.606,49.179 -170.606,76.162 -47.478,76.162 		"/>
		<g>
			<polygon fill="#EAF6FA" points="-145.478,30.391 -170.606,30.391 -170.606,41.933 -145.478,41.933 			"/>
			<polygon fill="#EAF6FA" points="-47.478,30.391 -72.606,30.391 -72.606,41.933 -47.478,41.933 			"/>
			<polygon fill="#EAF6FA" points="-80.144,30.391 -105.273,30.391 -105.273,41.933 -80.144,41.933 			"/>
			<polygon fill="#EAF6FA" points="-112.811,30.391 -137.94,30.391 -137.94,41.933 -112.811,41.933 			"/>
		</g>
		<g>
			<polygon fill="#EAF6FA" points="-145.478,5.979 -170.606,5.979 -170.606,17.521 -145.478,17.521 			"/>
			<polygon fill="#EAF6FA" points="-47.478,5.979 -72.606,5.979 -72.606,17.521 -47.478,17.521 			"/>
			<polygon fill="#EAF6FA" points="-80.144,5.979 -105.273,5.979 -105.273,17.521 -80.144,17.521 			"/>
			<polygon fill="#EAF6FA" points="-112.811,5.979 -137.94,5.979 -137.94,17.521 -112.811,17.521 			"/>
		</g>
		<g>
			<polygon fill="#EAF6FA" points="-145.478,-14.204 -170.606,-14.204 -170.606,-2.662 -145.478,-2.662 			"/>
			<polygon fill="#EAF6FA" points="-47.478,-14.204 -72.606,-14.204 -72.606,-2.662 -47.478,-2.662 			"/>
			<polygon fill="#EAF6FA" points="-80.144,-14.204 -105.273,-14.204 -105.273,-2.662 -80.144,-2.662 			"/>
			<polygon fill="#EAF6FA" points="-112.811,-14.204 -137.94,-14.204 -137.94,-2.662 -112.811,-2.662 			"/>
		</g>
		<g>
			<polygon fill="#EAF6FA" points="-145.478,-33.678 -170.606,-33.678 -170.606,-22.136 -145.478,-22.136 			"/>
			<polygon fill="#EAF6FA" points="-47.478,-33.678 -72.606,-33.678 -72.606,-22.136 -47.478,-22.136 			"/>
			<polygon fill="#EAF6FA" points="-80.144,-33.678 -105.273,-33.678 -105.273,-22.136 -80.144,-22.136 			"/>
			<polygon fill="#EAF6FA" points="-112.811,-33.678 -137.94,-33.678 -137.94,-22.136 -112.811,-22.136 			"/>
		</g>
		<g>
			<polygon fill="#EAF6FA" points="-112.811,-81.667 -170.606,-81.667 -170.606,-70.124 -112.811,-70.124 			"/>
			<polygon fill="#EAF6FA" points="-80.144,-81.667 -105.273,-81.667 -105.273,-70.124 -80.144,-70.124 			"/>
		</g>
		<g>
			<polygon fill="#EAF6FA" points="-47.478,-81.667 -72.606,-81.667 -72.606,-41.624 -47.478,-41.624 			"/>
			<polygon fill="#EAF6FA" points="-145.478,-53.167 -170.606,-53.167 -170.606,-41.624 -145.478,-41.624 			"/>
			<polygon fill="#EAF6FA" points="-80.144,-53.167 -105.273,-53.167 -105.273,-41.624 -80.144,-41.624 			"/>
			<polygon fill="#EAF6FA" points="-112.811,-53.167 -137.94,-53.167 -137.94,-41.624 -112.811,-41.624 			"/>
		</g>
		<g>
			<path fill="#989898" d="M-54.228,53.716c0-0.408-0.133-0.741-0.4-1c-0.266-0.258-0.604-0.387-1.012-0.387h-5.184
				c-0.408,0-0.741,0.129-1,0.387s-0.387,0.591-0.387,1v16.775c0,0.408,0.129,0.741,0.387,1s0.591,0.387,1,0.387h5.184
				c0.408,0,0.746-0.129,1.012-0.387c0.267-0.258,0.4-0.591,0.4-1V53.716z M-55.964,53.866v16.476h-4.509V53.866H-55.964z"/>
		</g>
	</g>
</symbol>
<use xlink:href="#issues-cost"  width="374.954" height="187.667" x="-187.477" y="-93.833" transform="matrix(1.0657 0 0 -1.0657 200.3877 99.8335)" overflow="visible"/>
</svg>
