<?xml version="1.0" encoding="utf-8"?>
<!-- Generator: Adobe Illustrator 15.0.0, SVG Export Plug-In . SVG Version: 6.00 Build 0)  -->
<!DOCTYPE svg PUBLIC "-//W3C//DTD SVG 1.1//EN" "http://www.w3.org/Graphics/SVG/1.1/DTD/svg11.dtd">
<svg version="1.1" id="Слой_1" xmlns="http://www.w3.org/2000/svg" xmlns:xlink="http://www.w3.org/1999/xlink" x="0px" y="0px"
	 width="665px" height="415px" viewBox="0 0 665 415" enable-background="new 0 0 665 415" xml:space="preserve">
<symbol  id="heatrecoverygraph" viewBox="-330.19 -206.563 663.363 413.059">
	<polygon fill="#C5CCB8" points="329.536,-153.733 -92.464,-153.733 -92.464,206.497 329.536,206.497 	"/>
	<g>
		<g>
			<polygon fill="#E64C3C" points="-82.372,151.437 58.173,151.437 58.173,141.437 -82.372,141.437 			"/>
		</g>
		<text transform="matrix(1 0 0 -1 -198.7031 142.5039)" fill="#E64C3C" font-family="'PTSans-Regular'" font-size="13">Burnaby</text>
	</g>
	<text transform="matrix(1 0 0 -1 31.7524 -203.3125)" fill="#565756" font-family="'PTSans-Regular'" font-size="13">Gigawatt Hours per Year</text>
	<text transform="matrix(1 0 0 -1 -86.4653 -171.3125)" fill="#565756" font-family="'PTSans-Regular'" font-size="13">0</text>
	<text transform="matrix(1 0 0 -1 311.2168 -171.3125)" fill="#565756" font-family="'PTSans-Regular'" font-size="13">150</text>
	<text transform="matrix(1 0 0 -1 71.875 -171.3125)" fill="#565756" font-family="'PTSans-Regular'" font-size="13">60</text>
	<text transform="matrix(1 0 0 -1 -9.125 -171.3125)" fill="#565756" font-family="'PTSans-Regular'" font-size="13">30</text>
	<text transform="matrix(1 0 0 -1 230.2168 -171.3125)" fill="#565756" font-family="'PTSans-Regular'" font-size="13">120</text>
	<text transform="matrix(1 0 0 -1 152.875 -171.3125)" fill="#565756" font-family="'PTSans-Regular'" font-size="13">90</text>
	<g>
		<g>
			<polygon fill="#C03A2B" points="-82.372,32.473 -49.187,32.473 -49.187,22.473 -82.372,22.473 			"/>
		</g>
		<text transform="matrix(1 0 0 -1 -214.6475 23.5391)" fill="#C03A2B" font-family="'PTSans-Regular'" font-size="13">Coquitlam</text>
	</g>
	<g>
		<g>
			<polygon fill="#3B97D3" points="-82.372,199.021 316.506,199.021 316.506,189.021 -82.372,189.021 			"/>
		</g>
		<text transform="matrix(1 0 0 -1 -178.3584 190.0879)" fill="#2980BA" font-family="'PTSans-Regular'" font-size="13">Delta</text>
	</g>
	<g>
		<g>
			<polygon fill="#D25627" points="-82.372,-15.111 -57.477,-15.111 -57.477,-25.111 -82.372,-25.111 			"/>
		</g>
		<text transform="matrix(1 0 0 -1 -274.2588 -24.043)" fill="#D25627" font-family="'PTSans-Regular'" font-size="13">Langley (Township)</text>
	</g>
	<g>
		<g>
			<polygon fill="#E64C3C" points="-82.372,-86.488 -78.875,-86.488 -78.875,-96.488 -82.372,-96.488 			"/>
		</g>
		<text transform="matrix(1 0 0 -1 -223.1563 -95.4219)" fill="#E64C3C" font-family="'PTSans-Regular'" font-size="13">Maple Ridge</text>
	</g>
	<g>
		<g>
			<polygon fill="#E57E25" points="-82.372,103.851 -27.674,103.851 -27.674,93.851 -82.372,93.851 			"/>
		</g>
		<text transform="matrix(1 0 0 -1 -260.1465 94.918)" fill="#E57E25" font-family="'PTSans-Regular'" font-size="13">New Westminster</text>
	</g>
	<text transform="matrix(1 0 0 -1 -302.2793 -119.2148)" fill="#14A085" font-family="'PTSans-Regular'" font-size="13">North Vancouver (city)</text>
	<g>
		<g>
			<polygon fill="#26B99A" points="-82.372,8.682 -51.313,8.682 -51.313,-1.318 -82.372,-1.318 			"/>
		</g>
		<text transform="matrix(1 0 0 -1 -330.6904 -0.25)" fill="#26B99A" font-family="'PTSans-Regular'" font-size="13">North Vancouver (District)</text>
	</g>
	<g>
		<g>
			<polygon fill="#3B97D3" points="-82.372,-38.903 -64.716,-38.903 -64.716,-48.903 -82.372,-48.903 			"/>
		</g>
		<g>
			<text transform="matrix(1 0 0 -1 -250.4619 -47.8359)" fill="#3B97D3" font-family="'PTSans-Regular'" font-size="13">Port Coquitlam</text>
		</g>
	</g>
	<g>
		<g>
			<polygon fill="#14A085" points="-82.372,127.644 -22.531,127.644 -22.531,117.644 -82.372,117.644 			"/>
		</g>
		<g>
			<text transform="matrix(1 0 0 -1 -222.8701 118.7109)" fill="#14A085" font-family="'PTSans-Regular'" font-size="13">Port Moody</text>
		</g>
	</g>
	<g>
		<g>
			<polygon fill="#894B9D" points="-82.372,175.228 241.87,175.228 241.87,165.228 -82.372,165.228 			"/>
		</g>
		<g>
			<text transform="matrix(1 0 0 -1 -208.9141 166.2949)" fill="#894B9D" font-family="'PTSans-Regular'" font-size="13">Richmond</text>
		</g>
	</g>
	<g>
		<g>
			<polygon fill="#2980BA" points="-82.372,80.059 -32.372,80.059 -32.372,70.059 -82.372,70.059 			"/>
		</g>
		<g>
			<text transform="matrix(1 0 0 -1 -187.6855 71.125)" fill="#2980BA" font-family="'PTSans-Regular'" font-size="13">Surrey</text>
		</g>
	</g>
	<g>
		<g>
			<polygon fill="#9778B5" points="-82.372,56.266 -38.148,56.266 -38.148,46.266 -82.372,46.266 			"/>
		</g>
		<g>
			<text transform="matrix(1 0 0 -1 -215.6494 47.332)" fill="#9778B5" font-family="'PTSans-Regular'" font-size="13">Vancouver</text>
		</g>
	</g>
	<g>
		<polygon fill="#894B9D" points="-82.372,-62.695 -76.161,-62.695 -76.161,-72.695 -82.372,-72.695 		"/>
		<g>
			<text transform="matrix(1 0 0 -1 -217.1367 -71.6289)" fill="#894B9D" font-family="'PTSans-Regular'" font-size="13">White Rock</text>
		</g>
	</g>
	<g>
		<text transform="matrix(1 0 0 -1 -257.0664 -143.0059)" fill="#E57E25" font-family="'PTSans-Regular'" font-size="13">electroal area a</text>
	</g>
</symbol>
<use xlink:href="#heatrecoverygraph"  width="663.363" height="413.059" x="-330.19" y="-206.563" transform="matrix(1 0 0 -1 331.9243 207.4673)" overflow="visible"/>
</svg>
