<?xml version="1.0" encoding="utf-8"?>
<!-- Generator: Adobe Illustrator 15.0.0, SVG Export Plug-In . SVG Version: 6.00 Build 0)  -->
<!DOCTYPE svg PUBLIC "-//W3C//DTD SVG 1.1//EN" "http://www.w3.org/Graphics/SVG/1.1/DTD/svg11.dtd">
<svg version="1.1" id="Слой_1" xmlns="http://www.w3.org/2000/svg" xmlns:xlink="http://www.w3.org/1999/xlink" x="0px" y="0px"
	 width="555px" height="180px" viewBox="0 0 555 180" enable-background="new 0 0 555 180" xml:space="preserve">
<symbol  id="cement_plant" viewBox="-232.479 -185.106 492.681 370.212">
	<g>
		<g>
			<path fill="#A2A3A1" d="M-38.582-181.819c0-5.268-19.386-2.6-43.301-2.6s-43.301-2.668-43.301,2.6s19.387,9.538,43.301,9.538
				S-38.582-176.552-38.582-181.819z"/>
			<polyline fill="#959795" points="-38.582,-21.788 -38.582,-181.819 -125.184,-181.819 -125.184,-21.507 			"/>
			<path fill="#787877" d="M-38.582-21.005c0-2.142-19.386-3.878-43.301-3.878s-43.301,1.736-43.301,3.878
				s19.387,3.879,43.301,3.879S-38.582-18.863-38.582-21.005z"/>
			<path fill="#AFB1B0" d="M-125.61-127.046c0-2.061,19.791-3.731,44.204-3.731s44.204,1.67,44.204,3.731v44.242
				c0-2.061-19.791-3.731-44.204-3.731s-44.204,1.67-44.204,3.731V-127.046z"/>
		</g>
		<g>
			<path fill="#A2A3A1" d="M-100.089-182.111c0-4.799-19.386-2.368-43.301-2.368c-23.914,0-43.301-2.431-43.301,2.368
				s19.387,8.689,43.301,8.689C-119.476-173.422-100.089-177.312-100.089-182.111z"/>
			<polyline fill="#A2A3A1" points="-100.089,-36.319 -100.089,-182.111 -186.691,-182.111 -186.691,-36.064 			"/>
			<path fill="#808080" d="M-100.089-35.606c0-1.952-19.386-3.534-43.301-3.534c-23.914,0-43.301,1.582-43.301,3.534
				s19.387,3.534,43.301,3.534C-119.476-32.073-100.089-33.655-100.089-35.606z"/>
			<path fill="#BBBCBB" d="M-187.118-132.211c0-1.877,19.791-3.399,44.204-3.399s44.204,1.522,44.204,3.399v40.305
				c0-1.877-19.791-3.399-44.204-3.399s-44.204,1.522-44.204,3.399V-132.211z"/>
		</g>
		<g>
			<path fill="#B5B5B1" d="M-155.073-182.582c0-4.042-17.328-1.995-38.703-1.995s-38.703-2.047-38.703,1.995
				c0,4.042,17.328,7.318,38.703,7.318S-155.073-178.54-155.073-182.582z"/>
			<polyline fill="#B5B5B1" points="-155.073,-59.785 -155.073,-182.582 -232.479,-182.582 -232.479,-59.57 			"/>
			<path fill="#858684" d="M-155.073-58.342c0-1.644-17.328-2.977-38.703-2.977s-38.703,1.333-38.703,2.977
				c0,1.644,17.328,2.976,38.703,2.976S-155.073-56.699-155.073-58.342z"/>
			<path fill="#CACAC9" d="M-232.479-137.368c0-1.644,17.328-2.976,38.703-2.976s38.703,1.333,38.703,2.976v35.29
				c0-1.644-17.328-2.976-38.703-2.976s-38.703,1.333-38.703,2.976V-137.368z"/>
		</g>
		<g>
			<path fill="#26B99A" d="M-162.131-51.344v-18.443h12.716v18.443H-162.131z M-150.871-67.938h-9.805v3.509h9.805V-67.938z
				 M-150.871-62.609h-9.805v3.508h9.805V-62.609z M-150.871-57.281h-9.805v3.508h9.805V-57.281z"/>
			<path fill="#26B99A" d="M-162.131-68.558v-39.536h12.716v39.536H-162.131z M-150.871-106.245h-9.805v3.509h9.805V-106.245z
				 M-150.871-100.917h-9.805v3.509h9.805V-100.917z M-150.871-95.589h-9.805v3.509h9.805V-95.589z M-150.871-90.261h-9.805v3.509
				h9.805V-90.261z M-150.871-84.933h-9.805v3.509h9.805V-84.933z M-150.871-79.604h-9.805v3.509h9.805V-79.604z M-150.871-74.276
				h-9.805v3.509h9.805V-74.276z"/>
			<path fill="#26B99A" d="M-162.131-106.197v-39.536h12.716v39.536H-162.131z M-150.871-143.884h-9.805v3.509h9.805V-143.884z
				 M-150.871-138.555h-9.805v3.508h9.805V-138.555z M-150.871-133.228h-9.805v3.509h9.805V-133.228z M-150.871-127.899h-9.805
				v3.508h9.805V-127.899z M-150.871-122.571h-9.805v3.508h9.805V-122.571z M-150.871-117.243h-9.805v3.508h9.805V-117.243z
				 M-150.871-111.915h-9.805v3.509h9.805V-111.915z"/>
			<path fill="#26B99A" d="M-162.131-143.675v-39.536h12.716v39.536H-162.131z M-150.871-181.362h-9.805v3.509h9.805V-181.362z
				 M-150.871-176.034h-9.805v3.509h9.805V-176.034z M-150.871-170.706h-9.805v3.509h9.805V-170.706z M-150.871-165.378h-9.805
				v3.509h9.805V-165.378z M-150.871-160.05h-9.805v3.509h9.805V-160.05z M-150.871-154.722h-9.805v3.509h9.805V-154.722z
				 M-150.871-149.394h-9.805v3.509h9.805V-149.394z"/>
		</g>
	</g>
	<polygon fill="#59595C" points="-57.204,86.846 -37.868,86.846 -37.868,-74.129 -57.204,-74.129 	"/>
	<g>
		<polygon fill="#14A085" points="260.202,-185.105 137.202,-185.105 137.202,45.975 260.202,45.975 		"/>
		<g>
			<polygon fill="#99C0DE" points="250.25,8.806 146.816,8.806 146.816,27.846 250.25,27.846 			"/>
			<polygon fill="#C4D5D6" points="219.253,27.846 244.117,8.806 250.25,8.806 250.25,27.846 			"/>
		</g>
		<g>
			<polygon fill="#99C0DE" points="250.25,-25.91 146.816,-25.91 146.816,-6.87 250.25,-6.87 			"/>
			<polygon fill="#C4D5D6" points="219.253,-6.87 244.117,-25.91 250.25,-25.91 250.25,-6.87 			"/>
		</g>
		<g>
			<polygon fill="#99C0DE" points="250.25,-60.626 146.816,-60.626 146.816,-41.585 250.25,-41.585 			"/>
			<polygon fill="#C4D5D6" points="219.253,-41.585 244.117,-60.626 250.25,-60.626 250.25,-41.585 			"/>
		</g>
	</g>
	<g>
		<g>
			<polyline fill="none" stroke="#B5B5B1" stroke-width="8" stroke-miterlimit="10" points="99.832,82.405 99.832,97.18 
				123.325,97.18 123.325,-141.244 			"/>
			<g>
				<polyline fill="none" stroke="#B5B5B1" stroke-width="8" stroke-miterlimit="10" points="141.487,82.405 141.487,97.18 
					164.98,97.18 164.98,-141.244 				"/>
				<g>
					<polygon fill="#B5B5B1" points="119.43,82.405 146.676,82.405 146.676,-179.145 119.43,-179.145 					"/>
				</g>
				
					<line fill="none" stroke="#8C8E8E" stroke-width="1.9444" stroke-miterlimit="10" x1="133.123" y1="-142.541" x2="133.123" y2="82.405"/>
				
					<line fill="none" stroke="#8C8E8E" stroke-width="3.5" stroke-miterlimit="10" x1="115.114" y1="-142.541" x2="115.114" y2="82.405"/>
				
					<line fill="none" stroke="#8C8E8E" stroke-width="3.5" stroke-miterlimit="10" x1="151.134" y1="-142.541" x2="151.134" y2="82.405"/>
				
					<line fill="none" stroke="#8C8E8E" stroke-width="1.7491" stroke-miterlimit="10" x1="115.305" y1="72.681" x2="151.072" y2="72.681"/>
				
					<line fill="none" stroke="#8C8E8E" stroke-width="1.7491" stroke-miterlimit="10" x1="115.305" y1="66.827" x2="151.072" y2="66.827"/>
				
					<line fill="none" stroke="#8C8E8E" stroke-width="1.7491" stroke-miterlimit="10" x1="115.305" y1="6.511" x2="151.072" y2="6.511"/>
				
					<line fill="none" stroke="#8C8E8E" stroke-width="1.7491" stroke-miterlimit="10" x1="115.305" y1="0.667" x2="151.072" y2="0.667"/>
				
					<line fill="none" stroke="#8C8E8E" stroke-width="1.7491" stroke-miterlimit="10" x1="115.305" y1="-51.106" x2="151.072" y2="-51.106"/>
				
					<line fill="none" stroke="#8C8E8E" stroke-width="1.7491" stroke-miterlimit="10" x1="115.305" y1="-56.571" x2="151.072" y2="-56.571"/>
			</g>
			<polyline fill="none" stroke="#B5B5B1" stroke-width="8" stroke-miterlimit="10" points="57.881,82.405 57.881,97.18 
				81.375,97.18 81.375,-141.244 			"/>
			<g>
				<polygon fill="#B5B5B1" points="35.441,82.405 62.688,82.405 62.688,-179.145 35.441,-179.145 				"/>
			</g>
			
				<line fill="none" stroke="#8C8E8E" stroke-width="1.622" stroke-miterlimit="10" x1="49.134" y1="-74.124" x2="49.134" y2="82.405"/>
			
				<line fill="none" stroke="#8C8E8E" stroke-width="2.9196" stroke-miterlimit="10" x1="31.125" y1="-74.124" x2="31.125" y2="82.405"/>
			
				<line fill="none" stroke="#8C8E8E" stroke-width="2.9196" stroke-miterlimit="10" x1="67.146" y1="-74.124" x2="67.146" y2="82.405"/>
			
				<line fill="none" stroke="#8C8E8E" stroke-width="1.7491" stroke-miterlimit="10" x1="31.316" y1="72.681" x2="67.083" y2="72.681"/>
			
				<line fill="none" stroke="#8C8E8E" stroke-width="1.7491" stroke-miterlimit="10" x1="31.316" y1="66.827" x2="67.083" y2="66.827"/>
			
				<line fill="none" stroke="#8C8E8E" stroke-width="1.7491" stroke-miterlimit="10" x1="31.316" y1="6.511" x2="67.083" y2="6.511"/>
			
				<line fill="none" stroke="#8C8E8E" stroke-width="1.7491" stroke-miterlimit="10" x1="31.316" y1="0.667" x2="67.083" y2="0.667"/>
			
				<line fill="none" stroke="#8C8E8E" stroke-width="1.7491" stroke-miterlimit="10" x1="31.316" y1="-51.106" x2="67.083" y2="-51.106"/>
			
				<line fill="none" stroke="#8C8E8E" stroke-width="1.7491" stroke-miterlimit="10" x1="31.316" y1="-56.571" x2="67.083" y2="-56.571"/>
			<g>
				<polygon fill="#86A0AF" points="-24.041,-56.508 -69.158,-56.508 -69.158,-76.747 -24.041,-76.747 				"/>
				<polygon fill="#86A0AF" points="27.157,-56.508 -17.956,-56.508 -17.956,-76.747 27.157,-76.747 				"/>
				<path fill="#86A0AF" d="M-24.041-56.508v14.793c0,0-3.828-11.233-15.654-11.233v-6.36"/>
				<path fill="#86A0AF" d="M27.157-56.508v14.793c0,0-3.821-11.233-15.654-11.233v-6.36"/>
			</g>
			<polygon fill="#1C6080" points="33.802,-66.343 -140.916,-66.343 -140.916,-81.916 33.802,-81.916 			"/>
			<g>
				<polygon fill="#B5B5B1" points="77.775,82.405 105.021,82.405 105.021,-179.145 77.775,-179.145 				"/>
			</g>
			<g>
				<polygon fill="#D25627" points="-140.916,-74.124 114.021,-74.124 114.021,-183.976 -140.916,-183.976 				"/>
				<path fill="#D25627" d="M-140.916-88.853c0,0-17.857-2.187-17.857-17.869h17.857V-88.853z"/>
			</g>
			<g>
				
					<line fill="none" stroke="#E57E25" stroke-width="4.0045" stroke-miterlimit="10" x1="99.832" y1="-74.124" x2="99.832" y2="-183.976"/>
				
					<line fill="none" stroke="#E57E25" stroke-width="4.0045" stroke-miterlimit="10" x1="84.732" y1="-74.124" x2="84.732" y2="-183.976"/>
				
					<line fill="none" stroke="#E57E25" stroke-width="4.0045" stroke-miterlimit="10" x1="69.628" y1="-74.124" x2="69.628" y2="-183.976"/>
				
					<line fill="none" stroke="#E57E25" stroke-width="4.0045" stroke-miterlimit="10" x1="54.523" y1="-74.124" x2="54.523" y2="-183.976"/>
				
					<line fill="none" stroke="#E57E25" stroke-width="4.0045" stroke-miterlimit="10" x1="-126.728" y1="-74.124" x2="-126.728" y2="-183.976"/>
				
					<line fill="none" stroke="#E57E25" stroke-width="4.0045" stroke-miterlimit="10" x1="-111.627" y1="-74.124" x2="-111.627" y2="-183.976"/>
				
					<line fill="none" stroke="#E57E25" stroke-width="4.0045" stroke-miterlimit="10" x1="-96.507" y1="-74.124" x2="-96.507" y2="-183.976"/>
				
					<line fill="none" stroke="#E57E25" stroke-width="4.0045" stroke-miterlimit="10" x1="-81.407" y1="-74.124" x2="-81.407" y2="-183.976"/>
				
					<line fill="none" stroke="#E57E25" stroke-width="4.0045" stroke-miterlimit="10" x1="-66.304" y1="-74.124" x2="-66.304" y2="-183.976"/>
				
					<line fill="none" stroke="#E57E25" stroke-width="4.0045" stroke-miterlimit="10" x1="-51.204" y1="-74.124" x2="-51.204" y2="-183.976"/>
				
					<line fill="none" stroke="#E57E25" stroke-width="4.0045" stroke-miterlimit="10" x1="-20.995" y1="-74.124" x2="-20.995" y2="-183.976"/>
				
					<line fill="none" stroke="#E57E25" stroke-width="4.0045" stroke-miterlimit="10" x1="-36.101" y1="-74.124" x2="-36.101" y2="-183.976"/>
				
					<line fill="none" stroke="#E57E25" stroke-width="4.0045" stroke-miterlimit="10" x1="-5.9" y1="-74.124" x2="-5.9" y2="-183.976"/>
				
					<line fill="none" stroke="#E57E25" stroke-width="4.0045" stroke-miterlimit="10" x1="9.205" y1="-74.124" x2="9.205" y2="-183.976"/>
				
					<line fill="none" stroke="#E57E25" stroke-width="4.0045" stroke-miterlimit="10" x1="24.308" y1="-74.124" x2="24.308" y2="-183.976"/>
				
					<line fill="none" stroke="#E57E25" stroke-width="4.0045" stroke-miterlimit="10" x1="39.422" y1="-74.124" x2="39.422" y2="-183.976"/>
			</g>
			
				<line fill="none" stroke="#8C8E8E" stroke-width="1.622" stroke-miterlimit="10" x1="91.467" y1="-74.124" x2="91.467" y2="82.405"/>
			
				<line fill="none" stroke="#8C8E8E" stroke-width="2.9196" stroke-miterlimit="10" x1="73.458" y1="-74.124" x2="73.458" y2="82.405"/>
			
				<line fill="none" stroke="#8C8E8E" stroke-width="2.9196" stroke-miterlimit="10" x1="109.479" y1="-74.124" x2="109.479" y2="82.405"/>
			
				<line fill="none" stroke="#8C8E8E" stroke-width="1.7491" stroke-miterlimit="10" x1="73.65" y1="72.681" x2="109.416" y2="72.681"/>
			
				<line fill="none" stroke="#8C8E8E" stroke-width="1.7491" stroke-miterlimit="10" x1="73.65" y1="66.827" x2="109.416" y2="66.827"/>
			
				<line fill="none" stroke="#8C8E8E" stroke-width="1.7491" stroke-miterlimit="10" x1="73.65" y1="6.511" x2="109.416" y2="6.511"/>
			
				<line fill="none" stroke="#8C8E8E" stroke-width="1.7491" stroke-miterlimit="10" x1="73.65" y1="0.667" x2="109.416" y2="0.667"/>
			
				<line fill="none" stroke="#8C8E8E" stroke-width="1.7491" stroke-miterlimit="10" x1="73.65" y1="-51.106" x2="109.416" y2="-51.106"/>
			<g>
				<polygon fill="#878E96" points="172.597,-140.605 74.053,-140.605 74.053,-183.976 172.597,-183.976 				"/>
				<polygon fill="#9CA1A8" points="165.413,-132.296 150.357,-132.296 150.357,-140.605 165.413,-140.605 				"/>
				<polygon fill="#B5B8BD" points="108.341,-113.731 92.581,-113.731 92.581,-140.605 108.341,-140.605 				"/>
			</g>
			
				<line fill="none" stroke="#8C8E8E" stroke-width="1.7491" stroke-miterlimit="10" x1="73.65" y1="-56.571" x2="109.416" y2="-56.571"/>
			
				<line fill="none" stroke="#3F4040" stroke-width="1.6624" stroke-miterlimit="10" x1="74.053" y1="-153.086" x2="172.597" y2="-153.086"/>
			
				<line fill="none" stroke="#3F4040" stroke-width="1.6624" stroke-miterlimit="10" x1="74.053" y1="-157.546" x2="172.597" y2="-157.546"/>
		</g>
		<g>
			<g>
				<g>
					<path fill="#008DC1" d="M-78.249-45.989c1.679-0.404,1.203-1.144-1.062-1.632l-58.162-12.495
						c-0.907-0.194-1.899-0.013-2.22,0.395l0,0c-0.32,0.395,0.116,0.871,0.975,1.068l53.828,12.478
						C-82.836-45.699-79.867-45.602-78.249-45.989L-78.249-45.989z"/>
					<path fill="#0073A7" d="M-85.394-45.838c1.34-0.339,0.903-0.982-0.976-1.412l-50.699-11.512
						c-0.822-0.186-1.744-0.042-2.043,0.315l0,0c-0.302,0.349,0.102,0.781,0.892,0.971l47.354,11.47
						C-89.145-45.585-86.69-45.501-85.394-45.838L-85.394-45.838z"/>
					<path fill="#008DC1" d="M-58.879-46.637c2.8-0.564,2.12-1.606-1.511-2.278l-80.256-14.859c-1.08-0.197-2.217,0.075-2.552,0.601
						l0,0c-0.32,0.509,0.233,1.08,1.253,1.291L-69.4-46.885C-66.245-46.233-61.539-46.103-58.879-46.637L-58.879-46.637z"/>
					<path fill="#0073A7" d="M-69.385-46.275c1.902-0.42,1.14-1.244-1.689-1.816l-67.837-13.682
						c-0.989-0.197-2.022-0.016-2.315,0.395l0,0c-0.287,0.395,0.24,0.884,1.182,1.089l62.725,13.712
						C-74.782-46.022-71.215-45.875-69.385-46.275L-69.385-46.275z"/>
				</g>
				<polygon fill="#231F20" points="-140.006,-64.027 -127.137,-61.554 -61.865,-49.021 -59.415,-52.111 				"/>
				<g>
					<path fill="#FFF3C3" d="M-137.128-60.095l61.889,13.276c0.183,0.039,0.362-0.078,0.402-0.26
						c0.039-0.183-0.078-0.362-0.26-0.401l-0.003,0L-137.128-60.095z"/>
				</g>
				<g>
					<path fill="#FFF3C3" d="M-138.026-58.009l48.786,11.71c0.182,0.044,0.364-0.068,0.408-0.25c0.043-0.181-0.068-0.364-0.25-0.407
						c-0.001,0-0.003-0.001-0.004-0.001L-138.026-58.009z"/>
				</g>
				<g opacity="0.5">
					<path fill="#807F80" d="M-59.964-48.493c-6.07,0.195-12.14,0.362-18.211,0.492l-18.212,0.43l0.034,0.004l-20.092-4.819
						c-6.701-1.593-13.393-3.221-20.078-4.877l0.083,0.059l-3.563-6.479c-0.141-0.256-0.463-0.35-0.719-0.209
						c-0.257,0.141-0.35,0.463-0.209,0.719c0.009,0.017,0.019,0.033,0.03,0.048l4.232,6.065l0.083,0.06
						c6.705,1.575,13.403,3.179,20.092,4.818l20.078,4.878l0.035,0.004l18.216-0.229c6.071-0.09,12.144-0.143,18.217-0.167
						c0.22-0.001,0.397-0.18,0.396-0.4s-0.18-0.398-0.4-0.396C-59.956-48.493-59.961-48.493-59.964-48.493z"/>
				</g>
			</g>
			<polyline fill="#231F20" points="-127.137,-62.114 -125.917,-67.344 -127.936,-67.386 -128.786,-61.71 			"/>
			<polyline fill="#231F20" points="-66.909,-52.236 -65.472,-67.344 -67.492,-67.386 -68.338,-53.09 			"/>
		</g>
	</g>
	<g>
		<path fill="#E64C3C" d="M152.958-132.72c0,0-16.643,8.579-6.809,34.222c9.834,25.644,22.438,8.216,22.438,8.216
			s-6.309-2.919,0-12.792c6.309-9.874,6.309-22.94-5.039-29.646H152.958z"/>
		<path fill="#ED9122" d="M157.934-132.079c0,0-8.044,4.065,0,19.496C157.934-112.583,169.324-127.756,157.934-132.079z"/>
	</g>
	<path opacity="0.7" fill="#EFEFEF" d="M-82.37,99.785c0,0,13.747-5.532,19.25-1.071l9.007,0.173l3.058,0.487
		c0,0,0.838,1.138,0.621,2.567c-0.341,2.258-2.216,4.731-10.049,5.962c0,0-2.161,6.348-8.697,7.612c0,0-0.948,6.446-3.966,5.589
		c0,0-4.859,11.052-13.834,3.349c0,0-0.811,3.266-3.152,2.326c0,0-3.951,15.817-13.628,9.416c0,0,0.161,3.512-1.015,4.442
		c0,0,1.392,24.319-15.986,19.504c0,0-3.474,12.961-12.355,12.189c0,0-0.197,4.836-5.751,3.181c0,0-0.764,7.646-6.056,7.117
		c0,0-20.889,11.804-28.326-16.122c0,0-4.192,0.437-5.608-3.901c0,0-9.646,5.045-19.133-9.846c0,0-14.907-5.293-8.876-32.444
		c0,0,7.045-19.354,23.112-5.732c0,0,1.92-1.874,3.135-0.678c0,0,18.645-18.784,43.254-9.409c0,0,10.01-6.672,17.248-1.32
		c0,0,1.518-2.371,3.692-1.412c0,0,21.543-12.064,30.694-0.728C-85.735,101.036-85.315,99.529-82.37,99.785z"/>
</symbol>
<symbol  id="heatinghouse" viewBox="-58.9 -74.225 117.799 148.45">
	<g>
		<polygon fill="#9AAEB8" points="-22.723,48.781 24.521,48.781 54.684,17.459 -52.346,17.459 		"/>
		<polygon fill="#595870" points="23.241,46.142 -22.723,46.142 1.169,69.276 		"/>
		<polygon fill="#4E4C61" points="1.169,-14.852 45.688,-14.852 45.688,-55.958 1.169,-55.958 -43.351,-55.958 -43.351,-14.852 		
			"/>
		<polygon fill="#A8AAAD" points="-1.917,-21.743 -1.917,22.727 45.688,22.727 45.688,-21.743 		"/>
		<polygon fill="#B8B8B9" points="-43.351,-21.743 -43.351,22.727 12.918,22.727 12.918,-21.743 		"/>
		<polyline fill="#7D8078" stroke="#616555" stroke-width="1.8937" stroke-miterlimit="10" points="45.688,-55.958 1.169,-55.958 
			-43.351,-55.958 		"/>
		<g>
			<polygon fill="#90ABB3" stroke="#D1D0D0" stroke-width="0.4573" stroke-miterlimit="10" points="-31.895,-11.35 -3.079,-11.35 
				-3.079,5.352 -31.895,5.352 			"/>
			
				<line fill="#90ABB3" stroke="#D1D0D0" stroke-width="0.4573" stroke-miterlimit="10" x1="-24.169" y1="5.352" x2="-24.169" y2="-11.35"/>
			
				<line fill="#90ABB3" stroke="#D1D0D0" stroke-width="0.4573" stroke-miterlimit="10" x1="-10.646" y1="5.352" x2="-10.646" y2="-11.35"/>
		</g>
		<g>
			<polygon fill="#B4C3C9" stroke="#D1D0D0" stroke-width="0.4573" stroke-miterlimit="10" points="-13.071,25.514 15.744,25.514 
				15.744,42.215 -13.071,42.215 			"/>
			
				<line fill="#B4C3C9" stroke="#D1D0D0" stroke-width="0.4573" stroke-miterlimit="10" x1="-5.344" y1="42.215" x2="-5.344" y2="25.514"/>
			
				<line fill="#B4C3C9" stroke="#D1D0D0" stroke-width="0.4573" stroke-miterlimit="10" x1="8.177" y1="42.215" x2="8.177" y2="25.514"/>
		</g>
		<polygon fill="#CDCFCF" points="19.3,-21.824 36.553,-21.824 36.553,13.224 19.3,13.224 		"/>
		<g>
			<polygon fill="#90ABB3" stroke="#808181" stroke-width="0.1892" stroke-miterlimit="10" points="21.96,-4.342 33.892,-4.342 
				33.892,10.277 21.96,10.277 			"/>
			<g>
				<polygon fill="#90ABB3" stroke="#808181" stroke-width="0.1892" stroke-miterlimit="10" points="21.96,-15.834 24.521,-18.395 
					29.994,-18.395 21.96,-10.363 				"/>
				<polygon fill="#90ABB3" stroke="#808181" stroke-width="0.1892" stroke-miterlimit="10" points="21.96,-10.363 29.994,-18.395 
					33.892,-18.395 33.892,-16.959 21.96,-5.029 				"/>
				<polygon fill="#90ABB3" stroke="#808181" stroke-width="0.1892" stroke-miterlimit="10" points="21.96,-18.395 24.521,-18.395 
					21.96,-15.834 				"/>
				<polygon fill="#90ABB3" stroke="#808181" stroke-width="0.1892" stroke-miterlimit="10" points="25.694,-3.774 21.96,-3.774 
					21.96,-5.029 33.892,-16.959 33.892,-11.971 				"/>
				<polygon fill="#90ABB3" stroke="#808181" stroke-width="0.1892" stroke-miterlimit="10" points="33.892,-6.505 31.16,-3.774 
					25.694,-3.774 33.892,-11.971 				"/>
				<polygon fill="#90ABB3" stroke="#808181" stroke-width="0.1892" stroke-miterlimit="10" points="33.892,-3.774 31.16,-3.774 
					33.892,-6.505 				"/>
			</g>
		</g>
		<g>
			<polygon fill="#B4C3C9" stroke="#D1D0D0" stroke-width="0.4169" stroke-miterlimit="10" points="-31.895,-42.336 -4.152,-42.336 
				-4.152,-27.92 -31.895,-27.92 			"/>
			
				<line fill="#B4C3C9" stroke="#D1D0D0" stroke-width="0.4169" stroke-miterlimit="10" x1="-24.455" y1="-27.92" x2="-24.455" y2="-42.336"/>
			
				<line fill="#B4C3C9" stroke="#D1D0D0" stroke-width="0.4169" stroke-miterlimit="10" x1="-11.438" y1="-27.92" x2="-11.438" y2="-42.336"/>
		</g>
		<polygon fill="#90ABB3" stroke="#D1D0D0" stroke-width="0.4573" stroke-miterlimit="10" points="-3.079,12.333 -31.895,12.333 
			-31.895,5.352 -3.079,5.352 		"/>
		<polygon fill="#545453" points="37.953,16.953 38.413,16.953 38.189,16.98 		"/>
		<polygon fill="#545453" points="-13.539,22.722 -18.62,22.722 -16.073,22.466 		"/>
		<polygon fill="#545453" points="-4.379,22.722 -9.42,22.722 -6.894,22.466 		"/>
		<polygon fill="#545453" points="46.906,16.98 46.921,16.98 46.913,16.98 		"/>
		<polygon fill="#545453" points="-22.678,22.722 -27.8,22.727 -25.23,22.466 		"/>
		<polygon fill="#545453" points="13.899,22.718 8.938,22.718 11.426,22.466 		"/>
		<polygon fill="#545453" points="23.035,22.714 18.116,22.714 20.582,22.466 		"/>
		<polygon fill="#545453" points="-24.808,16.785 -21.256,16.794 -22.988,16.98 		"/>
		<polygon fill="#545453" points="32.255,22.714 27.373,22.714 29.82,22.466 		"/>
		<polygon fill="#545453" points="-42.713,16.736 -38.274,16.75 -40.439,16.98 		"/>
		<polygon fill="#545453" points="-33.759,16.765 -29.764,16.773 -31.712,16.98 		"/>
		<polygon fill="#545453" points="4.76,22.718 -0.24,22.718 2.265,22.466 		"/>
		<polygon fill="#545453" points="11.021,16.883 12.806,16.887 11.936,16.98 		"/>
		<polygon fill="#545453" points="29.001,16.931 29.9,16.931 29.462,16.98 		"/>
		<polygon fill="#545453" points="2.068,16.856 4.298,16.864 3.212,16.98 		"/>
		<polygon fill="#545453" points="-15.855,16.813 -12.728,16.816 -14.252,16.98 		"/>
		<polygon fill="#545453" points="-6.884,16.835 -4.215,16.844 -5.514,16.98 		"/>
		<polygon fill="#545453" points="-31.817,22.727 -36.979,22.727 -34.391,22.466 		"/>
		<polygon fill="#545453" points="-42.072,22.727 -42.22,22.602 -40.953,22.727 		"/>
		<polygon fill="#545453" points="50.533,22.708 45.731,22.708 48.135,22.466 		"/>
		<g>
			<polygon fill="#545453" points="55.044,16.999 54.542,17.486 49.174,22.708 -45.773,22.727 -52.53,16.719 			"/>
			<polygon fill="#545453" points="36.995,22.718 32.255,22.718 34.629,22.474 			"/>
			<polygon fill="#4E4F51" points="47.098,22.438 42.611,21.979 38.123,22.438 33.639,21.979 29.152,22.438 24.664,21.979 
				20.168,22.442 20.168,22.621 20.112,22.621 20.112,22.442 15.615,21.979 11.127,22.438 6.644,21.979 2.157,22.438 -2.331,21.979 
				-6.817,22.438 -11.306,21.979 -15.802,22.442 -20.299,21.979 -24.785,22.438 -29.271,21.979 -33.757,22.438 -38.245,21.979 
				-42.731,22.438 -46.411,22.062 -47.091,21.46 -42.741,21.908 -42.741,21.908 -42.731,21.908 -42.723,21.908 -42.723,21.908 
				-38.245,21.446 -33.768,21.908 -33.768,21.908 -33.757,21.908 -33.746,21.908 -33.746,21.908 -29.271,21.446 -24.795,21.908 
				-24.795,21.908 -24.785,21.908 -24.774,21.908 -24.774,21.908 -20.299,21.446 -15.802,21.908 -11.306,21.446 -6.828,21.908 
				-6.828,21.908 -6.817,21.908 -6.809,21.908 -6.809,21.908 -2.331,21.446 2.146,21.908 2.146,21.908 2.157,21.908 2.165,21.908 
				2.165,21.908 6.644,21.446 11.119,21.908 11.119,21.908 11.127,21.908 11.14,21.908 11.14,21.908 15.615,21.446 20.112,21.908 
				20.112,21.519 15.615,21.052 11.127,21.512 6.644,21.052 2.157,21.512 -2.331,21.052 -6.817,21.512 -11.306,21.052 
				-15.802,21.519 -20.299,21.052 -24.785,21.512 -29.271,21.052 -33.757,21.512 -38.245,21.052 -42.731,21.512 -47.22,21.052 
				-47.516,21.083 -48.053,20.604 -47.22,20.52 -42.741,20.981 -42.741,20.981 -42.731,20.981 -42.723,20.981 -42.723,20.981 
				-38.245,20.52 -33.768,20.981 -33.768,20.981 -33.757,20.981 -33.749,20.981 -33.749,20.981 -29.271,20.52 -24.795,20.981 
				-24.795,20.981 -24.785,20.981 -24.774,20.981 -24.774,20.981 -20.299,20.52 -15.802,20.981 -11.306,20.52 -6.828,20.981 
				-6.828,20.981 -6.817,20.981 -6.809,20.981 -6.809,20.981 -2.331,20.52 2.146,20.981 2.146,20.981 2.157,20.981 2.165,20.981 
				2.165,20.981 6.644,20.52 11.119,20.981 11.119,20.981 11.127,20.981 11.14,20.981 11.14,20.981 15.615,20.52 20.112,20.981 
				20.112,20.592 15.615,20.126 11.127,20.586 6.644,20.126 2.157,20.586 -2.331,20.126 -6.817,20.586 -11.306,20.126 
				-15.802,20.592 -20.299,20.126 -24.785,20.586 -29.271,20.126 -33.757,20.586 -38.245,20.126 -42.731,20.586 -47.22,20.126 
				-48.448,20.254 -48.984,19.775 -47.22,19.596 -42.741,20.056 -42.741,20.056 -42.731,20.056 -42.723,20.056 -42.723,20.056 
				-38.245,19.596 -33.768,20.056 -33.768,20.056 -33.757,20.056 -33.749,20.056 -33.749,20.056 -29.271,19.596 -24.795,20.056 
				-24.795,20.056 -24.785,20.056 -24.774,20.056 -24.774,20.056 -20.299,19.596 -15.802,20.056 -11.306,19.596 -6.828,20.056 
				-6.828,20.056 -6.817,20.056 -6.809,20.056 -6.809,20.056 -2.331,19.596 2.146,20.056 2.146,20.056 2.157,20.056 2.165,20.056 
				2.165,20.056 6.644,19.596 11.119,20.056 11.119,20.056 11.127,20.056 11.14,20.056 11.14,20.056 15.615,19.596 20.112,20.056 
				20.112,19.666 15.615,19.199 11.127,19.662 6.644,19.199 2.157,19.662 -2.331,19.199 -6.817,19.662 -11.306,19.199 
				-15.802,19.666 -20.299,19.199 -24.785,19.662 -29.271,19.199 -33.757,19.662 -38.245,19.199 -42.731,19.662 -47.22,19.199 
				-49.381,19.422 -49.92,18.942 -47.22,18.669 -42.741,19.129 -42.741,19.129 -42.731,19.129 -42.723,19.129 -42.723,19.129 
				-38.245,18.669 -33.768,19.129 -33.768,19.129 -33.757,19.129 -33.749,19.129 -33.749,19.129 -29.271,18.669 -24.795,19.129 
				-24.795,19.129 -24.785,19.129 -24.774,19.129 -24.774,19.129 -20.299,18.669 -15.802,19.129 -11.306,18.669 -6.828,19.129 
				-6.828,19.129 -6.819,19.129 -6.809,19.129 -6.809,19.129 -2.331,18.669 2.146,19.129 2.146,19.129 2.157,19.129 2.165,19.129 
				2.165,19.129 6.644,18.669 11.119,19.129 11.119,19.129 11.127,19.129 11.14,19.129 11.14,19.129 15.615,18.669 20.112,19.129 
				20.112,18.735 15.615,18.273 11.127,18.735 6.644,18.273 2.157,18.735 -2.331,18.273 -6.819,18.735 -11.306,18.273 
				-15.802,18.735 -20.299,18.273 -24.785,18.735 -29.271,18.273 -33.757,18.735 -38.245,18.273 -42.731,18.735 -47.22,18.273 
				-50.315,18.593 -50.852,18.116 -47.22,17.743 -42.741,18.203 -42.741,18.203 -42.731,18.203 -42.723,18.203 -42.723,18.203 
				-38.245,17.743 -33.768,18.203 -33.768,18.203 -33.757,18.203 -33.749,18.203 -33.749,18.203 -29.271,17.743 -24.795,18.203 
				-24.795,18.203 -24.785,18.203 -24.774,18.203 -24.774,18.203 -20.299,17.743 -15.802,18.203 -11.306,17.743 -6.828,18.203 
				-6.828,18.203 -6.819,18.203 -6.809,18.203 -6.809,18.203 -2.331,17.743 2.146,18.203 2.146,18.203 2.157,18.203 2.165,18.203 
				2.165,18.203 6.644,17.743 11.119,18.203 11.119,18.203 11.127,18.203 11.14,18.203 11.14,18.203 15.615,17.743 20.112,18.203 
				20.112,17.81 15.615,17.35 11.127,17.81 6.644,17.35 2.157,17.81 -2.331,17.35 -6.819,17.81 -11.306,17.35 -15.802,17.81 
				-20.299,17.35 -24.785,17.81 -29.271,17.35 -33.757,17.81 -38.245,17.35 -42.731,17.81 -47.22,17.35 -51.248,17.764 
				-52.53,16.622 -49.261,16.63 -51.716,16.883 -51.716,17.279 -47.22,16.816 -42.741,17.279 -42.741,17.279 -42.731,17.279 
				-42.723,17.279 -42.723,17.279 -38.245,16.816 -33.768,17.279 -33.768,17.279 -33.757,17.279 -33.749,17.279 -33.749,17.279 
				-29.271,16.816 -24.795,17.279 -24.795,17.279 -24.785,17.279 -24.774,17.279 -24.774,17.279 -20.299,16.816 -15.802,17.279 
				-11.306,16.816 -6.828,17.279 -6.828,17.279 -6.819,17.279 -6.809,17.279 -6.809,17.279 -2.331,16.816 2.146,17.279 
				2.146,17.279 2.157,17.279 2.165,17.279 2.165,17.279 6.644,16.816 11.119,17.279 11.119,17.279 11.127,17.279 11.14,17.279 
				11.14,17.279 15.615,16.816 20.112,17.279 20.112,16.883 19.395,16.813 20.848,16.816 20.168,16.883 20.168,17.279 
				24.573,16.825 24.76,16.825 29.143,17.279 29.143,17.279 29.152,17.279 29.161,17.279 29.161,17.279 33.324,16.848 
				33.966,16.848 38.112,17.279 38.112,17.279 38.123,17.279 38.135,17.279 38.135,17.279 42.076,16.87 43.173,16.875 
				47.087,17.279 47.087,17.279 47.098,17.279 47.107,17.279 47.107,17.279 50.827,16.894 52.379,16.897 54.795,17.144 
				54.544,17.389 54.298,17.627 51.585,17.35 47.098,17.81 42.611,17.35 38.123,17.81 33.639,17.35 29.152,17.81 24.664,17.35 
				20.168,17.81 20.168,18.203 24.664,17.743 29.143,18.203 29.143,18.203 29.152,18.203 29.161,18.203 29.161,18.203 
				33.639,17.743 38.112,18.203 38.112,18.203 38.123,18.203 38.135,18.203 38.135,18.203 42.611,17.743 47.089,18.203 
				47.089,18.203 47.098,18.203 47.107,18.203 47.107,18.203 51.585,17.743 53.934,17.981 53.439,18.464 51.585,18.273 
				47.098,18.735 42.611,18.273 38.123,18.735 33.639,18.273 29.152,18.735 24.664,18.273 20.168,18.735 20.168,19.129 
				24.664,18.669 29.143,19.129 29.143,19.129 29.152,19.129 29.161,19.129 29.161,19.129 33.639,18.669 38.112,19.129 
				38.112,19.129 38.123,19.129 38.135,19.129 38.135,19.129 42.611,18.669 47.089,19.129 47.089,19.129 47.098,19.129 
				47.107,19.129 47.107,19.129 51.585,18.669 53.073,18.82 52.578,19.301 51.585,19.199 47.098,19.662 42.611,19.199 
				38.123,19.662 33.639,19.199 29.152,19.662 24.664,19.199 20.168,19.666 20.168,20.056 24.664,19.596 29.143,20.056 
				29.143,20.056 29.152,20.056 29.161,20.056 29.161,20.056 33.639,19.596 38.112,20.056 38.112,20.056 38.123,20.056 
				38.135,20.056 38.135,20.056 42.611,19.596 47.089,20.056 47.089,20.056 47.098,20.056 47.107,20.056 47.107,20.056 
				51.585,19.596 52.213,19.657 51.716,20.139 51.585,20.126 47.098,20.586 42.611,20.126 38.123,20.586 33.639,20.126 
				29.152,20.586 24.664,20.126 20.168,20.592 20.168,20.981 24.664,20.52 29.143,20.981 29.143,20.981 29.152,20.981 
				29.161,20.981 29.161,20.981 33.639,20.52 38.112,20.981 38.112,20.981 38.123,20.981 38.135,20.981 38.135,20.981 42.611,20.52 
				47.089,20.981 47.089,20.981 47.098,20.981 47.107,20.981 47.107,20.981 51.295,20.547 50.682,21.146 47.098,21.512 
				42.611,21.052 38.123,21.512 33.639,21.052 29.152,21.512 24.664,21.052 20.168,21.519 20.168,21.908 24.664,21.446 
				29.143,21.908 29.143,21.908 29.152,21.908 29.161,21.908 29.161,21.908 33.639,21.446 38.112,21.908 38.112,21.908 
				38.123,21.908 38.135,21.908 38.135,21.908 42.611,21.446 47.089,21.908 47.089,21.908 47.098,21.908 47.107,21.908 
				47.107,21.908 50.229,21.585 49.619,22.182 			"/>
		</g>
		<polyline fill="none" stroke="#282827" stroke-width="0.4734" stroke-miterlimit="10" points="55.301,16.719 1.02,16.719 
			-52.626,16.719 		"/>
		<polyline fill="none" stroke="#807B77" stroke-width="1.026" stroke-miterlimit="10" points="23.035,46.142 0.761,46.142 
			-21.256,46.142 		"/>
		<polyline fill="none" stroke="#454548" stroke-width="2.2402" stroke-linecap="square" stroke-miterlimit="10" points="
			54.684,17.459 1.169,69.276 -52.346,17.459 		"/>
		<g>
			<polygon fill="#788080" points="43.067,-37.633 14.008,-37.633 14.008,-34.881 43.067,-34.881 			"/>
			<polygon fill="#788080" points="43.067,-42.071 14.008,-42.071 14.008,-39.315 43.067,-39.315 			"/>
			<polygon fill="#788080" points="43.067,-46.51 14.008,-46.51 14.008,-43.754 43.067,-43.754 			"/>
			<polygon fill="#788080" points="43.067,-55.382 14.008,-55.382 14.008,-52.633 43.067,-52.633 			"/>
			<polygon fill="#788080" points="43.067,-50.948 14.008,-50.948 14.008,-48.192 43.067,-48.192 			"/>
			<polygon fill="#545453" points="15.013,-31.698 12.918,-31.698 12.918,-16.636 15.013,-16.636 			"/>
			<polygon fill="#5D5959" points="14.689,-44.091 13.415,-44.091 13.415,-19.329 14.689,-19.329 			"/>
			<polygon fill="#545453" points="15.1,-57.382 13.005,-57.382 13.005,-42.323 15.1,-42.323 			"/>
			<polygon fill="#545453" points="43.467,-31.698 41.368,-31.698 41.368,-16.636 43.467,-16.636 			"/>
			<polygon fill="#5D5959" points="43.144,-44.091 41.867,-44.091 41.867,-19.329 43.144,-19.329 			"/>
			<polygon fill="#545453" points="43.552,-57.382 41.457,-57.382 41.457,-42.323 43.552,-42.323 			"/>
		</g>
	</g>
	<g>
		<polyline fill="none" stroke="#E54B51" stroke-width="2" stroke-miterlimit="10" points="23.723,-24.579 28.537,-19.765 
			33.352,-24.579 		"/>
		<g>
			<polyline fill="none" stroke="#E54B51" stroke-width="2" stroke-miterlimit="10" points="29.72,-31.533 27.355,-29.17 
				29.72,-26.806 27.355,-29.17 29.72,-26.806 28.655,-25.741 28.655,-25.741 28.655,-19.765 			"/>
			<polyline fill="none" stroke="#E54B51" stroke-width="2" stroke-miterlimit="10" points="29.72,-36.198 27.355,-33.834 
				29.72,-31.471 27.355,-33.834 29.72,-31.471 27.355,-29.106 			"/>
			<polyline fill="none" stroke="#E54B51" stroke-width="2" stroke-miterlimit="10" points="29.72,-40.863 27.355,-38.499 
				29.72,-36.135 27.355,-38.499 29.72,-36.135 27.355,-33.771 			"/>
			<polyline fill="none" stroke="#E54B51" stroke-width="2" stroke-miterlimit="10" points="29.72,-45.528 27.355,-43.164 
				29.72,-40.8 27.355,-43.164 29.72,-40.8 27.355,-38.436 			"/>
			<polyline fill="none" stroke="#E54B51" stroke-width="2" stroke-miterlimit="10" points="29.72,-50.193 27.355,-47.829 
				29.72,-45.465 27.355,-47.829 29.72,-45.465 27.355,-43.101 			"/>
			<polyline fill="none" stroke="#E54B51" stroke-width="2" stroke-miterlimit="10" points="29.72,-54.858 27.355,-52.494 
				29.72,-50.13 27.355,-52.494 29.72,-50.13 27.355,-47.766 			"/>
			<polyline fill="none" stroke="#E54B51" stroke-width="2" stroke-miterlimit="10" points="29.72,-59.522 27.355,-57.159 
				29.72,-54.795 27.355,-57.159 29.72,-54.795 27.355,-52.431 			"/>
			<polyline fill="none" stroke="#E54B51" stroke-width="2" stroke-miterlimit="10" points="29.72,-64.188 27.355,-61.823 
				29.72,-59.46 27.355,-61.823 29.72,-59.46 27.355,-57.096 			"/>
			<polyline fill="none" stroke="#E54B51" stroke-width="2" stroke-miterlimit="10" points="29.72,-68.853 27.355,-66.488 
				29.72,-64.124 27.355,-66.488 29.72,-64.124 27.355,-61.761 			"/>
			<polyline fill="none" stroke="#E54B51" stroke-width="2" stroke-miterlimit="10" points="29.72,-73.518 27.355,-71.153 
				29.72,-68.789 27.355,-71.153 29.72,-68.789 27.355,-66.426 			"/>
		</g>
	</g>
	<g>
		<polyline fill="none" stroke="#E54B51" stroke-width="2" stroke-miterlimit="10" points="-3.165,-24.579 1.649,-19.765 
			6.464,-24.579 		"/>
		<g>
			<polyline fill="none" stroke="#E54B51" stroke-width="2" stroke-miterlimit="10" points="2.831,-31.533 0.468,-29.17 
				2.831,-26.806 0.468,-29.17 2.831,-26.806 1.767,-25.741 1.767,-25.741 1.767,-19.765 			"/>
			<polyline fill="none" stroke="#E54B51" stroke-width="2" stroke-miterlimit="10" points="2.831,-36.198 0.468,-33.834 
				2.831,-31.471 0.468,-33.834 2.831,-31.471 0.468,-29.106 			"/>
			<polyline fill="none" stroke="#E54B51" stroke-width="2" stroke-miterlimit="10" points="2.831,-40.863 0.468,-38.499 
				2.831,-36.135 0.468,-38.499 2.831,-36.135 0.468,-33.771 			"/>
			<polyline fill="none" stroke="#E54B51" stroke-width="2" stroke-miterlimit="10" points="2.831,-45.528 0.468,-43.164 
				2.831,-40.8 0.468,-43.164 2.831,-40.8 0.468,-38.436 			"/>
			<polyline fill="none" stroke="#E54B51" stroke-width="2" stroke-miterlimit="10" points="2.831,-50.193 0.468,-47.829 
				2.831,-45.465 0.468,-47.829 2.831,-45.465 0.468,-43.101 			"/>
			<polyline fill="none" stroke="#E54B51" stroke-width="2" stroke-miterlimit="10" points="2.831,-54.858 0.468,-52.494 
				2.831,-50.13 0.468,-52.494 2.831,-50.13 0.468,-47.766 			"/>
			<polyline fill="none" stroke="#E54B51" stroke-width="2" stroke-miterlimit="10" points="2.831,-59.522 0.468,-57.159 
				2.831,-54.795 0.468,-57.159 2.831,-54.795 0.468,-52.431 			"/>
			<polyline fill="none" stroke="#E54B51" stroke-width="2" stroke-miterlimit="10" points="2.831,-64.188 0.468,-61.823 
				2.831,-59.46 0.468,-61.823 2.831,-59.46 0.468,-57.096 			"/>
			<polyline fill="none" stroke="#E54B51" stroke-width="2" stroke-miterlimit="10" points="2.831,-68.853 0.468,-66.488 
				2.831,-64.124 0.468,-66.488 2.831,-64.124 0.468,-61.761 			"/>
			<polyline fill="none" stroke="#E54B51" stroke-width="2" stroke-miterlimit="10" points="2.831,-73.518 0.468,-71.153 
				2.831,-68.789 0.468,-71.153 2.831,-68.789 0.468,-66.426 			"/>
		</g>
	</g>
	<g>
		<polyline fill="none" stroke="#E54B51" stroke-width="2" stroke-miterlimit="10" points="-30.053,-24.579 -25.238,-19.765 
			-20.424,-24.579 		"/>
		<g>
			<polyline fill="none" stroke="#E54B51" stroke-width="2" stroke-miterlimit="10" points="-24.057,-31.533 -26.421,-29.17 
				-24.057,-26.806 -26.421,-29.17 -24.057,-26.806 -25.121,-25.741 -25.121,-25.741 -25.121,-19.765 			"/>
			<polyline fill="none" stroke="#E54B51" stroke-width="2" stroke-miterlimit="10" points="-24.057,-36.198 -26.421,-33.834 
				-24.057,-31.471 -26.421,-33.834 -24.057,-31.471 -26.421,-29.106 			"/>
			<polyline fill="none" stroke="#E54B51" stroke-width="2" stroke-miterlimit="10" points="-24.057,-40.863 -26.421,-38.499 
				-24.057,-36.135 -26.421,-38.499 -24.057,-36.135 -26.421,-33.771 			"/>
			<polyline fill="none" stroke="#E54B51" stroke-width="2" stroke-miterlimit="10" points="-24.057,-45.528 -26.421,-43.164 
				-24.057,-40.8 -26.421,-43.164 -24.057,-40.8 -26.421,-38.436 			"/>
			<polyline fill="none" stroke="#E54B51" stroke-width="2" stroke-miterlimit="10" points="-24.057,-50.193 -26.421,-47.829 
				-24.057,-45.465 -26.421,-47.829 -24.057,-45.465 -26.421,-43.101 			"/>
			<polyline fill="none" stroke="#E54B51" stroke-width="2" stroke-miterlimit="10" points="-24.057,-54.858 -26.421,-52.494 
				-24.057,-50.13 -26.421,-52.494 -24.057,-50.13 -26.421,-47.766 			"/>
			<polyline fill="none" stroke="#E54B51" stroke-width="2" stroke-miterlimit="10" points="-24.057,-59.522 -26.421,-57.159 
				-24.057,-54.795 -26.421,-57.159 -24.057,-54.795 -26.421,-52.431 			"/>
			<polyline fill="none" stroke="#E54B51" stroke-width="2" stroke-miterlimit="10" points="-24.057,-64.188 -26.421,-61.823 
				-24.057,-59.46 -26.421,-61.823 -24.057,-59.46 -26.421,-57.096 			"/>
			<polyline fill="none" stroke="#E54B51" stroke-width="2" stroke-miterlimit="10" points="-24.057,-68.853 -26.421,-66.488 
				-24.057,-64.124 -26.421,-66.488 -24.057,-64.124 -26.421,-61.761 			"/>
			<polyline fill="none" stroke="#E54B51" stroke-width="2" stroke-miterlimit="10" points="-24.057,-73.518 -26.421,-71.153 
				-24.057,-68.789 -26.421,-71.153 -24.057,-68.789 -26.421,-66.426 			"/>
		</g>
	</g>
	<polygon fill="none" stroke="#E54B51" stroke-width="3" stroke-miterlimit="10" points="-43.351,16.622 -43.351,-55.958 
		46.906,-55.958 46.906,17.459 55.301,17.459 1.133,72.107 -55.237,16.622 	"/>
	<linearGradient id="SVGID_1_" gradientUnits="userSpaceOnUse" x1="0.0317" y1="57.4077" x2="0.0317" y2="-53.1304">
		<stop  offset="0" style="stop-color:#808080;stop-opacity:0"/>
		<stop  offset="0" style="stop-color:#FFFFFF;stop-opacity:0"/>
		<stop  offset="1" style="stop-color:#E11F27"/>
	</linearGradient>
	<polygon opacity="0.15" fill="url(#SVGID_1_)" points="-43.351,16.622 -43.351,-55.958 46.906,-55.958 46.906,17.459 
		55.301,17.459 1.133,72.107 -55.237,16.622 	"/>
</symbol>
<use xlink:href="#heatinghouse"  width="117.799" height="148.45" x="-58.9" y="-74.225" transform="matrix(1 0 0 -1 421.3818 105.1826)" overflow="visible"/>
<g>
	<g>
		
			<line fill="none" stroke="#B5B7AE" stroke-width="5" stroke-miterlimit="10" x1="283.311" y1="126.429" x2="329.874" y2="126.429"/>
		<g>
			<polygon fill="#B5B7AE" points="328.051,132.661 338.845,126.429 328.051,120.195 			"/>
		</g>
	</g>
</g>
<text transform="matrix(1 0 0 1 491.7549 117.0557)" fill="#565756" font-family="'OpenSans-Semibold'" font-size="20">x 7,500</text>
<use xlink:href="#cement_plant"  width="492.681" height="370.212" x="-232.479" y="-185.106" transform="matrix(0.4702 0 0 -0.4702 111.2134 87.6299)" overflow="visible"/>
</svg>
