<?xml version="1.0" encoding="utf-8"?>
<!-- Generator: Adobe Illustrator 15.0.0, SVG Export Plug-In . SVG Version: 6.00 Build 0)  -->
<!DOCTYPE svg PUBLIC "-//W3C//DTD SVG 1.1//EN" "http://www.w3.org/Graphics/SVG/1.1/DTD/svg11.dtd">
<svg version="1.1" id="Слой_1" xmlns="http://www.w3.org/2000/svg" xmlns:xlink="http://www.w3.org/1999/xlink" x="0px" y="0px"
	 width="369px" height="81px" viewBox="0 0 369 81" enable-background="new 0 0 369 81" xml:space="preserve">
<path fill="#929497" stroke="#808184" stroke-width="0.3939" stroke-miterlimit="10" d="M368.736,40.422h-2.728V35.88h-1.226v-4.543
	h-8.18v6.619h-5.726v-4.673h-2.862v-8.31h-1.909v-7.009h-3.407v-1.168h-3.954v0.779h-23.581v-4.025h-1.092
	c0-1.167-2.591-4.672-2.591-4.672s-3.817,0-5.589,0c-1.774,0-2.864,4.672-2.864,4.672h-1.227v9.479h-5.314V9.138h-3.137V8.359
	h-5.727v0.648h-1.499V7.971h-0.953v1.037h-1.228v5.063h-1.363v-0.908h-2.182v0.908h-1.226v0.649h-1.909v-0.778h-3.544v1.168h-1.909
	V35.88h-6.27V20.432h-0.682v-7.398h-1.908v-1.818h-1.092v1.947h-8.041v-1.167h-4.908v0.907h-1.091v7.271h-2.454V3.038h-1.363h-1.091
	V0.441h-0.818v2.985h-1.226V1.868h-5.181v1.428h-2.182V2.518h-1.363v0.648h-2.046V0.959h-0.952v1.948h-4.091v51.405h-11.995V20.111
	h-2.726v-7.01h-9.136v-1.818h-7.36v40.044h-16.632v-4.023h-3.272v10.903h-4.088V45.485h-4.228v-5.063H134.81v-5.517h-19.084v-9.281
	h-13.088v9.281h-7.497v13.307h-2.728V33.803H71.421V12.384h-4.908v-2.078h-4.906V9.008h-1.499V8.229H56.29v0.649h-1.229v1.168
	h-1.498v0.779h-4.226v19.082H20.845V28.48h-2.726v-2.597h-0.818v2.597h-4.497v1.558h-2.318V29.13H2.17v0.648H1.217v4.024H0.126
	v45.253l368.748,1.504L368.736,40.422z"/>
</svg>
