<?xml version="1.0" encoding="utf-8"?>
<!-- Generator: Adobe Illustrator 15.0.0, SVG Export Plug-In . SVG Version: 6.00 Build 0)  -->
<!DOCTYPE svg PUBLIC "-//W3C//DTD SVG 1.1//EN" "http://www.w3.org/Graphics/SVG/1.1/DTD/svg11.dtd">
<svg version="1.1" id="Слой_1" xmlns="http://www.w3.org/2000/svg" xmlns:xlink="http://www.w3.org/1999/xlink" x="0px" y="0px"
	 width="154px" height="100px" viewBox="0 0 154 100" enable-background="new 0 0 154 100" xml:space="preserve">
<path opacity="0.7" fill="#F1F1F2" d="M32.261,93.82c0,0-12.98,7.148-18.981,3.381l-8.962,0.914L1.224,98
	c0,0-0.97-1.029-0.926-2.475c0.066-2.283,1.63-4.963,9.258-7.129c0,0,1.381-6.561,7.718-8.604c0,0,0.164-6.514,3.264-6.025
	c0,0,3.493-11.557,13.331-4.99c0,0,0.412-3.34,2.849-2.689c0,0,2.017-16.178,12.395-10.988c0,0-0.582-3.467,0.473-4.533
	c0,0-4.311-23.975,13.521-21.286c0,0,1.888-13.285,10.798-13.589c0,0-0.387-4.824,5.326-3.851c0,0-0.162-7.682,5.156-7.794
	c0,0,19.314-14.233,30.061,12.594c0,0,4.109-0.938,6.037,3.197c0,0,8.969-6.169,20.18,7.471c0,0,15.436,3.459,12.719,31.14
	c0,0-4.664,20.061-22.254,8.473c0,0-1.682,2.092-3.031,1.051c0,0-16.247,20.893-41.806,14.549c0,0-9.134,7.828-16.963,3.387
	c0,0-1.222,2.537-3.495,1.848c0,0-19.934,14.57-30.383,4.418C35.451,92.174,35.216,93.721,32.261,93.82z"/>
<path opacity="0.7" fill="#E6E7E8" d="M103.016,70.045c-1.871-3.922-2.995-0.955-12.37-6.27c0,0-9.843-9.104-15.666-0.859
	c0,0-12.588-11.795-16.239-0.49c0,0-11.172-0.734-11.661,7.162c0,0-10.837-3.172-13.646,8.082c0,0-1.425,0.877-1.692,3.754
	c0,0-9.126-3.113-9.258,7.117c0,0-6.109-0.082-5.326,4.084c0,0-4.505,0.666-4.769,3.564l-0.357,3.383l5.693,0.152
	c0,0,5.706-0.785,9.462-2.719c0,0,6.755,0.596,7.796-0.482c1.04-1.08,4.911,7.512,16.402-6.297c0,0,10.381,13.637,32.795-3.992
	c0,0,2.037-0.033,2.818-0.92C87,85.314,110.139,84.973,103.016,70.045z"/>
</svg>
