<?xml version="1.0" encoding="utf-8"?>
<!-- Generator: Adobe Illustrator 15.0.0, SVG Export Plug-In . SVG Version: 6.00 Build 0)  -->
<!DOCTYPE svg PUBLIC "-//W3C//DTD SVG 1.1//EN" "http://www.w3.org/Graphics/SVG/1.1/DTD/svg11.dtd">
<svg version="1.1" id="Слой_1" xmlns="http://www.w3.org/2000/svg" xmlns:xlink="http://www.w3.org/1999/xlink" x="0px" y="0px"
	 width="16px" height="16px" viewBox="0 0 16 16" enable-background="new 0 0 16 16" xml:space="preserve">
<g>
	<g>
		<g>
			<path fill="#E6E7E8" stroke="#333333" stroke-width="0.4154" stroke-miterlimit="10" d="M8,0.54c4.146,0,7.5,3.354,7.5,7.5
				c0,4.145-3.354,7.5-7.5,7.5s-7.5-3.355-7.5-7.5C0.5,3.894,3.854,0.54,8,0.54z"/>
			<path fill="#E6E7E8" stroke="#333333" stroke-width="0.4154" stroke-miterlimit="10" d="M6.75,8.04
				c0,0.691,0.557,1.248,1.25,1.248S9.25,8.731,9.25,8.04c0-0.695-0.557-1.252-1.25-1.252S6.75,7.345,6.75,8.04z"/>
			<path fill="#E6E7E8" stroke="#333333" stroke-width="0.4154" stroke-miterlimit="10" d="M8,7.829c0.112,0,0.21,0.098,0.21,0.211
				c0,0.111-0.098,0.209-0.21,0.209S7.79,8.151,7.79,8.04C7.79,7.927,7.888,7.829,8,7.829z"/>
			<path fill="#E6E7E8" stroke="#333333" stroke-width="0.4154" stroke-miterlimit="10" d="M7.966,8.04
				C7.966,8.058,7.98,8.073,8,8.073S8.034,8.058,8.034,8.04C8.034,8.019,8.02,8.005,8,8.005S7.966,8.019,7.966,8.04z"/>
			<circle fill="#E6E7E8" stroke="#333333" stroke-width="0.4154" stroke-miterlimit="10" cx="8" cy="8.04" r="0.008"/>
			<rect x="8" y="8.04" fill="#E6E7E8" stroke="#333333" stroke-width="0.4154" stroke-miterlimit="10" width="0" height="0"/>
			<rect x="8" y="8.04" fill="#E6E7E8" stroke="#333333" stroke-width="0.4154" stroke-miterlimit="10" width="0" height="0"/>
			<rect x="8" y="8.04" fill="#E6E7E8" stroke="#333333" stroke-width="0.4154" stroke-miterlimit="10" width="0" height="0"/>
			<rect x="8" y="8.04" fill="#E6E7E8" stroke="#333333" stroke-width="0.4154" stroke-miterlimit="10" width="0" height="0"/>
			<rect x="8" y="8.04" fill="#E6E7E8" stroke="#333333" stroke-width="0.4154" stroke-miterlimit="10" width="0" height="0"/>
			<rect x="8" y="8.04" fill="#E6E7E8" stroke="#333333" stroke-width="0.4154" stroke-miterlimit="10" width="0" height="0"/>
			<rect x="8" y="8.04" fill="#E6E7E8" stroke="#333333" stroke-width="0.4154" stroke-miterlimit="10" width="0" height="0"/>
			<rect x="8" y="8.04" fill="#E6E7E8" stroke="#333333" stroke-width="0.4154" stroke-miterlimit="10" width="0" height="0"/>
			<rect x="8" y="8.04" fill="#E6E7E8" stroke="#333333" stroke-width="0.4154" stroke-miterlimit="10" width="0" height="0"/>
			<rect x="8" y="8.04" fill="#E6E7E8" stroke="#333333" stroke-width="0.4154" stroke-miterlimit="10" width="0" height="0"/>
			<rect x="8" y="8.04" fill="#E6E7E8" stroke="#333333" stroke-width="0.4154" stroke-miterlimit="10" width="0" height="0"/>
			<rect x="8" y="8.04" fill="#E6E7E8" stroke="#333333" stroke-width="0.4154" stroke-miterlimit="10" width="0" height="0"/>
			<rect x="8" y="8.04" fill="#E6E7E8" stroke="#333333" stroke-width="0.4154" stroke-miterlimit="10" width="0" height="0"/>
			<rect x="8" y="8.04" fill="#E6E7E8" stroke="#333333" stroke-width="0.4154" stroke-miterlimit="10" width="0" height="0"/>
			<rect x="8" y="8.04" fill="#E6E7E8" stroke="#333333" stroke-width="0.4154" stroke-miterlimit="10" width="0" height="0"/>
			<rect x="8" y="8.04" fill="#E6E7E8" stroke="#333333" stroke-width="0.4154" stroke-miterlimit="10" width="0" height="0"/>
			<rect x="8" y="8.04" fill="#E6E7E8" stroke="#333333" stroke-width="0.4154" stroke-miterlimit="10" width="0" height="0"/>
			<rect x="8" y="8.04" fill="#E6E7E8" stroke="#333333" stroke-width="0.4154" stroke-miterlimit="10" width="0" height="0"/>
			<rect x="8" y="8.04" fill="#E6E7E8" stroke="#333333" stroke-width="0.4154" stroke-miterlimit="10" width="0" height="0"/>
			<rect x="8" y="8.04" fill="#E6E7E8" stroke="#333333" stroke-width="0.4154" stroke-miterlimit="10" width="0" height="0"/>
			<rect x="8" y="8.04" fill="#E6E7E8" stroke="#333333" stroke-width="0.4154" stroke-miterlimit="10" width="0" height="0"/>
			<rect x="8" y="8.04" fill="#E6E7E8" stroke="#333333" stroke-width="0.4154" stroke-miterlimit="10" width="0" height="0"/>
			<rect x="8" y="8.04" fill="#E6E7E8" stroke="#333333" stroke-width="0.4154" stroke-miterlimit="10" width="0" height="0"/>
			<rect x="8" y="8.04" fill="#E6E7E8" stroke="#333333" stroke-width="0.4154" stroke-miterlimit="10" width="0" height="0"/>
			<rect x="8" y="8.04" fill="#E6E7E8" stroke="#333333" stroke-width="0.4154" stroke-miterlimit="10" width="0" height="0"/>
			<rect x="8" y="8.04" fill="#E6E7E8" stroke="#333333" stroke-width="0.4154" stroke-miterlimit="10" width="0" height="0"/>
			<rect x="8" y="8.04" fill="#E6E7E8" stroke="#333333" stroke-width="0.4154" stroke-miterlimit="10" width="0" height="0"/>
		</g>
		<g>
			<line fill="#E6E7E8" stroke="#333333" stroke-width="0.4154" stroke-miterlimit="10" x1="8" y1="8.04" x2="8" y2="0.54"/>
			<line fill="#E6E7E8" stroke="#333333" stroke-width="0.4154" stroke-miterlimit="10" x1="8" y1="8.04" x2="2.697" y2="2.737"/>
			<line fill="#E6E7E8" stroke="#333333" stroke-width="0.4154" stroke-miterlimit="10" x1="8" y1="8.04" x2="0.5" y2="8.04"/>
			<line fill="#E6E7E8" stroke="#333333" stroke-width="0.4154" stroke-miterlimit="10" x1="8" y1="8.04" x2="2.697" y2="13.343"/>
			<line fill="#E6E7E8" stroke="#333333" stroke-width="0.4154" stroke-miterlimit="10" x1="8" y1="8.04" x2="8" y2="15.54"/>
			<line fill="#E6E7E8" stroke="#333333" stroke-width="0.4154" stroke-miterlimit="10" x1="8" y1="8.04" x2="13.303" y2="13.343"/>
			<line fill="#E6E7E8" stroke="#333333" stroke-width="0.4154" stroke-miterlimit="10" x1="8" y1="8.04" x2="15.5" y2="8.04"/>
			<line fill="#E6E7E8" stroke="#333333" stroke-width="0.4154" stroke-miterlimit="10" x1="8" y1="8.04" x2="13.303" y2="2.737"/>
		</g>
	</g>
	<g>
		<g>
			<path fill="#E6E7E8" stroke="#333333" stroke-width="0.4154" stroke-miterlimit="10" d="M8,17.831"/>
			<path fill="#E6E7E8" stroke="#333333" stroke-width="0.4154" stroke-miterlimit="10" d="M2.697,20.028"/>
			<path fill="#E6E7E8" stroke="#333333" stroke-width="0.4154" stroke-miterlimit="10" d="M2.697,30.634"/>
			<path fill="#E6E7E8" stroke="#333333" stroke-width="0.4154" stroke-miterlimit="10" d="M8,32.831"/>
			<path fill="#E6E7E8" stroke="#333333" stroke-width="0.4154" stroke-miterlimit="10" d="M15.5,25.331"/>
		</g>
	</g>
</g>
</svg>
