<?xml version="1.0" encoding="utf-8"?>
<!-- Generator: Adobe Illustrator 15.0.0, SVG Export Plug-In . SVG Version: 6.00 Build 0)  -->
<!DOCTYPE svg PUBLIC "-//W3C//DTD SVG 1.1//EN" "http://www.w3.org/Graphics/SVG/1.1/DTD/svg11.dtd">
<svg version="1.1" id="Слой_1" xmlns="http://www.w3.org/2000/svg" xmlns:xlink="http://www.w3.org/1999/xlink" x="0px" y="0px"
	 width="299px" height="132px" viewBox="0 0 299 132" enable-background="new 0 0 299 132" xml:space="preserve">
<pattern  width="54" height="54" patternUnits="userSpaceOnUse" id="USGS_21_Intricate_Surface" viewBox="10.5 -67.313 54 54" overflow="visible">
	<g>
		<polygon fill="none" points="10.5,-67.313 64.5,-67.313 64.5,-13.313 10.5,-13.313 		"/>
		<g>
			<path fill="#1A1718" d="M33.076-11.83c-0.753,0.501-1.313,4.687-2.063,5.25c-0.295,0.221-0.751,0.687-0.75,0.937
				c0.001,0.502-0.272,0.438-0.271,0.939c0.004,1.002-0.741,2.31-2.117,2.016c-0.362-0.078-0.666-0.989,1.377-2.146
				c0.22-0.125-0.021-0.913,0.14-1.338c1.996-5.283,3.871-9.597,4.435-8.283L33.076-11.83z"/>
			<path fill="#1A1718" d="M38.828-10.827c-0.164-0.479-0.429-0.758-0.435-1.24c-1.097,0.226-2.188,0.451-3.284,0.678
				c-0.895-1.014,1.115-1.394,2.486-2.055c0.502-0.243,2.156-1.3,2.705-1.415C40.115-13.768,39.147-12.14,38.828-10.827z"/>
			<path fill="#1A1718" d="M59.25-8.25c0.204,0.728-0.185,1.317-0.765,1.404c-0.861,0.129-1.988,0.417-2.011,0.856
				C56.399-4.413,55.282-3.43,54-3c1.203-2.297,2.925-3.813,5.167-5.369c0.247-0.171-0.052-0.941,0.149-1.348
				c0.656-1.325,2.653,0.124,2.843-2.29c0.018-0.232-0.408-0.493-0.659-0.743c2.107,0.601,1.857-2.129,3.75-2.25c0,0.5,0,1,0,1.5
				c-0.885-0.152-1.527,0.373-2.259,0.733C60.679-11.626,63.084-8.717,59.25-8.25z"/>
			<path fill="#1A1718" d="M14.437-6.75c-0.348-1.95,2.648-5.848,3.563-7.5c0.499,0.5,0.327,1.283,0.25,1.687
				c-0.379,1.979-2.632,3.286-2.614,5.851c-0.562,0.938-0.498,1.56-2.136,1.463L14.437-6.75z"/>
			<path fill="#1A1718" d="M21.937-12c0.152-0.884-0.346-1.551-0.75-2.25c0.729-0.204,1.338,0.195,1.397,0.761
				C22.584-12.938,22.188-12.5,21.937-12z"/>
			<path fill="#1A1718" d="M12.75-12.188c-1.791-0.236-0.231-1.589-0.75-2.25C14.191-14.333,11.434-12.584,12.75-12.188z"/>
			<path fill="#1A1718" d="M24.102-11.111c1.653-1.237,2.264-4.912,4.148-5.702c-1.522,1.153-1.673,4.886-2.883,6.19
				c-2.315,2.494-5.573,3.817-7.288,6.917C17.458-2.585,18.777-0.996,17.25,0c-0.256-2.43-0.23-5.029,1.657-6.556
				C20.86-8.136,22.113-9.623,24.102-11.111z"/>
			<path fill="#1A1718" d="M47-11.563c-0.437,0.486-1.178-0.079-1.32-0.676c-0.232-0.978-1.202-2.607-0.077-2.982
				c0.86,0.812,1.926,0.797,3,0.75C46.02-14.512,47.717-12.361,47-11.563z"/>
			<path fill="#1A1718" d="M54.468-10.864c0.162,0.302,0.749-0.096,1.032-0.449c-1.064-0.605,0.113-2.169-1.198-2.395
				c-0.481-0.082-1.036,0.484-1.726,0.382C53.146-12.226,53.86-11.994,54.468-10.864z"/>
		</g>
		<g>
			<path fill="#1A1718" d="M5.25-8.25c0.204,0.728-0.185,1.317-0.765,1.404C3.624-6.717,2.497-6.429,2.475-5.989
				C2.399-4.413,1.282-3.43,0-3c1.203-2.297,2.925-3.813,5.167-5.369C5.414-8.54,5.115-9.311,5.316-9.717
				c0.656-1.325,2.653,0.124,2.843-2.29C8.177-12.239,7.751-12.5,7.5-12.75c2.107,0.601,1.857-2.129,3.75-2.25c0,0.5,0,1,0,1.5
				c-0.885-0.152-1.527,0.373-2.259,0.733C6.679-11.626,9.084-8.717,5.25-8.25z"/>
		</g>
		<g>
			<path fill="#1A1718" d="M63.768-24.136c0.834-0.31,1.722,0.694,2.134,0.495c2.148-1.04,1.962-3.565,4.674-1.393
				c0.033,0.026,0.61-0.427,0.577-0.639c-0.122-0.764-0.908-1.411-0.603-2.247c0.215-0.585,0.802-0.704,1.405-0.904
				c1.86-0.616-0.467-2.492,2.193-3.818c0.304-0.15,0.336-1.411-0.017-1.972c-0.791-1.258-2.339-0.793-3.632-0.825
				c1.308,0.116,2.193-0.611,3-1.5c-0.253,0.502-0.499,1.001-0.75,1.5c1,0.501,1.998,1.001,3,1.5
				c-0.502,0.253-1.228,0.405-1.385,0.797c-0.348,0.869,0.154,2.075-0.251,2.887c-0.102,0.202-1.049-0.102-1.266,0.151
				c-1.217,1.429-0.594,3.975-1.825,4.847c-1.999,1.414-6.05,0.95-7.025,4.146c-0.171,0.559,1.139,1.27,2.008,1.322
				c0.988,0.059,1.853-0.679,2.244-2.149c-0.153,0.885,0.219,1.863,0.81,2.093c1.468,0.571,1.361-2.45,2.898-1.963
				c0.379,0.12,0.791,0.949,0.665,1.328c-0.128,0.382-0.874,0.709-1.373,0.708c-0.253,0-0.585-0.616-0.707-0.563
				c-1.537,0.663-3.58,0.469-4.474,2.185C65.86-17.75,66-17.188,66-16.688c-0.816-0.054-2.15,0.286-2.06-0.732
				c0.086-0.959,0.971-1.983,0.461-2.966c-0.215-0.41-0.902-0.55-1.401-0.802L63.768-24.136z"/>
			<path fill="#1A1718" d="M65.25-33.188c-1.593,0.171-0.684-0.906-0.75-1.5C64.752-34.187,64.998-33.688,65.25-33.188z"/>
			<path fill="#1A1718" d="M64.875-57.938c-0.102,2.447-0.171,1.646-2.625,2.438c0.501-0.252,1.989-0.945,2.103-1.321
				c0.239-0.777-0.086-1.137,0.319-1.835c-0.187-0.75-1.481-0.749-0.797-1.782c1.012-1.528,0.212-3.746,2.134-4.534
				c0.433-0.177,0.24,0.473,0.741,0.473C66.75-62.438,64.966-60.149,64.875-57.938z"/>
			<path fill="#1A1718" d="M63-30c0.517-1.465,1.826-1.348,3-1.5C65.267-30.464,64.102-30.294,63-30z"/>
		</g>
		<g>
			<path fill="#1A1718" d="M16.125-38.25c-0.231,0.077-0.491,0.025-0.742,0.025c0.358-0.847,0.724-1.684,1.5-2.25
				c0.253,0.501,0.749,1.078,0.623,1.457C17.379-38.636,16.656-38.428,16.125-38.25z"/>
			<path fill="#1A1718" d="M33.076-65.83c-0.753,0.501-1.313,4.687-2.063,5.25c-0.295,0.221-0.751,0.687-0.75,0.937
				c0.001,0.502-0.272,0.438-0.271,0.939c0.004,1.002-0.741,2.31-2.117,2.016c-0.362-0.078-0.666-0.989,1.377-2.146
				c0.22-0.125-0.021-0.913,0.14-1.338c1.996-5.283,3.871-9.597,4.435-8.283L33.076-65.83z"/>
			<path fill="#1A1718" d="M24.764-57.327c-0.717-0.244-1.691-1.074-1.594-1.323c0.917-2.327,1.815-3.304,2.752-3.342
				c0.937-0.039-1.216,1.439-1.7,2.473c-0.481,1.034,1.942,2.472,1.519,3.089C25.315-55.812,25.276-56.748,24.764-57.327z"/>
			<path fill="#1A1718" d="M22.5-56.25c-0.583,1.917-0.394,2.106-3,3c0.758-0.233,0.561,0.058,0.75-2.25
				C20.273-55.793,21.999-56,22.5-56.25z"/>
			<path fill="#1A1718" d="M20.233-47.256c-0.206,0.523-0.451,1.32-0.748,1.347c-2,0.181-2.402,1.715-2.985,3.159
				c1.305,0.361,2.234,1.664,3.75,1.5c-0.7,0.403-1.494,1.134-2.167,0.637c-0.251-0.184,0.019-1.183-0.135-1.236
				c-2.87-0.979-2.15-3.137-0.581-4.518c0.161-0.142,1.026,0.636,1.304,0.479c1.256-0.713-0.484-4.55,0.829-3.611
				c0.651,0.695,1.681,1.453,2.833-0.122C22.832-50.304,22.5-51.5,22.5-52.5c0.375-0.75,2.064-0.322,2.101,0.754
				C24.69-49.167,21.138-49.55,20.233-47.256z"/>
			<path fill="#1A1718" d="M29.238-49.509c-0.229,0.286-0.488,0.676-0.738,0.676c-0.254-0.001-0.499-0.417-0.75-0.667
				c0.501-0.252,1.316-0.471,1.339-0.764C29.209-51.72,28.862-53.417,27-54C30.036-54.914,30.885-51.569,29.238-49.509z"/>
			<path fill="#1A1718" d="M32.423-47.986C32.732-51.884,31.875-54,36-52.5c0.937,1.312-1.815,0.207-2.115,0.816
				c-0.15,0.308,1.679,1.054,1.552,1.434c-0.127,0.382-2.106,0.388-2.346,0.803c-0.43,0.749,0.254,1.499,0.659,2.197
				C33.248-47.502,32.406-47.774,32.423-47.986z"/>
			<path fill="#1A1718" d="M36.706-47.353C36.581-47.3,36.251-47.75,36-48c0.799-0.426,1.305-2.111,2.078-1.33
				C38.816-48.584,37.5-47.063,36.706-47.353z"/>
			<path fill="#1A1718" d="M26-40.563c-0.437,0.486-1.178-0.079-1.32-0.676c-0.232-0.978-1.202-2.607-0.077-2.982
				c0.86,0.812,1.926,0.797,3,0.75C25.02-43.512,26.717-41.361,26-40.563z"/>
			<path fill="#1A1718" d="M41.5-51.188c2.787-0.378,3.054-2.781,4.58-4.227c0.268-0.256,1.033,0.082,1.354-0.168
				c0.873-0.684,1.027-1.801,0.816-2.917c1.28,1.658,2.631-0.619,3.552,0.217c1.681,1.527,1.512,3.999,3.948,5.033
				c-0.393,1.905-2.088,2.941-3,4.5c0.813-2.625,2.844-5.434-0.75-6.75c0.252-0.252,0.666-0.5,0.666-0.75
				c-0.001-0.501-0.32-1.225-0.714-1.387c-0.942-0.387-2.301-0.311-2.84,0.697c-0.949,1.772-1.517,1.914-2.896,3.177
				c-0.67,0.614,0.03,2.41-0.966,3.513c-0.253-0.252-0.633-0.83-0.731-0.65c-0.957,1.775-2.269,1.587-2.644,0.462L41.5-51.188z"/>
			<path fill="#1A1718" d="M40.933-54.992L40.933-54.992c-0.196-0.152-1.256,0.411-1.27,0.687c-0.079,1.62-0.385,3.276-2.413,2.992
				c2.408-1.957,3.097-4.916,4.407-7.547c0.444-0.896-2.66-3.141-1.407-3.89l2.25,0.937c0.652-0.695,1.422-1.159,3,0
				c-1.074-0.045-2.33-0.198-2.894,0.81c-0.926,1.654-0.122,2.583-0.267,4.428c-0.022,0.292-1.074,0.42-1.22,0.807
				C41.035-55.544,40.924-55.198,40.933-54.992z"/>
			<path fill="#1A1718" d="M38.828-64.827c-0.164-0.479-0.429-0.758-0.435-1.24c-1.097,0.226-2.188,0.451-3.284,0.678
				c-0.895-1.014,1.115-1.394,2.486-2.055c0.502-0.243,2.156-1.3,2.705-1.415C40.115-67.768,39.147-66.14,38.828-64.827z"/>
			<path fill="#1A1718" d="M48.75-26.25c0.479-1.062,1.434-0.696,2.25-0.75C50.476-26.066,49.638-26.088,48.75-26.25z"/>
			<path fill="#1A1718" d="M58.066-65.243c-0.454,4.307-0.565-0.007-0.816-0.007c0.714-0.283,1.751-0.248,1.5-1.5
				C58.497-66.248,58.121-65.77,58.066-65.243z"/>
			<path fill="#1A1718" d="M59.25-62.25c0.204,0.728-0.185,1.317-0.765,1.404c-0.861,0.129-1.988,0.417-2.011,0.856
				C56.399-58.413,55.282-57.43,54-57c1.203-2.297,2.925-3.813,5.167-5.369c0.247-0.171-0.052-0.941,0.149-1.348
				c0.656-1.325,2.653,0.124,2.843-2.29c0.018-0.232-0.408-0.493-0.659-0.743c2.107,0.601,1.857-2.129,3.75-2.25c0,0.5,0,1,0,1.5
				c-0.885-0.152-1.527,0.373-2.259,0.733C60.679-65.626,63.084-62.717,59.25-62.25z"/>
			<path fill="#1A1718" d="M61.444-56.263c-0.205,0.914-0.592,1.96-1.472,2.12c-0.697,0.127-1.473,1.069-2.223-1.357
				c2.328,0.744,2.987-1.209,3.75-3C61.5-57.747,61.61-57.006,61.444-56.263z"/>
			<path fill="#1A1718" d="M57.817-48.717c-0.203,0.407-0.067,0.967-0.067,1.467c-0.811-0.86-1.135-2.129-0.582-2.875
				c0.277-0.375,1.33-0.125,2.082-0.125C58.748-49.748,58.121-49.325,57.817-48.717z"/>
			<path fill="#1A1718" d="M45.25-45c0.048-0.498,0.256-1.244,0.063-1.364c-0.769-0.482-1.91-0.322-2.905-0.419
				c0.275-0.226,0.517-0.546,0.83-0.623c0.865-0.216,1.724,0.866,2.026,0.691c1.949-1.123,4.165-4.702,5.788-6.325
				c0.227,0.275-0.964,2.604-1.012,2.665C48.237-48.132,46.983-47.167,45.25-45z"/>
			<path fill="#1A1718" d="M49.284-43.081c-0.662-0.428-1.983-0.403-1.348-1.469c1.285-2.156,4.122-2.178,5.875-3.825
				c0.438,2.112,3.158,1.61,4.415,3.072c0.255,0.296,0.01,0.93,0.123,1.419c0.179,0.766,0.21,1.761,1.462,1.509
				c-0.253,0.253-0.498,0.499-0.75,0.75c-1.335-1.956-1.619,0.216-3,0c0.502-0.252,1.254-0.414,1.37-0.792
				c0.372-1.193,0.468-2.656-0.653-3.671c-0.411-0.37-1.11-0.807-1.39-0.648c-0.901,0.507-1.038,1.744-0.827,2.861
				c-1.22-1.126-1.786-3.792-3.625-2.774c-0.627,0.347-1.328,1.235-2.142,2.217c-1.094,1.326,2.428,0.937,2.017,2.808
				C50.31-42.126,49.89-42.691,49.284-43.081z"/>
			<path fill="#1A1718" d="M42.349-42.8c0.14,0.179,1.043-0.3,1.249-0.094c0.461,0.468,1.831,1.119,1.976,1.855
				c0.443-0.343,1.174-0.663,1.177-1.025c0.005-0.972-2.46-1.16-3.884-1.653c-0.681-0.237-1.192-1.037-1.212-1.936
				C41.846-44.671,41.795-43.517,42.349-42.8z"/>
			<path fill="#1A1718" d="M38.906-43.222c0.492,1.609-0.845,1.097-1.406,0.158c-0.375-0.937-0.921-3.739,1.503-3.85
				c0.241-0.01,0.495,0.412,0.747,0.663C39.222-45.801,37.197-48.809,38.906-43.222z"/>
			<path fill="#1A1718" d="M14.437-60.75c-0.348-1.95,2.648-5.848,3.563-7.5c0.499,0.5,0.327,1.283,0.25,1.687
				c-0.379,1.979-2.632,3.286-2.614,5.851c-0.562,0.938-0.498,1.56-2.136,1.463L14.437-60.75z"/>
			<path fill="#1A1718" d="M11.75-52.938c2.295-1.262-0.025-1.397,2.687-2.562c1.313,0.375,1.604,1.98,1.688,3.375
				c0.018,0.321-0.375,1.375-0.375,1.875c-0.253-0.501-0.496-0.993-0.751-1.5c-0.256-0.509-0.45-1.781-0.624-1.813
				C13-53.813,11.75-52.938,11.75-52.938z"/>
			<path fill="#1A1718" d="M27.625-64.938c0-0.501,0-0.999,0-1.5c0.699,0.405,1.365,0.903,2.25,0.75
				C29.122-65.436,28.375-65.189,27.625-64.938z"/>
			<path fill="#1A1718" d="M14.343-45.908c0.492,1.608-0.843,1.095-1.406,0.158c-0.375-0.938-0.92-3.741,1.505-3.85
				c0.24-0.011,0.494,0.41,0.745,0.661C14.66-48.488,12.635-51.496,14.343-45.908z"/>
			<path fill="#1A1718" d="M9.768-24.136c0.834-0.31,1.722,0.694,2.134,0.495c2.148-1.04,1.962-3.565,4.674-1.393
				c0.033,0.026,0.61-0.427,0.577-0.639c-0.122-0.764-0.908-1.411-0.603-2.247c0.215-0.585,0.802-0.704,1.405-0.904
				c1.86-0.616-0.467-2.492,2.193-3.818c0.304-0.15,0.336-1.411-0.017-1.972c-0.791-1.258-2.339-0.793-3.632-0.825
				c1.308,0.116,2.193-0.611,3-1.5c-0.253,0.502-0.499,1.001-0.75,1.5c1,0.501,1.998,1.001,3,1.5
				c-0.502,0.253-1.228,0.405-1.385,0.797c-0.348,0.869,0.154,2.075-0.251,2.887c-0.102,0.202-1.049-0.102-1.266,0.151
				c-1.217,1.429-0.594,3.975-1.825,4.847c-1.999,1.414-6.05,0.95-7.025,4.146c-0.171,0.559,1.139,1.27,2.008,1.322
				c0.988,0.059,1.853-0.679,2.244-2.149c-0.153,0.885,0.219,1.863,0.81,2.093c1.468,0.571,1.361-2.45,2.898-1.963
				c0.379,0.12,0.791,0.949,0.665,1.328c-0.128,0.382-0.874,0.709-1.373,0.708c-0.253,0-0.585-0.616-0.707-0.563
				c-1.537,0.663-3.58,0.469-4.474,2.185C11.86-17.75,12-17.188,12-16.688c-0.816-0.054-2.15,0.286-2.06-0.732
				c0.086-0.959,0.971-1.983,0.461-2.966c-0.215-0.41-0.902-0.55-1.401-0.802L9.768-24.136z"/>
			<path fill="#1A1718" d="M20.706-16.686c0.387-0.14,0.543-0.878,0.794-1.378c0.501,0.253,1,0.499,1.5,0.75
				c1.325-3.245,3.59-7.424,7.5-7.5c0,0.5,0,1,0,1.5c-0.884-0.151-1.772,0.196-2.131,0.819c-0.685,1.186,1.551,1.873-0.119,3.681
				c-0.019-1.297,0.413-3.128-0.826-3.501c-1.498-0.452-2.481,1.86-2.174,3.501c-0.5,0-1.271-0.129-1.362,0.065
				c-0.916,1.955-3.3,2.384-3.888,4.435c-1.226-1.35-3.389-1.646-3.75-3.75C18.08-18.553,19.082-16.098,20.706-16.686z"/>
			<path fill="#1A1718" d="M11.25-33.188c-1.593,0.171-0.684-0.906-0.75-1.5C10.752-34.187,10.998-33.688,11.25-33.188z"/>
			<path fill="#1A1718" d="M15.118-33.277c0.614,0.814,0.793,1.451,0.632,2.339c-0.502-0.252-1.341-0.513-1.33-0.741
				c0.074-1.667-1.505-2.867-0.92-4.509C14.536-35.455,14.455-34.156,15.118-33.277z"/>
			<path fill="#1A1718" d="M11.25-37.688c-0.21-1.668,1.108-0.278,1.5-0.75C12.248-38.186,11.749-37.939,11.25-37.688z"/>
			<path fill="#1A1718" d="M24.828-36.184c-0.132,2.545,1.818,3.956,3.672,5.245c-0.567-0.774-1.379-1.324-2.259-1.407
				c-0.229-0.021-0.491,0.574-0.741,0.574c-0.502-0.001-1.314-0.384-1.341-0.681c-0.135-1.454-0.777-2.944,0.45-4.59
				c0.155-0.209-0.358-0.896-0.609-1.396c-0.502,0.253-1.001,0.499-1.5,0.75c-0.501-1-1.001-1.998-1.5-3
				c2.275,0.321,2.593,2.988,4.5,3.75C25.247-36.686,24.843-36.447,24.828-36.184z"/>
			<path fill="#1A1718" d="M29.643-32.724c1.274,0.135,1.25-0.949,1.255-1.638c0.004-0.733-0.45-1.002,1.182-2.579
				c0.321-0.308,0.383-1.382,0.719-2.116c0.276,0.228,0.545,0.448,0.819,0.676c-0.475,0.298-1.153,0.506-1.316,0.931
				c-0.242,0.637,0.318,1.663-0.027,2.083c-0.575,0.695-1.817,1.063-1.793,2.57c0.004,0.232,0.661,0.528,0.62,0.634
				c-0.415,1.071-0.499,2.036-0.351,3.1C29.21-29.931,29.741-31.419,29.643-32.724z"/>
			<path fill="#1A1718" d="M36.967-35.535c-1.251,1.562-2.871-0.09-3.774,1.905c1.313-0.465,0.527,0.351,2.951,0.779
				c-0.059-0.558-0.292-1.403-0.094-1.519c2.432-1.402,1.169-4.491,3.041-6.387c-0.349-0.075-0.689-0.15-1.037-0.227
				c0.06,0.56-0.713,2.933-0.928,3.072C35.409-36.784,38.048-36.884,36.967-35.535z"/>
			<path fill="#1A1718" d="M31.647-26.619c-1.819-1.473-1.768,0.396-3.147,0.181c0.252-0.501,0.498-0.999,0.75-1.5
				c1.28,1.659,2.577-0.609,3.573,0.213C33.615-27.071,31.875-26.435,31.647-26.619z"/>
			<path fill="#1A1718" d="M33.127-22.605c-0.015,0.279-1.04,0.404-1.234,0.81c-1.04,2.157-0.329,2.758,0.738,4.434
				c-0.729,0.204-1.312-0.18-1.409-0.765c-0.207-1.262,0.589-1.158-0.722-2.437c-0.383-0.374,1.331-1.342,1.653-2.181
				c0.618-1.613,1.949-2.095,2.79-3.511c0.288-0.486,1.274,0.169,1.194,0.633C35.851-23.938,33.314-26.188,33.127-22.605z"/>
			<path fill="#1A1718" d="M33.54-59.307c-0.407-0.282,0.31-0.92,0.892-1.185c0.649,1.503,3.207,0.427,3.241,2.142
				c0.013,0.63-0.944,1.182-0.95,2.079C35.237-57.279,35.061-58.242,33.54-59.307z"/>
			<path fill="#1A1718" d="M39.75-26.813c0.75,1.645-1.224,1.04-1.508,1.831C37.167-26.895,40.113-25.487,39.75-26.813z"/>
			<path fill="#1A1718" d="M41.591-26.028c0.506,0.245,1.006,0.49,1.51,0.732c0.243-0.505,0.751-1.113,0.596-1.446
				c-1.011-2.153,0.308-4.379,0.958-6.375c0.982,0.423,1.769-0.027,2.17-0.813c0.922-1.804,2.85-4.585,3.047-6.688
				c-0.551,0.105-1.407,0.114-1.48,0.368c-0.917,3.2-3.558,8.133-7.141,8.937c-0.122,0.028-0.214,0.618-0.113,0.926
				c0.275,0.849,1.47,0.86,1.754,1.425C43.433-27.896,42.285-26.934,41.591-26.028z"/>
			<path fill="#1A1718" d="M39.866-35.438c0.124,0.489-0.303,1.114,0.242,1.641c0.885-2.166,0.922-4.636,3.284-6.268
				c-0.948-0.673-1.589,0.124-2.32,0.489C42.209-37.815,39.402-37.254,39.866-35.438z"/>
			<path fill="#1A1718" d="M44.31-20.406c-0.594,1.152,1.458,2.895,2.131,2.728c0.801-0.197,2.021-0.795,1.56-2.76
				c3.074,0.159,6.798,3.271,4.314,5.82c-0.527,0.539-1.854-0.167-2.814-0.57c1.696-0.288,2.833-2.221,2.113-3.683
				c-0.3-0.609-1.221-0.912-2.116-0.846c-2.02,0.151-1.123,2.003-2.278,2.994c-0.424,0.364-0.981,0.727-1.462,0.688
				c-0.875-0.069-1.551-0.888-2.324-1.269c-0.308-0.151-1.103,0.252-1.343,0.669c-0.436,0.755-0.275,1.673,0.66,2.195
				c-1.256,0.257-1.466-0.903-1.338-1.462c0.315-1.375,2.828-1.189,2.766-3.035c-0.033-1.011-0.709-1.86-2.178-2.253
				c3.288,0.702,2.509-2.94,4.86-3.743c1.492-0.51,0.783,0.814,0.64,1.368C47.125-22.117,44.982-21.717,44.31-20.406z"/>
			<path fill="#1A1718" d="M49.259-29.646c-0.545,0.138-1.01,0.457-1.509,0.708c1.209-0.847,0.055-2.107,2.136-3.213
				c0.501-0.266,0.298-1.512-0.636-2.037c0.252-0.252,0.498-0.498,0.75-0.75c-0.345,1.836,0.399,3.516,0.75,5.25
				C50.248-29.688,49.742-29.77,49.259-29.646z"/>
			<path fill="#1A1718" d="M54.666-32.938c-0.001,0.502-0.415,1.001-0.666,1.5c-0.253-0.252-0.699-0.597-0.649-0.698
				c0.517-1.026,0.694-1.977,0.649-3.052C54.252-34.436,54.666-33.688,54.666-32.938z"/>
			<path fill="#1A1718" d="M53.619-38.646c-1.274,0.323-1.384-0.834-1.376-1.478c0.008-0.53,0.815-1.14,1.292-0.664
				c0.506,0.508,0.008,1.703,2.34,1.412C55.122-39.122,54.405-38.843,53.619-38.646z"/>
			<path fill="#1A1718" d="M57.619-38.183c-0.704,0.797-1.04,2.951-1.994,1.994C54.658-37.154,56.744-37.55,57.619-38.183z"/>
			<path fill="#1A1718" d="M57.582-18.228c-0.224,0.94-0.501,2.767-2.024,2.145c-0.176-0.07-0.058-0.854-0.058-1.355
				c1.272,0.067,2.726-0.32,2.828-2.259c0.012-0.225-1.106-0.417-1.18-0.771c-0.146-0.688-1.075-1.469,1.352-2.221
				C57.455-21.316,57.939-19.729,57.582-18.228z"/>
			<path fill="#1A1718" d="M10.875-57.938c-0.102,2.447-0.171,1.646-2.625,2.438c0.501-0.252,1.989-0.945,2.103-1.321
				c0.239-0.777-0.086-1.137,0.319-1.835c-0.187-0.75-1.481-0.749-0.797-1.782c1.012-1.528,0.212-3.746,2.134-4.534
				c0.433-0.177,0.24,0.473,0.741,0.473C12.75-62.438,10.966-60.149,10.875-57.938z"/>
			<path fill="#1A1718" d="M59.044-33.149c0.309-3.896-0.548-6.014,3.577-4.514c0.937,1.313-1.814,0.205-2.114,0.816
				c-0.151,0.308,1.677,1.055,1.551,1.434c-0.126,0.382-2.106,0.387-2.346,0.803c-0.43,0.749,0.254,1.499,0.659,2.197
				C59.869-32.667,59.027-32.938,59.044-33.149z"/>
			<path fill="#1A1718" d="M57.375-28.688c-1.293-0.188-1.338,0.85-1.411,1.535c-0.023,0.226,0.607,0.581,0.555,0.692
				c-0.726,1.553-2.398,0.542-3.647,0.798c0.499,0,1.211,0.163,1.381-0.083c0.948-1.379,2.833-3.569,0.869-5.167
				c0.959,1.234,3.154,0.408,3.75,2.25C58.369-28.663,57.874-28.614,57.375-28.688z"/>
			<path fill="#1A1718" d="M53.8-21.668c-1.53,0.068-3.27,0.567-4.875,0.187c0.252-0.253,1.062-0.751,1.313-0.75
				c0.501,0.001,0.516,0.749,0.895,0.623c0.382-0.126,0.522-1.196,0.8-1.211c1.589-0.085,2.973-0.778,4.492-0.912
				c-0.253,0.501-0.394,1.196-0.801,1.398C55.014-22.028,54.554-21.704,53.8-21.668z"/>
			<path fill="#1A1718" d="M60.75-25.313c-0.209,0.451-0.962-0.142-1.325-0.668c1.364-0.905-0.145-3.232,1.536-3.568
				c0.618-0.123,1.33,0.721,2.214,0.568C62.445-27.342,61.529-26.998,60.75-25.313z"/>
			<path fill="#1A1718" d="M32.003-44.588c-1.293-0.188-1.338,0.849-1.41,1.534c-0.023,0.225,0.606,0.582,0.556,0.693
				c-0.727,1.551-2.4,0.541-3.648,0.797c0.499,0,1.21,0.164,1.38-0.082c0.948-1.378,2.834-3.571,0.87-5.168
				c0.959,1.234,3.154,0.409,3.75,2.25C32.998-44.563,32.503-44.515,32.003-44.588z"/>
			<path fill="#1A1718" d="M27-36.563c0.517-1.464,1.826-1.347,3-1.5C29.267-37.026,28.102-36.857,27-36.563z"/>
			<path fill="#1A1718" d="M12.894-40.603C12.768-40.55,12.438-41,12.187-41.25c0.801-0.426,1.307-2.111,2.078-1.33
				C15.003-41.834,13.687-40.313,12.894-40.603z"/>
			<path fill="#1A1718" d="M12.75-28.313c0.479-1.06,1.434-0.695,2.25-0.75C14.476-28.129,13.638-28.151,12.75-28.313z"/>
			<path fill="#1A1718" d="M37.848-28.704c-0.463,0.465-0.435,0.609-0.74,0.718c-0.841,0.299-1.534-0.297-2.232-0.702
				c2.57,0.54,3.593-1.544,3-3.75c0.501,0.253,1.332,0.499,1.332,0.75C39.207-30.687,38.442-29.69,37.848-28.704z"/>
			<path fill="#1A1718" d="M50.741-61.03c-0.463,0.463-0.437,0.608-0.741,0.717c-0.841,0.298-1.534-0.297-2.233-0.702
				c2.571,0.539,3.595-1.544,3-3.75c0.501,0.253,1.333,0.499,1.333,0.75C52.1-63.015,51.334-62.018,50.741-61.03z"/>
			<path fill="#1A1718" d="M26.25-27.563c0.151-0.883-0.346-1.551-0.75-2.25c0.727-0.204,1.336,0.196,1.397,0.763
				C26.897-28.5,26.501-28.063,26.25-27.563z"/>
			<path fill="#1A1718" d="M21.937-66c0.152-0.884-0.346-1.551-0.75-2.25c0.729-0.204,1.338,0.195,1.397,0.761
				C22.584-66.938,22.188-66.5,21.937-66z"/>
			<path fill="#1A1718" d="M9-30c0.517-1.465,1.826-1.348,3-1.5C11.267-30.464,10.102-30.294,9-30z"/>
			<path fill="#1A1718" d="M12.75-66.188c-1.791-0.236-0.231-1.589-0.75-2.25C14.191-68.333,11.434-66.584,12.75-66.188z"/>
			<path fill="#1A1718" d="M65.103-45.023c-0.142,0.867-1.781,1.099-1.836,1.554c-0.215,1.854-0.904,2.232-1.767,3.72
				c-0.253-0.252-0.666-0.497-0.667-0.75c-0.005-1.002,1.474-1.57,1.771-2.393c0.883-2.449,0.71-6.232,1.271-7.171
				c0.168,0.085,1.361-1.249,1.75-1.625L65.103-45.023z"/>
			<path fill="#1A1718" d="M24.102-65.111c1.653-1.237,2.264-4.912,4.148-5.702c-1.522,1.153-1.673,4.886-2.883,6.19
				c-2.315,2.494-5.573,3.817-7.288,6.917c-0.621,1.121,0.698,2.71-0.829,3.706c-0.256-2.43-0.23-5.029,1.657-6.556
				C20.86-62.136,22.113-63.623,24.102-65.111z"/>
			<path fill="#1A1718" d="M44.494-66.058c-0.704,0.797-1.04,2.951-1.994,1.994C41.533-65.029,43.619-65.425,44.494-66.058z"/>
			<path fill="#1A1718" d="M47-65.563c-0.437,0.486-1.178-0.079-1.32-0.676c-0.232-0.978-1.202-2.607-0.077-2.982
				c0.86,0.812,1.926,0.797,3,0.75C46.02-68.512,47.717-66.361,47-65.563z"/>
			<path fill="#1A1718" d="M54.468-64.864c0.162,0.302,0.749-0.096,1.032-0.449c-1.064-0.605,0.113-2.169-1.198-2.395
				c-0.481-0.082-1.036,0.484-1.726,0.382C53.146-66.226,53.86-65.994,54.468-64.864z"/>
			<path fill="#1A1718" d="M31.25-54.313c0.517-1.465,1.826-1.347,3-1.5C33.517-54.777,32.352-54.607,31.25-54.313z"/>
			<path fill="#1A1718" d="M61.5-51.563c0.479-1.06,1.434-0.695,2.25-0.75C63.226-51.379,62.388-51.401,61.5-51.563z"/>
			<path fill="#1A1718" d="M66-16.688c-0.816-0.054-2.15,0.286-2.06-0.732c0.086-0.959,0.971-1.983,0.461-2.966
				c-0.215-0.41-0.902-0.55-1.401-0.802c-0.813,2.275-3.319,3.351-3.801,5.991c-0.142,0.768-0.514,2.105-1.28,1.34
				c-0.771-0.771,1.099-0.957,1.121-1.343c0.164-2.917,1.88-4.948,3.78-6.911c0.375-0.387-0.053-1.652,0.947-2.024
				c0.834-0.31,1.722,0.694,2.134,0.495l-0.06,0.33c-0.834,0.458-1.515,1.12-1.844,2.199c-0.171,0.559,1.139,1.27,2.008,1.322
				L66-16.688z"/>
			<path fill="#1A1718" d="M37.25-60.813c0.151-0.883-0.346-1.551-0.75-2.25c0.727-0.204,1.336,0.196,1.397,0.763
				C37.897-61.75,37.501-61.313,37.25-60.813z"/>
			<path fill="#1A1718" d="M34.726-44.406c1.682,0.035,0.115,1.137,0.524,1.593C35.072-43.347,34.902-43.876,34.726-44.406z"/>
			<path fill="#1A1718" d="M60.75-45.563c0.152-0.884-0.346-1.551-0.75-2.25c0.728-0.204,1.337,0.196,1.397,0.761
				C61.397-46.501,61.001-46.063,60.75-45.563z"/>
			<path fill="#1A1718" d="M54.25-59.813c-0.025-0.896,0.563-1.486,1.062-2.12c-0.691-0.306-1.352,0.004-1.49,0.555
				C53.742-60.833,54.072-60.343,54.25-59.813z"/>
			<path fill="#1A1718" d="M19.757-64.394c0.751,1.644-1.223,1.04-1.507,1.83C17.174-64.476,20.121-63.068,19.757-64.394z"/>
			<path fill="#1A1718" d="M46-58.313c-1.593,0.171-0.684-0.906-0.75-1.5C45.502-59.312,45.748-58.813,46-58.313z"/>
			<path fill="#1A1718" d="M36.524-16.965c1.262-0.34,0.894-1.31,0.688-1.969c-0.066-0.217-0.787-0.293-0.783-0.416
				c0.053-1.713,1.989-1.446,3.035-2.176c-0.459,0.198-1.177,0.329-1.236,0.622c-0.324,1.641-1.189,4.399,1.246,5.09
				c-1.369-0.755-3.059,0.873-4.334-0.583C35.602-16.596,36.037-16.835,36.524-16.965z"/>
			<path fill="#1A1718" d="M21.75-42.813c-1.593,0.171-0.684-0.906-0.75-1.5C21.252-43.812,21.498-43.313,21.75-42.813z"/>
			<path fill="#1A1718" d="M24-48.313c0.479-1.06,1.434-0.695,2.25-0.75C25.726-48.129,24.888-48.151,24-48.313z"/>
			<path fill="#1A1718" d="M45.5-36.813c-1.593,0.171-0.684-0.906-0.75-1.5C45.002-37.812,45.248-37.313,45.5-36.813z"/>
			<path fill="#1A1718" d="M40.982-22.312c0.121-0.594-0.277-1.043-0.601-1.514c0.582-0.138,1.07,0.132,1.118,0.512
				C41.5-22.942,41.183-22.647,40.982-22.312z"/>
			<path fill="#1A1718" d="M35.566-22.057c-0.454,4.307-0.565-0.007-0.816-0.007c0.714-0.283,1.751-0.248,1.5-1.5
				C35.997-23.062,35.621-22.583,35.566-22.057z"/>
			<path fill="#1A1718" d="M20.086-28.063c2.506-0.762,0.264-1.373,3.158-1.952c1.207,0.639,1.159,2.27,0.955,3.651
				c-0.049,0.318-0.651,1.268-0.755,1.757c-0.145-0.542-0.28-1.074-0.426-1.622c-0.145-0.551-0.071-1.836-0.235-1.904
				C21.49-28.662,20.086-28.063,20.086-28.063z"/>
			<path fill="#1A1718" d="M20.845-21.583c0.346,1.269,1.407,0.795,1.963,0.471c0.458-0.267,0.591-1.27-0.058-1.451
				c-0.691-0.19-1.486,0.831-2.38-1.342C20.52-23.125,20.63-22.364,20.845-21.583z"/>
		</g>
		<g>
			<path fill="#1A1718" d="M5.25-62.25c0.204,0.728-0.185,1.317-0.765,1.404c-0.861,0.129-1.988,0.417-2.011,0.856
				C2.399-58.413,1.282-57.43,0-57c1.203-2.297,2.925-3.813,5.167-5.369c0.247-0.171-0.052-0.941,0.149-1.348
				c0.656-1.325,2.653,0.124,2.843-2.29C8.177-66.239,7.751-66.5,7.5-66.75c2.107,0.601,1.857-2.129,3.75-2.25c0,0.5,0,1,0,1.5
				c-0.885-0.152-1.527,0.373-2.259,0.733C6.679-65.626,9.084-62.717,5.25-62.25z"/>
			<path fill="#1A1718" d="M11.103-45.023c-0.142,0.867-1.781,1.099-1.836,1.554c-0.215,1.854-0.904,2.232-1.767,3.72
				c-0.253-0.252-0.666-0.497-0.667-0.75c-0.005-1.002,1.474-1.57,1.771-2.393c0.883-2.449,0.71-6.232,1.271-7.171
				c0.168,0.085,1.361-1.249,1.75-1.625L11.103-45.023z"/>
			<path fill="#1A1718" d="M12-16.688c-0.816-0.054-2.15,0.286-2.06-0.732c0.086-0.959,0.971-1.983,0.461-2.966
				c-0.215-0.41-0.902-0.55-1.401-0.802c-0.813,2.275-3.319,3.351-3.801,5.991c-0.142,0.768-0.514,2.105-1.28,1.34
				C3.148-14.629,5.018-14.814,5.04-15.2c0.164-2.917,1.88-4.948,3.78-6.911c0.375-0.387-0.053-1.652,0.947-2.024
				c0.834-0.31,1.722,0.694,2.134,0.495l-0.06,0.33c-0.834,0.458-1.515,1.12-1.844,2.199c-0.171,0.559,1.139,1.27,2.008,1.322
				L12-16.688z"/>
		</g>
	</g>
</pattern>
<g>
	<polyline fill-rule="evenodd" clip-rule="evenodd" fill="#474747" points="212.219,70.104 212.219,42.849 215.135,42.849 
		215.135,69.785 	"/>
	<g>
		<polygon fill="#006E7D" stroke="#292A2A" stroke-width="0.2779" stroke-miterlimit="10" points="223.768,130.055 298.613,130.055 
			298.613,51.094 298.613,13.846 223.768,10.507 		"/>
		<polyline fill="#005F66" stroke="#292A2A" stroke-width="0.2779" stroke-miterlimit="10" points="201.493,130.055 249.91,130.055 
			249.91,54.876 201.493,53.764 		"/>
		<polyline opacity="0.4" fill="#D1E2E8" stroke="#3D3A2A" stroke-width="1.0093" stroke-miterlimit="10" points="223.779,48.194 
			223.779,38.162 298.613,38.162 298.613,51.094 		"/>
		<polyline opacity="0.4" fill="#D1E2E8" stroke="#3D3A2A" stroke-width="1.0093" stroke-miterlimit="10" points="249.91,105.971 
			249.91,95.938 298.613,95.938 298.613,108.87 		"/>
		<polyline opacity="0.4" fill="#D1E2E8" stroke="#3D3A2A" stroke-width="1.0093" stroke-miterlimit="10" points="298.613,75.755 
			298.613,65.721 249.91,65.721 249.91,78.654 		"/>
		
			<line fill="none" stroke="#373838" stroke-width="2.7789" stroke-miterlimit="10" x1="198.159" y1="54.8" x2="249.91" y2="56.878"/>
		
			<line fill="none" stroke="#373838" stroke-width="2.7789" stroke-miterlimit="10" x1="220.348" y1="11.419" x2="298.613" y2="15.848"/>
		<g>
			<g>
				<g>
					<defs>
						<path id="SVGID_1_" d="M60.433,63.781c-10.831,5.102-21.957,10.203-33.379,15.305c-3.813,3.001-7.68,6.001-11.602,9.002
							c-4.552,14.019-9.256,28.038-14.112,42.057c76.625-0.03,153.238-0.062,229.838-0.092
							c-6.299-15.517-12.339-31.034-18.121-46.551c-12.699-7.482-24.936-14.965-36.709-22.447
							c-19.583-2.782-38.862-5.564-57.837-8.347C99.554,56.399,80.195,60.09,60.433,63.781z"/>
					</defs>
					<clipPath id="SVGID_2_">
						<use xlink:href="#SVGID_1_"  overflow="visible"/>
					</clipPath>
				</g>
				<g>
					<defs>
						<path id="SVGID_3_" d="M60.433,63.781c-10.831,5.102-21.957,10.203-33.379,15.305c-3.813,3.001-7.68,6.001-11.602,9.002
							c-4.552,14.019-9.256,28.038-14.112,42.057c76.625-0.03,153.238-0.062,229.838-0.092
							c-6.299-15.517-12.339-31.034-18.121-46.551c-12.699-7.482-24.936-14.965-36.709-22.447
							c-19.583-2.782-38.862-5.564-57.837-8.347C99.554,56.399,80.195,60.09,60.433,63.781z"/>
					</defs>
					<use xlink:href="#SVGID_3_"  overflow="visible" fill-rule="evenodd" clip-rule="evenodd" fill="#0E5055"/>
					<clipPath id="SVGID_4_">
						<use xlink:href="#SVGID_3_"  overflow="visible"/>
					</clipPath>
					
						<path clip-path="url(#SVGID_4_)" fill-rule="evenodd" clip-rule="evenodd" fill="#0E5055" stroke="#616062" stroke-miterlimit="10" d="
						M16.198,52.708c2.901,0,5.802,0,8.703,0c-4.522,25.813-9.045,51.624-13.567,77.437c-3.332,0-6.663,0-9.995,0
						C6.292,104.332,11.246,78.521,16.198,52.708z"/>
					<pattern  id="SVGID_5_" xlink:href="#USGS_21_Intricate_Surface" patternTransform="matrix(1 0 0 1 191 -359.5957)">
					</pattern>
					
						<path clip-path="url(#SVGID_4_)" fill-rule="evenodd" clip-rule="evenodd" fill="#0E5055" stroke="url(#SVGID_5_)" stroke-miterlimit="10" d="
						M24.901,52.708c2.901,0,5.802,0,8.703,0c-4.092,25.813-8.184,51.624-12.275,77.437c-3.332,0-6.663,0-9.995,0
						C15.856,104.332,20.379,78.521,24.901,52.708z"/>
					<pattern  id="SVGID_6_" xlink:href="#USGS_21_Intricate_Surface" patternTransform="matrix(1 0 0 1 191 -359.5957)">
					</pattern>
					
						<path clip-path="url(#SVGID_4_)" fill-rule="evenodd" clip-rule="evenodd" fill="#0E5055" stroke="url(#SVGID_6_)" stroke-miterlimit="10" d="
						M33.604,52.708c2.9,0,5.801,0,8.702,0c-3.661,25.813-7.322,51.624-10.983,77.437c-3.331,0-6.662,0-9.994,0
						C25.42,104.332,29.512,78.521,33.604,52.708z"/>
					<pattern  id="SVGID_7_" xlink:href="#USGS_21_Intricate_Surface" patternTransform="matrix(1 0 0 1 191 -359.5957)">
					</pattern>
					
						<path clip-path="url(#SVGID_4_)" fill-rule="evenodd" clip-rule="evenodd" fill="#0E5055" stroke="url(#SVGID_7_)" stroke-miterlimit="10" d="
						M42.306,52.708c2.9,0,5.801,0,8.702,0c-3.23,25.813-6.461,51.624-9.691,77.437c-3.331,0-6.662,0-9.994,0
						C34.983,104.332,38.645,78.521,42.306,52.708z"/>
					<pattern  id="SVGID_8_" xlink:href="#USGS_21_Intricate_Surface" patternTransform="matrix(1 0 0 1 191 -359.5957)">
					</pattern>
					
						<path clip-path="url(#SVGID_4_)" fill-rule="evenodd" clip-rule="evenodd" fill="#0E5055" stroke="url(#SVGID_8_)" stroke-miterlimit="10" d="
						M51.007,52.708c2.9,0,5.801,0,8.702,0c-2.8,25.813-5.6,51.624-8.399,77.437c-3.331,0-6.662,0-9.994,0
						C44.546,104.332,47.777,78.521,51.007,52.708z"/>
					<pattern  id="SVGID_9_" xlink:href="#USGS_21_Intricate_Surface" patternTransform="matrix(1 0 0 1 191 -359.5957)">
					</pattern>
					
						<path clip-path="url(#SVGID_4_)" fill-rule="evenodd" clip-rule="evenodd" fill="#0E5055" stroke="url(#SVGID_9_)" stroke-miterlimit="10" d="
						M59.709,52.708c2.901,0,5.801,0,8.702,0c-2.369,25.813-4.738,51.624-7.107,77.437c-3.331,0-6.662,0-9.994,0
						C54.109,104.332,56.909,78.521,59.709,52.708z"/>
					<pattern  id="SVGID_10_" xlink:href="#USGS_21_Intricate_Surface" patternTransform="matrix(1 0 0 1 191 -359.5957)">
					</pattern>
					
						<path clip-path="url(#SVGID_4_)" fill-rule="evenodd" clip-rule="evenodd" fill="#0E5055" stroke="url(#SVGID_10_)" stroke-miterlimit="10" d="
						M68.411,52.708c2.901,0,5.802,0,8.703,0c-1.938,25.813-3.877,51.624-5.816,77.437c-3.332,0-6.663,0-9.995,0
						C63.672,104.332,66.042,78.521,68.411,52.708z"/>
					<pattern  id="SVGID_11_" xlink:href="#USGS_21_Intricate_Surface" patternTransform="matrix(1 0 0 1 191 -359.5957)">
					</pattern>
					
						<path clip-path="url(#SVGID_4_)" fill-rule="evenodd" clip-rule="evenodd" fill="#0E5055" stroke="url(#SVGID_11_)" stroke-miterlimit="10" d="
						M77.114,52.708c2.9,0,5.8,0,8.701,0c-1.508,25.813-3.016,51.624-4.524,77.437c-3.331,0-6.662,0-9.993,0
						C73.236,104.332,75.175,78.521,77.114,52.708z"/>
					<pattern  id="SVGID_12_" xlink:href="#USGS_21_Intricate_Surface" patternTransform="matrix(1 0 0 1 191 -359.5957)">
					</pattern>
					
						<path clip-path="url(#SVGID_4_)" fill-rule="evenodd" clip-rule="evenodd" fill="#0E5055" stroke="url(#SVGID_12_)" stroke-miterlimit="10" d="
						M85.814,52.708c2.901,0,5.802,0,8.703,0c-1.077,25.813-2.154,51.624-3.232,77.437c-3.332,0-6.663,0-9.995,0
						C82.799,104.332,84.307,78.521,85.814,52.708z"/>
					<pattern  id="SVGID_13_" xlink:href="#USGS_21_Intricate_Surface" patternTransform="matrix(1 0 0 1 191 -359.5957)">
					</pattern>
					
						<path clip-path="url(#SVGID_4_)" fill-rule="evenodd" clip-rule="evenodd" fill="#0E5055" stroke="url(#SVGID_13_)" stroke-miterlimit="10" d="
						M94.517,52.708c2.901,0,5.802,0,8.703,0c-0.646,25.813-1.293,51.624-1.939,77.437c-3.332,0-6.663,0-9.995,0
						C92.363,104.332,93.44,78.521,94.517,52.708z"/>
					<pattern  id="SVGID_14_" xlink:href="#USGS_21_Intricate_Surface" patternTransform="matrix(1 0 0 1 191 -359.5957)">
					</pattern>
					
						<path clip-path="url(#SVGID_4_)" fill-rule="evenodd" clip-rule="evenodd" fill="#0E5055" stroke="url(#SVGID_14_)" stroke-miterlimit="10" d="
						M103.22,52.708c2.9,0,5.801,0,8.702,0c-0.216,25.813-0.432,51.624-0.647,77.437c-3.332,0-6.663,0-9.994,0
						C101.927,104.332,102.573,78.521,103.22,52.708z"/>
					<pattern  id="SVGID_15_" xlink:href="#USGS_21_Intricate_Surface" patternTransform="matrix(1 0 0 1 191 -359.5957)">
					</pattern>
					
						<path clip-path="url(#SVGID_4_)" fill-rule="evenodd" clip-rule="evenodd" fill="#0E5055" stroke="url(#SVGID_15_)" stroke-miterlimit="10" d="
						M111.921,52.708c2.901,0,5.801,0,8.702,0c0.214,25.813,0.429,51.624,0.644,77.437c-3.332,0-6.663,0-9.994,0
						C111.49,104.332,111.706,78.521,111.921,52.708z"/>
					<pattern  id="SVGID_16_" xlink:href="#USGS_21_Intricate_Surface" patternTransform="matrix(1 0 0 1 191 -359.5957)">
					</pattern>
					
						<path clip-path="url(#SVGID_4_)" fill-rule="evenodd" clip-rule="evenodd" fill="#0E5055" stroke="url(#SVGID_16_)" stroke-miterlimit="10" d="
						M120.624,52.708c2.9,0,5.801,0,8.702,0c0.645,25.813,1.291,51.624,1.936,77.437c-3.332,0-6.663,0-9.994,0
						C121.053,104.332,120.838,78.521,120.624,52.708z"/>
					<pattern  id="SVGID_17_" xlink:href="#USGS_21_Intricate_Surface" patternTransform="matrix(1 0 0 1 191 -359.5957)">
					</pattern>
					
						<path clip-path="url(#SVGID_4_)" fill-rule="evenodd" clip-rule="evenodd" fill="#0E5055" stroke="url(#SVGID_17_)" stroke-miterlimit="10" d="
						M129.325,52.708c2.9,0,5.801,0,8.702,0c1.076,25.813,2.152,51.624,3.228,77.437c-3.332,0-6.663,0-9.994,0
						C130.616,104.332,129.97,78.521,129.325,52.708z"/>
					<pattern  id="SVGID_18_" xlink:href="#USGS_21_Intricate_Surface" patternTransform="matrix(1 0 0 1 191 -359.5957)">
					</pattern>
					
						<path clip-path="url(#SVGID_4_)" fill-rule="evenodd" clip-rule="evenodd" fill="#0E5055" stroke="url(#SVGID_18_)" stroke-miterlimit="10" d="
						M138.027,52.708c2.901,0,5.802,0,8.703,0c1.507,25.813,3.013,51.624,4.52,77.437c-3.331,0-6.663,0-9.994,0
						C140.179,104.332,139.103,78.521,138.027,52.708z"/>
					<pattern  id="SVGID_19_" xlink:href="#USGS_21_Intricate_Surface" patternTransform="matrix(1 0 0 1 191 -359.5957)">
					</pattern>
					
						<path clip-path="url(#SVGID_4_)" fill-rule="evenodd" clip-rule="evenodd" fill="#0E5055" stroke="url(#SVGID_19_)" stroke-miterlimit="10" d="
						M146.729,52.708c2.9,0,5.801,0,8.701,0c1.937,25.813,3.874,51.624,5.812,77.437c-3.331,0-6.662,0-9.993,0
						C149.743,104.332,148.236,78.521,146.729,52.708z"/>
					<pattern  id="SVGID_20_" xlink:href="#USGS_21_Intricate_Surface" patternTransform="matrix(1 0 0 1 191 -359.5957)">
					</pattern>
					
						<path clip-path="url(#SVGID_4_)" fill-rule="evenodd" clip-rule="evenodd" fill="#0E5055" stroke="url(#SVGID_20_)" stroke-miterlimit="10" d="
						M155.431,52.708c2.9,0,5.802,0,8.702,0c2.368,25.813,4.736,51.624,7.104,77.437c-3.331,0-6.663,0-9.994,0
						C159.305,104.332,157.367,78.521,155.431,52.708z"/>
					<pattern  id="SVGID_21_" xlink:href="#USGS_21_Intricate_Surface" patternTransform="matrix(1 0 0 1 191 -359.5957)">
					</pattern>
					
						<path clip-path="url(#SVGID_4_)" fill-rule="evenodd" clip-rule="evenodd" fill="#0E5055" stroke="url(#SVGID_21_)" stroke-miterlimit="10" d="
						M164.133,52.708c2.901,0,5.802,0,8.703,0c2.799,25.813,5.597,51.624,8.396,77.437c-3.332,0-6.663,0-9.995,0
						C168.869,104.332,166.501,78.521,164.133,52.708z"/>
					<pattern  id="SVGID_22_" xlink:href="#USGS_21_Intricate_Surface" patternTransform="matrix(1 0 0 1 191 -359.5957)">
					</pattern>
					
						<path clip-path="url(#SVGID_4_)" fill-rule="evenodd" clip-rule="evenodd" fill="#0E5055" stroke="url(#SVGID_22_)" stroke-miterlimit="10" d="
						M172.836,52.708c2.9,0,5.801,0,8.701,0c3.229,25.813,6.459,51.624,9.688,77.437c-3.331,0-6.662,0-9.993,0
						C178.433,104.332,175.635,78.521,172.836,52.708z"/>
					<pattern  id="SVGID_23_" xlink:href="#USGS_21_Intricate_Surface" patternTransform="matrix(1 0 0 1 191 -359.5957)">
					</pattern>
					
						<path clip-path="url(#SVGID_4_)" fill-rule="evenodd" clip-rule="evenodd" fill="#0E5055" stroke="url(#SVGID_23_)" stroke-miterlimit="10" d="
						M181.537,52.708c2.901,0,5.802,0,8.702,0c3.66,25.813,7.319,51.624,10.979,77.437c-3.331,0-6.662,0-9.994,0
						C187.996,104.332,184.767,78.521,181.537,52.708z"/>
					<pattern  id="SVGID_24_" xlink:href="#USGS_21_Intricate_Surface" patternTransform="matrix(1 0 0 1 191 -359.5957)">
					</pattern>
					
						<path clip-path="url(#SVGID_4_)" fill-rule="evenodd" clip-rule="evenodd" fill="#0E5055" stroke="url(#SVGID_24_)" stroke-miterlimit="10" d="
						M190.239,52.708c2.9,0,5.801,0,8.702,0c4.09,25.813,8.181,51.624,12.271,77.437c-3.331,0-6.662,0-9.993,0
						C197.559,104.332,193.899,78.521,190.239,52.708z"/>
					<pattern  id="SVGID_25_" xlink:href="#USGS_21_Intricate_Surface" patternTransform="matrix(1 0 0 1 191 -359.5957)">
					</pattern>
					
						<path clip-path="url(#SVGID_4_)" fill-rule="evenodd" clip-rule="evenodd" fill="#0E5055" stroke="url(#SVGID_25_)" stroke-miterlimit="10" d="
						M198.941,52.708c2.9,0,5.801,0,8.701,0c4.521,25.813,9.042,51.624,13.563,77.437c-3.331,0-6.662,0-9.994,0
						C207.122,104.332,203.031,78.521,198.941,52.708z"/>
					<pattern  id="SVGID_26_" xlink:href="#USGS_21_Intricate_Surface" patternTransform="matrix(1 0 0 1 191 -359.5957)">
					</pattern>
					
						<path clip-path="url(#SVGID_4_)" fill-rule="evenodd" clip-rule="evenodd" fill="#0E5055" stroke="url(#SVGID_26_)" stroke-miterlimit="10" d="
						M207.643,52.708c2.901,0,5.802,0,8.703,0c4.951,25.813,9.903,51.624,14.855,77.437c-3.332,0-6.664,0-9.995,0
						C216.685,104.332,212.164,78.521,207.643,52.708z"/>
					<pattern  id="SVGID_27_" xlink:href="#USGS_21_Intricate_Surface" patternTransform="matrix(1 0 0 1 191 -359.5957)">
					</pattern>
					
						<use xlink:href="#SVGID_3_"  overflow="visible" fill-rule="evenodd" clip-rule="evenodd" fill="none" stroke="url(#SVGID_27_)" stroke-miterlimit="10"/>
				</g>
				<g>
					<defs>
						<path id="SVGID_28_" d="M60.433,63.781c-10.831,5.102-21.957,10.203-33.379,15.305c-3.813,3.001-7.68,6.001-11.602,9.002
							c-4.552,14.019-9.256,28.038-14.112,42.057c76.625-0.03,153.238-0.062,229.838-0.092
							c-6.299-15.517-12.339-31.034-18.121-46.551c-12.699-7.482-24.936-14.965-36.709-22.447
							c-19.583-2.782-38.862-5.564-57.837-8.347C99.554,56.399,80.195,60.09,60.433,63.781z"/>
					</defs>
					<clipPath id="SVGID_29_">
						<use xlink:href="#SVGID_28_"  overflow="visible"/>
					</clipPath>
				</g>
			</g>
			<polyline fill-rule="evenodd" clip-rule="evenodd" fill="#474747" points="66.991,56.105 66.991,28.851 72.82,28.851 
				72.82,55.787 			"/>
			<polyline fill-rule="evenodd" clip-rule="evenodd" fill="#4F4F4F" points="190.295,64.124 205.408,71.949 210.296,84.18 
				182.072,65.003 			"/>
			<path fill-rule="evenodd" clip-rule="evenodd" fill="#333334" d="M50.16,130.69c0.555-5.753,2.135-20.907,2.718-26.655
				c0.671-6.625,1.419-13.241,2.098-19.863c0.537-5.245,1.104-10.486,1.655-15.729c0.18-1.709,0.143-1.712-1.563-1.542
				c-0.232,0.022-0.461,0.009-0.682-0.077c-0.445-0.706,0.238-0.846,0.592-1.016c0.895-0.424,1.781-0.891,2.754-1.134
				c0.747-0.058,1.506-0.203,2.169,0.315c0.359,0.553,0.235,1.15,0.177,1.75c-0.414,4.223-0.846,8.445-1.303,12.662
				c-0.723,6.652-1.352,13.315-2.041,19.971c-0.707,6.812-1.406,13.623-2.078,20.438c-0.299,3.039-0.656,6.072-0.936,9.113
				c-0.057,0.627-0.096,1.312-0.67,1.767"/>
			<path fill-rule="evenodd" clip-rule="evenodd" fill="#3B3B3B" d="M122.602,45.828c0.451,0.479,1.16,0.24,1.656,0.594
				c3.814,0.84,7.482,2.168,11.201,3.334c4.252,1.355,8.482,2.789,12.765,4.053c1.366,0.402,2.819,0.341,4.229,0.512
				c1.191-0.028,2.34,0.436,3.539,0.295c2.102,0.261,4.202,0.526,6.318,0.641c3.145,0.434,6.322,0.545,9.464,1.001
				c0.64,0.032,1.284-0.028,1.901,0.253c0.783,0.355,1.117,0.809,0.5,1.584c-0.268,0.225-0.59,0.29-0.924,0.326
				c-0.24,0.043-0.486,0.021-0.727,0.041c-2.394-0.133-4.764-0.521-7.156-0.693c-1.561-0.111-3.108-0.385-4.676-0.43
				c-1.096-0.082-2.172-0.376-3.283-0.309c-2.326-0.387-4.685-0.576-7.026-0.707c-2.8-0.158-5.311-1.24-7.886-2.07
				c-6.514-2.098-13.037-4.174-19.521-6.367c-0.436-0.146-0.893-0.26-1.249-0.579c-0.378-0.597-0.124-1.058,0.317-1.478
				C122.229,45.828,122.416,45.828,122.602,45.828z"/>
			<path fill-rule="evenodd" clip-rule="evenodd" fill="#B3B3B2" d="M122.045,45.828c0.164,0.502-0.445,0.857-0.256,1.361
				c0.611,1.484-0.043,2.963-0.016,4.445c-0.584,1.59-1.014,1.783-2.922,1.317c-0.619-0.878-0.078-1.767-0.012-2.651
				c0.047-0.6,0.193-1.188,0.31-1.773c0.019-0.623,0.231-1.244,0.083-1.869c-0.124-0.519-0.25,0.121-0.39,0.025
				c-5.795,1.118-11.601,2.155-17.429,3.066c-0.574,0.09-1.209,0.205-1.641-0.396c3.903-0.718,7.809-1.42,11.709-2.158
				c2.32-0.439,4.684-0.65,6.949-1.367C119.637,45.828,120.84,45.828,122.045,45.828z"/>
			<path fill-rule="evenodd" clip-rule="evenodd" fill="#666667" d="M155.963,54.947c-1.241,0.234-2.426-0.333-3.656-0.254
				c-1.637-0.621-3.344-1.078-4.814-2.082c-0.315-0.213-0.674-0.277-1.043-0.336c-3.73-0.603-7.452-1.244-11.092-2.277
				c-2.855-0.885-5.719-1.751-8.564-2.67c-0.854-0.273-1.771-0.379-2.535-0.906c2.551,0.177,5.02,0.831,7.522,1.281
				c4.427,0.798,8.862,1.547,13.286,2.354c3.176,0.578,6.335,1.237,9.508,1.818c4.872,0.894,9.753,1.731,14.621,2.642
				c1.05,0.195,2.145,0.266,3.125,0.771c0.229,0.566-0.117,0.929-0.461,1.293c-3.172-0.313-6.344-0.626-9.517-0.938
				c-2.206-0.591-4.483-0.837-6.69-1.437c-0.955-0.258-1.862-0.713-2.728-0.834C153.908,53.797,155.217,53.777,155.963,54.947z"/>
			<path fill-rule="evenodd" clip-rule="evenodd" fill="#6B6B6B" d="M174.539,55.527c1.201-0.37,1.839,0.698,2.662,1.149
				c4.4,2.417,8.732,4.958,13.094,7.447c0.156,0.089,0.346,0.114,0.334,0.352c0.501,1.171,1.335,2.058,2.362,2.78
				c0.871,0.609,1.797,1.139,2.628,1.807c0.197,0.158,0.487,0.354,0.262,0.678c-0.147,0.21-0.407,0.199-0.637,0.16
				c-0.416-0.072-0.785-0.275-1.153-0.465c-0.464-0.24-0.774-0.034-1.099,0.281c-0.467,0.457,0.068,0.641,0.238,0.897
				c0.431,0.657,1.015,1.202,1.443,1.861c0.235,0.362,0.697,0.665,0.437,1.214c-0.638,0.258-1.052-0.206-1.497-0.496
				c-1.779-1.154-3.466-2.45-5.256-3.596c-0.529-0.338-1-0.721-0.943-1.443c-0.844,0.611-1.297-0.238-1.867-0.538
				c-0.648-0.345-1.262-0.772-1.834-1.237c-0.573-0.465-1.25-0.792-1.76-1.342c-0.276-0.461-0.17-1.031-0.429-1.5
				c-1.22-1.576-2.905-2.65-4.318-4.014c-0.618-0.597-1.615-0.959-1.511-2.091c0.574-0.255,0.967,0.143,1.373,0.41
				c1.918,1.263,3.875,2.46,5.875,3.586c1.488,0.847,2.969,1.704,4.455,2.551c0.895,0.509,1.441,1.39,1.977,1.873
				c-0.813-1.924-2.707-3.038-4.697-4.058c-1.479-0.757-2.813-1.787-4.393-2.361c-1.744-1.021-3.416-2.166-5.182-3.157
				C174.817,56.117,174.6,55.875,174.539,55.527z"/>
			<path fill-rule="evenodd" clip-rule="evenodd" fill="#252524" d="M220.348,88.598c-4.666-4.635-9.266-9.334-13.975-13.924
				c-0.621-0.553-1.541-0.859-1.563-1.905c0.01-0.386,0.202-0.583,0.591-0.581c1.874,0.982,3.216,2.581,4.69,4.033"/>
			<path fill-rule="evenodd" clip-rule="evenodd" fill="#ADADAD" d="M204.811,72.769c0.465,0.664,1.052,1.207,1.689,1.7
				c2.291,2.473,4.586,4.941,6.75,7.526c0.561,0.669,1.604,1.171,1.194,2.36c-0.616,0.254-1.245,0.211-1.876,0.078
				c-1.406-0.781-2.127-2.225-3.191-3.336c-0.852-0.889-1.559-1.908-2.393-2.818c-0.264-0.309-0.471-0.642-0.432-1.071
				c-0.27-0.618-1.297-1.046-0.395-1.954c0.333-0.334-0.162-0.518-0.402-0.684c-0.742-0.51-1.463-1.062-2.247-1.501
				c-0.71-0.399-0.468-0.728-0.05-1.12C203.994,72.08,204.17,72.809,204.811,72.769z"/>
			<path fill-rule="evenodd" clip-rule="evenodd" fill="#B6B6B6" d="M175.664,57.518c1.414,1.742,3.295,2.969,4.926,4.473
				c0.43,0.396,0.79,0.871,1.184,1.311c-0.482,0.525-1.102,0.388-1.699,0.354c-1.043-0.244-1.656-1.119-2.439-1.729
				c-1.154-0.897-2.075-2.068-3.257-2.95c-0.281-0.209-0.558-0.504-0.389-0.938c0.651-0.843,0.239-1.241-0.616-1.38
				c-0.496-0.082-1.008-0.055-1.514-0.076c0.154-0.432,0.307-0.863,0.461-1.293c0.568,0.367,1.137,0.733,1.705,1.1
				C174.858,56.346,175.217,56.996,175.664,57.518z"/>
			<path fill-rule="evenodd" clip-rule="evenodd" fill="#272727" d="M175.664,57.518c-0.688-0.172-1.015-0.867-1.639-1.131
				c0.172-0.287,0.342-0.572,0.514-0.859c1.955,1.215,3.908,2.43,5.861,3.643c0.807,0.525,1.674,0.957,2.42,1.574
				c0.363,0.297,0.654,0.575,0.084,0.941c-2.264-1.119-4.356-2.528-6.498-3.854C176.168,57.684,175.959,57.512,175.664,57.518z"/>
			<path fill-rule="evenodd" clip-rule="evenodd" fill="#747474" d="M99.773,49.354c2.941,0.063,5.755-0.795,8.629-1.213
				c3.606-0.523,7.193-1.189,10.789-1.795c0.49,0.907-0.244,1.168-0.814,1.311c-2.891,0.719-5.771,1.47-8.672,2.158
				c-4.977,1.182-9.947,2.392-14.926,3.57c-0.617,0.146-1.241,0.414-1.881,0.063c-0.192-0.508-0.309-0.902-1.113-0.731
				c-2.646,0.556-5.34,0.88-7.984,1.468c-1.105,0.19-2.241,0.008-3.337,0.305c-2.675-0.025-5.333,0.313-8.001,0.376
				c-0.633,0.015-1.308,0.091-1.83-0.423c3.387-0.627,6.768-1.289,10.16-1.877C87.117,51.473,93.446,50.422,99.773,49.354z"/>
			<path fill-rule="evenodd" clip-rule="evenodd" fill="#1A1A1A" d="M33.971,75.607c-2.272,0.939-4.424,2.122-6.578,3.297
				c-0.765,0.416-1.496,0.889-2.348,1.116c-0.225-0.198-0.752-0.243-0.039-0.645c3.717-2.099,7.396-4.259,11.078-6.421
				c5.16-3.03,10.307-6.082,15.461-9.123c4.526-2.672,9.076-5.307,13.564-8.043c0.877-0.535,1.475-1.174,1.882,0.316
				c-0.489,1.088-1.593,1.479-2.454,2.137c-0.697,0.533-1.496,0.912-2.217,1.416c-4.588,2.596-9.117,5.291-13.641,7.992
				c-4.446,2.656-8.969,5.173-13.551,7.583C34.772,75.42,34.428,75.701,33.971,75.607z"/>
			<path fill-rule="evenodd" clip-rule="evenodd" fill="#6A6A6A" d="M68.672,56.1c0.109,0.006,0.217,0.01,0.325,0.016
				c0.069,0.021,0.138,0.043,0.208,0.063c0.914,0.671,0.952,1.756,1.176,2.704c0.31,1.309,1.137,2.529,0.769,3.969
				c-0.872,0.666-1.953,0.616-2.946,0.869c-1.287,0.275-2.586,0.499-3.863,0.814c-1.35,0.218-2.654,0.725-4.05,0.663
				c-0.759-0.726,0.095-1.055,0.42-1.399c1.415-1.498,2.897-2.932,4.354-4.389c0.388-0.391,0.79-0.766,1.101-1.225
				C66.797,57.246,67.754,56.697,68.672,56.1z"/>
			<path fill-rule="evenodd" clip-rule="evenodd" fill="#B5B6B6" d="M68.672,56.1c-0.527,0.91-1.686,1.156-2.201,2.081
				c-1.588,1.651-3.432,3.003-5.208,4.435c-1.021,0.823-2.11,1.017-3.331,0.574c-0.377-0.678,0.252-0.889,0.596-1.173
				c1.18-0.97,2.506-1.731,3.756-2.603c1.568-1.104,3.139-2.206,4.708-3.309C67.553,56.104,68.112,56.103,68.672,56.1z"/>
			<path fill-rule="evenodd" clip-rule="evenodd" fill="#1C1C1C" d="M70.633,54.441c3.348,0.195,6.67-0.48,10.018-0.32
				c-0.222,0.996-1.125,0.793-1.76,0.902c-2.032,0.353-4.061,0.709-6.086,1.1c-1.277,0.001-2.563,0.778-3.833-0.033l0.025,0.025
				C68.691,54.727,69.414,54.342,70.633,54.441z"/>
			<path fill-rule="evenodd" clip-rule="evenodd" fill="#949394" d="M62.283,59.414c-1.285,1.434-3.087,2.233-4.424,3.602
				c-0.053,0.67,0.492,1.438-0.325,1.98c-1.011,0.73-2.354,0.807-3.294,1.675c-1.219,0.521-2.455,1.009-3.654,1.571
				c-5.33,2.506-10.65,5.035-15.989,7.522c-0.048,0.022-0.722,0.956-0.626-0.157c7.431-4.099,14.781-8.333,22.057-12.701
				C58.068,61.682,60.006,60.231,62.283,59.414z"/>
			<path fill-rule="evenodd" clip-rule="evenodd" fill="#141414" d="M57.534,64.996c0.507-0.594-0.439-1.428,0.325-1.98
				c2.326,0.639,3.623-1.115,5.184-2.24c1.16-0.84,2.286-1.729,3.428-2.595c-0.807,1.431-2.178,2.345-3.254,3.529
				c-1.016,1.12-2.084,2.194-3.129,3.289c-0.099,0.004-0.199,0.007-0.299,0.01C59.037,65.006,58.285,65,57.534,64.996z"/>
			<path fill-rule="evenodd" clip-rule="evenodd" fill="#292A2A" d="M219.879,89.342c-1.533-0.998-3.03-2.053-4.806-3.262
				c0.546,2.936,1.018,5.576,1.532,8.205c1.538,7.871,3.082,15.741,4.656,23.605c0.328,1.646,0.471,3.34,1.107,4.916
				c-0.043,1.066,0.109,2.1,0.531,3.084c0.709,1.302,0.936,2.701,0.867,4.164c-0.904,0.512-1.881,0.16-2.82,0.232
				c-0.604-0.596-0.633-1.408-0.779-2.164c-0.372-1.936-0.859-3.854-0.975-5.832c-1.135-6.584-2.516-13.121-3.731-19.689
				c-0.142-0.766-0.163-1.563-0.562-2.268c-0.867-3.633-1.26-7.354-2.035-11.006c-0.105-0.503-0.229-0.982-0.475-1.43
				c-0.527-1.637-0.467-1.869,1.083-2.412c0.692-0.244,0.71-0.898,1.11-1.297c-2.275-3.017-4.902-5.733-7.334-8.614
				c-0.291-0.345-0.729-0.583-0.75-1.106c0.49,0.114,0.734,0.54,1.055,0.859c4.485,4.475,8.962,8.957,13.439,13.438"/>
			<path fill-rule="evenodd" clip-rule="evenodd" fill="#888889" d="M121.795,55.233c-0.551-0.454-0.649-1.087-0.422-1.672
				c0.26-0.67,0.237-1.305,0.121-1.97c-0.206-1.488,0.107-2.939,0.295-4.402c6.771,2.192,13.561,4.328,20.309,6.594
				c4.484,1.504,9.027,2.572,13.773,2.6c0.533,0.002,0.963,0.277,1.458,0.346c2.438,0.494,4.502,1.889,6.765,2.806
				c1.908,0.772,3.716,1.79,5.729,2.344c-1.408-0.903-2.92-1.612-4.445-2.278c-1.271-0.555-2.492-1.215-3.786-1.719
				c-0.392-0.152-0.925-0.274-0.888-0.897c2.504,0.225,5.01,0.443,7.514,0.68c1.453,0.138,2.9,0.307,4.35,0.461
				c0.572,0.5,0.434,1.167,0.391,1.792c-0.026,0.387-0.039,0.928-0.599,0.91c-0.661-0.022-0.782-0.506-0.687-0.938
				c-0.066,1.149-0.238,2.425-0.604,3.671c-0.255,0.271-0.583,0.172-0.89,0.182c-5.99-0.859-11.952-1.898-17.921-2.88
				c-9.664-1.589-19.291-3.382-28.939-5.06C122.782,55.707,122.201,55.695,121.795,55.233z"/>
			<path fill-rule="evenodd" clip-rule="evenodd" fill="#7A7A7A" d="M173.989,58.036c1.958,1.771,3.915,3.542,5.873,5.312
				c0.267,0.597,0.229,1.18-0.073,1.752c-0.7,0.206-1.371-0.056-2.055-0.123c-0.33-0.084-0.661-0.16-1.002-0.184
				c-0.484-0.03-0.945-0.191-1.426-0.242c-0.424-0.025-0.85-0.033-1.254-0.197c-0.19-0.094-0.342-0.236-0.453-0.416
				c-0.133-1.358-0.024-1.482,1.168-1.313c0.021-0.67-0.327-1.219-0.569-1.797c-0.076-0.18-0.017-0.853-0.446-0.115
				c-0.205,0.353-0.48-0.074-0.521-0.309c-0.133-0.761-0.271-1.529-0.006-2.293C173.48,58.087,173.734,58.062,173.989,58.036z"/>
			<path fill-rule="evenodd" clip-rule="evenodd" fill="#888888" d="M135.357,49.998c3.453,0.609,6.9,1.261,10.363,1.811
				c2.464,0.391,4.453,1.783,6.586,2.885c-4.08-0.059-7.801-1.598-11.576-2.869C138.939,51.221,137.029,50.951,135.357,49.998z"/>
			<path fill-rule="evenodd" clip-rule="evenodd" fill="#6E6E6E" d="M160.703,56.983c2.708,1.46,5.558,2.616,8.35,3.897
				c0.713,0.327,1.653,0.523,1.193,1.851c-4.344-2.019-8.631-4.011-12.917-6.003C158.476,56.525,159.579,56.895,160.703,56.983z"/>
			<path fill-rule="evenodd" clip-rule="evenodd" fill="#5F5F5F" d="M173.225,58.111c0.436,0.768,0.088,1.637,0.31,2.475
				c0.454-0.438-0.052-1.074,0.509-1.618c0.256,1.601,1.225,2.869,1.229,4.444c-1.417-0.953-1.417-0.953-1.521,0.435
				c-1.02,0.692-1.932,0.325-2.822-0.278c-0.277-1.542,0.58-2.912,0.651-4.512c0.454,0.496-0.13,1.43,0.985,1.589
				c0-0.854,0-1.688,0-2.521C172.787,58.121,173.006,58.115,173.225,58.111z"/>
			<path fill-rule="evenodd" clip-rule="evenodd" fill="#878787" d="M155.963,54.947c-1.148-0.545-2.295-1.091-3.443-1.637
				c3.29,0.788,6.705,0.969,9.823,2.33C160.211,55.457,158.065,55.4,155.963,54.947z"/>
			<path fill-rule="evenodd" clip-rule="evenodd" fill="#9B9B9B" d="M118.715,52.798c-0.014,0.722-0.027,1.44-0.039,2.163
				c-0.482,0.607-1.188,0.642-1.875,0.738c-9.19,1.294-18.402,2.438-27.573,3.862c-5.384,0.838-10.676,2.188-16.031,3.196
				c-0.663,0.125-1.34,0.438-2.019,0.04l0.018-0.026c-0.465-1.566-0.966-3.123-1.377-4.703c-0.184-0.715-0.465-1.361-0.847-1.979
				c1.318,0.212,2.575-0.381,3.884-0.303c4.947-0.578,9.914-0.803,14.891-0.939c2.438-0.066,4.869-0.325,7.264-0.928
				c7.568-1.903,15.162-3.707,22.759-5.499c0.574-0.135,1.157-0.366,1.763-0.113C119.26,49.805,118.986,51.301,118.715,52.798z"/>
			<path fill-rule="evenodd" clip-rule="evenodd" fill="#373737" d="M119.531,48.308c-2.943,0.747-5.881,1.515-8.832,2.237
				c-5.6,1.373-11.211,2.701-16.807,4.092c-1.703,0.423-3.451,0.451-5.167,0.584c-3.442,0.27-6.911,0.184-10.364,0.355
				c-1.836,0.09-3.662,0.387-5.506,0.211c2.36-0.449,4.72-0.904,7.082-1.344c0.273-0.051,0.551-0.045,0.713-0.322
				c1.078-0.578,2.246-0.027,3.35-0.266c2.397-0.36,4.798-0.686,7.229-0.691c0.553,0,1.102-0.053,1.63,0.155
				c2.291-0.14,4.451-0.913,6.659-1.431c5.283-1.234,10.531-2.604,15.816-3.827c0.939-0.218,1.701-1.119,2.864-0.683
				c0.294,0.111,1.118-0.238,0.993-1.033C120.137,46.854,119.348,47.666,119.531,48.308z"/>
			<path fill-rule="evenodd" clip-rule="evenodd" fill="#494949" d="M182.904,61.686c0.379-0.74-0.429-0.777-0.701-1.091
				c-0.5-0.577-1.374-0.724-1.803-1.425c2.748,1.169,5.375,2.635,7.713,4.422c0.744,0.568,1.844,1.728,1.834,3.215
				C188.197,64.244,185.258,63.381,182.904,61.686z"/>
			<path fill-rule="evenodd" clip-rule="evenodd" fill="#141414" d="M182.072,65.003c-0.791-0.004-1.582-0.009-2.374-0.013
				c-0.269-0.58-0.104-1.115,0.164-1.643c0.638-0.016,1.272-0.029,1.911-0.047C182.336,63.786,181.929,64.443,182.072,65.003z"/>
			<path fill-rule="evenodd" clip-rule="evenodd" fill="#4F4F4F" d="M211.238,89.447c0.623-0.94,0.447-1.674-0.318-2.535
				c-0.479-0.535-0.451-1.461,0.053-2.181c0.539,0.005,1.141,0.175,1.389-0.552c0.74,0.002,1.482,0.006,2.223,0.01
				c0.024,0.937,0.145,1.735-1.348,1.723c-1.471-0.014-0.619,1.148-0.559,1.861c-0.662,0.851-0.109,1.746,0.01,2.57
				c0.145,1,0.041,1.977,0.059,2.961"/>
			<path fill-rule="evenodd" clip-rule="evenodd" fill="#515151" d="M212.361,84.18c-0.061,0.435,0.24,1.061-0.193,1.268
				c-0.551,0.263-0.748-0.535-1.195-0.716c-0.834-0.478-1.172-1.214-1.482-2.128c-0.391-1.145-1.174-2.158-1.816-3.211
				c-0.263-0.43-0.602-0.813-0.57-1.363c1.648,1.307,2.574,3.248,4.096,4.672C211.65,83.125,211.977,83.683,212.361,84.18z"/>
			<path fill-rule="evenodd" clip-rule="evenodd" fill="#999999" d="M92.858,53.319c-0.582,0.456-1.296,0.287-1.912,0.263
				C88.619,53.49,86.318,53.85,84,53.855c2.645-0.817,5.418-0.979,8.105-1.578C92.75,52.134,93.234,52.517,92.858,53.319z"/>
			<path fill-rule="evenodd" clip-rule="evenodd" fill="#232323" d="M210.703,89.447c0.178,0,0.357,0,0.535,0"/>
			<polygon fill-rule="evenodd" clip-rule="evenodd" fill="#292A2A" points="118.68,55.827 118.68,130.747 121.544,130.747 
				121.544,53.562 118.715,52.798 			"/>
			<polygon fill-rule="evenodd" clip-rule="evenodd" fill="#292A2A" points="179.698,64.99 185.252,130.747 188.279,130.747 
				182.072,65.003 			"/>
			<polygon fill-rule="evenodd" clip-rule="evenodd" fill="#333334" points="25.045,80.021 14.848,88.857 8.77,130.145 
				5.559,130.145 12.367,87.765 25.006,79.376 			"/>
			<polygon opacity="0.7" fill="#D1E2E8" stroke="#3D3A2A" stroke-width="1.0093" stroke-miterlimit="10" points="58.775,79.402 
				118.68,71.775 118.68,84.18 57.534,92.779 			"/>
			<polygon opacity="0.7" fill="#D1E2E8" stroke="#3D3A2A" stroke-width="1.0093" stroke-miterlimit="10" points="122.072,84.109 
				148.738,86.061 182.738,88.549 183.989,101.6 150.355,98.917 147.131,98.661 121.26,96.598 			"/>
			<polygon opacity="0.7" fill="#D1E2E8" stroke="#3D3A2A" stroke-width="1.0093" stroke-miterlimit="10" points="54.01,93.305 
				12.854,102.402 11.439,112.011 52.878,104.035 			"/>
			<rect x="65.023" y="25.74" fill-rule="evenodd" clip-rule="evenodd" fill="#292A2A" width="9.766" height="3.11"/>
		</g>
		
			<line fill="none" stroke="#292A2A" stroke-width="2.7789" stroke-miterlimit="10" x1="220.348" y1="9.417" x2="298.613" y2="13.846"/>
	</g>
	<g>
		<g>
			<g>
				<path fill="#0096CA" d="M242.502,2.022c-1.24,0.476-0.804,0.992,0.977,1.134l45.59,3.6c0.712,0.057,1.449-0.184,1.654-0.526l0,0
					c0.2-0.336-0.18-0.652-0.855-0.716l-42.285-4.028C245.971,1.331,243.694,1.563,242.502,2.022L242.502,2.022z"/>
				<path fill="#0073AF" d="M247.933,1.177c-0.989,0.398-0.588,0.844,0.886,0.977l39.807,3.609c0.65,0.059,1.334-0.143,1.525-0.447
					l0,0c0.19-0.297-0.155-0.585-0.779-0.649l-37.253-3.919C250.763,0.605,248.885,0.79,247.933,1.177L247.933,1.177z"/>
				<path fill="#0096CA" d="M227.807,4.489c-2.074,0.713-1.453,1.439,1.384,1.582l62.671,3.146c0.846,0.043,1.683-0.283,1.884-0.717
					l0,0c0.192-0.422-0.286-0.8-1.086-0.857l-56.81-4.039C233.378,3.429,229.78,3.81,227.807,4.489L227.807,4.489z"/>
				<path fill="#0073AF" d="M235.776,3.143c-1.409,0.515-0.742,1.063,1.474,1.211l53.084,3.517c0.774,0.051,1.543-0.191,1.726-0.535
					l0,0c0.177-0.332-0.272-0.648-1.008-0.711l-49.195-4.058C239.862,2.399,237.132,2.649,235.776,3.143L235.776,3.143z"/>
			</g>
			<polygon fill="#231F20" points="291.398,9.479 281.339,8.905 230.328,5.999 228.773,8.603 			"/>
			<g>
				<path fill="#FFFBCB" d="M288.801,6.774l-48.545-3.296c-0.144-0.01-0.252-0.133-0.242-0.276s0.134-0.252,0.277-0.242l0.002,0.001
					L288.801,6.774z"/>
			</g>
			<g>
				<path fill="#FFFBCB" d="M289.276,5.095l-38.421-3.439c-0.143-0.013-0.248-0.14-0.236-0.282c0.014-0.143,0.141-0.248,0.283-0.235
					h0.004L289.276,5.095z"/>
			</g>
			<g opacity="0.5">
				<path fill="#7F7F82" d="M228.732,5.187c9.252-1.263,18.48-2.679,27.721-4.012l0.026-0.001
					c10.533,1.096,21.058,2.273,31.598,3.297l0.069,0.037L291.99,8.7c0.152,0.166,0.141,0.424-0.025,0.575
					c-0.165,0.152-0.422,0.142-0.574-0.024c-0.01-0.011-0.02-0.022-0.027-0.033l-3.377-4.577l0.069,0.037
					c-10.524-1.175-21.065-2.194-31.597-3.297l0.025-0.001c-9.22,1.475-18.451,2.866-27.66,4.412
					c-0.166,0.028-0.324-0.085-0.353-0.251c-0.028-0.167,0.085-0.325,0.251-0.354C228.726,5.188,228.729,5.187,228.732,5.187z"/>
			</g>
		</g>
		<polyline fill="#231F20" points="281.339,8.905 281.002,13.435 282.543,13.845 282.548,8.976 		"/>
	</g>
</g>
</svg>
