<?xml version="1.0" encoding="utf-8"?>
<!-- Generator: Adobe Illustrator 15.0.0, SVG Export Plug-In . SVG Version: 6.00 Build 0)  -->
<!DOCTYPE svg PUBLIC "-//W3C//DTD SVG 1.1//EN" "http://www.w3.org/Graphics/SVG/1.1/DTD/svg11.dtd">
<svg version="1.1" id="Слой_1" xmlns="http://www.w3.org/2000/svg" xmlns:xlink="http://www.w3.org/1999/xlink" x="0px" y="0px"
	 width="52px" height="21px" viewBox="0 0 52 21" enable-background="new 0 0 52 21" xml:space="preserve">
<g>
	<circle cx="8.972" cy="16.501" r="4.123"/>
	<path fill="#FCCD28" d="M0.079,13.867c0-0.645,0.248-0.793,0.446-1.143c0.199-0.346,0.398-0.546,0.547-0.596
		c0.149-0.051,4.073-1.043,4.272-1.143c0.198-0.1,2.285-2.385,2.086-2.682C7.231,8.006,6.885,7.857,6.885,7.857
		s1.191-0.248,1.49-0.248S9.27,7.559,9.518,7.41c0.247-0.148,7.65-4.67,12.319-5.764c4.67-1.092,9.092-1.637,15.202-1.291
		c6.108,0.348,9.985,0.944,10.184,1.342c0.198,0.398,1.49,3.131,1.888,4.521c0,0-1.838,0.646-2.236,1.292
		c0,0,2.137,2.087,3.478,2.632c0,0,0.696,0.597,0.696,0.944s0.1,1.988,0.1,2.334c0,0.348,0.246,0.299,0.197,0.994
		c-0.049,0.697-0.547,1.691-0.695,2.039c-0.147,0.344-1.49,0.645-1.49,0.645s-0.049-4.023-2.98-4.77
		c-2.93-0.746-4.818-0.098-5.911,0.994s-1.391,3.279-1.391,5.067H14.535c0,0-0.349-4.024-2.087-5.268
		c-1.738-1.241-3.825-1.49-6.21-0.447c-2.384,1.044-2.185,4.62-2.136,5.813c0,0-2.086,0-2.335-0.05
		C1.521,18.39,1.37,17.692,1.37,17.692s-0.646-0.297-0.695-0.595c-0.05-0.301,0.199-0.398,0.298-0.645c0.1-0.25,0-1.193-0.348-1.342
		C0.277,14.961,0.079,13.867,0.079,13.867z"/>
	<path fill="#504F4F" d="M9.815,8.899c0.051-0.247,0.597-1.341,1.242-1.739c0.645-0.396,8.297-4.52,12.917-5.363
		c4.619-0.844,10.878-0.844,14.603-0.646c3.728,0.198,7.304,1.589,7.304,1.589s0.198,1.788-0.496,2.334
		c-0.696,0.547-5.218,1.491-6.358,1.641C37.884,6.864,9.815,8.899,9.815,8.899z"/>
	<circle fill="#FFFFFF" cx="8.972" cy="16.5" r="2.881"/>
	<path fill="#4E4D4D" stroke="#737373" stroke-width="0.9675" d="M8.972,13.968c1.398,0,2.532,1.134,2.532,2.532
		c0,1.402-1.134,2.533-2.532,2.533c-1.4,0-2.535-1.131-2.535-2.533C6.437,15.102,7.571,13.968,8.972,13.968z"/>
	<g>
		<path fill="#FFFFFF" stroke="#656565" stroke-width="0.9675" d="M11.592,16.367c0,0,0.138-0.324-0.379-1.166l-1.286,0.59
			c-0.121-0.164-0.281-0.293-0.467-0.376l0.193-1.447c0,0-0.265-0.231-1.225,0l0.162,1.403c-0.195,0.066-0.367,0.182-0.502,0.331
			l-1.315-0.634c0,0-0.304,0.182-0.379,1.167l1.385,0.279c0.001,0.21,0.061,0.408,0.159,0.581l-1.008,1.052
			c0,0,0.078,0.346,0.99,0.722l0.695-1.23c0.112,0.037,0.23,0.054,0.355,0.054c0.084,0,0.165-0.008,0.244-0.024l0.692,1.283
			c0,0,0.351,0.031,0.991-0.721l-0.956-1.04c0.114-0.161,0.19-0.354,0.214-0.562L11.592,16.367z"/>
	</g>
	<circle cx="43.942" cy="16.501" r="4.123"/>
	<circle fill="#FFFFFF" cx="43.942" cy="16.5" r="2.881"/>
	<path fill="#4E4D4D" stroke="#737373" stroke-width="0.9675" d="M43.942,13.968c1.4,0,2.535,1.134,2.535,2.532
		c0,1.402-1.135,2.533-2.535,2.533c-1.397,0-2.533-1.131-2.533-2.533C41.409,15.102,42.545,13.968,43.942,13.968z"/>
	<g>
		<path fill="#FFFFFF" stroke="#656565" stroke-width="0.9675" d="M46.563,16.367c0,0,0.14-0.324-0.379-1.166l-1.285,0.59
			c-0.121-0.164-0.281-0.293-0.469-0.376l0.195-1.447c0,0-0.266-0.231-1.226,0l0.163,1.403c-0.196,0.066-0.367,0.182-0.502,0.331
			l-1.316-0.634c0,0-0.301,0.182-0.381,1.167l1.389,0.279c0.002,0.21,0.061,0.408,0.158,0.581l-1.009,1.052
			c0,0,0.079,0.346,0.991,0.722l0.694-1.23c0.112,0.037,0.233,0.054,0.354,0.054c0.086,0,0.167-0.008,0.246-0.024l0.692,1.283
			c0,0,0.351,0.031,0.991-0.721l-0.957-1.04c0.115-0.161,0.191-0.354,0.214-0.562L46.563,16.367z"/>
	</g>
	
		<linearGradient id="SVGID_1_" gradientUnits="userSpaceOnUse" x1="-561.811" y1="246.9521" x2="-559.1779" y2="245.5611" gradientTransform="matrix(1 0 0 -1 564 256)">
		<stop  offset="0" style="stop-color:#FFFFFF"/>
		<stop  offset="1" style="stop-color:#AFDCF6"/>
	</linearGradient>
	<path fill="url(#SVGID_1_)" d="M6.885,7.857C6.686,7.874,4.136,8.934,3.241,9.662s-2.252,1.986-2.169,2.467
		c0,0,4.024-0.943,4.272-1.143s2.303-2.385,2.086-2.682C7.217,8.006,6.885,7.857,6.885,7.857z"/>
	<path fill="#A7C8D1" d="M11.786,8.537c0,0,0.595-1.79,0.729-1.856c0.133-0.065,5.365-2.582,5.365-2.582l-1.094,4.007L11.786,8.537z
		"/>
	<path fill="#A7C8D1" d="M18.343,4l-1.125,4.072l11.591-0.961l1.192-5.564c0,0-4.372,0.199-6.723,0.795
		C20.927,2.939,18.343,4,18.343,4z"/>
	<polygon fill="#A7C8D1" points="31.656,1.449 31.094,6.947 39.771,6.25 40.036,4.164 38.844,1.449 	"/>
	<path fill="none" stroke="#A2A3A4" stroke-width="0.4838" d="M30.86,1.151c0,0-1.025,6.591-1.059,6.854
		c-0.032,0.264-0.496,3.809-0.363,5.465c0.131,1.655,0.331,3.709,0.331,3.709s-13.115,0-13.579,0c-0.463,0-0.861-0.033-1.025-0.629
		c-0.168-0.596-1.292-5.135-0.134-7.982"/>
	<path fill="none" stroke="#A2A3A4" stroke-width="0.4838" d="M39.737,1.25l2.717,6.557c0,0-0.101,2.285-0.166,2.716
		c-0.066,0.431-0.166,0.862-0.563,1.06c-0.397,0.199-2.219,1.227-2.813,2.418c-0.596,1.191-0.465,2.98-1.193,3.047
		S29.77,17.18,29.77,17.18"/>
	<path fill="#D0AC33" d="M25.431,9.629c0,0,0.299-0.529,0.729-0.629c0.431-0.101,2.152-0.463,2.152,0.033s0.232,0.795-0.728,0.993
		S25.595,10.324,25.431,9.629z"/>
	<path fill="#FFFFFF" d="M25.431,9.629l2.849-0.332c0,0,0.132-0.496-0.399-0.496c-0.528,0-1.722,0.199-1.953,0.332
		C25.696,9.264,25.431,9.629,25.431,9.629z"/>
	<path fill="#D0AC33" d="M38.546,8.27c0,0,0.298-0.527,0.728-0.628c0.431-0.099,2.152-0.462,2.152,0.033
		c0,0.497,0.232,0.796-0.728,0.994C39.737,8.867,38.712,8.967,38.546,8.27z"/>
	<path fill="#FFFFFF" d="M38.546,8.27l2.848-0.329c0,0,0.133-0.496-0.397-0.496s-1.723,0.197-1.954,0.329
		C38.811,7.907,38.546,8.27,38.546,8.27z"/>
	<path fill="#DE2C42" d="M49.11,6.218c0,0,0.894-0.033,1.125,0.198c0.232,0.232,0.531,1.094,0.563,1.59
		c0.033,0.496,0.033,2.684,0.033,2.684l-0.479-0.548c0,0-1.54-0.909-1.937-1.208c-0.398-0.298-1.541-1.424-1.541-1.424
		S47.62,6.715,49.11,6.218z"/>
	<path fill="#A7C8D1" d="M47.223,1.697c0,0,2.483,3.562,3.013,4.719c0,0-0.694-0.297-1.125-0.198
		C49.11,6.218,47.454,2.045,47.223,1.697z"/>
	<path fill="#FCCD28" d="M16.257,8.105c-0.165-0.299-0.298-0.596-0.265-0.895c0.033-0.298,0.299-0.927,0.862-1.127
		c0.561-0.197,1.158,0,1.158,0s-0.034,1.193-0.1,1.459c-0.066,0.264-0.266,0.397-0.695,0.529
		C16.786,8.205,16.257,8.105,16.257,8.105z"/>
	<path fill="#FFEDB2" d="M15.892,16.188c0,0,20.601-0.467,20.865-0.498c0.264-0.033-0.63-0.164-1.061-0.23
		c-0.43-0.066-11.889-0.101-14.107,0C19.37,15.557,15.595,16.054,15.892,16.188z"/>
	<path fill="#F5C7C1" d="M47.646,7.36c0,0,1.861-0.149,2.035-0.173c0.174-0.027,0.373,0.248,0.398,0.396
		c0.024,0.149,0.074,0.374,0.024,0.473c-0.05,0.101-0.571,0.124-0.819,0.124s-0.77,0.125-1.094,0
		C47.868,8.056,47.245,7.459,47.646,7.36z"/>
	<path fill="#F5C7C1" d="M48.738,8.502c0.146-0.021,1.489-0.073,1.564-0.073s0.199,0.819,0.024,0.819c-0.174,0-0.596,0.123-0.846,0
		C49.234,9.124,48.415,8.554,48.738,8.502z"/>
	<path fill="#535252" d="M7.134,8.378c0,0-0.746,0-0.896,0.051c-0.147,0.05-0.147,0.62-0.024,0.796
		C6.214,9.225,6.71,9.049,7.134,8.378z"/>
	<path fill="#B3BABC" d="M6.065,8.652c0,0-2.932,0.895-4.596,3.303c0,0,3.377-0.77,3.676-0.918c0.299-0.15,2.037-1.789,2.285-2.535
		C7.431,8.502,6.537,8.403,6.065,8.652z"/>
	
		<linearGradient id="SVGID_2_" gradientUnits="userSpaceOnUse" x1="-562.4316" y1="245.5215" x2="-558.7061" y2="245.5215" gradientTransform="matrix(1 0 0 -1 564 256)">
		<stop  offset="0" style="stop-color:#FFFFFF"/>
		<stop  offset="1" style="stop-color:#535252"/>
	</linearGradient>
	<path fill="url(#SVGID_2_)" d="M5.294,9.025c0,0-1.514,1.465-1.514,2.359l-2.212,0.546C1.568,11.931,2.91,9.968,5.294,9.025z"/>
</g>
</svg>
