<?xml version="1.0" encoding="utf-8"?>
<!-- Generator: Adobe Illustrator 15.0.0, SVG Export Plug-In . SVG Version: 6.00 Build 0)  -->
<!DOCTYPE svg PUBLIC "-//W3C//DTD SVG 1.1//EN" "http://www.w3.org/Graphics/SVG/1.1/DTD/svg11.dtd">
<svg version="1.1" id="Слой_1" xmlns="http://www.w3.org/2000/svg" xmlns:xlink="http://www.w3.org/1999/xlink" x="0px" y="0px"
	 width="50px" height="50px" viewBox="0 0 50 50" enable-background="new 0 0 50 50" xml:space="preserve">
<g>
	<g>
		<path opacity="0.9" fill="#FFFFFF" d="M2.008,48.5c-0.271,0-0.5-0.229-0.5-0.5V2c0-0.271,0.229-0.5,0.5-0.5h46
			c0.271,0,0.5,0.229,0.5,0.5v46c0,0.271-0.229,0.5-0.5,0.5H2.008z"/>
		<g>
			<path fill="#333333" d="M47.008,3v44H19.219h-4H3.008V3H47.008 M48.008,0h-46c-1.1,0-2,0.9-2,2v46c0,1.1,0.9,2,2,2h13.211
				c1.1,0,2.9,0,4,0h28.789c1.1,0,2-0.9,2-2V2C50.008,0.899,49.107,0,48.008,0L48.008,0z"/>
		</g>
	</g>
	
		<polyline fill="none" stroke="#343434" stroke-width="3" stroke-linecap="round" stroke-linejoin="round" stroke-miterlimit="10" points="
		27.854,31.666 20.159,23.972 27.854,16.278 	"/>
</g>
</svg>
