<?xml version="1.0" encoding="utf-8"?>
<!-- Generator: Adobe Illustrator 15.0.0, SVG Export Plug-In . SVG Version: 6.00 Build 0)  -->
<!DOCTYPE svg PUBLIC "-//W3C//DTD SVG 1.1//EN" "http://www.w3.org/Graphics/SVG/1.1/DTD/svg11.dtd">
<svg version="1.1" id="Слой_1" xmlns="http://www.w3.org/2000/svg" xmlns:xlink="http://www.w3.org/1999/xlink" x="0px" y="0px"
	 width="220px" height="175px" viewBox="0 0 220 175" enable-background="new 0 0 220 175" xml:space="preserve">
<g>
	<g>
		<g>
			<rect x="59.818" y="91.114" fill="#8FA9B8" width="29.459" height="13.215"/>
			<rect x="93.25" y="91.114" fill="#8FA9B8" width="29.456" height="13.215"/>
			<path fill="#8FA9B8" d="M89.277,91.114v-9.659c0,0-2.5,7.335-10.222,7.335v4.152"/>
			<path fill="#8FA9B8" d="M122.706,91.114v-9.659c0,0-2.495,7.335-10.222,7.335v4.152"/>
		</g>
		<rect x="12.965" y="97.536" fill="#195F80" width="114.08" height="10.168"/>
		<g>
			<rect x="161.633" y="0.412" fill="#BCBDBA" width="17.79" height="170.776"/>
		</g>
		<g>
			<rect x="133.045" y="0.412" fill="#BCBDBA" width="17.791" height="170.776"/>
		</g>
		<g>
			<rect x="12.965" y="102.616" fill="#D25627" width="166.458" height="71.727"/>
			<path fill="#D25627" d="M12.965,112.233c0,0-11.66,1.428-11.66,11.667h11.66V112.233z"/>
		</g>
		<g>
			
				<line fill="none" stroke="#E57E25" stroke-width="2.6147" stroke-miterlimit="10" x1="170.158" y1="102.616" x2="170.158" y2="174.343"/>
			
				<line fill="none" stroke="#E57E25" stroke-width="2.6147" stroke-miterlimit="10" x1="160.299" y1="102.616" x2="160.299" y2="174.343"/>
			
				<line fill="none" stroke="#E57E25" stroke-width="2.6147" stroke-miterlimit="10" x1="150.438" y1="102.616" x2="150.438" y2="174.343"/>
			
				<line fill="none" stroke="#E57E25" stroke-width="2.6147" stroke-miterlimit="10" x1="140.574" y1="102.616" x2="140.574" y2="174.343"/>
			
				<line fill="none" stroke="#E57E25" stroke-width="2.6147" stroke-miterlimit="10" x1="22.229" y1="102.616" x2="22.229" y2="174.343"/>
			
				<line fill="none" stroke="#E57E25" stroke-width="2.6147" stroke-miterlimit="10" x1="32.088" y1="102.616" x2="32.088" y2="174.343"/>
			
				<line fill="none" stroke="#E57E25" stroke-width="2.6147" stroke-miterlimit="10" x1="41.961" y1="102.616" x2="41.961" y2="174.343"/>
			
				<line fill="none" stroke="#E57E25" stroke-width="2.6147" stroke-miterlimit="10" x1="51.82" y1="102.616" x2="51.82" y2="174.343"/>
			
				<line fill="none" stroke="#E57E25" stroke-width="2.6147" stroke-miterlimit="10" x1="61.682" y1="102.616" x2="61.682" y2="174.343"/>
			
				<line fill="none" stroke="#E57E25" stroke-width="2.6147" stroke-miterlimit="10" x1="71.541" y1="102.616" x2="71.541" y2="174.343"/>
			
				<line fill="none" stroke="#E57E25" stroke-width="2.6147" stroke-miterlimit="10" x1="91.266" y1="102.616" x2="91.266" y2="174.343"/>
			
				<line fill="none" stroke="#E57E25" stroke-width="2.6147" stroke-miterlimit="10" x1="81.402" y1="102.616" x2="81.402" y2="174.343"/>
			
				<line fill="none" stroke="#E57E25" stroke-width="2.6147" stroke-miterlimit="10" x1="101.122" y1="102.616" x2="101.122" y2="174.343"/>
			
				<line fill="none" stroke="#E57E25" stroke-width="2.6147" stroke-miterlimit="10" x1="110.984" y1="102.616" x2="110.984" y2="174.343"/>
			
				<line fill="none" stroke="#E57E25" stroke-width="2.6147" stroke-miterlimit="10" x1="120.846" y1="102.616" x2="120.846" y2="174.343"/>
			
				<line fill="none" stroke="#E57E25" stroke-width="2.6147" stroke-miterlimit="10" x1="130.715" y1="102.616" x2="130.715" y2="174.343"/>
		</g>
		
			<line fill="none" stroke="#959797" stroke-width="1.0591" stroke-miterlimit="10" x1="137.02" y1="102.616" x2="137.02" y2="0.412"/>
		
			<line fill="none" stroke="#959797" stroke-width="1.0591" stroke-miterlimit="10" x1="148.552" y1="102.616" x2="148.552" y2="0.412"/>
		
			<line fill="none" stroke="#959797" stroke-width="1.0591" stroke-miterlimit="10" x1="170.573" y1="102.616" x2="170.573" y2="0.412"/>
		
			<line fill="none" stroke="#959797" stroke-width="1.9063" stroke-miterlimit="10" x1="128.469" y1="102.616" x2="128.469" y2="0.412"/>
		
			<line fill="none" stroke="#959797" stroke-width="1.9063" stroke-miterlimit="10" x1="158.814" y1="102.616" x2="158.814" y2="0.412"/>
		
			<line fill="none" stroke="#959797" stroke-width="1.0591" stroke-miterlimit="10" x1="128.469" y1="6.762" x2="148.552" y2="6.762"/>
		
			<line fill="none" stroke="#959797" stroke-width="1.0854" stroke-miterlimit="10" x1="158.939" y1="6.762" x2="180.035" y2="6.762"/>
		
			<line fill="none" stroke="#959797" stroke-width="1.0591" stroke-miterlimit="10" x1="128.469" y1="10.584" x2="148.552" y2="10.584"/>
		
			<line fill="none" stroke="#959797" stroke-width="1.0854" stroke-miterlimit="10" x1="158.939" y1="10.584" x2="180.035" y2="10.584"/>
		
			<line fill="none" stroke="#959797" stroke-width="1.0591" stroke-miterlimit="10" x1="128.469" y1="49.967" x2="148.552" y2="49.967"/>
		
			<line fill="none" stroke="#959797" stroke-width="1.0854" stroke-miterlimit="10" x1="158.939" y1="49.967" x2="180.035" y2="49.967"/>
		
			<line fill="none" stroke="#959797" stroke-width="1.0591" stroke-miterlimit="10" x1="128.469" y1="53.782" x2="148.552" y2="53.782"/>
		
			<line fill="none" stroke="#959797" stroke-width="1.0854" stroke-miterlimit="10" x1="158.939" y1="53.782" x2="180.035" y2="53.782"/>
		
			<line fill="none" stroke="#959797" stroke-width="1.0591" stroke-miterlimit="10" x1="128.469" y1="87.587" x2="148.552" y2="87.587"/>
		
			<line fill="none" stroke="#959797" stroke-width="1.0854" stroke-miterlimit="10" x1="158.939" y1="87.587" x2="180.035" y2="87.587"/>
		<g>
			<rect x="153.326" y="146.024" fill="#8F969E" width="64.344" height="28.318"/>
			<rect x="203.148" y="140.6" fill="#A5AAB1" width="9.83" height="5.425"/>
			<rect x="165.424" y="128.478" fill="#BEC0C5" width="10.291" height="17.547"/>
		</g>
		
			<line fill="none" stroke="#959797" stroke-width="1.0591" stroke-miterlimit="10" x1="128.469" y1="91.155" x2="148.552" y2="91.155"/>
		
			<line fill="none" stroke="#959797" stroke-width="1.0854" stroke-miterlimit="10" x1="158.939" y1="91.155" x2="180.035" y2="91.155"/>
		
			<line fill="none" stroke="#3E3F40" stroke-width="1.0854" stroke-miterlimit="10" x1="153.326" y1="154.174" x2="217.67" y2="154.174"/>
		
			<line fill="none" stroke="#3E3F40" stroke-width="1.0854" stroke-miterlimit="10" x1="153.326" y1="157.086" x2="217.67" y2="157.086"/>
	</g>
	<g>
		<g>
			<g>
				<path fill="#0096CA" d="M53.883,84.246c1.096,0.264,0.785,0.747-0.693,1.065L15.213,93.47c-0.592,0.127-1.24,0.009-1.449-0.258
					l0,0c-0.209-0.258,0.076-0.568,0.637-0.697l35.146-8.147C50.887,84.057,52.826,83.993,53.883,84.246L53.883,84.246z"/>
				<path fill="#0073AF" d="M49.217,84.147c0.875,0.222,0.59,0.642-0.637,0.922l-33.104,7.517c-0.537,0.121-1.139,0.027-1.334-0.206
					l0,0c-0.197-0.228,0.066-0.51,0.582-0.634l30.92-7.489C46.768,83.982,48.371,83.928,49.217,84.147L49.217,84.147z"/>
				<path fill="#0096CA" d="M66.529,84.669c1.828,0.368,1.385,1.049-0.986,1.487l-52.402,9.702
					c-0.705,0.129-1.447-0.049-1.666-0.393l0,0c-0.209-0.332,0.152-0.705,0.818-0.843l47.367-9.792
					C61.721,84.405,64.793,84.32,66.529,84.669L66.529,84.669z"/>
				<path fill="#0073AF" d="M59.67,84.433c1.242,0.274,0.744,0.813-1.104,1.186l-44.293,8.934c-0.646,0.129-1.32,0.011-1.512-0.258
					l0,0c-0.188-0.258,0.156-0.577,0.771-0.711l40.955-8.953C56.146,84.268,58.475,84.172,59.67,84.433L59.67,84.433z"/>
			</g>
			<polygon fill="#231F20" points="13.559,96.023 21.961,94.409 64.58,86.226 66.18,88.243 			"/>
			<g>
				<path fill="#FFFBCB" d="M15.438,93.456l40.41-8.668c0.119-0.026,0.236,0.05,0.262,0.169s-0.051,0.237-0.17,0.263h-0.002
					L15.438,93.456z"/>
			</g>
			<g>
				<path fill="#FFFBCB" d="M14.852,92.095l31.854-7.646c0.119-0.028,0.238,0.044,0.268,0.163c0.027,0.118-0.045,0.237-0.164,0.266
					l-0.002,0.001L14.852,92.095z"/>
			</g>
			<g opacity="0.5">
				<path fill="#7F7F82" d="M65.821,85.881c-7.926-0.265-15.854-0.398-23.782-0.603l0.022-0.002
					c-8.741,2.113-17.501,4.158-26.228,6.331l0.053-0.039L13.561,95.8c-0.092,0.167-0.302,0.229-0.469,0.136
					c-0.168-0.092-0.229-0.302-0.137-0.47c0.006-0.011,0.012-0.021,0.02-0.031l2.762-3.96l0.057-0.039
					c8.756-2.048,17.484-4.224,26.227-6.331l0.023-0.002c7.93,0.083,15.857,0.236,23.788,0.259c0.144,0,0.26,0.117,0.259,0.261
					c0,0.144-0.117,0.26-0.26,0.259H65.821z"/>
			</g>
		</g>
		<polyline fill="#231F20" points="21.961,94.774 22.758,98.189 21.439,98.217 20.885,94.511 		"/>
		<polyline fill="#231F20" points="61.287,88.325 62.225,98.189 60.906,98.217 60.354,88.883 		"/>
	</g>
</g>
</svg>
