<?xml version="1.0" encoding="utf-8"?>
<!-- Generator: Adobe Illustrator 15.0.0, SVG Export Plug-In . SVG Version: 6.00 Build 0)  -->
<!DOCTYPE svg PUBLIC "-//W3C//DTD SVG 1.1//EN" "http://www.w3.org/Graphics/SVG/1.1/DTD/svg11.dtd">
<svg version="1.1" id="Слой_1" xmlns="http://www.w3.org/2000/svg" xmlns:xlink="http://www.w3.org/1999/xlink" x="0px" y="0px"
	 width="3995px" height="1100px" viewBox="0 0 3995 1100" enable-background="new 0 0 3995 1100" xml:space="preserve">
<g>
	<g>
		<rect x="297" y="939" opacity="0.5" fill="#EFF5DC" width="150" height="150"/>
		<rect x="148" y="189" opacity="0.5" fill="#EFF5DC" width="150" height="150"/>
		<rect x="-2" y="489" opacity="0.95" fill="#E1E9D1" width="450" height="300"/>
		<g opacity="0.2">
			<line fill="#E1E9D1" x1="296" y1="940" x2="146" y2="940"/>
			<line fill="#E1E9D1" x1="296" y1="945" x2="146" y2="945"/>
			<line fill="#E1E9D1" x1="296" y1="950" x2="146" y2="950"/>
			<line fill="#E1E9D1" x1="296" y1="955" x2="146" y2="955"/>
			<line fill="#E1E9D1" x1="296" y1="960" x2="146" y2="960"/>
			<line fill="#E1E9D1" x1="296" y1="965" x2="146" y2="965"/>
			<line fill="#E1E9D1" x1="296" y1="970" x2="146" y2="970"/>
			<line fill="#E1E9D1" x1="296" y1="975" x2="146" y2="975"/>
			<line fill="#E1E9D1" x1="296" y1="980" x2="146" y2="980"/>
			<line fill="#E1E9D1" x1="296" y1="985" x2="146" y2="985"/>
			<line fill="#E1E9D1" x1="296" y1="990" x2="146" y2="990"/>
			<line fill="#E1E9D1" x1="296" y1="995" x2="146" y2="995"/>
			<line fill="#E1E9D1" x1="296" y1="1000" x2="146" y2="1000"/>
			<line fill="#E1E9D1" x1="296" y1="1005" x2="146" y2="1005"/>
			<line fill="#E1E9D1" x1="296" y1="1010" x2="146" y2="1010"/>
			<line fill="#E1E9D1" x1="296" y1="1015" x2="146" y2="1015"/>
			<line fill="#E1E9D1" x1="296" y1="1020" x2="146" y2="1020"/>
			<line fill="#E1E9D1" x1="296" y1="1025" x2="146" y2="1025"/>
			<line fill="#E1E9D1" x1="296" y1="1030" x2="146" y2="1030"/>
			<line fill="#E1E9D1" x1="296" y1="1035" x2="146" y2="1035"/>
			<line fill="#E1E9D1" x1="296" y1="1040" x2="146" y2="1040"/>
			<line fill="#E1E9D1" x1="296" y1="1045" x2="146" y2="1045"/>
			<line fill="#E1E9D1" x1="296" y1="1050" x2="146" y2="1050"/>
			<line fill="#E1E9D1" x1="296" y1="1055" x2="146" y2="1055"/>
			<line fill="#E1E9D1" x1="296" y1="1060" x2="146" y2="1060"/>
			<line fill="#E1E9D1" x1="296" y1="1065" x2="146" y2="1065"/>
			<line fill="#E1E9D1" x1="296" y1="1070" x2="146" y2="1070"/>
			<line fill="#E1E9D1" x1="296" y1="1075" x2="146" y2="1075"/>
			<line fill="#E1E9D1" x1="296" y1="1080" x2="146" y2="1080"/>
			<line fill="#E1E9D1" x1="296" y1="1085" x2="146" y2="1085"/>
			<line fill="#E1E9D1" x1="296" y1="1090" x2="146" y2="1090"/>
		</g>
		<rect x="-2" y="639" fill="#E1E9D1" width="150" height="150"/>
		<rect x="448" y="639" fill="#E1E9D1" width="150" height="150"/>
		<rect x="598" y="489" fill="#E1E9D1" width="150" height="150"/>
		<rect x="297" y="39" opacity="0.8" fill="#E1E9D1" width="150" height="150"/>
		<rect x="448" y="789" opacity="0.9" fill="#E1E9D1" width="150" height="150"/>
		<rect x="448" y="489" opacity="0.9" fill="#E1E9D1" width="150" height="150"/>
		<rect x="448" y="339" opacity="0.95" fill="#E1E9D1" width="150" height="150"/>
	</g>
	<g>
		<rect x="-1.52" y="623.877" fill="none" width="599.491" height="161.5"/>
		<text transform="matrix(1 0 0 1 38.4805 639.2363)"><tspan x="0" y="0" fill="#434343" font-family="'PTSerif-Regular'" font-size="16">Once certain urban density thresholds are surpassed it becomes financially </tspan><tspan x="0" y="24.801" fill="#434343" font-family="'PTSerif-Regular'" font-size="16">viable to generate heat centrally and distribute that heat to multiple </tspan><tspan x="0" y="49.601" fill="#434343" font-family="'PTSerif-Regular'" font-size="16">buildings.  We call this a district energy system, and it is typically much more </tspan><tspan x="0" y="74.4" fill="#434343" font-family="'PTSerif-Regular'" font-size="16">efficient than using individual gas furnaces.  District energy systems can also </tspan><tspan x="0" y="99.2" fill="#434343" font-family="'PTSerif-Regular'" font-size="16">be fueled using a variety of renewable energy resources.</tspan></text>
	</g>
	<g>
		<g>
			<text transform="matrix(1 0 0 1 36.96 583.9541)" fill="#434343" font-family="'Oswald'" font-size="48">District Energy</text>
		</g>
	</g>
</g>
</svg>
