<?xml version="1.0" encoding="utf-8"?>
<!-- Generator: Adobe Illustrator 15.0.0, SVG Export Plug-In . SVG Version: 6.00 Build 0)  -->
<!DOCTYPE svg PUBLIC "-//W3C//DTD SVG 1.1//EN" "http://www.w3.org/Graphics/SVG/1.1/DTD/svg11.dtd">
<svg version="1.1" id="Слой_1" xmlns="http://www.w3.org/2000/svg" xmlns:xlink="http://www.w3.org/1999/xlink" x="0px" y="0px"
	 width="50px" height="50px" viewBox="0 0 50 50" enable-background="new 0 0 50 50" xml:space="preserve">
<g>
	<g>
		<path opacity="0.9" fill="#FFFFFF" d="M2,48.5c-0.271,0-0.5-0.229-0.5-0.5V2c0-0.271,0.229-0.5,0.5-0.5h46
			c0.271,0,0.5,0.229,0.5,0.5v46c0,0.271-0.229,0.5-0.5,0.5H2z"/>
		<g>
			<path fill="#333333" d="M47,3v44H34.789h-4H3V3H47 M48,0H2C0.9,0,0,0.9,0,2v46c0,1.1,0.9,2,2,2h28.789c1.1,0,2.9,0,4,0H48
				c1.1,0,2-0.9,2-2V2C50,0.9,49.1,0,48,0L48,0z"/>
		</g>
	</g>
	
		<polyline fill="none" stroke="#343434" stroke-width="3" stroke-linecap="round" stroke-linejoin="round" stroke-miterlimit="10" points="
		22.154,31.667 29.849,23.973 22.154,16.278 	"/>
</g>
</svg>
