<?xml version="1.0" encoding="utf-8"?>
<!-- Generator: Adobe Illustrator 15.0.0, SVG Export Plug-In . SVG Version: 6.00 Build 0)  -->
<!DOCTYPE svg PUBLIC "-//W3C//DTD SVG 1.1//EN" "http://www.w3.org/Graphics/SVG/1.1/DTD/svg11.dtd">
<svg version="1.1" id="Слой_1" xmlns="http://www.w3.org/2000/svg" xmlns:xlink="http://www.w3.org/1999/xlink" x="0px" y="0px"
	 width="245px" height="65px" viewBox="0 0 245 65" enable-background="new 0 0 245 65" xml:space="preserve">
<g>
	<polygon fill="#3B3B3E" points="190.783,32.869 190.615,31.01 183.861,26.902 180.655,34.127 180.822,35.987 187.575,40.096 	"/>
	<path fill="#2980BA" d="M237.832,47.719V33.727c0,0-3.685-1.833-6.644-1.833c-2.956,0-12.117,0-12.117,0l-6.143-18.532h-25.036
		v26.154h-5.702v13.422h46.042l9.6-0.215V47.719z"/>
	<g>
		<rect x="5.272" y="38.455" fill="#A9754C" width="160.336" height="3.289"/>
		<rect x="5.272" y="30.832" fill="#A9754C" width="160.336" height="5.191"/>
	</g>
	<g>
		<rect x="0.402" y="33.694" fill="#95582A" width="165.206" height="5.188"/>
		<rect x="0.402" y="21.959" fill="#95582A" width="165.206" height="5.19"/>
		<rect x="0.402" y="5.346" fill="#95582A" width="165.206" height="5.189"/>
	</g>
	<rect x="167.658" y="3.184" fill="#455863" width="2.673" height="41.461"/>
	<polygon fill="#455863" points="166.671,0.512 166.671,7.939 244.968,3.184 244.968,0.512 	"/>
	<g>
		<path fill="none" stroke="#6C6E72" stroke-width="0.426" stroke-miterlimit="10" d="M180.618,29.278
			c-0.375,0.204,0.749,2.719,0.373,2.923"/>
		<path fill="none" stroke="#2D2C2D" stroke-width="0.426" stroke-miterlimit="10" d="M179.68,29.788
			c0.376-0.204,1.874,2.106,2.248,1.901"/>
		<path fill="none" stroke="#2D2C2D" stroke-width="0.426" stroke-miterlimit="10" d="M179.717,29.768
			c-0.375,0.204,0.75,2.719,0.376,2.922"/>
		<path fill="none" stroke="#6C6E72" stroke-width="0.426" stroke-miterlimit="10" d="M178.782,30.276
			c0.374-0.202,1.873,2.108,2.248,1.904"/>
		<path fill="none" stroke="#6C6E72" stroke-width="0.426" stroke-miterlimit="10" d="M178.782,30.276
			c-0.377,0.204,0.749,2.72,0.374,2.924"/>
		<path fill="none" stroke="#2D2C2D" stroke-width="0.426" stroke-miterlimit="10" d="M177.845,30.785
			c0.372-0.203,1.874,2.109,2.248,1.904"/>
		<path fill="none" stroke="#2D2C2D" stroke-width="0.426" stroke-miterlimit="10" d="M177.845,30.785
			c-0.374,0.205,0.751,2.719,0.377,2.924"/>
		<path fill="none" stroke="#6C6E72" stroke-width="0.426" stroke-miterlimit="10" d="M176.908,31.297
			c0.374-0.205,1.874,2.105,2.248,1.903"/>
		<path fill="none" stroke="#6C6E72" stroke-width="0.426" stroke-miterlimit="10" d="M176.908,31.297
			c-0.375,0.203,0.751,2.717,0.375,2.921"/>
		<path fill="none" stroke="#2D2C2D" stroke-width="0.426" stroke-miterlimit="10" d="M175.972,31.807
			c0.374-0.205,1.874,2.107,2.25,1.902"/>
		<path fill="none" stroke="#2D2C2D" stroke-width="0.426" stroke-miterlimit="10" d="M175.972,31.807
			c-0.375,0.204,0.75,2.717,0.376,2.921"/>
		<path fill="none" stroke="#6C6E72" stroke-width="0.426" stroke-miterlimit="10" d="M175.034,32.314
			c0.377-0.205,1.875,2.107,2.249,1.903"/>
		<path fill="none" stroke="#6C6E72" stroke-width="0.426" stroke-miterlimit="10" d="M175.034,32.314
			c-0.373,0.204,0.752,2.721,0.377,2.922"/>
		<path fill="none" stroke="#2D2C2D" stroke-width="0.426" stroke-miterlimit="10" d="M174.1,32.824
			c0.374-0.205,1.874,2.107,2.248,1.903"/>
		<path fill="none" stroke="#2D2C2D" stroke-width="0.426" stroke-miterlimit="10" d="M174.1,32.824
			c-0.374,0.204,0.75,2.719,0.376,2.923"/>
		<path fill="none" stroke="#6C6E72" stroke-width="0.426" stroke-miterlimit="10" d="M173.163,33.334
			c0.374-0.203,1.873,2.107,2.248,1.902"/>
		<path fill="none" stroke="#6C6E72" stroke-width="0.426" stroke-miterlimit="10" d="M173.163,33.334
			c-0.375,0.204,0.749,2.719,0.376,2.923"/>
		<path fill="none" stroke="#2D2C2D" stroke-width="0.426" stroke-miterlimit="10" d="M172.226,33.844
			c0.372-0.204,1.875,2.107,2.25,1.903"/>
		<path fill="none" stroke="#2D2C2D" stroke-width="0.426" stroke-miterlimit="10" d="M172.226,33.844
			c-0.374,0.203,0.751,2.719,0.376,2.923"/>
		<path fill="none" stroke="#6C6E72" stroke-width="0.426" stroke-miterlimit="10" d="M171.289,34.354
			c0.374-0.205,1.875,2.105,2.25,1.903"/>
		<path fill="none" stroke="#6C6E72" stroke-width="0.426" stroke-miterlimit="10" d="M171.289,34.354
			c-0.375,0.203,0.751,2.717,0.376,2.921"/>
		<path fill="none" stroke="#2D2C2D" stroke-width="0.426" stroke-miterlimit="10" d="M170.352,34.863
			c0.377-0.205,1.875,2.105,2.25,1.903"/>
		<path fill="none" stroke="#6C6E72" stroke-width="0.426" stroke-miterlimit="10" d="M182.19,36.283
			c-0.428,0-0.639,2.746-1.066,2.746"/>
		<path fill="none" stroke="#2D2C2D" stroke-width="0.426" stroke-miterlimit="10" d="M181.123,36.283
			c0.426,0,0.641,2.746,1.067,2.746"/>
		<path fill="none" stroke="#2D2C2D" stroke-width="0.426" stroke-miterlimit="10" d="M181.165,36.283
			c-0.426,0-0.639,2.746-1.064,2.748"/>
		<path fill="none" stroke="#6C6E72" stroke-width="0.426" stroke-miterlimit="10" d="M180.1,36.283
			c0.427,0,0.642,2.746,1.066,2.746"/>
		<path fill="none" stroke="#6C6E72" stroke-width="0.426" stroke-miterlimit="10" d="M180.1,36.283
			c-0.426,0-0.64,2.748-1.064,2.748"/>
		<path fill="none" stroke="#2D2C2D" stroke-width="0.426" stroke-miterlimit="10" d="M179.033,36.283
			c0.426,0,0.641,2.748,1.067,2.748"/>
		<path fill="none" stroke="#2D2C2D" stroke-width="0.426" stroke-miterlimit="10" d="M179.033,36.283
			c-0.427,0-0.638,2.748-1.065,2.75"/>
		<path fill="none" stroke="#6C6E72" stroke-width="0.426" stroke-miterlimit="10" d="M177.967,36.283
			c0.428,0,0.643,2.748,1.068,2.748"/>
		<path fill="none" stroke="#6C6E72" stroke-width="0.426" stroke-miterlimit="10" d="M177.967,36.283
			c-0.426,0.003-0.638,2.75-1.063,2.75"/>
		<path fill="none" stroke="#2D2C2D" stroke-width="0.426" stroke-miterlimit="10" d="M176.9,36.286
			c0.427,0,0.642,2.747,1.067,2.747"/>
		<path fill="none" stroke="#2D2C2D" stroke-width="0.426" stroke-miterlimit="10" d="M176.9,36.286
			c-0.425,0-0.639,2.747-1.064,2.747"/>
		<path fill="none" stroke="#6C6E72" stroke-width="0.426" stroke-miterlimit="10" d="M175.835,36.287
			c0.426,0,0.641,2.746,1.068,2.746"/>
		<path fill="none" stroke="#6C6E72" stroke-width="0.426" stroke-miterlimit="10" d="M175.835,36.287
			c-0.426,0-0.637,2.746-1.063,2.746"/>
		<path fill="none" stroke="#2D2C2D" stroke-width="0.426" stroke-miterlimit="10" d="M174.77,36.287
			c0.427,0,0.642,2.746,1.066,2.746"/>
		<path fill="none" stroke="#2D2C2D" stroke-width="0.426" stroke-miterlimit="10" d="M174.77,36.287
			c-0.428,0-0.639,2.746-1.064,2.747"/>
		<path fill="none" stroke="#6C6E72" stroke-width="0.426" stroke-miterlimit="10" d="M173.701,36.287
			c0.429,0,0.644,2.746,1.071,2.746"/>
		<path fill="none" stroke="#6C6E72" stroke-width="0.426" stroke-miterlimit="10" d="M173.701,36.287
			c-0.424,0-0.638,2.747-1.063,2.747"/>
		<path fill="none" stroke="#2D2C2D" stroke-width="0.426" stroke-miterlimit="10" d="M172.638,36.287
			c0.426,0,0.641,2.747,1.067,2.747"/>
		<path fill="none" stroke="#2D2C2D" stroke-width="0.426" stroke-miterlimit="10" d="M172.638,36.287
			c-0.427,0-0.639,2.749-1.064,2.749"/>
		<path fill="none" stroke="#6C6E72" stroke-width="0.426" stroke-miterlimit="10" d="M171.571,36.288
			c0.427-0.001,0.641,2.748,1.066,2.746"/>
		<path fill="none" stroke="#6C6E72" stroke-width="0.426" stroke-miterlimit="10" d="M171.571,36.288
			c-0.428,0-0.639,2.748-1.064,2.748"/>
		<path fill="none" stroke="#2D2C2D" stroke-width="0.426" stroke-miterlimit="10" d="M170.505,36.288
			c0.426,0,0.642,2.748,1.068,2.748"/>
	</g>
	<polygon fill="#3B3B3E" points="216,45.482 216,48.884 216,52.283 216,53.575 216,55.988 216,59.693 189.17,59.693 189.17,55.988 
		184.696,55.988 184.696,52.283 176.675,52.283 176.675,45.482 	"/>
	<polygon fill="#8E939A" points="47.639,55.236 47.639,47.275 14.967,47.275 6.743,55.236 	"/>
	<polygon fill="#A5AAB1" points="146.595,41.523 146.595,50.434 49.593,50.434 5.272,50.434 5.272,41.523 	"/>
	<rect x="2.141" y="41.523" fill="#303032" width="168.521" height="4.26"/>
	<rect x="101.133" y="43.652" fill="#B0B5BC" width="22.436" height="7.883"/>
	
		<line fill="none" stroke="#C2C6D4" stroke-width="0.8888" stroke-miterlimit="10" x1="119.877" y1="43.652" x2="119.877" y2="51.535"/>
	
		<line fill="none" stroke="#C2C6D4" stroke-width="0.8888" stroke-miterlimit="10" x1="105.394" y1="43.652" x2="105.394" y2="51.535"/>
	<polygon fill="#8E939A" points="180.934,43.652 146.288,43.652 138.62,50.895 138.62,59.414 176.675,59.414 176.675,51.535 
		180.934,47.275 	"/>
	<g>
		<circle fill="#2A292A" cx="37.627" cy="56.291" r="8.423"/>
		<circle fill="#6A7E88" cx="37.626" cy="56.291" r="5.857"/>
		<circle fill="#5C5D60" cx="37.627" cy="56.291" r="5.272"/>
		<circle fill="#B4BDC4" cx="37.626" cy="56.291" r="1.054"/>
		<circle fill="#B4BDC4" cx="37.627" cy="56.291" r="3.704"/>
		<circle fill="#DBDBDB" cx="37.626" cy="56.111" r="1.351"/>
	</g>
	<g>
		<circle fill="#2A292A" cx="18.671" cy="56.291" r="8.424"/>
		<circle fill="#6A7E88" cx="18.671" cy="56.291" r="5.857"/>
		<circle fill="#5C5D60" cx="18.671" cy="56.291" r="5.271"/>
		<circle fill="#B4BDC4" cx="18.67" cy="56.291" r="1.053"/>
		<circle fill="#B4BDC4" cx="18.671" cy="56.291" r="3.704"/>
		<circle fill="#DBDBDB" cx="18.67" cy="56.111" r="1.35"/>
	</g>
	<g>
		<circle fill="#2A292A" cx="169.255" cy="56.291" r="8.423"/>
		<circle fill="#6A7E88" cx="169.255" cy="56.291" r="5.857"/>
		<circle fill="#5C5D60" cx="169.256" cy="56.291" r="5.271"/>
		<circle fill="#B4BDC4" cx="169.256" cy="56.291" r="1.055"/>
		<circle fill="#B4BDC4" cx="169.256" cy="56.291" r="3.704"/>
		<circle fill="#DBDBDB" cx="169.257" cy="56.111" r="1.35"/>
	</g>
	<g>
		<circle fill="#2A292A" cx="217.385" cy="56.291" r="8.423"/>
		<circle fill="#6A7E88" cx="217.385" cy="56.291" r="5.857"/>
		<circle fill="#5C5D60" cx="217.384" cy="56.291" r="5.272"/>
		<circle fill="#B4BDC4" cx="217.385" cy="56.291" r="1.055"/>
		<circle fill="#B4BDC4" cx="217.384" cy="56.291" r="3.704"/>
		<circle fill="#DBDBDB" cx="217.385" cy="56.111" r="1.352"/>
	</g>
	<g>
		<circle fill="#2A292A" cx="150.299" cy="56.291" r="8.423"/>
		<circle fill="#6A7E88" cx="150.299" cy="56.291" r="5.858"/>
		<circle fill="#5C5D60" cx="150.3" cy="56.291" r="5.271"/>
		<circle fill="#B4BDC4" cx="150.3" cy="56.291" r="1.054"/>
		<circle fill="#B4BDC4" cx="150.299" cy="56.291" r="3.704"/>
		<circle fill="#DBDBDB" cx="150.3" cy="56.111" r="1.35"/>
	</g>
	<rect x="196.834" y="48.766" fill="#4F4F52" width="8.729" height="10.648"/>
	
		<line fill="#C2C6D4" stroke="#C2C6D4" stroke-width="0.852" stroke-miterlimit="10" x1="205.563" y1="52.587" x2="196.834" y2="52.587"/>
	
		<line fill="#C2C6D4" stroke="#C2C6D4" stroke-width="0.852" stroke-miterlimit="10" x1="205.563" y1="56.111" x2="196.834" y2="56.111"/>
	<polyline fill="#DAE5C7" points="191.816,40.383 192.432,40.657 237.157,42.371 237.157,37.264 192.432,38.98 193.048,39.251 	"/>
	<path opacity="0.5" fill="#DAE5C7" d="M193.89,37.441L193,37.049l38.867-2.94c0,0,5.29,2.225,5.29,2.728c0,0.428,0,4.156,0,4.156
		L193,39.465l-0.89-0.393"/>
	<polygon fill="#D1E2E8" points="214.296,29.275 210.013,16.309 197.164,16.309 197.898,29.289 	"/>
	<rect x="197.473" y="34.55" fill="#343335" width="0.853" height="2.78"/>
	<g>
		<rect x="197.898" y="32.003" fill="#343335" width="3.862" height="0.51"/>
		<rect x="197.898" y="31.117" fill="#343335" width="1.931" height="0.886"/>
	</g>
	<rect x="177.679" y="51.535" fill="#5C5D60" width="1.556" height="1.052"/>
	<rect x="173.043" y="3.184" fill="#455863" width="2.487" height="45.502"/>
	<rect x="2.141" y="26.669" fill="#A9754C" width="163.468" height="3.288"/>
	<rect x="5.272" y="16.309" fill="#95582A" width="160.336" height="3.29"/>
	<rect x="5.272" y="7.939" fill="#95582A" width="160.336" height="4.996"/>
	<g>
		<rect x="0.402" y="35.747" fill="#834011" width="165.206" height="3.289"/>
		<rect x="0.402" y="28.125" fill="#834011" width="165.206" height="5.189"/>
	</g>
	<rect x="5.272" y="9.061" fill="#A9754C" width="160.336" height="6.896"/>
	<rect x="0.402" y="17.004" fill="#A9754C" width="165.206" height="5.19"/>
	<rect x="126.549" y="3.184" fill="#455863" width="2.489" height="43.444"/>
	<rect x="25.946" y="3.184" fill="#455863" width="2.486" height="43.444"/>
	
		<line fill="none" stroke="#455863" stroke-width="1.7039" stroke-miterlimit="10" x1="243.723" y1="7.061" x2="169.256" y2="7.061"/>
</g>
</svg>
