<?xml version="1.0" encoding="utf-8"?>
<!-- Generator: Adobe Illustrator 15.0.0, SVG Export Plug-In . SVG Version: 6.00 Build 0)  -->
<!DOCTYPE svg PUBLIC "-//W3C//DTD SVG 1.1//EN" "http://www.w3.org/Graphics/SVG/1.1/DTD/svg11.dtd">
<svg version="1.1" id="Слой_1" xmlns="http://www.w3.org/2000/svg" xmlns:xlink="http://www.w3.org/1999/xlink" x="0px" y="0px"
	 width="3995px" height="1100px" viewBox="0 0 3995 1100" enable-background="new 0 0 3995 1100" xml:space="preserve">
<g opacity="0.5">
	<g>
		<rect x="1777.92" y="705.869" fill="#FFDD15" width="7.902" height="17.063"/>
		<line fill="#FFDD15" x1="1785.822" y1="712.021" x2="1778.199" y2="712.021"/>
	</g>
	<g>
		<rect x="1763.258" y="705.869" fill="#FFDD15" width="14.957" height="17.063"/>
	</g>
	<g>
		<rect x="1755.354" y="705.869" fill="#FFDD15" width="7.904" height="17.063"/>
		<line fill="#FFDD15" x1="1778.215" y1="712.021" x2="1755.494" y2="712.021"/>
	</g>
</g>
<rect x="2280.086" y="684.381" opacity="0.5" fill="#FFDD15" width="24.564" height="27.396"/>
<rect x="2362.16" y="715.578" opacity="0.5" fill="#FFDD15" width="29.102" height="27.397"/>
<rect x="2448.256" y="749.053" opacity="0.5" fill="#FFDD15" width="24.564" height="27.396"/>
<rect x="2486.303" y="614.226" opacity="0.5" fill="#FFDD15" width="7.693" height="7.266"/>
<rect x="2474.551" y="614.226" opacity="0.5" fill="#FFDD15" width="10.471" height="7.266"/>
<rect x="2398.539" y="543.565" opacity="0.5" fill="#FFDD15" width="7.693" height="7.266"/>
<rect x="2398.539" y="512.583" opacity="0.5" fill="#FFDD15" width="7.693" height="7.264"/>
<rect x="2364.779" y="543.565" opacity="0.5" fill="#FFDD15" width="18.59" height="7.266"/>
<rect x="2386.787" y="543.565" opacity="0.5" fill="#FFDD15" width="10.471" height="7.266"/>
<rect x="2422.686" y="543.565" opacity="0.5" fill="#FFDD15" width="7.691" height="7.266"/>
<rect x="2436.895" y="585.413" opacity="0.5" fill="#FFDD15" width="10.471" height="7.266"/>
<rect x="2436.895" y="574.729" opacity="0.5" fill="#FFDD15" width="10.471" height="7.266"/>
<rect x="2386.787" y="512.583" opacity="0.5" fill="#FFDD15" width="10.471" height="7.264"/>
<g opacity="0.5">
	<g>
		<rect x="1975.109" y="701.265" fill="#FFDD15" width="9.525" height="20.57"/>
		<line fill="#FFDD15" x1="1975.109" y1="708.678" x2="1984.303" y2="708.678"/>
	</g>
	<g>
		<rect x="1984.287" y="701.265" fill="#FFDD15" width="18.021" height="20.57"/>
	</g>
	<g>
		<rect x="2002.309" y="701.265" fill="#FFDD15" width="9.533" height="20.57"/>
		<line fill="#FFDD15" x1="1984.287" y1="708.678" x2="2011.672" y2="708.678"/>
	</g>
</g>
<g opacity="0.5">
	<g>
		<rect x="2096.549" y="790.729" fill="#FFDD15" width="9.531" height="20.56"/>
		<line fill="#FFDD15" x1="2106.08" y1="798.143" x2="2096.889" y2="798.143"/>
	</g>
	<g>
		<rect x="2073.256" y="790.729" fill="#FFDD15" width="23.65" height="20.56"/>
	</g>
	<g>
		<rect x="2063.723" y="790.729" fill="#FFDD15" width="9.533" height="20.56"/>
		<line fill="#FFDD15" x1="2073.084" y1="798.143" x2="2063.895" y2="798.143"/>
	</g>
</g>
<g opacity="0.5">
	<g>
		<rect x="1881.631" y="701.265" fill="#FFDD15" width="9.529" height="20.57"/>
		<line fill="#FFDD15" x1="1881.631" y1="708.678" x2="1890.822" y2="708.678"/>
	</g>
	<g>
		<rect x="1890.797" y="701.265" fill="#FFDD15" width="23.658" height="20.57"/>
	</g>
	<g>
		<rect x="1914.455" y="701.265" fill="#FFDD15" width="9.533" height="20.57"/>
		<line fill="#FFDD15" x1="1914.625" y1="708.678" x2="1923.818" y2="708.678"/>
	</g>
</g>
<g opacity="0.5">
	<rect x="1938.77" y="701.887" fill="#FFDD15" width="14.428" height="19.337"/>
	<line fill="#FFDD15" x1="1938.77" y1="708.678" x2="1953.197" y2="708.678"/>
</g>
</svg>
