<?xml version="1.0" encoding="utf-8"?>
<!-- Generator: Adobe Illustrator 15.0.0, SVG Export Plug-In . SVG Version: 6.00 Build 0)  -->
<!DOCTYPE svg PUBLIC "-//W3C//DTD SVG 1.1//EN" "http://www.w3.org/Graphics/SVG/1.1/DTD/svg11.dtd">
<svg version="1.1" id="Слой_1" xmlns="http://www.w3.org/2000/svg" xmlns:xlink="http://www.w3.org/1999/xlink" x="0px" y="0px"
	 width="295px" height="94px" viewBox="0 0 295 94" enable-background="new 0 0 295 94" xml:space="preserve">
<polygon fill="#808184" points="2.539,93.815 74.822,93.815 123.685,93.815 143.734,93.815 165.346,93.815 180.529,93.815 
	196.3,93.815 295,93.815 295,65.639 295,59.15 295,35.977 295,32.964 294.931,32.964 284.68,23.204 284.68,15.584 281.566,15.584 
	281.566,14.287 276.7,14.287 276.7,15.584 273.879,15.584 273.879,35.977 262.488,35.977 262.488,59.15 252.756,59.15 
	252.756,31.897 252.756,30.972 252.756,26.522 252.756,7.161 253.059,6.872 246.039,0.186 239.018,6.872 238.737,6.872 
	238.737,26.522 227.837,26.522 227.837,30.972 225.307,30.972 225.307,29.673 213.82,29.673 213.82,30.972 212.848,30.972 
	212.848,24.298 212.848,21.332 204.279,21.332 204.279,24.298 200.581,24.298 200.581,65.639 196.3,65.639 196.3,47.1 180.529,47.1 
	180.529,43.022 180.529,40.612 180.529,39.406 177.805,39.406 177.805,40.612 174.688,40.612 174.688,38.526 166.901,38.526 
	166.901,40.612 165.346,40.612 165.346,45.802 143.734,45.802 138.48,45.802 138.48,43.022 130.693,43.022 130.693,45.802 
	123.685,45.802 123.685,39.406 119.598,39.406 119.598,26.522 80.856,26.522 80.856,39.406 74.822,39.406 74.822,69.716 
	71.123,69.716 71.123,47.1 71.123,39.406 71.123,36.625 66.84,36.625 66.84,39.406 65.477,39.406 65.477,37.645 56.521,37.645 
	56.521,39.406 56.521,43.022 53.795,43.022 53.795,47.1 50.487,47.1 50.487,22.815 50.487,11.876 45.23,11.876 45.23,9.838 
	29.46,9.838 29.46,22.815 27.711,22.815 27.711,21.888 18.752,21.888 18.752,22.815 12.524,22.815 12.524,43.022 0.26,43.022 
	0.26,74.351 "/>
</svg>
