<?xml version="1.0" encoding="utf-8"?>
<!-- Generator: Adobe Illustrator 15.0.0, SVG Export Plug-In . SVG Version: 6.00 Build 0)  -->
<!DOCTYPE svg PUBLIC "-//W3C//DTD SVG 1.1//EN" "http://www.w3.org/Graphics/SVG/1.1/DTD/svg11.dtd">
<svg version="1.1" id="Слой_1" xmlns="http://www.w3.org/2000/svg" xmlns:xlink="http://www.w3.org/1999/xlink" x="0px" y="0px"
	 width="3995px" height="1100px" viewBox="0 0 3995 1100" enable-background="new 0 0 3995 1100" xml:space="preserve">
<rect x="3342.865" y="760.336" opacity="0.5" fill="#FFDD15" width="44.98" height="38.256"/>
<rect x="3124.418" y="760.336" opacity="0.5" fill="#FFDD15" width="44.984" height="38.256"/>
<g opacity="0.5">
	<rect x="3288.492" y="707.512" fill="#FFDD15" width="18.611" height="17.578"/>
	<rect x="3288.492" y="656.766" fill="#FFDD15" width="18.611" height="17.579"/>
	<rect x="3288.492" y="631.948" fill="#FFDD15" width="18.611" height="17.578"/>
	<rect x="3310.205" y="631.948" fill="#FFDD15" width="25.338" height="17.578"/>
</g>
<g opacity="0.5">
	<rect x="3396.549" y="707.512" fill="#FFDD15" width="18.613" height="17.578"/>
	<rect x="3396.549" y="631.948" fill="#FFDD15" width="18.613" height="17.578"/>
	<rect x="3417.748" y="731.812" fill="#FFDD15" width="18.613" height="17.578"/>
	<rect x="3417.748" y="631.948" fill="#FFDD15" width="18.613" height="17.578"/>
</g>
<g opacity="0.5">
	<rect x="3178.107" y="707.512" fill="#FFDD15" width="18.609" height="17.578"/>
	<rect x="3178.107" y="682.615" fill="#FFDD15" width="18.609" height="17.578"/>
	<rect x="3178.107" y="631.948" fill="#FFDD15" width="18.609" height="17.578"/>
	<rect x="3199.818" y="631.948" fill="#FFDD15" width="25.338" height="17.578"/>
</g>
<polygon opacity="0.5" fill="#FFDD15" points="3528.508,597.423 3516.264,597.423 3516.264,591.526 3528.508,589.101 "/>
<polygon opacity="0.5" fill="#FFDD15" points="3570.662,597.423 3558.418,597.423 3558.418,591.526 3570.662,589.101 "/>
<polygon opacity="0.5" fill="#FFDD15" points="3556.957,597.423 3544.713,597.423 3544.713,594.737 3556.957,592.05 "/>
<polygon opacity="0.5" fill="#FFDD15" points="3543.514,597.423 3531.518,597.423 3531.518,597.423 3543.514,595.343 "/>
<rect x="3504.539" y="617.925" opacity="0.5" fill="#FFDD15" width="9.793" height="10.922"/>
<rect x="3519.338" y="617.925" opacity="0.5" fill="#FFDD15" width="9.793" height="10.922"/>
<rect x="3532.742" y="617.925" opacity="0.5" fill="#FFDD15" width="7.551" height="10.922"/>
<rect x="3489.74" y="634.839" opacity="0.5" fill="#FFDD15" width="9.793" height="10.922"/>
<rect x="3504.539" y="634.839" opacity="0.5" fill="#FFDD15" width="9.793" height="10.922"/>
<rect x="3489.74" y="668.761" opacity="0.5" fill="#FFDD15" width="9.793" height="14.336"/>
<rect x="3477.162" y="672.735" opacity="0.5" fill="#FFDD15" width="7.551" height="9.801"/>
<rect x="3305.672" y="593.436" opacity="0.5" fill="#FFDD15" width="25.334" height="17.584"/>
<rect x="3305.672" y="447.93" opacity="0.5" fill="#FFDD15" width="25.334" height="17.579"/>
<rect x="3255.377" y="326.678" opacity="0.5" fill="#FFDD15" width="18.615" height="17.579"/>
<rect x="3225.531" y="569.188" opacity="0.5" fill="#FFDD15" width="18.613" height="17.578"/>
<rect x="3339.279" y="544.937" opacity="0.5" fill="#FFDD15" width="44.98" height="17.578"/>
<rect x="3255.377" y="423.683" opacity="0.5" fill="#FFDD15" width="18.615" height="17.578"/>
<rect x="3197.096" y="229.672" opacity="0.5" fill="#FFDD15" width="48.1" height="17.578"/>
<rect x="3339.279" y="350.926" opacity="0.5" fill="#FFDD15" width="18.611" height="17.583"/>
<rect x="3225.531" y="496.436" opacity="0.5" fill="#FFDD15" width="18.613" height="17.579"/>
<rect x="3305.672" y="278.172" opacity="0.5" fill="#FFDD15" width="25.334" height="17.582"/>
<rect x="3769.639" y="742.183" opacity="0.5" fill="#FFDD15" width="43.322" height="16.933"/>
<rect x="3562.422" y="769.654" opacity="0.5" fill="#FFDD15" width="43.313" height="36.853"/>
<rect x="3689.723" y="669.913" opacity="0.5" fill="#FFDD15" width="17.926" height="16.933"/>
<rect x="3662.34" y="669.913" opacity="0.5" fill="#FFDD15" width="24.395" height="16.933"/>
<rect x="3585.656" y="669.913" opacity="0.5" fill="#FFDD15" width="17.926" height="16.933"/>
<rect x="3585.656" y="742.183" opacity="0.5" fill="#FFDD15" width="17.926" height="16.933"/>
<rect x="3565.238" y="669.913" opacity="0.5" fill="#FFDD15" width="17.922" height="16.933"/>
<rect x="3637.438" y="694.812" opacity="0.5" fill="#FFDD15" width="17.922" height="16.929"/>
<rect x="3742.75" y="694.812" opacity="0.5" fill="#FFDD15" width="17.922" height="16.929"/>
<rect x="3715.365" y="694.812" opacity="0.5" fill="#FFDD15" width="24.396" height="16.929"/>
<rect x="3898.6" y="694.812" opacity="0.5" fill="#FFDD15" width="17.926" height="16.929"/>
<rect x="3898.6" y="646.012" opacity="0.5" fill="#FFDD15" width="17.926" height="16.922"/>
<rect x="3871.215" y="694.812" opacity="0.5" fill="#FFDD15" width="24.396" height="16.929"/>
<rect x="3749.338" y="409.154" opacity="0.5" fill="#FFDD15" width="46.328" height="16.933"/>
<rect x="3694.088" y="505.255" opacity="0.5" fill="#FFDD15" width="17.924" height="16.933"/>
<rect x="3640.814" y="435.043" opacity="0.5" fill="#FFDD15" width="17.924" height="16.933"/>
<rect x="3615.418" y="602.851" opacity="0.5" fill="#FFDD15" width="43.32" height="16.923"/>
<rect x="3666.705" y="505.255" opacity="0.5" fill="#FFDD15" width="24.393" height="16.933"/>
<rect x="3666.705" y="578.869" opacity="0.5" fill="#FFDD15" width="24.393" height="16.932"/>
<rect x="3603.215" y="530.079" opacity="0.5" fill="#FFDD15" width="24.404" height="16.933"/>
<rect x="3721.613" y="505.255" opacity="0.5" fill="#FFDD15" width="17.922" height="16.933"/>
<rect x="3721.613" y="602.851" opacity="0.5" fill="#FFDD15" width="17.922" height="16.923"/>
</svg>
