<?xml version="1.0" encoding="utf-8"?>
<!-- Generator: Adobe Illustrator 15.0.0, SVG Export Plug-In . SVG Version: 6.00 Build 0)  -->
<!DOCTYPE svg PUBLIC "-//W3C//DTD SVG 1.1//EN" "http://www.w3.org/Graphics/SVG/1.1/DTD/svg11.dtd">
<svg version="1.1" id="Слой_1" xmlns="http://www.w3.org/2000/svg" xmlns:xlink="http://www.w3.org/1999/xlink" x="0px" y="0px"
	 width="395px" height="86px" viewBox="0 0 395 86" enable-background="new 0 0 395 86" xml:space="preserve">
<path fill="#929497" stroke="#808184" stroke-width="0.4219" stroke-miterlimit="10" d="M-0.007,43.311h2.922v-4.865h1.312V33.58
	h8.762v7.09h6.132v-5.005h3.065v-8.899h2.046v-7.508h3.648v-1.25h4.235v0.834h25.257v-4.311h1.17c0-1.251,2.775-5.005,2.775-5.005
	s4.087,0,5.985,0s3.067,5.005,3.067,5.005h1.313v10.15h5.692V9.804h3.36V8.971h6.133v0.694h1.605V8.554h1.021v1.111h1.314v5.422
	h1.461v-0.974h2.335v0.974h1.313v0.695h2.044v-0.834h3.797v1.251h2.044v22.246h6.715V21.9h0.73v-7.924h2.044v-1.948h1.168v2.085
	h8.614v-1.25h5.256v0.973h1.169v7.787h2.628V3.271h1.461h1.168V0.489h0.877v3.197h1.313V2.018h5.549v1.529h2.337V2.713h1.46v0.695
	h2.191V1.044h1.019V3.13h4.383v55.059h12.847V21.558h2.92V14.05h9.785v-1.948h7.882v42.89h17.814v-4.31h3.505v11.678h4.377V48.733
	h4.529v-5.423h32.996v-5.908h20.44v-9.941H285v9.941h8.029v14.252h2.92V36.221h22.485V13.28h5.257v-2.226h5.256v-1.39h1.605V8.831
	h4.087v0.695h1.317v1.251h1.604v0.835h4.525V32.05h30.518v-1.528h2.919V27.74h0.877v2.781h4.816v1.667h2.484v-0.972h8.905v0.694
	h1.021v4.31h1.168v48.47l-394.95,1.61L-0.007,43.311z"/>
</svg>
