<?xml version="1.0" encoding="utf-8"?>
<!-- Generator: Adobe Illustrator 15.0.0, SVG Export Plug-In . SVG Version: 6.00 Build 0)  -->
<!DOCTYPE svg PUBLIC "-//W3C//DTD SVG 1.1//EN" "http://www.w3.org/Graphics/SVG/1.1/DTD/svg11.dtd">
<svg version="1.1" id="Слой_1" xmlns="http://www.w3.org/2000/svg" xmlns:xlink="http://www.w3.org/1999/xlink" x="0px" y="0px"
	 width="64px" height="23px" viewBox="0 0 64 23" enable-background="new 0 0 64 23" xml:space="preserve">
<g>
	<path fill="#344DFF" d="M0.755,17.229c0,0-1.277-3.801,0-5.32c0,0,0.91-0.426,0.684-0.426l2.418-5.428c0,0-1.232-0.911-1.232-1.367
		c0,0,1.414-0.045,2.281,0c0,0,9.121-2.919,13.043-3.603c3.922-0.686,5.154-0.73,5.154-0.73s10.532-0.685,14.956,1.141
		c4.424,1.823,10.809,5.017,10.809,5.017l2.281,0.82c0,0,2.826,0.228,3.373,0.457c0.547,0.228,5.109,1.14,6.979,2.736
		c0,0,0.91,2.233,1.049,2.37c0.137,0.139,0.637,0.365,0.729,0.777c0.092,0.408,0.822,1.732,0.41,2.689
		c-0.41,0.957-0.502,1.322-0.502,1.322s0.184,0.639-0.043,0.959c-0.229,0.318-0.594,0.547-5.109,0.773c0,0,1.461-6.383-5.426-7.023
		c0,0-6.156,0.457-5.564,7.344l-29.78-0.229c0,0,0.594-6.84-5.473-6.977c0,0-5.336,0.502-5.152,5.289L0.755,17.229z"/>
	<g>
		<path fill="#515254" stroke="#231F20" stroke-width="0.2736" stroke-miterlimit="10" d="M10.103,5.051c0,0-0.82-0.593,0.549-1.004
			c1.367-0.409,7.068-1.868,7.068-1.868L14.663,6.92c0,0-1.275,0.087-1.777-0.206C12.384,6.418,10.103,5.051,10.103,5.051z"/>
		<path fill="#515254" stroke="#231F20" stroke-width="0.2736" stroke-miterlimit="10" d="M43.76,5.098c0,0,4.422,2.051,4.332,2.507
			C48,8.062,47.316,8.334,46.951,8.426s-1.543-0.073-1.543-0.073L43.76,5.098z"/>
	</g>
	<path fill="#404041" stroke="#231F20" stroke-width="0.2736" stroke-miterlimit="10" d="M17.72,2.179c0,0,12.541-2.736,19.108,0
		c6.566,2.735,6.932,2.919,6.932,2.919l1.648,3.255L29.862,7.477L14.663,6.92L17.72,2.179z"/>
	<g>
		<path fill="none" stroke="#231F20" stroke-width="0.1459" stroke-miterlimit="10" d="M14.663,6.92
			c-1.32,1.142-0.547,3.969-0.182,4.425c0.365,0.456,2.508,2.508,3.01,3.284s1.643,3.557,1.643,3.557H45.4
			c0,0,1.141-1.23,0.959-5.152c-0.182-3.922-0.82-4.424-0.82-4.424"/>
		<path fill="none" stroke="#231F20" stroke-width="0.1459" stroke-miterlimit="10" d="M28.802,0.856c0,0,2.326,10.033,0.867,17.056
			"/>
	</g>
	<path fill="#515254" stroke="#231F20" stroke-width="0.2736" stroke-miterlimit="10" d="M29.03,0.963c0,0,0.629,5.261,0.832,6.514"
		/>
	<circle fill="#D8D9DA" stroke="#231F20" stroke-width="1.1066" stroke-miterlimit="10" cx="52.788" cy="17.865" r="4.331"/>
	<g>
		<path fill="#231F20" d="M52.088,15.58l0.664,1.092h0.236l0.477-1.092C53.465,15.58,52.469,15.344,52.088,15.58z"/>
		<path fill="#231F20" d="M54.299,15.967l-0.303,1.24l0.168,0.17l1.107-0.438C55.271,16.939,54.734,16.068,54.299,15.967z"/>
		<path fill="#231F20" d="M51.309,16.014l0.301,1.242l-0.166,0.168l-1.107-0.438C50.336,16.986,50.871,16.115,51.309,16.014z"/>
		<path fill="#231F20" d="M52.088,20.318l0.664-1.092h0.236l0.477,1.092C53.465,20.318,52.469,20.555,52.088,20.318z"/>
		<path fill="#231F20" d="M54.299,19.932l-0.303-1.242l0.168-0.166l1.107,0.436C55.271,18.959,54.734,19.83,54.299,19.932z"/>
		<path fill="#231F20" d="M51.309,19.885l0.301-1.242l-0.166-0.168l-1.107,0.436C50.336,18.91,50.871,19.783,51.309,19.885z"/>
		<circle fill="#231F20" cx="53.464" cy="17.377" r="0.226"/>
		<circle fill="#231F20" cx="52.551" cy="17.377" r="0.227"/>
		<circle fill="#231F20" cx="52.906" cy="18.701" r="0.227"/>
		<circle fill="#231F20" cx="52.206" cy="18.25" r="0.226"/>
		<circle fill="#231F20" cx="53.69" cy="18.25" r="0.226"/>
	</g>
	<circle fill="#D8D9DA" stroke="#231F20" stroke-width="1.1066" stroke-miterlimit="10" cx="12.007" cy="17.865" r="4.33"/>
	<g>
		<path fill="#231F20" d="M11.308,15.58l0.664,1.092h0.236l0.475-1.092C12.683,15.58,11.688,15.344,11.308,15.58z"/>
		<path fill="#231F20" d="M13.519,15.967l-0.305,1.24l0.17,0.17l1.105-0.438C14.489,16.939,13.954,16.068,13.519,15.967z"/>
		<path fill="#231F20" d="M10.526,16.014l0.303,1.242l-0.168,0.168l-1.107-0.438C9.554,16.986,10.091,16.115,10.526,16.014z"/>
		<path fill="#231F20" d="M11.308,20.318l0.664-1.092h0.236l0.475,1.092C12.683,20.318,11.688,20.555,11.308,20.318z"/>
		<path fill="#231F20" d="M13.519,19.932l-0.305-1.242l0.17-0.166l1.105,0.436C14.489,18.959,13.954,19.83,13.519,19.932z"/>
		<path fill="#231F20" d="M10.526,19.885l0.303-1.242l-0.168-0.168L9.554,18.91C9.554,18.91,10.091,19.783,10.526,19.885z"/>
		<circle fill="#231F20" cx="12.684" cy="17.377" r="0.226"/>
		<circle fill="#231F20" cx="11.77" cy="17.377" r="0.226"/>
		<circle fill="#231F20" cx="12.125" cy="18.701" r="0.226"/>
		<circle fill="#231F20" cx="11.426" cy="18.25" r="0.226"/>
		<circle fill="#231F20" cx="12.908" cy="18.25" r="0.226"/>
	</g>
	<path fill="#F37521" stroke="#808184" stroke-width="0.1824" stroke-miterlimit="10" d="M56.344,8.894
		c-0.531,0.101-1.152,0.275-0.529,0.489c0.973,0.334,4.105,2.341,4.469,2.585c0.037,0.025,0.074,0.049,0.109,0.074
		C59.633,10.754,57.412,9.462,56.344,8.894z"/>
	<path fill="#E2E3E4" stroke="#808184" stroke-width="0.1824" stroke-miterlimit="10" d="M61.066,11.124
		c-0.141-0.051-0.305-0.113-0.508-0.189c-0.988-0.375-1.213-0.758-1.219-1.023c-0.656-0.37-1.455-0.746-2.432-1.104
		c0,0-0.27,0.031-0.564,0.087c1.068,0.568,3.289,1.86,4.049,3.149c0.326,0.219,0.643,0.436,1.107,0.51c0.518,0.084,0.699,0,0.699,0
		S61.984,11.945,61.066,11.124z"/>
	<path fill="#404041" d="M60.559,10.934c0.203,0.076,0.367,0.139,0.508,0.189c-0.416-0.373-0.977-0.789-1.727-1.213
		C59.346,10.176,59.57,10.559,60.559,10.934z"/>
	<path fill="#F6F9FA" stroke="#808184" stroke-width="0.1824" stroke-miterlimit="10" d="M1.312,10.763l1.381-0.148l0.389-0.798
		c0.08-0.258,0.16-0.483,0.242-0.686l-1.645-0.09C1.522,9.72,1.396,10.344,1.312,10.763z"/>
	<path fill="#D1E2E8" stroke="#808184" stroke-width="0.1824" stroke-miterlimit="10" d="M3.03,5.335
		C2.792,5.518,2.548,6.047,2.319,6.716l1.742,1.208L2.319,6.716C2.083,7.414,1.86,8.262,1.679,9.042l1.645,0.09
		C3.829,7.887,4.358,7.66,4.671,7.656c0.16-0.399,0.268-0.68,0.279-0.723C4.997,6.764,3.03,5.335,3.03,5.335z"/>
	<path fill="#B02A30" stroke="#808184" stroke-width="0.1824" stroke-miterlimit="10" d="M3.081,9.817l-0.389,0.798l-1.381,0.148
		c-0.064,0.332-0.1,0.536-0.1,0.536s1.549,0.183,1.818,0c0.201-0.137,1.156-2.436,1.641-3.644C4.308,7.66,3.653,7.962,3.081,9.817z"
		/>
</g>
</svg>
