<?xml version="1.0" encoding="utf-8"?>
<!-- Generator: Adobe Illustrator 15.0.0, SVG Export Plug-In . SVG Version: 6.00 Build 0)  -->
<!DOCTYPE svg PUBLIC "-//W3C//DTD SVG 1.1//EN" "http://www.w3.org/Graphics/SVG/1.1/DTD/svg11.dtd">
<svg version="1.1" id="Слой_1" xmlns="http://www.w3.org/2000/svg" xmlns:xlink="http://www.w3.org/1999/xlink" x="0px" y="0px"
	 width="3995px" height="1100px" viewBox="0 0 3995 1100" enable-background="new 0 0 3995 1100" xml:space="preserve">
<g>
	<path fill="#FFFFFF" d="M809.672,501.082c0,0,7.924,16.182,7.924,28.234s-1.002,36.161-1.574,39.731s-0.572,23.586-0.572,23.586
		l-4.328-0.893c0,0,3.936-60.078,2.791-65.101s-8.482-25.559-8.482-25.559S808.527,500.41,809.672,501.082z"/>
	<path fill="#3B97D3" d="M806.658,501.082c0,0,7.924,16.182,7.924,28.234s-0.781,36.161-1.229,39.731
		c-0.445,3.57-0.445,23.586-0.445,23.586l-1.787-0.893c0,0,2.791-60.524,1.898-65.547s-7.924-25.112-7.924-25.112
		S805.766,500.41,806.658,501.082z"/>
	<path fill="none" stroke="#3B97D3" stroke-miterlimit="10" d="M809.672,501.082c0,0,7.924,16.182,7.924,28.234
		s-0.781,36.161-1.229,39.731c-0.445,3.57-0.445,23.586-0.445,23.586l-1.787-0.893c0,0,2.791-60.524,1.898-65.547
		s-7.924-25.112-7.924-25.112S808.779,500.41,809.672,501.082z"/>
</g>
<g>
	<path fill="#FFFFFF" d="M737.443,408.997c0,0,7.924,16.182,7.924,28.234s-1.002,36.161-1.574,39.731s-0.572,3.57-0.572,3.57
		l-4.326-0.893c0,0,3.934-40.063,2.789-45.085s-8.48-25.559-8.48-25.559S736.299,408.325,737.443,408.997z"/>
	<path fill="#3B97D3" d="M734.43,408.997c0,0,7.924,16.182,7.924,28.234s-0.781,36.161-1.227,39.731
		c-0.447,3.57-0.447,3.57-0.447,3.57l-1.785-0.893c0,0,2.789-40.509,1.896-45.531s-7.924-25.112-7.924-25.112
		S733.537,408.325,734.43,408.997z"/>
	<path fill="none" stroke="#3B97D3" stroke-miterlimit="10" d="M737.443,408.997c0,0,7.924,16.182,7.924,28.234
		s-0.781,36.161-1.227,39.731c-0.447,3.57-0.447,3.57-0.447,3.57l-1.785-0.893c0,0,2.789-40.509,1.896-45.531
		s-7.924-25.112-7.924-25.112S736.551,408.325,737.443,408.997z"/>
</g>
<g>
	<g>
		<rect x="298" y="939" opacity="0.5" fill="#EFF5DC" width="150" height="150"/>
		<rect x="149" y="189" opacity="0.5" fill="#EFF5DC" width="150" height="150"/>
		<rect x="-1" y="489" opacity="0.95" fill="#E1E9D1" width="450" height="300"/>
		<g opacity="0.2">
			<line fill="#E1E9D1" x1="297" y1="940" x2="147" y2="940"/>
			<line fill="#E1E9D1" x1="297" y1="945" x2="147" y2="945"/>
			<line fill="#E1E9D1" x1="297" y1="950" x2="147" y2="950"/>
			<line fill="#E1E9D1" x1="297" y1="955" x2="147" y2="955"/>
			<line fill="#E1E9D1" x1="297" y1="960" x2="147" y2="960"/>
			<line fill="#E1E9D1" x1="297" y1="965" x2="147" y2="965"/>
			<line fill="#E1E9D1" x1="297" y1="970" x2="147" y2="970"/>
			<line fill="#E1E9D1" x1="297" y1="975" x2="147" y2="975"/>
			<line fill="#E1E9D1" x1="297" y1="980" x2="147" y2="980"/>
			<line fill="#E1E9D1" x1="297" y1="985" x2="147" y2="985"/>
			<line fill="#E1E9D1" x1="297" y1="990" x2="147" y2="990"/>
			<line fill="#E1E9D1" x1="297" y1="995" x2="147" y2="995"/>
			<line fill="#E1E9D1" x1="297" y1="1000" x2="147" y2="1000"/>
			<line fill="#E1E9D1" x1="297" y1="1005" x2="147" y2="1005"/>
			<line fill="#E1E9D1" x1="297" y1="1010" x2="147" y2="1010"/>
			<line fill="#E1E9D1" x1="297" y1="1015" x2="147" y2="1015"/>
			<line fill="#E1E9D1" x1="297" y1="1020" x2="147" y2="1020"/>
			<line fill="#E1E9D1" x1="297" y1="1025" x2="147" y2="1025"/>
			<line fill="#E1E9D1" x1="297" y1="1030" x2="147" y2="1030"/>
			<line fill="#E1E9D1" x1="297" y1="1035" x2="147" y2="1035"/>
			<line fill="#E1E9D1" x1="297" y1="1040" x2="147" y2="1040"/>
			<line fill="#E1E9D1" x1="297" y1="1045" x2="147" y2="1045"/>
			<line fill="#E1E9D1" x1="297" y1="1050" x2="147" y2="1050"/>
			<line fill="#E1E9D1" x1="297" y1="1055" x2="147" y2="1055"/>
			<line fill="#E1E9D1" x1="297" y1="1060" x2="147" y2="1060"/>
			<line fill="#E1E9D1" x1="297" y1="1065" x2="147" y2="1065"/>
			<line fill="#E1E9D1" x1="297" y1="1070" x2="147" y2="1070"/>
			<line fill="#E1E9D1" x1="297" y1="1075" x2="147" y2="1075"/>
			<line fill="#E1E9D1" x1="297" y1="1080" x2="147" y2="1080"/>
			<line fill="#E1E9D1" x1="297" y1="1085" x2="147" y2="1085"/>
			<line fill="#E1E9D1" x1="297" y1="1090" x2="147" y2="1090"/>
		</g>
		<rect x="-1" y="639" fill="#E1E9D1" width="150" height="150"/>
		<rect x="449" y="639" fill="#E1E9D1" width="150" height="150"/>
		<rect x="599" y="489" fill="#E1E9D1" width="150" height="150"/>
		<rect x="298" y="39" opacity="0.8" fill="#E1E9D1" width="150" height="150"/>
		<rect x="449" y="789" opacity="0.9" fill="#E1E9D1" width="150" height="150"/>
		<rect x="449" y="489" opacity="0.9" fill="#E1E9D1" width="150" height="150"/>
		<rect x="449" y="339" opacity="0.95" fill="#E1E9D1" width="150" height="150"/>
	</g>
	<g>
		<rect x="-0.934" y="623.877" fill="none" width="599.491" height="161.5"/>
		<text transform="matrix(1 0 0 1 39.0664 639.2363)"><tspan x="0" y="0" fill="#434343" font-family="'PTSerif-Regular'" font-size="16">Building denser neighbourhoods and communities results in a more efficient </tspan><tspan x="0" y="24.801" fill="#434343" font-family="'PTSerif-Regular'" font-size="16">use of energy and space.  Over 65% of the region’s future growth is planned </tspan><tspan x="0" y="49.601" fill="#434343" font-family="'PTSerif-Regular'" font-size="16">for higher density urban areas.</tspan></text>
	</g>
	<g>
		<g>
			<text transform="matrix(1 0 0 1 37.5459 583.9541)" fill="#434343" font-family="'Oswald'" font-size="48">Urban Density </text>
		</g>
	</g>
</g>
</svg>
