<?xml version="1.0" encoding="utf-8"?>
<!-- Generator: Adobe Illustrator 16.0.0, SVG Export Plug-In . SVG Version: 6.00 Build 0)  -->
<!DOCTYPE svg PUBLIC "-//W3C//DTD SVG 1.1//EN" "http://www.w3.org/Graphics/SVG/1.1/DTD/svg11.dtd">
<svg version="1.1" id="Layer_1" xmlns="http://www.w3.org/2000/svg" xmlns:xlink="http://www.w3.org/1999/xlink" x="0px" y="0px"
	 width="945.461px" height="804.008px" viewBox="0 0 945.461 804.008" enable-background="new 0 0 945.461 804.008"
	 xml:space="preserve">
<g>
	<path fill="none" stroke="#C03A2B" stroke-width="3" stroke-linecap="square" stroke-linejoin="round" stroke-miterlimit="10" d="
		M658.657,429.763c0,2.635,10.523,5.271,10.523,9.228v5.273l-3.947,1.32c3.947,9.229,5.263,14.508,15.787,14.508
		c5.262,0,9.208,7.912,11.843,11.866c6.577,0,6.577-5.273,14.469-5.273c5.264,9.23,7.896,11.87,14.476,19.779
		c5.26,9.234,5.26,18.463,10.522,27.694c6.578,0,6.578-3.954,13.155-3.954c3.946,3.954,5.263,9.23,7.894,14.504
		c5.262,0,11.842,2.64,18.418,2.64c7.894,11.867,38.148,26.373,40.779,42.201c0,1.315,26.311,15.822,27.627,15.822
		c9.207,14.508,1.316,10.551,17.102,18.465c0,3.957,30.258,27.693,30.258,27.693v18.457c0,11.871,7.889,18.464,10.521,29.014
		c1.316,3.957,9.208,10.551,13.158,10.551c1.317,2.636,11.841,9.229,13.156,10.549c-84.193,14.505-282.836,36.926-361.77,32.97
		c-1.314-3.959-3.946-5.278-6.575-5.278c-1.317,5.278-1.317,9.234-2.631,14.508c-6.577,0,1.313-13.188,1.313-15.824
		c-6.573-9.233-7.891-5.275-7.891-21.097c-10.523,0-19.731-1.319-30.255-2.642c-2.633-3.956-13.156-14.502-2.633-14.502
		c2.633,1.316,6.578,7.91,6.578,9.23c13.158,0-1.315-10.551-2.631-11.871V668.45c-1.314-2.636-3.947-2.636-5.26-1.316
		c0,3.953,0,9.23,0,13.188c-3.945,3.956-23.681,7.913-13.157-10.551c-3.948-10.55-10.523,3.956-11.84,6.594
		c-5.262-13.188-7.894-11.871,0-15.827c0-5.273,5.257-17.142,5.257-18.457c-3.941,0-10.521,0-10.521,6.59
		c-2.633,9.23-3.948,2.637-6.579-1.32c-7.892,0,11.843-17.14-5.262-7.91c0,1.32-2.63,5.277-5.259,5.277
		c1.316,0-17.106-13.188-15.789-6.594c-2.627,3.957-21.05,2.637-21.05-5.277c7.894-2.636,19.732-1.316,19.732-11.866
		c-2.626,0-15.785,5.274-19.732,5.274c0-7.91-5.257-7.91-11.839-9.232c0-9.229-3.946-5.276-17.103-5.276
		c-1.314,9.234-28.941,1.32-21.046-7.909c0,0,17.101,5.272,17.101,0c-17.101-5.277-7.893-5.277-24.996-5.277
		c-5.259-14.507,6.58-5.273,11.844-10.55c-6.578-1.317-11.844,0-11.844-6.594c2.634-1.317,7.895-1.317,11.844-1.317
		c0-7.913-2.631-13.187,10.523-11.867c3.946-1.319,5.261,0,5.261-5.275c-9.207,0-10.524,2.64-15.785-2.636
		c-10.526,0,0,5.275-13.158,10.545c0-6.59-3.945-6.59-5.263-11.863c-1.314-5.276,11.842-18.462,14.474-19.784
		c13.155,0,9.206-15.823,24.995-6.593c0-10.55-17.104-13.186-5.262-19.778c6.577-10.55,9.205-10.55,3.946-14.506
		c-6.578,11.871-21.046,21.099-31.573,27.691c-6.575-11.866-5.26-30.326-17.1-3.957c-2.633,0,7.891-27.69,7.891-30.328
		c-5.26-7.912-2.631-2.637-13.157-2.637c-3.947-5.275-1.317-7.913-1.317-17.146c-3.947-11.868-21.049-7.911-10.522-25.055
		c17.101,17.144,7.889,0,26.307,9.229c2.631-3.955,2.631-7.912,5.261-13.186c0,0-35.519,17.143-27.623-1.32
		c0-9.231,1.312-7.914,5.26-22.416c-2.633-1.319-3.947-6.593-9.205-5.277c9.205,10.549-3.947,18.462-11.841,22.419
		c-3.947,5.274-1.316,9.231-5.264,14.508c-3.945,0-14.471-13.191-14.471-17.147c-7.89-7.908-10.522-13.186-10.522-22.416
		c5.261-6.594,13.155-2.638,13.155-11.87c-7.89,0-10.523,1.318-17.103,1.318c-3.946-5.277,0-9.233-7.89-9.233
		c0-10.55,3.944-17.143,14.469-19.78c0-13.184-2.632-9.23,5.263-13.184c10.522,0,13.155-6.594,3.943-6.594
		c-2.626-1.32,3.948-10.55,5.265-11.871c-7.892-2.635-7.892,5.276-7.892-11.869c-1.316-5.274,0-14.506,3.944-18.462
		c0-7.912,0-17.143-1.317-25.055c-11.838,0-5.261,0-14.468-6.596c-3.946-9.229-14.475-10.549-21.049-17.143
		c-14.471-14.505-22.364-5.275-26.312-38.244c0-6.594-13.154-43.521-21.049-55.389c0-17.143-11.838-44.838-22.363-56.709
		c-9.209-9.229-14.471-7.911-14.471-22.418c-14.47-17.143-14.47-5.274-14.47-25.054c2.629-3.957-19.734-22.419-18.417-22.419
		c-21.049,0-22.366,17.144-35.523,29.013c-9.206,0-18.415,7.912-30.254,6.593c0-5.275,5.261-17.144,1.316-22.418
		c-9.208-9.232-10.524-21.101-18.418-30.333c-5.262-5.275-5.262-10.55-9.207-14.504c190.751,36.925,388.076,58.025,576.2,43.522
		L658.657,429.763z M187.698,424.484c0-15.826-7.892-15.826-1.315-32.971c5.262,0,9.208,3.957,14.471,3.957
		c0,10.548,3.947,3.957,11.84,3.957c6.577,5.275,1.316,6.591,10.523,6.591c5.262,0,6.578-6.591,10.525-6.591
		c1.312,2.641,1.312,6.591,1.312,9.231c-1.312,1.321-7.891,10.553-7.891,11.87c-6.577,15.827-3.947,11.869-3.947,23.735
		c-3.946,9.234-3.946,6.598-11.839,6.598c-1.315,1.316-2.631,2.637-3.946,3.952c-5.261,0-14.472,2.642-14.472-7.909
		c1.315-5.277,5.263,0,5.263-7.914C194.277,435.033,179.806,436.355,187.698,424.484L187.698,424.484z M200.854,461.41
		c3.947,0,6.579-1.318,10.524-2.641c6.577,0,10.523-3.956,15.786-3.956c0,6.597,0,5.278,1.315,10.552
		c0,3.955,1.316,2.639-2.63,3.955c-2.632-1.316-3.945-3.955-6.578-3.955c-2.631,3.955-1.315,6.593,0,9.232
		c0,3.957,2.633,15.822,5.262,17.141c0,3.96,9.209,9.231,9.209,10.551c0,2.638,1.312,11.869,6.574,13.188
		c3.946,1.321,3.946,0,2.634,6.594c-5.261,0-3.947,0-7.896-3.957c-2.63,0-5.259,0-5.259-2.637c-2.631-2.636-2.631-6.593-2.631-10.55
		c-11.842-15.823-10.524-10.552-22.363-32.968c5.262-2.635,2.631-6.594-3.947-6.594C200.854,465.365,199.538,461.41,200.854,461.41
		L200.854,461.41z M223.218,470.641c-1.313,2.638,0,3.957,1.316,5.274C228.479,471.958,231.109,470.641,223.218,470.641
		L223.218,470.641z M231.109,487.783c-1.313,0-11.839,0-2.63,3.955C232.425,491.738,231.109,491.738,231.109,487.783
		L231.109,487.783z M278.471,419.211c5.262,0,11.84-9.231,3.945-9.231c-3.945-2.641-9.209,0-11.839,2.639
		c0,11.866-1.317,2.636,6.577,2.636C277.155,416.571,278.471,419.211,278.471,419.211 M291.627,437.67
		c0-2.637,1.313-9.228-1.317-10.548c-2.63-5.273,0-6.594,5.263,0c0,3.956,5.259,5.275,6.575,7.911
		c1.317,11.871,7.893,13.187,9.209,17.145c0,5.277,1.315,6.592-2.631,11.87c-3.947,0-3.947-2.638-3.947-5.278
		C303.465,453.498,294.257,440.311,291.627,437.67L291.627,437.67z M311.359,468.004c0,2.637,1.314,2.637,2.63,5.274
		c0,5.276,2.63,6.591-2.63,6.591C308.727,475.915,310.042,473.278,311.359,468.004L311.359,468.004z M325.828,453.498
		c-1.313,2.636-5.26,2.636,2.634,5.271C333.723,450.861,325.828,453.498,325.828,453.498L325.828,453.498z M323.197,470.641v-7.912
		C316.619,461.41,316.619,470.641,323.197,470.641L323.197,470.641z M316.619,491.738c0,6.596,3.946,6.596,3.946,11.869l0,0
		c0,5.276,1.316,6.597,5.262,6.597c1.316-3.956,0-6.597,0-10.551C321.881,495.7,321.881,491.738,316.619,491.738L316.619,491.738z
		 M342.931,494.38c1.316-5.274,1.316-10.55,1.316-15.821c-2.631-3.957-9.207-17.144-15.785-17.144c0,2.636,1.312,5.273,1.312,6.594
		c-2.63,2.636-3.947,3.952-7.893,6.593c0,2.637,1.316,5.272,3.946,7.908c0,3.957-1.313,3.957-1.313,9.233
		c3.947,0,2.63,6.597,7.893,6.597c3.946-10.554,1.315-13.19,7.892-10.554c0,3.957,0,3.957-3.946,5.277
		c0,3.956-1.316,3.956,2.63,6.597C338.983,499.657,345.562,497.016,342.931,494.38L342.931,494.38z M348.194,498.338
		c0,5.272-1.317,9.228,3.946,9.228c1.315-2.635,1.315-6.591,1.315-9.228C353.455,495.7,348.194,494.38,348.194,498.338
		L348.194,498.338z M341.617,503.609c-2.63,2.639-6.577,3.956-9.207,5.276c1.316,1.32,11.84,5.272,13.155,5.272
		C346.877,508.886,342.931,504.929,341.617,503.609L341.617,503.609z M358.716,524.709c0,3.956,1.317,7.913,5.259,7.913
		c0,0,0-9.23-1.316-9.23C360.033,523.392,360.033,524.709,358.716,524.709L358.716,524.709z M350.824,531.303
		c-2.629,1.319-1.316,6.597,0,7.913C354.77,539.216,357.402,532.622,350.824,531.303L350.824,531.303z M374.505,528.665
		c0,0-9.208,17.145-7.896,15.828c3.947-1.319,5.264-1.319,6.58-5.277c1.316-2.636,7.893-7.913,11.839-7.913
		c3.947-2.638,3.947-2.638,3.947-5.273C383.711,526.029,379.765,528.665,374.505,528.665L374.505,528.665z M356.085,543.174
		c-2.63,1.319-5.262,5.276-1.316,7.912c0,5.273,3.946,6.593,3.946,1.314c0-1.314,1.317-3.95,2.63-3.95c0-1.32,0-3.957,0-5.276
		C360.033,543.174,358.716,543.174,356.085,543.174L356.085,543.174z M353.455,566.911c0,6.59,0,9.23,3.947,13.187
		c3.944,0,2.631-2.639,2.631-6.597C363.979,576.144,353.455,555.041,353.455,566.911L353.455,566.911z M408.707,618.345
		c-7.889-3.958-5.263-3.958-10.522-1.32c2.632,3.956,5.259,5.273,11.842,5.273C411.337,620.98,410.022,618.345,408.707,618.345
		L408.707,618.345z M416.6,622.298c-7.894,0-6.578,3.957-3.947,7.913c1.317,0,5.263,0,7.893,0
		C425.809,623.619,417.916,620.98,416.6,622.298L416.6,622.298z M348.194,613.068c-2.632,3.956-7.895,2.637-9.207,3.956
		c0,3.956,7.89,13.187,9.207,17.142c6.575,0,2.629,1.32,13.156,1.32c6.576-2.641,5.258-5.275,11.841-1.32
		c1.316,10.549,5.261,5.273-1.317,13.186c-5.262-6.592-5.262-5.271-13.155-5.271c0,1.314,0,5.271,1.317,6.592
		c0,5.274-3.947,6.594-3.947,13.187c1.314,0,17.102-7.912,17.102,1.321c7.894,0,10.523-3.957,18.417-3.957
		c-2.63,1.316-9.204,10.549-5.263,14.507c6.579,0,2.633-2.64,10.524,0c2.631-1.32,0-9.234,0-10.55c2.631,0,6.573,0,6.573,3.955
		c0,0,1.317,6.595-2.626,5.274c0,2.637,11.839,14.506,11.839,14.506c2.632,0,13.159,1.321,7.894,5.274
		c-9.209,0-10.524,2.641-10.524,10.55v1.321c6.576,0,2.629-2.636,11.843-1.321c3.944,0,5.257,1.321,7.889,1.321
		c1.315,6.591,2.63-7.915,1.315,7.91c5.261,0,3.946,1.316,6.578-1.319c3.946,5.276,3.946,5.276,3.946,13.186
		c0,0-3.946,0-3.946,1.319c2.63,15.823,22.364,6.594,31.572,5.274c2.631-2.637,3.946-9.23,9.209-9.23
		c0,5.275-2.631,13.187-5.263,18.464c-15.785-1.32-10.523,10.55-7.89,10.55c10.523,0,26.31,14.507,36.834,14.507
		c9.208,2.637,21.051,7.909,31.572,10.551c0-1.319,0-3.956,0-6.598c3.947-6.594,2.63-3.953,2.63-11.866
		c-3.944-5.277-6.573-15.828-13.155-19.781c-2.63-2.64-7.894-1.32-10.524-1.32c-2.631-3.956,0-9.23-1.314-13.187
		c-6.574-2.64-15.787-10.549-22.366-14.505c-1.311,0-9.203-5.275-10.522-5.275c0-3.955-3.946-13.188-3.946-17.144v-1.316
		c-3.945-1.32-6.575-5.277-9.207-7.914c0-3.956-3.945-5.275-3.945-7.913c7.889,0,5.26-9.229,2.63-14.506
		c-3.945-2.638-5.261,0-5.261,3.955c-3.945,0-5.263-7.913-7.893-9.229c-11.84-1.32-10.522,1.316-18.418-5.276
		c-6.573,0-14.47,0-21.049,0c-6.572,0-27.625-15.82-32.886-19.776C367.926,615.705,361.346,613.068,348.194,613.068L348.194,613.068
		z M533.683,735.715c-1.314,3.957-1.314,5.271-1.314,7.912c1.314,1.318,3.943,2.638,5.261,2.638c0-1.319,0-3.957,0-5.278
		C538.942,743.627,533.683,733.076,533.683,735.715L533.683,735.715z M474.483,653.949c2.63,5.276,1.314,5.276,6.576,5.276
		C481.06,653.949,479.745,655.27,474.483,653.949L474.483,653.949z M461.328,646.041c0,1.313-1.315,3.95,3.945,5.27
		C466.591,647.354,466.591,646.041,461.328,646.041L461.328,646.041z M420.546,706.699c0,2.635,0,5.276,2.632,7.911
		c1.315-1.319,2.63,0,3.942-1.319C427.124,708.02,424.493,706.699,420.546,706.699L420.546,706.699z M335.038,437.67
		c-2.63-1.314-5.263-1.314-7.893,1.32c-1.317,2.637-2.63,5.273,0,7.914c1.317,1.315,3.947,0,6.578-2.641
		C336.354,441.627,336.354,438.99,335.038,437.67L335.038,437.67z M285.046,429.763c1.316,0,2.634,1.315,3.949,3.951
		c1.315,3.956,1.315,6.597-1.315,6.597c-1.317,1.316-2.634-1.32-3.947-3.955C282.417,433.714,282.417,431.078,285.046,429.763
		L285.046,429.763z M277.155,437.67c3.946-3.956,13.157,13.191,17.102,14.508c3.946,0,0-1.316,1.316,0
		c-3.946,3.956,7.892,10.551,2.63,14.507c-1.314,1.319-10.523-6.593-15.787-13.187c-5.262-5.278-3.945-6.594-3.945-10.55
		C277.155,440.311,273.207,441.627,277.155,437.67L277.155,437.67z M269.26,395.468c2.632,0,3.947,2.641,3.947,5.276
		c0,2.637-1.315,5.273-3.947,5.273c-1.313,0-2.63-2.637-2.63-5.273C266.63,398.108,267.947,395.468,269.26,395.468L269.26,395.468z
		 M271.892,373.05c1.315,1.317,1.315,3.958,0,5.274c-1.314,2.637-3.945,2.637-5.262,1.32c-1.316,0-1.316-2.636,0-5.277
		C267.947,373.05,270.578,371.73,271.892,373.05L271.892,373.05z M294.257,350.633c-1.316-1.32-3.947,1.32-6.577,5.274
		c-2.634,3.956-3.947,7.91-1.317,9.23c2.633,1.32,5.265-1.32,7.895-5.274C296.887,355.907,296.887,351.954,294.257,350.633
		L294.257,350.633z M395.55,677.689c2.632-1.32,6.579,1.316,7.893,5.272c2.629,5.277,2.629,9.231,0,10.551
		c-2.63,1.319-5.261-1.319-7.893-6.593C392.92,682.962,392.92,679.006,395.55,677.689L395.55,677.689z M246.898,526.029
		c1.316,0,1.316,2.636,1.316,5.273c-1.316,3.957-2.632,5.277-3.948,5.277c-1.314,0-1.314-2.637-1.314-5.277
		C244.266,527.35,245.582,524.709,246.898,526.029L246.898,526.029z"/>
</g>
</svg>
