<?xml version="1.0" encoding="utf-8"?>
<!-- Generator: Adobe Illustrator 16.0.0, SVG Export Plug-In . SVG Version: 6.00 Build 0)  -->
<!DOCTYPE svg PUBLIC "-//W3C//DTD SVG 1.1//EN" "http://www.w3.org/Graphics/SVG/1.1/DTD/svg11.dtd">
<svg version="1.1" id="Layer_1" xmlns="http://www.w3.org/2000/svg" xmlns:xlink="http://www.w3.org/1999/xlink" x="0px" y="0px"
	 width="800px" height="680px" viewBox="0 -115 800 680" enable-background="new 0 -115 800 680" xml:space="preserve">
<path fill="#B5CB8B" d="M165,441.8l-83.4-36c0,0,193.3,17.2,226.3,17.4c33,0.1,87.2-3.2,94.8-1.5c7.6,1.7,127.5-3.9,127.5-3.9
	s42.5,0.7,55.1,3.9C597.9,424.8,662.4,413.6,662.4,413.6l36.399,4l100.601,6.5v23.4"/>
<path fill="#CBDBAA" d="M799.3,447.6v-15.3c0,0-119.5,4.601-155.3,4.601c-35.8,0.1-94.8-1.801-103-0.9c-8.2,1-138.5-2.2-138.5-2.2
	s-46.2,0.4-59.9,2.2c-13.7,1.8-83.8-4.6-83.8-4.6l-39.6,2.3l-109.4-15v32.1"/>
<rect x="0.7" y="442.6" fill="#DAE4C7" width="798.6" height="10.101"/>
<rect x="0.7" y="453.2" fill="#C2CCB2" width="798.6" height="16.5"/>
<g>
	<g>
		<path fill="#3C97D3" d="M221.8,447c-11.8-7.1-30.5-10.8-28.9-11c0,0-15-4.9-27.9-4s-28.4-2.2-28.4-2.2l-20.9-3.3l-5.7-2.3
			c0,0-60.1,5.3-79.2,17c0,0-1.5-3.9-7.3-5.5l2.1,17h224.6C239.6,450.4,226.7,449.9,221.8,447z"/>
	</g>
	<g>
		<polygon fill="#A5A3AA" points="103.9,390.9 174.2,429.3 174,433.8 140.1,430.7 116.2,426.7 110,424.1 		"/>
		<polygon fill="#D5D3D9" points="174.2,429.3 174,434 177.2,433.6 177.5,429 		"/>
		<polygon fill="#919095" points="103.2,386.8 177.5,429 174.2,429.3 103.9,390.9 		"/>
	</g>
	<g>
		<path fill="#D5D3D9" d="M110,424.1l-6.7-37.3V379.9c0,0-74.2-1.2-86.8,0L27,449.6c0,0-7-7.3,17.1-13.699
			C62.4,431.1,97.6,424.1,110,424.1z"/>
		<polygon fill="#A5A3AA" points="1,379.4 1,453.3 27,453.3 16.4,379.9 		"/>
		<polygon fill="#A5A3AA" points="16.4,379.9 16.4,367.7 1,367.7 1,379.4 		"/>
		<rect x="95.7" y="368.2" fill="#D5D3D9" width="7.6" height="11.7"/>
		<rect x="16.4" y="367.7" fill="#D5D3D9" width="7.8" height="12.2"/>
	</g>
	<g>
		<polygon fill="#2E95D2" points="101.2,426.4 103.4,425.9 99.3,391.5 97.1,392 		"/>
		<polygon fill="#2E95D2" points="95.8,427.9 98.1,427.4 93.8,391.5 91.6,392 		"/>
		<polygon fill="#2E95D2" points="90.4,429.5 92.7,429 88.3,391.4 86,391.9 		"/>
		<polygon fill="#2E95D2" points="85.1,431 87.4,430.5 82.9,391.4 80.5,391.9 		"/>
		<polygon fill="#2E95D2" points="79.7,432.5 82,432 77.4,391.4 75,391.9 		"/>
		<polygon fill="#2E95D2" points="74.3,434.1 76.7,433.6 71.9,391.4 69.5,391.9 		"/>
		<polygon fill="#2E95D2" points="68.9,435.6 71.3,435.1 66.5,391.3 64,391.8 		"/>
		<polygon fill="#2E95D2" points="63.6,437.1 66,436.6 61,391.3 58.5,391.8 		"/>
		<polygon fill="#2E95D2" points="58.2,438.7 60.7,438.2 55.5,391.3 53,391.8 		"/>
		<polygon fill="#2E95D2" points="52.8,440.2 55.3,439.7 50.1,391.3 47.5,391.8 		"/>
		<polygon fill="#2E95D2" points="47.4,441.8 50,441.2 44.6,391.2 42,391.8 		"/>
		<polygon fill="#2E95D2" points="42,443.3 44.6,442.8 39.1,391.2 36.5,391.7 		"/>
		<polygon fill="#2E95D2" points="36.7,444.8 39.3,444.3 33.7,391.2 31,391.7 		"/>
		<polygon fill="#2E95D2" points="31.3,446.4 33.9,445.8 28.2,391.2 25.5,391.7 		"/>
	</g>
	<path fill="#2981BA" d="M19,387.9c0,0,0.1,0,0.2,0l0,0l0,0c2.5-0.101,28.5-0.601,49.6-1.101c17.7-0.399,33-0.7,33.3-0.7l-0.1-3
		c-0.3,0-15.8,0.4-33.3,0.7l-33.6,0.8c-10,0.2-14.2,0.301-16,0.601v-0.3v0.3c-1.3,0.2-1.3,0.6-1.3,1.3L19,387.9z"/>
	<path fill="#F2CA6E" d="M19,384.8h2.2v3h-2.1v-0.3v0.3L19,384.8z M25.6,384.7l4.5-0.101v3l-4.5,0.101V384.7z M34.6,384.5l4.5-0.1v3
		l-4.5,0.1V384.5z M43.6,384.3l4.5-0.1v3l-4.5,0.1V384.3z M52.6,384.1l4.5-0.1v3.1l-4.4,0.101L52.6,384.1z M61.6,383.9l4.5-0.101v3
		l-4.5,0.101V383.9z M70.6,383.7l4.5-0.101v3l-4.5,0.101V383.7z M79.6,383.5l4.5-0.1v3.1l-4.5,0.1V383.5z M88.6,383.2l4.5-0.101v3
		l-4.5,0.101V383.2z M97.6,383c2.7-0.1,4.3-0.1,4.5-0.1l0.1,3c-0.1,0-1.8,0-4.6,0.1V383z"/>
	<polygon fill="#A5A3AA" points="95.7,379.9 94.7,379.1 24.2,378.3 24.2,379.9 	"/>
	<polygon fill="#A5A3AA" points="95.7,368.2 94.7,367.5 94.7,379.1 95.7,379.9 	"/>
	<polygon fill="#A5A3AA" points="103.3,368.2 95.7,368.2 94.7,367.5 102.7,368 	"/>
	<path fill="none" stroke="#FFFFFF" stroke-width="0.5" stroke-miterlimit="10" d="M78.2,433.8c0,0,0.5-4.5,20.8-2.1
		c20.3,2.399,21.1,1.5,18.7-0.9"/>
	<path fill="none" stroke="#FFFFFF" stroke-width="0.5" stroke-miterlimit="10" d="M58.9,437c0,0,2.8,7.3,15.1,3.7
		c12.3-3.601,22.6-4.8,30.3-1.8"/>
	<path fill="none" stroke="#FFFFFF" stroke-width="0.5" stroke-miterlimit="10" d="M129.3,433.8c0,0-4.8,2.4,12.1,3.2
		c16.9,0.7,30.5,1,28.3,2.3"/>
	<path fill="none" stroke="#FFFFFF" stroke-width="0.5" stroke-miterlimit="10" d="M73.2,444.3c0,0-15.9,4.2-21.5-2.6
		c-5.5-6.8-17.7,4.1-17.7,4.1"/>
	<g>
		<polygon fill="#919095" points="0.5,386.9 33.5,436.1 42.8,436.1 8.8,386.9 		"/>
		<polygon fill="#D5D3D9" points="0.4,453.3 0.5,386.9 35.2,436.6 33.5,453.3 		"/>
		<rect x="33.5" y="436.1" fill="#D5D3D9" width="9.6" height="17.101"/>
	</g>
</g>
<g>
	<g>
		<g>
			<polygon fill="#E1E6E9" points="740.2,442.5 736.9,442.5 736.9,385.5 738.6,385.5 			"/>
			<polygon fill="#8FA9B6" points="736,385.5 734.8,442.5 736.9,442.5 736.9,385.5 			"/>
		</g>
		<g>
			<g>
				<path fill="#8FA9B6" d="M738.3,384.7c0.2,0.899,5.7,0.7,12.3-0.4c6.601-1.2,11.9-2.8,11.7-3.8L738.3,384.7z"/>
				<path fill="#E1E6E9" d="M738.3,384.8c-0.2-0.899,5.101-2.6,11.7-3.8s12.1-1.4,12.3-0.4L738.3,384.8z"/>
			</g>
			<g>
				<path fill="#8FA9B6" d="M736.6,385.9c-0.8-0.5-4.5,3.5-8.399,9c-3.9,5.5-6.4,10.399-5.601,10.899L736.6,385.9z"/>
				<path fill="#E1E6E9" d="M736.5,385.8c0.8,0.5-1.8,5.4-5.6,10.9c-3.9,5.5-7.601,9.5-8.4,9L736.5,385.8z"/>
			</g>
			<g>
				<path fill="#8FA9B6" d="M737,384c-0.8,0.4-3.8-4.2-6.7-10.3c-2.8-6.101-4.5-11.3-3.6-11.7L737,384z"/>
				<path fill="#E1E6E9" d="M736.9,384.1c0.8-0.399-0.801-5.6-3.601-11.8c-2.8-6.1-5.8-10.7-6.7-10.3L736.9,384.1z"/>
			</g>
			<g>
				<path fill="#E1E6E9" d="M735.3,386.5c0.9,1,2.4,1.2,3.4,0.3c1-0.899,1.2-2.399,0.3-3.399s-2.4-1.2-3.4-0.301
					C734.6,383.9,734.5,385.5,735.3,386.5z"/>
				<path fill="#8FA9B6" d="M735.9,386c0.6,0.7,1.6,0.8,2.3,0.2c0.7-0.601,0.8-1.601,0.2-2.3c-0.601-0.7-1.601-0.801-2.301-0.2
					C735.4,384.3,735.3,385.3,735.9,386z"/>
			</g>
		</g>
	</g>
	<g>
		<g>
			<polygon fill="#E1E6E9" points="597.8,442.5 601.1,442.5 601.1,385.5 599.4,385.5 			"/>
			<polygon fill="#8FA9B6" points="602,385.5 603.2,442.5 601.1,442.5 601.1,385.5 			"/>
		</g>
		<g>
			<g>
				<path fill="#8FA9B6" d="M599.7,384.7c-0.2,0.899-5.7,0.7-12.3-0.4c-6.601-1.2-11.9-2.8-11.7-3.8L599.7,384.7z"/>
				<path fill="#E1E6E9" d="M599.7,384.8c0.2-0.899-5.101-2.6-11.7-3.8s-12.1-1.4-12.3-0.4L599.7,384.8z"/>
			</g>
			<g>
				<path fill="#8FA9B6" d="M601.4,385.9c0.8-0.5,4.5,3.5,8.399,9c3.9,5.5,6.4,10.399,5.601,10.899L601.4,385.9z"/>
				<path fill="#E1E6E9" d="M601.5,385.8c-0.8,0.5,1.7,5.4,5.6,10.9c3.9,5.5,7.601,9.5,8.4,9L601.5,385.8z"/>
			</g>
			<g>
				<path fill="#8FA9B6" d="M601,384c0.8,0.4,3.8-4.2,6.7-10.3c2.8-6.101,4.5-11.3,3.6-11.7L601,384z"/>
				<path fill="#E1E6E9" d="M601.2,384.1c-0.8-0.399,0.8-5.6,3.6-11.8c2.8-6.1,5.8-10.7,6.7-10.3L601.2,384.1z"/>
			</g>
			<g>
				<path fill="#E1E6E9" d="M602.7,386.5c-0.9,1-2.4,1.2-3.4,0.3c-1-0.899-1.2-2.399-0.3-3.399s2.4-1.2,3.4-0.301
					C603.4,383.9,603.6,385.5,602.7,386.5z"/>
				<path fill="#8FA9B6" d="M602.1,386c-0.6,0.7-1.6,0.8-2.3,0.2c-0.7-0.601-0.8-1.601-0.2-2.3c0.601-0.7,1.601-0.801,2.301-0.2
					C602.6,384.3,602.7,385.3,602.1,386z"/>
			</g>
		</g>
	</g>
	<g>
		<polygon fill="#E1E6E9" points="672.8,450.9 668.1,450.9 668.1,370.9 670.5,370.9 		"/>
		<polygon fill="#8FA9B6" points="666.9,370.9 665.2,450.9 668.1,450.9 668.1,370.9 		"/>
	</g>
	<g>
		<g>
			<g>
				<g>
					<path fill="none" d="M671.8,367.1c-0.6-1.8-2.5-2.8-4.3-2.199c-1.8,0.6-2.8,2.5-2.2,4.199c0.601,1.801,2.5,2.801,4.3,2.2
						C671.4,370.8,672.4,368.9,671.8,367.1z"/>
					<path fill="none" d="M670.8,367.4c-0.399-1.2-1.7-1.9-2.899-1.5c-1.2,0.399-1.9,1.699-1.5,2.899c0.399,1.2,1.699,1.9,2.899,1.5
						C670.5,369.9,671.2,368.6,670.8,367.4z"/>
					<g>
						<g>
							<path fill="none" d="M693.7,393.3C707.6,379.4,707.6,356.9,693.7,343c-13.9-13.9-36.4-13.9-50.3,0
								c-13.9,13.9-13.9,36.4,0,50.3C657.3,407.2,679.8,407.2,693.7,393.3z"/>
							<path fill="none" d="M664.4,372.3c-2.301-2.3-2.301-6.1,0-8.399c2.3-2.301,6.1-2.301,8.399,0c2.3,2.3,2.3,6.1,0,8.399
								C670.4,374.6,666.7,374.6,664.4,372.3z"/>
							<path fill="none" d="M669.3,368.8c0.4-0.399,0.4-1,0-1.399c-0.399-0.4-1-0.4-1.399,0c-0.4,0.399-0.4,1,0,1.399
								C668.3,369.2,668.9,369.2,669.3,368.8z"/>
							<circle fill="none" cx="668.6" cy="368.1" r="0.2"/>
							<circle fill="none" cx="668.6" cy="368.1" r="0"/>
							<polygon fill="none" points="668.6,368.1 668.6,368.1 668.6,368.1 							"/>
							<polygon fill="none" points="668.6,368.1 668.6,368.1 668.6,368.1 							"/>
							<polygon fill="none" points="668.6,368.1 668.6,368.1 668.6,368.1 							"/>
							<polygon fill="none" points="668.6,368.1 668.6,368.1 668.6,368.1 							"/>
							<polygon fill="none" points="668.6,368.1 668.6,368.1 668.6,368.1 							"/>
							<polygon fill="none" points="668.6,368.1 668.6,368.1 668.6,368.1 							"/>
							<polygon fill="none" points="668.6,368.1 668.6,368.1 668.6,368.1 							"/>
							<polygon fill="none" points="668.6,368.1 668.6,368.1 668.6,368.1 							"/>
							<polygon fill="none" points="668.6,368.1 668.6,368.1 668.6,368.1 							"/>
							<polygon fill="none" points="668.6,368.1 668.6,368.1 668.6,368.1 							"/>
							<polygon fill="none" points="668.6,368.1 668.6,368.1 668.6,368.1 							"/>
							<polygon fill="none" points="668.6,368.1 668.6,368.1 668.6,368.1 							"/>
							<polygon fill="none" points="668.6,368.1 668.6,368.1 668.6,368.1 							"/>
							<polygon fill="none" points="668.6,368.1 668.6,368.1 668.6,368.1 							"/>
							<polygon fill="none" points="668.6,368.1 668.6,368.1 668.6,368.1 							"/>
							<polygon fill="none" points="668.6,368.1 668.6,368.1 668.6,368.1 							"/>
							<polygon fill="none" points="668.6,368.1 668.6,368.1 668.6,368.1 							"/>
							<polygon fill="none" points="668.6,368.1 668.6,368.1 668.6,368.1 							"/>
							<polygon fill="none" points="668.6,368.1 668.6,368.1 668.6,368.1 							"/>
							<polygon fill="none" points="668.6,368.1 668.6,368.1 668.6,368.1 							"/>
							<polygon fill="none" points="668.6,368.1 668.6,368.1 668.6,368.1 							"/>
							<polygon fill="none" points="668.6,368.1 668.6,368.1 668.6,368.1 							"/>
							<polygon fill="none" points="668.6,368.1 668.6,368.1 668.6,368.1 							"/>
							<polygon fill="none" points="668.6,368.1 668.6,368.1 668.6,368.1 							"/>
							<polygon fill="none" points="668.6,368.1 668.6,368.1 668.6,368.1 							"/>
							<polygon fill="none" points="668.6,368.1 668.6,368.1 668.6,368.1 							"/>
							<polygon fill="none" points="668.6,368.1 668.6,368.1 668.6,368.1 							"/>
						</g>
						<g>
							<line fill="none" x1="668.6" y1="368.1" x2="693.7" y2="393.3"/>
							<line fill="none" x1="668.6" y1="368.1" x2="634.2" y2="377.3"/>
							<line fill="none" x1="677.8" y1="333.8" x2="668.6" y2="368.1"/>
						</g>
					</g>
				</g>
				<g>
					<g>
						<path fill="#8FA9B6" d="M668.6,368.1c0,0-5.6,8.5-34.399,9.4c0-0.1-0.101-0.2-0.101-0.3C659.5,363.6,668.6,368.1,668.6,368.1z
							"/>
						<path fill="#E1E6E9" d="M668.6,368.1c0,0-5.6,8.5-34.399,9.4"/>
					</g>
					<g>
						<path fill="#8FA9B6" d="M668.6,368.1c0,0-4.5-9,9.101-34.3c0.1,0,0.2,0.101,0.3,0.101C677.1,362.6,668.6,368.1,668.6,368.1z"
							/>
						<path fill="#E1E6E9" d="M668.6,368.1c0,0-4.5-9,9.101-34.3"/>
					</g>
					<g>
						<path fill="#E1E6E9" d="M668.6,368.1c0,0,10.101,0.601,25.301,25c-0.101,0.101-0.101,0.101-0.2,0.2
							C669.2,378.2,668.6,368.1,668.6,368.1z"/>
						<path fill="#8FA9B6" d="M668.6,368.1c0,0,10.101,0.601,25.301,25"/>
					</g>
				</g>
			</g>
			<g>
				<path fill="#E1E6E9" d="M671.8,367.1c-0.6-1.8-2.5-2.8-4.3-2.199c-1.8,0.6-2.8,2.5-2.2,4.199c0.601,1.801,2.5,2.801,4.3,2.2
					C671.4,370.8,672.4,368.9,671.8,367.1z"/>
				<path fill="#8FA9B6" d="M670.8,367.4c-0.399-1.2-1.7-1.9-2.899-1.5c-1.2,0.399-1.9,1.699-1.5,2.899
					c0.399,1.2,1.699,1.9,2.899,1.5C670.5,369.9,671.2,368.6,670.8,367.4z"/>
			</g>
		</g>
	</g>
</g>
<g>
	<g>
		<g>
			<g>
				<path fill="#576C75" d="M333.1,445.1c-2.7,0-5.5,0-8.2,0c0.1-4.8,0.1-9.6,0.2-14.399c2.6,0,5.2,0,7.7,0
					C333,435.5,333,440.3,333.1,445.1z"/>
				<path fill="#A0B9C2" d="M327.2,430.7c-0.7,0-1.4,0-2.1,0c-0.1,4.8-0.1,9.6-0.2,14.399c0.7,0,1.5,0,2.2,0
					C327.1,440.3,327.2,435.5,327.2,430.7z"/>
				<path fill="#2981BA" stroke="#FFFFFF" stroke-width="2.5939" stroke-miterlimit="10" d="M354,430.7c-16.9,0-33.7,0-50.6,0
					c1.1-10.8,2.2-21.5,3.3-32.3c7.3,0,14.7,0,22,0c7.3,0,14.7,0,22,0C351.8,409.2,352.9,420,354,430.7z"/>
				<path fill="#2981BA" stroke="#FFFFFF" stroke-width="2.5939" stroke-miterlimit="10" d="M329.2,430.7c0-10.8,0-21.5-0.1-32.3"/>
				<path fill="#2981BA" stroke="#FFFFFF" stroke-width="2.5939" stroke-miterlimit="10" d="M315.3,430.7
					c0.6-10.8,1.2-21.5,1.7-32.3"/>
				<path fill="#2981BA" stroke="#FFFFFF" stroke-width="2.5939" stroke-miterlimit="10" d="M343.2,430.7
					c-0.6-10.8-1.2-21.5-1.9-32.3"/>
				<path fill="#2981BA" stroke="#FFFFFF" stroke-width="2.5939" stroke-miterlimit="10" d="M305.1,414.6c15.8,0,31.5,0,47.3,0"/>
			</g>
		</g>
		<g>
			<g>
				<path fill="#576C75" d="M403,451.3c-3.3,0-6.6,0-9.9,0c0.1-5.8,0.2-11.6,0.3-17.3c3.1,0,6.2,0,9.3,0
					C402.8,439.7,402.9,445.5,403,451.3z"/>
				<path fill="#A0B9C2" d="M395.9,433.9c-0.8,0-1.7,0-2.5,0c-0.1,5.8-0.2,11.6-0.3,17.3c0.9,0,1.8,0,2.6,0
					C395.8,445.5,395.8,439.7,395.9,433.9z"/>
				<path fill="#2981BA" stroke="#FFFFFF" stroke-width="3.1259" stroke-miterlimit="10" d="M428.2,433.9c-20.3,0-40.7,0-61,0
					c1.3-13,2.6-25.9,3.9-38.9c8.8,0,17.7,0,26.5,0c8.9,0,17.7,0,26.601,0C425.6,408,426.9,420.9,428.2,433.9z"/>
				<path fill="#2981BA" stroke="#FFFFFF" stroke-width="3.1259" stroke-miterlimit="10" d="M398.3,433.9c0-13-0.1-25.9-0.1-38.9"/>
				<path fill="#2981BA" stroke="#FFFFFF" stroke-width="3.1259" stroke-miterlimit="10" d="M381.5,433.9c0.7-13,1.4-25.9,2.1-38.9"
					/>
				<path fill="#2981BA" stroke="#FFFFFF" stroke-width="3.1259" stroke-miterlimit="10" d="M415.1,433.9c-0.8-13-1.5-25.9-2.3-38.9
					"/>
				<path fill="#2981BA" stroke="#FFFFFF" stroke-width="3.1259" stroke-miterlimit="10" d="M369.2,414.5c19,0,38,0,57,0"/>
			</g>
		</g>
		<g>
			<g>
				<path fill="#576C75" d="M471.1,445.1c-2.699,0-5.5,0-8.199,0c0.1-4.8,0.1-9.6,0.199-14.399c2.601,0,5.2,0,7.7,0
					C470.9,435.5,471,440.3,471.1,445.1z"/>
				<path fill="#A0B9C2" d="M465.2,430.7c-0.7,0-1.4,0-2.101,0c-0.1,4.8-0.1,9.6-0.199,14.399c0.699,0,1.5,0,2.199,0
					C465.1,440.3,465.1,435.5,465.2,430.7z"/>
				<path fill="#2981BA" stroke="#FFFFFF" stroke-width="2.5939" stroke-miterlimit="10" d="M492,430.7c-16.9,0-33.7,0-50.6,0
					c1.1-10.8,2.199-21.5,3.3-32.3c7.3,0,14.7,0,22,0s14.7,0,22,0C489.8,409.2,490.9,420,492,430.7z"/>
				<path fill="#2981BA" stroke="#FFFFFF" stroke-width="2.5939" stroke-miterlimit="10" d="M467.2,430.7c0-10.8,0-21.5-0.101-32.3"
					/>
				<path fill="#2981BA" stroke="#FFFFFF" stroke-width="2.5939" stroke-miterlimit="10" d="M453.3,430.7
					c0.601-10.8,1.2-21.5,1.7-32.3"/>
				<path fill="#2981BA" stroke="#FFFFFF" stroke-width="2.5939" stroke-miterlimit="10" d="M481.1,430.7
					c-0.6-10.8-1.199-21.5-1.899-32.3"/>
				<path fill="#2981BA" stroke="#FFFFFF" stroke-width="2.5939" stroke-miterlimit="10" d="M443,414.6c15.8,0,31.5,0,47.3,0"/>
			</g>
		</g>
	</g>
</g>
<g enable-background="new    ">
	<path fill="#C13B2A" d="M301.5,344.8h-2.3v-9.2c0-1.1,0-2,0.1-2.6c-0.1,0.2-0.3,0.3-0.6,0.5c-0.2,0.2-0.9,0.8-2.2,1.8l-1.2-1.5
		l4.2-3.3h1.9v14.3H301.5z"/>
	<path fill="#C13B2A" d="M306.2,338.7c0-5.601,2.3-8.4,6.8-8.4c0.7,0,1.3,0.101,1.8,0.2v1.9c-0.5-0.101-1.1-0.2-1.7-0.2
		c-1.5,0-2.7,0.399-3.4,1.2c-0.8,0.8-1.2,2.1-1.2,3.899h0.1c0.3-0.5,0.7-0.899,1.3-1.2c0.6-0.3,1.2-0.399,2-0.399
		c1.3,0,2.3,0.399,3,1.2c0.7,0.8,1.1,1.899,1.1,3.199c0,1.5-0.4,2.7-1.3,3.5c-0.8,0.9-2,1.301-3.4,1.301c-1,0-1.9-0.2-2.7-0.7
		c-0.8-0.5-1.3-1.2-1.7-2.101C306.5,341.1,306.2,340,306.2,338.7z M311.2,343.1c0.8,0,1.4-0.3,1.8-0.8s0.6-1.2,0.6-2.2
		c0-0.8-0.2-1.5-0.6-1.899c-0.4-0.4-1-0.7-1.8-0.7c-0.5,0-1,0.1-1.4,0.3c-0.4,0.2-0.7,0.5-1,0.9c-0.2,0.399-0.4,0.7-0.4,1.1
		c0,0.9,0.2,1.7,0.7,2.3C309.6,342.7,310.5,343.1,311.2,343.1z"/>
	<path fill="#565756" d="M334.7,344.8H332l-4.5-6.5l-1.4,1.101v5.3h-2.3v-14.3h2.3v6.8c0.6-0.8,1.3-1.5,1.9-2.3l3.9-4.601h2.7
		c-2.5,2.9-4.3,5-5.4,6.3L334.7,344.8z"/>
	<path fill="#565756" d="M342.4,337h5.3v7.2c-0.9,0.3-1.7,0.5-2.5,0.6c-0.8,0.101-1.6,0.2-2.6,0.2c-2.2,0-3.8-0.6-5-1.9
		c-1.2-1.3-1.8-3.1-1.8-5.399s0.7-4.101,2-5.4c1.3-1.3,3.1-1.899,5.5-1.899c1.5,0,2.9,0.3,4.2,0.899l-0.8,1.9
		c-1.2-0.5-2.3-0.8-3.5-0.8c-1.5,0-2.7,0.5-3.6,1.399c-0.9,1-1.3,2.3-1.3,3.9c0,1.7,0.4,3.1,1.2,4c0.8,0.899,1.9,1.399,3.4,1.399
		c0.8,0,1.6-0.1,2.4-0.3V339h-3v-2H342.4z"/>
	<path fill="#565756" d="M365.7,339.3c0,1.8-0.5,3.101-1.4,4.101c-0.9,1-2.2,1.5-3.8,1.5c-1,0-1.9-0.2-2.7-0.7
		c-0.8-0.5-1.4-1.101-1.8-2c-0.4-0.9-0.6-1.8-0.6-3c0-1.8,0.4-3.101,1.3-4.101c0.9-1,2.2-1.5,3.8-1.5s2.8,0.5,3.7,1.5
		C365.2,336.3,365.7,337.6,365.7,339.3z M357.8,339.3c0,2.5,0.9,3.7,2.8,3.7c1.8,0,2.7-1.2,2.7-3.7s-0.9-3.7-2.8-3.7
		c-1,0-1.7,0.301-2.1,1C358,337.2,357.8,338.2,357.8,339.3z"/>
	<path fill="#565756" d="M373.7,335.7h-2.6v9.1h-2.3v-9.1H367V334.6l1.8-0.699v-0.7c0-1.3,0.3-2.2,0.9-2.8
		c0.6-0.601,1.5-0.9,2.7-0.9c0.8,0,1.6,0.1,2.4,0.4l-0.6,1.699c-0.6-0.199-1.1-0.3-1.6-0.3s-0.9,0.2-1.1,0.5s-0.4,0.8-0.4,1.5v0.7
		h2.6V335.7L373.7,335.7z"/>
	<path fill="#565756" d="M387.1,332.3c-1.3,0-2.4,0.5-3.2,1.4c-0.8,1-1.2,2.3-1.2,3.899c0,1.801,0.4,3.101,1.1,4
		c0.7,0.9,1.8,1.301,3.2,1.301c0.6,0,1.2-0.101,1.8-0.2c0.6-0.101,1.2-0.3,1.8-0.5v2c-1.1,0.399-2.4,0.6-3.8,0.6
		c-2.1,0-3.7-0.6-4.8-1.899c-1.1-1.301-1.7-3.101-1.7-5.4c0-1.5,0.3-2.8,0.8-3.9c0.5-1.1,1.3-2,2.4-2.6c1-0.6,2.2-0.9,3.6-0.9
		c1.5,0,2.8,0.301,4,0.9l-0.8,1.9c-0.5-0.2-1-0.4-1.5-0.601S387.7,332.3,387.1,332.3z"/>
	<path fill="#565756" d="M402.3,337.6c0,2.5-0.399,4.301-1.2,5.5c-0.8,1.2-2,1.801-3.699,1.801c-1.601,0-2.8-0.601-3.601-1.9
		c-0.8-1.3-1.2-3.1-1.2-5.5c0-2.5,0.4-4.4,1.2-5.6c0.8-1.2,2-1.801,3.601-1.801c1.6,0,2.8,0.601,3.6,1.9S402.3,335.2,402.3,337.6z
		 M395,337.6c0,1.9,0.2,3.301,0.6,4.2c0.4,0.9,1,1.2,1.9,1.2s1.5-0.4,1.9-1.3c0.399-0.8,0.6-2.2,0.6-4.2c0-1.9-0.2-3.3-0.6-4.2
		c-0.4-0.899-1-1.3-1.9-1.3s-1.5,0.4-1.9,1.3C395.2,334.2,395,335.7,395,337.6z"/>
	<path fill="#565756" d="M413.8,344.8h-9.7V343l3.7-3.7c1.101-1.1,1.8-1.899,2.2-2.399s0.6-0.9,0.8-1.301c0.2-0.399,0.2-0.8,0.2-1.3
		c0-0.6-0.2-1.2-0.6-1.5c-0.4-0.399-0.9-0.6-1.601-0.6c-0.5,0-1.1,0.1-1.6,0.3s-1.101,0.6-1.8,1.1l-1.2-1.5
		c0.8-0.699,1.6-1.1,2.3-1.399s1.5-0.4,2.4-0.4c1.3,0,2.399,0.3,3.199,1c0.801,0.7,1.2,1.601,1.2,2.8c0,0.601-0.1,1.301-0.3,1.801
		c-0.2,0.6-0.6,1.199-1.1,1.8c-0.5,0.6-1.301,1.399-2.4,2.5L407,342.6v0.101h6.8V344.8z"/>
	<path fill="#565756" d="M426.9,345c-1.4,0-2.4-0.5-3.2-1.5H423.6c0.101,0.9,0.101,1.5,0.101,1.7v4.399h-2.3V334h1.899
		c0.101,0.2,0.2,0.7,0.3,1.4h0.101c0.7-1.101,1.8-1.601,3.2-1.601c1.3,0,2.399,0.5,3.1,1.5s1.1,2.3,1.1,4.101
		c0,1.8-0.399,3.1-1.1,4.1S428.3,345,426.9,345z M426.4,335.6c-0.9,0-1.601,0.301-2,0.801c-0.4,0.5-0.601,1.399-0.601,2.6v0.3
		c0,1.3,0.2,2.3,0.601,2.9c0.399,0.6,1.1,0.899,2,0.899c0.8,0,1.399-0.3,1.8-1c0.399-0.699,0.6-1.6,0.6-2.8s-0.2-2.1-0.6-2.7
		C427.8,336,427.2,335.6,426.4,335.6z"/>
	<path fill="#565756" d="M438.6,345c-1.699,0-3-0.5-3.899-1.5c-0.9-1-1.4-2.3-1.4-4c0-1.8,0.4-3.2,1.3-4.2
		c0.9-1,2.101-1.5,3.601-1.5c1.399,0,2.6,0.4,3.399,1.3c0.801,0.9,1.2,2.101,1.2,3.601v1.2h-7.2c0,1,0.301,1.899,0.801,2.399
		c0.5,0.601,1.3,0.8,2.3,0.8c0.6,0,1.2-0.1,1.8-0.199c0.6-0.101,1.1-0.301,1.8-0.601v1.9c-0.6,0.3-1.1,0.5-1.7,0.6
		C440,344.9,439.4,345,438.6,345z M438.2,335.5c-0.7,0-1.3,0.2-1.8,0.7s-0.7,1.1-0.801,2h4.9c0-0.9-0.2-1.601-0.6-2
		C439.5,335.7,438.9,335.5,438.2,335.5z"/>
	<path fill="#565756" d="M450.9,333.8c0.5,0,0.8,0,1.1,0.101l-0.2,2.1c-0.3-0.1-0.7-0.1-1-0.1c-0.899,0-1.7,0.3-2.2,0.899
		c-0.6,0.601-0.899,1.4-0.899,2.3v5.601h-2.3V334h1.8l0.3,1.9h0.1c0.4-0.601,0.801-1.2,1.4-1.5C449.6,334.1,450.3,333.8,450.9,333.8
		z"/>
	<path fill="#565756" d="M457.6,334h2.5l2.2,6.1c0.3,0.9,0.601,1.7,0.7,2.5h0.1c0.101-0.399,0.2-0.8,0.301-1.3
		c0.1-0.5,1-2.899,2.5-7.3h2.5l-4.601,12.2c-0.8,2.2-2.2,3.399-4.2,3.399c-0.5,0-1-0.1-1.5-0.199V347.6
		c0.301,0.101,0.7,0.101,1.2,0.101c1.101,0,1.9-0.601,2.3-1.9l0.4-1L457.6,334z"/>
	<path fill="#565756" d="M474.7,345c-1.7,0-3-0.5-3.9-1.5c-0.899-1-1.399-2.3-1.399-4c0-1.8,0.399-3.2,1.3-4.2
		c0.899-1,2.1-1.5,3.6-1.5c1.4,0,2.601,0.4,3.4,1.3c0.8,0.9,1.2,2.101,1.2,3.601v1.2h-7.2c0,1,0.3,1.899,0.8,2.399
		c0.5,0.601,1.3,0.8,2.3,0.8c0.601,0,1.2-0.1,1.8-0.199c0.601-0.101,1.101-0.301,1.801-0.601v1.9c-0.601,0.3-1.101,0.5-1.7,0.6
		C476.1,344.9,475.4,345,474.7,345z M474.3,335.5c-0.7,0-1.3,0.2-1.8,0.7s-0.7,1.1-0.8,2h4.899c0-0.9-0.199-1.601-0.6-2
		C475.6,335.7,475,335.5,474.3,335.5z"/>
	<path fill="#565756" d="M488.3,344.8l-0.5-1.5h-0.1c-0.5,0.7-1,1.101-1.601,1.3c-0.6,0.2-1.199,0.4-2,0.4c-1.1,0-1.899-0.3-2.5-0.9
		c-0.6-0.6-0.899-1.399-0.899-2.399c0-1.101,0.399-2,1.2-2.5c0.8-0.601,2.1-0.9,3.8-0.9l1.899-0.1V337.6
		c0-0.699-0.199-1.199-0.5-1.5c-0.3-0.3-0.8-0.5-1.5-0.5c-0.6,0-1.1,0.101-1.6,0.2c-0.5,0.101-1,0.4-1.5,0.601l-0.7-1.601
		c0.601-0.3,1.2-0.5,1.9-0.7c0.7-0.199,1.399-0.199,2-0.199c1.399,0,2.399,0.3,3.1,0.899c0.7,0.601,1,1.5,1,2.8v7.301h-1.5V344.8z
		 M484.8,343.2c0.8,0,1.5-0.2,2-0.7s0.8-1.1,0.8-2v-0.9L486.2,339.7c-1.101,0-1.9,0.2-2.4,0.5s-0.7,0.8-0.7,1.5
		c0,0.5,0.101,0.899,0.4,1.1C483.8,343.1,484.3,343.2,484.8,343.2z"/>
	<path fill="#565756" d="M498.6,333.8c0.5,0,0.801,0,1.101,0.101l-0.2,2.1c-0.3-0.1-0.7-0.1-1-0.1c-0.9,0-1.7,0.3-2.2,0.899
		c-0.6,0.601-0.899,1.4-0.899,2.3v5.601H493.1V334h1.801l0.3,1.9h0.1c0.4-0.601,0.8-1.2,1.4-1.5
		C497.3,334.1,497.9,333.8,498.6,333.8z"/>
</g>
<g enable-background="new    ">
	<path fill="#404041" d="M375.3,311.4c0,1.3-0.5,2.3-1.4,3c-0.9,0.699-2.2,1.1-3.8,1.1s-2.9-0.3-4-0.8v-2.2c0.7,0.3,1.3,0.5,2.1,0.7
		c0.8,0.2,1.4,0.3,2,0.3c0.9,0,1.6-0.2,2-0.5c0.4-0.3,0.7-0.8,0.7-1.4c0-0.5-0.2-1-0.6-1.399c-0.4-0.4-1.2-0.8-2.5-1.3
		c-1.3-0.5-2.2-1.101-2.8-1.801c-0.5-0.699-0.8-1.5-0.8-2.399c0-1.2,0.4-2.101,1.3-2.8c0.8-0.7,2-1,3.4-1s2.7,0.3,4.1,0.899
		l-0.7,1.9c-1.3-0.5-2.4-0.8-3.4-0.8c-0.8,0-1.3,0.199-1.7,0.5c-0.4,0.3-0.6,0.8-0.6,1.3c0,0.399,0.1,0.7,0.2,1
		c0.1,0.3,0.4,0.5,0.8,0.7c0.4,0.199,1,0.5,1.9,0.899c1,0.4,1.8,0.8,2.3,1.2s0.8,0.8,1.1,1.3C375.2,310.2,375.3,310.8,375.3,311.4z"
		/>
	<path fill="#404041" d="M390.8,308.1c0,2.301-0.6,4.101-1.7,5.4s-2.8,1.9-4.9,1.9c-2.2,0-3.8-0.601-5-1.9c-1.2-1.3-1.7-3.1-1.7-5.5
		s0.6-4.2,1.7-5.4c1.1-1.199,2.8-1.899,5-1.899c2.1,0,3.8,0.6,4.9,1.899C390.2,304,390.8,305.8,390.8,308.1z M379.9,308.1
		c0,1.801,0.4,3.101,1.1,4c0.7,0.9,1.8,1.4,3.2,1.4c1.4,0,2.4-0.4,3.1-1.3c0.7-0.9,1.1-2.2,1.1-4s-0.3-3.101-1-4
		c-0.7-0.9-1.7-1.4-3.1-1.4c-1.4,0-2.5,0.5-3.2,1.4C380.4,305.1,379.9,306.4,379.9,308.1z"/>
	<path fill="#404041" d="M393.8,315.3V301h2.3v12.3h6v2H393.8z"/>
	<path fill="#404041" d="M413.5,315.3l-1.4-4h-5.5l-1.399,4h-2.5L408,301h2.5l5.3,14.3H413.5z M411.5,309.3l-1.3-3.899
		c-0.101-0.301-0.2-0.7-0.4-1.2c-0.2-0.601-0.3-1-0.399-1.2c-0.2,0.8-0.4,1.7-0.801,2.6l-1.3,3.7H411.5z"/>
	<path fill="#404041" d="M420.2,309.6v5.7h-2.3V301h4c1.8,0,3.199,0.3,4.1,1s1.3,1.7,1.3,3.1c0,1.801-0.899,3-2.8,3.801l4,6.3H426
		l-3.4-5.7H420.2V309.6z M420.2,307.7h1.6c1.101,0,1.9-0.2,2.4-0.601c0.5-0.399,0.7-1,0.7-1.8s-0.301-1.399-0.801-1.7
		c-0.5-0.3-1.3-0.5-2.399-0.5h-1.5V307.7L420.2,307.7z"/>
</g>
<g enable-background="new    ">
	<path fill="#C13B2A" d="M590.4,263.5c1.399,0,2.6,0.4,3.399,1.1c0.8,0.7,1.3,1.8,1.3,3.1c0,1.5-0.5,2.7-1.399,3.6
		c-1,0.9-2.3,1.3-4.101,1.3c-1.6,0-2.8-0.3-3.8-0.8v-2.1c0.5,0.3,1.101,0.5,1.8,0.7c0.7,0.2,1.301,0.2,1.9,0.2c1,0,1.8-0.2,2.4-0.7
		c0.5-0.5,0.8-1.1,0.8-2c0-1.7-1.101-2.6-3.3-2.6c-0.301,0-0.7,0-1.101,0.1c-0.399,0.1-0.8,0.1-1.2,0.2l-1-0.6l0.5-7h7.4v2h-5.4
		l-0.3,3.5c0.2,0,0.5-0.1,0.8-0.1C589.6,263.5,590,263.5,590.4,263.5z"/>
	<path fill="#565756" d="M614.1,272.4H611.4l-4.5-6.5l-1.4,1.1v5.3h-2.3V258h2.3v6.8c0.6-0.8,1.3-1.5,1.9-2.3l3.899-4.6h2.7
		c-2.5,2.9-4.3,5-5.4,6.3L614.1,272.4z"/>
	<path fill="#565756" d="M621.8,264.7h5.3v7.2c-0.899,0.3-1.699,0.5-2.5,0.6c-0.8,0.1-1.6,0.2-2.6,0.2c-2.2,0-3.8-0.6-5-1.9
		c-1.2-1.3-1.8-3.1-1.8-5.4c0-2.3,0.7-4.1,2-5.4s3.1-1.9,5.5-1.9c1.5,0,2.899,0.3,4.2,0.9l-0.801,1.9c-1.199-0.5-2.3-0.8-3.5-0.8
		c-1.5,0-2.699,0.5-3.6,1.4c-0.9,1-1.3,2.3-1.3,3.9c0,1.7,0.399,3.1,1.2,4c0.8,0.9,1.899,1.4,3.399,1.4c0.8,0,1.601-0.1,2.4-0.3
		v-3.7h-3v-2.1H621.8z"/>
	<path fill="#565756" d="M645.1,267c0,1.8-0.5,3.1-1.399,4.1c-0.9,1-2.2,1.5-3.8,1.5c-1,0-1.9-0.2-2.7-0.7s-1.4-1.1-1.8-2
		c-0.4-0.9-0.601-1.8-0.601-3c0-1.8,0.4-3.1,1.3-4.1c0.9-1,2.2-1.5,3.801-1.5c1.6,0,2.8,0.5,3.699,1.5
		C644.6,263.9,645.1,265.3,645.1,267z M637.2,267c0,2.5,0.899,3.7,2.8,3.7c1.8,0,2.7-1.2,2.7-3.7s-0.9-3.7-2.8-3.7
		c-1,0-1.7,0.3-2.101,1C637.4,264.9,637.2,265.8,637.2,267z"/>
	<path fill="#565756" d="M653.1,263.3h-2.6v9.1h-2.3v-9.1h-1.8v-1.1l1.8-0.7v-0.7c0-1.3,0.3-2.2,0.899-2.8
		c0.601-0.6,1.5-0.9,2.7-0.9c0.8,0,1.601,0.1,2.4,0.4l-0.601,1.7c-0.6-0.2-1.1-0.3-1.6-0.3s-0.9,0.2-1.1,0.5
		c-0.2,0.3-0.4,0.8-0.4,1.5v0.7h2.6V263.3L653.1,263.3z"/>
	<path fill="#565756" d="M666.5,259.9c-1.3,0-2.4,0.5-3.2,1.4c-0.8,1-1.2,2.3-1.2,3.9c0,1.8,0.4,3.1,1.101,4
		c0.7,0.9,1.8,1.3,3.2,1.3c0.6,0,1.199-0.1,1.8-0.2c0.6-0.1,1.2-0.3,1.8-0.5v2c-1.1,0.4-2.4,0.6-3.8,0.6c-2.101,0-3.7-0.6-4.8-1.9
		c-1.101-1.3-1.7-3.1-1.7-5.4c0-1.5,0.3-2.8,0.8-3.9c0.5-1.1,1.3-2,2.4-2.6c1-0.6,2.199-0.9,3.6-0.9c1.5,0,2.8,0.3,4,0.9l-0.8,1.9
		c-0.5-0.2-1-0.4-1.5-0.6C667.7,259.7,667.1,259.9,666.5,259.9z"/>
	<path fill="#565756" d="M681.7,265.3c0,2.5-0.4,4.3-1.2,5.5c-0.8,1.2-2,1.8-3.7,1.8c-1.6,0-2.8-0.6-3.6-1.9
		c-0.8-1.3-1.2-3.1-1.2-5.5c0-2.5,0.4-4.4,1.2-5.6c0.8-1.2,2-1.8,3.6-1.8c1.601,0,2.8,0.6,3.601,1.9
		C681.2,261,681.7,262.9,681.7,265.3z M674.4,265.3c0,1.9,0.199,3.3,0.6,4.2s1,1.2,1.9,1.2c0.899,0,1.5-0.4,1.899-1.3
		c0.4-0.8,0.601-2.2,0.601-4.2c0-1.9-0.2-3.3-0.601-4.2c-0.399-0.9-1-1.3-1.899-1.3c-0.9,0-1.5,0.4-1.9,1.3S674.4,263.3,674.4,265.3
		z"/>
	<path fill="#565756" d="M693.2,272.4h-9.7v-1.7l3.7-3.7c1.1-1.1,1.8-1.9,2.2-2.4c0.399-0.5,0.6-0.9,0.8-1.3
		c0.2-0.4,0.2-0.8,0.2-1.3c0-0.6-0.2-1.2-0.601-1.5c-0.399-0.4-0.899-0.6-1.6-0.6c-0.5,0-1.101,0.1-1.601,0.3
		c-0.5,0.2-1.1,0.6-1.8,1.1l-1.2-1.5c0.801-0.7,1.601-1.1,2.301-1.4c0.699-0.3,1.5-0.4,2.399-0.4c1.3,0,2.4,0.3,3.2,1
		s1.2,1.6,1.2,2.8c0,0.6-0.1,1.3-0.3,1.8c-0.2,0.6-0.601,1.2-1.101,1.8s-1.3,1.4-2.399,2.5l-2.5,2.4v0.1h6.8V272.4L693.2,272.4z"/>
	<path fill="#565756" d="M706.3,272.6c-1.399,0-2.399-0.5-3.2-1.5H703c0.1,0.9,0.1,1.5,0.1,1.7v4.4h-2.3v-15.6h1.9
		c0.1,0.2,0.2,0.7,0.3,1.4h0.1c0.7-1.1,1.801-1.6,3.2-1.6c1.3,0,2.4,0.5,3.101,1.5c0.699,1,1.1,2.3,1.1,4.1s-0.4,3.1-1.1,4.1
		C708.7,272.1,707.7,272.6,706.3,272.6z M705.8,263.3c-0.899,0-1.6,0.3-2,0.8c-0.399,0.5-0.6,1.4-0.6,2.6v0.3c0,1.3,0.2,2.3,0.6,2.9
		c0.4,0.6,1.101,0.9,2,0.9c0.8,0,1.4-0.3,1.8-1c0.4-0.7,0.601-1.6,0.601-2.8s-0.2-2.1-0.601-2.7
		C707.2,263.6,706.6,263.3,705.8,263.3z"/>
	<path fill="#565756" d="M718,272.6c-1.7,0-3-0.5-3.9-1.5c-0.899-1-1.399-2.3-1.399-4c0-1.8,0.399-3.2,1.3-4.2s2.1-1.5,3.6-1.5
		c1.4,0,2.601,0.4,3.4,1.3c0.8,0.9,1.2,2.1,1.2,3.6v1.2H715c0,1,0.3,1.9,0.8,2.4c0.5,0.6,1.3,0.8,2.3,0.8c0.601,0,1.2-0.1,1.801-0.2
		c0.5-0.1,1.1-0.3,1.8-0.6v1.9c-0.601,0.3-1.101,0.5-1.7,0.6S718.8,272.6,718,272.6z M717.6,263.1c-0.699,0-1.3,0.2-1.8,0.7
		s-0.7,1.1-0.8,2h4.9c0-0.9-0.2-1.6-0.601-2C718.9,263.4,718.3,263.1,717.6,263.1z"/>
	<path fill="#565756" d="M730.3,261.4c0.5,0,0.8,0,1.101,0.1l-0.2,2.1c-0.3-0.1-0.7-0.1-1-0.1c-0.9,0-1.7,0.3-2.2,0.9
		c-0.6,0.6-0.9,1.4-0.9,2.3v5.6h-2.3v-10.8h1.8l0.301,1.9h0.1c0.4-0.6,0.8-1.2,1.4-1.5C729,261.6,729.6,261.4,730.3,261.4z"/>
	<path fill="#565756" d="M737,261.6h2.5l2.2,6.1c0.3,0.9,0.6,1.7,0.7,2.5h0.1c0.1-0.4,0.2-0.8,0.3-1.3c0.101-0.5,1-2.9,2.5-7.3h2.5
		l-4.6,12.2c-0.8,2.2-2.2,3.4-4.2,3.4c-0.5,0-1-0.1-1.5-0.2v-1.8c0.3,0.1,0.7,0.1,1.2,0.1c1.1,0,1.899-0.6,2.3-1.9l0.4-1L737,261.6z
		"/>
	<path fill="#565756" d="M754.1,272.6c-1.699,0-3-0.5-3.899-1.5c-0.9-1-1.4-2.3-1.4-4c0-1.8,0.4-3.2,1.3-4.2
		c0.9-1,2.101-1.5,3.601-1.5c1.399,0,2.6,0.4,3.399,1.3c0.801,0.9,1.2,2.1,1.2,3.6v1.2h-7.2c0,1,0.301,1.9,0.801,2.4
		c0.5,0.6,1.3,0.8,2.3,0.8c0.6,0,1.2-0.1,1.8-0.2c0.5-0.1,1.1-0.3,1.8-0.6v1.9c-0.6,0.3-1.1,0.5-1.7,0.6
		C755.5,272.5,754.8,272.6,754.1,272.6z M753.7,263.1c-0.7,0-1.3,0.2-1.8,0.7s-0.7,1.1-0.801,2h4.9c0-0.9-0.2-1.6-0.6-2
		C755,263.4,754.4,263.1,753.7,263.1z"/>
	<path fill="#565756" d="M767.7,272.4l-0.5-1.5H767.1c-0.5,0.7-1,1.1-1.6,1.3c-0.6,0.2-1.2,0.4-2,0.4c-1.1,0-1.9-0.3-2.5-0.9
		c-0.6-0.6-0.9-1.4-0.9-2.4c0-1.1,0.4-2,1.2-2.5c0.8-0.6,2.101-0.9,3.8-0.9l1.9-0.1v-0.6c0-0.7-0.2-1.2-0.5-1.5
		c-0.3-0.3-0.8-0.5-1.5-0.5c-0.6,0-1.1,0.1-1.6,0.2s-1,0.4-1.5,0.6l-0.7-1.6c0.6-0.3,1.2-0.5,1.899-0.7c0.7-0.2,1.4-0.2,2-0.2
		c1.4,0,2.4,0.3,3.101,0.9s1,1.5,1,2.8v7.3h-1.5V272.4z M764.2,270.8c0.8,0,1.5-0.2,2-0.7s0.8-1.1,0.8-2v-0.9l-1.4,0.1
		c-1.1,0-1.899,0.2-2.399,0.5c-0.5,0.3-0.7,0.8-0.7,1.5c0,0.5,0.1,0.9,0.4,1.1C763.2,270.7,763.7,270.8,764.2,270.8z"/>
	<path fill="#565756" d="M778,261.4c0.5,0,0.8,0,1.1,0.1l-0.199,2.1c-0.301-0.1-0.7-0.1-1-0.1c-0.9,0-1.7,0.3-2.2,0.9
		c-0.601,0.6-0.9,1.4-0.9,2.3v5.6h-2.3v-10.8h1.8l0.3,1.9h0.101c0.399-0.6,0.8-1.2,1.399-1.5C776.7,261.6,777.3,261.4,778,261.4z"/>
</g>
<g enable-background="new    ">
	<path fill="#404041" d="M669.5,242.9H667l-2.4-8.5c-0.1-0.4-0.199-0.9-0.399-1.6c-0.2-0.7-0.3-1.2-0.3-1.5
		c-0.101,0.4-0.2,1-0.301,1.6c-0.1,0.6-0.3,1.2-0.399,1.5l-2.4,8.5h-2.5l-1.8-7.1l-1.9-7.1h2.4l2,8.3c0.3,1.3,0.5,2.5,0.7,3.5
		c0.1-0.6,0.2-1.2,0.3-1.9c0.1-0.7,0.3-1.2,0.4-1.7l2.3-8.3h2.3l2.4,8.4c0.199,0.8,0.5,1.9,0.699,3.5c0.101-0.9,0.301-2.1,0.7-3.6
		l2-8.3h2.4L669.5,242.9z"/>
	<path fill="#404041" d="M675.2,242.9v-14.3h2.3v14.3H675.2z"/>
	<path fill="#404041" d="M693.2,242.9h-2.9l-7-11.4h-0.1v0.6c0.1,1.2,0.1,2.3,0.1,3.3v7.4h-2.1v-14.3h2.8l7,11.3h0.1
		c0-0.1,0-0.7-0.1-1.6c-0.1-0.9-0.1-1.7-0.1-2.2v-7.5h2.1v14.4H693.2z"/>
	<path fill="#404041" d="M708.6,235.7c0,2.4-0.699,4.2-2,5.4c-1.3,1.2-3.199,1.9-5.699,1.9h-4v-14.3h4.399c2.3,0,4,0.6,5.3,1.8
		C708,231.7,708.6,233.4,708.6,235.7z M706.1,235.7c0-3.4-1.6-5.1-4.8-5.1h-2V241h1.7C704.4,241,706.1,239.2,706.1,235.7z"/>
</g>
<g>
	<g enable-background="new    ">
		<path fill="#C13B2A" d="M28.4,263.5c1.4,0,2.6,0.4,3.4,1.1c0.8,0.7,1.3,1.8,1.3,3.1c0,1.5-0.5,2.7-1.4,3.6
			c-0.9,0.9-2.3,1.3-4.1,1.3c-1.6,0-2.8-0.3-3.8-0.8v-2.1c0.5,0.3,1.1,0.5,1.8,0.7c0.7,0.2,1.3,0.2,1.9,0.2c1,0,1.8-0.2,2.4-0.7
			s0.8-1.1,0.8-2c0-1.7-1.1-2.6-3.3-2.6c-0.3,0-0.7,0-1.1,0.1c-0.4,0.1-0.8,0.1-1.2,0.2l-1-0.6l0.5-7H32v2h-5.4l-0.3,3.5
			c0.2,0,0.5-0.1,0.8-0.1C27.4,263.4,28,263.5,28.4,263.5z"/>
		<path fill="#565756" d="M52.1,272.4h-2.7l-4.5-6.5l-1.4,1.1v5.3h-2.3V258h2.3v6.8c0.6-0.8,1.3-1.5,1.9-2.3l3.9-4.6H52
			c-2.5,2.9-4.3,5-5.4,6.3L52.1,272.4z"/>
		<path fill="#565756" d="M59.8,264.7h5.3v7.2c-0.9,0.3-1.7,0.5-2.5,0.6c-0.8,0.1-1.6,0.2-2.6,0.2c-2.2,0-3.8-0.6-5-1.9
			c-1.2-1.3-1.8-3.1-1.8-5.4c0-2.3,0.7-4.1,2-5.4c1.3-1.3,3.1-1.9,5.5-1.9c1.5,0,2.9,0.3,4.2,0.9l-0.8,1.9c-1.2-0.5-2.3-0.8-3.5-0.8
			c-1.5,0-2.7,0.5-3.6,1.4s-1.3,2.3-1.3,3.9c0,1.7,0.4,3.1,1.2,4c0.8,0.9,1.9,1.4,3.4,1.4c0.8,0,1.6-0.1,2.4-0.3v-3.7h-3v-2.1H59.8z
			"/>
		<path fill="#565756" d="M83,267c0,1.8-0.5,3.1-1.4,4.1s-2.2,1.5-3.8,1.5c-1,0-1.9-0.2-2.7-0.7c-0.8-0.5-1.4-1.1-1.8-2
			c-0.4-0.9-0.6-1.8-0.6-3c0-1.8,0.4-3.1,1.3-4.1s2.2-1.5,3.8-1.5c1.6,0,2.8,0.5,3.7,1.5S83,265.3,83,267z M75.2,267
			c0,2.5,0.9,3.7,2.8,3.7c1.8,0,2.7-1.2,2.7-3.7s-0.9-3.7-2.8-3.7c-1,0-1.7,0.3-2.1,1C75.4,265,75.2,265.8,75.2,267z"/>
		<path fill="#565756" d="M91.1,263.3h-2.6v9.1h-2.3v-9.1h-1.8v-1.1l1.8-0.7v-0.7c0-1.3,0.3-2.2,0.9-2.8s1.5-0.9,2.7-0.9
			c0.8,0,1.6,0.1,2.4,0.4l-0.6,1.7c-0.6-0.2-1.1-0.3-1.6-0.3s-0.9,0.2-1.1,0.5c-0.2,0.3-0.4,0.8-0.4,1.5v0.7h2.6V263.3z"/>
		<path fill="#565756" d="M104.5,259.9c-1.3,0-2.4,0.5-3.2,1.4c-0.8,0.9-1.2,2.3-1.2,3.9c0,1.8,0.4,3.1,1.1,4
			c0.7,0.9,1.8,1.3,3.2,1.3c0.6,0,1.2-0.1,1.8-0.2c0.6-0.1,1.2-0.3,1.8-0.5v2c-1.1,0.4-2.4,0.6-3.8,0.6c-2.1,0-3.7-0.6-4.8-1.9
			s-1.7-3.1-1.7-5.4c0-1.5,0.3-2.8,0.8-3.9c0.5-1.1,1.3-2,2.4-2.6s2.2-0.9,3.6-0.9c1.5,0,2.8,0.3,4,0.9l-0.8,1.9
			c-0.5-0.2-1-0.4-1.5-0.6C105.7,259.7,105,259.9,104.5,259.9z"/>
		<path fill="#565756" d="M119.7,265.3c0,2.5-0.4,4.3-1.2,5.5c-0.8,1.2-2,1.8-3.7,1.8c-1.6,0-2.8-0.6-3.6-1.9
			c-0.8-1.3-1.2-3.1-1.2-5.5c0-2.5,0.4-4.4,1.2-5.6c0.8-1.2,2-1.8,3.6-1.8c1.6,0,2.8,0.6,3.6,1.9C119.2,261,119.7,262.9,119.7,265.3
			z M112.4,265.3c0,1.9,0.2,3.3,0.6,4.2s1,1.2,1.9,1.2s1.5-0.4,1.9-1.3c0.4-0.9,0.6-2.2,0.6-4.2c0-1.9-0.2-3.3-0.6-4.2
			c-0.4-0.9-1-1.3-1.9-1.3s-1.5,0.4-1.9,1.3S112.4,263.3,112.4,265.3z"/>
		<path fill="#565756" d="M131.1,272.4h-9.7v-1.7l3.7-3.7c1.1-1.1,1.8-1.9,2.2-2.4c0.4-0.5,0.6-0.9,0.8-1.3c0.2-0.4,0.2-0.8,0.2-1.3
			c0-0.6-0.2-1.2-0.6-1.5c-0.4-0.3-0.9-0.6-1.6-0.6c-0.5,0-1.1,0.1-1.6,0.3c-0.5,0.2-1.1,0.6-1.8,1.1l-1.2-1.5
			c0.8-0.7,1.6-1.1,2.3-1.4c0.7-0.3,1.5-0.4,2.4-0.4c1.3,0,2.4,0.3,3.2,1c0.8,0.7,1.2,1.6,1.2,2.8c0,0.6-0.1,1.3-0.3,1.8
			c-0.2,0.5-0.6,1.2-1.1,1.8s-1.3,1.4-2.4,2.5l-2.5,2.4v0.1h6.8V272.4L131.1,272.4z"/>
		<path fill="#565756" d="M144.3,272.6c-1.4,0-2.4-0.5-3.2-1.5H141c0.1,0.9,0.1,1.5,0.1,1.7v4.4h-2.3v-15.6h1.9
			c0.1,0.2,0.2,0.7,0.3,1.4h0.1c0.7-1.1,1.8-1.6,3.2-1.6c1.3,0,2.4,0.5,3.1,1.5c0.7,1,1.1,2.3,1.1,4.1s-0.4,3.1-1.1,4.1
			C146.7,272.1,145.7,272.6,144.3,272.6z M143.8,263.3c-0.9,0-1.6,0.3-2,0.8c-0.4,0.5-0.6,1.4-0.6,2.6v0.3c0,1.3,0.2,2.3,0.6,2.9
			c0.4,0.6,1.1,0.9,2,0.9c0.8,0,1.4-0.3,1.8-1c0.4-0.7,0.6-1.6,0.6-2.8s-0.2-2.1-0.6-2.7C145.2,263.7,144.6,263.3,143.8,263.3z"/>
		<path fill="#565756" d="M156,272.6c-1.7,0-3-0.5-3.9-1.5s-1.4-2.3-1.4-4c0-1.8,0.4-3.2,1.3-4.2s2.1-1.5,3.6-1.5
			c1.4,0,2.6,0.4,3.4,1.3c0.8,0.9,1.2,2.1,1.2,3.6v1.2H153c0,1,0.3,1.9,0.8,2.4s1.3,0.8,2.3,0.8c0.6,0,1.2-0.1,1.8-0.2
			s1.1-0.3,1.8-0.6v1.9c-0.6,0.3-1.1,0.5-1.7,0.6S156.8,272.6,156,272.6z M155.6,263.1c-0.7,0-1.3,0.2-1.8,0.7s-0.7,1.1-0.8,2h4.9
			c0-0.9-0.2-1.6-0.6-2C156.9,263.4,156.3,263.1,155.6,263.1z"/>
		<path fill="#565756" d="M168.3,261.4c0.5,0,0.8,0,1.1,0.1l-0.2,2.1c-0.3-0.1-0.7-0.1-1-0.1c-0.9,0-1.7,0.3-2.2,0.9
			s-0.9,1.4-0.9,2.3v5.6h-2.3v-10.8h1.8l0.3,1.9h0.1c0.4-0.6,0.8-1.2,1.4-1.5C167,261.6,167.6,261.4,168.3,261.4z"/>
		<path fill="#565756" d="M175,261.6h2.5l2.2,6.1c0.3,0.9,0.6,1.7,0.7,2.5h0.1c0.1-0.4,0.2-0.8,0.3-1.3c0.1-0.5,1-2.9,2.5-7.3h2.5
			l-4.6,12.2c-0.8,2.2-2.2,3.4-4.2,3.4c-0.5,0-1-0.1-1.5-0.2v-1.8c0.3,0.1,0.7,0.1,1.2,0.1c1.1,0,1.9-0.6,2.3-1.9l0.4-1L175,261.6z"
			/>
		<path fill="#565756" d="M192.1,272.6c-1.7,0-3-0.5-3.9-1.5c-0.9-1-1.4-2.3-1.4-4c0-1.8,0.4-3.2,1.3-4.2s2.1-1.5,3.6-1.5
			c1.4,0,2.6,0.4,3.4,1.3c0.8,0.9,1.2,2.1,1.2,3.6v1.2h-7.2c0,1,0.3,1.9,0.8,2.4s1.3,0.8,2.3,0.8c0.6,0,1.2-0.1,1.8-0.2
			s1.1-0.3,1.8-0.6v1.9c-0.6,0.3-1.1,0.5-1.7,0.6S192.8,272.6,192.1,272.6z M191.7,263.1c-0.7,0-1.3,0.2-1.8,0.7s-0.7,1.1-0.8,2h4.9
			c0-0.9-0.2-1.6-0.6-2C193,263.4,192.4,263.1,191.7,263.1z"/>
		<path fill="#565756" d="M205.6,272.4l-0.5-1.5H205c-0.5,0.7-1,1.1-1.6,1.3c-0.6,0.2-1.2,0.4-2,0.4c-1.1,0-1.9-0.3-2.5-0.9
			c-0.6-0.6-0.9-1.4-0.9-2.4c0-1.1,0.4-2,1.2-2.5c0.8-0.5,2.1-0.9,3.8-0.9l1.9-0.1v-0.6c0-0.7-0.2-1.2-0.5-1.5
			c-0.3-0.3-0.8-0.5-1.5-0.5c-0.6,0-1.1,0.1-1.6,0.2s-1,0.4-1.5,0.6l-0.7-1.6c0.6-0.3,1.2-0.5,1.9-0.7c0.7-0.2,1.4-0.2,2-0.2
			c1.4,0,2.4,0.3,3.1,0.9c0.7,0.6,1,1.5,1,2.8v7.3h-1.5V272.4z M202.2,270.8c0.8,0,1.5-0.2,2-0.7s0.8-1.1,0.8-2v-0.9l-1.4,0.1
			c-1.1,0-1.9,0.2-2.4,0.5c-0.5,0.3-0.7,0.8-0.7,1.5c0,0.5,0.1,0.9,0.4,1.1C201.2,270.6,201.7,270.8,202.2,270.8z"/>
		<path fill="#565756" d="M216,261.4c0.5,0,0.8,0,1.1,0.1l-0.2,2.1c-0.3-0.1-0.7-0.1-1-0.1c-0.9,0-1.7,0.3-2.2,0.9s-0.9,1.4-0.9,2.3
			v5.6h-2.3v-10.8h1.8l0.3,1.9h0.1c0.4-0.6,0.8-1.2,1.4-1.5C214.7,261.6,215.3,261.4,216,261.4z"/>
	</g>
</g>
<g enable-background="new    ">
	<path fill="#404041" d="M98.2,242.9h-2.3v-6.4h-6.6v6.4H87v-14.3h2.3v5.8h6.6v-5.8h2.3V242.9z"/>
	<path fill="#404041" d="M106,235.2l3.4-6.5h2.5l-4.8,8.7v5.5h-2.3v-5.5l-4.7-8.8h2.5L106,235.2z"/>
	<path fill="#404041" d="M125.4,235.7c0,2.4-0.7,4.2-2,5.4c-1.3,1.2-3.2,1.9-5.7,1.9h-4v-14.3h4.4c2.3,0,4,0.6,5.3,1.8
		C124.7,231.7,125.4,233.4,125.4,235.7z M123,235.7c0-3.4-1.6-5.1-4.8-5.1h-2V241h1.7C121.2,241,123,239.2,123,235.7z"/>
	<path fill="#404041" d="M130.8,237.2v5.7h-2.3v-14.3h4c1.8,0,3.2,0.3,4.1,1c0.9,0.7,1.3,1.7,1.3,3.1c0,1.8-0.9,3-2.8,3.8l4,6.3
		h-2.7l-3.4-5.7h-2.2V237.2z M130.8,235.3h1.6c1.1,0,1.9-0.2,2.4-0.6c0.5-0.4,0.7-1,0.7-1.8c0-0.8-0.3-1.4-0.8-1.7
		c-0.5-0.3-1.3-0.5-2.4-0.5h-1.5V235.3z"/>
	<path fill="#404041" d="M153.9,235.8c0,2.3-0.6,4.1-1.7,5.4c-1.1,1.3-2.8,1.9-4.9,1.9c-2.2,0-3.8-0.6-5-1.9
		c-1.2-1.3-1.7-3.1-1.7-5.5c0-2.4,0.6-4.2,1.7-5.4c1.1-1.2,2.8-1.9,5-1.9c2.1,0,3.8,0.6,4.9,1.9
		C153.3,231.6,153.9,233.4,153.9,235.8z M143,235.8c0,1.8,0.4,3.1,1.1,4c0.7,0.9,1.8,1.4,3.2,1.4c1.4,0,2.4-0.4,3.1-1.3
		c0.7-0.9,1.1-2.2,1.1-4c0-1.8-0.4-3.1-1-4s-1.7-1.4-3.1-1.4s-2.5,0.5-3.2,1.4C143.5,232.8,143,234,143,235.8z"/>
</g>
<g>
	
		<linearGradient id="SVGID_1_" gradientUnits="userSpaceOnUse" x1="282.9351" y1="535.7227" x2="404.8349" y2="390.448" gradientTransform="matrix(1 0 0 -1 0 566)">
		<stop  offset="0" style="stop-color:#BBBDBF"/>
		<stop  offset="1" style="stop-color:#D0D2D3"/>
	</linearGradient>
	<polyline fill="url(#SVGID_1_)" stroke="#6D6E70" stroke-miterlimit="10" points="344,-20.5 327.6,-7.2 328.6,198.2 344,226.6 	"/>
	<polygon fill="#808184" stroke="#6D6E70" stroke-miterlimit="10" points="465.6,208.8 464.7,210.3 464.6,211.9 460.2,216.6 
		445.7,215.5 452.5,209.1 	"/>
	<polyline fill="#808184" stroke="#6D6E70" stroke-miterlimit="10" points="344,219.7 344,222.9 346,228.6 360.4,229.5 360.4,222.5 
		347.4,223.4 	"/>
	<polygon fill="#808184" stroke="#6D6E70" stroke-miterlimit="10" points="395.3,1.3 409,1.3 423.8,216.6 375.1,224.5 	"/>
	<polygon fill="#58595B" stroke="#6D6E70" stroke-miterlimit="10" points="452.5,217.4 360.4,229.5 360.4,221 452.5,208.8 	"/>
	<polygon fill="#808184" stroke="#6D6E70" stroke-miterlimit="10" points="404.5,-24.5 400.6,-23.2 400.6,6.6 402.9,6.6 	"/>
	
		<radialGradient id="SVGID_2_" cx="373.6499" cy="468.1504" r="91.5597" gradientTransform="matrix(1 0 0 -1 0 566)" gradientUnits="userSpaceOnUse">
		<stop  offset="0" style="stop-color:#E6E7E8"/>
		<stop  offset="1" style="stop-color:#D0D2D3"/>
	</radialGradient>
	<polygon fill="url(#SVGID_2_)" stroke="#6D6E70" stroke-miterlimit="10" points="346.7,-28.8 400.6,-24.7 400.3,216.6 346.7,224.5 
			"/>
	
		<radialGradient id="SVGID_3_" cx="416.5938" cy="487.8477" r="88.384" gradientTransform="matrix(0.342 -0.9397 -0.6578 -0.2394 613.6686 604.2177)" gradientUnits="userSpaceOnUse">
		<stop  offset="0" style="stop-color:#E6E7E8"/>
		<stop  offset="0.4632" style="stop-color:#DFE0E1"/>
		<stop  offset="1" style="stop-color:#D0D2D3"/>
	</radialGradient>
	<polygon fill="url(#SVGID_3_)" stroke="#6D6E70" stroke-miterlimit="10" points="403.2,-24.7 467.8,-19.1 467.8,208.5 402.7,216.6 
			"/>
	<path fill="#BBBDBF" stroke="#6D6E70" stroke-miterlimit="10" d="M448.8-7.9c0,0-0.1,2.8,0,3.1c0.101,0.3,7.4,0.8,7.4,0.8v-3.8
		h-7.4V-7.9z"/>
	<polygon fill="#808184" stroke="#6D6E70" stroke-miterlimit="10" points="403.9,8.2 407.4,7.2 407.4,17.7 403.9,18.4 	"/>
	<polygon fill="#808184" stroke="#6D6E70" stroke-miterlimit="10" points="403.9,132.3 407.4,133.4 407.4,122.9 403.9,122.1 	"/>
	<path fill="#404041" stroke="#6D6E70" stroke-miterlimit="10" d="M407.4,6.6c0,0,2-1.2,3.199,0v126.1c0,0-1.199,1.9-3.1,0
		L407.4,6.6z"/>
	<polygon fill="#808184" stroke="#6D6E70" stroke-miterlimit="10" points="395.3,8.2 398.7,7.2 398.7,17.7 395.3,18.4 	"/>
	<polygon fill="#808184" stroke="#6D6E70" stroke-miterlimit="10" points="395.3,132.3 398.7,133.4 398.7,122.9 395.3,122.1 	"/>
	<path fill="#404041" stroke="#6D6E70" stroke-miterlimit="10" d="M398.7,6.6c0,0,2-1.2,3.2,0v126.1c0,0-1.2,1.9-3.101,0L398.7,6.6z
		"/>
	<path fill="#58595B" stroke="#6D6E70" stroke-miterlimit="10" d="M464.7,210.3c0,0,0.8,0.4,1,1.6v5.1c0,0,0,0.6-1,0.6l-9.8,1.1
		c0,0-1,0.1-1.601-0.4l-0.7-0.8v-6l1.5,1.2c0,0,0.301,0.3,1.9,0.1c1.6-0.2,8.6-0.8,8.6-0.8s0-1.7-0.399-1.6
		C463.8,210.3,464.7,210.3,464.7,210.3z"/>
	<path fill="#58595B" stroke="#6D6E70" stroke-miterlimit="10" d="M360.4,224.2v6.4c0,0,0,0.6-0.9,1.4l-10.4,1.2
		c0,0-2.7-1.1-3.3-1.7l-1.8-2.6v-6l2.5,3.1c0,0,0.3,0.3,1.9,0.1c1.6-0.2,10.9-1.6,10.9-1.6"/>
	<path fill="#58595B" stroke="#6D6E70" stroke-miterlimit="10" d="M459.1,209.6v1.8c0,0,3.7-0.4,3.9-0.9s0-1.4,0-1.4L459.1,209.6z"
		/>
	<polygon fill="#808184" stroke="#6D6E70" stroke-miterlimit="10" points="343.2,-20.5 345.5,-22.1 345.5,-28.8 346.7,-28.8 
		346.7,224.5 344,219.7 	"/>
	<polygon fill="#58595B" stroke="#6D6E70" stroke-miterlimit="10" points="344.9,-25.9 343.2,-25.9 343.2,-20.5 345.5,-22.1 	"/>
	<path fill="#808184" stroke="#6D6E70" stroke-miterlimit="10" d="M343.2-25.9l-3.4,3.4c0,0-1.2,3.7-0.9,5.7c0.2,2,4.3-3.7,4.3-3.7
		V-25.9z"/>
	<polygon fill="#BBBDBF" stroke="#6D6E70" stroke-miterlimit="10" points="384.9,100.5 359.7,100.9 359.7,62.2 384.9,62.5 	"/>
	<path fill="#58595B" stroke="#6D6E70" stroke-miterlimit="10" d="M375.3,66.6v12.7c0,0-0.5,0.8-1.2,0.8c-0.7,0.1-6.2,0-6.2,0
		s-1-0.5-1-1.1s0-12.3,0-12.3v-3.2"/>
	<polygon fill="#6D6E70" stroke="#6D6E70" stroke-miterlimit="10" points="391.3,102.1 391.7,62.5 386.8,62.5 386.8,101.6 	"/>
	
		<linearGradient id="SVGID_4_" gradientUnits="userSpaceOnUse" x1="382.0928" y1="484.2998" x2="387.3428" y2="484.2998" gradientTransform="matrix(1 0 0 -1 0 566)">
		<stop  offset="0" style="stop-color:#BBBDBF"/>
		<stop  offset="1" style="stop-color:#6D6E70"/>
	</linearGradient>
	<path fill="url(#SVGID_4_)" stroke="#6D6E70" stroke-miterlimit="10" d="M387.3,100.9V62.7l-4.9-0.2c0,0,1,36.3-0.4,38.3"/>
	<path fill="#4D4D4F" stroke="#6D6E70" stroke-miterlimit="10" d="M391.7,62.9h-25.9H358v-14c0,0-0.5-0.6,0.9-0.5h31.8
		c0,0,1,0.1,0.9,0.8v13.7H391.7z"/>
	<rect x="367.4" y="50.2" fill="#A5CFEB" width="15.1" height="11.1"/>
	<g>
		<circle fill="none" stroke="#6D6E70" stroke-width="0.25" stroke-miterlimit="10" cx="386.6" cy="52.3" r="1.3"/>
		<circle fill="none" stroke="#6D6E70" stroke-width="0.25" stroke-miterlimit="10" cx="386.6" cy="59.2" r="1.3"/>
		<circle fill="none" stroke="#6D6E70" stroke-width="0.25" stroke-miterlimit="10" cx="386.6" cy="55.7" r="1.3"/>
		<ellipse fill="none" stroke="#6D6E70" stroke-width="0.25" stroke-miterlimit="10" cx="363.2" cy="52.3" rx="1.3" ry="1.3"/>
		<ellipse fill="none" stroke="#6D6E70" stroke-width="0.25" stroke-miterlimit="10" cx="363.2" cy="59.2" rx="1.3" ry="1.3"/>
		<circle fill="none" stroke="#6D6E70" stroke-width="0.25" stroke-miterlimit="10" cx="363.2" cy="55.7" r="1.3"/>
	</g>
	<path fill="#808184" stroke="#6D6E70" stroke-miterlimit="10" d="M374.8,66.6V78l-5.9,0.3c0,0-0.9-0.3-1-0.8
		c-0.1-0.6,0-10.9,0-10.9H374.8z"/>
	
		<linearGradient id="SVGID_5_" gradientUnits="userSpaceOnUse" x1="358.0518" y1="483.2002" x2="361.4082" y2="483.2002" gradientTransform="matrix(1 0 0 -1 0 566)">
		<stop  offset="0" style="stop-color:#6D6E70"/>
		<stop  offset="1" style="stop-color:#BBBDBF"/>
	</linearGradient>
	<path fill="url(#SVGID_5_)" stroke="#6D6E70" stroke-miterlimit="10" d="M361.4,100.9l-0.4-38l-2.9-0.4v40.6
		C358.1,103.1,358.4,101.3,361.4,100.9z"/>
	
		<linearGradient id="SVGID_6_" gradientUnits="userSpaceOnUse" x1="365.8999" y1="501.0498" x2="378.7564" y2="501.0498" gradientTransform="matrix(1 0 0 -1 0 566)">
		<stop  offset="0" style="stop-color:#58595B"/>
		<stop  offset="0.5053" style="stop-color:#D0D2D3"/>
		<stop  offset="0.9439" style="stop-color:#58595B"/>
	</linearGradient>
	<polygon fill="url(#SVGID_6_)" stroke="#6D6E70" stroke-miterlimit="10" points="378.8,62.9 377.4,65.6 377.4,67 367.9,67 
		367.9,66 365.9,62.9 	"/>
	
		<linearGradient id="SVGID_7_" gradientUnits="userSpaceOnUse" x1="358.0508" y1="464.1377" x2="391.6528" y2="464.1377" gradientTransform="matrix(1 0 0 -1 0 566)">
		<stop  offset="0" style="stop-color:#E6E7E8"/>
		<stop  offset="1" style="stop-color:#A6A8AB"/>
	</linearGradient>
	<path fill="url(#SVGID_7_)" stroke="#6D6E70" stroke-miterlimit="10" d="M391.7,102.2l-33.6,1c0,0-0.2-1.7,3.4-2.3
		c3.5-0.6,20.7-0.3,20.7-0.3"/>
	<path fill="#A6A8AB" stroke="#6D6E70" stroke-miterlimit="10" d="M391.7,102.2c0,0-4.7-1.8-7.7-1.7s-1.9,0-1.9,0l3.5,1.7H391.7z"/>
	<line fill="none" stroke="#6D6E70" stroke-miterlimit="10" x1="452.5" y1="215.9" x2="360.4" y2="228"/>
	<line fill="none" stroke="#6D6E70" stroke-miterlimit="10" x1="452.5" y1="213.7" x2="360.4" y2="225.7"/>
	<line fill="none" stroke="#6D6E70" stroke-miterlimit="10" x1="452.5" y1="211.4" x2="360.4" y2="223.5"/>
</g>
<g>
	<g>
		<line fill="none" stroke="#3D3C3D" stroke-miterlimit="10" x1="397.7" y1="236.6" x2="397.7" y2="237.1"/>
		
			<line fill="none" stroke="#3D3C3D" stroke-miterlimit="10" stroke-dasharray="0.9632,2.8897" x1="397.7" y1="240" x2="397.7" y2="277"/>
		<line fill="none" stroke="#3D3C3D" stroke-miterlimit="10" x1="397.7" y1="278.5" x2="397.7" y2="279"/>
		<g>
			<polygon fill="#3D3C3D" points="393.7,277.8 397.7,284.7 401.7,277.8 			"/>
		</g>
	</g>
</g>
<g enable-background="new    ">
	<path fill="#404041" d="M87.4-54.4h-2.3v-6.4h-6.6v6.4h-2.3v-14.3h2.3v5.8h6.6v-5.8h2.3V-54.4z"/>
	<path fill="#404041" d="M103.9-61.6c0,2.3-0.6,4.1-1.7,5.4c-1.1,1.3-2.8,1.9-4.9,1.9c-2.2,0-3.8-0.6-5-1.9
		c-1.2-1.3-1.7-3.1-1.7-5.5c0-2.4,0.6-4.2,1.7-5.4c1.1-1.2,2.8-1.9,5-1.9c2.1,0,3.8,0.6,4.9,1.9C103.3-65.7,103.9-63.9,103.9-61.6z
		 M93-61.6c0,1.8,0.4,3.1,1.1,4c0.7,0.9,1.8,1.4,3.2,1.4c1.4,0,2.4-0.4,3.1-1.3c0.7-0.9,1.1-2.2,1.1-4s-0.3-3.1-1-4
		s-1.7-1.4-3.1-1.4s-2.5,0.5-3.2,1.4C93.5-64.6,93-63.3,93-61.6z"/>
	<path fill="#404041" d="M120.1-54.4h-2.5l-2.4-8.5c-0.1-0.4-0.2-0.9-0.4-1.6c-0.2-0.7-0.2-1.2-0.3-1.5c-0.1,0.4-0.2,1-0.3,1.6
		c-0.1,0.6-0.3,1.2-0.4,1.5l-2.4,8.5h-2.5l-1.8-7.1l-1.9-7.1h2.4l2,8.3c0.3,1.3,0.5,2.5,0.7,3.5c0.1-0.6,0.2-1.2,0.3-1.9
		c0.1-0.7,0.3-1.2,0.4-1.7l2.3-8.3h2.3l2.4,8.4c0.2,0.8,0.5,1.9,0.7,3.5c0.1-0.9,0.3-2.1,0.7-3.6l2-8.3h2.4L120.1-54.4z"/>
	<path fill="#404041" d="M137.2-54.4l-4.1-11.9H133c0.1,1.8,0.2,3.4,0.2,5v6.9H131v-14.3h3.3l4,11.4h0.1l4.1-11.4h3.3v14.3h-2.2
		v-7.1c0-0.7,0-1.6,0.1-2.8c0-1.1,0.1-1.8,0.1-2.1h-0.1l-4.3,11.9h-2.2V-54.4z"/>
	<path fill="#404041" d="M160.7-68.7v9.2c0,1.1-0.2,2-0.7,2.8c-0.5,0.8-1.1,1.4-2,1.8s-1.9,0.6-3.1,0.6c-1.8,0-3.1-0.5-4.1-1.4
		c-1-0.9-1.5-2.2-1.5-3.9v-9.2h2.3v9c0,1.2,0.3,2,0.8,2.6c0.5,0.6,1.4,0.8,2.5,0.8c2.2,0,3.3-1.2,3.3-3.5v-9h2.5V-68.7z"/>
	<path fill="#404041" d="M170.4-66.9c-1.3,0-2.4,0.5-3.2,1.4c-0.8,1-1.2,2.3-1.2,3.9c0,1.8,0.4,3.1,1.1,4c0.7,0.9,1.8,1.3,3.2,1.3
		c0.6,0,1.2-0.1,1.8-0.2s1.2-0.3,1.8-0.5v2c-1.1,0.4-2.4,0.6-3.8,0.6c-2.1,0-3.7-0.6-4.8-1.9c-1.1-1.3-1.7-3.1-1.7-5.4
		c0-1.5,0.3-2.8,0.8-3.9s1.3-2,2.4-2.6c1-0.6,2.2-0.9,3.6-0.9c1.5,0,2.8,0.3,4,0.9l-0.8,1.9c-0.5-0.2-1-0.4-1.5-0.6
		C171.6-67.1,171-66.9,170.4-66.9z"/>
	<path fill="#404041" d="M188.3-54.4H186v-6.4h-6.6v6.4H177v-14.3h2.3v5.8h6.6v-5.8h2.3v14.3H188.3z"/>
	<path fill="#404041" d="M203.1-62.2h5.3v7.2c-0.9,0.3-1.7,0.5-2.5,0.6c-0.8,0.1-1.6,0.2-2.6,0.2c-2.2,0-3.8-0.6-5-1.9
		c-1.2-1.3-1.8-3.1-1.8-5.4s0.7-4.1,2-5.4c1.3-1.3,3.1-1.9,5.5-1.9c1.5,0,2.9,0.3,4.2,0.9l-0.8,1.9c-1.2-0.5-2.3-0.8-3.5-0.8
		c-1.5,0-2.7,0.5-3.6,1.4c-0.9,1-1.3,2.3-1.3,3.9c0,1.7,0.4,3.1,1.2,4c0.8,0.9,1.9,1.4,3.4,1.4c0.8,0,1.6-0.1,2.4-0.3v-3.7h-3v-2.1
		H203.1z"/>
	<path fill="#404041" d="M214.1-60.1v5.7h-2.3v-14.3h4c1.8,0,3.2,0.3,4.1,1c0.9,0.7,1.3,1.7,1.3,3.1c0,1.8-0.9,3-2.8,3.8l4,6.3h-2.7
		l-3.4-5.7h-2.2V-60.1z M214.1-62.1h1.6c1.1,0,1.9-0.2,2.4-0.6c0.5-0.4,0.7-1,0.7-1.8s-0.3-1.4-0.8-1.7c-0.5-0.3-1.3-0.5-2.4-0.5
		h-1.5V-62.1z"/>
	<path fill="#404041" d="M232.6-54.4h-8.1v-14.3h8.1v2h-5.7v3.9h5.4v2h-5.4v4.5h5.7V-54.4z"/>
	<path fill="#404041" d="M243.8-54.4h-8.1v-14.3h8.1v2H238v3.9h5.4v2H238v4.5h5.7v1.9H243.8z"/>
	<path fill="#404041" d="M258.8-54.4h-2.9l-7-11.4h-0.1v0.6c0.1,1.2,0.1,2.3,0.1,3.3v7.4h-2.1v-14.3h2.8l7,11.3h0.1
		c0-0.1,0-0.7-0.1-1.6s-0.1-1.7-0.1-2.2v-7.5h2.1v14.4H258.8z"/>
	<path fill="#404041" d="M273.8-54.4h-2.3v-6.4h-6.6v6.4h-2.3v-14.3h2.3v5.8h6.6v-5.8h2.3V-54.4z"/>
	<path fill="#404041" d="M290.2-61.6c0,2.3-0.6,4.1-1.7,5.4c-1.1,1.3-2.8,1.9-4.9,1.9c-2.2,0-3.8-0.6-5-1.9
		c-1.2-1.3-1.7-3.1-1.7-5.5c0-2.4,0.6-4.2,1.7-5.4c1.1-1.2,2.8-1.9,5-1.9c2.1,0,3.8,0.6,4.9,1.9C289.6-65.7,290.2-63.9,290.2-61.6z
		 M279.3-61.6c0,1.8,0.4,3.1,1.1,4c0.7,0.9,1.8,1.4,3.2,1.4s2.4-0.4,3.1-1.3c0.7-0.9,1.1-2.2,1.1-4s-0.3-3.1-1-4
		c-0.7-0.9-1.7-1.4-3.1-1.4c-1.4,0-2.5,0.5-3.2,1.4S279.3-63.3,279.3-61.6z"/>
	<path fill="#404041" d="M304.5-68.7v9.2c0,1.1-0.2,2-0.7,2.8c-0.5,0.8-1.1,1.4-2,1.8c-0.9,0.4-1.9,0.6-3.1,0.6
		c-1.8,0-3.1-0.5-4.1-1.4c-1-0.9-1.5-2.2-1.5-3.9v-9.2h2.3v9c0,1.2,0.3,2,0.8,2.6c0.5,0.6,1.4,0.8,2.5,0.8c2.2,0,3.3-1.2,3.3-3.5v-9
		h2.5V-68.7z"/>
	<path fill="#404041" d="M316.4-58.3c0,1.3-0.5,2.3-1.4,3c-0.9,0.7-2.2,1.1-3.8,1.1c-1.6,0-2.9-0.3-4-0.8v-2.2
		c0.7,0.3,1.3,0.5,2.1,0.7c0.8,0.2,1.4,0.3,2,0.3c0.9,0,1.6-0.2,2-0.5c0.4-0.3,0.7-0.8,0.7-1.4c0-0.5-0.2-1-0.6-1.4
		s-1.2-0.8-2.5-1.3c-1.3-0.5-2.2-1.1-2.8-1.8c-0.5-0.7-0.8-1.5-0.8-2.4c0-1.2,0.4-2.1,1.3-2.8c0.8-0.7,2-1,3.4-1s2.7,0.3,4.1,0.9
		l-0.7,1.9c-1.3-0.5-2.4-0.8-3.4-0.8c-0.8,0-1.3,0.2-1.7,0.5c-0.4,0.3-0.6,0.8-0.6,1.3c0,0.4,0.1,0.7,0.2,1s0.4,0.5,0.8,0.7
		c0.4,0.2,1,0.5,1.9,0.9c1,0.4,1.8,0.8,2.3,1.2c0.5,0.4,0.8,0.8,1.1,1.3C316.3-59.5,316.4-59,316.4-58.3z"/>
	<path fill="#404041" d="M327.2-54.4h-8.1v-14.3h8.1v2h-5.7v3.9h5.4v2h-5.4v4.5h5.7V-54.4z"/>
	<path fill="#404041" d="M341.3-62.2h5.3v7.2c-0.9,0.3-1.7,0.5-2.5,0.6c-0.8,0.1-1.6,0.2-2.6,0.2c-2.2,0-3.8-0.6-5-1.9
		c-1.2-1.3-1.8-3.1-1.8-5.4s0.7-4.1,2-5.4c1.3-1.3,3.1-1.9,5.5-1.9c1.5,0,2.9,0.3,4.2,0.9l-0.8,1.9c-1.2-0.5-2.3-0.8-3.5-0.8
		c-1.5,0-2.7,0.5-3.6,1.4c-0.9,1-1.3,2.3-1.3,3.9c0,1.7,0.4,3.1,1.2,4c0.8,0.9,1.9,1.4,3.4,1.4c0.8,0,1.6-0.1,2.4-0.3v-3.7h-3v-2.1
		H341.3z"/>
	<path fill="#404041" d="M358.9-54.4l-1.4-4H352l-1.4,4h-2.5l5.3-14.3h2.5l5.3,14.3H358.9z M356.8-60.4l-1.3-3.9
		c-0.1-0.3-0.2-0.7-0.4-1.2c-0.2-0.6-0.3-1-0.4-1.2c-0.2,0.8-0.4,1.7-0.8,2.6l-1.3,3.7H356.8z"/>
	<path fill="#404041" d="M371.5-58.3c0,1.3-0.5,2.3-1.4,3c-0.9,0.7-2.2,1.1-3.8,1.1c-1.6,0-2.9-0.3-4-0.8v-2.2
		c0.7,0.3,1.3,0.5,2.1,0.7c0.8,0.2,1.4,0.3,2,0.3c0.9,0,1.6-0.2,2-0.5c0.4-0.3,0.7-0.8,0.7-1.4c0-0.5-0.2-1-0.6-1.4
		s-1.2-0.8-2.5-1.3s-2.2-1.1-2.8-1.8c-0.5-0.7-0.8-1.5-0.8-2.4c0-1.2,0.4-2.1,1.3-2.8c0.8-0.7,2-1,3.4-1s2.7,0.3,4.1,0.9l-0.7,1.9
		c-1.3-0.5-2.4-0.8-3.4-0.8c-0.8,0-1.3,0.2-1.7,0.5c-0.4,0.3-0.6,0.8-0.6,1.3c0,0.4,0.1,0.7,0.2,1s0.4,0.5,0.8,0.7
		c0.4,0.2,1,0.5,1.9,0.9c1,0.4,1.8,0.8,2.3,1.2c0.5,0.4,0.8,0.8,1.1,1.3C371.4-59.5,371.5-59,371.5-58.3z"/>
	<path fill="#404041" d="M379.4-54.4v-14.3h2.3v14.3H379.4z"/>
	<path fill="#404041" d="M393.8-58.3c0,1.3-0.5,2.3-1.4,3c-0.9,0.7-2.2,1.1-3.8,1.1s-2.9-0.3-4-0.8v-2.2c0.7,0.3,1.3,0.5,2.1,0.7
		c0.8,0.2,1.4,0.3,2,0.3c0.9,0,1.6-0.2,2-0.5c0.4-0.3,0.7-0.8,0.7-1.4c0-0.5-0.2-1-0.6-1.4c-0.4-0.4-1.2-0.8-2.5-1.3
		c-1.3-0.5-2.2-1.1-2.8-1.8c-0.5-0.7-0.8-1.5-0.8-2.4c0-1.2,0.4-2.1,1.3-2.8c0.8-0.7,2-1,3.4-1s2.7,0.3,4.1,0.9l-0.7,1.9
		c-1.3-0.5-2.4-0.8-3.4-0.8c-0.8,0-1.3,0.2-1.7,0.5c-0.4,0.3-0.6,0.8-0.6,1.3c0,0.4,0.1,0.7,0.2,1c0.1,0.3,0.4,0.5,0.8,0.7
		c0.4,0.2,1,0.5,1.9,0.9c1,0.4,1.8,0.8,2.3,1.2c0.5,0.4,0.8,0.8,1.1,1.3C393.6-59.5,393.8-59,393.8-58.3z"/>
	<path fill="#404041" d="M405.8-62.2l3.4-6.5h2.5l-4.8,8.7v5.5H404.6V-60l-4.699-8.8h2.5L405.8-62.2z"/>
	<path fill="#404041" d="M426.2-61.6c0,2.3-0.601,4.1-1.7,5.4c-1.1,1.3-2.8,1.9-4.9,1.9c-2.199,0-3.8-0.6-5-1.9
		c-1.199-1.3-1.699-3.1-1.699-5.5c0-2.4,0.6-4.2,1.699-5.4c1.101-1.2,2.801-1.9,5-1.9c2.101,0,3.801,0.6,4.9,1.9
		C425.7-65.7,426.2-63.9,426.2-61.6z M415.3-61.6c0,1.8,0.4,3.1,1.101,4c0.699,0.9,1.8,1.4,3.199,1.4c1.4,0,2.4-0.4,3.101-1.3
		s1.1-2.2,1.1-4s-0.3-3.1-1-4s-1.7-1.4-3.1-1.4c-1.4,0-2.5,0.5-3.2,1.4S415.3-63.3,415.3-61.6z"/>
	<path fill="#404041" d="M440.5-68.7v9.2c0,1.1-0.2,2-0.7,2.8c-0.5,0.8-1.1,1.4-2,1.8c-0.899,0.4-1.899,0.6-3.1,0.6
		c-1.8,0-3.101-0.5-4.101-1.4c-1-0.9-1.5-2.2-1.5-3.9v-9.2h2.301v9c0,1.2,0.3,2,0.8,2.6c0.5,0.6,1.399,0.8,2.5,0.8
		c2.2,0,3.3-1.2,3.3-3.5v-9h2.5V-68.7z"/>
	<path fill="#404041" d="M446.5-60.1v5.7h-2.3v-14.3h4c1.8,0,3.2,0.3,4.1,1c0.9,0.7,1.3,1.7,1.3,3.1c0,1.8-0.899,3-2.8,3.8l4,6.3
		h-2.7l-3.399-5.7h-2.2V-60.1z M446.5-62.1h1.6c1.101,0,1.9-0.2,2.4-0.6c0.5-0.4,0.7-1,0.7-1.8s-0.3-1.4-0.8-1.7
		c-0.5-0.3-1.301-0.5-2.4-0.5h-1.5V-62.1L446.5-62.1z"/>
	<path fill="#404041" d="M464.4-54.4H462.1v-14.3h8.101v2h-5.7v4.5h5.4v2h-5.4v5.8H464.4z"/>
	<path fill="#404041" d="M475.1-60.1v5.7h-2.3v-14.3h4c1.8,0,3.2,0.3,4.101,1c0.899,0.7,1.3,1.7,1.3,3.1c0,1.8-0.9,3-2.8,3.8l4,6.3
		h-2.7l-3.4-5.7h-2.2V-60.1z M475.1-62.1h1.601c1.1,0,1.899-0.2,2.399-0.6c0.5-0.4,0.7-1,0.7-1.8s-0.3-1.4-0.8-1.7
		c-0.5-0.3-1.3-0.5-2.4-0.5h-1.5V-62.1L475.1-62.1z"/>
	<path fill="#404041" d="M485.5-54.4v-14.3h2.3v14.3H485.5z"/>
	<path fill="#404041" d="M503.3-61.7c0,2.4-0.7,4.2-2,5.4c-1.3,1.2-3.2,1.9-5.7,1.9h-4v-14.3h4.4c2.3,0,4,0.6,5.3,1.8
		C502.6-65.6,503.3-63.9,503.3-61.7z M500.8-61.6c0-3.4-1.6-5.1-4.8-5.1h-2v10.4h1.7C499.1-56.4,500.8-58.1,500.8-61.6z"/>
	<path fill="#404041" d="M512.2-62.2h5.3v7.2c-0.9,0.3-1.7,0.5-2.5,0.6s-1.6,0.2-2.6,0.2c-2.2,0-3.801-0.6-5-1.9
		c-1.2-1.3-1.801-3.1-1.801-5.4s0.7-4.1,2-5.4c1.301-1.3,3.101-1.9,5.5-1.9c1.5,0,2.9,0.3,4.2,0.9l-0.8,1.9
		c-1.2-0.5-2.3-0.8-3.5-0.8c-1.5,0-2.7,0.5-3.6,1.4c-0.9,1-1.301,2.3-1.301,3.9c0,1.7,0.4,3.1,1.2,4s1.9,1.4,3.4,1.4
		c0.8,0,1.6-0.1,2.399-0.3v-3.7h-3v-2.1H512.2z"/>
	<path fill="#404041" d="M528.9-54.4H520.8v-14.3h8.101v2h-5.7v3.9h5.399v2H523.2v4.5h5.7V-54.4z"/>
	<path fill="#404041" d="M539.5-60.1v5.7h-2.3v-14.3h4c1.8,0,3.2,0.3,4.1,1c0.9,0.7,1.3,1.7,1.3,3.1c0,1.8-0.899,3-2.8,3.8l4,6.3
		h-2.7l-3.399-5.7h-2.2V-60.1z M539.5-62.1h1.6c1.101,0,1.9-0.2,2.4-0.6c0.5-0.4,0.7-1,0.7-1.8s-0.3-1.4-0.8-1.7
		c-0.5-0.3-1.301-0.5-2.4-0.5h-1.5V-62.1z"/>
	<path fill="#404041" d="M558.1-54.4H550v-14.3h8.1v2H552.4v3.9h5.399v2H552.4v4.5h5.699V-54.4z"/>
	<path fill="#404041" d="M569.4-58.3c0,1.3-0.5,2.3-1.4,3c-0.9,0.7-2.2,1.1-3.8,1.1c-1.601,0-2.9-0.3-4-0.8v-2.2
		c0.7,0.3,1.3,0.5,2.1,0.7s1.4,0.3,2,0.3c0.9,0,1.601-0.2,2-0.5c0.4-0.3,0.7-0.8,0.7-1.4c0-0.5-0.2-1-0.6-1.4
		c-0.4-0.4-1.2-0.8-2.5-1.3c-1.301-0.5-2.2-1.1-2.801-1.8c-0.5-0.7-0.8-1.5-0.8-2.4c0-1.2,0.4-2.1,1.3-2.8c0.801-0.7,2-1,3.4-1
		s2.7,0.3,4.1,0.9L568.4-66c-1.301-0.5-2.4-0.8-3.4-0.8c-0.8,0-1.3,0.2-1.7,0.5c-0.399,0.3-0.6,0.8-0.6,1.3c0,0.4,0.1,0.7,0.2,1
		c0.1,0.3,0.399,0.5,0.8,0.7c0.399,0.2,1,0.5,1.899,0.9c1,0.4,1.801,0.8,2.301,1.2c0.5,0.4,0.8,0.8,1.1,1.3
		C569.3-59.5,569.4-59,569.4-58.3z"/>
	<path fill="#404041" d="M581.6-64.4c0,1.5-0.5,2.6-1.5,3.4s-2.399,1.2-4.199,1.2h-1.5v5.3H572.1v-14.3h4.101c1.8,0,3.1,0.4,4,1.1
		C581.1-67,581.6-65.8,581.6-64.4z M574.5-61.7h1.2c1.2,0,2.1-0.2,2.6-0.6c0.601-0.4,0.8-1.1,0.8-2c0-0.8-0.199-1.4-0.8-1.8
		c-0.5-0.4-1.3-0.6-2.3-0.6h-1.6v5H574.5z"/>
	<path fill="#404041" d="M597.1-61.6c0,2.3-0.6,4.1-1.699,5.4c-1.101,1.3-2.801,1.9-4.9,1.9c-2.2,0-3.8-0.6-5-1.9
		c-1.2-1.3-1.7-3.1-1.7-5.5c0-2.4,0.601-4.2,1.7-5.4c1.1-1.2,2.8-1.9,5-1.9c2.1,0,3.8,0.6,4.9,1.9C596.6-65.7,597.1-63.9,597.1-61.6
		z M586.2-61.6c0,1.8,0.399,3.1,1.1,4s1.8,1.4,3.2,1.4s2.4-0.4,3.1-1.3c0.7-0.9,1.101-2.2,1.101-4s-0.3-3.1-1-4s-1.7-1.4-3.101-1.4
		c-1.399,0-2.5,0.5-3.199,1.4C586.7-64.6,586.2-63.3,586.2-61.6z"/>
	<path fill="#404041" d="M612.1-54.4H609.2l-7-11.4H602.1v0.6c0.101,1.2,0.101,2.3,0.101,3.3v7.4H600.1v-14.3h2.801l7,11.3h0.1
		c0-0.1,0-0.7-0.1-1.6c-0.101-0.9-0.101-1.7-0.101-2.2v-7.5h2.101v14.4H612.1z"/>
	<path fill="#404041" d="M624.1-58.3c0,1.3-0.5,2.3-1.399,3c-0.9,0.7-2.2,1.1-3.8,1.1c-1.601,0-2.9-0.3-4-0.8v-2.2
		c0.699,0.3,1.3,0.5,2.1,0.7s1.4,0.3,2,0.3c0.9,0,1.6-0.2,2-0.5c0.4-0.3,0.7-0.8,0.7-1.4c0-0.5-0.2-1-0.601-1.4
		c-0.399-0.4-1.199-0.8-2.5-1.3c-1.3-0.5-2.199-1.1-2.8-1.8c-0.5-0.7-0.8-1.5-0.8-2.4c0-1.2,0.4-2.1,1.3-2.8c0.8-0.7,2-1,3.4-1
		c1.399,0,2.7,0.3,4.1,0.9l-0.7,1.9c-1.3-0.5-2.399-0.8-3.399-0.8c-0.8,0-1.3,0.2-1.7,0.5c-0.4,0.3-0.6,0.8-0.6,1.3
		c0,0.4,0.1,0.7,0.199,1c0.101,0.3,0.4,0.5,0.801,0.7c0.399,0.2,1,0.5,1.899,0.9c1,0.4,1.8,0.8,2.3,1.2c0.5,0.4,0.801,0.8,1.101,1.3
		C624-59.5,624.1-59,624.1-58.3z"/>
	<path fill="#404041" d="M626.9-54.4v-14.3h2.3v14.3H626.9z"/>
	<path fill="#404041" d="M633-68.7h4.2c2,0,3.399,0.3,4.3,0.9c0.9,0.6,1.3,1.5,1.3,2.7c0,0.8-0.2,1.5-0.6,2.1c-0.4,0.6-1,0.9-1.9,1
		v0.1c1,0.2,1.7,0.6,2.2,1.1c0.5,0.6,0.7,1.3,0.7,2.3c0,1.3-0.4,2.3-1.3,3c-0.9,0.7-2.101,1.1-3.7,1.1H633V-68.7z M635.3-62.8h2.2
		c1,0,1.7-0.2,2.1-0.5c0.4-0.3,0.7-0.8,0.7-1.6c0-0.7-0.2-1.2-0.7-1.5c-0.5-0.3-1.3-0.4-2.3-0.4h-2V-62.8z M635.3-60.9v4.5h2.5
		c1,0,1.7-0.2,2.2-0.6s0.7-1,0.7-1.8c0-0.7-0.3-1.3-0.8-1.7S638.6-61,637.6-61h-2.3V-60.9z"/>
	<path fill="#404041" d="M646.2-54.4v-14.3h2.3v12.3h6v2H646.2z"/>
	<path fill="#404041" d="M665.1-54.4H657v-14.3h8.1v2H659.4v3.9h5.399v2H659.4v4.5h5.699V-54.4z"/>
	<path fill="#404041" d="M675.7-54.4h-2.3v-14.3h8.1v2h-5.7v4.5h5.4v2h-5.4v5.8H675.7z"/>
	<path fill="#404041" d="M696.7-61.6c0,2.3-0.601,4.1-1.7,5.4c-1.1,1.3-2.8,1.9-4.9,1.9c-2.199,0-3.8-0.6-5-1.9
		c-1.199-1.3-1.699-3.1-1.699-5.5c0-2.4,0.6-4.2,1.699-5.4c1.101-1.2,2.801-1.9,5-1.9c2.101,0,3.801,0.6,4.9,1.9
		C696.1-65.7,696.7-63.9,696.7-61.6z M685.8-61.6c0,1.8,0.4,3.1,1.101,4c0.699,0.9,1.8,1.4,3.199,1.4c1.4,0,2.4-0.4,3.101-1.3
		s1.1-2.2,1.1-4s-0.3-3.1-1-4s-1.7-1.4-3.1-1.4c-1.4,0-2.5,0.5-3.2,1.4S685.8-63.3,685.8-61.6z"/>
	<path fill="#404041" d="M702.1-60.1v5.7h-2.3v-14.3h4c1.8,0,3.2,0.3,4.101,1c0.899,0.7,1.3,1.7,1.3,3.1c0,1.8-0.9,3-2.8,3.8l4,6.3
		h-2.7l-3.4-5.7h-2.2V-60.1z M702.1-62.1h1.601c1.1,0,1.899-0.2,2.399-0.6c0.5-0.4,0.7-1,0.7-1.8s-0.3-1.4-0.8-1.7
		c-0.5-0.3-1.3-0.5-2.4-0.5h-1.5V-62.1z"/>
	<path fill="#404041" d="M713.4-58.8v-0.6c0-0.7,0.1-1.3,0.399-1.8s0.7-1,1.4-1.5c0.8-0.6,1.3-1.1,1.5-1.4c0.2-0.3,0.3-0.7,0.3-1.2
		s-0.2-1-0.5-1.3c-0.4-0.3-0.9-0.4-1.6-0.4c-0.601,0-1.2,0.1-1.7,0.3c-0.5,0.2-1,0.4-1.5,0.6l-0.8-1.7c1.3-0.7,2.699-1.1,4.199-1.1
		c1.301,0,2.301,0.3,3,0.9c0.7,0.6,1.101,1.5,1.101,2.6c0,0.5-0.101,0.9-0.2,1.3s-0.4,0.7-0.6,1.1c-0.301,0.3-0.801,0.8-1.5,1.3
		c-0.601,0.5-1,0.9-1.2,1.2s-0.3,0.7-0.3,1.3v0.4H713.4z M713-55.7c0-1,0.5-1.5,1.4-1.5c0.5,0,0.8,0.1,1.1,0.4
		c0.2,0.3,0.4,0.6,0.4,1.1s-0.101,0.8-0.4,1.1c-0.2,0.3-0.6,0.4-1.1,0.4s-0.801-0.1-1.101-0.4C713.1-54.8,713-55.2,713-55.7z"/>
</g>
<g>
	<g>
		<line fill="none" stroke="#3D3C3D" stroke-miterlimit="10" x1="484.1" y1="95.5" x2="484.6" y2="95.5"/>
		
			<line fill="none" stroke="#3D3C3D" stroke-miterlimit="10" stroke-dasharray="1.0006,3.0017" x1="487.6" y1="95.5" x2="678.2" y2="95.5"/>
		<polyline fill="none" stroke="#3D3C3D" stroke-miterlimit="10" points="679.7,95.5 680.2,95.5 680.2,96 		"/>
		
			<line fill="none" stroke="#3D3C3D" stroke-miterlimit="10" stroke-dasharray="0.9909,2.9728" x1="680.2" y1="98.9" x2="680.2" y2="204.5"/>
		<line fill="none" stroke="#3D3C3D" stroke-miterlimit="10" x1="680.2" y1="205.9" x2="680.2" y2="206.4"/>
		<g>
			<polygon fill="#3D3C3D" points="676.2,205.3 680.2,212.2 684.2,205.3 			"/>
		</g>
	</g>
</g>
<g>
	<g>
		<line fill="none" stroke="#3D3C3D" stroke-miterlimit="10" x1="312.2" y1="95.5" x2="311.7" y2="95.5"/>
		
			<line fill="none" stroke="#3D3C3D" stroke-miterlimit="10" stroke-dasharray="1.0006,3.0017" x1="308.7" y1="95.5" x2="118.1" y2="95.5"/>
		<polyline fill="none" stroke="#3D3C3D" stroke-miterlimit="10" points="116.6,95.5 116.1,95.5 116.1,96 		"/>
		
			<line fill="none" stroke="#3D3C3D" stroke-miterlimit="10" stroke-dasharray="1.016,3.0479" x1="116.1" y1="99" x2="116.1" y2="203.1"/>
		<line fill="none" stroke="#3D3C3D" stroke-miterlimit="10" x1="116.1" y1="204.7" x2="116.1" y2="205.2"/>
		<g>
			<polygon fill="#3D3C3D" points="112.1,204 116.1,210.9 120.1,204 			"/>
		</g>
	</g>
</g>
</svg>
