<?xml version="1.0" encoding="utf-8"?>
<!-- Generator: Adobe Illustrator 16.0.0, SVG Export Plug-In . SVG Version: 6.00 Build 0)  -->
<!DOCTYPE svg PUBLIC "-//W3C//DTD SVG 1.1//EN" "http://www.w3.org/Graphics/SVG/1.1/DTD/svg11.dtd">
<svg version="1.1" id="Layer_4" xmlns="http://www.w3.org/2000/svg" xmlns:xlink="http://www.w3.org/1999/xlink" x="0px" y="0px"
	 width="500px" height="500px" viewBox="0 0 500 500" enable-background="new 0 0 500 500" xml:space="preserve">
<g id="airsource-heatrecovery_2_1_">
</g>
<g id="issue-methane">
	<g>
		<g>
			<path fill="#59595C" d="M390.6,363.695c-9.455,20.407-33.654,29.284-54.057,19.835c-20.404-9.45-29.287-33.648-19.838-54.055
				c9.453-20.404,33.654-29.285,54.057-19.836C391.166,319.089,400.049,343.289,390.6,363.695z"/>
			<path fill="#76B4B8" d="M313.553,297.594c-4.24,9.148-15.086,13.13-24.232,8.891c-9.145-4.235-13.123-15.083-8.893-24.228
				c4.238-9.148,15.084-13.131,24.232-8.896C313.807,277.601,317.785,288.45,313.553,297.594z"/>
			<path fill="#76B4B8" d="M313.553,410.916c-4.24,9.148-15.086,13.13-24.232,8.891c-9.145-4.235-13.123-15.083-8.893-24.228
				c4.238-9.148,15.084-13.131,24.232-8.896C313.807,390.923,317.785,401.772,313.553,410.916z"/>
			<path fill="#76B4B8" d="M416.867,307.602c-4.24,9.148-15.086,13.13-24.232,8.891c-9.145-4.235-13.123-15.083-8.893-24.228
				c4.238-9.148,15.084-13.131,24.232-8.896C417.121,287.608,421.1,298.458,416.867,307.602z"/>
			<path fill="#76B4B8" d="M416.867,400.908c-4.24,9.148-15.086,13.13-24.232,8.891c-9.145-4.235-13.123-15.083-8.893-24.228
				c4.238-9.148,15.084-13.131,24.232-8.896C417.121,380.915,421.1,391.765,416.867,400.908z"/>
			<polygon fill="none" points="332.924,340.675 372.578,340.675 372.578,377.173 332.924,377.173 			"/>
			<g enable-background="new    ">
				<path fill="#D0D1D1" d="M340.174,355.435c-3.908,0-5.861-2.145-5.861-6.436c0-2.133,0.531-3.764,1.594-4.891
					c1.064-1.127,2.588-1.689,4.572-1.689c1.451,0,2.754,0.284,3.908,0.854l-1.012,2.65c-0.539-0.218-1.041-0.396-1.504-0.534
					c-0.465-0.139-0.93-0.208-1.393-0.208c-1.783,0-2.674,1.266-2.674,3.797c0,2.455,0.891,3.684,2.674,3.684
					c0.658,0,1.268-0.089,1.83-0.265c0.561-0.176,1.123-0.451,1.684-0.825v2.932c-0.553,0.352-1.113,0.595-1.678,0.729
					C341.748,355.367,341.035,355.435,340.174,355.435z"/>
				<path fill="#D0D1D1" d="M358.492,355.21h-3.426v-7.334c0-1.812-0.674-2.717-2.021-2.717c-0.959,0-1.65,0.325-2.078,0.977
					c-0.426,0.651-0.639,1.707-0.639,3.167v5.907h-3.426v-17.475h3.426v3.561c0,0.276-0.027,0.928-0.08,1.953l-0.078,1.012h0.18
					c0.764-1.229,1.977-1.842,3.639-1.842c1.475,0,2.594,0.396,3.357,1.189c0.764,0.794,1.146,1.932,1.146,3.414V355.21z"/>
				<path fill="#D0D1D1" d="M372.99,351.808h-1.977v3.402h-3.393v-3.402h-7.008v-2.415l7.199-10.602h3.201v10.321h1.977V351.808z
					 M367.621,349.112v-2.785c0-0.465,0.02-1.139,0.057-2.021c0.037-0.884,0.066-1.396,0.09-1.539h-0.09
					c-0.277,0.614-0.611,1.213-1,1.797l-3.01,4.549H367.621z"/>
			</g>
		</g>
		<g>
			<path fill="#59595C" d="M383.85,152.207c-9.454,20.407-33.653,29.284-54.057,19.835c-20.403-9.45-29.286-33.648-19.837-54.055
				c9.452-20.404,33.653-29.285,54.057-19.836C384.417,107.601,393.299,131.801,383.85,152.207z"/>
			<path fill="#76B4B8" d="M306.803,86.105c-4.239,9.148-15.086,13.13-24.232,8.891c-9.144-4.235-13.123-15.083-8.893-24.228
				c4.238-9.148,15.085-13.131,24.233-8.896C307.057,66.112,311.036,76.962,306.803,86.105z"/>
			<path fill="#76B4B8" d="M316.811,189.42c-4.239,9.148-15.086,13.13-24.232,8.891c-9.144-4.235-13.123-15.083-8.893-24.228
				c4.238-9.148,15.085-13.131,24.233-8.896C317.064,169.427,321.044,180.276,316.811,189.42z"/>
			<path fill="#76B4B8" d="M410.117,96.113c-4.239,9.148-15.086,13.13-24.232,8.891c-9.144-4.235-13.123-15.083-8.893-24.228
				c4.238-9.148,15.085-13.131,24.233-8.896C410.371,76.12,414.351,86.97,410.117,96.113z"/>
			<path fill="#76B4B8" d="M420.125,199.428c-4.239,9.148-15.086,13.13-24.232,8.891c-9.144-4.235-13.123-15.083-8.893-24.228
				c4.238-9.148,15.085-13.131,24.233-8.896C420.379,179.435,424.358,190.284,420.125,199.428z"/>
			<polygon fill="none" points="326.174,129.187 365.828,129.187 365.828,165.685 326.174,165.685 			"/>
			<g enable-background="new    ">
				<path fill="#D0D1D1" d="M333.425,143.946c-3.908,0-5.862-2.145-5.862-6.436c0-2.133,0.531-3.764,1.595-4.891
					s2.587-1.689,4.571-1.689c1.452,0,2.755,0.284,3.908,0.854l-1.012,2.65c-0.539-0.218-1.04-0.396-1.504-0.534
					c-0.465-0.139-0.929-0.208-1.393-0.208c-1.782,0-2.674,1.266-2.674,3.797c0,2.455,0.892,3.684,2.674,3.684
					c0.658,0,1.269-0.089,1.83-0.265s1.123-0.451,1.685-0.825v2.932c-0.554,0.352-1.113,0.595-1.679,0.729
					S334.286,143.946,333.425,143.946z"/>
				<path fill="#D0D1D1" d="M351.742,143.722h-3.426v-7.334c0-1.812-0.674-2.717-2.021-2.717c-0.958,0-1.65,0.325-2.077,0.977
					s-0.64,1.707-0.64,3.167v5.907h-3.426v-17.475h3.426v3.561c0,0.276-0.026,0.928-0.079,1.953l-0.079,1.012h0.18
					c0.764-1.229,1.977-1.842,3.639-1.842c1.476,0,2.595,0.396,3.358,1.189c0.764,0.794,1.146,1.932,1.146,3.414V143.722z"/>
				<path fill="#D0D1D1" d="M366.24,140.319h-1.977v3.402h-3.393v-3.402h-7.008v-2.415l7.199-10.602h3.201v10.321h1.977V140.319z
					 M360.871,137.624v-2.785c0-0.465,0.02-1.139,0.057-2.021c0.037-0.884,0.067-1.396,0.09-1.539h-0.09
					c-0.277,0.614-0.61,1.213-1,1.797l-3.01,4.549H360.871z"/>
			</g>
		</g>
		<g>
			<path fill="#59595C" d="M190.045,260.381c-9.454,20.407-33.653,29.284-54.057,19.835c-20.403-9.45-29.286-33.648-19.837-54.055
				c9.452-20.404,33.653-29.285,54.057-19.836C190.613,215.774,199.495,239.975,190.045,260.381z"/>
			<path fill="#76B4B8" d="M112.999,194.279c-4.239,9.148-15.086,13.13-24.232,8.891c-9.144-4.235-13.123-15.083-8.893-24.228
				c4.238-9.148,15.085-13.131,24.233-8.896C113.252,174.286,117.232,185.136,112.999,194.279z"/>
			<path fill="#76B4B8" d="M112.999,307.602c-4.239,9.148-15.086,13.13-24.232,8.891c-9.144-4.235-13.123-15.083-8.893-24.228
				c4.238-9.148,15.085-13.131,24.233-8.896C113.252,287.608,117.232,298.458,112.999,307.602z"/>
			<path fill="#76B4B8" d="M216.313,204.287c-4.239,9.148-15.086,13.13-24.232,8.891c-9.144-4.235-13.123-15.083-8.893-24.228
				c4.238-9.148,15.085-13.131,24.233-8.896C216.567,184.294,220.546,195.144,216.313,204.287z"/>
			<path fill="#76B4B8" d="M216.313,297.594c-4.239,9.148-15.086,13.13-24.232,8.891c-9.144-4.235-13.123-15.083-8.893-24.228
				c4.238-9.148,15.085-13.131,24.233-8.896C216.567,277.601,220.546,288.45,216.313,297.594z"/>
			<polygon fill="none" points="132.37,237.36 172.024,237.36 172.024,273.858 132.37,273.858 			"/>
			<g enable-background="new    ">
				<path fill="#D0D1D1" d="M139.621,252.12c-3.908,0-5.862-2.145-5.862-6.436c0-2.133,0.531-3.764,1.595-4.891
					s2.587-1.689,4.571-1.689c1.452,0,2.755,0.284,3.908,0.854l-1.012,2.65c-0.539-0.218-1.04-0.396-1.504-0.534
					c-0.465-0.139-0.929-0.208-1.393-0.208c-1.782,0-2.674,1.266-2.674,3.797c0,2.455,0.892,3.684,2.674,3.684
					c0.658,0,1.269-0.089,1.83-0.265s1.123-0.451,1.685-0.825v2.932c-0.554,0.352-1.113,0.595-1.679,0.729
					S140.482,252.12,139.621,252.12z"/>
				<path fill="#D0D1D1" d="M157.938,251.896h-3.426v-7.334c0-1.812-0.674-2.717-2.021-2.717c-0.958,0-1.65,0.325-2.077,0.977
					s-0.64,1.707-0.64,3.167v5.907h-3.426v-17.475h3.426v3.561c0,0.276-0.026,0.928-0.079,1.953l-0.079,1.012h0.18
					c0.764-1.229,1.977-1.842,3.639-1.842c1.476,0,2.595,0.396,3.358,1.189c0.764,0.794,1.146,1.932,1.146,3.414V251.896z"/>
				<path fill="#D0D1D1" d="M172.436,248.493h-1.977v3.402h-3.393v-3.402h-7.008v-2.415l7.199-10.602h3.201v10.321h1.977V248.493z
					 M167.067,245.798v-2.785c0-0.465,0.02-1.139,0.057-2.021c0.037-0.884,0.067-1.396,0.09-1.539h-0.09
					c-0.277,0.614-0.61,1.213-1,1.797l-3.01,4.549H167.067z"/>
			</g>
		</g>
	</g>
</g>
</svg>
