<?xml version="1.0" encoding="utf-8"?>
<!-- Generator: Adobe Illustrator 16.0.0, SVG Export Plug-In . SVG Version: 6.00 Build 0)  -->
<!DOCTYPE svg PUBLIC "-//W3C//DTD SVG 1.1//EN" "http://www.w3.org/Graphics/SVG/1.1/DTD/svg11.dtd">
<svg version="1.1" id="Layer_1" xmlns="http://www.w3.org/2000/svg" xmlns:xlink="http://www.w3.org/1999/xlink" x="0px" y="0px"
	 width="1130px" height="271px" viewBox="0 0 1130 271" enable-background="new 0 0 1130 271" xml:space="preserve">
<symbol  id="New_Symbol" viewBox="-170.869 -51.39 320.634 81.859">
	<g opacity="0.8">
		<path fill="#9F9174" d="M-170.87,1.542c0,0,2.197,3,6.591,3.5s7.909-0.75,12.742,0.25s7.909,2.121,10.545,1.436
			s15.378,2.564,17.575,2.564s14.938-0.5,14.938-0.5l14.499-0.75l25.337,1c0,0,7.967-2.604,9.769-3.303
			c1.802-0.697,15.861,2,15.861,2l20.743,1.803l19.24-2l10.105-0.75l9.227-1.053h18.893l10.984,1.053l10.538,0.25h7.916
			c0,0,8.826,0.896,9.905,0.697c1.499-0.274,15.865-1.197,17.789-1.197c1.304,0,20.709-2,21.552-2s19.735,1.197,19.735,1.197
			l3.897-2.197c0,0-0.936,1.25,0,0.25s0-1.5,0-1.5L-170.87,1.542z"/>
		
			<use xlink:href="#biggerplant"  width="28.813" height="28.675" x="-14.406" y="-14.337" transform="matrix(1 0 0 1 104.4189 16.1318)" overflow="visible"/>
		
			<use xlink:href="#biggerplant"  width="28.813" height="28.675" x="-14.406" y="-14.337" transform="matrix(1 0 0 1 67.54 16.1318)" overflow="visible"/>
		
			<use xlink:href="#biggerplant"  width="28.813" height="28.675" x="-14.406" y="-14.337" transform="matrix(1 0 0 1 30.6611 16.1318)" overflow="visible"/>
		
			<use xlink:href="#biggerplant"  width="28.813" height="28.675" x="-14.406" y="-14.337" transform="matrix(1 0 0 1 -6.2178 16.1318)" overflow="visible"/>
		
			<use xlink:href="#biggerplant"  width="28.813" height="28.675" x="-14.406" y="-14.337" transform="matrix(1 0 0 1 -43.0962 16.1318)" overflow="visible"/>
		
			<use xlink:href="#biggerplant"  width="28.813" height="28.675" x="-14.406" y="-14.337" transform="matrix(1 0 0 1 -79.9751 16.1318)" overflow="visible"/>
		
			<use xlink:href="#biggerplant"  width="28.813" height="28.675" x="-14.406" y="-14.337" transform="matrix(1 0 0 1 -116.8545 16.1318)" overflow="visible"/>
		
			<use xlink:href="#biggerplant"  width="28.813" height="28.675" x="-14.406" y="-14.337" transform="matrix(1 0 0 1 -153.7329 16.1318)" overflow="visible"/>
	</g>
	<g>
		<path fill="#6C6957" d="M149.764-21.718c0,0-2.197,3-6.59,3.5c-4.394,0.5-7.909,3.25-12.742,4.25s-7.909,2.121-10.545,1.436
			s-15.378-1.436-17.575-1.436s-14.938-0.5-14.938-0.5l-14.5-0.75l-25.336-1c0,0-7.967-0.604-9.769-1.302
			c-1.801-0.698-15.861,0-15.861,0L1.166-15.718h-19.24l-10.105-0.75l-9.227-1.052H-56.3l-10.984,1.052l-10.537,0.25h-7.916
			c0,0-8.826,1.896-9.905,1.698s-16.484-1.198-17.789-1.198c-2.95,0-18.775,0-21.552,0c-0.842,0-19.735-1.802-19.735-1.802
			l-3.897-2.198c0,0,0.936,1.25,0,0.25s0-1.5,0-1.5L149.764-21.718z"/>
		
			<use xlink:href="#smallplant"  width="16.006" height="13.97" x="-8.003" y="-6.985" transform="matrix(1 0 0 1 123.6338 -10.1777)" overflow="visible"/>
		
			<use xlink:href="#smallplant"  width="16.006" height="13.97" x="-8.003" y="-6.985" transform="matrix(1 0 0 1 98.5542 -10.1777)" overflow="visible"/>
		
			<use xlink:href="#smallplant"  width="16.006" height="13.97" x="-8.003" y="-6.985" transform="matrix(1 0 0 1 73.4746 -10.1777)" overflow="visible"/>
		
			<use xlink:href="#smallplant"  width="16.006" height="13.97" x="-8.003" y="-6.985" transform="matrix(1 0 0 1 48.395 -10.1777)" overflow="visible"/>
		
			<use xlink:href="#smallplant"  width="16.006" height="13.97" x="-8.003" y="-6.985" transform="matrix(1 0 0 1 23.3149 -10.1777)" overflow="visible"/>
		
			<use xlink:href="#smallplant"  width="16.006" height="13.97" x="-8.003" y="-6.985" transform="matrix(1 0 0 1 -1.7646 -10.1777)" overflow="visible"/>
		
			<use xlink:href="#smallplant"  width="16.006" height="13.97" x="-8.003" y="-6.985" transform="matrix(1 0 0 1 -26.8442 -10.1777)" overflow="visible"/>
		
			<use xlink:href="#smallplant"  width="16.006" height="13.97" x="-8.003" y="-6.985" transform="matrix(1 0 0 1 -51.9243 -10.1777)" overflow="visible"/>
		
			<use xlink:href="#smallplant"  width="16.006" height="13.97" x="-8.003" y="-6.985" transform="matrix(1 0 0 1 -77.0039 -10.1777)" overflow="visible"/>
		
			<use xlink:href="#smallplant"  width="16.006" height="13.97" x="-8.003" y="-6.985" transform="matrix(1 0 0 1 -102.0835 -10.1777)" overflow="visible"/>
		
			<use xlink:href="#smallplant"  width="16.006" height="13.97" x="-8.003" y="-6.985" transform="matrix(1 0 0 1 -127.1631 -10.1777)" overflow="visible"/>
		
			<use xlink:href="#smallplant"  width="16.006" height="13.97" x="-8.003" y="-6.985" transform="matrix(1 0 0 1 -152.2432 -10.1777)" overflow="visible"/>
	</g>
	<g>
		<g>
			<path fill="#8FAA64" d="M-17.553,3.848c0,0-2.904,4.928-6.721,2.616C-24.274,6.464-22.573,2.553-17.553,3.848z"/>
		</g>
		<g>
			<path fill="#8FAA64" d="M-17.553,3.848c0,0,0.026,4.323,4.142,4.701C-13.411,8.549-12.95,5.399-17.553,3.848z"/>
		</g>
		<g>
			<path fill="#8FAA64" d="M-17.487,3.871c0,0,0.784-1.683,1.144-3.562c0.083-0.472,0.153-0.951,0.154-1.423
				c0.016-0.468-0.031-0.928-0.149-1.333c-0.04-0.202-0.128-0.387-0.209-0.552c-0.072-0.167-0.153-0.307-0.25-0.413
				c-0.18-0.217-0.283-0.34-0.283-0.34l-0.948,1.138c0,0,0.047,0.048,0.146,0.124c0.056,0.03,0.109,0.093,0.163,0.178
				c0.06,0.078,0.136,0.164,0.184,0.299c0.125,0.238,0.233,0.578,0.291,0.97c0.072,0.388,0.089,0.829,0.093,1.272
				c-0.009,1.792-0.469,3.597-0.469,3.597L-17.487,3.871z"/>
		</g>
		<g opacity="0.5">
			<path fill="#8FAA64" d="M-17.133,3.299c0,0-4.274,7.251-9.891,3.85C-27.024,7.148-24.521,1.393-17.133,3.299z"/>
		</g>
		<g opacity="0.5">
			<path fill="#8FAA64" d="M-17.133,3.299c0,0,0.038,6.362,6.096,6.919C-11.037,10.218-10.358,5.582-17.133,3.299z"/>
		</g>
	</g>
	<path fill="#058087" d="M-1.819,3.286c0,0-0.171-4.045,0.434-5.646c1.849-4.887,1.96-5.323,2.559-7.191
		c0.598-1.868,1.415-9.587,1.469-10.318c0.055-0.731,2.449-8.043,2.558-9.993s0-7.231,0-7.231s-0.979-2.274-3.863-1.137
		c0,0-1.85,6.175-2.449,9.1s-2.938,9.1-2.938,9.1l-3.432,9.908c0,0,3.564,7.697,4.249,9.834C-2.635,1.58-1.819,3.286-1.819,3.286z"
		/>
	<g>
		<path fill="#9FABAB" d="M-0.134,11.524c-1.733,1.3-8.085,3.69-10.902,4.124s-3.25,0.65-6.5,0c-3.25-0.649-3.893-3.407-5.291-3.995
			c-1.859-0.782-4.036-2.627-4.198-2.871c-0.163-0.243-1.127-2.667,0.579-5.267l5.606,1.544l3.494-7.538l7.231-3.187l5.281,12.431
			l-1.839-6.765c0,0,0.343-1.089,0.311-2.308c-0.032-1.219-0.032-1.219-0.032-1.219s-0.978-1.577,5.602-0.083l2.49,6.521v2.572
			C1.697,5.484,1.599,10.225-0.134,11.524z M-24.58,7.245h-0.875c0,0-0.312,0.312-0.438,0.469s0.281,0.835,0.281,0.835l1.188-0.272
			L-24.58,7.245z"/>
		<path fill="#DEB490" d="M-25.892,7.714c0.125-0.156,0.438-0.469,0.438-0.469h0.875l0.156,1.031l-1.188,0.272
			C-25.611,8.549-26.017,7.87-25.892,7.714z"/>
		<path fill="#DEB490" d="M-2.785,5.484c0,0-0.163-0.179-0.463-1.318c-0.301-1.14,1.387-1.89,1.387-1.89l1.363,0.358l-0.09,1.531
			l-1.711,0.962L-2.785,5.484z"/>
	</g>
	<g>
		<g>
			<path fill="#8FAA64" d="M-131.57-29.129c0,0,3.302,4.67,6.914,2.051C-124.656-27.078-126.675-30.835-131.57-29.129z"/>
		</g>
		<g>
			<path fill="#8FAA64" d="M-131.57-29.129c0,0,0.332,4.31-3.739,5.027C-135.309-24.102-136.029-27.202-131.57-29.129z"/>
		</g>
		<g>
			<path fill="#8FAA64" d="M-131.502-29.147c0,0-0.794-3.404-1.253-6.841c-0.229-1.713-0.368-3.444-0.284-4.673
				c0.038-0.611,0.143-1.091,0.252-1.323c0.054-0.106,0.096-0.189,0.121-0.195c0.023-0.019,0.029-0.034,0.029-0.034l-1.039-1.057
				c0,0-0.057,0.073-0.164,0.211c-0.116,0.145-0.198,0.342-0.285,0.586c-0.158,0.483-0.208,1.097-0.187,1.791
				c0.042,1.389,0.361,3.127,0.758,4.84c0.798,3.424,1.916,6.732,1.916,6.732L-131.502-29.147z"/>
		</g>
		<g opacity="0.5">
			<path fill="#8FAA64" d="M-132.034-29.642c0,0,4.859,6.873,10.175,3.019C-121.858-26.623-124.83-32.151-132.034-29.642z"/>
		</g>
		<g opacity="0.5">
			<path fill="#8FAA64" d="M-132.034-29.642c0,0,0.488,6.344-5.503,7.399C-137.537-22.242-138.597-26.807-132.034-29.642z"/>
		</g>
	</g>
	<path fill="#333132" d="M1.804-41.104c0,0-0.496,0.293-0.496,1.269c0,0.975,0,0.975,0,0.975v1.041l3.75,0.584
		c0,0,0.992-1.95,1.599-3.412"/>
	<path fill="#333132" d="M-19.309-36.897l-0.176-1.104c0,0-0.623-0.556-2.735-0.481c-2.112,0.075-3.494-1.144-3.9-1.144
		c-0.406,0-4.062,0-4.062,0s-2.6,0.7-1.544,2.016s3.414,0.909,3.982,1.396s1.624,1.868,1.624,1.868L-19.309-36.897z"/>
	<path fill="#805F3C" d="M-153.733-43.017c0,0,1.25,3,3.75,3.5s4.5,3.25,7.25,4.25s4.5,2.121,6,1.436s8.75-1.436,10-1.436
		s8.5-0.5,8.5-0.5l8.25-0.75l14.417-1c0,0,4.533-0.604,5.558-1.302c1.025-0.698,9.025,0,9.025,0l11.802,1.802h10.948l5.75-0.75
		l5.25-1.052h10.75l6.25,1.052l5.996,0.25h4.504c0,0,5.022-1.104,5.636-1.302c0.614-0.198,9.38-1.198,10.122-1.198
		s11.783,0,12.263,0s11.229,1.198,11.229,1.198l2.217-2.198c0,0-0.533,1.25,0,0.25s0-1.5,0-1.5L-153.733-43.017z"/>
	<path fill="#977E63" d="M-130.623-34.603c-0.165-0.051-0.475-0.073-0.822-0.082c-0.145,0.498-0.804,0.92-1.227,0.79
		c-0.34-0.104-1.286-0.098-1.949-0.077c-0.335,0.318-0.921,0.462-1.24,0.263c-0.483-0.303-2.545-0.73-2.545-0.73
		c-0.226-1.607,0.905-1.583,1.668-1.479c0.428-0.435,1.147-0.674,1.228-0.807c0.153-0.25,1.653-0.5,2.153,0
		c0.003,0.003,0.003,0.007,0.006,0.009c0.613,0.012,1.318,0.003,1.602-0.085c0.205-0.062,0.467,0.004,0.7,0.146
		c0.53,0.042,1.423,0.339,1.637,0.825C-129.129-35.183-130.079-34.436-130.623-34.603z"/>
	<g>
		<path fill="#4B535F" d="M-128.93-42.74c-2.734,0.111-3.257,0.106-3.554,0.248c-2.247,1.466-1.25,13.987-1.25,13.987l-8.225,0.139
			c0,0-0.279-3.091,0.46-7.705c0.739-4.614,0.883-8.048,0.883-8.048s0.022-3.364,0.245-3.364s0.837-0.781,1.451-0.921
			s2.288,0,2.288,0s1.674,1.032,1.953,1.256c0.279,0.223,1.619,0.278,2.623,0.278s0.837,0.373,1.618,0.577s0.781,0.204,0.781,0.204
			s2.343,0.726,2.567,1.228C-126.865-44.359-126.196-42.853-128.93-42.74z"/>
		<path fill="#4B535F" d="M-120.997-48.662c0,0,0.51,3.955-0.615,8.205s-2.625,8.731-2.625,8.731l8.22,1.353
			c0,0,3.084-14.26,3.437-15.046c0,0,1.507-0.391,3.181-1.283c1.674-0.894,2.511-1.061,3.627-1.34
			c1.116-0.278,2.065-1.395,2.065-2.064s-0.726-0.781-1.284-0.837s-7.979,0-7.979,0l-2.455,0.279v-0.726h-5.189
			c0,0,0.112,0.67,0,1.283C-120.728-49.492-121.1-49.282-120.997-48.662"/>
		<path fill="#E4C3A6" d="M-115.052,21.934c0,0-1.786,3.236-3.125,3.013c-1.339-0.223-9.486-3.571-12.611-8.816
			c0,0-0.893-2.12-0.893-2.901s2.678,1.004,2.678,1.004l1.786,1.34c0,0,3.376,2.936,4.604,3.159c1.228,0.223,4.06,1.062,4.06,1.062
			S-115.387,21.264-115.052,21.934z"/>
		<path fill="#E4C3A6" d="M-109.994-5.699c0,0,2.436,1.517,6.23,0.735c0,0-0.334-0.781,0-1.562c0.335-0.781,0.335-0.726,0.67-4.491
			c0,0,1.758-2.009,2.595-3.265s1.506-2.595,2.595-2.846c1.088-0.251,1.423-0.084,2.343,0.418c0,0,1.088,0,1.758,0
			c0.67,0,2.009,0,2.009,0s0.084-0.565-1.59-0.533c0,0-1.255-0.388-0.167-1.392c1.088-1.005,2.302-2.176,2.302-2.176
			s1.674-0.921,1.59-1.172c-0.084-0.252-0.544-0.879-1.214-0.377s0.125-0.544,0.125-0.544s-0.167-0.879-0.962-0.293
			c0,0,0.418-0.419,0-0.544c-0.418-0.126-0.753-0.042-1.172,0.251c0,0,0.628-0.628,0.083-0.879
			c-0.544-0.251-0.544,0.753-1.088,1.088s-0.628,0.921-1.088,1.381c-0.46,0.461-3.725,1.968-3.725,1.968s-5.463,2.542-8.309,7.313
			C-109.854-7.848-109.994-5.699-109.994-5.699z"/>
		<path fill="#DDBEA2" d="M-102.219,4.444c0,0-1.042,1.696-1.67,1.738c-0.627,0.042-2.598,4.902-1.021,6.152
			c0.617,0.489,2.692-2.134,2.692-2.134l-0.206-5.757"/>
		<path fill="#713619" d="M-140.843,7.104l15.68-7.515c0,0,4.811-9.038,4.853-10.461s2.051-7.784,2.051-7.784
			s-0.652-3.816,1.161-8.813c0.852-2.349,1.082-2.903,1.384-4.294c0.229-1.056,1.695-2.439,1.109-3.067s-3.708-2.48-5.047-2.689
			c-1.339-0.209-3.476,0.666-4.312,1.252s0.146,1.5,0.146,1.5l-0.291,2.072c0,0-1.65,10.772-2.278,12.74
			c-0.628,1.967-4.722,10-4.973,10s-1.793-10.073-1.835-12.375s-0.165-2.5-0.255-6.695c0,0,0.083-2.009,0.753-2.386
			c0.67-0.377-0.209-0.837-0.209-0.837s0.376-0.084-0.376-0.628c-0.753-0.544-2.792-2.414-6.056-1.409c0,0-2.758,1.005-3.218,1.172
			s0.8,4.394,1.009,6.904c0.209,2.512,1.821,18.516,1.251,20.842c-1.854,7.569-1.297,11.969-0.921,12.221
			C-140.843,7.104-140.843,7.104-140.843,7.104z"/>
		<path fill="#9FABAB" d="M-119.298,3.585l5.561,2.598c0,0,2.645-0.189,3.314-1.738c0.669-1.548-0.07-8.329-0.493-9.443
			c-0.271-0.715,0.58-0.894,0.921-0.7s4.038,1.336,6.23,0.735c0,0,0.746-0.111,0.666,0.81c-0.08,0.92-1.318,3.482-0.941,4.487
			c0.376,1.004,0,4.111,0,4.111s-0.353,1.947-0.018,3.789c0,0-1.78,2.526-0.854,4.102c0,0,0.364,0.07-0.515,2.916
			s-8.119,6.612-8.286,7.282c-0.167,0.67-0.829,1.484-0.942,1.396c-0.422-0.332-1.799,0-1.799,0s0.793-1.052-2.1-4.135l-0.824-0.5
			l0.824-1.75c0,0-3.861-0.42-8.175-2.418c-4.314-1.999-3.656-1.183-6.227-2.73c-3.616-2.178-7.68-4.623-8.475-5.334
			c-0.795-0.712,5.608-3.307,5.608-3.307s11.719-5.106,12.178-4.353C-123.057,0.365-119.633,3.292-119.298,3.585
			C-118.963,3.878-119.298,3.585-119.298,3.585z"/>
		<path fill="#AD9275" d="M-112.869,16.522c0.176,1.67,0.448,1.649,1.588,1.821c1.14,0.173,2.189-0.586,2.189-0.586l0.801-2.257
			c0,0,0.03-1.379-0.765-0.619c-0.796,0.76-2.396,0.107-2.629,1.312C-111.917,17.399-112.869,16.522-112.869,16.522z"/>
		<path fill="#AD9275" d="M-109.708-3.589c1.007,1.292,1.252,1.415,2.405,2.114c1.154,0.699,1.753,0.683,1.753,0.683l-0.39-1.222
			c0,0-0.668-0.979-1.029-0.833c-0.361,0.146-2.188-1.132-1.797-0.381C-108.376-2.478-109.708-3.589-109.708-3.589z"/>
		<path fill="#AD9275" d="M-118.053,19.804c0.332,1.604,1.14,0.768,1.865,1.905c0.725,1.138,1.944,1.745,1.944,1.745l0.272-1.844
			c0,0-0.732-0.484-1.12-0.513c-0.388-0.029-2.293-1.399-2.276-0.553C-117.35,21.391-118.053,19.804-118.053,19.804z"/>
		<path fill="#553F37" d="M-105.41,9.499l-0.952,0.968l0.476,0.479l-1.127,1.141l0.478,1.841c0,0,1.26,0.745,2.042,0.877
			c0.782,0.131,1.999,1.008,1.999,1.008s5.657,1.46,6.803,0c2.854-3.635,1.638-7.689,0.977-8.527
			c-0.633-0.804-0.977-0.854-0.977-0.854"/>
		<path fill="#E4C3A6" d="M-99.16,8.233c0,0,1.088,0,1.213,0.46s-0.293,1.298-1.213,1.339c-0.921,0.042-2.26-0.376-2.093-0.899
			c0,0,0.293-0.23,0.46-0.23c0,0-1.13,0.045-1.758,0.232c-0.628,0.187-1.124-2.055-1.124-2.055l0.906-2.909
			c0,0,1.724-1.378,2.561-0.96c0.837,0.419,1.925,0.377,1.925,0.377l0.042-0.503c0,0,1.548,0.712,2.26,0.921
			c0.712,0.21,1.8,0.168,1.8,0.168s2.118,2.59-0.46,3.055C-96.485,7.562-99.16,8.233-99.16,8.233z"/>
		<path fill="#A38E32" d="M-94.47,14.653c0,0-1.235,2.503-5.87,2.402C-100.34,17.056-100.485,15.068-94.47,14.653z"/>
		<path fill="#A38E32" d="M-93.148,14.864L-93.148,14.864c0-0.001-0.617,1.002-2.453,0.894c-1.836-0.108-2.938,0.935-6.03-1.394
			c0,0,0.72-0.438,3.28-0.446l1.854-0.888c-0.295-6.141,0.896-8.859,0.896-8.859s1.002,0.487,1.496,0.082s2.619,4.58,2.619,4.58
			S-91.662,12.854-93.148,14.864z"/>
		<path fill="#566C75" d="M-95.071,4.444c0,0,1.833,6.198,0,10.961l1.333-0.267c0,0,1.263-7.05-0.369-10.886L-95.071,4.444z"/>
		<path fill="#566C75" d="M-96.497,13.03c0,0-0.731,3.15-2.777,2.728c0,0,1.449,0.285,2.328,0.141c0,0,0.959-0.422,0.876-2.868
			c-0.083-2.445-0.278-5.455-0.278-5.455L-96.497,13.03z"/>
		<path fill="#EB9824" d="M-115.052,17.419l-3.501,0.125c0,0-5.862-1.466-9.495-2.891c-3.632-1.425-13.381-7.592-13.381-7.592
			s-0.005-0.692,1.865-1.596c1.87-0.902,11.515-5.517,15.921-6.063l4.345,4.183c0,0,5.294,2.628,5.561,2.598
			c0.233-0.026,7.084,1.562,9.069,1.52c0.284-0.006,0.468-0.045,0.52-0.127c0.412-0.656,0.091,0.658,0.091,0.658l-0.585,1.032
			l-4.764-0.184l0.227,5.899l4.034-0.696c0,0-0.36,0.863-0.554,1.57L-115.052,17.419"/>
		<g>
			<path fill="#C9DA2A" d="M-139.799,5.809c0,0,0.454,0.36,1.276,0.945c0.817,0.593,2.004,1.41,3.464,2.34
				c1.452,0.942,3.202,1.953,5.109,2.986c0.951,0.521,1.958,1.018,2.996,1.496c1.04,0.476,2.115,0.918,3.216,1.307
				c0.546,0.202,1.107,0.37,1.67,0.526c0.556,0.172,1.119,0.319,1.691,0.428c1.11,0.277,2.303,0.415,3.379,0.27
				c1.072,0.057,2.126,0.093,3.113,0.097c0.99,0.006,1.925-0.029,2.788-0.066c1.725-0.082,3.156-0.257,4.153-0.414
				c0.997-0.157,1.563-0.318,1.563-0.318l-0.091-0.307c0,0-0.538,0.161-1.522,0.328c-0.98,0.181-2.404,0.327-4.116,0.38
				c-0.856,0.031-1.785,0.012-2.766-0.028c-0.983-0.05-2.006-0.104-3.076-0.235c-0.541-0.079-1.049-0.317-1.572-0.41
				c-0.526-0.082-1.052-0.225-1.58-0.389c-0.53-0.14-1.057-0.319-1.581-0.523c-0.527-0.187-1.052-0.385-1.567-0.619
				c-1.05-0.407-2.068-0.906-3.084-1.36c-1.007-0.479-1.993-0.964-2.944-1.445c-0.947-0.487-1.863-0.963-2.716-1.442
				c-0.856-0.476-1.666-0.925-2.413-1.34c-2.966-1.71-4.921-2.889-4.921-2.889L-139.799,5.809z"/>
		</g>
		<g>
			<path fill="#C9DA2A" d="M-130.554,1.865c0,0,0.382,0.196,1.05,0.54c0.669,0.341,1.622,0.835,2.788,1.38
				c1.16,0.558,2.522,1.189,4.002,1.824c1.476,0.646,3.061,1.317,4.692,1.895c0.814,0.291,1.644,0.549,2.482,0.765
				c0.421,0.106,0.83,0.222,1.266,0.298c0.218,0.04,0.419,0.09,0.645,0.119c0.117,0.009,0.232,0.027,0.349,0.028
				c0.118-0.006,0.239-0.085,0.351-0.104c1.604-0.001,3.103-0.002,4.386-0.003c2.568,0.015,4.278,0.074,4.278,0.074l0.014-0.263
				c0,0-1.706-0.137-4.26-0.416c-0.638-0.072-1.33-0.151-2.062-0.233c-0.732-0.091-1.5-0.162-2.302-0.282
				c-0.087-0.044-0.166-0.149-0.249-0.18c-0.083-0.024-0.169-0.032-0.254-0.049c-0.175-0.035-0.37-0.1-0.555-0.148
				c-0.372-0.093-0.759-0.234-1.146-0.364c-0.771-0.275-1.561-0.572-2.352-0.87c-3.176-1.166-6.349-2.431-8.731-3.364
				c-2.386-0.933-3.976-1.556-3.976-1.556L-130.554,1.865z"/>
		</g>
		<path fill="#553F37" d="M-99.143,3.585l-0.683,0.129l0.341,0.134l-0.341,0.323l0.683,0.082l-0.683,0.336h0.683
			c0,0,0.718,0.371,0.625-0.502c-0.094-0.873-0.012-0.502-0.012-0.502H-99.143z"/>
	</g>
	<path fill="#343433" d="M-5.083-40.613c-2.328-2.101-1.242-2.621,1.364-3.813c2.605-1.192,3.586-1.562,3.586-1.562
		S-2.866-38.612-5.083-40.613z"/>
	<polygon fill="#7AA9BF" points="-128.425,4.98 -123.366,6.759 -121.175,3.585 -125.487,1.793 	"/>
	<g>
		
			<line fill="none" stroke="#9C7C62" stroke-width="0.25" stroke-miterlimit="10" x1="-123.366" y1="6.183" x2="-122.612" y2="6.56"/>
		
			<line fill="none" stroke="#9C7C62" stroke-width="0.25" stroke-miterlimit="10" x1="-123.049" y1="5.484" x2="-122.295" y2="5.861"/>
		
			<line fill="none" stroke="#9C7C62" stroke-width="0.25" stroke-miterlimit="10" x1="-122.504" y1="4.955" x2="-121.75" y2="5.333"/>
		
			<line fill="none" stroke="#9C7C62" stroke-width="0.25" stroke-miterlimit="10" x1="-122.127" y1="4.444" x2="-121.374" y2="4.822"/>
		
			<line fill="none" stroke="#9C7C62" stroke-width="0.25" stroke-miterlimit="10" x1="-121.75" y1="3.981" x2="-120.997" y2="4.359"/>
		
			<line fill="none" stroke="#9C7C62" stroke-width="0.25" stroke-miterlimit="10" x1="-122.795" y1="3.56" x2="-122.504" y2="2.769"/>
		
			<line fill="none" stroke="#9C7C62" stroke-width="0.25" stroke-miterlimit="10" x1="-123.524" y1="3.323" x2="-123.234" y2="2.531"/>
		
			<line fill="none" stroke="#9C7C62" stroke-width="0.25" stroke-miterlimit="10" x1="-124.111" y1="2.841" x2="-123.82" y2="2.05"/>
		
			<line fill="none" stroke="#9C7C62" stroke-width="0.25" stroke-miterlimit="10" x1="-124.661" y1="2.524" x2="-124.37" y2="1.732"/>
		
			<line fill="none" stroke="#9C7C62" stroke-width="0.25" stroke-miterlimit="10" x1="-125.163" y1="2.201" x2="-124.873" y2="1.41"/>
		
			<line fill="none" stroke="#9C7C62" stroke-width="0.25" stroke-miterlimit="10" x1="-125.018" y1="6.758" x2="-124.728" y2="5.966"/>
		
			<line fill="none" stroke="#9C7C62" stroke-width="0.25" stroke-miterlimit="10" x1="-125.978" y1="6.448" x2="-125.687" y2="5.656"/>
		
			<line fill="none" stroke="#9C7C62" stroke-width="0.25" stroke-miterlimit="10" x1="-126.389" y1="6.258" x2="-126.098" y2="5.466"/>
		
			<line fill="none" stroke="#9C7C62" stroke-width="0.25" stroke-miterlimit="10" x1="-127.259" y1="6.045" x2="-126.969" y2="5.253"/>
		
			<line fill="none" stroke="#9C7C62" stroke-width="0.25" stroke-miterlimit="10" x1="-127.762" y1="5.723" x2="-127.471" y2="4.931"/>
		
			<line fill="none" stroke="#9C7C62" stroke-width="0.25" stroke-miterlimit="10" x1="-128.425" y1="4.497" x2="-127.671" y2="4.874"/>
		
			<line fill="none" stroke="#9C7C62" stroke-width="0.25" stroke-miterlimit="10" x1="-128.107" y1="3.799" x2="-127.354" y2="4.176"/>
		
			<line fill="none" stroke="#9C7C62" stroke-width="0.25" stroke-miterlimit="10" x1="-127.563" y1="3.27" x2="-126.809" y2="3.647"/>
		
			<line fill="none" stroke="#9C7C62" stroke-width="0.25" stroke-miterlimit="10" x1="-127.186" y1="2.759" x2="-126.432" y2="3.137"/>
		
			<line fill="none" stroke="#9C7C62" stroke-width="0.25" stroke-miterlimit="10" x1="-126.809" y1="2.296" x2="-126.055" y2="2.674"/>
		
			<line fill="none" stroke="#9C7C62" stroke-width="0.25" stroke-miterlimit="10" x1="-126.243" y1="1.919" x2="-125.489" y2="2.296"/>
	</g>
	<path fill="#977E63" d="M-96.438-37.301c-0.164-0.051-0.475-0.073-0.822-0.083c-0.144,0.498-0.804,0.921-1.227,0.791
		c-0.339-0.104-1.285-0.098-1.949-0.077c-0.335,0.318-0.921,0.462-1.239,0.263c-0.483-0.303-2.545-0.73-2.545-0.73
		c-0.226-1.607,0.905-1.583,1.667-1.479c0.428-0.435,1.147-0.675,1.229-0.807c0.153-0.25,1.653-0.5,2.153,0
		c0.002,0.003,0.003,0.006,0.006,0.009c0.612,0.012,1.317,0.003,1.602-0.085c0.205-0.062,0.467,0.004,0.699,0.146
		c0.53,0.042,1.424,0.338,1.638,0.825C-94.943-37.881-95.893-37.134-96.438-37.301z"/>
	<path fill="#7A4F1F" d="M-140.578-23.579c-1.289-1.288-0.583-5.574,1.75-4.576c2.333,0.999,4.417-0.87,4.5,0.231
		c0.083,1.101,0.978,1.446-0.511,1.982c-1.489,0.535-1.322,1.452-1.989,1.952s-2.833,0-3.083,0S-140.578-23.579-140.578-23.579z"/>
	<path fill="#7A4F1F" d="M-129.121-10.922c0.372-1.302,5.789-10.663,4.506-6.258c-0.824,2.83,3.897-1.6,1.115,1.757
		c-1.748,2.107-1.944,2.784-2.896,3.185c-0.813,0.341-1.426,1.223-1.846,1.521c-0.375,0.266-0.526-0.394-0.572-0.428
		C-128.861-11.181-129.121-10.922-129.121-10.922z"/>
	<g>
		<path fill="#7A4F1F" d="M-120.673-29.922c0,0-0.012,0.392-0.031,0.979c0,0.587-0.001,1.368-0.002,2.149
			c0.004,1.566,0.143,3.141,0.143,3.141l1.249-0.182c0,0-0.311-1.492-0.496-3.019c-0.197-1.524-0.237-3.061-0.237-3.061
			L-120.673-29.922z"/>
	</g>
	<g>
		<path fill="#7A4F1F" d="M-137.889-4.277c0,0-0.157,0.358-0.391,0.897c-0.217,0.544-0.507,1.271-0.797,1.995
			c-0.575,1.456-1.029,2.971-1.029,2.971l1.228,0.293c0,0,0.263-1.5,0.656-2.987c0.381-1.489,0.913-2.931,0.913-2.931
			L-137.889-4.277z"/>
	</g>
	<path fill="#058087" d="M-1.923,12.572c0,0-0.864,0.942-1.839,0.78c-0.975-0.163-2.866-4.574-3.346-9.999
		c-0.374-4.226-3.168-6.987-4.875-6.744c-1.706,0.244-4.924,0.151-6.197,6.976c-1.273,6.825-1.128,11.514-1.128,11.514
		s-1.18-0.998-1.505-1.404c-0.325-0.406,0-4.23,1.329-10.396c0.247-1.143,2.79-8.151,2.302-8.558
		c-0.488-0.406-4.631-9.425-4.956-11.618c-0.325-2.193-1.138-8.287-1.95-10.399c-0.812-2.113-2.031-7.069-2.031-7.069
		s1.707-2.6,3.087-2.843c1.381-0.244,2.871-0.812,3.548,0c0.677,0.812,2.789,12.15,2.789,12.15s2.737,15.391,7.043,14.335
		l8.258,0.071c0,0-4.501,5.677-4.794,7.449C-6.456-1.57-5.053,3.773-4.184,6.766C-3.227,10.061-1.923,12.572-1.923,12.572z"/>
	<path fill="#343433" d="M-33.538-6.559l27.746-35.266l1.47,1.063c0,0-27.502,34.859-27.845,35.672s2.123,8.117-3.176,5.412
		C-40.642-2.381-33.538-6.559-33.538-6.559z M-34.651-0.61c2.356-0.082,1.138-4.388,1.138-4.388
		C-35.545-4.267-37.007-0.529-34.651-0.61z"/>
	<g>
		<path fill="#DEB490" d="M-1.355-3.239c0,0-2.224-8.986-3.124-9.938c-0.899-0.952-2.489-3.292-3.906-4.778
			c-1.427-1.498-2.877-3.346-3.379-3.956c-0.503-0.611-3.181-2.044-3.916-1.381c-0.734,0.662-0.46-0.192-0.142,0.615
			c0,0-1.282,0.07-0.232,0.963c0,0-1.788-0.104-0.458,1.052c0,0-1.509,0.159-0.607,0.675s-0.07,0.276-0.07,0.276
			s-0.067-0.16-0.318-0.808s-1.468,1.139,0.156,1.494c1.625,0.354,2.755-0.277,3.73,0.955c0.975,1.233,3.81,4.008,4.55,5.873
			c1.006,2.535,2.772,9.47,2.772,9.47S-6.007-1.405-1.355-3.239z"/>
		<path fill="#DEB490" d="M-27.024,8.782c0,0-5.271-2.879-6.409-5.332c0,0-4.144-0.503-4.469-2.047
			c-0.325-1.544,0.082-2.438,0.569-2.112s0.487,0.325,0.487,0.325s0.244-1.382,0.975-0.812c0,0,1.544,3.168,2.194,2.355
			s-0.244-2.274-0.812-2.112c-0.569,0.163-1.788-0.324-1.381-0.73s3.331,0.081,3.575,0.487c0.244,0.406,0.65,2.438,0.65,2.438
			s1.539-0.07,3.412,0.975c1.344,0.749,1.788,1.3,1.788,1.3S-27.755,4.883-27.024,8.782z"/>
	</g>
	<path fill="#DFB576" d="M-17.181,6.259c0,0,2.037-2.616,5.496-3.624c0,0,0,0,1.167,0.764c0.313,0.205,2.456,1.935,1.945,3.016
		c-0.163,0.345-1.142,6.11-0.629,4.894C-9.203,11.308-16.43,10.641-17.181,6.259z"/>
	<path fill="#DFB576" d="M-10.254,15.497c0,0,0.484-0.062,1.741-0.456c1.257-0.394,0.603-1.577,0.603-1.577l-1.087-2.667
		L-10.254,15.497z"/>
	<path fill="#DEB490" d="M-16.351,7.304c0,0,0.525-1.96,2.441-2.86c1.917-0.899,2.667,0,2.667,0l1.917,2.379l-2.001,2.254"/>
	<path fill="#DB4D3C" d="M-9.779,8.473c0,0,2.559,3.603-0.853,7.205c0,0-1.876,1.501-5.289,0.9c0,0-2.389-1.509-2.389-3.981
		s0-3.073,0.853-4.124s0.853-2.102,2.73-3.002C-12.85,4.569-8.926,6.221-9.779,8.473z"/>
	<path fill="#AD9275" d="M-4.228-15.643c0,0-0.368,1.063,0.322,0.953s0.587,0.84,1.162,0.89s0.792,2.084,0.851,1.055
		c0.059-1.03,0.874-0.773-0.198-2.226c-1.072-1.451-0.289-1.859-1.072-1.451c-0.784,0.408-0.377-0.053-0.746-0.234
		C-4.277-16.838-4.228-15.643-4.228-15.643z"/>
	<path fill="#AD9275" d="M-23.73-28.992c0,0-0.367,1.064,0.323,0.953c1.716-0.274,0.008,0.791,1.161,0.891
		c0.574,0.05,1.72,0.797,1.779-0.233c0.059-1.03,0.496-0.594-0.576-2.045s-0.288-1.86-1.072-1.451
		c-0.784,0.408-0.927,1.054-1.295,0.872C-23.779-30.187-23.73-28.992-23.73-28.992z"/>
	<path fill="#AD9275" d="M-11.018-2.786c0,0-1.343-0.409-1.18,0.056c0.408,1.156-3.329,0.589-3.278,1.382
		c0.025,0.395,2.275,0.68,3.091,0.662s1.519,1.392,2.617,0.688c1.669-1.072,0.354-1.497-0.055-2.01
		c-0.408-0.512-0.932-0.574-0.831-0.835C-10.552-3.105-11.018-2.786-11.018-2.786z"/>
	<path fill="#764D2A" d="M-11.599,4.407L-11.599,4.407c-0.032-0.033-0.084-0.035-0.118-0.004l-0.196,0.187
		c-0.033,0.032-0.035,0.085-0.003,0.118l0,0c0.032,0.033,0.085,0.035,0.118,0.003l0.196-0.187
		C-11.568,4.493-11.567,4.44-11.599,4.407z"/>
	<path fill="#764D2A" d="M-12.071,4.168L-12.071,4.168c-0.044-0.011-0.089,0.018-0.1,0.062l-0.062,0.264
		c-0.01,0.045,0.018,0.09,0.062,0.1l0,0c0.045,0.011,0.09-0.018,0.1-0.062l0.061-0.264C-11.998,4.224-12.026,4.178-12.071,4.168z"/>
	<path fill="#764D2A" d="M-12.62,4.183L-12.62,4.183c-0.042,0.019-0.06,0.068-0.041,0.11l0.113,0.246
		c0.02,0.041,0.069,0.06,0.111,0.041l0,0c0.042-0.02,0.06-0.069,0.041-0.111l-0.113-0.246C-12.528,4.182-12.578,4.163-12.62,4.183z"
		/>
	<path fill="#764D2A" d="M-11.509,5.239L-11.509,5.239c-0.013-0.007-0.034-0.008-0.047-0.001l-0.2,0.096
		c-0.051,0.024-0.052,0.066-0.002,0.093l0,0c0.013,0.007,0.034,0.008,0.047,0.001l0.2-0.096C-11.46,5.308-11.459,5.266-11.509,5.239
		z"/>
	<path fill="#764D2A" d="M-11.938,5.135L-11.938,5.135c-0.017-0.001-0.038,0.02-0.047,0.046l-0.022,0.061
		c-0.018,0.049-0.007,0.09,0.024,0.091l0,0c0.016,0.001,0.038-0.02,0.047-0.046l0.022-0.061
		C-11.896,5.177-11.907,5.136-11.938,5.135z"/>
	<path fill="#764D2A" d="M-13.23,4.755L-13.23,4.755c-0.065,0.006-0.069,0.081-0.008,0.167l0.11,0.155
		c0.021,0.03,0.056,0.052,0.078,0.05l0,0c0.064-0.006,0.068-0.08,0.008-0.166l-0.11-0.156C-13.172,4.775-13.208,4.753-13.23,4.755z"
		/>
	<path fill="#E1857B" d="M-13.111,4.859c0,0,0.467,0.146,0.723,0.125c0.256-0.021,0.568,0.167,0.631,0.146
		c0.062-0.021,0.188-0.02,0.083-0.135s-0.583-0.263-0.854-0.262C-12.799,4.734-13.111,4.859-13.111,4.859z"/>
	<g>
		<path fill="#936252" d="M-6.006-3.36l-0.307,0.407C-6.312-2.953-6.212-3.169-6.006-3.36z"/>
		<path fill="#936252" d="M-4.885-3.564L-4.885-3.564c0.211,0.081,0.354,0.188,0.354,0.188l-0.361-0.179l-0.299,0.398
			c0,0,0.098-0.21,0.298-0.398l-0.095-0.047C-4.951-3.591-4.92-3.577-4.885-3.564C-4.886-3.563-4.886-3.564-4.885-3.564z"/>
		<path fill="#936252" d="M-3.828-3.679l-0.307,0.407C-4.135-3.271-4.035-3.488-3.828-3.679z"/>
		<path fill="#936252" d="M-2.785-3.564l-0.307,0.408C-3.092-3.156-2.992-3.373-2.785-3.564z"/>
		<path fill="#936252" d="M-2.197-4.018l0.429,0.212c-0.055-0.016-0.108-0.033-0.17-0.041C-2.289-3.892-2.3-3.993-2.3-3.993
			l-0.063-0.058l-0.031,0.08c0,0,0.016,0.06-0.113,0.179c0.094,0.053,0.153,0.098,0.153,0.098l-0.169-0.084
			c-0.035,0.031-0.071,0.062-0.128,0.102c-0.052,0.035-0.091,0.074-0.133,0.112l0.188-0.25l-0.083-0.041l-0.454,0.228l0.399-0.255
			l-0.078-0.038c0.032,0.01,0.058,0.021,0.087,0.032l0.305-0.194l-0.122-0.051L-3.24-4.133l0.429,0.212
			c-0.055-0.016-0.107-0.032-0.17-0.041c-0.351-0.045-0.362-0.146-0.362-0.146l-0.063-0.058l-0.031,0.08
			c0,0,0.036,0.096-0.257,0.294c-0.016,0.011-0.027,0.023-0.042,0.035c0.195,0.079,0.325,0.178,0.325,0.178l-0.337-0.167
			c-0.026,0.022-0.054,0.044-0.079,0.067l0.058-0.078l-0.099-0.049C-3.83-3.794-3.797-3.78-3.763-3.767l0.222-0.295l-0.079,0.039
			l0.033,0.004h-0.04L-3.96-3.851l0.092,0.045c-0.04-0.012-0.081-0.021-0.124-0.029l-0.184,0.092l0.155-0.099
			c-0.006-0.001-0.011-0.004-0.018-0.005C-4.389-3.892-4.4-3.993-4.4-3.993l-0.063-0.058l-0.031,0.08c0,0,0.036,0.096-0.257,0.294
			c-0.052,0.035-0.092,0.074-0.133,0.112l0.288-0.382l-0.236,0.118l0.126,0.013L-4.86-3.814l-0.278,0.139l0.149,0.074
			c-0.055-0.016-0.108-0.033-0.17-0.041C-5.172-3.645-5.178-3.647-5.19-3.649l-0.042,0.021l0.036-0.022
			c-0.305-0.048-0.323-0.14-0.323-0.14l-0.063-0.057l-0.031,0.079c0,0,0.036,0.096-0.257,0.294C-5.924-3.438-5.964-3.399-6.006-3.36
			l0.288-0.383l-0.636,0.319l0.713-0.455l-0.579-0.243l0.524,0.133l-0.047-0.457l0.11,0.473l0.019,0.005l0.015-0.013l-0.114-0.472
			l0.163,0.429l0.409-0.354l-0.408,0.477l0.641,0.065l0.387-0.247l-0.579-0.243l0.525,0.133l-0.048-0.456l0.111,0.472l0.019,0.005
			l0.014-0.013l-0.113-0.472l0.163,0.43l0.409-0.354l-0.408,0.478l0.706,0.072l0.259-0.166L-4.042-4.44l0.525,0.132l-0.048-0.456
			l0.111,0.472l0.019,0.005l0.014-0.013l-0.113-0.471l0.163,0.429l0.409-0.354L-3.371-4.22l0.825,0.084l-0.454-0.19l0.525,0.133
			l-0.047-0.456l0.11,0.472l0.019,0.005l0.014-0.013l-0.113-0.472l0.163,0.43l0.409-0.354l-0.408,0.478l0.841,0.086L-2.197-4.018z
			 M-2.66-3.865c0.027,0.012,0.052,0.022,0.076,0.034l0.086-0.115L-2.66-3.865z M-5.418-3.814l0.269,0.133l0.209-0.133H-5.418z
			 M-4.297-4.018l0.311,0.153l0.243-0.154L-4.297-4.018z"/>
		<path fill="#936252" d="M-1.768-3.806c0.271,0.078,0.457,0.227,0.457,0.227L-1.768-3.806z"/>
	</g>
	<g>
		<g>
			<path fill="#8FAA64" d="M-91.861-18.543c0,0,4.609,3.387,7.208-0.241C-84.653-18.784-87.756-21.709-91.861-18.543z"/>
		</g>
		<g>
			<path fill="#8FAA64" d="M-91.861-18.543c0,0,1.677,3.984-1.958,5.952C-93.819-12.591-95.482-15.306-91.861-18.543z"/>
		</g>
		<g>
			<path fill="#8FAA64" d="M-91.803-18.582c0,0-1.83-2.978-3.352-6.094c-0.759-1.552-1.438-3.151-1.747-4.343
				c-0.157-0.592-0.209-1.079-0.179-1.335c0.017-0.119,0.031-0.211,0.053-0.224c0.016-0.025,0.017-0.042,0.017-0.042l-1.319-0.674
				c0,0-0.031,0.088-0.089,0.253c-0.064,0.172-0.08,0.387-0.085,0.645c0.003,0.509,0.15,1.105,0.389,1.759
				c0.479,1.304,1.331,2.852,2.25,4.352c1.84,2.996,3.946,5.782,3.946,5.782L-91.803-18.582z"/>
		</g>
		<g opacity="0.5">
			<path fill="#8FAA64" d="M-92.463-18.882c0,0,6.784,4.983,10.608-0.354C-81.855-19.236-86.422-23.542-92.463-18.882z"/>
		</g>
		<g opacity="0.5">
			<path fill="#8FAA64" d="M-92.463-18.882c0,0,2.469,5.862-2.881,8.759C-95.345-10.123-97.793-14.117-92.463-18.882z"/>
		</g>
	</g>
</symbol>
<symbol  id="biggerplant" viewBox="-14.406 -14.337 28.813 28.675">
	<g>
		<path fill="#8FAA64" d="M-2.033,5.997c0,0-3.794,6.437-8.78,3.417C-10.813,9.414-8.591,4.305-2.033,5.997z"/>
	</g>
	<g>
		<path fill="#8FAA64" d="M-1.225,6.016c0,0,0.034,5.647,5.412,6.142C4.187,12.157,4.79,8.042-1.225,6.016z"/>
	</g>
	<g>
		<path fill="#8FAA64" d="M-1.418,6.93c0,0,0.478-1.258,0.98-3.207c0.253-0.975,0.519-2.12,0.747-3.359
			c0.241-1.237,0.433-2.569,0.59-3.907c0.155-1.338,0.252-2.684,0.309-3.948c0.036-0.632,0.028-1.244,0.043-1.825
			c0.019-0.581-0.004-1.13-0.014-1.638c-0.008-1.016-0.072-1.859-0.111-2.451c-0.038-0.593-0.06-0.931-0.06-0.931l-1.472,0.173
			c0,0,0.042,0.327,0.115,0.898c0.074,0.572,0.188,1.39,0.258,2.378c0.041,0.494,0.097,1.028,0.114,1.597
			c0.021,0.567,0.066,1.167,0.07,1.787c0.022,1.241,0.01,2.567-0.06,3.893C0.02-2.286-0.086-0.96-0.248,0.276
			c-0.149,1.238-0.34,2.388-0.53,3.369c-0.378,1.964-0.772,3.238-0.772,3.238L-1.418,6.93z"/>
	</g>
	<g>
		<path fill="#8FAA64" d="M6.64-2.3c0,0-0.663-0.148-1.479-0.735C4.34-3.604,3.44-4.611,2.813-5.778
			C2.647-6.064,2.496-6.357,2.371-6.66C2.234-6.955,2.105-7.247,2.009-7.544C1.784-8.122,1.636-8.685,1.505-9.163
			c-0.136-0.478-0.193-0.893-0.259-1.174c-0.059-0.284-0.091-0.446-0.091-0.446l-1.06,0.229c0,0,0.05,0.168,0.136,0.46
			c0.095,0.29,0.191,0.714,0.377,1.203C0.79-8.399,0.996-7.826,1.286-7.238c0.127,0.3,0.291,0.598,0.461,0.896
			c0.159,0.305,0.345,0.6,0.545,0.887c0.767,1.17,1.806,2.145,2.713,2.662c0.899,0.536,1.609,0.632,1.609,0.632L6.64-2.3z"/>
	</g>
	<g opacity="0.5">
		<path fill="#8FAA64" d="M-1.484,5.279c0,0-5.584,9.474-12.922,5.029C-14.407,10.309-11.136,2.79-1.484,5.279z"/>
	</g>
	<g opacity="0.5">
		<path fill="#8FAA64" d="M-0.676,5.299c0,0,0.05,8.311,7.964,9.038C7.289,14.337,8.175,8.28-0.676,5.299z"/>
	</g>
	<g>
		<path fill="#8FAA64" d="M6.08-2.459c0,0,0.814,4.75,5.412,4.418C11.491,1.959,11.425-1.59,6.08-2.459z"/>
	</g>
	<g opacity="0.5">
		<path fill="#8FAA64" d="M6.442-3.14c0,0,1.199,6.991,7.964,6.502C14.406,3.362,14.31-1.86,6.442-3.14z"/>
	</g>
	<g>
		<path fill="#8FAA64" d="M6.194-2.02c0,0-4.608,1.412-3.693,5.93C2.5,3.91,6.012,3.394,6.194-2.02z"/>
	</g>
	<g opacity="0.5">
		<path fill="#8FAA64" d="M6.542-3.024c0,0-6.781,2.079-5.436,8.728C1.106,5.703,6.275,4.942,6.542-3.024z"/>
	</g>
</symbol>
<symbol  id="biotruck" viewBox="-83.838 -46.178 167.679 92.358">
	<polygon fill="#4C4D4F" points="-12.7,-30.205 -28.245,-37.378 -48.4,-37.378 -58.654,-30.205 	"/>
	<polyline fill="#4C4D4F" points="54.63,-41.104 46.366,-35.391 43.891,-23.635 54.63,-23.635 54.63,-43.41 	"/>
	<path fill="#7D7B7C" d="M81.711-25.073v15.043l-9.846,4.723L60.538,7.415c0,0-15.114,15.79-21.411,15.79s-15.743,0-15.743,0
		v-57.024h25.49h32.837V-25.073z"/>
	<polygon fill="#444345" points="29.04,-8.005 31.161,-8.005 31.161,-1.083 29.04,-1.083 	"/>
	<polygon fill="#B3B7BD" points="23.025,-24.891 23.025,-31.834 -13.55,-31.834 -83.837,-31.834 -83.837,-24.891 	"/>
	<polygon fill="#3F3E41" points="-83.837,-25.869 23.025,-25.869 23.025,-17.403 -83.837,-17.403 	"/>
	<polygon fill="#14A085" points="-83.837,-19.398 23.384,-19.398 23.384,46.18 -83.837,46.18 	"/>
	<path fill="#D1E2E8" d="M56.794-4.544v8.641c0,0-10.218,14.778-15.04,15.123c-4.821,0.345-13.776,0-13.776,0V2.688H44.51
		l4.477-7.232H56.794z"/>
	<polygon fill="#9CA2A8" points="66.942,-33.819 83.841,-33.819 83.841,-24.219 80.287,-24.219 66.942,-24.219 	"/>
	<g>
		<path fill="#383738" d="M50.854-33.786c0-6.844,5.549-12.393,12.393-12.393S75.64-40.63,75.64-33.786
			c0,6.845-5.548,12.394-12.393,12.394S50.854-26.941,50.854-33.786z"/>
		<path fill="#7E8F98" d="M54.63-33.786c0-4.759,3.858-8.617,8.618-8.617s8.617,3.858,8.617,8.617c0,4.76-3.858,8.618-8.617,8.618
			S54.63-29.026,54.63-33.786z"/>
		<path fill="#707174" d="M55.492-33.786c0-4.283,3.472-7.755,7.756-7.755c4.283,0,7.755,3.472,7.755,7.755
			c0,4.284-3.472,7.756-7.755,7.756C58.964-26.03,55.492-29.502,55.492-33.786z"/>
		<path fill="#BEC7CC" d="M61.696-33.786c0-0.856,0.694-1.551,1.551-1.551c0.856,0,1.551,0.694,1.551,1.551
			c0,0.857-0.694,1.552-1.551,1.552C62.391-32.234,61.696-32.929,61.696-33.786z"/>
		<path fill="#BEC7CC" d="M68.697-33.786c0-3.009-2.44-5.449-5.449-5.449c-3.01,0-5.45,2.44-5.45,5.449c0,3.01,2.44,5.45,5.45,5.45
			C66.257-28.336,68.697-30.776,68.697-33.786z"/>
		<path fill="#E0E0E0" d="M65.234-33.522c0-1.098-0.89-1.987-1.987-1.987c-1.098,0-1.987,0.89-1.987,1.987s0.89,1.987,1.987,1.987
			C64.345-31.535,65.234-32.425,65.234-33.522z"/>
	</g>
	<polygon fill="#F4D180" points="76.134,-21.083 80.361,-21.083 80.361,-17.715 76.134,-17.715 	"/>
	<polygon fill="#CCCFD0" points="52.547,8.239 46.844,-1.083 48.987,-4.544 56.794,-4.544 56.794,4.097 	"/>
	<line fill="none" stroke="#CCCFD0" stroke-width="1.0608" stroke-miterlimit="10" x1="44.51" y1="2.688" x2="44.51" y2="18.165"/>
	<g>
		<path fill="#CCCFD0" d="M76.134-15.324c0,0-0.622,0.459-1.833,1.026c-0.605,0.282-1.346,0.612-2.223,0.917
			c-0.87,0.325-1.879,0.61-2.978,0.913c-2.201,0.602-4.827,1.088-7.664,1.383c-0.706,0.099-1.43,0.149-2.161,0.216
			c-0.73,0.073-1.471,0.122-2.221,0.152l-1.126,0.058c-0.177,0.007-0.404,0.028-0.539,0.025l-0.572-0.002
			c-0.764-0.004-1.531-0.007-2.297-0.01c-6.135-0.037-12.271,0.048-16.872,0.219c-2.301,0.074-4.218,0.194-5.56,0.261
			c-1.342,0.068-2.108,0.136-2.108,0.136s0.767,0.067,2.108,0.136c1.342,0.066,3.259,0.187,5.56,0.261
			c4.602,0.171,10.737,0.256,16.872,0.219c0.767-0.003,1.534-0.006,2.297-0.01l0.572-0.002c0.247-0.001,0.398-0.022,0.602-0.034
			l1.142-0.087c0.759-0.05,1.51-0.119,2.251-0.213c0.741-0.088,1.475-0.154,2.19-0.278c2.866-0.444,5.509-1.073,7.714-1.797
			c1.104-0.36,2.091-0.761,2.948-1.154c0.862-0.38,1.583-0.776,2.17-1.11C75.57-14.791,76.134-15.324,76.134-15.324z"/>
	</g>
	<g>
		<path fill="#383738" d="M-50.555-33.786c0-6.844,5.548-12.393,12.393-12.393c6.845,0,12.393,5.549,12.393,12.393
			c0,6.845-5.548,12.394-12.393,12.394C-45.006-21.393-50.555-26.941-50.555-33.786z"/>
		<path fill="#7E8F98" d="M-46.779-33.786c0-4.759,3.858-8.617,8.617-8.617s8.618,3.858,8.618,8.617c0,4.76-3.858,8.618-8.618,8.618
			S-46.779-29.026-46.779-33.786z"/>
		<path fill="#707174" d="M-45.917-33.786c0-4.283,3.472-7.755,7.755-7.755c4.284,0,7.756,3.472,7.756,7.755
			c0,4.284-3.472,7.756-7.756,7.756C-42.445-26.03-45.917-29.502-45.917-33.786z"/>
		<path fill="#BEC7CC" d="M-39.713-33.786c0-0.856,0.694-1.551,1.551-1.551c0.857,0,1.551,0.694,1.551,1.551
			c0,0.857-0.694,1.552-1.551,1.552C-39.019-32.234-39.713-32.929-39.713-33.786z"/>
		<path fill="#BEC7CC" d="M-32.712-33.786c0-3.009-2.44-5.449-5.45-5.449c-3.009,0-5.449,2.44-5.449,5.449
			c0,3.01,2.44,5.45,5.449,5.45C-35.152-28.336-32.712-30.776-32.712-33.786z"/>
		<path fill="#E0E0E0" d="M-36.175-33.522c0-1.098-0.89-1.987-1.987-1.987c-1.097,0-1.987,0.89-1.987,1.987s0.89,1.987,1.987,1.987
			C-37.064-31.535-36.175-32.425-36.175-33.522z"/>
	</g>
	<polygon fill="#2980BA" points="8.712,-19.708 -71.129,-19.708 -71.129,46.157 8.712,46.157 	"/>
	<g>
		<line fill="none" stroke="#959797" stroke-miterlimit="10" x1="-71.129" y1="45.669" x2="-71.129" y2="-19.708"/>
		<line fill="none" stroke="#959797" stroke-miterlimit="10" x1="8.712" y1="45.669" x2="8.712" y2="-19.708"/>
	</g>
</symbol>
<symbol  id="smallplant" viewBox="-8.003 -6.985 16.006 13.97">
	<g>
		<path fill="#8FAA64" d="M1.468,0.615c0,0-2.904,4.927-6.721,2.615C-5.253,3.23-3.552-0.68,1.468,0.615z"/>
	</g>
	<g>
		<path fill="#8FAA64" d="M1.468,0.615c0,0,0.026,4.323,4.143,4.701C5.61,5.316,6.071,2.166,1.468,0.615z"/>
	</g>
	<g>
		<path fill="#8FAA64" d="M1.534,0.639c0,0,0.783-1.683,1.144-3.562c0.083-0.472,0.153-0.952,0.155-1.423
			C2.848-4.814,2.801-5.275,2.683-5.68C2.644-5.882,2.556-6.067,2.475-6.231c-0.072-0.168-0.153-0.308-0.25-0.414
			c-0.18-0.216-0.283-0.34-0.283-0.34l-0.948,1.14c0,0,0.047,0.047,0.146,0.123C1.196-5.692,1.25-5.63,1.303-5.545
			c0.06,0.078,0.135,0.164,0.184,0.298c0.125,0.239,0.233,0.58,0.291,0.971C1.85-3.889,1.867-3.447,1.871-3.004
			c-0.009,1.792-0.47,3.597-0.47,3.597L1.534,0.639z"/>
	</g>
	<g opacity="0.5">
		<path fill="#8FAA64" d="M1.888,0.066c0,0-4.274,7.251-9.891,3.85C-8.003,3.916-5.5-1.84,1.888,0.066z"/>
	</g>
	<g opacity="0.5">
		<path fill="#8FAA64" d="M1.888,0.066c0,0,0.039,6.361,6.097,6.919C7.984,6.985,8.663,2.349,1.888,0.066z"/>
	</g>
</symbol>
<use xlink:href="#New_Symbol"  width="320.634" height="81.859" id="XMLID_2_" x="-170.869" y="-51.39" transform="matrix(2.4951 0 0 -2.4951 591.3301 142.7773)" overflow="visible"/>
</svg>
