<?xml version="1.0" encoding="utf-8"?>
<!-- Generator: Adobe Illustrator 16.0.0, SVG Export Plug-In . SVG Version: 6.00 Build 0)  -->
<!DOCTYPE svg PUBLIC "-//W3C//DTD SVG 1.1//EN" "http://www.w3.org/Graphics/SVG/1.1/DTD/svg11.dtd">
<svg version="1.1" id="Layer_1" xmlns="http://www.w3.org/2000/svg" xmlns:xlink="http://www.w3.org/1999/xlink" x="0px" y="0px"
	 width="1129px" height="589.292px" viewBox="0 0 1129 589.292" enable-background="new 0 0 1129 589.292" xml:space="preserve">
<symbol  id="heatrecoverypie" viewBox="-218.713 -125.831 437.425 251.662">
	<path fill="#C5CCB8" d="M-57.023-0.272c0,55.227,44.771,100,100,100s100-44.773,100-100c0-55.225-44.771-100-100-100
		S-57.023-55.497-57.023-0.272z"/>
	<path fill="#C5CCB8" d="M-47.25-0.339c0,49.83,40.395,90.228,90.227,90.228c49.83,0,90.227-40.397,90.227-90.228
		c0-49.826-40.396-90.223-90.227-90.223C-6.855-90.562-47.25-50.165-47.25-0.339z"/>
	<text transform="matrix(1 0 0 -1 -11.2065 114.7812)" fill="#9778B5" font-family="'PTSans-Regular'" font-size="13">Other</text>
	<text transform="matrix(1 0 0 -1 -171.4849 40.2676)" fill="#14A085" font-family="'PTSans-Regular'" font-size="13">Iron and Steel</text>
	<text transform="matrix(1 0 0 -1 -219.8501 -4.2734)" fill="#C03A2B" font-family="'PTSans-Regular'" font-size="13">Non metallic mineral</text>
	<text transform="matrix(1 0 0 -1 -199.2524 -46.2852)" fill="#3B97D3" font-family="'PTSans-Regular'" font-size="13">food and beverage</text>
	<text transform="matrix(1 0 0 -1 167.4668 -16.8867)" fill="#C03A2B" font-family="'PTSans-Regular'" font-size="13">Cement</text>
	<text transform="matrix(1 0 0 -1 -110.5537 85.8887)" fill="#E57E25" font-family="'PTSans-Regular'" font-size="13">Wood Based</text>
	<text transform="matrix(1 0 0 -1 -119.5693 -98.6465)"><tspan x="0" y="0" fill="#26B99A" font-family="'PTSans-Regular'" font-size="13">Chemicals and</tspan><tspan x="13.123" y="24" fill="#26B99A" font-family="'PTSans-Regular'" font-size="13">Petroleum</tspan></text>
	<path fill="#E57E25" d="M42.434,0.938c0.019-0.179,0.034-0.283,0.043-0.294L42.434,0.938z"/>
	<path fill="#E64C3C" d="M132.384-0.319c0,49.83-40.397,90.227-90.223,90.227V89.89V0.999l0.5-0.562l-18.867-88.98
		c1.41-0.308,2.832-0.591,4.266-0.832c4.935-0.831,10-1.27,15.166-1.27v0.113c22.894,0.266,43.735,9.061,59.504,23.353l0,0
		C120.94-50.674,132.384-26.836,132.384-0.319z"/>
	<path fill="#26B99A" d="M-36.914-42.285c0.582-1.118,1.179-2.224,1.805-3.302C-22.565-67.175-1.316-83.06,23.794-88.544
		L42.452-0.549L-36.914-42.285z"/>
	<path fill="#3B97D3" d="M-45.713-16.265c1.673-9.241,4.677-18.109,8.799-26.021L42.452-0.549l0.209,0.985L-45.713-16.265z"/>
	<path fill="#C03A2B" d="M-46.386,12.584c-0.538-3.922-0.828-7.929-0.854-12.004h-0.01c0-0.099,0.005-0.197,0.005-0.296
		c0-0.102-0.005-0.2-0.005-0.301h0.01c0.035-5.467,0.562-10.919,1.527-16.248L42.661,0.437L-46.386,12.584z"/>
	<path fill="#26B99A" d="M42.661-0.272"/>
	<path fill="#14A085" d="M-35.007,45.047c-5.662-9.828-9.521-20.856-11.139-32.646L42.661,0.437l-74.95,49.023
		C-33.234,48.017-34.144,46.547-35.007,45.047z"/>
	<path fill="#E57E25" d="M42.161,3.078L42.161,3.078L24.489,88.099c-2.441-0.488-4.851-1.063-7.213-1.743
		c-2.783-0.801-5.505-1.738-8.166-2.792c-9.655-3.82-18.466-9.249-26.1-15.983c-1.822-1.608-3.584-3.286-5.269-5.038
		c-3.809-3.96-7.245-8.279-10.271-12.898l75.19-49.207l0,0L42.161,3.078z"/>
	<path fill="#894B9D" d="M42.661,0.437L42.661,0.437L42.661,0.437L42.477,89.89c-1.873,0-3.726-0.076-5.567-0.189l0.015-0.217
		c-0.392-0.021-0.786-0.038-1.176-0.067c-1.979-0.148-3.942-0.354-5.883-0.627c-1.75-0.246-3.478-0.554-5.192-0.897L42.661,0.437
		L42.661,0.437L42.661,0.437z M42.661,0.437l-0.043,0.296"/>
</symbol>
<g id="solar_hot_water">
</g>
<g id="solargraph">
	
		<use xlink:href="#heatrecoverypie"  width="437.425" height="251.662" x="-218.713" y="-125.831" transform="matrix(1 0 0 -1 830.3838 -257.1689)" overflow="visible"/>
	<g id="heatrecoverygraph">
	</g>
</g>
<g id="rorpie">
	<g>
		<rect x="279.648" y="66.599" fill="#C5CCB8" width="562.377" height="360.23"/>
		<g>
			<rect x="293.098" y="121.659" fill="#E64C3C" width="187.297" height="10"/>
		</g>
		<g>
			<text transform="matrix(1 0 0 1 461.5967 494.5664)" fill="#565756" font-family="'PTSans-Regular'" font-size="17.1521">Gigawatt Hours per Year</text>
		</g>
		<g>
			<g>
				<text transform="matrix(1 0 0 1 282.3057 450.752)" fill="#6D6D6D" font-family="'PTSans-Regular'" font-size="17.1521">0</text>
			</g>
			<g>
				<text transform="matrix(1 0 0 1 809.3613 450.752)" fill="#6D6D6D" font-family="'PTSans-Regular'" font-size="17.1521">150</text>
			</g>
			<g>
				<text transform="matrix(1 0 0 1 482.9219 450.752)" fill="#6D6D6D" font-family="'PTSans-Regular'" font-size="17.1521">60</text>
			</g>
			<g>
				<text transform="matrix(1 0 0 1 377.5107 450.752)" fill="#6D6D6D" font-family="'PTSans-Regular'" font-size="17.1521">30</text>
			</g>
			<g>
				<text transform="matrix(1 0 0 1 693.7441 450.752)" fill="#6D6D6D" font-family="'PTSans-Regular'" font-size="17.1521">120</text>
			</g>
			<g>
				<text transform="matrix(1 0 0 1 588.333 450.752)" fill="#6D6D6D" font-family="'PTSans-Regular'" font-size="17.1521">90</text>
			</g>
		</g>
		<g>
			<rect x="293.098" y="240.622" fill="#C03A2B" width="44.224" height="10"/>
		</g>
		<g>
			<rect x="293.098" y="74.074" fill="#3B97D3" width="531.564" height="10"/>
		</g>
		<g>
			<rect x="293.098" y="288.207" fill="#D25627" width="33.176" height="10"/>
		</g>
		<g>
			<rect x="293.098" y="359.584" fill="#E64C3C" width="4.66" height="10.001"/>
		</g>
		<g>
			<rect x="293.098" y="169.245" fill="#E57E25" width="72.893" height="10"/>
		</g>
		<g>
			<rect x="293.098" y="264.414" fill="#26B99A" width="41.391" height="10"/>
		</g>
		<g>
			<rect x="293.098" y="311.999" fill="#3B97D3" width="23.529" height="10"/>
		</g>
		<g>
			<rect x="293.098" y="145.452" fill="#14A085" width="79.747" height="10"/>
		</g>
		<g>
			<rect x="293.098" y="97.868" fill="#894B9D" width="432.1" height="10"/>
		</g>
		<g>
			<rect x="293.098" y="193.037" fill="#2980BA" width="66.633" height="10"/>
		</g>
		<g>
			<rect x="293.098" y="216.83" fill="#9778B5" width="58.936" height="10"/>
		</g>
		<rect x="293.098" y="335.791" fill="#894B9D" width="8.277" height="10"/>
		<g>
			<g>
				<path fill="#E64C3C" d="M212.605,123.572c0,0.216-0.035,0.438-0.104,0.662c-0.069,0.226-0.173,0.436-0.312,0.631
					c-0.139,0.195-0.316,0.366-0.533,0.514s-0.473,0.26-0.767,0.338v0.052c0.26,0.044,0.509,0.117,0.748,0.222
					c0.238,0.104,0.448,0.246,0.63,0.429c0.182,0.182,0.33,0.403,0.442,0.663c0.113,0.26,0.169,0.567,0.169,0.923
					c0,0.468-0.097,0.873-0.292,1.216c-0.195,0.342-0.451,0.621-0.768,0.838s-0.678,0.377-1.085,0.481
					c-0.408,0.104-0.824,0.155-1.248,0.155c-0.147,0-0.321,0-0.521,0s-0.407-0.006-0.624-0.019
					c-0.216-0.014-0.433-0.031-0.649-0.053c-0.217-0.021-0.408-0.054-0.572-0.098v-8.957c0.32-0.052,0.693-0.095,1.118-0.13
					c0.424-0.034,0.888-0.052,1.391-0.052c0.338,0,0.683,0.028,1.034,0.085c0.351,0.056,0.669,0.164,0.956,0.324
					c0.286,0.161,0.522,0.384,0.708,0.67C212.512,122.753,212.605,123.121,212.605,123.572z M208.874,125.496
					c0.147,0,0.325-0.005,0.533-0.014c0.208-0.008,0.381-0.021,0.52-0.039c0.208-0.068,0.403-0.153,0.585-0.253
					s0.344-0.217,0.488-0.352c0.143-0.134,0.255-0.29,0.338-0.468c0.082-0.178,0.123-0.37,0.123-0.578
					c0-0.286-0.054-0.522-0.162-0.709c-0.108-0.186-0.254-0.336-0.436-0.448c-0.182-0.112-0.39-0.192-0.624-0.24
					c-0.234-0.048-0.473-0.071-0.715-0.071c-0.286,0-0.549,0.006-0.787,0.02c-0.238,0.013-0.418,0.032-0.539,0.058v3.095H208.874z
					 M209.589,129.76c0.277,0,0.546-0.032,0.807-0.098c0.26-0.064,0.489-0.169,0.688-0.312c0.199-0.144,0.357-0.318,0.475-0.526
					s0.176-0.455,0.176-0.741c0-0.355-0.072-0.642-0.215-0.858c-0.143-0.217-0.329-0.386-0.559-0.507
					c-0.23-0.121-0.488-0.203-0.773-0.247c-0.286-0.043-0.572-0.064-0.858-0.064h-1.131v3.263c0.061,0.018,0.147,0.03,0.26,0.039
					c0.113,0.009,0.234,0.018,0.364,0.025c0.13,0.009,0.264,0.016,0.403,0.02C209.364,129.758,209.485,129.76,209.589,129.76z"/>
				<path fill="#E64C3C" d="M220.587,121.492h1.04v6.07c0,0.546-0.071,1.019-0.214,1.417c-0.143,0.399-0.347,0.727-0.611,0.981
					c-0.265,0.256-0.583,0.444-0.956,0.565c-0.373,0.122-0.785,0.183-1.235,0.183c-1.075,0-1.885-0.243-2.431-0.729
					c-0.546-0.485-0.819-1.222-0.819-2.21v-6.278h1.079v5.771c0,0.46,0.045,0.848,0.136,1.164s0.228,0.571,0.41,0.767
					c0.182,0.195,0.409,0.336,0.683,0.423c0.272,0.086,0.591,0.13,0.955,0.13c0.702,0,1.205-0.193,1.508-0.579
					c0.304-0.385,0.455-1.021,0.455-1.904V121.492z"/>
				<path fill="#E64C3C" d="M224.487,121.583c0.329-0.061,0.708-0.108,1.137-0.144c0.429-0.034,0.821-0.052,1.176-0.052
					c0.399,0,0.778,0.044,1.138,0.13c0.359,0.087,0.676,0.229,0.949,0.43c0.273,0.199,0.492,0.459,0.656,0.779
					c0.165,0.321,0.247,0.711,0.247,1.17c0,0.711-0.195,1.287-0.585,1.729c-0.39,0.441-0.884,0.736-1.482,0.884l0.624,0.481
					l2.262,3.601h-1.261l-2.509-3.926l-1.273-0.195v4.121h-1.079V121.583z M226.827,122.324c-0.113,0-0.229,0-0.351,0
					s-0.239,0.004-0.351,0.013s-0.219,0.018-0.318,0.026c-0.1,0.008-0.18,0.021-0.24,0.038v3.354h1.014
					c0.598,0,1.092-0.147,1.482-0.442c0.39-0.294,0.585-0.754,0.585-1.378c0-0.468-0.161-0.854-0.481-1.157
					C227.846,122.476,227.399,122.324,226.827,122.324z"/>
				<path fill="#E64C3C" d="M234.51,124.638l-0.702-1.312h-0.052l0.13,1.312v5.954h-1.014v-9.243h0.572l4.355,6.071l0.676,1.248
					h0.065l-0.144-1.248v-5.928h1.015v9.242h-0.572L234.51,124.638z"/>
				<path fill="#E64C3C" d="M246.592,128.069h-3.338l-0.905,2.522h-1.079l3.445-9.243h0.494l3.458,9.243h-1.145L246.592,128.069z
					 M243.604,127.134h2.665l-1.009-2.769l-0.323-1.379h-0.013l-0.323,1.404L243.604,127.134z"/>
				<path fill="#E64C3C" d="M256.012,123.572c0,0.216-0.035,0.438-0.104,0.662c-0.07,0.226-0.173,0.436-0.312,0.631
					s-0.316,0.366-0.533,0.514s-0.473,0.26-0.767,0.338v0.052c0.26,0.044,0.509,0.117,0.747,0.222
					c0.238,0.104,0.449,0.246,0.631,0.429c0.182,0.182,0.329,0.403,0.442,0.663s0.169,0.567,0.169,0.923
					c0,0.468-0.097,0.873-0.292,1.216c-0.195,0.342-0.451,0.621-0.767,0.838s-0.678,0.377-1.085,0.481
					c-0.407,0.104-0.823,0.155-1.248,0.155c-0.147,0-0.321,0-0.52,0c-0.2,0-0.408-0.006-0.624-0.019
					c-0.216-0.014-0.433-0.031-0.65-0.053s-0.407-0.054-0.572-0.098v-8.957c0.321-0.052,0.693-0.095,1.118-0.13
					c0.425-0.034,0.889-0.052,1.391-0.052c0.338,0,0.682,0.028,1.034,0.085c0.351,0.056,0.669,0.164,0.955,0.324
					c0.286,0.161,0.522,0.384,0.709,0.67C255.918,122.753,256.012,123.121,256.012,123.572z M252.281,125.496
					c0.147,0,0.325-0.005,0.533-0.014c0.208-0.008,0.381-0.021,0.521-0.039c0.208-0.068,0.402-0.153,0.585-0.253
					c0.182-0.1,0.344-0.217,0.487-0.352c0.143-0.134,0.255-0.29,0.338-0.468c0.082-0.178,0.124-0.37,0.124-0.578
					c0-0.286-0.054-0.522-0.163-0.709c-0.108-0.186-0.253-0.336-0.436-0.448c-0.182-0.112-0.39-0.192-0.624-0.24
					c-0.234-0.048-0.473-0.071-0.715-0.071c-0.286,0-0.548,0.006-0.787,0.02c-0.238,0.013-0.418,0.032-0.54,0.058v3.095H252.281z
					 M252.996,129.76c0.277,0,0.546-0.032,0.806-0.098c0.26-0.064,0.489-0.169,0.689-0.312c0.199-0.144,0.357-0.318,0.474-0.526
					c0.117-0.208,0.176-0.455,0.176-0.741c0-0.355-0.071-0.642-0.214-0.858s-0.33-0.386-0.559-0.507s-0.487-0.203-0.773-0.247
					c-0.286-0.043-0.572-0.064-0.858-0.064h-1.131v3.263c0.061,0.018,0.147,0.03,0.26,0.039s0.234,0.018,0.364,0.025
					c0.13,0.009,0.265,0.016,0.403,0.02C252.771,129.758,252.892,129.76,252.996,129.76z"/>
				<path fill="#E64C3C" d="M260.77,126.978l-3.003-5.485h1.261l2.132,3.978l0.225,0.793h0.013l0.238-0.819l2.045-3.951h1.144
					l-2.977,5.473v3.627h-1.079V126.978z"/>
			</g>
			<g>
				<path fill="#C03A2B" d="M198.345,249.18c-0.26,0.199-0.59,0.338-0.988,0.416s-0.823,0.117-1.274,0.117
					c-0.546,0-1.057-0.094-1.534-0.279c-0.477-0.187-0.893-0.471-1.248-0.852c-0.355-0.382-0.637-0.869-0.845-1.463
					s-0.312-1.298-0.312-2.112c0-0.85,0.115-1.571,0.345-2.165c0.229-0.593,0.533-1.079,0.91-1.456
					c0.377-0.377,0.799-0.651,1.268-0.825c0.468-0.173,0.945-0.26,1.43-0.26c0.52,0,0.944,0.028,1.274,0.084
					c0.329,0.057,0.611,0.133,0.845,0.228l-0.26,0.962c-0.416-0.208-1.01-0.312-1.781-0.312c-0.355,0-0.707,0.065-1.053,0.195
					c-0.347,0.13-0.657,0.342-0.93,0.637s-0.492,0.681-0.657,1.157c-0.164,0.477-0.247,1.062-0.247,1.755
					c0,0.624,0.078,1.17,0.234,1.638s0.371,0.858,0.644,1.17c0.273,0.312,0.594,0.546,0.962,0.702s0.769,0.234,1.203,0.234
					c0.39,0,0.73-0.039,1.021-0.117s0.535-0.178,0.734-0.299L198.345,249.18z"/>
				<path fill="#C03A2B" d="M199.879,245.007c0-1.517,0.32-2.681,0.962-3.49c0.641-0.811,1.556-1.216,2.743-1.216
					c0.641,0,1.195,0.112,1.664,0.338s0.856,0.544,1.164,0.955c0.308,0.412,0.535,0.906,0.683,1.482s0.221,1.22,0.221,1.931
					c0,1.517-0.323,2.68-0.968,3.49c-0.646,0.811-1.567,1.216-2.762,1.216c-0.633,0-1.182-0.113-1.645-0.338
					c-0.464-0.226-0.85-0.544-1.157-0.956c-0.308-0.411-0.535-0.905-0.683-1.481S199.879,245.718,199.879,245.007z M201.022,245.007
					c0,0.503,0.05,0.979,0.149,1.43c0.1,0.451,0.254,0.848,0.462,1.189c0.208,0.343,0.475,0.615,0.799,0.819
					c0.325,0.203,0.708,0.306,1.151,0.306c0.806,0,1.438-0.306,1.897-0.917c0.459-0.611,0.689-1.554,0.689-2.827
					c0-0.494-0.05-0.969-0.149-1.424c-0.1-0.455-0.256-0.854-0.468-1.196c-0.212-0.342-0.481-0.615-0.806-0.818
					c-0.325-0.204-0.713-0.306-1.163-0.306c-0.798,0-1.424,0.306-1.879,0.916C201.25,242.79,201.022,243.732,201.022,245.007z"/>
				<path fill="#C03A2B" d="M209.421,245.007c0-1.517,0.32-2.681,0.962-3.49c0.641-0.811,1.556-1.216,2.743-1.216
					c0.641,0,1.195,0.112,1.664,0.338s0.856,0.544,1.164,0.955c0.308,0.412,0.535,0.906,0.683,1.482s0.221,1.22,0.221,1.931
					c0,1.517-0.323,2.68-0.968,3.49c-0.646,0.811-1.567,1.216-2.762,1.216c-0.633,0-1.182-0.113-1.645-0.338
					c-0.464-0.226-0.85-0.544-1.157-0.956c-0.308-0.411-0.535-0.905-0.683-1.481S209.421,245.718,209.421,245.007z M210.564,245.007
					c0,0.503,0.05,0.979,0.149,1.43c0.1,0.451,0.254,0.848,0.462,1.189c0.208,0.343,0.475,0.615,0.799,0.819
					c0.325,0.203,0.708,0.306,1.151,0.306c0.806,0,1.438-0.306,1.897-0.917c0.459-0.611,0.689-1.554,0.689-2.827
					c0-0.494-0.05-0.969-0.149-1.424c-0.1-0.455-0.256-0.854-0.468-1.196c-0.212-0.342-0.481-0.615-0.806-0.818
					c-0.325-0.204-0.713-0.306-1.163-0.306c-0.798,0-1.424,0.306-1.879,0.916C210.792,242.79,210.564,243.732,210.564,245.007z
					 M217.845,251.779c-0.208,0.061-0.412,0.103-0.611,0.124s-0.398,0.032-0.598,0.032c-0.434,0-0.856-0.045-1.268-0.137
					c-0.412-0.091-0.811-0.19-1.196-0.299s-0.756-0.208-1.111-0.299s-0.693-0.137-1.014-0.137c-0.208,0-0.408,0.026-0.598,0.078
					v-0.949c0.121-0.025,0.238-0.048,0.351-0.064c0.112-0.018,0.229-0.026,0.351-0.026c0.364,0,0.726,0.046,1.086,0.137
					c0.359,0.091,0.726,0.19,1.099,0.299c0.372,0.108,0.754,0.208,1.144,0.299c0.39,0.091,0.802,0.137,1.235,0.137
					c0.381,0,0.758-0.044,1.131-0.13V251.779z"/>
				<path fill="#C03A2B" d="M224.565,240.457h1.04v6.07c0,0.546-0.071,1.019-0.215,1.417c-0.143,0.399-0.347,0.727-0.611,0.981
					c-0.264,0.256-0.583,0.444-0.956,0.565c-0.373,0.122-0.784,0.183-1.235,0.183c-1.075,0-1.885-0.243-2.431-0.729
					s-0.819-1.222-0.819-2.21v-6.278h1.079v5.771c0,0.46,0.045,0.848,0.136,1.164c0.091,0.316,0.228,0.571,0.41,0.767
					s0.41,0.336,0.683,0.423c0.273,0.086,0.591,0.13,0.956,0.13c0.702,0,1.204-0.193,1.508-0.579
					c0.303-0.385,0.455-1.021,0.455-1.904V240.457z"/>
				<path fill="#C03A2B" d="M228.712,240.457h1.079v9.1h-1.079V240.457z"/>
				<path fill="#C03A2B" d="M238.774,241.419h-2.834v8.138h-1.079v-8.138h-2.834v-0.962h6.747V241.419z"/>
				<path fill="#C03A2B" d="M246.145,249.557h-5.382v-9.1h1.079v8.138h4.303V249.557z"/>
				<path fill="#C03A2B" d="M251.48,247.034h-3.337l-0.905,2.522h-1.079l3.445-9.243h0.494l3.458,9.243h-1.144L251.48,247.034z
					 M248.492,246.099h2.664l-1.009-2.769l-0.323-1.379h-0.013l-0.324,1.404L248.492,246.099z"/>
				<path fill="#C03A2B" d="M262.408,243.446l0.13-1.364h-0.065l-0.494,1.248l-2.366,4.107h-0.325l-2.509-4.121l-0.468-1.234h-0.065
					l0.182,1.352v6.123h-1.014v-9.1h0.806l2.848,4.653l0.429,1.015h0.026l0.403-1.04l2.717-4.628h0.845v9.1h-1.079V243.446z"/>
			</g>
			<g>
				<path fill="#2980BA" d="M229.076,73.908c0.165-0.026,0.349-0.046,0.552-0.059c0.204-0.014,0.416-0.021,0.637-0.026
					c0.221-0.004,0.438-0.009,0.65-0.013c0.212-0.005,0.41-0.007,0.592-0.007c0.728,0,1.358,0.113,1.892,0.338
					c0.533,0.226,0.973,0.54,1.319,0.942c0.347,0.403,0.604,0.887,0.773,1.45s0.253,1.183,0.253,1.858
					c0,0.615-0.08,1.207-0.241,1.774c-0.16,0.568-0.414,1.07-0.76,1.509c-0.347,0.438-0.797,0.788-1.352,1.053
					s-1.227,0.396-2.015,0.396c-0.139,0-0.319-0.002-0.54-0.007c-0.221-0.004-0.448-0.013-0.682-0.025
					c-0.234-0.014-0.451-0.024-0.65-0.033c-0.2-0.009-0.343-0.021-0.429-0.039V73.908z M231.533,74.766c-0.113,0-0.236,0-0.371,0
					s-0.267,0.005-0.396,0.014c-0.13,0.008-0.249,0.017-0.357,0.025s-0.193,0.018-0.253,0.026v7.279
					c0.043,0.009,0.125,0.016,0.247,0.02c0.122,0.005,0.247,0.009,0.377,0.014c0.13,0.004,0.255,0.009,0.377,0.013
					c0.121,0.005,0.204,0.007,0.247,0.007c0.607,0,1.116-0.104,1.528-0.312s0.741-0.487,0.988-0.838
					c0.247-0.352,0.423-0.754,0.527-1.209s0.156-0.926,0.156-1.411c0-0.424-0.048-0.852-0.143-1.28
					c-0.096-0.429-0.26-0.816-0.494-1.163c-0.234-0.347-0.548-0.631-0.942-0.852C232.627,74.876,232.131,74.766,231.533,74.766z"/>
				<path fill="#2980BA" d="M238.228,73.908h4.953v0.962h-3.874v2.977h3.549v0.962h-3.549v3.237h3.939v0.962h-5.018V73.908z"/>
				<path fill="#2980BA" d="M251.228,83.008h-5.382v-9.1h1.079v8.138h4.303V83.008z"/>
				<path fill="#2980BA" d="M257.507,74.87h-2.834v8.138h-1.079V74.87h-2.834v-0.962h6.747V74.87z"/>
				<path fill="#2980BA" d="M262.945,80.485h-3.337l-0.905,2.522h-1.079l3.445-9.243h0.494l3.458,9.243h-1.144L262.945,80.485z
					 M259.958,79.55h2.665l-1.009-2.769l-0.323-1.379h-0.013l-0.324,1.404L259.958,79.55z"/>
			</g>
			<g>
				<path fill="#D25627" d="M137.18,297.139h-5.382v-9.1h1.079v8.138h4.303V297.139z"/>
				<path fill="#D25627" d="M142.514,294.616h-3.337l-0.905,2.522h-1.079l3.445-9.243h0.494l3.458,9.243h-1.144L142.514,294.616z
					 M139.526,293.681h2.664l-1.009-2.769l-0.323-1.379h-0.013l-0.324,1.404L139.526,293.681z"/>
				<path fill="#D25627" d="M148.086,291.185l-0.702-1.312h-0.052l0.13,1.312v5.954h-1.014v-9.243h0.572l4.354,6.071l0.676,1.248
					h0.065l-0.143-1.248v-5.928h1.014v9.242h-0.572L148.086,291.185z"/>
				<path fill="#D25627" d="M158.915,292.602h3.055v4.004c-0.139,0.104-0.305,0.199-0.5,0.286s-0.403,0.16-0.624,0.221
					s-0.451,0.106-0.689,0.137c-0.239,0.03-0.47,0.046-0.696,0.046c-0.581,0-1.113-0.094-1.599-0.279
					c-0.485-0.187-0.906-0.473-1.261-0.858s-0.632-0.875-0.832-1.469c-0.2-0.594-0.299-1.294-0.299-2.1
					c0-0.841,0.122-1.561,0.364-2.158c0.243-0.598,0.559-1.086,0.949-1.463c0.39-0.377,0.828-0.651,1.313-0.825
					c0.485-0.173,0.97-0.26,1.456-0.26c0.52,0,0.949,0.028,1.287,0.084c0.338,0.057,0.624,0.133,0.858,0.228l-0.273,0.962
					c-0.416-0.208-1.009-0.312-1.781-0.312c-0.364,0-0.726,0.062-1.085,0.188s-0.683,0.336-0.969,0.631
					c-0.286,0.294-0.52,0.68-0.702,1.156c-0.182,0.478-0.273,1.066-0.273,1.769c0,0.642,0.073,1.196,0.22,1.664
					s0.352,0.855,0.616,1.163s0.581,0.538,0.953,0.689s0.778,0.228,1.218,0.228c0.553,0,1.024-0.108,1.413-0.325v-2.535l-2.119-0.26
					V292.602z"/>
				<path fill="#D25627" d="M169.835,297.139h-5.382v-9.1h1.079v8.138h4.303V297.139z"/>
				<path fill="#D25627" d="M171.824,288.039h4.953v0.962h-3.874v2.977h3.549v0.962h-3.549v3.237h3.939v0.962h-5.018V288.039z"/>
				<path fill="#D25627" d="M181.444,293.524l-3.003-5.485h1.261l2.132,3.978l0.226,0.793h0.013l0.238-0.819l2.046-3.951h1.144
					l-2.977,5.473v3.627h-1.079V293.524z"/>
				<path fill="#D25627" d="M192.988,299.999c-0.399-0.416-0.737-0.874-1.014-1.372c-0.278-0.498-0.5-1.01-0.669-1.534
					c-0.169-0.523-0.292-1.053-0.371-1.586c-0.078-0.532-0.117-1.042-0.117-1.527c0-0.477,0.039-0.979,0.117-1.508
					c0.078-0.528,0.204-1.06,0.377-1.593s0.401-1.055,0.683-1.566c0.282-0.511,0.626-0.988,1.034-1.43l0.624,0.455
					c-0.347,0.441-0.635,0.899-0.865,1.371c-0.23,0.473-0.414,0.951-0.552,1.437c-0.139,0.485-0.236,0.969-0.293,1.449
					c-0.056,0.481-0.084,0.943-0.084,1.385c0,0.416,0.032,0.869,0.097,1.358c0.065,0.49,0.169,0.979,0.312,1.47
					c0.143,0.489,0.329,0.968,0.559,1.437c0.229,0.468,0.504,0.892,0.826,1.273L192.988,299.999z"/>
				<path fill="#D25627" d="M201.308,289.001h-2.834v8.138h-1.079v-8.138h-2.834v-0.962h6.747V289.001z"/>
				<path fill="#D25627" d="M202.296,292.589c0-1.517,0.321-2.681,0.962-3.49c0.642-0.811,1.556-1.216,2.743-1.216
					c0.642,0,1.196,0.112,1.664,0.338s0.856,0.544,1.164,0.955c0.308,0.412,0.535,0.906,0.683,1.482
					c0.147,0.576,0.221,1.22,0.221,1.931c0,1.517-0.323,2.68-0.969,3.49s-1.566,1.216-2.763,1.216c-0.633,0-1.181-0.113-1.645-0.338
					c-0.464-0.226-0.85-0.544-1.157-0.956c-0.308-0.411-0.536-0.905-0.683-1.481C202.37,293.943,202.296,293.3,202.296,292.589z
					 M203.44,292.589c0,0.503,0.05,0.979,0.149,1.43c0.1,0.451,0.253,0.848,0.461,1.189c0.208,0.343,0.475,0.615,0.8,0.819
					c0.325,0.203,0.708,0.306,1.15,0.306c0.806,0,1.438-0.306,1.898-0.917c0.459-0.611,0.688-1.554,0.688-2.827
					c0-0.494-0.05-0.969-0.149-1.424s-0.256-0.854-0.468-1.196c-0.213-0.342-0.481-0.615-0.806-0.818
					c-0.325-0.204-0.713-0.306-1.164-0.306c-0.797,0-1.423,0.306-1.878,0.916C203.668,290.372,203.44,291.314,203.44,292.589z"/>
				<path fill="#D25627" d="M213.736,294.136l0.208,1.508h0.013l0.221-1.534l1.872-6.07h0.521l1.885,6.097l0.227,1.508h0.013
					l0.24-1.534l1.536-6.07h1.04l-2.535,9.242h-0.598l-1.846-6.097l-0.234-1.378h-0.064l-0.234,1.391l-1.846,6.084h-0.598
					l-2.6-9.242h1.144L213.736,294.136z"/>
				<path fill="#D25627" d="M225.007,291.185l-0.702-1.312h-0.052l0.13,1.312v5.954h-1.014v-9.243h0.572l4.355,6.071l0.676,1.248
					h0.065l-0.144-1.248v-5.928h1.015v9.242h-0.572L225.007,291.185z"/>
				<path fill="#D25627" d="M236.876,294.824c0-0.363-0.108-0.66-0.325-0.89s-0.487-0.434-0.812-0.611s-0.678-0.345-1.06-0.501
					c-0.381-0.155-0.734-0.344-1.06-0.565c-0.325-0.221-0.596-0.494-0.812-0.818c-0.217-0.325-0.325-0.739-0.325-1.242
					c0-0.71,0.247-1.273,0.741-1.689s1.196-0.624,2.106-0.624c0.528,0,1.009,0.039,1.442,0.117c0.434,0.078,0.771,0.178,1.015,0.299
					l-0.325,0.962c-0.199-0.099-0.492-0.192-0.878-0.282c-0.386-0.089-0.821-0.134-1.306-0.134c-0.572,0-1.001,0.128-1.287,0.384
					c-0.286,0.256-0.429,0.557-0.429,0.903c0,0.338,0.108,0.619,0.325,0.845s0.487,0.427,0.812,0.604s0.678,0.354,1.06,0.526
					c0.381,0.174,0.734,0.375,1.06,0.604c0.325,0.23,0.596,0.505,0.812,0.826c0.217,0.32,0.325,0.719,0.325,1.195
					c0,0.391-0.07,0.741-0.208,1.054c-0.139,0.312-0.343,0.58-0.611,0.806s-0.594,0.398-0.975,0.52
					c-0.382,0.122-0.815,0.183-1.3,0.183c-0.65,0-1.188-0.05-1.612-0.149c-0.425-0.1-0.754-0.21-0.988-0.332l0.364-0.962
					c0.199,0.109,0.494,0.218,0.884,0.323c0.39,0.105,0.828,0.158,1.313,0.158c0.286,0,0.555-0.028,0.806-0.085
					c0.251-0.056,0.468-0.147,0.65-0.272c0.182-0.126,0.327-0.284,0.436-0.475C236.821,295.311,236.876,295.085,236.876,294.824z"/>
				<path fill="#D25627" d="M245.768,292.966H241.4v4.173h-1.079v-9.1h1.079v3.965h4.368v-3.965h1.079v9.1h-1.079V292.966z"/>
				<path fill="#D25627" d="M249.954,288.039h1.079v9.1h-1.079V288.039z"/>
				<path fill="#D25627" d="M254.14,288.13c0.329-0.078,0.685-0.13,1.065-0.156c0.382-0.026,0.759-0.039,1.131-0.039
					c0.398,0,0.804,0.039,1.215,0.117s0.787,0.221,1.125,0.429c0.338,0.208,0.613,0.494,0.825,0.858
					c0.212,0.364,0.318,0.827,0.318,1.391c0,0.555-0.1,1.022-0.299,1.404s-0.464,0.691-0.793,0.93
					c-0.33,0.238-0.707,0.409-1.131,0.514c-0.425,0.104-0.863,0.155-1.313,0.155c-0.043,0-0.115,0-0.214,0s-0.204-0.002-0.312-0.006
					c-0.108-0.005-0.214-0.011-0.318-0.02s-0.178-0.018-0.221-0.026v3.458h-1.079V288.13z M256.362,288.871
					c-0.226,0-0.442,0.004-0.65,0.013s-0.373,0.03-0.494,0.064v3.771c0.043,0.018,0.112,0.028,0.208,0.032
					c0.095,0.005,0.194,0.009,0.299,0.014c0.104,0.004,0.203,0.006,0.299,0.006c0.095,0,0.165,0,0.208,0
					c0.294,0,0.587-0.028,0.877-0.084c0.291-0.057,0.552-0.158,0.787-0.306c0.234-0.147,0.422-0.355,0.565-0.624
					s0.215-0.611,0.215-1.027c0-0.355-0.067-0.651-0.202-0.891c-0.134-0.238-0.312-0.429-0.533-0.571
					c-0.221-0.144-0.47-0.245-0.748-0.306S256.64,288.871,256.362,288.871z"/>
				<path fill="#D25627" d="M261.641,287.883c0.398,0.416,0.736,0.873,1.014,1.371c0.277,0.499,0.501,1.01,0.67,1.534
					s0.292,1.053,0.37,1.586s0.117,1.042,0.117,1.527c0,0.477-0.039,0.979-0.117,1.509c-0.078,0.528-0.204,1.059-0.377,1.592
					s-0.401,1.056-0.683,1.566c-0.281,0.512-0.626,0.988-1.033,1.431l-0.624-0.455c0.347-0.442,0.637-0.901,0.871-1.378
					c0.234-0.478,0.418-0.958,0.552-1.443s0.229-0.966,0.286-1.443c0.056-0.477,0.084-0.936,0.084-1.378
					c0-0.416-0.035-0.866-0.104-1.352c-0.07-0.485-0.175-0.976-0.319-1.469c-0.143-0.494-0.327-0.976-0.552-1.443
					s-0.499-0.893-0.819-1.274L261.641,287.883z"/>
			</g>
			<g>
				<path fill="#E64C3C" d="M188.933,362.407l0.13-1.364h-0.065l-0.494,1.248l-2.366,4.107h-0.325l-2.509-4.121l-0.468-1.234h-0.065
					l0.182,1.352v6.123h-1.014v-9.1h0.806l2.848,4.653l0.429,1.015h0.026l0.403-1.04l2.717-4.628h0.845v9.1h-1.079V362.407z"/>
				<path fill="#E64C3C" d="M197.192,365.995h-3.338l-0.905,2.522h-1.079l3.445-9.243h0.494l3.458,9.243h-1.145L197.192,365.995z
					 M194.204,365.06h2.665l-1.009-2.769l-0.323-1.379h-0.013l-0.323,1.404L194.204,365.06z"/>
				<path fill="#E64C3C" d="M201.126,359.509c0.33-0.078,0.685-0.13,1.066-0.156c0.381-0.026,0.758-0.039,1.131-0.039
					c0.398,0,0.804,0.039,1.216,0.117c0.411,0.078,0.786,0.221,1.124,0.429s0.613,0.494,0.826,0.858s0.318,0.827,0.318,1.391
					c0,0.555-0.1,1.022-0.299,1.404c-0.2,0.382-0.464,0.691-0.793,0.93c-0.33,0.238-0.707,0.409-1.131,0.514
					c-0.425,0.104-0.862,0.155-1.312,0.155c-0.044,0-0.115,0-0.215,0s-0.204-0.002-0.312-0.006c-0.108-0.005-0.214-0.011-0.318-0.02
					s-0.178-0.018-0.221-0.026v3.458h-1.079V359.509z M203.349,360.25c-0.225,0-0.442,0.004-0.65,0.013s-0.373,0.03-0.494,0.064
					v3.771c0.043,0.018,0.113,0.028,0.208,0.032c0.096,0.005,0.195,0.009,0.299,0.014c0.104,0.004,0.204,0.006,0.299,0.006
					s0.165,0,0.208,0c0.294,0,0.587-0.028,0.877-0.084c0.29-0.057,0.553-0.158,0.787-0.306s0.422-0.355,0.565-0.624
					s0.214-0.611,0.214-1.027c0-0.355-0.067-0.651-0.201-0.891c-0.135-0.238-0.312-0.429-0.533-0.571
					c-0.221-0.144-0.47-0.245-0.748-0.306S203.626,360.25,203.349,360.25z"/>
				<path fill="#E64C3C" d="M214.425,368.518h-5.382v-9.1h1.079v8.138h4.303V368.518z"/>
				<path fill="#E64C3C" d="M216.414,359.418h4.953v0.962h-3.874v2.977h3.549v0.962h-3.549v3.237h3.939v0.962h-5.018V359.418z"/>
				<path fill="#E64C3C" d="M228.153,359.509c0.33-0.061,0.708-0.108,1.137-0.144c0.429-0.034,0.821-0.052,1.177-0.052
					c0.398,0,0.778,0.044,1.138,0.13c0.359,0.087,0.676,0.229,0.949,0.43c0.272,0.199,0.491,0.459,0.656,0.779
					c0.164,0.321,0.247,0.711,0.247,1.17c0,0.711-0.195,1.287-0.585,1.729c-0.39,0.441-0.884,0.736-1.482,0.884l0.624,0.481
					l2.262,3.601h-1.261l-2.509-3.926l-1.274-0.195v4.121h-1.079V359.509z M230.493,360.25c-0.113,0-0.23,0-0.352,0
					c-0.121,0-0.238,0.004-0.351,0.013c-0.113,0.009-0.219,0.018-0.318,0.026c-0.1,0.008-0.18,0.021-0.241,0.038v3.354h1.014
					c0.598,0,1.092-0.147,1.481-0.442c0.391-0.294,0.585-0.754,0.585-1.378c0-0.468-0.16-0.854-0.48-1.157
					C231.511,360.401,231.065,360.25,230.493,360.25z"/>
				<path fill="#E64C3C" d="M236.785,359.418h1.079v9.1h-1.079V359.418z"/>
				<path fill="#E64C3C" d="M240.971,359.418c0.164-0.026,0.349-0.046,0.552-0.059c0.204-0.014,0.416-0.021,0.637-0.026
					c0.221-0.004,0.438-0.009,0.65-0.013c0.212-0.005,0.41-0.007,0.591-0.007c0.728,0,1.358,0.113,1.892,0.338
					c0.533,0.226,0.973,0.54,1.319,0.942c0.347,0.403,0.604,0.887,0.773,1.45s0.254,1.183,0.254,1.858
					c0,0.615-0.08,1.207-0.241,1.774c-0.161,0.568-0.414,1.07-0.76,1.509c-0.347,0.438-0.798,0.788-1.353,1.053
					s-1.226,0.396-2.015,0.396c-0.139,0-0.318-0.002-0.54-0.007c-0.221-0.004-0.449-0.013-0.682-0.025
					c-0.234-0.014-0.451-0.024-0.65-0.033s-0.342-0.021-0.429-0.039V359.418z M243.428,360.275c-0.113,0-0.236,0-0.371,0
					c-0.134,0-0.266,0.005-0.396,0.014c-0.13,0.008-0.249,0.017-0.357,0.025s-0.192,0.018-0.253,0.026v7.279
					c0.043,0.009,0.125,0.016,0.247,0.02c0.122,0.005,0.247,0.009,0.377,0.014c0.13,0.004,0.255,0.009,0.377,0.013
					c0.121,0.005,0.203,0.007,0.247,0.007c0.607,0,1.116-0.104,1.528-0.312c0.411-0.208,0.741-0.487,0.988-0.838
					c0.247-0.352,0.422-0.754,0.527-1.209c0.104-0.455,0.155-0.926,0.155-1.411c0-0.424-0.047-0.852-0.143-1.28
					c-0.096-0.429-0.26-0.816-0.494-1.163c-0.234-0.347-0.548-0.631-0.942-0.852C244.521,360.386,244.025,360.275,243.428,360.275z"
					/>
				<path fill="#E64C3C" d="M253.19,363.98h3.055v4.004c-0.139,0.104-0.305,0.199-0.5,0.286s-0.403,0.16-0.624,0.221
					s-0.451,0.106-0.689,0.137c-0.239,0.03-0.47,0.046-0.696,0.046c-0.581,0-1.113-0.094-1.599-0.279
					c-0.485-0.187-0.906-0.473-1.261-0.858s-0.632-0.875-0.832-1.469c-0.2-0.594-0.299-1.294-0.299-2.1
					c0-0.841,0.122-1.561,0.364-2.158c0.243-0.598,0.559-1.086,0.949-1.463c0.39-0.377,0.828-0.651,1.313-0.825
					c0.485-0.173,0.97-0.26,1.456-0.26c0.52,0,0.949,0.028,1.287,0.084c0.338,0.057,0.624,0.133,0.858,0.228l-0.273,0.962
					c-0.416-0.208-1.009-0.312-1.781-0.312c-0.364,0-0.726,0.062-1.085,0.188s-0.683,0.336-0.969,0.631
					c-0.286,0.294-0.52,0.68-0.702,1.156c-0.182,0.478-0.273,1.066-0.273,1.769c0,0.642,0.073,1.196,0.22,1.664
					s0.352,0.855,0.616,1.163s0.581,0.538,0.953,0.689s0.778,0.228,1.218,0.228c0.553,0,1.024-0.108,1.413-0.325v-2.535l-2.119-0.26
					V363.98z"/>
				<path fill="#E64C3C" d="M258.729,359.418h4.953v0.962h-3.874v2.977h3.549v0.962h-3.549v3.237h3.939v0.962h-5.018V359.418z"/>
			</g>
			<g>
				<path fill="#E57E25" d="M145.37,172.224l-0.702-1.312h-0.052l0.13,1.312v5.954h-1.014v-9.243h0.572l4.354,6.071l0.676,1.248
					h0.065l-0.143-1.248v-5.928h1.014v9.242h-0.572L145.37,172.224z"/>
				<path fill="#E57E25" d="M153.131,169.078h4.953v0.962h-3.874v2.977h3.549v0.962h-3.549v3.237h3.939v0.962h-5.018V169.078z"/>
				<path fill="#E57E25" d="M162.53,175.175l0.208,1.508h0.013l0.221-1.534l1.872-6.07h0.52l1.885,6.097l0.227,1.508h0.013
					l0.24-1.534l1.536-6.07h1.04l-2.535,9.242h-0.598l-1.846-6.097l-0.234-1.378h-0.065l-0.234,1.391l-1.846,6.084h-0.598
					l-2.601-9.242h1.145L162.53,175.175z"/>
				<path fill="#E57E25" d="M177.493,175.175l0.208,1.508h0.013l0.221-1.534l1.872-6.07h0.52l1.885,6.097l0.227,1.508h0.013
					l0.24-1.534l1.536-6.07h1.04l-2.535,9.242h-0.598l-1.846-6.097l-0.234-1.378h-0.065l-0.234,1.391l-1.846,6.084h-0.598
					l-2.601-9.242h1.145L177.493,175.175z"/>
				<path fill="#E57E25" d="M187.126,169.078h4.953v0.962h-3.874v2.977h3.549v0.962h-3.549v3.237h3.939v0.962h-5.018V169.078z"/>
				<path fill="#E57E25" d="M198.852,175.863c0-0.363-0.108-0.66-0.325-0.89s-0.488-0.434-0.812-0.611s-0.678-0.345-1.059-0.501
					c-0.382-0.155-0.735-0.344-1.06-0.565c-0.325-0.221-0.596-0.494-0.812-0.818c-0.217-0.325-0.325-0.739-0.325-1.242
					c0-0.71,0.247-1.273,0.741-1.689c0.494-0.416,1.196-0.624,2.105-0.624c0.529,0,1.01,0.039,1.443,0.117
					c0.433,0.078,0.771,0.178,1.014,0.299l-0.325,0.962c-0.2-0.099-0.492-0.192-0.877-0.282c-0.386-0.089-0.821-0.134-1.307-0.134
					c-0.572,0-1.001,0.128-1.287,0.384s-0.429,0.557-0.429,0.903c0,0.338,0.108,0.619,0.325,0.845s0.488,0.427,0.812,0.604
					c0.325,0.178,0.678,0.354,1.06,0.526c0.381,0.174,0.735,0.375,1.06,0.604c0.325,0.23,0.596,0.505,0.812,0.826
					c0.216,0.32,0.325,0.719,0.325,1.195c0,0.391-0.069,0.741-0.208,1.054c-0.139,0.312-0.342,0.58-0.611,0.806
					s-0.594,0.398-0.975,0.52c-0.381,0.122-0.814,0.183-1.3,0.183c-0.65,0-1.188-0.05-1.612-0.149
					c-0.424-0.1-0.754-0.21-0.988-0.332l0.364-0.962c0.2,0.109,0.494,0.218,0.884,0.323s0.828,0.158,1.313,0.158
					c0.286,0,0.555-0.028,0.806-0.085c0.251-0.056,0.468-0.147,0.65-0.272c0.182-0.126,0.327-0.284,0.436-0.475
					S198.852,176.124,198.852,175.863z"/>
				<path fill="#E57E25" d="M208.173,170.04h-2.834v8.138h-1.079v-8.138h-2.834v-0.962h6.747V170.04z"/>
				<path fill="#E57E25" d="M217.156,172.067l0.13-1.364h-0.065l-0.494,1.248l-2.366,4.107h-0.325l-2.509-4.121l-0.468-1.234h-0.065
					l0.182,1.352v6.123h-1.014v-9.1h0.806l2.847,4.653l0.429,1.015h0.026l0.403-1.04l2.717-4.628h0.845v9.1h-1.079V172.067z"/>
				<path fill="#E57E25" d="M221.342,169.078h1.079v9.1h-1.079V169.078z"/>
				<path fill="#E57E25" d="M227.165,172.224l-0.702-1.312h-0.052l0.13,1.312v5.954h-1.014v-9.243h0.572l4.354,6.071l0.676,1.248
					h0.065l-0.143-1.248v-5.928h1.014v9.242h-0.572L227.165,172.224z"/>
				<path fill="#E57E25" d="M239.034,175.863c0-0.363-0.108-0.66-0.325-0.89c-0.216-0.229-0.487-0.434-0.812-0.611
					c-0.325-0.178-0.678-0.345-1.059-0.501c-0.381-0.155-0.735-0.344-1.06-0.565c-0.325-0.221-0.596-0.494-0.812-0.818
					c-0.217-0.325-0.325-0.739-0.325-1.242c0-0.71,0.247-1.273,0.741-1.689c0.494-0.416,1.196-0.624,2.106-0.624
					c0.528,0,1.01,0.039,1.443,0.117s0.771,0.178,1.014,0.299l-0.325,0.962c-0.199-0.099-0.492-0.192-0.877-0.282
					c-0.386-0.089-0.821-0.134-1.306-0.134c-0.572,0-1.001,0.128-1.287,0.384s-0.429,0.557-0.429,0.903
					c0,0.338,0.108,0.619,0.325,0.845c0.217,0.226,0.488,0.427,0.812,0.604c0.325,0.178,0.679,0.354,1.06,0.526
					c0.382,0.174,0.735,0.375,1.06,0.604c0.325,0.23,0.596,0.505,0.812,0.826c0.217,0.32,0.325,0.719,0.325,1.195
					c0,0.391-0.069,0.741-0.208,1.054c-0.139,0.312-0.343,0.58-0.611,0.806s-0.594,0.398-0.975,0.52
					c-0.382,0.122-0.814,0.183-1.3,0.183c-0.65,0-1.188-0.05-1.612-0.149s-0.754-0.21-0.988-0.332l0.364-0.962
					c0.199,0.109,0.494,0.218,0.884,0.323c0.391,0.105,0.828,0.158,1.313,0.158c0.286,0,0.555-0.028,0.806-0.085
					c0.251-0.056,0.468-0.147,0.65-0.272c0.182-0.126,0.327-0.284,0.436-0.475C238.98,176.35,239.034,176.124,239.034,175.863z"/>
				<path fill="#E57E25" d="M248.355,170.04h-2.834v8.138h-1.079v-8.138h-2.834v-0.962h6.747V170.04z"/>
				<path fill="#E57E25" d="M250.344,169.078h4.953v0.962h-3.874v2.977h3.549v0.962h-3.549v3.237h3.939v0.962h-5.019V169.078z"/>
				<path fill="#E57E25" d="M257.962,169.169c0.329-0.061,0.708-0.108,1.138-0.144c0.429-0.034,0.821-0.052,1.176-0.052
					c0.399,0,0.778,0.044,1.137,0.13c0.36,0.087,0.676,0.229,0.949,0.43c0.273,0.199,0.492,0.459,0.657,0.779
					c0.165,0.321,0.247,0.711,0.247,1.17c0,0.711-0.194,1.287-0.585,1.729c-0.39,0.441-0.884,0.736-1.481,0.884l0.624,0.481
					l2.262,3.601h-1.261l-2.509-3.926l-1.274-0.195v4.121h-1.079V169.169z M260.302,169.91c-0.112,0-0.229,0-0.351,0
					c-0.122,0-0.239,0.004-0.352,0.013c-0.112,0.009-0.219,0.018-0.318,0.026c-0.1,0.008-0.18,0.021-0.24,0.038v3.354h1.014
					c0.598,0,1.092-0.147,1.482-0.442c0.39-0.294,0.585-0.754,0.585-1.378c0-0.468-0.161-0.854-0.481-1.157
					C261.32,170.062,260.874,169.91,260.302,169.91z"/>
			</g>
			<g>
				<path fill="#14A085" d="M104.108,386.356l-0.702-1.312h-0.052l0.13,1.312v5.954h-1.014v-9.243h0.572l4.355,6.071l0.676,1.248
					h0.065l-0.143-1.248v-5.928h1.014v9.242h-0.572L104.108,386.356z"/>
				<path fill="#14A085" d="M111.492,387.761c0-1.517,0.32-2.681,0.962-3.49c0.642-0.811,1.556-1.216,2.743-1.216
					c0.641,0,1.196,0.112,1.664,0.338c0.468,0.226,0.855,0.544,1.163,0.955c0.308,0.412,0.535,0.906,0.683,1.482
					s0.221,1.22,0.221,1.931c0,1.517-0.323,2.68-0.968,3.49c-0.646,0.811-1.567,1.216-2.763,1.216c-0.633,0-1.181-0.113-1.645-0.338
					c-0.464-0.226-0.85-0.544-1.157-0.956c-0.308-0.411-0.535-0.905-0.683-1.481S111.492,388.472,111.492,387.761z M112.636,387.761
					c0,0.503,0.05,0.979,0.149,1.43c0.1,0.451,0.253,0.848,0.461,1.189c0.208,0.343,0.475,0.615,0.8,0.819
					c0.325,0.203,0.708,0.306,1.15,0.306c0.806,0,1.438-0.306,1.898-0.917s0.689-1.554,0.689-2.827c0-0.494-0.05-0.969-0.149-1.424
					s-0.256-0.854-0.468-1.196c-0.213-0.342-0.481-0.615-0.807-0.818c-0.325-0.204-0.713-0.306-1.163-0.306
					c-0.798,0-1.424,0.306-1.879,0.916C112.864,385.544,112.636,386.486,112.636,387.761z"/>
				<path fill="#14A085" d="M121.411,383.302c0.329-0.061,0.708-0.108,1.137-0.144c0.429-0.034,0.821-0.052,1.176-0.052
					c0.399,0,0.778,0.044,1.138,0.13c0.359,0.087,0.676,0.229,0.949,0.43c0.273,0.199,0.492,0.459,0.656,0.779
					c0.165,0.321,0.247,0.711,0.247,1.17c0,0.711-0.195,1.287-0.585,1.729c-0.39,0.441-0.884,0.736-1.482,0.884l0.624,0.481
					l2.262,3.601h-1.261l-2.509-3.926l-1.273-0.195v4.121h-1.079V383.302z M123.751,384.043c-0.113,0-0.229,0-0.351,0
					s-0.239,0.004-0.351,0.013s-0.219,0.018-0.318,0.026c-0.1,0.008-0.18,0.021-0.24,0.038v3.354h1.014
					c0.598,0,1.092-0.147,1.482-0.442c0.39-0.294,0.585-0.754,0.585-1.378c0-0.468-0.161-0.854-0.481-1.157
					C124.77,384.194,124.323,384.043,123.751,384.043z"/>
				<path fill="#14A085" d="M134.879,384.173h-2.834v8.138h-1.079v-8.138h-2.834v-0.962h6.747V384.173z"/>
				<path fill="#14A085" d="M142.315,388.138h-4.368v4.173h-1.079v-9.1h1.079v3.965h4.368v-3.965h1.079v9.1h-1.079V388.138z"/>
				<path fill="#14A085" d="M152.351,389.464l0.312,1.378h0.013l0.338-1.404l2.197-6.227h1.079l-3.445,9.242h-0.481l-3.51-9.242
					h1.183L152.351,389.464z"/>
				<path fill="#14A085" d="M161.754,389.788h-3.337l-0.905,2.522h-1.079l3.445-9.243h0.494l3.458,9.243h-1.144L161.754,389.788z
					 M158.767,388.853h2.664l-1.009-2.769l-0.323-1.379h-0.013l-0.324,1.404L158.767,388.853z"/>
				<path fill="#14A085" d="M167.326,386.356l-0.702-1.312h-0.052l0.13,1.312v5.954h-1.014v-9.243h0.572l4.354,6.071l0.676,1.248
					h0.065l-0.143-1.248v-5.928h1.014v9.242h-0.572L167.326,386.356z"/>
				<path fill="#14A085" d="M180.911,391.934c-0.26,0.199-0.589,0.338-0.988,0.416s-0.824,0.117-1.274,0.117
					c-0.546,0-1.058-0.094-1.534-0.279c-0.477-0.187-0.893-0.471-1.248-0.852c-0.355-0.382-0.637-0.869-0.845-1.463
					s-0.312-1.298-0.312-2.112c0-0.85,0.115-1.571,0.344-2.165c0.229-0.593,0.533-1.079,0.91-1.456s0.8-0.651,1.268-0.825
					c0.468-0.173,0.944-0.26,1.43-0.26c0.521,0,0.945,0.028,1.274,0.084c0.329,0.057,0.611,0.133,0.845,0.228l-0.26,0.962
					c-0.416-0.208-1.01-0.312-1.781-0.312c-0.355,0-0.706,0.065-1.053,0.195s-0.656,0.342-0.93,0.637
					c-0.273,0.295-0.492,0.681-0.656,1.157c-0.165,0.477-0.247,1.062-0.247,1.755c0,0.624,0.078,1.17,0.234,1.638
					s0.371,0.858,0.644,1.17c0.273,0.312,0.593,0.546,0.962,0.702s0.769,0.234,1.203,0.234c0.39,0,0.73-0.039,1.021-0.117
					c0.29-0.078,0.535-0.178,0.734-0.299L180.911,391.934z"/>
				<path fill="#14A085" d="M182.445,387.761c0-1.517,0.321-2.681,0.962-3.49c0.642-0.811,1.556-1.216,2.743-1.216
					c0.642,0,1.196,0.112,1.664,0.338s0.856,0.544,1.164,0.955c0.308,0.412,0.535,0.906,0.683,1.482
					c0.147,0.576,0.221,1.22,0.221,1.931c0,1.517-0.323,2.68-0.969,3.49s-1.566,1.216-2.763,1.216c-0.633,0-1.181-0.113-1.645-0.338
					c-0.464-0.226-0.85-0.544-1.157-0.956c-0.308-0.411-0.536-0.905-0.683-1.481C182.519,389.115,182.445,388.472,182.445,387.761z
					 M183.59,387.761c0,0.503,0.05,0.979,0.149,1.43c0.1,0.451,0.253,0.848,0.461,1.189c0.208,0.343,0.475,0.615,0.8,0.819
					c0.325,0.203,0.708,0.306,1.15,0.306c0.806,0,1.438-0.306,1.898-0.917c0.459-0.611,0.688-1.554,0.688-2.827
					c0-0.494-0.05-0.969-0.149-1.424s-0.256-0.854-0.468-1.196c-0.213-0.342-0.481-0.615-0.806-0.818
					c-0.325-0.204-0.713-0.306-1.164-0.306c-0.797,0-1.423,0.306-1.878,0.916C183.817,385.544,183.59,386.486,183.59,387.761z"/>
				<path fill="#14A085" d="M197.591,383.211h1.04v6.07c0,0.546-0.072,1.019-0.215,1.417c-0.143,0.399-0.347,0.727-0.611,0.981
					c-0.264,0.256-0.583,0.444-0.955,0.565c-0.373,0.122-0.785,0.183-1.235,0.183c-1.074,0-1.885-0.243-2.431-0.729
					s-0.819-1.222-0.819-2.21v-6.278h1.079v5.771c0,0.46,0.046,0.848,0.137,1.164s0.228,0.571,0.409,0.767
					c0.183,0.195,0.41,0.336,0.683,0.423c0.273,0.086,0.592,0.13,0.956,0.13c0.702,0,1.205-0.193,1.508-0.579
					c0.303-0.385,0.455-1.021,0.455-1.904V383.211z"/>
				<path fill="#14A085" d="M203.856,389.464l0.312,1.378h0.013l0.338-1.404l2.197-6.227h1.079l-3.445,9.242h-0.481l-3.51-9.242
					h1.183L203.856,389.464z"/>
				<path fill="#14A085" d="M209.524,383.211h4.953v0.962h-3.874v2.977h3.549v0.962h-3.549v3.237h3.939v0.962h-5.018V383.211z"/>
				<path fill="#14A085" d="M217.143,383.302c0.329-0.061,0.708-0.108,1.137-0.144c0.429-0.034,0.821-0.052,1.176-0.052
					c0.399,0,0.778,0.044,1.138,0.13c0.359,0.087,0.676,0.229,0.949,0.43c0.273,0.199,0.492,0.459,0.656,0.779
					c0.165,0.321,0.247,0.711,0.247,1.17c0,0.711-0.195,1.287-0.585,1.729c-0.39,0.441-0.884,0.736-1.482,0.884l0.624,0.481
					l2.262,3.601h-1.261l-2.509-3.926l-1.273-0.195v4.121h-1.079V383.302z M219.482,384.043c-0.113,0-0.229,0-0.351,0
					s-0.239,0.004-0.351,0.013s-0.219,0.018-0.318,0.026c-0.1,0.008-0.18,0.021-0.24,0.038v3.354h1.014
					c0.598,0,1.092-0.147,1.482-0.442c0.39-0.294,0.585-0.754,0.585-1.378c0-0.468-0.161-0.854-0.481-1.157
					C220.501,384.194,220.055,384.043,219.482,384.043z"/>
				<path fill="#14A085" d="M231.494,395.171c-0.399-0.416-0.737-0.874-1.014-1.372c-0.278-0.498-0.5-1.01-0.669-1.534
					c-0.169-0.523-0.292-1.053-0.371-1.586c-0.078-0.532-0.117-1.042-0.117-1.527c0-0.477,0.039-0.979,0.117-1.508
					c0.078-0.528,0.204-1.06,0.377-1.593s0.401-1.055,0.683-1.566c0.282-0.511,0.626-0.988,1.034-1.43l0.624,0.455
					c-0.347,0.441-0.635,0.899-0.865,1.371c-0.23,0.473-0.414,0.951-0.552,1.437c-0.139,0.485-0.236,0.969-0.293,1.449
					c-0.056,0.481-0.084,0.943-0.084,1.385c0,0.416,0.032,0.869,0.097,1.358c0.065,0.49,0.169,0.979,0.312,1.47
					c0.143,0.489,0.329,0.968,0.559,1.437c0.229,0.468,0.504,0.892,0.826,1.273L231.494,395.171z"/>
				<path fill="#14A085" d="M239.762,391.934c-0.26,0.199-0.589,0.338-0.988,0.416s-0.824,0.117-1.274,0.117
					c-0.546,0-1.058-0.094-1.534-0.279c-0.477-0.187-0.893-0.471-1.248-0.852c-0.355-0.382-0.637-0.869-0.845-1.463
					s-0.312-1.298-0.312-2.112c0-0.85,0.115-1.571,0.344-2.165c0.229-0.593,0.533-1.079,0.91-1.456s0.8-0.651,1.268-0.825
					c0.468-0.173,0.944-0.26,1.43-0.26c0.521,0,0.945,0.028,1.274,0.084c0.329,0.057,0.611,0.133,0.845,0.228l-0.26,0.962
					c-0.416-0.208-1.01-0.312-1.781-0.312c-0.355,0-0.706,0.065-1.053,0.195s-0.656,0.342-0.93,0.637
					c-0.273,0.295-0.492,0.681-0.656,1.157c-0.165,0.477-0.247,1.062-0.247,1.755c0,0.624,0.078,1.17,0.234,1.638
					s0.371,0.858,0.644,1.17c0.273,0.312,0.593,0.546,0.962,0.702s0.769,0.234,1.203,0.234c0.39,0,0.73-0.039,1.021-0.117
					c0.29-0.078,0.535-0.178,0.734-0.299L239.762,391.934z"/>
				<path fill="#14A085" d="M242.258,383.211h1.079v9.1h-1.079V383.211z"/>
				<path fill="#14A085" d="M252.32,384.173h-2.834v8.138h-1.079v-8.138h-2.834v-0.962h6.747V384.173z"/>
				<path fill="#14A085" d="M256.155,388.696l-3.003-5.485h1.261l2.132,3.978l0.225,0.793h0.013l0.238-0.819l2.045-3.951h1.144
					l-2.977,5.473v3.627h-1.079V388.696z"/>
				<path fill="#14A085" d="M261.641,383.055c0.399,0.416,0.737,0.873,1.014,1.371c0.277,0.499,0.5,1.01,0.669,1.534
					s0.293,1.053,0.371,1.586c0.078,0.533,0.117,1.042,0.117,1.527c0,0.477-0.039,0.979-0.117,1.509
					c-0.078,0.528-0.204,1.059-0.377,1.592s-0.401,1.056-0.682,1.566c-0.282,0.512-0.626,0.988-1.034,1.431l-0.624-0.455
					c0.347-0.442,0.638-0.901,0.871-1.378c0.234-0.478,0.418-0.958,0.553-1.443c0.134-0.485,0.229-0.966,0.286-1.443
					c0.056-0.477,0.084-0.936,0.084-1.378c0-0.416-0.035-0.866-0.104-1.352s-0.176-0.976-0.318-1.469
					c-0.144-0.494-0.327-0.976-0.553-1.443s-0.499-0.893-0.819-1.274L261.641,383.055z"/>
			</g>
			<g>
				<path fill="#26B99A" d="M74.482,267.392l-0.702-1.312h-0.052l0.13,1.312v5.954h-1.014v-9.243h0.572l4.355,6.071l0.676,1.248
					h0.064l-0.143-1.248v-5.928h1.014v9.242h-0.572L74.482,267.392z"/>
				<path fill="#26B99A" d="M81.866,268.796c0-1.517,0.32-2.681,0.962-3.49c0.641-0.811,1.556-1.216,2.743-1.216
					c0.641,0,1.195,0.112,1.664,0.338s0.856,0.544,1.164,0.955c0.308,0.412,0.535,0.906,0.683,1.482s0.221,1.22,0.221,1.931
					c0,1.517-0.323,2.68-0.968,3.49c-0.646,0.811-1.567,1.216-2.762,1.216c-0.633,0-1.182-0.113-1.645-0.338
					c-0.464-0.226-0.85-0.544-1.157-0.956c-0.308-0.411-0.535-0.905-0.683-1.481S81.866,269.507,81.866,268.796z M83.01,268.796
					c0,0.503,0.05,0.979,0.149,1.43c0.1,0.451,0.254,0.848,0.462,1.189c0.208,0.343,0.475,0.615,0.799,0.819
					c0.325,0.203,0.708,0.306,1.151,0.306c0.806,0,1.438-0.306,1.897-0.917c0.459-0.611,0.689-1.554,0.689-2.827
					c0-0.494-0.05-0.969-0.149-1.424c-0.1-0.455-0.256-0.854-0.468-1.196c-0.212-0.342-0.481-0.615-0.806-0.818
					c-0.325-0.204-0.713-0.306-1.163-0.306c-0.798,0-1.424,0.306-1.879,0.916C83.237,266.579,83.01,267.521,83.01,268.796z"/>
				<path fill="#26B99A" d="M91.785,264.337c0.33-0.061,0.708-0.108,1.137-0.144c0.429-0.034,0.821-0.052,1.177-0.052
					c0.398,0,0.778,0.044,1.138,0.13c0.359,0.087,0.676,0.229,0.949,0.43c0.272,0.199,0.491,0.459,0.656,0.779
					c0.164,0.321,0.247,0.711,0.247,1.17c0,0.711-0.195,1.287-0.585,1.729c-0.39,0.441-0.884,0.736-1.482,0.884l0.624,0.481
					l2.262,3.601h-1.261l-2.509-3.926l-1.274-0.195v4.121h-1.079V264.337z M94.125,265.078c-0.113,0-0.23,0-0.352,0
					c-0.121,0-0.238,0.004-0.351,0.013c-0.113,0.009-0.219,0.018-0.318,0.026c-0.1,0.008-0.18,0.021-0.241,0.038v3.354h1.014
					c0.598,0,1.092-0.147,1.481-0.442c0.391-0.294,0.585-0.754,0.585-1.378c0-0.468-0.16-0.854-0.48-1.157
					C95.143,265.229,94.697,265.078,94.125,265.078z"/>
				<path fill="#26B99A" d="M105.253,265.208h-2.834v8.138h-1.079v-8.138h-2.834v-0.962h6.747V265.208z"/>
				<path fill="#26B99A" d="M112.688,269.173h-4.368v4.173h-1.079v-9.1h1.079v3.965h4.368v-3.965h1.079v9.1h-1.079V269.173z"/>
				<path fill="#26B99A" d="M122.725,270.499l0.312,1.378h0.013l0.338-1.404l2.197-6.227h1.079l-3.445,9.242h-0.481l-3.51-9.242
					h1.183L122.725,270.499z"/>
				<path fill="#26B99A" d="M132.128,270.823h-3.337l-0.905,2.522h-1.079l3.445-9.243h0.494l3.458,9.243h-1.144L132.128,270.823z
					 M129.14,269.888h2.665l-1.009-2.769l-0.323-1.379h-0.013l-0.324,1.404L129.14,269.888z"/>
				<path fill="#26B99A" d="M137.7,267.392l-0.702-1.312h-0.052l0.13,1.312v5.954h-1.014v-9.243h0.572l4.355,6.071l0.676,1.248
					h0.065l-0.144-1.248v-5.928h1.015v9.242h-0.572L137.7,267.392z"/>
				<path fill="#26B99A" d="M151.285,272.969c-0.26,0.199-0.589,0.338-0.988,0.416c-0.398,0.078-0.823,0.117-1.273,0.117
					c-0.546,0-1.058-0.094-1.534-0.279c-0.477-0.187-0.893-0.471-1.248-0.852c-0.355-0.382-0.637-0.869-0.845-1.463
					s-0.312-1.298-0.312-2.112c0-0.85,0.115-1.571,0.345-2.165c0.229-0.593,0.533-1.079,0.91-1.456s0.799-0.651,1.268-0.825
					c0.468-0.173,0.944-0.26,1.43-0.26c0.52,0,0.944,0.028,1.274,0.084c0.329,0.057,0.61,0.133,0.845,0.228l-0.26,0.962
					c-0.416-0.208-1.01-0.312-1.781-0.312c-0.355,0-0.707,0.065-1.053,0.195c-0.347,0.13-0.657,0.342-0.93,0.637
					c-0.273,0.295-0.492,0.681-0.657,1.157s-0.247,1.062-0.247,1.755c0,0.624,0.078,1.17,0.233,1.638
					c0.156,0.468,0.371,0.858,0.644,1.17c0.273,0.312,0.594,0.546,0.962,0.702c0.369,0.156,0.77,0.234,1.203,0.234
					c0.39,0,0.729-0.039,1.021-0.117c0.29-0.078,0.535-0.178,0.734-0.299L151.285,272.969z"/>
				<path fill="#26B99A" d="M152.819,268.796c0-1.517,0.32-2.681,0.962-3.49c0.642-0.811,1.556-1.216,2.743-1.216
					c0.641,0,1.196,0.112,1.664,0.338c0.468,0.226,0.855,0.544,1.163,0.955c0.308,0.412,0.535,0.906,0.683,1.482
					s0.221,1.22,0.221,1.931c0,1.517-0.323,2.68-0.968,3.49c-0.646,0.811-1.567,1.216-2.763,1.216c-0.633,0-1.181-0.113-1.645-0.338
					c-0.464-0.226-0.85-0.544-1.157-0.956c-0.308-0.411-0.535-0.905-0.683-1.481S152.819,269.507,152.819,268.796z M153.963,268.796
					c0,0.503,0.05,0.979,0.149,1.43c0.1,0.451,0.253,0.848,0.461,1.189c0.208,0.343,0.475,0.615,0.8,0.819
					c0.325,0.203,0.708,0.306,1.15,0.306c0.806,0,1.438-0.306,1.898-0.917s0.689-1.554,0.689-2.827c0-0.494-0.05-0.969-0.149-1.424
					s-0.256-0.854-0.468-1.196c-0.213-0.342-0.481-0.615-0.807-0.818c-0.325-0.204-0.713-0.306-1.163-0.306
					c-0.798,0-1.424,0.306-1.879,0.916C154.191,266.579,153.963,267.521,153.963,268.796z"/>
				<path fill="#26B99A" d="M167.964,264.246h1.04v6.07c0,0.546-0.072,1.019-0.214,1.417c-0.144,0.399-0.347,0.727-0.611,0.981
					c-0.265,0.256-0.583,0.444-0.955,0.565c-0.373,0.122-0.785,0.183-1.235,0.183c-1.075,0-1.885-0.243-2.431-0.729
					c-0.546-0.485-0.819-1.222-0.819-2.21v-6.278h1.079v5.771c0,0.46,0.045,0.848,0.137,1.164c0.091,0.316,0.228,0.571,0.409,0.767
					c0.182,0.195,0.409,0.336,0.683,0.423c0.273,0.086,0.591,0.13,0.955,0.13c0.702,0,1.205-0.193,1.508-0.579
					c0.303-0.385,0.455-1.021,0.455-1.904V264.246z"/>
				<path fill="#26B99A" d="M174.23,270.499l0.312,1.378h0.013l0.338-1.404l2.197-6.227h1.079l-3.444,9.242h-0.481l-3.51-9.242
					h1.183L174.23,270.499z"/>
				<path fill="#26B99A" d="M179.898,264.246h4.953v0.962h-3.874v2.977h3.549v0.962h-3.549v3.237h3.938v0.962h-5.018V264.246z"/>
				<path fill="#26B99A" d="M187.516,264.337c0.33-0.061,0.708-0.108,1.137-0.144c0.429-0.034,0.821-0.052,1.177-0.052
					c0.398,0,0.778,0.044,1.138,0.13c0.359,0.087,0.676,0.229,0.949,0.43c0.272,0.199,0.491,0.459,0.656,0.779
					c0.164,0.321,0.247,0.711,0.247,1.17c0,0.711-0.195,1.287-0.585,1.729c-0.39,0.441-0.884,0.736-1.482,0.884l0.624,0.481
					l2.262,3.601h-1.261l-2.509-3.926l-1.274-0.195v4.121h-1.079V264.337z M189.856,265.078c-0.113,0-0.23,0-0.352,0
					c-0.121,0-0.238,0.004-0.351,0.013c-0.113,0.009-0.219,0.018-0.318,0.026c-0.1,0.008-0.18,0.021-0.241,0.038v3.354h1.014
					c0.598,0,1.092-0.147,1.481-0.442c0.391-0.294,0.585-0.754,0.585-1.378c0-0.468-0.16-0.854-0.48-1.157
					C190.875,265.229,190.428,265.078,189.856,265.078z"/>
				<path fill="#26B99A" d="M201.868,276.206c-0.399-0.416-0.737-0.874-1.014-1.372s-0.5-1.01-0.669-1.534
					c-0.169-0.523-0.293-1.053-0.371-1.586c-0.078-0.532-0.117-1.042-0.117-1.527c0-0.477,0.039-0.979,0.117-1.508
					c0.078-0.528,0.204-1.06,0.377-1.593c0.174-0.533,0.401-1.055,0.683-1.566c0.282-0.511,0.626-0.988,1.034-1.43l0.624,0.455
					c-0.347,0.441-0.635,0.899-0.865,1.371c-0.229,0.473-0.414,0.951-0.552,1.437c-0.139,0.485-0.236,0.969-0.292,1.449
					c-0.057,0.481-0.084,0.943-0.084,1.385c0,0.416,0.033,0.869,0.097,1.358c0.065,0.49,0.169,0.979,0.312,1.47
					c0.143,0.489,0.329,0.968,0.559,1.437c0.229,0.468,0.505,0.892,0.826,1.273L201.868,276.206z"/>
				<path fill="#26B99A" d="M204.312,264.246c0.165-0.026,0.349-0.046,0.553-0.059c0.204-0.014,0.416-0.021,0.637-0.026
					c0.221-0.004,0.438-0.009,0.65-0.013c0.212-0.005,0.409-0.007,0.591-0.007c0.728,0,1.359,0.113,1.892,0.338
					c0.533,0.226,0.973,0.54,1.32,0.942c0.346,0.403,0.604,0.887,0.773,1.45s0.253,1.183,0.253,1.858c0,0.615-0.08,1.207-0.24,1.774
					c-0.16,0.568-0.414,1.07-0.761,1.509c-0.347,0.438-0.797,0.788-1.352,1.053s-1.227,0.396-2.015,0.396
					c-0.139,0-0.319-0.002-0.54-0.007c-0.221-0.004-0.448-0.013-0.683-0.025c-0.234-0.014-0.451-0.024-0.65-0.033
					c-0.2-0.009-0.342-0.021-0.429-0.039V264.246z M206.769,265.104c-0.112,0-0.236,0-0.37,0c-0.135,0-0.267,0.005-0.396,0.014
					c-0.13,0.008-0.25,0.017-0.357,0.025c-0.108,0.009-0.193,0.018-0.254,0.026v7.279c0.043,0.009,0.126,0.016,0.247,0.02
					c0.121,0.005,0.247,0.009,0.377,0.014c0.13,0.004,0.256,0.009,0.377,0.013c0.121,0.005,0.204,0.007,0.247,0.007
					c0.606,0,1.116-0.104,1.527-0.312c0.412-0.208,0.741-0.487,0.988-0.838c0.247-0.352,0.423-0.754,0.526-1.209
					c0.104-0.455,0.156-0.926,0.156-1.411c0-0.424-0.048-0.852-0.143-1.28s-0.26-0.816-0.494-1.163s-0.548-0.631-0.942-0.852
					C207.863,265.214,207.367,265.104,206.769,265.104z"/>
				<path fill="#26B99A" d="M213.711,264.246h1.079v9.1h-1.079V264.246z"/>
				<path fill="#26B99A" d="M222.004,271.031c0-0.363-0.108-0.66-0.325-0.89c-0.217-0.229-0.488-0.434-0.812-0.611
					c-0.325-0.178-0.679-0.345-1.06-0.501c-0.382-0.155-0.734-0.344-1.06-0.565c-0.325-0.221-0.596-0.494-0.812-0.818
					c-0.217-0.325-0.325-0.739-0.325-1.242c0-0.71,0.247-1.273,0.741-1.689s1.196-0.624,2.106-0.624
					c0.529,0,1.009,0.039,1.443,0.117s0.771,0.178,1.014,0.299l-0.325,0.962c-0.2-0.099-0.492-0.192-0.878-0.282
					c-0.386-0.089-0.821-0.134-1.307-0.134c-0.572,0-1.001,0.128-1.287,0.384c-0.286,0.256-0.429,0.557-0.429,0.903
					c0,0.338,0.108,0.619,0.325,0.845c0.216,0.226,0.487,0.427,0.812,0.604s0.678,0.354,1.06,0.526
					c0.381,0.174,0.734,0.375,1.06,0.604c0.325,0.23,0.596,0.505,0.812,0.826c0.216,0.32,0.325,0.719,0.325,1.195
					c0,0.391-0.07,0.741-0.208,1.054c-0.139,0.312-0.342,0.58-0.611,0.806s-0.594,0.398-0.975,0.52
					c-0.381,0.122-0.815,0.183-1.3,0.183c-0.649,0-1.188-0.05-1.612-0.149s-0.754-0.21-0.988-0.332l0.364-0.962
					c0.2,0.109,0.494,0.218,0.884,0.323c0.39,0.105,0.827,0.158,1.312,0.158c0.286,0,0.555-0.028,0.807-0.085
					c0.251-0.056,0.468-0.147,0.649-0.272c0.183-0.126,0.327-0.284,0.436-0.475S222.004,271.292,222.004,271.031z"/>
				<path fill="#26B99A" d="M231.325,265.208h-2.834v8.138h-1.079v-8.138h-2.834v-0.962h6.747V265.208z"/>
				<path fill="#26B99A" d="M233.314,264.337c0.329-0.061,0.708-0.108,1.137-0.144c0.429-0.034,0.821-0.052,1.176-0.052
					c0.399,0,0.778,0.044,1.138,0.13c0.359,0.087,0.676,0.229,0.949,0.43c0.273,0.199,0.492,0.459,0.656,0.779
					c0.165,0.321,0.247,0.711,0.247,1.17c0,0.711-0.195,1.287-0.585,1.729c-0.39,0.441-0.884,0.736-1.482,0.884l0.624,0.481
					l2.262,3.601h-1.261l-2.509-3.926l-1.273-0.195v4.121h-1.079V264.337z M235.654,265.078c-0.113,0-0.229,0-0.351,0
					s-0.239,0.004-0.351,0.013s-0.219,0.018-0.318,0.026c-0.1,0.008-0.18,0.021-0.24,0.038v3.354h1.014
					c0.598,0,1.092-0.147,1.482-0.442c0.39-0.294,0.585-0.754,0.585-1.378c0-0.468-0.161-0.854-0.481-1.157
					C236.673,265.229,236.227,265.078,235.654,265.078z"/>
				<path fill="#26B99A" d="M241.946,264.246h1.079v9.1h-1.079V264.246z"/>
				<path fill="#26B99A" d="M251.956,272.969c-0.26,0.199-0.59,0.338-0.988,0.416s-0.823,0.117-1.274,0.117
					c-0.546,0-1.057-0.094-1.534-0.279c-0.477-0.187-0.893-0.471-1.248-0.852c-0.355-0.382-0.637-0.869-0.845-1.463
					s-0.312-1.298-0.312-2.112c0-0.85,0.115-1.571,0.345-2.165c0.229-0.593,0.533-1.079,0.91-1.456
					c0.377-0.377,0.799-0.651,1.268-0.825c0.468-0.173,0.945-0.26,1.43-0.26c0.52,0,0.944,0.028,1.274,0.084
					c0.329,0.057,0.611,0.133,0.845,0.228l-0.26,0.962c-0.416-0.208-1.01-0.312-1.781-0.312c-0.355,0-0.707,0.065-1.053,0.195
					c-0.347,0.13-0.657,0.342-0.93,0.637s-0.492,0.681-0.657,1.157c-0.164,0.477-0.247,1.062-0.247,1.755
					c0,0.624,0.078,1.17,0.234,1.638s0.371,0.858,0.644,1.17c0.273,0.312,0.594,0.546,0.962,0.702s0.769,0.234,1.203,0.234
					c0.39,0,0.73-0.039,1.021-0.117s0.535-0.178,0.734-0.299L251.956,272.969z"/>
				<path fill="#26B99A" d="M259.717,265.208h-2.834v8.138h-1.079v-8.138h-2.834v-0.962h6.747V265.208z"/>
				<path fill="#26B99A" d="M261.641,264.09c0.398,0.416,0.736,0.873,1.014,1.371c0.277,0.499,0.501,1.01,0.67,1.534
					s0.292,1.053,0.37,1.586c0.078,0.533,0.117,1.042,0.117,1.527c0,0.477-0.039,0.979-0.117,1.509
					c-0.078,0.528-0.203,1.059-0.377,1.592c-0.173,0.533-0.4,1.056-0.682,1.566c-0.282,0.512-0.626,0.988-1.034,1.431l-0.624-0.455
					c0.347-0.442,0.637-0.901,0.871-1.378c0.234-0.478,0.418-0.958,0.553-1.443c0.134-0.485,0.229-0.966,0.286-1.443
					c0.056-0.477,0.084-0.936,0.084-1.378c0-0.416-0.035-0.866-0.104-1.352c-0.07-0.485-0.176-0.976-0.319-1.469
					c-0.143-0.494-0.327-0.976-0.552-1.443c-0.226-0.468-0.499-0.893-0.819-1.274L261.641,264.09z"/>
			</g>
			<g>
				<g>
					<path fill="#3B97D3" d="M156.225,311.923c0.329-0.078,0.685-0.13,1.065-0.156c0.382-0.026,0.759-0.039,1.131-0.039
						c0.398,0,0.804,0.039,1.215,0.117s0.787,0.221,1.125,0.429c0.338,0.208,0.613,0.494,0.825,0.858
						c0.212,0.364,0.318,0.827,0.318,1.391c0,0.555-0.1,1.022-0.299,1.404s-0.464,0.691-0.793,0.93
						c-0.33,0.238-0.707,0.409-1.131,0.514c-0.425,0.104-0.863,0.155-1.313,0.155c-0.043,0-0.115,0-0.214,0
						s-0.204-0.002-0.312-0.006c-0.108-0.005-0.214-0.011-0.318-0.02s-0.178-0.018-0.221-0.026v3.458h-1.079V311.923z
						 M158.447,312.664c-0.226,0-0.442,0.004-0.65,0.013s-0.373,0.03-0.494,0.064v3.771c0.043,0.018,0.112,0.028,0.208,0.032
						c0.095,0.005,0.194,0.009,0.299,0.014c0.104,0.004,0.203,0.006,0.299,0.006c0.095,0,0.165,0,0.208,0
						c0.294,0,0.587-0.028,0.877-0.084c0.291-0.057,0.552-0.158,0.787-0.306c0.234-0.147,0.422-0.355,0.565-0.624
						s0.215-0.611,0.215-1.027c0-0.355-0.067-0.651-0.202-0.891c-0.134-0.238-0.312-0.429-0.533-0.571
						c-0.221-0.144-0.47-0.245-0.748-0.306S158.725,312.664,158.447,312.664z"/>
					<path fill="#3B97D3" d="M163.543,316.382c0-1.517,0.321-2.681,0.962-3.49c0.642-0.811,1.556-1.216,2.743-1.216
						c0.642,0,1.196,0.112,1.664,0.338s0.856,0.544,1.164,0.955c0.308,0.412,0.535,0.906,0.683,1.482
						c0.147,0.576,0.221,1.22,0.221,1.931c0,1.517-0.323,2.68-0.969,3.49s-1.566,1.216-2.763,1.216
						c-0.633,0-1.181-0.113-1.645-0.338c-0.464-0.226-0.85-0.544-1.157-0.956c-0.308-0.411-0.536-0.905-0.683-1.481
						C163.617,317.736,163.543,317.093,163.543,316.382z M164.688,316.382c0,0.503,0.05,0.979,0.149,1.43
						c0.1,0.451,0.253,0.848,0.461,1.189c0.208,0.343,0.475,0.615,0.8,0.819c0.325,0.203,0.708,0.306,1.15,0.306
						c0.806,0,1.438-0.306,1.898-0.917c0.459-0.611,0.688-1.554,0.688-2.827c0-0.494-0.05-0.969-0.149-1.424
						s-0.256-0.854-0.468-1.196c-0.213-0.342-0.481-0.615-0.806-0.818c-0.325-0.204-0.713-0.306-1.164-0.306
						c-0.797,0-1.423,0.306-1.878,0.916C164.915,314.165,164.688,315.107,164.688,316.382z"/>
					<path fill="#3B97D3" d="M173.462,311.923c0.33-0.061,0.709-0.108,1.138-0.144c0.429-0.034,0.821-0.052,1.177-0.052
						c0.398,0,0.777,0.044,1.137,0.13c0.36,0.087,0.676,0.229,0.949,0.43c0.273,0.199,0.492,0.459,0.657,0.779
						c0.164,0.321,0.247,0.711,0.247,1.17c0,0.711-0.195,1.287-0.585,1.729c-0.39,0.441-0.884,0.736-1.482,0.884l0.624,0.481
						l2.262,3.601h-1.261l-2.509-3.926l-1.274-0.195v4.121h-1.079V311.923z M175.802,312.664c-0.113,0-0.23,0-0.351,0
						c-0.122,0-0.238,0.004-0.351,0.013s-0.219,0.018-0.318,0.026c-0.1,0.008-0.18,0.021-0.241,0.038v3.354h1.014
						c0.598,0,1.092-0.147,1.482-0.442c0.39-0.294,0.585-0.754,0.585-1.378c0-0.468-0.16-0.854-0.481-1.157
						C176.82,312.815,176.374,312.664,175.802,312.664z"/>
					<path fill="#3B97D3" d="M186.93,312.794h-2.834v8.138h-1.079v-8.138h-2.834v-0.962h6.747V312.794z"/>
					<path fill="#3B97D3" d="M198.344,320.555c-0.26,0.199-0.589,0.338-0.988,0.416s-0.824,0.117-1.274,0.117
						c-0.546,0-1.058-0.094-1.534-0.279c-0.477-0.187-0.893-0.471-1.248-0.852c-0.355-0.382-0.637-0.869-0.845-1.463
						s-0.312-1.298-0.312-2.112c0-0.85,0.115-1.571,0.344-2.165c0.229-0.593,0.533-1.079,0.91-1.456s0.8-0.651,1.268-0.825
						c0.468-0.173,0.944-0.26,1.43-0.26c0.521,0,0.945,0.028,1.274,0.084c0.329,0.057,0.611,0.133,0.845,0.228l-0.26,0.962
						c-0.416-0.208-1.01-0.312-1.781-0.312c-0.355,0-0.706,0.065-1.053,0.195s-0.656,0.342-0.93,0.637
						c-0.273,0.295-0.492,0.681-0.656,1.157c-0.165,0.477-0.247,1.062-0.247,1.755c0,0.624,0.078,1.17,0.234,1.638
						s0.371,0.858,0.644,1.17c0.273,0.312,0.593,0.546,0.962,0.702s0.769,0.234,1.203,0.234c0.39,0,0.73-0.039,1.021-0.117
						c0.29-0.078,0.535-0.178,0.734-0.299L198.344,320.555z"/>
					<path fill="#3B97D3" d="M199.878,316.382c0-1.517,0.321-2.681,0.962-3.49c0.642-0.811,1.556-1.216,2.743-1.216
						c0.642,0,1.196,0.112,1.664,0.338s0.856,0.544,1.164,0.955c0.308,0.412,0.535,0.906,0.683,1.482
						c0.147,0.576,0.221,1.22,0.221,1.931c0,1.517-0.323,2.68-0.969,3.49s-1.566,1.216-2.763,1.216
						c-0.633,0-1.181-0.113-1.645-0.338c-0.464-0.226-0.85-0.544-1.157-0.956c-0.308-0.411-0.536-0.905-0.683-1.481
						C199.952,317.736,199.878,317.093,199.878,316.382z M201.022,316.382c0,0.503,0.05,0.979,0.149,1.43
						c0.1,0.451,0.253,0.848,0.461,1.189c0.208,0.343,0.475,0.615,0.8,0.819c0.325,0.203,0.708,0.306,1.15,0.306
						c0.806,0,1.438-0.306,1.898-0.917c0.459-0.611,0.688-1.554,0.688-2.827c0-0.494-0.05-0.969-0.149-1.424
						s-0.256-0.854-0.468-1.196c-0.213-0.342-0.481-0.615-0.806-0.818c-0.325-0.204-0.713-0.306-1.164-0.306
						c-0.797,0-1.423,0.306-1.878,0.916C201.25,314.165,201.022,315.107,201.022,316.382z"/>
					<path fill="#3B97D3" d="M209.42,316.382c0-1.517,0.321-2.681,0.962-3.49c0.642-0.811,1.556-1.216,2.743-1.216
						c0.642,0,1.196,0.112,1.664,0.338s0.856,0.544,1.164,0.955c0.308,0.412,0.535,0.906,0.683,1.482
						c0.147,0.576,0.221,1.22,0.221,1.931c0,1.517-0.323,2.68-0.969,3.49s-1.566,1.216-2.763,1.216
						c-0.633,0-1.181-0.113-1.645-0.338c-0.464-0.226-0.85-0.544-1.157-0.956c-0.308-0.411-0.536-0.905-0.683-1.481
						C209.494,317.736,209.42,317.093,209.42,316.382z M210.564,316.382c0,0.503,0.05,0.979,0.149,1.43
						c0.1,0.451,0.253,0.848,0.461,1.189c0.208,0.343,0.475,0.615,0.8,0.819c0.325,0.203,0.708,0.306,1.15,0.306
						c0.806,0,1.438-0.306,1.898-0.917c0.459-0.611,0.688-1.554,0.688-2.827c0-0.494-0.05-0.969-0.149-1.424
						s-0.256-0.854-0.468-1.196c-0.213-0.342-0.481-0.615-0.806-0.818c-0.325-0.204-0.713-0.306-1.164-0.306
						c-0.797,0-1.423,0.306-1.878,0.916C210.792,314.165,210.564,315.107,210.564,316.382z M217.844,323.154
						c-0.208,0.061-0.412,0.103-0.611,0.124c-0.2,0.021-0.399,0.032-0.598,0.032c-0.434,0-0.856-0.045-1.268-0.137
						c-0.412-0.091-0.811-0.19-1.196-0.299c-0.386-0.108-0.757-0.208-1.112-0.299c-0.355-0.091-0.693-0.137-1.014-0.137
						c-0.208,0-0.407,0.026-0.598,0.078v-0.949c0.121-0.025,0.238-0.048,0.351-0.064c0.113-0.018,0.229-0.026,0.352-0.026
						c0.364,0,0.726,0.046,1.085,0.137c0.36,0.091,0.726,0.19,1.099,0.299c0.373,0.108,0.754,0.208,1.144,0.299
						s0.802,0.137,1.235,0.137c0.382,0,0.759-0.044,1.131-0.13V323.154z"/>
					<path fill="#3B97D3" d="M224.565,311.832h1.04v6.07c0,0.546-0.072,1.019-0.215,1.417c-0.143,0.399-0.347,0.727-0.611,0.981
						c-0.264,0.256-0.583,0.444-0.955,0.565c-0.373,0.122-0.785,0.183-1.235,0.183c-1.074,0-1.885-0.243-2.431-0.729
						s-0.819-1.222-0.819-2.21v-6.278h1.079v5.771c0,0.46,0.046,0.848,0.137,1.164s0.228,0.571,0.409,0.767
						c0.183,0.195,0.41,0.336,0.683,0.423c0.273,0.086,0.592,0.13,0.956,0.13c0.702,0,1.205-0.193,1.508-0.579
						c0.303-0.385,0.455-1.021,0.455-1.904V311.832z"/>
					<path fill="#3B97D3" d="M228.712,311.832h1.079v9.1h-1.079V311.832z"/>
					<path fill="#3B97D3" d="M238.773,312.794h-2.834v8.138h-1.079v-8.138h-2.834v-0.962h6.747V312.794z"/>
					<path fill="#3B97D3" d="M246.145,320.932h-5.382v-9.1h1.079v8.138h4.303V320.932z"/>
					<path fill="#3B97D3" d="M251.479,318.409h-3.337l-0.905,2.522h-1.079l3.445-9.243h0.494l3.458,9.243h-1.144L251.479,318.409z
						 M248.491,317.474h2.665l-1.009-2.769l-0.323-1.379h-0.013l-0.323,1.404L248.491,317.474z"/>
					<path fill="#3B97D3" d="M262.408,314.821l0.13-1.364h-0.065l-0.494,1.248l-2.366,4.107h-0.325l-2.509-4.121l-0.468-1.234
						h-0.065l0.182,1.352v6.123h-1.014v-9.1h0.806l2.847,4.653l0.429,1.015h0.026l0.403-1.04l2.717-4.628h0.845v9.1h-1.079V314.821z
						"/>
				</g>
			</g>
			<g>
				<g>
					<path fill="#14A085" d="M183.836,145.376c0.329-0.078,0.685-0.13,1.066-0.156s0.758-0.039,1.131-0.039
						c0.398,0,0.804,0.039,1.215,0.117s0.787,0.221,1.125,0.429s0.613,0.494,0.825,0.858c0.212,0.364,0.318,0.827,0.318,1.391
						c0,0.555-0.1,1.022-0.299,1.404s-0.464,0.691-0.793,0.93s-0.706,0.409-1.131,0.514c-0.425,0.104-0.862,0.155-1.313,0.155
						c-0.043,0-0.115,0-0.214,0s-0.204-0.002-0.312-0.006c-0.108-0.005-0.214-0.011-0.318-0.02
						c-0.104-0.009-0.178-0.018-0.221-0.026v3.458h-1.079V145.376z M186.059,146.117c-0.225,0-0.441,0.004-0.649,0.013
						s-0.373,0.03-0.494,0.064v3.771c0.043,0.018,0.112,0.028,0.208,0.032c0.095,0.005,0.195,0.009,0.299,0.014
						c0.104,0.004,0.204,0.006,0.299,0.006c0.096,0,0.165,0,0.208,0c0.295,0,0.587-0.028,0.878-0.084
						c0.29-0.057,0.552-0.158,0.786-0.306c0.234-0.147,0.423-0.355,0.565-0.624c0.144-0.269,0.215-0.611,0.215-1.027
						c0-0.355-0.067-0.651-0.202-0.891c-0.134-0.238-0.312-0.429-0.533-0.571c-0.221-0.144-0.471-0.245-0.748-0.306
						S186.336,146.117,186.059,146.117z"/>
					<path fill="#14A085" d="M191.155,149.835c0-1.517,0.321-2.681,0.962-3.49c0.641-0.811,1.556-1.216,2.743-1.216
						c0.641,0,1.196,0.112,1.664,0.338c0.468,0.226,0.856,0.544,1.164,0.955c0.308,0.412,0.535,0.906,0.683,1.482
						c0.147,0.576,0.221,1.22,0.221,1.931c0,1.517-0.323,2.68-0.969,3.49s-1.566,1.216-2.762,1.216
						c-0.633,0-1.181-0.113-1.645-0.338c-0.464-0.226-0.85-0.544-1.157-0.956c-0.308-0.411-0.536-0.905-0.683-1.481
						C191.229,151.189,191.155,150.546,191.155,149.835z M192.299,149.835c0,0.503,0.05,0.979,0.149,1.43
						c0.1,0.451,0.253,0.848,0.461,1.189c0.208,0.343,0.475,0.615,0.799,0.819c0.325,0.203,0.709,0.306,1.151,0.306
						c0.806,0,1.438-0.306,1.898-0.917c0.459-0.611,0.689-1.554,0.689-2.827c0-0.494-0.05-0.969-0.149-1.424
						c-0.1-0.455-0.256-0.854-0.468-1.196c-0.212-0.342-0.481-0.615-0.806-0.818c-0.325-0.204-0.713-0.306-1.164-0.306
						c-0.797,0-1.423,0.306-1.878,0.916C192.526,147.618,192.299,148.561,192.299,149.835z"/>
					<path fill="#14A085" d="M201.074,145.376c0.33-0.061,0.708-0.108,1.137-0.144c0.429-0.034,0.821-0.052,1.177-0.052
						c0.398,0,0.778,0.044,1.138,0.13c0.359,0.087,0.676,0.229,0.949,0.43c0.272,0.199,0.491,0.459,0.656,0.779
						c0.164,0.321,0.247,0.711,0.247,1.17c0,0.711-0.195,1.287-0.585,1.729c-0.39,0.441-0.884,0.736-1.482,0.884l0.624,0.481
						l2.262,3.601h-1.261l-2.509-3.926l-1.274-0.195v4.121h-1.079V145.376z M203.414,146.117c-0.113,0-0.23,0-0.352,0
						c-0.121,0-0.238,0.004-0.351,0.013c-0.113,0.009-0.219,0.018-0.318,0.026c-0.1,0.008-0.18,0.021-0.241,0.038v3.354h1.014
						c0.598,0,1.092-0.147,1.481-0.442c0.391-0.294,0.585-0.754,0.585-1.378c0-0.468-0.16-0.854-0.48-1.157
						C204.432,146.269,203.986,146.117,203.414,146.117z"/>
					<path fill="#14A085" d="M214.542,146.247h-2.834v8.138h-1.079v-8.138h-2.834v-0.962h6.747V146.247z"/>
					<path fill="#14A085" d="M227.126,148.274l0.13-1.364h-0.065l-0.494,1.248l-2.366,4.107h-0.325l-2.509-4.121l-0.468-1.234
						h-0.064l0.182,1.352v6.123h-1.014v-9.1h0.806l2.847,4.653l0.429,1.015h0.025l0.403-1.04l2.717-4.628h0.845v9.1h-1.079V148.274z
						"/>
					<path fill="#14A085" d="M230.688,149.835c0-1.517,0.32-2.681,0.962-3.49c0.642-0.811,1.556-1.216,2.743-1.216
						c0.641,0,1.196,0.112,1.664,0.338c0.468,0.226,0.855,0.544,1.163,0.955c0.308,0.412,0.535,0.906,0.683,1.482
						s0.221,1.22,0.221,1.931c0,1.517-0.323,2.68-0.968,3.49c-0.646,0.811-1.567,1.216-2.763,1.216
						c-0.633,0-1.181-0.113-1.645-0.338c-0.464-0.226-0.85-0.544-1.157-0.956c-0.308-0.411-0.535-0.905-0.683-1.481
						S230.688,150.546,230.688,149.835z M231.832,149.835c0,0.503,0.05,0.979,0.149,1.43c0.1,0.451,0.253,0.848,0.461,1.189
						c0.208,0.343,0.475,0.615,0.8,0.819c0.325,0.203,0.708,0.306,1.15,0.306c0.806,0,1.438-0.306,1.898-0.917
						s0.689-1.554,0.689-2.827c0-0.494-0.05-0.969-0.149-1.424s-0.256-0.854-0.468-1.196c-0.213-0.342-0.481-0.615-0.807-0.818
						c-0.325-0.204-0.713-0.306-1.163-0.306c-0.798,0-1.424,0.306-1.879,0.916C232.059,147.618,231.832,148.561,231.832,149.835z"/>
					<path fill="#14A085" d="M240.229,149.835c0-1.517,0.32-2.681,0.962-3.49c0.641-0.811,1.556-1.216,2.743-1.216
						c0.641,0,1.195,0.112,1.664,0.338s0.856,0.544,1.164,0.955c0.308,0.412,0.535,0.906,0.683,1.482s0.221,1.22,0.221,1.931
						c0,1.517-0.323,2.68-0.968,3.49c-0.646,0.811-1.567,1.216-2.762,1.216c-0.633,0-1.182-0.113-1.645-0.338
						c-0.464-0.226-0.85-0.544-1.157-0.956c-0.308-0.411-0.535-0.905-0.683-1.481S240.229,150.546,240.229,149.835z
						 M241.373,149.835c0,0.503,0.05,0.979,0.149,1.43c0.1,0.451,0.254,0.848,0.462,1.189c0.208,0.343,0.475,0.615,0.799,0.819
						c0.325,0.203,0.708,0.306,1.151,0.306c0.806,0,1.438-0.306,1.897-0.917c0.459-0.611,0.689-1.554,0.689-2.827
						c0-0.494-0.05-0.969-0.149-1.424c-0.1-0.455-0.256-0.854-0.468-1.196c-0.212-0.342-0.481-0.615-0.806-0.818
						c-0.325-0.204-0.713-0.306-1.163-0.306c-0.798,0-1.424,0.306-1.879,0.916C241.601,147.618,241.373,148.561,241.373,149.835z"/>
					<path fill="#14A085" d="M250.148,145.285c0.164-0.026,0.349-0.046,0.552-0.059c0.204-0.014,0.416-0.021,0.637-0.026
						c0.221-0.004,0.438-0.009,0.65-0.013c0.212-0.005,0.41-0.007,0.591-0.007c0.728,0,1.358,0.113,1.892,0.338
						c0.533,0.226,0.973,0.54,1.319,0.942c0.347,0.403,0.604,0.887,0.773,1.45s0.254,1.183,0.254,1.858
						c0,0.615-0.08,1.207-0.241,1.774c-0.161,0.568-0.414,1.07-0.76,1.509c-0.347,0.438-0.798,0.788-1.353,1.053
						s-1.226,0.396-2.015,0.396c-0.139,0-0.318-0.002-0.54-0.007c-0.221-0.004-0.449-0.013-0.682-0.025
						c-0.234-0.014-0.451-0.024-0.65-0.033s-0.342-0.021-0.429-0.039V145.285z M252.605,146.143c-0.113,0-0.236,0-0.371,0
						c-0.134,0-0.266,0.005-0.396,0.014c-0.13,0.008-0.249,0.017-0.357,0.025s-0.192,0.018-0.253,0.026v7.279
						c0.043,0.009,0.125,0.016,0.247,0.02c0.122,0.005,0.247,0.009,0.377,0.014c0.13,0.004,0.255,0.009,0.377,0.013
						c0.121,0.005,0.203,0.007,0.247,0.007c0.607,0,1.116-0.104,1.528-0.312c0.411-0.208,0.741-0.487,0.988-0.838
						c0.247-0.352,0.422-0.754,0.527-1.209c0.104-0.455,0.155-0.926,0.155-1.411c0-0.424-0.047-0.852-0.143-1.28
						c-0.096-0.429-0.26-0.816-0.494-1.163c-0.234-0.347-0.548-0.631-0.942-0.852C253.699,146.253,253.203,146.143,252.605,146.143z
						"/>
					<path fill="#14A085" d="M260.77,150.771l-3.003-5.485h1.261l2.132,3.978l0.226,0.793h0.013l0.238-0.819l2.046-3.951h1.144
						l-2.977,5.473v3.627h-1.079V150.771z"/>
				</g>
			</g>
			<g>
				<g>
					<path fill="#894B9D" d="M197.045,97.792c0.329-0.061,0.708-0.108,1.137-0.144c0.429-0.034,0.821-0.052,1.176-0.052
						c0.399,0,0.778,0.044,1.138,0.13c0.359,0.087,0.676,0.229,0.949,0.43c0.273,0.199,0.492,0.459,0.656,0.779
						c0.165,0.321,0.247,0.711,0.247,1.17c0,0.711-0.195,1.287-0.585,1.729c-0.39,0.441-0.884,0.736-1.482,0.884l0.624,0.481
						l2.262,3.601h-1.261l-2.509-3.926l-1.273-0.195v4.121h-1.079V97.792z M199.385,98.533c-0.113,0-0.229,0-0.351,0
						s-0.239,0.004-0.351,0.013s-0.219,0.018-0.318,0.026c-0.1,0.008-0.18,0.021-0.24,0.038v3.354h1.014
						c0.598,0,1.092-0.147,1.482-0.442c0.39-0.294,0.585-0.754,0.585-1.378c0-0.468-0.161-0.854-0.481-1.157
						C200.403,98.685,199.957,98.533,199.385,98.533z"/>
					<path fill="#894B9D" d="M205.677,97.701h1.079v9.1h-1.079V97.701z"/>
					<path fill="#894B9D" d="M215.687,106.424c-0.26,0.199-0.59,0.338-0.988,0.416s-0.823,0.117-1.274,0.117
						c-0.546,0-1.057-0.094-1.534-0.279c-0.477-0.187-0.893-0.471-1.248-0.852c-0.355-0.382-0.637-0.869-0.845-1.463
						s-0.312-1.298-0.312-2.112c0-0.85,0.115-1.571,0.345-2.165c0.229-0.593,0.533-1.079,0.91-1.456
						c0.377-0.377,0.799-0.651,1.268-0.825c0.468-0.173,0.945-0.26,1.43-0.26c0.52,0,0.944,0.028,1.274,0.084
						c0.329,0.057,0.611,0.133,0.845,0.228l-0.26,0.962c-0.416-0.208-1.01-0.312-1.781-0.312c-0.355,0-0.707,0.065-1.053,0.195
						c-0.347,0.13-0.657,0.342-0.93,0.637s-0.492,0.681-0.657,1.157c-0.164,0.477-0.247,1.062-0.247,1.755
						c0,0.624,0.078,1.17,0.234,1.638s0.371,0.858,0.644,1.17c0.273,0.312,0.594,0.546,0.962,0.702s0.769,0.234,1.203,0.234
						c0.39,0,0.73-0.039,1.021-0.117s0.535-0.178,0.734-0.299L215.687,106.424z"/>
					<path fill="#894B9D" d="M223.382,102.628h-4.368v4.173h-1.079v-9.1h1.079v3.965h4.368v-3.965h1.079v9.1h-1.079V102.628z"/>
					<path fill="#894B9D" d="M234.315,100.69l0.13-1.364h-0.065l-0.494,1.248l-2.366,4.107h-0.325l-2.509-4.121l-0.468-1.234h-0.065
						l0.182,1.352v6.123h-1.014v-9.1h0.806l2.848,4.653l0.429,1.015h0.026l0.403-1.04l2.717-4.628h0.845v9.1h-1.079V100.69z"/>
					<path fill="#894B9D" d="M237.877,102.251c0-1.517,0.321-2.681,0.962-3.49c0.642-0.811,1.556-1.216,2.743-1.216
						c0.642,0,1.196,0.112,1.664,0.338s0.856,0.544,1.164,0.955c0.308,0.412,0.535,0.906,0.683,1.482
						c0.147,0.576,0.221,1.22,0.221,1.931c0,1.517-0.323,2.68-0.969,3.49s-1.566,1.216-2.763,1.216
						c-0.633,0-1.181-0.113-1.645-0.338c-0.464-0.226-0.85-0.544-1.157-0.956c-0.308-0.411-0.536-0.905-0.683-1.481
						C237.951,103.605,237.877,102.962,237.877,102.251z M239.021,102.251c0,0.503,0.05,0.979,0.149,1.43
						c0.1,0.451,0.253,0.848,0.461,1.189c0.208,0.343,0.475,0.615,0.8,0.819c0.325,0.203,0.708,0.306,1.15,0.306
						c0.806,0,1.438-0.306,1.898-0.917c0.459-0.611,0.688-1.554,0.688-2.827c0-0.494-0.05-0.969-0.149-1.424
						s-0.256-0.854-0.468-1.196c-0.213-0.342-0.481-0.615-0.806-0.818c-0.325-0.204-0.713-0.306-1.164-0.306
						c-0.797,0-1.423,0.306-1.878,0.916C239.249,100.034,239.021,100.977,239.021,102.251z"/>
					<path fill="#894B9D" d="M249.434,100.847l-0.702-1.312h-0.052l0.13,1.312v5.954h-1.014v-9.243h0.572l4.354,6.071l0.676,1.248
						h0.065l-0.143-1.248v-5.928h1.014v9.242h-0.572L249.434,100.847z"/>
					<path fill="#894B9D" d="M257.195,97.701c0.165-0.026,0.349-0.046,0.552-0.059c0.204-0.014,0.416-0.021,0.637-0.026
						c0.221-0.004,0.438-0.009,0.65-0.013c0.212-0.005,0.41-0.007,0.592-0.007c0.728,0,1.358,0.113,1.892,0.338
						c0.533,0.226,0.973,0.54,1.319,0.942c0.347,0.403,0.604,0.887,0.773,1.45s0.253,1.183,0.253,1.858
						c0,0.615-0.08,1.207-0.241,1.774c-0.16,0.568-0.414,1.07-0.76,1.509c-0.347,0.438-0.797,0.788-1.352,1.053
						s-1.227,0.396-2.015,0.396c-0.139,0-0.319-0.002-0.54-0.007c-0.221-0.004-0.448-0.013-0.682-0.025
						c-0.234-0.014-0.451-0.024-0.65-0.033c-0.2-0.009-0.343-0.021-0.429-0.039V97.701z M259.652,98.559c-0.113,0-0.236,0-0.371,0
						s-0.267,0.005-0.396,0.014c-0.13,0.008-0.249,0.017-0.357,0.025s-0.193,0.018-0.253,0.026v7.279
						c0.043,0.009,0.125,0.016,0.247,0.02c0.122,0.005,0.247,0.009,0.377,0.014c0.13,0.004,0.255,0.009,0.377,0.013
						c0.121,0.005,0.204,0.007,0.247,0.007c0.607,0,1.116-0.104,1.528-0.312s0.741-0.487,0.988-0.838
						c0.247-0.352,0.423-0.754,0.527-1.209s0.156-0.926,0.156-1.411c0-0.424-0.048-0.852-0.143-1.28
						c-0.096-0.429-0.26-0.816-0.494-1.163c-0.234-0.347-0.548-0.631-0.942-0.852C260.746,98.669,260.25,98.559,259.652,98.559z"/>
				</g>
			</g>
			<g>
				<g>
					<path fill="#2980BA" d="M221.809,199.656c0-0.363-0.108-0.66-0.325-0.89s-0.488-0.434-0.812-0.611s-0.678-0.345-1.059-0.501
						c-0.382-0.155-0.735-0.344-1.06-0.565c-0.325-0.221-0.596-0.494-0.812-0.818c-0.217-0.325-0.325-0.739-0.325-1.242
						c0-0.71,0.247-1.273,0.741-1.689c0.494-0.416,1.196-0.624,2.105-0.624c0.529,0,1.01,0.039,1.443,0.117
						c0.433,0.078,0.771,0.178,1.014,0.299l-0.325,0.962c-0.2-0.099-0.492-0.192-0.877-0.282c-0.386-0.089-0.821-0.134-1.307-0.134
						c-0.572,0-1.001,0.128-1.287,0.384s-0.429,0.557-0.429,0.903c0,0.338,0.108,0.619,0.325,0.845s0.488,0.427,0.812,0.604
						c0.325,0.178,0.678,0.354,1.06,0.526c0.381,0.174,0.735,0.375,1.06,0.604c0.325,0.23,0.596,0.505,0.812,0.826
						c0.216,0.32,0.325,0.719,0.325,1.195c0,0.391-0.069,0.741-0.208,1.054c-0.139,0.312-0.342,0.58-0.611,0.806
						s-0.594,0.398-0.975,0.52c-0.381,0.122-0.814,0.183-1.3,0.183c-0.65,0-1.188-0.05-1.612-0.149
						c-0.424-0.1-0.754-0.21-0.988-0.332l0.364-0.962c0.2,0.109,0.494,0.218,0.884,0.323s0.828,0.158,1.313,0.158
						c0.286,0,0.555-0.028,0.806-0.085c0.251-0.056,0.468-0.147,0.65-0.272c0.182-0.126,0.327-0.284,0.436-0.475
						S221.809,199.917,221.809,199.656z"/>
					<path fill="#2980BA" d="M230.48,192.871h1.04v6.07c0,0.546-0.072,1.019-0.214,1.417c-0.144,0.399-0.347,0.727-0.611,0.981
						c-0.265,0.256-0.583,0.444-0.955,0.565c-0.373,0.122-0.785,0.183-1.235,0.183c-1.075,0-1.885-0.243-2.431-0.729
						c-0.546-0.485-0.819-1.222-0.819-2.21v-6.278h1.079v5.771c0,0.46,0.045,0.848,0.137,1.164c0.091,0.316,0.228,0.571,0.409,0.767
						c0.182,0.195,0.409,0.336,0.683,0.423c0.273,0.086,0.591,0.13,0.955,0.13c0.702,0,1.205-0.193,1.508-0.579
						c0.303-0.385,0.455-1.021,0.455-1.904V192.871z"/>
					<path fill="#2980BA" d="M234.38,192.962c0.329-0.061,0.708-0.108,1.137-0.144c0.429-0.034,0.821-0.052,1.176-0.052
						c0.399,0,0.778,0.044,1.138,0.13c0.359,0.087,0.676,0.229,0.949,0.43c0.273,0.199,0.492,0.459,0.656,0.779
						c0.165,0.321,0.247,0.711,0.247,1.17c0,0.711-0.195,1.287-0.585,1.729c-0.39,0.441-0.884,0.736-1.482,0.884l0.624,0.481
						l2.262,3.601h-1.261l-2.509-3.926l-1.273-0.195v4.121h-1.079V192.962z M236.72,193.703c-0.113,0-0.229,0-0.351,0
						s-0.239,0.004-0.351,0.013s-0.219,0.018-0.318,0.026c-0.1,0.008-0.18,0.021-0.24,0.038v3.354h1.014
						c0.598,0,1.092-0.147,1.482-0.442c0.39-0.294,0.585-0.754,0.585-1.378c0-0.468-0.161-0.854-0.481-1.157
						C237.738,193.854,237.292,193.703,236.72,193.703z"/>
					<path fill="#2980BA" d="M242.765,192.962c0.329-0.061,0.708-0.108,1.138-0.144c0.429-0.034,0.821-0.052,1.176-0.052
						c0.399,0,0.778,0.044,1.137,0.13c0.36,0.087,0.676,0.229,0.949,0.43c0.273,0.199,0.492,0.459,0.657,0.779
						c0.165,0.321,0.247,0.711,0.247,1.17c0,0.711-0.194,1.287-0.585,1.729c-0.39,0.441-0.884,0.736-1.481,0.884l0.624,0.481
						l2.262,3.601h-1.261l-2.509-3.926l-1.274-0.195v4.121h-1.079V192.962z M245.104,193.703c-0.112,0-0.229,0-0.351,0
						c-0.122,0-0.239,0.004-0.352,0.013c-0.112,0.009-0.219,0.018-0.318,0.026c-0.1,0.008-0.18,0.021-0.24,0.038v3.354h1.014
						c0.598,0,1.092-0.147,1.482-0.442c0.39-0.294,0.585-0.754,0.585-1.378c0-0.468-0.161-0.854-0.481-1.157
						C246.123,193.854,245.677,193.703,245.104,193.703z"/>
					<path fill="#2980BA" d="M251.149,192.871h4.953v0.962h-3.874v2.977h3.549v0.962h-3.549v3.237h3.939v0.962h-5.018V192.871z"/>
					<path fill="#2980BA" d="M260.77,198.356l-3.003-5.485h1.261l2.132,3.978l0.226,0.793h0.013l0.238-0.819l2.046-3.951h1.144
						l-2.977,5.473v3.627h-1.079V198.356z"/>
				</g>
			</g>
			<g>
				<g>
					<path fill="#9778B5" d="M193.17,222.917l0.312,1.378h0.013l0.338-1.404l2.197-6.227h1.079l-3.445,9.242h-0.481l-3.51-9.242
						h1.183L193.17,222.917z"/>
					<path fill="#9778B5" d="M202.574,223.241h-3.337l-0.905,2.522h-1.079l3.445-9.243h0.494l3.458,9.243h-1.144L202.574,223.241z
						 M199.586,222.306h2.665l-1.009-2.769l-0.323-1.379h-0.013l-0.323,1.404L199.586,222.306z"/>
					<path fill="#9778B5" d="M208.146,219.81l-0.702-1.312h-0.052l0.13,1.312v5.954h-1.014v-9.243h0.572l4.355,6.071l0.676,1.248
						h0.065l-0.143-1.248v-5.928h1.014v9.242h-0.572L208.146,219.81z"/>
					<path fill="#9778B5" d="M221.731,225.387c-0.26,0.199-0.59,0.338-0.988,0.416s-0.823,0.117-1.274,0.117
						c-0.546,0-1.057-0.094-1.534-0.279c-0.477-0.187-0.893-0.471-1.248-0.852c-0.355-0.382-0.637-0.869-0.845-1.463
						s-0.312-1.298-0.312-2.112c0-0.85,0.115-1.571,0.345-2.165c0.229-0.593,0.533-1.079,0.91-1.456
						c0.377-0.377,0.799-0.651,1.268-0.825c0.468-0.173,0.945-0.26,1.43-0.26c0.52,0,0.944,0.028,1.274,0.084
						c0.329,0.057,0.611,0.133,0.845,0.228l-0.26,0.962c-0.416-0.208-1.01-0.312-1.781-0.312c-0.355,0-0.707,0.065-1.053,0.195
						c-0.347,0.13-0.657,0.342-0.93,0.637s-0.492,0.681-0.657,1.157c-0.164,0.477-0.247,1.062-0.247,1.755
						c0,0.624,0.078,1.17,0.234,1.638s0.371,0.858,0.644,1.17c0.273,0.312,0.594,0.546,0.962,0.702s0.769,0.234,1.203,0.234
						c0.39,0,0.73-0.039,1.021-0.117s0.535-0.178,0.734-0.299L221.731,225.387z"/>
					<path fill="#9778B5" d="M223.266,221.214c0-1.517,0.32-2.681,0.962-3.49c0.641-0.811,1.556-1.216,2.743-1.216
						c0.641,0,1.195,0.112,1.664,0.338s0.856,0.544,1.164,0.955c0.308,0.412,0.535,0.906,0.683,1.482s0.221,1.22,0.221,1.931
						c0,1.517-0.323,2.68-0.968,3.49c-0.646,0.811-1.567,1.216-2.762,1.216c-0.633,0-1.182-0.113-1.645-0.338
						c-0.464-0.226-0.85-0.544-1.157-0.956c-0.308-0.411-0.535-0.905-0.683-1.481S223.266,221.925,223.266,221.214z
						 M224.409,221.214c0,0.503,0.05,0.979,0.149,1.43c0.1,0.451,0.254,0.848,0.462,1.189c0.208,0.343,0.475,0.615,0.799,0.819
						c0.325,0.203,0.708,0.306,1.151,0.306c0.806,0,1.438-0.306,1.897-0.917c0.459-0.611,0.689-1.554,0.689-2.827
						c0-0.494-0.05-0.969-0.149-1.424c-0.1-0.455-0.256-0.854-0.468-1.196c-0.212-0.342-0.481-0.615-0.806-0.818
						c-0.325-0.204-0.713-0.306-1.163-0.306c-0.798,0-1.424,0.306-1.879,0.916C224.637,218.997,224.409,219.939,224.409,221.214z"/>
					<path fill="#9778B5" d="M238.41,216.664h1.04v6.07c0,0.546-0.071,1.019-0.215,1.417c-0.143,0.399-0.347,0.727-0.611,0.981
						c-0.264,0.256-0.583,0.444-0.956,0.565c-0.373,0.122-0.784,0.183-1.235,0.183c-1.075,0-1.885-0.243-2.431-0.729
						s-0.819-1.222-0.819-2.21v-6.278h1.079v5.771c0,0.46,0.045,0.848,0.136,1.164c0.091,0.316,0.228,0.571,0.41,0.767
						s0.41,0.336,0.683,0.423c0.273,0.086,0.591,0.13,0.956,0.13c0.702,0,1.204-0.193,1.508-0.579
						c0.303-0.385,0.455-1.021,0.455-1.904V216.664z"/>
					<path fill="#9778B5" d="M244.676,222.917l0.312,1.378h0.013l0.338-1.404l2.197-6.227h1.079l-3.445,9.242h-0.481l-3.51-9.242
						h1.183L244.676,222.917z"/>
					<path fill="#9778B5" d="M250.344,216.664h4.953v0.962h-3.874v2.977h3.549v0.962h-3.549v3.237h3.939v0.962h-5.019V216.664z"/>
					<path fill="#9778B5" d="M257.962,216.755c0.329-0.061,0.708-0.108,1.138-0.144c0.429-0.034,0.821-0.052,1.176-0.052
						c0.399,0,0.778,0.044,1.137,0.13c0.36,0.087,0.676,0.229,0.949,0.43c0.273,0.199,0.492,0.459,0.657,0.779
						c0.165,0.321,0.247,0.711,0.247,1.17c0,0.711-0.194,1.287-0.585,1.729c-0.39,0.441-0.884,0.736-1.481,0.884l0.624,0.481
						l2.262,3.601h-1.261l-2.509-3.926l-1.274-0.195v4.121h-1.079V216.755z M260.302,217.496c-0.112,0-0.229,0-0.351,0
						c-0.122,0-0.239,0.004-0.352,0.013c-0.112,0.009-0.219,0.018-0.318,0.026c-0.1,0.008-0.18,0.021-0.24,0.038v3.354h1.014
						c0.598,0,1.092-0.147,1.482-0.442c0.39-0.294,0.585-0.754,0.585-1.378c0-0.468-0.161-0.854-0.481-1.157
						C261.32,217.647,260.874,217.496,260.302,217.496z"/>
				</g>
			</g>
			<g>
				<g>
					<path fill="#894B9D" d="M189.673,341.722l0.208,1.508h0.013l0.221-1.534l1.872-6.07h0.52l1.885,6.097l0.226,1.508h0.013
						l0.239-1.534l1.536-6.07h1.04l-2.535,9.242h-0.598l-1.846-6.097l-0.234-1.378h-0.065l-0.234,1.391l-1.846,6.084h-0.598
						l-2.6-9.242h1.144L189.673,341.722z"/>
					<path fill="#894B9D" d="M204.753,340.552h-4.368v4.173h-1.079v-9.1h1.079v3.965h4.368v-3.965h1.079v9.1h-1.079V340.552z"/>
					<path fill="#894B9D" d="M208.939,335.625h1.079v9.1h-1.079V335.625z"/>
					<path fill="#894B9D" d="M219.001,336.587h-2.834v8.138h-1.079v-8.138h-2.834v-0.962h6.747V336.587z"/>
					<path fill="#894B9D" d="M220.99,335.625h4.953v0.962h-3.874v2.977h3.549v0.962h-3.549v3.237h3.939v0.962h-5.018V335.625z"/>
					<path fill="#894B9D" d="M232.729,335.716c0.33-0.061,0.709-0.108,1.138-0.144c0.429-0.034,0.821-0.052,1.177-0.052
						c0.398,0,0.777,0.044,1.137,0.13c0.36,0.087,0.676,0.229,0.949,0.43c0.273,0.199,0.492,0.459,0.657,0.779
						c0.164,0.321,0.247,0.711,0.247,1.17c0,0.711-0.195,1.287-0.585,1.729c-0.39,0.441-0.884,0.736-1.482,0.884l0.624,0.481
						l2.262,3.601h-1.261l-2.509-3.926l-1.274-0.195v4.121h-1.079V335.716z M235.069,336.457c-0.113,0-0.23,0-0.351,0
						c-0.122,0-0.238,0.004-0.351,0.013s-0.219,0.018-0.318,0.026c-0.1,0.008-0.18,0.021-0.241,0.038v3.354h1.014
						c0.598,0,1.092-0.147,1.482-0.442c0.39-0.294,0.585-0.754,0.585-1.378c0-0.468-0.16-0.854-0.481-1.157
						C236.087,336.608,235.641,336.457,235.069,336.457z"/>
					<path fill="#894B9D" d="M240.165,340.175c0-1.517,0.32-2.681,0.962-3.49c0.641-0.811,1.556-1.216,2.743-1.216
						c0.641,0,1.195,0.112,1.664,0.338s0.856,0.544,1.164,0.955c0.308,0.412,0.535,0.906,0.683,1.482s0.221,1.22,0.221,1.931
						c0,1.517-0.323,2.68-0.968,3.49c-0.646,0.811-1.567,1.216-2.762,1.216c-0.633,0-1.182-0.113-1.645-0.338
						c-0.464-0.226-0.85-0.544-1.157-0.956c-0.308-0.411-0.535-0.905-0.683-1.481S240.165,340.886,240.165,340.175z
						 M241.309,340.175c0,0.503,0.05,0.979,0.149,1.43c0.1,0.451,0.254,0.848,0.462,1.189c0.208,0.343,0.475,0.615,0.799,0.819
						c0.325,0.203,0.708,0.306,1.151,0.306c0.806,0,1.438-0.306,1.897-0.917c0.459-0.611,0.689-1.554,0.689-2.827
						c0-0.494-0.05-0.969-0.149-1.424c-0.1-0.455-0.256-0.854-0.468-1.196c-0.212-0.342-0.481-0.615-0.806-0.818
						c-0.325-0.204-0.713-0.306-1.163-0.306c-0.798,0-1.424,0.306-1.879,0.916C241.536,337.958,241.309,338.9,241.309,340.175z"/>
					<path fill="#894B9D" d="M255.907,344.348c-0.26,0.199-0.589,0.338-0.988,0.416s-0.824,0.117-1.274,0.117
						c-0.546,0-1.058-0.094-1.534-0.279c-0.477-0.187-0.893-0.471-1.248-0.852c-0.355-0.382-0.637-0.869-0.845-1.463
						s-0.312-1.298-0.312-2.112c0-0.85,0.115-1.571,0.344-2.165c0.229-0.593,0.533-1.079,0.91-1.456s0.8-0.651,1.268-0.825
						c0.468-0.173,0.944-0.26,1.43-0.26c0.521,0,0.945,0.028,1.274,0.084c0.329,0.057,0.611,0.133,0.845,0.228l-0.26,0.962
						c-0.416-0.208-1.01-0.312-1.781-0.312c-0.355,0-0.706,0.065-1.053,0.195s-0.656,0.342-0.93,0.637
						c-0.273,0.295-0.492,0.681-0.656,1.157c-0.165,0.477-0.247,1.062-0.247,1.755c0,0.624,0.078,1.17,0.234,1.638
						s0.371,0.858,0.644,1.17c0.273,0.312,0.593,0.546,0.962,0.702s0.769,0.234,1.203,0.234c0.39,0,0.73-0.039,1.021-0.117
						c0.29-0.078,0.535-0.178,0.734-0.299L255.907,344.348z"/>
					<path fill="#894B9D" d="M259.847,340.513h-0.611v4.212h-1.079v-9.1h1.079v4.237l0.585-0.182l3.055-4.056h1.248l-3.042,3.913
						l-0.546,0.429l0.663,0.52l3.328,4.238h-1.365L259.847,340.513z"/>
				</g>
			</g>
			<g>
				<g>
					<path fill="#E57E25" d="M148.944,407.002h4.953v0.962h-3.874v2.977h3.549v0.962h-3.549v3.237h3.939v0.962h-5.018V407.002z"/>
					<path fill="#E57E25" d="M161.944,416.102h-5.382v-9.1h1.079v8.138h4.303V416.102z"/>
					<path fill="#E57E25" d="M163.934,407.002h4.953v0.962h-3.874v2.977h3.549v0.962h-3.549v3.237h3.938v0.962h-5.018V407.002z"/>
					<path fill="#E57E25" d="M177.375,415.725c-0.26,0.199-0.589,0.338-0.988,0.416s-0.824,0.117-1.274,0.117
						c-0.546,0-1.058-0.094-1.534-0.279c-0.477-0.187-0.893-0.471-1.248-0.852c-0.355-0.382-0.637-0.869-0.845-1.463
						s-0.312-1.298-0.312-2.112c0-0.85,0.115-1.571,0.344-2.165c0.229-0.593,0.533-1.079,0.91-1.456s0.8-0.651,1.268-0.825
						c0.468-0.173,0.944-0.26,1.43-0.26c0.521,0,0.945,0.028,1.274,0.084c0.329,0.057,0.611,0.133,0.845,0.228l-0.26,0.962
						c-0.416-0.208-1.01-0.312-1.781-0.312c-0.355,0-0.706,0.065-1.053,0.195s-0.656,0.342-0.93,0.637
						c-0.273,0.295-0.492,0.681-0.656,1.157c-0.165,0.477-0.247,1.062-0.247,1.755c0,0.624,0.078,1.17,0.234,1.638
						s0.371,0.858,0.644,1.17c0.273,0.312,0.593,0.546,0.962,0.702s0.769,0.234,1.203,0.234c0.39,0,0.73-0.039,1.021-0.117
						c0.29-0.078,0.535-0.178,0.734-0.299L177.375,415.725z"/>
					<path fill="#E57E25" d="M185.136,407.964h-2.834v8.138h-1.079v-8.138h-2.834v-0.962h6.747V407.964z"/>
					<path fill="#E57E25" d="M187.125,407.093c0.329-0.061,0.708-0.108,1.138-0.144c0.429-0.034,0.821-0.052,1.176-0.052
						c0.399,0,0.778,0.044,1.137,0.13c0.36,0.087,0.676,0.229,0.949,0.43c0.273,0.199,0.492,0.459,0.657,0.779
						c0.165,0.321,0.247,0.711,0.247,1.17c0,0.711-0.194,1.287-0.585,1.729c-0.39,0.441-0.884,0.736-1.481,0.884l0.624,0.481
						l2.262,3.601h-1.261l-2.509-3.926l-1.274-0.195v4.121h-1.079V407.093z M189.465,407.834c-0.112,0-0.229,0-0.351,0
						c-0.122,0-0.239,0.004-0.352,0.013c-0.112,0.009-0.219,0.018-0.318,0.026c-0.1,0.008-0.18,0.021-0.24,0.038v3.354h1.014
						c0.598,0,1.092-0.147,1.482-0.442c0.39-0.294,0.585-0.754,0.585-1.378c0-0.468-0.161-0.854-0.481-1.157
						C190.483,407.985,190.037,407.834,189.465,407.834z"/>
					<path fill="#E57E25" d="M194.561,411.552c0-1.517,0.321-2.681,0.962-3.49c0.641-0.811,1.556-1.216,2.743-1.216
						c0.641,0,1.196,0.112,1.664,0.338c0.468,0.226,0.856,0.544,1.164,0.955c0.308,0.412,0.535,0.906,0.683,1.482
						c0.147,0.576,0.221,1.22,0.221,1.931c0,1.517-0.323,2.68-0.969,3.49s-1.566,1.216-2.762,1.216
						c-0.633,0-1.181-0.113-1.645-0.338c-0.464-0.226-0.85-0.544-1.157-0.956c-0.308-0.411-0.536-0.905-0.683-1.481
						C194.635,412.906,194.561,412.263,194.561,411.552z M195.705,411.552c0,0.503,0.05,0.979,0.149,1.43
						c0.1,0.451,0.253,0.848,0.461,1.189c0.208,0.343,0.475,0.615,0.799,0.819c0.325,0.203,0.709,0.306,1.151,0.306
						c0.806,0,1.438-0.306,1.898-0.917c0.459-0.611,0.689-1.554,0.689-2.827c0-0.494-0.05-0.969-0.149-1.424
						c-0.1-0.455-0.256-0.854-0.468-1.196c-0.212-0.342-0.481-0.615-0.806-0.818c-0.325-0.204-0.713-0.306-1.164-0.306
						c-0.797,0-1.423,0.306-1.878,0.916C195.933,409.335,195.705,410.277,195.705,411.552z"/>
					<path fill="#E57E25" d="M208.476,413.579h-3.337l-0.905,2.522h-1.079l3.445-9.243h0.494l3.458,9.243h-1.144L208.476,413.579z
						 M205.488,412.644h2.665l-1.009-2.769l-0.323-1.379h-0.013l-0.324,1.404L205.488,412.644z"/>
					<path fill="#E57E25" d="M217.792,416.102h-5.382v-9.1h1.079v8.138h4.303V416.102z"/>
					<path fill="#E57E25" d="M227.261,413.579h-3.337l-0.905,2.522h-1.079l3.445-9.243h0.494l3.458,9.243h-1.144L227.261,413.579z
						 M224.272,412.644h2.665l-1.009-2.769l-0.323-1.379h-0.013l-0.323,1.404L224.272,412.644z"/>
					<path fill="#E57E25" d="M231.195,407.093c0.33-0.061,0.708-0.108,1.137-0.144c0.429-0.034,0.821-0.052,1.177-0.052
						c0.398,0,0.778,0.044,1.138,0.13c0.359,0.087,0.676,0.229,0.949,0.43c0.272,0.199,0.491,0.459,0.656,0.779
						c0.164,0.321,0.247,0.711,0.247,1.17c0,0.711-0.195,1.287-0.585,1.729c-0.39,0.441-0.884,0.736-1.482,0.884l0.624,0.481
						l2.262,3.601h-1.261l-2.509-3.926l-1.274-0.195v4.121h-1.079V407.093z M233.535,407.834c-0.113,0-0.23,0-0.352,0
						c-0.121,0-0.238,0.004-0.351,0.013c-0.113,0.009-0.219,0.018-0.318,0.026c-0.1,0.008-0.18,0.021-0.241,0.038v3.354h1.014
						c0.598,0,1.092-0.147,1.481-0.442c0.391-0.294,0.585-0.754,0.585-1.378c0-0.468-0.16-0.854-0.48-1.157
						C234.553,407.985,234.107,407.834,233.535,407.834z"/>
					<path fill="#E57E25" d="M239.58,407.002h4.953v0.962h-3.874v2.977h3.549v0.962h-3.549v3.237h3.939v0.962h-5.018V407.002z"/>
					<path fill="#E57E25" d="M251.519,413.579h-3.338l-0.905,2.522h-1.079l3.445-9.243h0.494l3.458,9.243h-1.145L251.519,413.579z
						 M248.53,412.644h2.665l-1.009-2.769l-0.323-1.379h-0.013l-0.323,1.404L248.53,412.644z"/>
					<path fill="#E57E25" d="M262.945,413.579h-3.337l-0.905,2.522h-1.079l3.445-9.243h0.494l3.458,9.243h-1.144L262.945,413.579z
						 M259.958,412.644h2.665l-1.009-2.769l-0.323-1.379h-0.013l-0.324,1.404L259.958,412.644z"/>
				</g>
			</g>
		</g>
	</g>
</g>
</svg>
