<?xml version="1.0" encoding="utf-8"?>
<!-- Generator: Adobe Illustrator 16.0.0, SVG Export Plug-In . SVG Version: 6.00 Build 0)  -->
<!DOCTYPE svg PUBLIC "-//W3C//DTD SVG 1.1//EN" "http://www.w3.org/Graphics/SVG/1.1/DTD/svg11.dtd">
<svg version="1.1" id="Layer_1" xmlns="http://www.w3.org/2000/svg" xmlns:xlink="http://www.w3.org/1999/xlink" x="0px" y="0px"
	 width="800.023px" height="429.584px" viewBox="0 0 800.023 429.584" enable-background="new 0 0 800.023 429.584"
	 xml:space="preserve">
<symbol  id="sun" viewBox="-102.17 -102.169 204.34 204.339">
	<g id="suns_2_" opacity="0.15">
		<radialGradient id="SVGID_1_" cx="0" cy="0" r="102.1697" gradientUnits="userSpaceOnUse">
			<stop  offset="0" style="stop-color:#FFFFFF"/>
			<stop  offset="1" style="stop-color:#FED514"/>
		</radialGradient>
		<path fill="url(#SVGID_1_)" d="M0.002,102.17c56.423,0,102.168-45.744,102.168-102.167c0-56.433-45.745-102.172-102.168-102.172
			c-56.428,0-102.172,45.74-102.172,102.172C-102.17,56.426-56.425,102.17,0.002,102.17z"/>
	</g>
	<g id="suns_1_">
		<path fill="#FED514" stroke="#E2CD7D" stroke-width="1.6642" stroke-miterlimit="10" d="M0.001,43.782
			c24.179,0,43.781-19.604,43.781-43.781c0-24.183-19.603-43.783-43.781-43.783c-24.181,0-43.783,19.602-43.783,43.783
			C-43.782,24.18-24.179,43.782,0.001,43.782z"/>
	</g>
</symbol>
<g>
	<g>
		<circle fill="#26B99A" cx="46.254" cy="379.043" r="29.346"/>
		<g>
			<path fill="none" stroke="#FFFFFF" stroke-width="4.6541" stroke-miterlimit="10" d="M54.735,367.067
				c4.067,2.707,6.747,7.334,6.747,12.586c0,8.345-6.765,15.108-15.109,15.108c-8.345,0-15.109-6.765-15.109-15.108
				c0-4.836,2.271-9.143,5.806-11.907"/>
			
				<line fill="none" stroke="#FFFFFF" stroke-width="4.6541" stroke-miterlimit="10" x1="46.312" y1="359.676" x2="46.312" y2="384.189"/>
		</g>
	</g>
	<g>
		<g>
			<g>
				<path fill="#576D75" d="M406.913,429.584c-4.541,0-9.082,0-13.624,0c0.117-7.971,0.235-15.943,0.354-23.914
					c4.288,0,8.576,0,12.864,0C406.643,413.641,406.778,421.613,406.913,429.584z"/>
				<path fill="#97B0BA" d="M397.09,405.67c-1.148,0-2.297,0-3.445,0c-0.119,7.971-0.237,15.943-0.354,23.914
					c1.216,0,2.433,0,3.647,0C396.987,421.613,397.039,413.641,397.09,405.67z"/>
				<path fill="#2980BA" stroke="#FFFFFF" stroke-width="0.8462" stroke-miterlimit="10" d="M441.632,405.67
					c-27.986,0-55.97,0-83.955,0c1.853-17.875,3.707-35.748,5.56-53.623c12.136,0,24.272,0,36.407,0c12.141,0,24.285,0,36.429,0
					C437.925,369.922,439.778,387.796,441.632,405.67z"/>
				<path fill="#2980BA" stroke="#FFFFFF" stroke-width="1.6924" stroke-miterlimit="10" d="M400.509,405.67
					c-0.038-17.875-0.076-35.748-0.113-53.623"/>
				<path fill="#2980BA" stroke="#FFFFFF" stroke-width="0.8462" stroke-miterlimit="10" d="M377.383,405.67
					c0.982-17.875,1.966-35.748,2.95-53.623"/>
				<path fill="#2980BA" stroke="#FFFFFF" stroke-width="0.8462" stroke-miterlimit="10" d="M423.637,405.67
					c-1.06-17.875-2.118-35.748-3.177-53.623"/>
				<path fill="#2980BA" stroke="#FFFFFF" stroke-width="0.8462" stroke-miterlimit="10" d="M360.456,378.87
					c26.132,0.001,52.265,0.001,78.397,0"/>
			</g>
		</g>
		<g>
			<g>
				<path fill="#576D75" d="M500.137,413.953c-3.625-0.001-7.25-0.001-10.876,0c0.095-6.364,0.188-12.729,0.283-19.093
					c3.423,0.001,6.847,0.001,10.271,0C499.923,401.225,500.03,407.589,500.137,413.953z"/>
				<path fill="#97B0BA" d="M492.295,394.86c-0.917,0.001-1.833,0.001-2.75,0c-0.094,6.363-0.188,12.729-0.283,19.093
					c0.97-0.001,1.942-0.001,2.912,0C492.214,407.589,492.255,401.225,492.295,394.86z"/>
				<path fill="#2980BA" stroke="#FFFFFF" stroke-width="0.8462" stroke-miterlimit="10" d="M527.86,394.86
					c-22.346,0.001-44.689,0.001-67.035,0c1.479-14.271,2.955-28.542,4.434-42.813c9.691,0,19.385,0,29.076,0
					c9.697,0,19.396,0,29.094,0C524.905,366.318,526.383,380.59,527.86,394.86z"/>
				<path fill="#2980BA" stroke="#FFFFFF" stroke-width="1.3512" stroke-miterlimit="10" d="M495.026,394.86
					c-0.03-14.271-0.062-28.542-0.092-42.813"/>
				<path fill="#2980BA" stroke="#FFFFFF" stroke-width="0.8462" stroke-miterlimit="10" d="M476.56,394.86
					c0.784-14.271,1.567-28.542,2.354-42.813"/>
				<path fill="#2980BA" stroke="#FFFFFF" stroke-width="0.8462" stroke-miterlimit="10" d="M513.492,394.86
					c-0.846-14.271-1.688-28.542-2.532-42.813"/>
				<path fill="#2980BA" stroke="#FFFFFF" stroke-width="0.8462" stroke-miterlimit="10" d="M463.041,373.463
					c20.868-0.001,41.735-0.001,62.604,0"/>
			</g>
		</g>
		<g>
			<g>
				<path fill="#576D75" d="M570.438,404.406c-2.692,0-5.388,0-8.082,0c0.07-4.729,0.142-9.457,0.212-14.188
					c2.543,0,5.088,0,7.631,0C570.278,394.949,570.357,399.678,570.438,404.406z"/>
				<path fill="#97B0BA" d="M564.61,390.219c-0.682,0-1.361,0-2.044,0c-0.068,4.73-0.141,9.459-0.211,14.188
					c0.722,0,1.441,0,2.164,0C564.549,399.678,564.58,394.949,564.61,390.219z"/>
				<path fill="#2980BA" stroke="#FFFFFF" stroke-width="0.502" stroke-miterlimit="10" d="M591.037,390.219
					c-16.604,0-33.206,0-49.81,0c1.1-10.604,2.199-21.209,3.298-31.812c7.199-0.001,14.399-0.001,21.601,0
					c7.205-0.001,14.408-0.001,21.613,0C588.839,369.01,589.936,379.615,591.037,390.219z"/>
				<path fill="#2980BA" stroke="#FFFFFF" stroke-width="1.0041" stroke-miterlimit="10" d="M566.639,390.219
					c-0.021-10.604-0.045-21.209-0.065-31.812"/>
				<path fill="#2980BA" stroke="#FFFFFF" stroke-width="0.502" stroke-miterlimit="10" d="M552.919,390.219
					c0.584-10.604,1.168-21.209,1.751-31.812"/>
				<path fill="#2980BA" stroke="#FFFFFF" stroke-width="0.502" stroke-miterlimit="10" d="M580.36,390.219
					c-0.629-10.604-1.257-21.209-1.886-31.812"/>
				<path fill="#2980BA" stroke="#FFFFFF" stroke-width="0.502" stroke-miterlimit="10" d="M542.877,374.318
					c15.503,0,31.008,0,46.512,0"/>
			</g>
		</g>
		<g>
			<g>
				<path fill="#576D75" d="M238.197,404.406c-2.693,0-5.388,0-8.083,0c0.07-4.729,0.142-9.457,0.21-14.188c2.544,0,5.089,0,7.633,0
					C238.038,394.949,238.117,399.678,238.197,404.406z"/>
				<path fill="#97B0BA" d="M232.369,390.219c-0.682,0-1.361,0-2.044,0c-0.068,4.73-0.141,9.459-0.21,14.188
					c0.723,0,1.442,0,2.165,0C232.31,399.678,232.34,394.949,232.369,390.219z"/>
				<path fill="#2980BA" stroke="#FFFFFF" stroke-width="0.502" stroke-miterlimit="10" d="M258.796,390.219
					c-16.604,0-33.206,0-49.81,0c1.101-10.604,2.198-21.209,3.298-31.812c7.201-0.001,14.401-0.001,21.601,0
					c7.204-0.001,14.409-0.001,21.612,0C256.597,369.01,257.695,379.615,258.796,390.219z"/>
				<path fill="#2980BA" stroke="#FFFFFF" stroke-width="1.0041" stroke-miterlimit="10" d="M234.397,390.219
					c-0.021-10.604-0.045-21.209-0.065-31.812"/>
				<path fill="#2980BA" stroke="#FFFFFF" stroke-width="0.502" stroke-miterlimit="10" d="M220.678,390.219
					c0.584-10.604,1.167-21.209,1.75-31.812"/>
				<path fill="#2980BA" stroke="#FFFFFF" stroke-width="0.502" stroke-miterlimit="10" d="M248.119,390.219
					c-0.628-10.604-1.256-21.209-1.885-31.812"/>
				<path fill="#2980BA" stroke="#FFFFFF" stroke-width="0.502" stroke-miterlimit="10" d="M210.635,374.318
					c15.504,0,31.008,0,46.512,0"/>
			</g>
		</g>
		<g>
			<g>
				<path fill="#576D75" d="M317.842,413.953c-3.626-0.001-7.251-0.001-10.877,0c0.095-6.364,0.188-12.729,0.283-19.093
					c3.424,0.001,6.847,0.001,10.271,0C317.627,401.225,317.733,407.589,317.842,413.953z"/>
				<path fill="#97B0BA" d="M309.999,394.86c-0.917,0.001-1.833,0.001-2.75,0c-0.096,6.363-0.188,12.729-0.283,19.093
					c0.97-0.001,1.94-0.001,2.913,0C309.918,407.589,309.959,401.225,309.999,394.86z"/>
				<path fill="#2980BA" stroke="#FFFFFF" stroke-width="0.6756" stroke-miterlimit="10" d="M345.562,394.86
					c-22.344,0.001-44.687,0.001-67.03,0c1.479-14.271,2.958-28.542,4.438-42.813c9.688,0,19.378,0,29.066,0
					c9.695-0.001,19.392-0.001,29.086,0C342.604,366.318,344.082,380.59,345.562,394.86z"/>
				<path fill="#2980BA" stroke="#FFFFFF" stroke-width="1.3512" stroke-miterlimit="10" d="M312.729,394.86
					c-0.029-14.271-0.061-28.542-0.09-42.813"/>
				<path fill="#2980BA" stroke="#FFFFFF" stroke-width="0.6756" stroke-miterlimit="10" d="M294.266,394.86
					c0.785-14.271,1.57-28.542,2.356-42.813"/>
				<path fill="#2980BA" stroke="#FFFFFF" stroke-width="0.6756" stroke-miterlimit="10" d="M331.193,394.86
					c-0.845-14.271-1.69-28.542-2.536-42.813"/>
				<path fill="#2980BA" stroke="#FFFFFF" stroke-width="0.6756" stroke-miterlimit="10" d="M280.751,373.463
					c20.864-0.002,41.729-0.002,62.593,0"/>
			</g>
		</g>
	</g>
	<g>
		
			<line fill="none" stroke="#FED514" stroke-width="3.3848" stroke-miterlimit="10" x1="256.31" y1="165.5" x2="381.023" y2="331.718"/>
		
			<line fill="none" stroke="#FED514" stroke-width="3.3848" stroke-miterlimit="10" x1="229.292" y1="188.479" x2="285.929" y2="340.18"/>
		
			<line fill="none" stroke="#FED514" stroke-width="3.3848" stroke-miterlimit="10" x1="201.805" y1="196.836" x2="216.168" y2="340.18"/>
		
			<line fill="none" stroke="#FED514" stroke-width="3.3848" stroke-miterlimit="10" x1="286.052" y1="131.361" x2="477.164" y2="323.256"/>
	</g>
	<g>
		<rect x="715.572" y="362.688" fill="#26B99A" width="60.633" height="36.455"/>
		
			<rect x="715.572" y="362.688" fill="none" stroke="#86888B" stroke-width="6.7696" stroke-linejoin="bevel" stroke-miterlimit="10" width="74.206" height="36.455"/>
		<rect x="791.693" y="370.611" fill="#86888B" width="8.33" height="20.606"/>
		<g>
			<polygon fill="#FFFFFF" points="731.418,385.371 744.549,373.854 746.031,372.555 747.789,374.045 759.116,383.643 
				755.868,383.354 773.458,375.714 773.879,376.425 758.714,388.166 757.165,389.366 755.466,387.878 744.299,378.095 
				747.539,378.285 731.943,386.148 			"/>
		</g>
	</g>
	
		<use xlink:href="#sun"  width="204.34" height="204.339" x="-102.17" y="-102.169" transform="matrix(0.8462 0 0 -0.8462 187.6802 86.4556)" overflow="visible"/>
	<g>
		<g>
			
				<line fill="none" stroke="#26B99A" stroke-width="6.7696" stroke-miterlimit="10" x1="596.277" y1="379.043" x2="664.708" y2="379.043"/>
			<g>
				<polygon fill="#26B99A" points="662.732,385.794 674.424,379.043 662.732,372.292 				"/>
			</g>
		</g>
	</g>
	<g>
		<g>
			
				<line fill="none" stroke="#26B99A" stroke-width="6.7696" stroke-miterlimit="10" x1="135.316" y1="379.043" x2="203.746" y2="379.043"/>
			<g>
				<polygon fill="#26B99A" points="137.291,385.794 125.6,379.043 137.291,372.292 				"/>
			</g>
		</g>
	</g>
</g>
</svg>
