<?xml version="1.0" encoding="utf-8"?>
<!-- Generator: Adobe Illustrator 16.0.0, SVG Export Plug-In . SVG Version: 6.00 Build 0)  -->
<!DOCTYPE svg PUBLIC "-//W3C//DTD SVG 1.1//EN" "http://www.w3.org/Graphics/SVG/1.1/DTD/svg11.dtd">
<svg version="1.1" id="Layer_1" xmlns="http://www.w3.org/2000/svg" xmlns:xlink="http://www.w3.org/1999/xlink" x="0px" y="0px"
	 width="800.023px" height="429.584px" viewBox="0 0 800.023 429.584" enable-background="new 0 0 800.023 429.584"
	 xml:space="preserve">
<symbol  id="heatinghouse" viewBox="-58.9 -74.225 117.799 148.45">
	<g>
		<polygon fill="#9AAEB8" points="-22.723,48.781 24.521,48.781 54.684,17.459 -52.346,17.459 		"/>
		<polygon fill="#595870" points="23.241,46.142 -22.723,46.142 1.169,69.276 		"/>
		<polygon fill="#4E4C61" points="1.169,-14.852 45.688,-14.852 45.688,-55.958 1.169,-55.958 -43.351,-55.958 -43.351,-14.852 		
			"/>
		<polygon fill="#A8AAAD" points="-1.917,-21.743 -1.917,22.727 45.688,22.727 45.688,-21.743 		"/>
		<polygon fill="#B8B8B9" points="-43.351,-21.743 -43.351,22.727 12.918,22.727 12.918,-21.743 		"/>
		<polyline fill="#7D8078" stroke="#616555" stroke-width="1.8937" stroke-miterlimit="10" points="45.688,-55.958 1.169,-55.958 
			-43.351,-55.958 		"/>
		<g>
			<polygon fill="#90ABB3" stroke="#D1D0D0" stroke-width="0.4573" stroke-miterlimit="10" points="-31.895,-11.35 -3.079,-11.35 
				-3.079,5.352 -31.895,5.352 			"/>
			
				<line fill="#90ABB3" stroke="#D1D0D0" stroke-width="0.4573" stroke-miterlimit="10" x1="-24.169" y1="5.352" x2="-24.169" y2="-11.35"/>
			
				<line fill="#90ABB3" stroke="#D1D0D0" stroke-width="0.4573" stroke-miterlimit="10" x1="-10.646" y1="5.352" x2="-10.646" y2="-11.35"/>
		</g>
		<g>
			<polygon fill="#B4C3C9" stroke="#D1D0D0" stroke-width="0.4573" stroke-miterlimit="10" points="-13.071,25.514 15.744,25.514 
				15.744,42.215 -13.071,42.215 			"/>
			
				<line fill="#B4C3C9" stroke="#D1D0D0" stroke-width="0.4573" stroke-miterlimit="10" x1="-5.344" y1="42.215" x2="-5.344" y2="25.514"/>
			
				<line fill="#B4C3C9" stroke="#D1D0D0" stroke-width="0.4573" stroke-miterlimit="10" x1="8.177" y1="42.215" x2="8.177" y2="25.514"/>
		</g>
		<polygon fill="#CDCFCF" points="19.3,-21.824 36.553,-21.824 36.553,13.224 19.3,13.224 		"/>
		<g>
			<polygon fill="#90ABB3" stroke="#808181" stroke-width="0.1892" stroke-miterlimit="10" points="21.96,-4.342 33.892,-4.342 
				33.892,10.277 21.96,10.277 			"/>
			<g>
				<polygon fill="#90ABB3" stroke="#808181" stroke-width="0.1892" stroke-miterlimit="10" points="21.96,-15.834 24.521,-18.395 
					29.994,-18.395 21.96,-10.363 				"/>
				<polygon fill="#90ABB3" stroke="#808181" stroke-width="0.1892" stroke-miterlimit="10" points="21.96,-10.363 29.994,-18.395 
					33.892,-18.395 33.892,-16.959 21.96,-5.029 				"/>
				<polygon fill="#90ABB3" stroke="#808181" stroke-width="0.1892" stroke-miterlimit="10" points="21.96,-18.395 24.521,-18.395 
					21.96,-15.834 				"/>
				<polygon fill="#90ABB3" stroke="#808181" stroke-width="0.1892" stroke-miterlimit="10" points="25.694,-3.774 21.96,-3.774 
					21.96,-5.029 33.892,-16.959 33.892,-11.971 				"/>
				<polygon fill="#90ABB3" stroke="#808181" stroke-width="0.1892" stroke-miterlimit="10" points="33.892,-6.505 31.16,-3.774 
					25.694,-3.774 33.892,-11.971 				"/>
				<polygon fill="#90ABB3" stroke="#808181" stroke-width="0.1892" stroke-miterlimit="10" points="33.892,-3.774 31.16,-3.774 
					33.892,-6.505 				"/>
			</g>
		</g>
		<g>
			<polygon fill="#B4C3C9" stroke="#D1D0D0" stroke-width="0.4169" stroke-miterlimit="10" points="-31.895,-42.336 -4.152,-42.336 
				-4.152,-27.92 -31.895,-27.92 			"/>
			
				<line fill="#B4C3C9" stroke="#D1D0D0" stroke-width="0.4169" stroke-miterlimit="10" x1="-24.455" y1="-27.92" x2="-24.455" y2="-42.336"/>
			
				<line fill="#B4C3C9" stroke="#D1D0D0" stroke-width="0.4169" stroke-miterlimit="10" x1="-11.438" y1="-27.92" x2="-11.438" y2="-42.336"/>
		</g>
		<polygon fill="#90ABB3" stroke="#D1D0D0" stroke-width="0.4573" stroke-miterlimit="10" points="-3.079,12.333 -31.895,12.333 
			-31.895,5.352 -3.079,5.352 		"/>
		<polygon fill="#545453" points="37.953,16.953 38.413,16.953 38.189,16.98 		"/>
		<polygon fill="#545453" points="-13.539,22.722 -18.62,22.722 -16.073,22.466 		"/>
		<polygon fill="#545453" points="-4.379,22.722 -9.42,22.722 -6.894,22.466 		"/>
		<polygon fill="#545453" points="46.906,16.98 46.921,16.98 46.913,16.98 		"/>
		<polygon fill="#545453" points="-22.678,22.722 -27.8,22.727 -25.23,22.466 		"/>
		<polygon fill="#545453" points="13.899,22.718 8.938,22.718 11.426,22.466 		"/>
		<polygon fill="#545453" points="23.035,22.714 18.116,22.714 20.582,22.466 		"/>
		<polygon fill="#545453" points="-24.808,16.785 -21.256,16.794 -22.988,16.98 		"/>
		<polygon fill="#545453" points="32.255,22.714 27.373,22.714 29.82,22.466 		"/>
		<polygon fill="#545453" points="-42.713,16.736 -38.274,16.75 -40.439,16.98 		"/>
		<polygon fill="#545453" points="-33.759,16.765 -29.764,16.773 -31.712,16.98 		"/>
		<polygon fill="#545453" points="4.76,22.718 -0.24,22.718 2.265,22.466 		"/>
		<polygon fill="#545453" points="11.021,16.883 12.806,16.887 11.936,16.98 		"/>
		<polygon fill="#545453" points="29.001,16.931 29.9,16.931 29.462,16.98 		"/>
		<polygon fill="#545453" points="2.068,16.856 4.298,16.864 3.212,16.98 		"/>
		<polygon fill="#545453" points="-15.855,16.812 -12.728,16.816 -14.252,16.98 		"/>
		<polygon fill="#545453" points="-6.884,16.835 -4.215,16.844 -5.514,16.98 		"/>
		<polygon fill="#545453" points="-31.817,22.727 -36.979,22.727 -34.391,22.466 		"/>
		<polygon fill="#545453" points="-42.072,22.727 -42.22,22.602 -40.953,22.727 		"/>
		<polygon fill="#545453" points="50.533,22.708 45.731,22.708 48.135,22.466 		"/>
		<g>
			<polygon fill="#545453" points="55.044,16.999 54.542,17.486 49.174,22.708 -45.773,22.727 -52.53,16.719 			"/>
			<polygon fill="#545453" points="36.995,22.718 32.255,22.718 34.629,22.474 			"/>
			<polygon fill="#4E4F51" points="47.098,22.438 42.611,21.979 38.123,22.438 33.639,21.979 29.152,22.438 24.664,21.979 
				20.168,22.442 20.168,22.621 20.112,22.621 20.112,22.442 15.615,21.979 11.127,22.438 6.644,21.979 2.157,22.438 -2.331,21.979 
				-6.817,22.438 -11.306,21.979 -15.802,22.442 -20.299,21.979 -24.785,22.438 -29.271,21.979 -33.757,22.438 -38.245,21.979 
				-42.731,22.438 -46.411,22.062 -47.091,21.46 -42.741,21.908 -42.741,21.908 -42.731,21.908 -42.723,21.908 -42.723,21.908 
				-38.245,21.446 -33.768,21.908 -33.768,21.908 -33.757,21.908 -33.746,21.908 -33.746,21.908 -29.271,21.446 -24.795,21.908 
				-24.795,21.908 -24.785,21.908 -24.774,21.908 -24.774,21.908 -20.299,21.446 -15.802,21.908 -11.306,21.446 -6.828,21.908 
				-6.828,21.908 -6.817,21.908 -6.809,21.908 -6.809,21.908 -2.331,21.446 2.146,21.908 2.146,21.908 2.157,21.908 2.165,21.908 
				2.165,21.908 6.644,21.446 11.119,21.908 11.119,21.908 11.127,21.908 11.14,21.908 11.14,21.908 15.615,21.446 20.112,21.908 
				20.112,21.519 15.615,21.052 11.127,21.512 6.644,21.052 2.157,21.512 -2.331,21.052 -6.817,21.512 -11.306,21.052 
				-15.802,21.519 -20.299,21.052 -24.785,21.512 -29.271,21.052 -33.757,21.512 -38.245,21.052 -42.731,21.512 -47.22,21.052 
				-47.516,21.083 -48.053,20.604 -47.22,20.52 -42.741,20.981 -42.741,20.981 -42.731,20.981 -42.723,20.981 -42.723,20.981 
				-38.245,20.52 -33.768,20.981 -33.768,20.981 -33.757,20.981 -33.749,20.981 -33.749,20.981 -29.271,20.52 -24.795,20.981 
				-24.795,20.981 -24.785,20.981 -24.774,20.981 -24.774,20.981 -20.299,20.52 -15.802,20.981 -11.306,20.52 -6.828,20.981 
				-6.828,20.981 -6.817,20.981 -6.809,20.981 -6.809,20.981 -2.331,20.52 2.146,20.981 2.146,20.981 2.157,20.981 2.165,20.981 
				2.165,20.981 6.644,20.52 11.119,20.981 11.119,20.981 11.127,20.981 11.14,20.981 11.14,20.981 15.615,20.52 20.112,20.981 
				20.112,20.592 15.615,20.126 11.127,20.586 6.644,20.126 2.157,20.586 -2.331,20.126 -6.817,20.586 -11.306,20.126 
				-15.802,20.592 -20.299,20.126 -24.785,20.586 -29.271,20.126 -33.757,20.586 -38.245,20.126 -42.731,20.586 -47.22,20.126 
				-48.448,20.254 -48.984,19.775 -47.22,19.596 -42.741,20.056 -42.741,20.056 -42.731,20.056 -42.723,20.056 -42.723,20.056 
				-38.245,19.596 -33.768,20.056 -33.768,20.056 -33.757,20.056 -33.749,20.056 -33.749,20.056 -29.271,19.596 -24.795,20.056 
				-24.795,20.056 -24.785,20.056 -24.774,20.056 -24.774,20.056 -20.299,19.596 -15.802,20.056 -11.306,19.596 -6.828,20.056 
				-6.828,20.056 -6.817,20.056 -6.809,20.056 -6.809,20.056 -2.331,19.596 2.146,20.056 2.146,20.056 2.157,20.056 2.165,20.056 
				2.165,20.056 6.644,19.596 11.119,20.056 11.119,20.056 11.127,20.056 11.14,20.056 11.14,20.056 15.615,19.596 20.112,20.056 
				20.112,19.666 15.615,19.199 11.127,19.662 6.644,19.199 2.157,19.662 -2.331,19.199 -6.817,19.662 -11.306,19.199 
				-15.802,19.666 -20.299,19.199 -24.785,19.662 -29.271,19.199 -33.757,19.662 -38.245,19.199 -42.731,19.662 -47.22,19.199 
				-49.381,19.422 -49.92,18.942 -47.22,18.669 -42.741,19.129 -42.741,19.129 -42.731,19.129 -42.723,19.129 -42.723,19.129 
				-38.245,18.669 -33.768,19.129 -33.768,19.129 -33.757,19.129 -33.749,19.129 -33.749,19.129 -29.271,18.669 -24.795,19.129 
				-24.795,19.129 -24.785,19.129 -24.774,19.129 -24.774,19.129 -20.299,18.669 -15.802,19.129 -11.306,18.669 -6.828,19.129 
				-6.828,19.129 -6.819,19.129 -6.809,19.129 -6.809,19.129 -2.331,18.669 2.146,19.129 2.146,19.129 2.157,19.129 2.165,19.129 
				2.165,19.129 6.644,18.669 11.119,19.129 11.119,19.129 11.127,19.129 11.14,19.129 11.14,19.129 15.615,18.669 20.112,19.129 
				20.112,18.735 15.615,18.273 11.127,18.735 6.644,18.273 2.157,18.735 -2.331,18.273 -6.819,18.735 -11.306,18.273 
				-15.802,18.735 -20.299,18.273 -24.785,18.735 -29.271,18.273 -33.757,18.735 -38.245,18.273 -42.731,18.735 -47.22,18.273 
				-50.315,18.593 -50.852,18.116 -47.22,17.743 -42.741,18.203 -42.741,18.203 -42.731,18.203 -42.723,18.203 -42.723,18.203 
				-38.245,17.743 -33.768,18.203 -33.768,18.203 -33.757,18.203 -33.749,18.203 -33.749,18.203 -29.271,17.743 -24.795,18.203 
				-24.795,18.203 -24.785,18.203 -24.774,18.203 -24.774,18.203 -20.299,17.743 -15.802,18.203 -11.306,17.743 -6.828,18.203 
				-6.828,18.203 -6.819,18.203 -6.809,18.203 -6.809,18.203 -2.331,17.743 2.146,18.203 2.146,18.203 2.157,18.203 2.165,18.203 
				2.165,18.203 6.644,17.743 11.119,18.203 11.119,18.203 11.127,18.203 11.14,18.203 11.14,18.203 15.615,17.743 20.112,18.203 
				20.112,17.81 15.615,17.35 11.127,17.81 6.644,17.35 2.157,17.81 -2.331,17.35 -6.819,17.81 -11.306,17.35 -15.802,17.81 
				-20.299,17.35 -24.785,17.81 -29.271,17.35 -33.757,17.81 -38.245,17.35 -42.731,17.81 -47.22,17.35 -51.248,17.764 
				-52.53,16.622 -49.261,16.63 -51.716,16.883 -51.716,17.279 -47.22,16.816 -42.741,17.279 -42.741,17.279 -42.731,17.279 
				-42.723,17.279 -42.723,17.279 -38.245,16.816 -33.768,17.279 -33.768,17.279 -33.757,17.279 -33.749,17.279 -33.749,17.279 
				-29.271,16.816 -24.795,17.279 -24.795,17.279 -24.785,17.279 -24.774,17.279 -24.774,17.279 -20.299,16.816 -15.802,17.279 
				-11.306,16.816 -6.828,17.279 -6.828,17.279 -6.819,17.279 -6.809,17.279 -6.809,17.279 -2.331,16.816 2.146,17.279 
				2.146,17.279 2.157,17.279 2.165,17.279 2.165,17.279 6.644,16.816 11.119,17.279 11.119,17.279 11.127,17.279 11.14,17.279 
				11.14,17.279 15.615,16.816 20.112,17.279 20.112,16.883 19.395,16.812 20.848,16.816 20.168,16.883 20.168,17.279 
				24.573,16.825 24.76,16.825 29.143,17.279 29.143,17.279 29.152,17.279 29.161,17.279 29.161,17.279 33.324,16.848 
				33.966,16.848 38.112,17.279 38.112,17.279 38.123,17.279 38.135,17.279 38.135,17.279 42.076,16.87 43.173,16.875 
				47.087,17.279 47.087,17.279 47.098,17.279 47.107,17.279 47.107,17.279 50.827,16.894 52.379,16.897 54.795,17.144 
				54.544,17.389 54.298,17.627 51.585,17.35 47.098,17.81 42.611,17.35 38.123,17.81 33.639,17.35 29.152,17.81 24.664,17.35 
				20.168,17.81 20.168,18.203 24.664,17.743 29.143,18.203 29.143,18.203 29.152,18.203 29.161,18.203 29.161,18.203 
				33.639,17.743 38.112,18.203 38.112,18.203 38.123,18.203 38.135,18.203 38.135,18.203 42.611,17.743 47.089,18.203 
				47.089,18.203 47.098,18.203 47.107,18.203 47.107,18.203 51.585,17.743 53.934,17.981 53.439,18.464 51.585,18.273 
				47.098,18.735 42.611,18.273 38.123,18.735 33.639,18.273 29.152,18.735 24.664,18.273 20.168,18.735 20.168,19.129 
				24.664,18.669 29.143,19.129 29.143,19.129 29.152,19.129 29.161,19.129 29.161,19.129 33.639,18.669 38.112,19.129 
				38.112,19.129 38.123,19.129 38.135,19.129 38.135,19.129 42.611,18.669 47.089,19.129 47.089,19.129 47.098,19.129 
				47.107,19.129 47.107,19.129 51.585,18.669 53.073,18.82 52.578,19.301 51.585,19.199 47.098,19.662 42.611,19.199 
				38.123,19.662 33.639,19.199 29.152,19.662 24.664,19.199 20.168,19.666 20.168,20.056 24.664,19.596 29.143,20.056 
				29.143,20.056 29.152,20.056 29.161,20.056 29.161,20.056 33.639,19.596 38.112,20.056 38.112,20.056 38.123,20.056 
				38.135,20.056 38.135,20.056 42.611,19.596 47.089,20.056 47.089,20.056 47.098,20.056 47.107,20.056 47.107,20.056 
				51.585,19.596 52.213,19.657 51.716,20.139 51.585,20.126 47.098,20.586 42.611,20.126 38.123,20.586 33.639,20.126 
				29.152,20.586 24.664,20.126 20.168,20.592 20.168,20.981 24.664,20.52 29.143,20.981 29.143,20.981 29.152,20.981 
				29.161,20.981 29.161,20.981 33.639,20.52 38.112,20.981 38.112,20.981 38.123,20.981 38.135,20.981 38.135,20.981 42.611,20.52 
				47.089,20.981 47.089,20.981 47.098,20.981 47.107,20.981 47.107,20.981 51.295,20.547 50.682,21.146 47.098,21.512 
				42.611,21.052 38.123,21.512 33.639,21.052 29.152,21.512 24.664,21.052 20.168,21.519 20.168,21.908 24.664,21.446 
				29.143,21.908 29.143,21.908 29.152,21.908 29.161,21.908 29.161,21.908 33.639,21.446 38.112,21.908 38.112,21.908 
				38.123,21.908 38.135,21.908 38.135,21.908 42.611,21.446 47.089,21.908 47.089,21.908 47.098,21.908 47.107,21.908 
				47.107,21.908 50.229,21.585 49.619,22.182 			"/>
		</g>
		<polyline fill="none" stroke="#282827" stroke-width="0.4734" stroke-miterlimit="10" points="55.301,16.719 1.02,16.719 
			-52.626,16.719 		"/>
		<polyline fill="none" stroke="#807B77" stroke-width="1.026" stroke-miterlimit="10" points="23.035,46.142 0.761,46.142 
			-21.256,46.142 		"/>
		<polyline fill="none" stroke="#454548" stroke-width="2.2402" stroke-linecap="square" stroke-miterlimit="10" points="
			54.684,17.459 1.169,69.276 -52.346,17.459 		"/>
		<g>
			<polygon fill="#788080" points="43.067,-37.633 14.008,-37.633 14.008,-34.881 43.067,-34.881 			"/>
			<polygon fill="#788080" points="43.067,-42.071 14.008,-42.071 14.008,-39.315 43.067,-39.315 			"/>
			<polygon fill="#788080" points="43.067,-46.51 14.008,-46.51 14.008,-43.754 43.067,-43.754 			"/>
			<polygon fill="#788080" points="43.067,-55.382 14.008,-55.382 14.008,-52.633 43.067,-52.633 			"/>
			<polygon fill="#788080" points="43.067,-50.948 14.008,-50.948 14.008,-48.192 43.067,-48.192 			"/>
			<polygon fill="#545453" points="15.013,-31.698 12.918,-31.698 12.918,-16.636 15.013,-16.636 			"/>
			<polygon fill="#5D5959" points="14.689,-44.091 13.415,-44.091 13.415,-19.329 14.689,-19.329 			"/>
			<polygon fill="#545453" points="15.1,-57.382 13.005,-57.382 13.005,-42.323 15.1,-42.323 			"/>
			<polygon fill="#545453" points="43.467,-31.698 41.368,-31.698 41.368,-16.636 43.467,-16.636 			"/>
			<polygon fill="#5D5959" points="43.144,-44.091 41.867,-44.091 41.867,-19.329 43.144,-19.329 			"/>
			<polygon fill="#545453" points="43.552,-57.382 41.457,-57.382 41.457,-42.323 43.552,-42.323 			"/>
		</g>
	</g>
	<g>
		<polyline fill="none" stroke="#E54B51" stroke-width="2" stroke-miterlimit="10" points="23.723,-24.579 28.537,-19.765 
			33.352,-24.579 		"/>
		<g>
			<polyline fill="none" stroke="#E54B51" stroke-width="2" stroke-miterlimit="10" points="29.72,-31.533 27.355,-29.17 
				29.72,-26.806 27.355,-29.17 29.72,-26.806 28.655,-25.741 28.655,-25.741 28.655,-19.765 			"/>
			<polyline fill="none" stroke="#E54B51" stroke-width="2" stroke-miterlimit="10" points="29.72,-36.198 27.355,-33.834 
				29.72,-31.471 27.355,-33.834 29.72,-31.471 27.355,-29.106 			"/>
			<polyline fill="none" stroke="#E54B51" stroke-width="2" stroke-miterlimit="10" points="29.72,-40.863 27.355,-38.499 
				29.72,-36.135 27.355,-38.499 29.72,-36.135 27.355,-33.771 			"/>
			<polyline fill="none" stroke="#E54B51" stroke-width="2" stroke-miterlimit="10" points="29.72,-45.528 27.355,-43.164 
				29.72,-40.8 27.355,-43.164 29.72,-40.8 27.355,-38.436 			"/>
			<polyline fill="none" stroke="#E54B51" stroke-width="2" stroke-miterlimit="10" points="29.72,-50.193 27.355,-47.829 
				29.72,-45.465 27.355,-47.829 29.72,-45.465 27.355,-43.101 			"/>
			<polyline fill="none" stroke="#E54B51" stroke-width="2" stroke-miterlimit="10" points="29.72,-54.858 27.355,-52.494 
				29.72,-50.13 27.355,-52.494 29.72,-50.13 27.355,-47.766 			"/>
			<polyline fill="none" stroke="#E54B51" stroke-width="2" stroke-miterlimit="10" points="29.72,-59.522 27.355,-57.159 
				29.72,-54.795 27.355,-57.159 29.72,-54.795 27.355,-52.431 			"/>
			<polyline fill="none" stroke="#E54B51" stroke-width="2" stroke-miterlimit="10" points="29.72,-64.188 27.355,-61.823 
				29.72,-59.46 27.355,-61.823 29.72,-59.46 27.355,-57.096 			"/>
			<polyline fill="none" stroke="#E54B51" stroke-width="2" stroke-miterlimit="10" points="29.72,-68.853 27.355,-66.488 
				29.72,-64.124 27.355,-66.488 29.72,-64.124 27.355,-61.761 			"/>
			<polyline fill="none" stroke="#E54B51" stroke-width="2" stroke-miterlimit="10" points="29.72,-73.518 27.355,-71.153 
				29.72,-68.789 27.355,-71.153 29.72,-68.789 27.355,-66.426 			"/>
		</g>
	</g>
	<g>
		<polyline fill="none" stroke="#E54B51" stroke-width="2" stroke-miterlimit="10" points="-3.165,-24.579 1.649,-19.765 
			6.464,-24.579 		"/>
		<g>
			<polyline fill="none" stroke="#E54B51" stroke-width="2" stroke-miterlimit="10" points="2.831,-31.533 0.468,-29.17 
				2.831,-26.806 0.468,-29.17 2.831,-26.806 1.767,-25.741 1.767,-25.741 1.767,-19.765 			"/>
			<polyline fill="none" stroke="#E54B51" stroke-width="2" stroke-miterlimit="10" points="2.831,-36.198 0.468,-33.834 
				2.831,-31.471 0.468,-33.834 2.831,-31.471 0.468,-29.106 			"/>
			<polyline fill="none" stroke="#E54B51" stroke-width="2" stroke-miterlimit="10" points="2.831,-40.863 0.468,-38.499 
				2.831,-36.135 0.468,-38.499 2.831,-36.135 0.468,-33.771 			"/>
			<polyline fill="none" stroke="#E54B51" stroke-width="2" stroke-miterlimit="10" points="2.831,-45.528 0.468,-43.164 
				2.831,-40.8 0.468,-43.164 2.831,-40.8 0.468,-38.436 			"/>
			<polyline fill="none" stroke="#E54B51" stroke-width="2" stroke-miterlimit="10" points="2.831,-50.193 0.468,-47.829 
				2.831,-45.465 0.468,-47.829 2.831,-45.465 0.468,-43.101 			"/>
			<polyline fill="none" stroke="#E54B51" stroke-width="2" stroke-miterlimit="10" points="2.831,-54.858 0.468,-52.494 
				2.831,-50.13 0.468,-52.494 2.831,-50.13 0.468,-47.766 			"/>
			<polyline fill="none" stroke="#E54B51" stroke-width="2" stroke-miterlimit="10" points="2.831,-59.522 0.468,-57.159 
				2.831,-54.795 0.468,-57.159 2.831,-54.795 0.468,-52.431 			"/>
			<polyline fill="none" stroke="#E54B51" stroke-width="2" stroke-miterlimit="10" points="2.831,-64.188 0.468,-61.823 
				2.831,-59.46 0.468,-61.823 2.831,-59.46 0.468,-57.096 			"/>
			<polyline fill="none" stroke="#E54B51" stroke-width="2" stroke-miterlimit="10" points="2.831,-68.853 0.468,-66.488 
				2.831,-64.124 0.468,-66.488 2.831,-64.124 0.468,-61.761 			"/>
			<polyline fill="none" stroke="#E54B51" stroke-width="2" stroke-miterlimit="10" points="2.831,-73.518 0.468,-71.153 
				2.831,-68.789 0.468,-71.153 2.831,-68.789 0.468,-66.426 			"/>
		</g>
	</g>
	<g>
		<polyline fill="none" stroke="#E54B51" stroke-width="2" stroke-miterlimit="10" points="-30.053,-24.579 -25.238,-19.765 
			-20.424,-24.579 		"/>
		<g>
			<polyline fill="none" stroke="#E54B51" stroke-width="2" stroke-miterlimit="10" points="-24.057,-31.533 -26.421,-29.17 
				-24.057,-26.806 -26.421,-29.17 -24.057,-26.806 -25.121,-25.741 -25.121,-25.741 -25.121,-19.765 			"/>
			<polyline fill="none" stroke="#E54B51" stroke-width="2" stroke-miterlimit="10" points="-24.057,-36.198 -26.421,-33.834 
				-24.057,-31.471 -26.421,-33.834 -24.057,-31.471 -26.421,-29.106 			"/>
			<polyline fill="none" stroke="#E54B51" stroke-width="2" stroke-miterlimit="10" points="-24.057,-40.863 -26.421,-38.499 
				-24.057,-36.135 -26.421,-38.499 -24.057,-36.135 -26.421,-33.771 			"/>
			<polyline fill="none" stroke="#E54B51" stroke-width="2" stroke-miterlimit="10" points="-24.057,-45.528 -26.421,-43.164 
				-24.057,-40.8 -26.421,-43.164 -24.057,-40.8 -26.421,-38.436 			"/>
			<polyline fill="none" stroke="#E54B51" stroke-width="2" stroke-miterlimit="10" points="-24.057,-50.193 -26.421,-47.829 
				-24.057,-45.465 -26.421,-47.829 -24.057,-45.465 -26.421,-43.101 			"/>
			<polyline fill="none" stroke="#E54B51" stroke-width="2" stroke-miterlimit="10" points="-24.057,-54.858 -26.421,-52.494 
				-24.057,-50.13 -26.421,-52.494 -24.057,-50.13 -26.421,-47.766 			"/>
			<polyline fill="none" stroke="#E54B51" stroke-width="2" stroke-miterlimit="10" points="-24.057,-59.522 -26.421,-57.159 
				-24.057,-54.795 -26.421,-57.159 -24.057,-54.795 -26.421,-52.431 			"/>
			<polyline fill="none" stroke="#E54B51" stroke-width="2" stroke-miterlimit="10" points="-24.057,-64.188 -26.421,-61.823 
				-24.057,-59.46 -26.421,-61.823 -24.057,-59.46 -26.421,-57.096 			"/>
			<polyline fill="none" stroke="#E54B51" stroke-width="2" stroke-miterlimit="10" points="-24.057,-68.853 -26.421,-66.488 
				-24.057,-64.124 -26.421,-66.488 -24.057,-64.124 -26.421,-61.761 			"/>
			<polyline fill="none" stroke="#E54B51" stroke-width="2" stroke-miterlimit="10" points="-24.057,-73.518 -26.421,-71.153 
				-24.057,-68.789 -26.421,-71.153 -24.057,-68.789 -26.421,-66.426 			"/>
		</g>
	</g>
	<polygon fill="none" stroke="#E54B51" stroke-width="3" stroke-miterlimit="10" points="-43.351,16.622 -43.351,-55.958 
		46.906,-55.958 46.906,17.459 55.301,17.459 1.133,72.107 -55.237,16.622 	"/>
	<linearGradient id="SVGID_1_" gradientUnits="userSpaceOnUse" x1="0.0317" y1="57.4082" x2="0.0317" y2="-53.1299">
		<stop  offset="0" style="stop-color:#808080;stop-opacity:0"/>
		<stop  offset="0" style="stop-color:#FFFFFF;stop-opacity:0"/>
		<stop  offset="1" style="stop-color:#E11F27"/>
	</linearGradient>
	<polygon opacity="0.15" fill="url(#SVGID_1_)" points="-43.351,16.622 -43.351,-55.958 46.906,-55.958 46.906,17.459 
		55.301,17.459 1.133,72.107 -55.237,16.622 	"/>
</symbol>
<symbol  id="poweringhouse" viewBox="-55.098 -64.109 110.196 128.217">
	<g>
		<polygon fill="#9AAEB8" points="-23.891,42.055 23.353,42.055 53.514,10.732 -53.514,10.732 		"/>
		<polygon fill="#595870" points="22.072,39.415 -23.891,39.415 0,62.55 		"/>
		<polygon fill="#4E4C61" points="0,-21.578 44.519,-21.578 44.519,-62.685 0,-62.685 -44.52,-62.685 -44.52,-21.578 		"/>
		<polygon fill="#A8AAAD" points="-3.085,-28.47 -3.085,16 44.519,16 44.519,-28.47 		"/>
		<polygon fill="#B8B8B9" points="-44.52,-28.47 -44.52,16 11.749,16 11.749,-28.47 		"/>
		<polyline fill="#7D8078" stroke="#616555" stroke-width="1.8937" stroke-miterlimit="10" points="44.519,-62.685 0,-62.685 
			-44.52,-62.685 		"/>
		<g>
			<polygon fill="#90ABB3" stroke="#D1D0D0" stroke-width="0.4573" stroke-miterlimit="10" points="-33.063,-18.076 -4.248,-18.076 
				-4.248,-1.375 -33.063,-1.375 			"/>
			
				<line fill="#90ABB3" stroke="#D1D0D0" stroke-width="0.4573" stroke-miterlimit="10" x1="-25.337" y1="-1.375" x2="-25.337" y2="-18.076"/>
			
				<line fill="#90ABB3" stroke="#D1D0D0" stroke-width="0.4573" stroke-miterlimit="10" x1="-11.815" y1="-1.375" x2="-11.815" y2="-18.076"/>
		</g>
		<g>
			<polygon fill="#B4C3C9" stroke="#D1D0D0" stroke-width="0.4573" stroke-miterlimit="10" points="-14.24,18.787 14.576,18.787 
				14.576,35.488 -14.24,35.488 			"/>
			
				<line fill="#B4C3C9" stroke="#D1D0D0" stroke-width="0.4573" stroke-miterlimit="10" x1="-6.513" y1="35.488" x2="-6.513" y2="18.787"/>
			
				<line fill="#B4C3C9" stroke="#D1D0D0" stroke-width="0.4573" stroke-miterlimit="10" x1="7.008" y1="35.488" x2="7.008" y2="18.787"/>
		</g>
		<polygon fill="#CDCFCF" points="18.131,-28.551 35.383,-28.551 35.383,6.497 18.131,6.497 		"/>
		<g>
			<polygon fill="#90ABB3" stroke="#808181" stroke-width="0.1892" stroke-miterlimit="10" points="20.792,-11.068 32.723,-11.068 
				32.723,3.551 20.792,3.551 			"/>
			<g>
				<polygon fill="#90ABB3" stroke="#808181" stroke-width="0.1892" stroke-miterlimit="10" points="20.792,-22.561 23.353,-25.121 
					28.826,-25.121 20.792,-17.09 				"/>
				<polygon fill="#90ABB3" stroke="#808181" stroke-width="0.1892" stroke-miterlimit="10" points="20.792,-17.09 28.826,-25.121 
					32.723,-25.121 32.723,-23.686 20.792,-11.756 				"/>
				<polygon fill="#90ABB3" stroke="#808181" stroke-width="0.1892" stroke-miterlimit="10" points="20.792,-25.121 23.353,-25.121 
					20.792,-22.561 				"/>
				<polygon fill="#90ABB3" stroke="#808181" stroke-width="0.1892" stroke-miterlimit="10" points="24.526,-10.501 20.792,-10.501 
					20.792,-11.756 32.723,-23.686 32.723,-18.697 				"/>
				<polygon fill="#90ABB3" stroke="#808181" stroke-width="0.1892" stroke-miterlimit="10" points="32.723,-13.231 29.992,-10.501 
					24.526,-10.501 32.723,-18.697 				"/>
				<polygon fill="#90ABB3" stroke="#808181" stroke-width="0.1892" stroke-miterlimit="10" points="32.723,-10.501 29.992,-10.501 
					32.723,-13.231 				"/>
			</g>
		</g>
		<g>
			<polygon fill="#B4C3C9" stroke="#D1D0D0" stroke-width="0.4169" stroke-miterlimit="10" points="-33.063,-49.062 -5.321,-49.062 
				-5.321,-34.646 -33.063,-34.646 			"/>
			
				<line fill="#B4C3C9" stroke="#D1D0D0" stroke-width="0.4169" stroke-miterlimit="10" x1="-25.624" y1="-34.646" x2="-25.624" y2="-49.062"/>
			
				<line fill="#B4C3C9" stroke="#D1D0D0" stroke-width="0.4169" stroke-miterlimit="10" x1="-12.607" y1="-34.646" x2="-12.607" y2="-49.062"/>
		</g>
		<polygon fill="#90ABB3" stroke="#D1D0D0" stroke-width="0.4573" stroke-miterlimit="10" points="-4.248,5.606 -33.063,5.606 
			-33.063,-1.375 -4.248,-1.375 		"/>
		<polygon fill="#545453" points="36.785,10.227 37.245,10.227 37.02,10.254 		"/>
		<polygon fill="#545453" points="-14.708,15.995 -19.789,15.995 -17.242,15.739 		"/>
		<polygon fill="#545453" points="-5.547,15.995 -10.588,15.995 -8.063,15.739 		"/>
		<polygon fill="#545453" points="45.738,10.254 45.752,10.254 45.745,10.254 		"/>
		<polygon fill="#545453" points="-23.846,15.995 -28.968,16 -26.399,15.739 		"/>
		<polygon fill="#545453" points="12.731,15.991 7.768,15.991 10.257,15.739 		"/>
		<polygon fill="#545453" points="21.867,15.987 16.948,15.987 19.414,15.739 		"/>
		<polygon fill="#545453" points="-25.976,10.059 -22.424,10.067 -24.157,10.254 		"/>
		<polygon fill="#545453" points="31.086,15.987 26.204,15.987 28.651,15.739 		"/>
		<polygon fill="#545453" points="-43.881,10.01 -39.443,10.023 -41.608,10.254 		"/>
		<polygon fill="#545453" points="-34.927,10.038 -30.933,10.047 -32.88,10.254 		"/>
		<polygon fill="#545453" points="3.591,15.991 -1.409,15.991 1.096,15.739 		"/>
		<polygon fill="#545453" points="9.853,10.156 11.637,10.16 10.767,10.254 		"/>
		<polygon fill="#545453" points="27.833,10.204 28.732,10.204 28.292,10.254 		"/>
		<polygon fill="#545453" points="0.899,10.13 3.128,10.138 2.043,10.254 		"/>
		<polygon fill="#545453" points="-17.025,10.086 -13.896,10.09 -15.42,10.254 		"/>
		<polygon fill="#545453" points="-8.052,10.108 -5.383,10.117 -6.682,10.254 		"/>
		<polygon fill="#545453" points="-32.986,16 -38.148,16 -35.56,15.739 		"/>
		<polygon fill="#545453" points="-43.241,16 -43.388,15.875 -42.123,16 		"/>
		<polygon fill="#545453" points="49.364,15.981 44.563,15.981 46.966,15.739 		"/>
		<g>
			<polygon fill="#545453" points="53.875,10.272 53.374,10.76 48.004,15.981 -46.942,16 -53.699,9.992 			"/>
			<polygon fill="#545453" points="35.827,15.991 31.086,15.991 33.46,15.747 			"/>
			<polygon fill="#4E4F51" points="45.928,15.712 41.442,15.252 36.955,15.712 32.47,15.252 27.984,15.712 23.496,15.252 19,15.716 
				19,15.895 18.943,15.895 18.943,15.716 14.447,15.252 9.958,15.712 5.474,15.252 0.989,15.712 -3.5,15.252 -7.986,15.712 
				-12.474,15.252 -16.971,15.716 -21.467,15.252 -25.954,15.712 -30.439,15.252 -34.925,15.712 -39.414,15.252 -43.9,15.712 
				-47.581,15.335 -48.259,14.733 -43.911,15.182 -43.911,15.182 -43.9,15.182 -43.892,15.182 -43.892,15.182 -39.414,14.72 
				-34.936,15.182 -34.936,15.182 -34.925,15.182 -34.916,15.182 -34.916,15.182 -30.439,14.72 -25.963,15.182 -25.963,15.182 
				-25.954,15.182 -25.943,15.182 -25.943,15.182 -21.467,14.72 -16.971,15.182 -12.474,14.72 -7.997,15.182 -7.997,15.182 
				-7.986,15.182 -7.978,15.182 -7.978,15.182 -3.5,14.72 0.978,15.182 0.978,15.182 0.989,15.182 0.997,15.182 0.997,15.182 
				5.474,14.72 9.951,15.182 9.951,15.182 9.958,15.182 9.971,15.182 9.971,15.182 14.447,14.72 18.943,15.182 18.943,14.792 
				14.447,14.325 9.958,14.785 5.474,14.325 0.989,14.785 -3.5,14.325 -7.986,14.785 -12.474,14.325 -16.971,14.792 -21.467,14.325 
				-25.954,14.785 -30.439,14.325 -34.925,14.785 -39.414,14.325 -43.9,14.785 -48.388,14.325 -48.684,14.356 -49.221,13.878 
				-48.388,13.793 -43.911,14.255 -43.911,14.255 -43.9,14.255 -43.892,14.255 -43.892,14.255 -39.414,13.793 -34.936,14.255 
				-34.936,14.255 -34.925,14.255 -34.917,14.255 -34.917,14.255 -30.439,13.793 -25.963,14.255 -25.963,14.255 -25.954,14.255 
				-25.943,14.255 -25.943,14.255 -21.467,13.793 -16.971,14.255 -12.474,13.793 -7.997,14.255 -7.997,14.255 -7.986,14.255 
				-7.978,14.255 -7.978,14.255 -3.5,13.793 0.978,14.255 0.978,14.255 0.989,14.255 0.997,14.255 0.997,14.255 5.474,13.793 
				9.951,14.255 9.951,14.255 9.958,14.255 9.971,14.255 9.971,14.255 14.447,13.793 18.943,14.255 18.943,13.865 14.447,13.399 
				9.958,13.859 5.474,13.399 0.989,13.859 -3.5,13.399 -7.986,13.859 -12.474,13.399 -16.971,13.865 -21.467,13.399 
				-25.954,13.859 -30.439,13.399 -34.925,13.859 -39.414,13.399 -43.9,13.859 -48.388,13.399 -49.617,13.527 -50.154,13.049 
				-48.388,12.869 -43.911,13.329 -43.911,13.329 -43.9,13.329 -43.892,13.329 -43.892,13.329 -39.414,12.869 -34.936,13.329 
				-34.936,13.329 -34.925,13.329 -34.917,13.329 -34.917,13.329 -30.439,12.869 -25.963,13.329 -25.963,13.329 -25.954,13.329 
				-25.943,13.329 -25.943,13.329 -21.467,12.869 -16.971,13.329 -12.474,12.869 -7.997,13.329 -7.997,13.329 -7.986,13.329 
				-7.978,13.329 -7.978,13.329 -3.5,12.869 0.978,13.329 0.978,13.329 0.989,13.329 0.997,13.329 0.997,13.329 5.474,12.869 
				9.951,13.329 9.951,13.329 9.958,13.329 9.971,13.329 9.971,13.329 14.447,12.869 18.943,13.329 18.943,12.939 14.447,12.473 
				9.958,12.936 5.474,12.473 0.989,12.936 -3.5,12.473 -7.986,12.936 -12.474,12.473 -16.971,12.939 -21.467,12.473 
				-25.954,12.936 -30.439,12.473 -34.925,12.936 -39.414,12.473 -43.9,12.936 -48.388,12.473 -50.549,12.695 -51.088,12.216 
				-48.388,11.942 -43.911,12.402 -43.911,12.402 -43.9,12.402 -43.892,12.402 -43.892,12.402 -39.414,11.942 -34.936,12.402 
				-34.936,12.402 -34.925,12.402 -34.917,12.402 -34.917,12.402 -30.439,11.942 -25.963,12.402 -25.963,12.402 -25.954,12.402 
				-25.943,12.402 -25.943,12.402 -21.467,11.942 -16.971,12.402 -12.474,11.942 -7.997,12.402 -7.997,12.402 -7.988,12.402 
				-7.978,12.402 -7.978,12.402 -3.5,11.942 0.978,12.402 0.978,12.402 0.989,12.402 0.997,12.402 0.997,12.402 5.474,11.942 
				9.951,12.402 9.951,12.402 9.958,12.402 9.971,12.402 9.971,12.402 14.447,11.942 18.943,12.402 18.943,12.009 14.447,11.547 
				9.958,12.009 5.474,11.547 0.989,12.009 -3.5,11.547 -7.988,12.009 -12.474,11.547 -16.971,12.009 -21.467,11.547 
				-25.954,12.009 -30.439,11.547 -34.925,12.009 -39.414,11.547 -43.9,12.009 -48.388,11.547 -51.484,11.866 -52.02,11.39 
				-48.388,11.017 -43.911,11.477 -43.911,11.477 -43.9,11.477 -43.892,11.477 -43.892,11.477 -39.414,11.017 -34.936,11.477 
				-34.936,11.477 -34.925,11.477 -34.917,11.477 -34.917,11.477 -30.439,11.017 -25.963,11.477 -25.963,11.477 -25.954,11.477 
				-25.943,11.477 -25.943,11.477 -21.467,11.017 -16.971,11.477 -12.474,11.017 -7.997,11.477 -7.997,11.477 -7.988,11.477 
				-7.978,11.477 -7.978,11.477 -3.5,11.017 0.978,11.477 0.978,11.477 0.989,11.477 0.997,11.477 0.997,11.477 5.474,11.017 
				9.951,11.477 9.951,11.477 9.958,11.477 9.971,11.477 9.971,11.477 14.447,11.017 18.943,11.477 18.943,11.083 14.447,10.623 
				9.958,11.083 5.474,10.623 0.989,11.083 -3.5,10.623 -7.988,11.083 -12.474,10.623 -16.971,11.083 -21.467,10.623 
				-25.954,11.083 -30.439,10.623 -34.925,11.083 -39.414,10.623 -43.9,11.083 -48.388,10.623 -52.417,11.037 -53.699,9.896 
				-50.429,9.903 -52.884,10.156 -52.884,10.553 -48.388,10.09 -43.911,10.553 -43.911,10.553 -43.9,10.553 -43.892,10.553 
				-43.892,10.553 -39.414,10.09 -34.936,10.553 -34.936,10.553 -34.925,10.553 -34.917,10.553 -34.917,10.553 -30.439,10.09 
				-25.963,10.553 -25.963,10.553 -25.954,10.553 -25.943,10.553 -25.943,10.553 -21.467,10.09 -16.971,10.553 -12.474,10.09 
				-7.997,10.553 -7.997,10.553 -7.988,10.553 -7.978,10.553 -7.978,10.553 -3.5,10.09 0.978,10.553 0.978,10.553 0.989,10.553 
				0.997,10.553 0.997,10.553 5.474,10.09 9.951,10.553 9.951,10.553 9.958,10.553 9.971,10.553 9.971,10.553 14.447,10.09 
				18.943,10.553 18.943,10.156 18.226,10.086 19.679,10.09 19,10.156 19,10.553 23.405,10.099 23.591,10.099 27.974,10.553 
				27.974,10.553 27.984,10.553 27.993,10.553 27.993,10.553 32.155,10.121 32.797,10.121 36.944,10.553 36.944,10.553 
				36.955,10.553 36.966,10.553 36.966,10.553 40.908,10.144 42.004,10.148 45.918,10.553 45.918,10.553 45.928,10.553 
				45.939,10.553 45.939,10.553 49.659,10.167 51.21,10.171 53.626,10.417 53.375,10.662 53.129,10.9 50.417,10.623 45.928,11.083 
				41.442,10.623 36.955,11.083 32.47,10.623 27.984,11.083 23.496,10.623 19,11.083 19,11.477 23.496,11.017 27.974,11.477 
				27.974,11.477 27.984,11.477 27.993,11.477 27.993,11.477 32.47,11.017 36.944,11.477 36.944,11.477 36.955,11.477 
				36.966,11.477 36.966,11.477 41.442,11.017 45.92,11.477 45.92,11.477 45.928,11.477 45.939,11.477 45.939,11.477 50.417,11.017 
				52.764,11.255 52.271,11.737 50.417,11.547 45.928,12.009 41.442,11.547 36.955,12.009 32.47,11.547 27.984,12.009 
				23.496,11.547 19,12.009 19,12.402 23.496,11.942 27.974,12.402 27.974,12.402 27.984,12.402 27.993,12.402 27.993,12.402 
				32.47,11.942 36.944,12.402 36.944,12.402 36.955,12.402 36.966,12.402 36.966,12.402 41.442,11.942 45.92,12.402 45.92,12.402 
				45.928,12.402 45.939,12.402 45.939,12.402 50.417,11.942 51.905,12.094 51.41,12.574 50.417,12.473 45.928,12.936 
				41.442,12.473 36.955,12.936 32.47,12.473 27.984,12.936 23.496,12.473 19,12.939 19,13.329 23.496,12.869 27.974,13.329 
				27.974,13.329 27.984,13.329 27.993,13.329 27.993,13.329 32.47,12.869 36.944,13.329 36.944,13.329 36.955,13.329 
				36.966,13.329 36.966,13.329 41.442,12.869 45.92,13.329 45.92,13.329 45.928,13.329 45.939,13.329 45.939,13.329 50.417,12.869 
				51.044,12.931 50.547,13.412 50.417,13.399 45.928,13.859 41.442,13.399 36.955,13.859 32.47,13.399 27.984,13.859 
				23.496,13.399 19,13.865 19,14.255 23.496,13.793 27.974,14.255 27.974,14.255 27.984,14.255 27.993,14.255 27.993,14.255 
				32.47,13.793 36.944,14.255 36.944,14.255 36.955,14.255 36.966,14.255 36.966,14.255 41.442,13.793 45.92,14.255 45.92,14.255 
				45.928,14.255 45.939,14.255 45.939,14.255 50.126,13.82 49.513,14.419 45.928,14.785 41.442,14.325 36.955,14.785 32.47,14.325 
				27.984,14.785 23.496,14.325 19,14.792 19,15.182 23.496,14.72 27.974,15.182 27.974,15.182 27.984,15.182 27.993,15.182 
				27.993,15.182 32.47,14.72 36.944,15.182 36.944,15.182 36.955,15.182 36.966,15.182 36.966,15.182 41.442,14.72 45.92,15.182 
				45.92,15.182 45.928,15.182 45.939,15.182 45.939,15.182 49.06,14.858 48.451,15.455 			"/>
		</g>
		<polyline fill="none" stroke="#282827" stroke-width="0.4734" stroke-miterlimit="10" points="54.132,9.992 -0.149,9.992 
			-53.794,9.992 		"/>
		<polyline fill="none" stroke="#807B77" stroke-width="1.026" stroke-miterlimit="10" points="21.867,39.415 -0.409,39.415 
			-22.424,39.415 		"/>
		<polyline fill="none" stroke="#454548" stroke-width="2.2402" stroke-linecap="square" stroke-miterlimit="10" points="
			53.514,10.732 0,62.55 -53.514,10.732 		"/>
		<g>
			<polygon fill="#788080" points="41.898,-44.359 12.839,-44.359 12.839,-41.607 41.898,-41.607 			"/>
			<polygon fill="#788080" points="41.898,-48.798 12.839,-48.798 12.839,-46.042 41.898,-46.042 			"/>
			<polygon fill="#788080" points="41.898,-53.236 12.839,-53.236 12.839,-50.48 41.898,-50.48 			"/>
			<polygon fill="#788080" points="41.898,-62.108 12.839,-62.108 12.839,-59.359 41.898,-59.359 			"/>
			<polygon fill="#788080" points="41.898,-57.675 12.839,-57.675 12.839,-54.919 41.898,-54.919 			"/>
			<polygon fill="#545453" points="13.844,-38.425 11.749,-38.425 11.749,-23.362 13.844,-23.362 			"/>
			<polygon fill="#5D5959" points="13.52,-50.817 12.247,-50.817 12.247,-26.056 13.52,-26.056 			"/>
			<polygon fill="#545453" points="13.931,-64.108 11.835,-64.108 11.835,-49.05 13.931,-49.05 			"/>
			<polygon fill="#545453" points="42.298,-38.425 40.199,-38.425 40.199,-23.362 42.298,-23.362 			"/>
			<polygon fill="#5D5959" points="41.975,-50.817 40.699,-50.817 40.699,-26.056 41.975,-26.056 			"/>
			<polygon fill="#545453" points="42.383,-64.108 40.289,-64.108 40.289,-49.05 42.383,-49.05 			"/>
		</g>
	</g>
	<path opacity="0.4" fill="#D1EADE" d="M34.457-6.759c0-19.153-15.527-34.681-34.681-34.681S-34.905-25.912-34.905-6.759
		s15.527,34.681,34.681,34.681S34.457,12.395,34.457-6.759z"/>
	<g>
		<path fill="none" stroke="#3F75BA" stroke-width="5" stroke-miterlimit="10" d="M9.797,7.393c4.806-3.2,7.973-8.667,7.973-14.873
			c0-9.861-7.994-17.855-17.855-17.855S-17.941-17.342-17.941-7.48c0,5.715,2.685,10.803,6.862,14.07"/>
		<line fill="none" stroke="#3F75BA" stroke-width="5" stroke-miterlimit="10" x1="-0.156" y1="13.128" x2="-0.156" y2="-16.842"/>
	</g>
</symbol>
<symbol  id="sun_2" viewBox="-102.17 -102.17 204.34 204.34">
	<g id="suns_11_" opacity="0.15">
		<radialGradient id="SVGID_2_" cx="4.882812e-04" cy="0" r="102.17" gradientUnits="userSpaceOnUse">
			<stop  offset="0" style="stop-color:#FFFFFF"/>
			<stop  offset="1" style="stop-color:#FDD412"/>
		</radialGradient>
		<path fill="url(#SVGID_2_)" d="M0.002,102.17c56.423,0,102.168-45.744,102.168-102.168c0-56.432-45.745-102.172-102.168-102.172
			c-56.428,0-102.172,45.74-102.172,102.172C-102.17,56.426-56.425,102.17,0.002,102.17z"/>
	</g>
	<g id="suns_10_">
		<path fill="#FDD412" stroke="#E1CC7D" stroke-width="1.6642" stroke-miterlimit="10" d="M0.001,43.782
			c24.179,0,43.781-19.603,43.781-43.781c0-24.183-19.603-43.783-43.781-43.783c-24.181,0-43.783,19.601-43.783,43.783
			C-43.782,24.18-24.179,43.782,0.001,43.782z"/>
	</g>
</symbol>
<text transform="matrix(1 0 0 1 583.4365 124.5088)" fill="#565756" font-family="'OpenSans-Semibold'" font-size="20">x 650,000</text>
<text transform="matrix(1 0 0 1 583.4365 351.5088)" fill="#565756" font-family="'OpenSans-Semibold'" font-size="20">X 900,000</text>
<use xlink:href="#poweringhouse"  width="110.196" height="128.217" x="-55.098" y="-64.109" transform="matrix(1 0 0 -1 510.9434 322.9492)" overflow="visible"/>
<use xlink:href="#heatinghouse"  width="117.799" height="148.45" x="-58.9" y="-74.225" transform="matrix(1 0 0 -1 508.5625 111.2295)" overflow="visible"/>
<g>
	<g>
		
			<line fill="none" stroke="#B3B6AD" stroke-width="5" stroke-miterlimit="10" x1="382.417" y1="194.429" x2="415.341" y2="161.503"/>
		<g>
			<polygon fill="#B3B6AD" points="418.459,167.2 421.684,155.16 409.645,158.386 			"/>
		</g>
	</g>
</g>
<g>
	<g>
		
			<line fill="none" stroke="#B3B6AD" stroke-width="5" stroke-miterlimit="10" x1="382.417" y1="273.588" x2="415.341" y2="306.514"/>
		<g>
			<polygon fill="#B3B6AD" points="409.645,309.632 421.684,312.856 418.459,300.817 			"/>
		</g>
	</g>
</g>
<text transform="matrix(1 0 0 1 495.0908 233.1025)" fill="#565756" font-family="'OpenSansLight-Italic'" font-size="20">or</text>
<use xlink:href="#sun_2"  width="204.34" height="204.34" x="-102.17" y="-102.17" transform="matrix(1.2212 0 0 -1.2212 240.7036 229.1025)" overflow="visible"/>
</svg>
