<?xml version="1.0" encoding="utf-8"?>
<!-- Generator: Adobe Illustrator 16.0.0, SVG Export Plug-In . SVG Version: 6.00 Build 0)  -->
<!DOCTYPE svg PUBLIC "-//W3C//DTD SVG 1.1//EN" "http://www.w3.org/Graphics/SVG/1.1/DTD/svg11.dtd">
<svg version="1.1" id="Layer_1" xmlns="http://www.w3.org/2000/svg" xmlns:xlink="http://www.w3.org/1999/xlink" x="0px" y="0px"
	 width="945.461px" height="804.008px" viewBox="0 0 945.461 804.008" enable-background="new 0 0 945.461 804.008"
	 xml:space="preserve">
<pattern  x="-536.833" y="95.969" width="144" height="150" patternUnits="userSpaceOnUse" id="Vertical_Stripe_copy_3" viewBox="0 -150 144 150" overflow="visible">
	<g>
		<polygon fill="none" points="0,-150 144,-150 144,0 0,0 		"/>
		<g>
			<line fill="none" stroke="#2980BA" stroke-width="2" stroke-miterlimit="10" x1="122" y1="-150" x2="122" y2="0"/>
			<line fill="none" stroke="#2980BA" stroke-width="2" stroke-miterlimit="10" x1="126" y1="-150" x2="126" y2="0"/>
			<line fill="none" stroke="#2980BA" stroke-width="2" stroke-miterlimit="10" x1="130" y1="-150" x2="130" y2="0"/>
			<line fill="none" stroke="#2980BA" stroke-width="2" stroke-miterlimit="10" x1="134" y1="-150" x2="134" y2="0"/>
			<line fill="none" stroke="#2980BA" stroke-width="2" stroke-miterlimit="10" x1="138" y1="-150" x2="138" y2="0"/>
			<line fill="none" stroke="#2980BA" stroke-width="2" stroke-miterlimit="10" x1="142" y1="-150" x2="142" y2="0"/>
		</g>
		<g>
			<line fill="none" stroke="#2980BA" stroke-width="2" stroke-miterlimit="10" x1="74" y1="-150" x2="74" y2="0"/>
			<line fill="none" stroke="#2980BA" stroke-width="2" stroke-miterlimit="10" x1="78" y1="-150" x2="78" y2="0"/>
			<line fill="none" stroke="#2980BA" stroke-width="2" stroke-miterlimit="10" x1="82" y1="-150" x2="82" y2="0"/>
			<line fill="none" stroke="#2980BA" stroke-width="2" stroke-miterlimit="10" x1="86" y1="-150" x2="86" y2="0"/>
			<line fill="none" stroke="#2980BA" stroke-width="2" stroke-miterlimit="10" x1="90" y1="-150" x2="90" y2="0"/>
			<line fill="none" stroke="#2980BA" stroke-width="2" stroke-miterlimit="10" x1="94" y1="-150" x2="94" y2="0"/>
			<line fill="none" stroke="#2980BA" stroke-width="2" stroke-miterlimit="10" x1="98" y1="-150" x2="98" y2="0"/>
			<line fill="none" stroke="#2980BA" stroke-width="2" stroke-miterlimit="10" x1="102" y1="-150" x2="102" y2="0"/>
			<line fill="none" stroke="#2980BA" stroke-width="2" stroke-miterlimit="10" x1="106" y1="-150" x2="106" y2="0"/>
			<line fill="none" stroke="#2980BA" stroke-width="2" stroke-miterlimit="10" x1="110" y1="-150" x2="110" y2="0"/>
			<line fill="none" stroke="#2980BA" stroke-width="2" stroke-miterlimit="10" x1="114" y1="-150" x2="114" y2="0"/>
			<line fill="none" stroke="#2980BA" stroke-width="2" stroke-miterlimit="10" x1="118" y1="-150" x2="118" y2="0"/>
			<line fill="none" stroke="#2980BA" stroke-width="2" stroke-miterlimit="10" x1="122" y1="-150" x2="122" y2="0"/>
			<line fill="none" stroke="#2980BA" stroke-width="2" stroke-miterlimit="10" x1="126" y1="-150" x2="126" y2="0"/>
			<line fill="none" stroke="#2980BA" stroke-width="2" stroke-miterlimit="10" x1="130" y1="-150" x2="130" y2="0"/>
			<line fill="none" stroke="#2980BA" stroke-width="2" stroke-miterlimit="10" x1="134" y1="-150" x2="134" y2="0"/>
			<line fill="none" stroke="#2980BA" stroke-width="2" stroke-miterlimit="10" x1="138" y1="-150" x2="138" y2="0"/>
			<line fill="none" stroke="#2980BA" stroke-width="2" stroke-miterlimit="10" x1="142" y1="-150" x2="142" y2="0"/>
		</g>
		<g>
			<line fill="none" stroke="#2980BA" stroke-width="2" stroke-miterlimit="10" x1="26" y1="-150" x2="26" y2="0"/>
			<line fill="none" stroke="#2980BA" stroke-width="2" stroke-miterlimit="10" x1="30" y1="-150" x2="30" y2="0"/>
			<line fill="none" stroke="#2980BA" stroke-width="2" stroke-miterlimit="10" x1="34" y1="-150" x2="34" y2="0"/>
			<line fill="none" stroke="#2980BA" stroke-width="2" stroke-miterlimit="10" x1="38" y1="-150" x2="38" y2="0"/>
			<line fill="none" stroke="#2980BA" stroke-width="2" stroke-miterlimit="10" x1="42" y1="-150" x2="42" y2="0"/>
			<line fill="none" stroke="#2980BA" stroke-width="2" stroke-miterlimit="10" x1="46" y1="-150" x2="46" y2="0"/>
			<line fill="none" stroke="#2980BA" stroke-width="2" stroke-miterlimit="10" x1="50" y1="-150" x2="50" y2="0"/>
			<line fill="none" stroke="#2980BA" stroke-width="2" stroke-miterlimit="10" x1="54" y1="-150" x2="54" y2="0"/>
			<line fill="none" stroke="#2980BA" stroke-width="2" stroke-miterlimit="10" x1="58" y1="-150" x2="58" y2="0"/>
			<line fill="none" stroke="#2980BA" stroke-width="2" stroke-miterlimit="10" x1="62" y1="-150" x2="62" y2="0"/>
			<line fill="none" stroke="#2980BA" stroke-width="2" stroke-miterlimit="10" x1="66" y1="-150" x2="66" y2="0"/>
			<line fill="none" stroke="#2980BA" stroke-width="2" stroke-miterlimit="10" x1="70" y1="-150" x2="70" y2="0"/>
			<line fill="none" stroke="#2980BA" stroke-width="2" stroke-miterlimit="10" x1="74" y1="-150" x2="74" y2="0"/>
			<line fill="none" stroke="#2980BA" stroke-width="2" stroke-miterlimit="10" x1="78" y1="-150" x2="78" y2="0"/>
			<line fill="none" stroke="#2980BA" stroke-width="2" stroke-miterlimit="10" x1="82" y1="-150" x2="82" y2="0"/>
			<line fill="none" stroke="#2980BA" stroke-width="2" stroke-miterlimit="10" x1="86" y1="-150" x2="86" y2="0"/>
			<line fill="none" stroke="#2980BA" stroke-width="2" stroke-miterlimit="10" x1="90" y1="-150" x2="90" y2="0"/>
			<line fill="none" stroke="#2980BA" stroke-width="2" stroke-miterlimit="10" x1="94" y1="-150" x2="94" y2="0"/>
			<line fill="none" stroke="#2980BA" stroke-width="2" stroke-miterlimit="10" x1="98" y1="-150" x2="98" y2="0"/>
			<line fill="none" stroke="#2980BA" stroke-width="2" stroke-miterlimit="10" x1="102" y1="-150" x2="102" y2="0"/>
			<line fill="none" stroke="#2980BA" stroke-width="2" stroke-miterlimit="10" x1="106" y1="-150" x2="106" y2="0"/>
			<line fill="none" stroke="#2980BA" stroke-width="2" stroke-miterlimit="10" x1="110" y1="-150" x2="110" y2="0"/>
			<line fill="none" stroke="#2980BA" stroke-width="2" stroke-miterlimit="10" x1="114" y1="-150" x2="114" y2="0"/>
			<line fill="none" stroke="#2980BA" stroke-width="2" stroke-miterlimit="10" x1="118" y1="-150" x2="118" y2="0"/>
		</g>
		<g>
			<line fill="none" stroke="#2980BA" stroke-width="2" stroke-miterlimit="10" x1="2" y1="-150" x2="2" y2="0"/>
			<line fill="none" stroke="#2980BA" stroke-width="2" stroke-miterlimit="10" x1="6" y1="-150" x2="6" y2="0"/>
			<line fill="none" stroke="#2980BA" stroke-width="2" stroke-miterlimit="10" x1="10" y1="-150" x2="10" y2="0"/>
			<line fill="none" stroke="#2980BA" stroke-width="2" stroke-miterlimit="10" x1="14" y1="-150" x2="14" y2="0"/>
			<line fill="none" stroke="#2980BA" stroke-width="2" stroke-miterlimit="10" x1="18" y1="-150" x2="18" y2="0"/>
			<line fill="none" stroke="#2980BA" stroke-width="2" stroke-miterlimit="10" x1="22" y1="-150" x2="22" y2="0"/>
			<line fill="none" stroke="#2980BA" stroke-width="2" stroke-miterlimit="10" x1="26" y1="-150" x2="26" y2="0"/>
			<line fill="none" stroke="#2980BA" stroke-width="2" stroke-miterlimit="10" x1="30" y1="-150" x2="30" y2="0"/>
			<line fill="none" stroke="#2980BA" stroke-width="2" stroke-miterlimit="10" x1="34" y1="-150" x2="34" y2="0"/>
			<line fill="none" stroke="#2980BA" stroke-width="2" stroke-miterlimit="10" x1="38" y1="-150" x2="38" y2="0"/>
			<line fill="none" stroke="#2980BA" stroke-width="2" stroke-miterlimit="10" x1="42" y1="-150" x2="42" y2="0"/>
			<line fill="none" stroke="#2980BA" stroke-width="2" stroke-miterlimit="10" x1="46" y1="-150" x2="46" y2="0"/>
			<line fill="none" stroke="#2980BA" stroke-width="2" stroke-miterlimit="10" x1="50" y1="-150" x2="50" y2="0"/>
			<line fill="none" stroke="#2980BA" stroke-width="2" stroke-miterlimit="10" x1="54" y1="-150" x2="54" y2="0"/>
			<line fill="none" stroke="#2980BA" stroke-width="2" stroke-miterlimit="10" x1="58" y1="-150" x2="58" y2="0"/>
			<line fill="none" stroke="#2980BA" stroke-width="2" stroke-miterlimit="10" x1="62" y1="-150" x2="62" y2="0"/>
			<line fill="none" stroke="#2980BA" stroke-width="2" stroke-miterlimit="10" x1="66" y1="-150" x2="66" y2="0"/>
			<line fill="none" stroke="#2980BA" stroke-width="2" stroke-miterlimit="10" x1="70" y1="-150" x2="70" y2="0"/>
		</g>
		<g>
			<line fill="none" stroke="#2980BA" stroke-width="2" stroke-miterlimit="10" x1="2" y1="-150" x2="2" y2="0"/>
			<line fill="none" stroke="#2980BA" stroke-width="2" stroke-miterlimit="10" x1="6" y1="-150" x2="6" y2="0"/>
			<line fill="none" stroke="#2980BA" stroke-width="2" stroke-miterlimit="10" x1="10" y1="-150" x2="10" y2="0"/>
			<line fill="none" stroke="#2980BA" stroke-width="2" stroke-miterlimit="10" x1="14" y1="-150" x2="14" y2="0"/>
			<line fill="none" stroke="#2980BA" stroke-width="2" stroke-miterlimit="10" x1="18" y1="-150" x2="18" y2="0"/>
			<line fill="none" stroke="#2980BA" stroke-width="2" stroke-miterlimit="10" x1="22" y1="-150" x2="22" y2="0"/>
		</g>
	</g>
</pattern>
<g>
	<g>
		<path fill="none" stroke="#2980BA" stroke-width="3" stroke-linecap="round" stroke-linejoin="round" stroke-miterlimit="10" d="
			M945.46,266.67c-0.771,2.008-1.128,4.319-2.392,5.971c-5.805,7.582-11.865,14.98-17.834,22.443l0.092,0.195
			c-6.209-6.025-8.693-5.833-12.475,0.964c-3.701,1.817-7.329,3.797-11.119,5.41c-5.365,2.286-11.99,3.077-16.061,6.675
			c-9.813,8.668-18.434,18.613-27.582,27.997c-1.51,1.549-3.027,3.419-4.945,4.2c-7.389,3.014-14.941,5.647-22.434,8.422
			c-1.496,0.045-2.994,0.069-4.488,0.146c-0.494,0.027-0.982,0.192-1.473,0.295c0.242,0.178,0.469,0.384,0.73,0.529
			c0.621,0.348,1.261,0.667,1.893,0.998c-0.738,0.095-1.477,0.202-2.215,0.285c-9.643,1.084-19.285,2.136-28.918,3.297
			c-0.857,0.104-1.629,0.91-2.439,1.39c0.525,0.71,1.004,1.983,1.586,2.029c2.373,0.189,4.779,0.005,7.173-0.043
			c-2.101,0.906-4.204,1.808-6.296,2.732c-0.121,0.054-0.162,0.298-0.229,0.456c-1.369,3.281,4.496,14.624,8.098,15.333
			c13.162,2.587,26.414,4.776,39.504,7.664c12.379,2.729,24.299,1.419,36.628-0.865c16.242-3.008,32.374-0.576,42.961,12.877
			c5.279,6.706,7.981,16.365,8.972,25.002c1.239,10.812,2.635,20.927,10.557,28.655 M444.264,189.603
			c1.387-0.28,13.361-3.097,14.764-2.684c5.828,1.715,11.732,3.272,17.385,5.441c9.426,3.616,15.17-3.374,21.631-7.228
			c6.479-3.862,10.947-2.721,16.617,1.382c4.672,3.382,10.637,5.053,15.998,7.542c1.311,0.61,2.703,1.265,3.719,2.235
			c4.967,4.758,10.584,5.923,17.055,3.394c4.984-1.947,9.873-4.298,15.037-5.581c6.449-1.603,13.098-2.748,19.727-3.278
			c10.543-0.844,21.822-5.115,30.676,4.942c0.677,0.768,2.887,0.611,4.281,0.355c4.494-0.826,8.1-1.854,13.336,0.562
			c5.133,2.368,14.809,2.201,18.602-1.101c5.629-4.902,10.459-5.421,16.807-4.644c2.25,0.275,4.619-0.178,6.91-0.467
			c9.607-1.215,19.135-2.305,26.209,6.398c3.607,4.436,7.31,8.793,11.008,13.156c1.578,1.859,3.662,3.588-0.439,5.076
			c-0.541,0.197-1.027,2.132-0.656,2.787c0.75,1.328,2.105,2.331,3.211,3.469c0.564-0.535,1.633-1.084,1.617-1.604
			c-0.156-5.142,3.604-3.895,6.203-3.307c4.273,0.964,9.414-2.172,12.971,2.564c0.293,0.39,2.039-0.238,3.105-0.424
			c4.484-0.782,7.619-7.669,13.393-2.842c0.033,0.027,0.816-0.565,1.002-0.975c2.746-6.027,0.107-10.404-6.828-11.44
			c-1.256-0.187-2.736-0.153-3.697-0.804c-4.51-3.05-8.85-6.336-13.295-9.477c-10.227-7.228-21.164-13.696-30.387-21.98
			c-3.68-3.305-6.91-4.346-10.848-4.351c-4.865-0.005-9.736,1.017-14.589,1.711c-0.846,0.12-1.696,0.71-2.392,1.267
			c-8.126,6.51-16.954,11.176-27.918,10.863c-1.746-0.049-4.148,0.423-5.18,1.568c-5.062,5.623-11.793,4.41-18.121,4.531
			c-1.687,0.031-4.922-1.589-4.877-2.288c0.526-7.896-10.994-6.831-10.85-14.185c0.002-0.147-0.266-0.287-0.299-0.451
			c-0.977-4.916-2.891-9.874-2.689-14.747c0.326-7.857,2.178-15.645,3.068-23.495c0.18-1.575-1.051-3.303-1.633-4.959
			c-1.023,0.674-2.012,1.404-3.076,2.01c-1.044,0.595-2.149,1.1-3.281,1.503c-0.072,0.026-1.018-1.335-0.834-1.747
			c0.51-1.155,1.281-2.256,2.164-3.186c1.424-1.496,3.168-2.713,4.506-4.271c2.832-3.299,5.533-6.709,8.207-10.136
			c2.606-3.341,7.391-6.938,7.125-10.097c-0.396-4.725,1.779-3.248,3.975-3.548c1.396-0.19,2.801-1.261,4.087-1.093
			c2.599,0.34,5.118,1.253,7.671,1.931c-1.248,1.656-2.18,4.316-3.797,4.8c-7.693,2.297-9.082,6.809-7.154,13.941
			c0.654,2.424-1.418,5.633-2.484,8.394c-1.228,3.174-2.722,6.246-4.102,9.364c1.035,0.314,2.654,1.208,3.018,0.859
			c3.961-3.805,7.855-7.695,11.502-11.786c2.912-3.265,5.254-7.018,8.215-10.233c4.637-5.037,9.783-9.631,14.336-14.735
			c4.236-4.747,7.035-11.525,12.221-14.4c4.379-2.426,2.891-3.783,1.205-5.301c-4.59-4.128-3.459-8.56-1.715-13.271
			c0.311-0.834,0.664-1.807,0.51-2.627c-2.004-10.718,3.348-19.246,8.397-27.977c6.454-11.158,12.585-22.495,18.854-33.755
			 M727.861,29.486c-1.439-6.169-2.246-11.708-4.223-16.818c-0.583-1.504-4.473-1.793-6.848-2.638
			c-0.584,3.02-1.402,6.02-1.682,9.066c-0.279,3.051,0.969,8.387-0.154,8.858c-6.812,2.856-2.914,6.786-2.016,10.579
			c0.744,3.154,2.311,7.601-2.912,7.778c-7.117,0.24-5.232,2.7-2.473,6.104c1.518,1.871,4.008,3.605,4.32,5.652
			c0.5,3.282,0.133,6.958-0.932,10.128c-1.221,3.645-3.943,6.797-5.29,10.42c-0.478,1.284,0.955,3.451,1.897,4.99
			c2.9,4.729,5.967,9.361,9.043,13.982c0.205,0.31,1.039,0.22,1.582,0.313c-0.232-0.574-0.396-1.187-0.709-1.718
			c-1.557-2.646-3.445-5.145-4.676-7.924c-3.664-8.277-1.572-14.996,4.988-16.883c6.844-1.966,8.057-5.423,4.754-11.884
			c-1.02-1.996-1.486-4.765-0.982-6.907C723.379,44.802,725.729,37.132,727.861,29.486z M674.078,118.27
			c0.205-4.581-7.977-10.939-12.299-9.96c-0.984,0.224-2.141,1.684-2.375,2.751c-0.783,3.572-0.461,6.693,2.357,9.906
			c2.68,3.053,3.908,7.312,5.812,11.022c0.307,0.598,0.811,1.103,1.223,1.649c0.652-0.548,1.713-0.994,1.895-1.664
			C671.972,127.226,673.07,122.433,674.078,118.27z"/>
		<path fill="none" stroke="#2980BA" stroke-width="3" stroke-linecap="round" stroke-linejoin="round" stroke-miterlimit="10" d="
			M575.73,512.57c-4.178,1.666-8.852,3.669-13.125,3.314c-15.027-1.243-29.932-5.403-44.215-0.426
			c-2.126-0.226-3.412-0.362-4.701-0.499c0.703-1.182,1.117-2.786,2.163-3.473c4.767-3.126,9.36-7.015,14.665-8.739
			c10.535-3.423,19.342-8.334,24.314-18.436c1.334-2.711,12.412-4.875,13.797-7.562"/>
		<path fill="none" stroke="#2980BA" stroke-width="3" stroke-linecap="round" stroke-linejoin="round" stroke-miterlimit="10" d="
			M568.629,476.751c1.281,0.149,4.344-2.319,5.643-3.017c9.051-4.871,18.076-9.785,27.098-14.707
			c0.412-0.225,0.713-0.646,1.066-0.976c-0.436-0.276-0.842-0.636-1.316-0.814c-1.152-0.434-2.336-0.784-3.505-1.169
			c0.972-1.534,3.138-2.387,4.411-3.628c8.203-3.614,11.717-13.526,18.383-19.743c0.797-0.744,1.975-1.101,2.975-1.637
			c-0.078,0.986,0.072,2.053-0.27,2.942c-4.973,12.964-11.266,25.6-14.68,38.938c-3.365,13.146-23.186,30.839-32.703,39.629"/>
		<g>
			<g>
				<path fill="#2980BA" d="M386.513,410.105c3.746,0,7.693,0.459,12.068,1.402c1.288,0.277,2.546,0.281,3.655,0.285
					c0.767,0.002,1.489,0.004,2.109,0.094c1.808,0.262,3.643,0.496,5.416,0.723c4.759,0.607,9.68,1.234,14.254,2.439
					c3.548,0.935,6.959,2.305,10.57,3.756c2.78,1.117,5.655,2.271,8.604,3.211c14.298,4.555,29.168,10.056,40.036,22.66
					c3.521,4.084,7.904,7.895,12.678,11.021c5.523,3.618,11.147,6.829,17.102,10.229c2.444,1.396,4.973,2.839,7.487,4.311
					c0.466,0.272,0.989,0.41,1.515,0.41c0.419,0,0.839-0.088,1.232-0.265l4.635-2.085c5.512-2.478,10.271-4.617,15.067-6.846
					c0.722-0.335,1.28-0.942,1.554-1.688c0.679-1.854-0.282-3.341-1.111-4.266c0.229-0.347,0.452-0.694,0.674-1.036
					c1.266-1.962,2.574-3.989,3.988-4.674c6.92-3.351,19.514-12.878,28.71-19.834c2.535-1.917,4.772-3.61,6.523-4.895
					c2.56,0.063,5.137,0.092,7.639,0.12c5.015,0.056,10.199,0.113,15.234,0.453c1.876,0.128,6.023,1.34,8.67,2.438
					c-0.303,0.729-0.675,1.455-0.931,1.712c-1.551,1.544-3.091,3.103-4.633,4.661c-5.908,5.979-12.018,12.162-18.644,17.342
					c-4.688,3.664-9.871,6.628-15.358,9.765c-2.944,1.684-5.989,3.424-8.921,5.27c-0.12,0.075-0.233,0.159-0.341,0.25
					c-0.686,0.58-2.255,1.747-4.071,3.098c-8.089,6.015-12.146,9.266-13.333,11.477c-2.725,5.078-6.812,8.132-14.108,10.54
					c-13.177,4.35-25.893,9.059-37.794,13.994c-3.235,1.343-5.725,3.77-8.133,6.116c-0.925,0.901-1.798,1.753-2.69,2.521
					c-1.19,1.024-2.272,2.181-3.318,3.298c-1.84,1.967-3.578,3.823-5.359,4.389c-13.339,4.235-27.635,7.687-39.121,10.459
					c-16.32,3.937-29.382,12.052-39.931,24.808c-6.401,7.741-17.955,19.749-28.148,30.344c-5.605,5.826-10.953,11.385-15.148,15.915
					c-3.642-4.914-5.492-7.379-6.093-8.01c-0.687-0.73-1.642-1.101-2.842-1.102c-0.428,0-4.21,0.078-5.07,2.755
					c-0.635,1.958-0.562,4.258,0.189,6.005c0.403,0.931,0.506,1.474,0.528,1.737c-0.301,0.116-1.029,0.305-2.594,0.323
					c-1.978,0.022-4.062,0.166-5.897,1.057c-5.267,2.549-10.596,5.18-15.749,7.725c-9.536,4.708-19.397,9.576-29.203,14.094
					c-3.268,1.504-7.626,1.717-11.455,1.798c-0.23,0.005-0.461,0.007-0.691,0.007c-2.675,0-5.361-0.301-8.206-0.618
					c-1.781-0.199-3.622-0.405-5.468-0.531c-0.971-0.066-2.009-0.097-3.267-0.097c-0.88,0-1.767,0.015-2.651,0.03
					c-0.85,0.015-1.698,0.029-2.54,0.029c-2.556,0-5.229-0.121-7.465-0.997c-6.06-2.378-11.83-6.151-17.41-9.801
					c-0.988-0.646-1.975-1.291-2.963-1.93c-0.052-0.36-0.091-0.875-0.119-1.253c-0.056-0.758-0.114-1.542-0.277-2.307
					c-0.134-0.637-0.305-1.217-0.471-1.776c-0.066-0.224-0.133-0.447-0.194-0.672c-0.249-0.898-0.91-1.626-1.775-1.976
					c-0.359-0.146-0.74-0.218-1.119-0.218c-0.534,0-1.065,0.142-1.535,0.419c-0.072,0.042-0.291,0.14-0.436,0.204
					c-0.884,0.396-2.356,1.054-2.897,2.708c-0.005-0.004-0.009-0.007-0.014-0.011c-0.457-0.38-0.931-0.772-1.463-1.118
					c-0.212-0.138-0.533-0.475-0.844-0.8c-0.745-0.78-1.673-1.752-3.078-2.245c-2.493-0.877-5.029-1.819-7.481-2.73
					c-11.456-4.257-23.302-8.659-36.328-8.659c-1.091,0-2.192,0.031-3.28,0.093c-0.072,0.005-0.146,0.007-0.219,0.007
					c-0.053,0-0.106-0.001-0.16-0.003c0.227-0.282,0.405-0.607,0.52-0.964c0.35-1.084,0.054-2.272-0.762-3.067l-0.071-0.073
					c-0.154-0.161-0.388-0.404-0.69-0.627c-0.787-0.595-1.779-0.871-3.122-0.871c-1.767,0-4.884,0.578-6.805,1.524
					c-0.077-0.027-0.146-0.056-0.19-0.08c-5.102-3.087-10.568-5.746-16.546-8.025c0.444-0.147,0.854-0.399,1.191-0.74
					c0.107-0.109,0.205-0.225,0.293-0.347c0.337,0.484,0.693,0.977,1.104,1.466c0.907,1.08,2.134,1.277,2.793,1.384
					c0.074,0.012,0.148,0.022,0.189,0.03c0.268,0.075,0.541,0.112,0.812,0.112c0.731,0,1.449-0.269,2.008-0.771
					c0.765-0.688,1.123-1.722,0.949-2.736c-0.196-1.146-0.123-1.7-0.073-1.909c0.152-0.045,0.494-0.11,1.184-0.11
					c0.463,0,0.961,0.027,1.488,0.056c0.552,0.031,1.122,0.062,1.686,0.062c0.832,0,1.504-0.069,2.114-0.218
					c2.354-0.57,8.604-2.086,8.472-9.273c-0.23-12.202-0.475-23.221-1.131-34.499c-0.222-3.812-0.811-7.592-1.38-11.247
					c-0.384-2.47-0.782-5.024-1.051-7.51c-0.344-3.197-0.289-6.441-0.23-9.877c0.138-8.125,0.28-16.525-5.029-24.563
					c-0.143-0.926,0.438-3.272,1.014-4.172c3.173-1.133,6.255-1.755,8.722-1.755c1.165,0,2.205,0.134,3.092,0.398
					c6.543,1.95,13.697,2.858,22.516,2.858c4.511,0,9.062-0.227,13.465-0.446c4.323-0.216,8.793-0.439,13.144-0.439
					c3.021,0,5.729,0.105,8.277,0.323c0.743,0.063,1.507,0.095,2.269,0.095c3.239,0,6.352-0.555,9.001-1.604
					c18.256-7.238,29.354-21.571,33.931-43.817c1.043-5.071,13.446-16.324,20.306-17.353c0.321,0.008,0.643,0.011,0.964,0.011
					c1.456,0,2.908-0.072,4.312-0.142c1.386-0.069,2.694-0.135,3.989-0.135c1.595,0,2.882,0.101,4.05,0.317
					c3.375,0.624,6.66,1.685,10.138,2.807c2.729,0.881,5.55,1.792,8.436,2.479c2.708,0.644,6.403,0.984,10.686,0.984
					c11.777,0,32.23-2.845,41.063-10.647C376.146,411.069,381.097,410.105,386.513,410.105 M125.629,580.233
					c0.352,0,0.838,0.217,1.374,0.527c-0.545-0.158-1.095-0.315-1.647-0.469C125.454,580.253,125.546,580.233,125.629,580.233
					 M386.513,407.105c-5.638,0-11.215,0.988-16.761,3.384c-7.262,6.837-26.115,10.209-39.421,10.209
					c-3.979,0-7.465-0.303-9.992-0.903c-6.312-1.502-12.366-4.141-18.721-5.316c-1.503-0.278-3.04-0.367-4.596-0.367
					c-2.743,0-5.542,0.276-8.301,0.276c-0.375,0-0.75-0.005-1.124-0.017c-7.787,0.951-21.709,13.066-23.084,19.754
					c-3.82,18.573-12.963,34.046-32.098,41.633c-2.398,0.95-5.204,1.394-7.896,1.394c-0.682,0-1.356-0.028-2.015-0.084
					c-2.84-0.242-5.683-0.334-8.531-0.334c-8.854,0-17.739,0.886-26.608,0.886c-7.238,0-14.468-0.59-21.659-2.733
					c-1.228-0.366-2.563-0.523-3.948-0.523c-3.404,0-7.103,0.952-10.194,2.099c-1.672,0.621-3.32,6.58-2.162,8.305
					c7.066,10.515,3.702,22.164,4.898,33.285c0.672,6.218,2.056,12.381,2.418,18.609c0.666,11.444,0.91,22.916,1.127,34.382
					c0.07,3.823-2.205,5.338-6.18,6.302c-0.412,0.1-0.89,0.133-1.407,0.133c-0.983,0-2.105-0.118-3.174-0.118
					c-2.605,0-4.894,0.702-4.067,5.526c-0.51-0.144-1.221-0.126-1.498-0.456c-1.18-1.405-2.025-3.146-3.398-4.306
					c-1.104-0.936-2.793-1.214-4.223-1.784c0.529,0.956,1.14,1.882,1.559,2.882c0.238,0.574,0.166,1.271,0.232,1.911
					c-1.027-0.093-2.213,0.102-3.059-0.332c-2.353-1.204-4.568-3.566-7.002-3.566c-1.35,0-2.767,0.728-4.311,2.782
					c-0.035,0.047-0.107,0.067-0.209,0.067c-0.624,0-2.354-0.785-3.432-1.128c-4.055-1.291-8.078-2.695-12.191-3.773
					c-0.022-0.006-0.045-0.009-0.068-0.009c-0.537,0-1.472,1.445-2.209,2.178c0.941,0.634,1.812,1.673,2.834,1.841
					c16.089,2.627,31.57,6.901,45.584,15.38c0.53,0.321,1.435,0.607,2.064,0.607c0.246,0,0.45-0.044,0.573-0.146
					c0.756-0.634,3.97-1.472,5.91-1.472c0.593,0,1.067,0.079,1.315,0.266c0.176,0.13,0.318,0.302,0.475,0.454
					c-0.551,0.083-1.135,0.085-1.648,0.268c-1.209,0.433-2.385,0.95-3.574,1.434c1.125,0.763,2.16,1.755,3.4,2.229
					c1.355,0.518,2.878,0.956,4.318,0.956c0.133,0,0.265-0.004,0.396-0.012c1.043-0.06,2.075-0.088,3.103-0.088
					c15.234,0,28.853,6.306,42.813,11.22c1.266,0.443,2.09,1.956,3.285,2.731c1.208,0.783,2.522,2.345,3.732,2.345
					c0.81,0,1.573-0.699,2.227-2.796c0.18-0.572,1.325-0.857,2.021-1.273c0.209,0.755,0.461,1.502,0.621,2.265
					c0.371,1.747,0.076,4.417,1.141,5.1c6.951,4.464,13.835,9.37,21.469,12.366c2.602,1.02,5.54,1.204,8.561,1.204
					c1.72,0,3.467-0.06,5.191-0.06c1.032,0,2.056,0.021,3.062,0.09c4.633,0.316,9.262,1.156,13.878,1.156
					c0.251,0,0.503-0.003,0.754-0.008c4.253-0.09,8.911-0.352,12.647-2.072c15.146-6.977,29.993-14.577,45.004-21.843
					c1.344-0.651,3.072-0.739,4.625-0.757c4.486-0.053,6.912-1.335,4.785-6.252c-0.492-1.143-0.474-2.704-0.09-3.889
					c0.109-0.342,1.387-0.68,2.217-0.68c0.308,0.001,0.554,0.047,0.656,0.156c0.867,0.913,7.244,9.632,8.039,10.658
					c11.226-12.426,35.186-36.157,45.848-49.05c10.084-12.193,22.746-20.046,38.322-23.804c13.197-3.186,26.414-6.416,39.326-10.516
					c3.764-1.194,6.475-5.474,9.727-8.272c3.273-2.818,6.186-6.551,10.016-8.14c12.326-5.112,24.895-9.728,37.585-13.917
					c6.901-2.277,12.298-5.421,15.812-11.971c1.512-2.817,14.057-11.465,16.699-13.703c8.148-5.129,17.018-9.338,24.529-15.21
					c8.491-6.639,15.895-14.624,23.545-22.24c1.369-1.363,2.607-5.248,2.246-5.479c-2.398-1.521-9.131-3.602-11.897-3.79
					c-7.981-0.539-16.011-0.377-24.019-0.606c-7.6,5.492-26.772,20.78-35.6,25.055c-2.988,1.446-4.756,5.385-6.926,8.295
					c-0.686,0.919,2.273,2.234,1.865,3.349c-6.091,2.829-12.227,5.562-19.671,8.916c-8.47-4.954-16.694-9.372-24.46-14.459
					c-4.434-2.903-8.615-6.486-12.049-10.47c-10.978-12.73-25.836-18.603-41.398-23.56c-6.529-2.08-12.717-5.271-19.32-7.01
					c-6.493-1.71-13.312-2.26-20.003-3.229c-1.833-0.266-3.772,0.043-5.563-0.343C394.937,407.652,390.708,407.105,386.513,407.105
					L386.513,407.105z"/>
			</g>
		</g>
		<g>
			<path fill="#2980BA" d="M201.727,380.517v3c6.291,0,16.659,5.202,23.481,14.843c5.847,8.262,14.779,14.502,19.584,17.488
				c4.207,2.614,9.499,5.36,13.79,6.619c-4.839,8.394-14.047,25.693-12.282,32.99c-0.094,0.961-2.945,4.111-10.958,7.426
				c-7.662,3.17-16.678,5.062-24.118,5.062c-4.563,0-8.403-0.679-11.412-2.019c-0.502-0.223-0.912-0.371-1.32-0.371
				c-0.303,0-0.604,0.082-0.941,0.275c-0.082,0.008-0.199,0.016-0.356,0.016c-1.341,0-6.563-0.605-17.486-8.398
				c-6.645-4.741-21.206-12.766-33.631-12.767c-0.715,0-1.357,0.038-1.917,0.112c-1.49-0.211-3.18-0.771-3.784-1.244
				c0.078-0.157,0.229-0.407,0.518-0.752c0.596-0.715,0.826-1.665,0.623-2.573c-0.202-0.908-0.813-1.671-1.656-2.064
				c-0.435-0.204-0.9-0.449-1.336-0.699c1.305-1.074,2.721-2.748,2.828-5.472c0.028-0.73,0.104-1.894,0.191-3.24
				c0.531-8.175,0.611-11.968,0.1-14.042c0.012-0.001,0.022-0.001,0.033-0.001c0.001,0,0.001,0,0.001,0
				c0.064,0.004,0.175,0.008,0.239,0.008c1.055,0,2.021-0.465,2.653-1.275c1.104-1.418,0.707-2.989,0.357-4.375
				c-0.161-0.638-0.589-2.332-0.291-2.72c0.005-0.006,0.529-0.648,3.18-0.682c1.305-0.017,2.449-0.877,2.831-2.125
				c0.01-0.031,0.968-3.131,2.658-6.136c1.8-3.198,3.722-5.032,5.273-5.032c0.166,0,0.332,0.019,0.506,0.057
				c1.25,0.276,2.856,0.416,4.773,0.416c9.685,0,29.001-3.791,34.519-8.461c0.656-0.557,1.847-0.863,3.35-0.863L201.727,380.517
				 M201.726,380.517c-2.206,0-4.043,0.519-5.289,1.574c-4.577,3.875-22.767,7.75-32.579,7.75c-1.646,0-3.057-0.109-4.127-0.345
				c-0.393-0.087-0.776-0.127-1.152-0.127c-6.762,0-10.801,13.293-10.801,13.293c-10.749,0.136-3.903,9.052-5.861,9.052
				c-0.015,0-0.03-0.001-0.046-0.002c-0.067-0.004-0.135-0.007-0.202-0.007c-2.057,0-4.262,1.966-3.174,3.161
				c1.125,1.234,0,13.439-0.141,17.005s-4.078,4.113-4.219,5.485c-0.141,1.371,4.453,3.521,4.453,3.521
				c-4.875,5.851,5.625,6.946,5.625,6.946c0.462-0.09,1.089-0.142,1.863-0.142c5.504,0.001,18.409,2.591,31.889,12.209
				c10.985,7.838,16.802,8.956,19.229,8.956c0.97,0,1.398-0.179,1.398-0.179c3.593,1.599,7.969,2.277,12.632,2.277
				c17.728,0,39.573-9.814,37.997-16.173c-1.992-8.031,14.251-34.678,14.251-34.678c-0.229,0.053-0.494,0.079-0.794,0.079
				c-6.024,0-25.776-10.482-35.021-23.547C220.217,386.113,208.975,380.516,201.726,380.517L201.726,380.517z M263.472,420.095
				h0.005H263.472z"/>
		</g>
		<path fill="none" stroke="#2980BA" stroke-width="3" stroke-linecap="round" stroke-linejoin="round" stroke-miterlimit="10" d="
			M320.643,136.258c-4.161-0.811-8.664,0.266-9.062,3.598c-0.396,3.316-2.338,3.553-4.854,3.302
			c-1.646-0.165-3.27-0.552-5.021-0.859c-0.246-1.757-0.475-3.402-0.703-5.047c-0.355,0.014-0.711,0.026-1.068,0.04
			c0,3.52,0,7.039,0,11.91c-12.684-7.567-24.801-14.176-36.085-21.938c-3.075-2.116-3.632-7.71-4.624-10.027
			c-4.773-1.167-8.665-3.462-11.146-2.454c-5.893,2.393-7.15-1.929-8.146-4.839c-1.719-5.025-4.929-5.857-9.633-5.911
			c-11.014-0.123-22.68,1.071-29.4-10.572c-0.086-0.149-0.256-0.287-0.422-0.354c-7.895-3.211-15.557-7.416-23.777-9.269
			c-5.512-1.242-10.133-1.431-14.328-6.334c-2.973-3.474-9.93-2.088-13.895-6.523c-1.434-1.602-5.645-0.841-8.907-1.193
			c-5.362,6.892-14.153,7.652-22.54,0.903c-4.457-3.586-7.93-2.985-11.764,0.458c-6.912,6.205-12.734,6.304-20.047,0.448
			c-3.424-2.744-5.967-1.989-7.326,2.211c-0.381,1.173-0.623,2.39-1.189,4.618c-2.611-1.164-4.799-2.139-6.852-3.053
			c1.979,11.896-0.004,10.841-9.078,13.34c-0.826,0.228-2.051,0.974-2.124,1.59c-0.425,3.516-2.448,4.983-7.304,5.003
			c-1.773-5.468-5.479-11.425-4.971-17.018c0.422-4.653-2.918-10.493,2.27-14.669c0.506-0.406,0.156-2.545-0.467-3.431
			c-2.025-2.882-4.363-5.556-5.727-7.247c1.588-2.786,3.467-5.003,4.115-7.52c0.671-2.606,0.148-5.506,0.148-8.696
			c-1.547,0.644-2.721,1.132-3.894,1.62c-0.308-0.287-0.614-0.572-0.923-0.857c1.811-3.263,3.619-6.524,5.428-9.787
			c-0.6-0.436-1.201-0.872-1.802-1.309c-2.853,2.021-5.825,3.898-8.524,6.1c-3.605,2.939-5.885,1.228-8.125-1.69
			c-0.815-1.063-1.986-2.758-2.913-2.707c-7.075,0.386-4.737-3.429-3.487-6.888c0.408-1.125,0.637-2.311,1.023-3.753
			c-4.244-0.896-8.57-1.828-6.758-7.095C17.906,6.971,20.037,3.899,22.098,0"/>
		<path fill="none" stroke="#2980BA" stroke-width="3" stroke-linecap="round" stroke-linejoin="round" stroke-miterlimit="10" d="
			M319.545,130.066"/>
		<path fill="none" stroke="#2980BA" stroke-width="3" stroke-linecap="round" stroke-linejoin="round" stroke-miterlimit="10" d="
			M440.455,171.051c-0.438-0.023-0.873-0.047-1.311-0.068c-0.375,1.781-0.75,3.563-1.159,5.512
			c-5.521-1.132-10.722-2.201-15.05-3.091c0.789-5.421,1.502-10.314,2.283-15.685c-2.066,4.43-3.861,8.279-5.6,12.006
			c-2.057-1.08-3.887-2.065-5.74-3.006c-1.917-0.973-3.855-1.903-5.971-2.944c1.275-1.692,2.248-2.98,3.539-4.691
			c-10.201,2.508-13.139,1.695-17.084-4.325c-0.373,0.002-0.76-0.061-1.117,0.013c-1.097,0.222-2.203,0.431-3.27,0.759
			c-12.342,3.783-23.115,2.373-31.762-8.151c-1.416-1.723-4.963-1.782-8.779-3.017c-2.495-3.201-5.904-7.572-9.517-12.209
			c-3.856,5.183-8.806,6.033-19.276,4.105"/>
		<path fill="none" stroke="#2980BA" stroke-width="3" stroke-linecap="round" stroke-linejoin="round" stroke-miterlimit="10" d="
			M666.439,1.179c-0.146,0.784-0.205,1.47-0.404,2.117c-1.846,6.01-3.557,12.067-5.645,17.998c-1.125,3.189-3.256,4.829-6.863,2.362
			c-0.803-0.549-2.521-0.399-3.542,0.04c-2.425,1.039-4.808,2.271-6.97,3.755c-1.846,1.27-4.029,2.709-4.887,4.585
			c-2.031,4.443-3.447,9.165-4.959,13.822c-2.311,7.122-5.607,13.357-13.018,16.838c-1.98,0.93-3.141,3.391-4.978,4.771
			c-3.609,2.714-7.901,4.704-11.06,7.817c-5.799,5.718-9.742,13.445-18.631,15.608c-3.684,0.897-7.455,1.461-11.123,2.412
			c-5.051,1.309-7.379,5.271-6.002,9.951c1.494,5.086,4.621,3.27,8.488,2.755c3.299-0.437,8.016,1.269,10.303,3.662
			c2.807,2.939-0.467,11.725-4.26,14.117c-2.883,1.817-8.848,0.224-7.621,6.652c0.037,0.192-1.93,0.73-2.949,1.14
			c-1.32,0.532-2.627,1.097-3.281,1.371c0,8.207,0.057,15.73-0.078,23.252c-0.016,0.894-0.908,1.971-1.695,2.619
			c-3.867,3.199-7.836,6.283-12.117,9.686c-3.66-2.581-7.441-6.586-13.295-5.874c-8.32,1.012-14.002-3.597-20.444-7.761
			c-4.38-2.83-10.772-2.782-16.31-3.79c-2.088-0.38-4.35,0.154-6.453-0.188c-7.105-1.156-11.759-1.721-14.965,5.793
			c-1.781,4.17-4.004,9.627-10.992,7.845c-0.922-0.234-2.064,0.358-2.732,0.492c-0.668,2.375-1.314,4.663-1.965,6.974
			c-1.904-1.269-3.215-2.142-4.523-3.014c-0.713,2.083-1.424,4.165-2.319,6.784c-1.409-0.558-3.177-1.257-5.077-2.01
			c-0.702,0.967-1.432,1.973-2.254,3.107c-3.015-4.742-5.975-9.4-8.314-13.083c0,6.613-6.359-0.803-6.359,7.196"/>
		<path fill="none" stroke="#2980BA" stroke-width="3" stroke-linecap="round" stroke-linejoin="round" stroke-miterlimit="10" d="
			M254.157,410.658c-1.372-1.5-2.647-3.101-4.149-4.466c-1.078-0.981-2.555-1.534-3.683-2.475
			c-4.085-3.407-8.464-6.569-12.061-10.42c-8.496-9.101-17.989-16.793-31.036-17.414c-10.561-0.503-20.436-1.288-27.486-10.219
			c-0.547-0.694-1.777-0.933-2.736-1.253c-15.657-5.218-31.328-10.403-46.977-15.646c-0.805-0.27-1.447-1-2.164-1.515
			c0.709-0.11,1.887-0.011,2.053-0.364c1.426-3.05,5.209-3.154,6.855-7.264c2.637-6.576-2.055-6.875-4.746-9.353
			c-0.955-0.877-1.811-1.889-2.869-2.624c-15.066-10.488-30.205-20.881-45.213-31.45c-3.033-2.139-6.307-4.481-8.225-7.485
			c-4.184-6.554-7.535-13.609-11.318-20.412c-0.445-0.803-1.893-1.987-2.172-1.828c-4.549,2.609-1.883-1.801-2.477-2.645
			c-0.875-1.243-0.295-3.937-1.283-4.54c-4.162-2.553-2.668-5.717-1.494-8.805c1.982-5.207,3.674-10.323,9.287-13.604
			c4.592-2.683,8.938-6.496,11.998-10.761c4.129-5.75,9.771-6.854,15.682-6.195c14.242,1.589,28.41,3.832,42.572,6.043
			c5.398,0.842,10.785,3.564,16.008,3.19c6.648-0.479,11.596-0.187,15.582,5.879c1.162,1.771,5.539,1.929,8.485,2.092
			c4.364,0.245,8.839-0.712,13.14-0.188c9.504,1.159,18.826,4.855,28.291-0.951c2.867-1.759,7.115-1.329,10.705-2.028
			c2.42-0.473,5.877-0.405,6.992-1.905c3.736-5.024,6.763-9.079,14.613-8.821c7.254,0.238,12.725,4.384,10.725,11.418
			c-1.172,4.123,0.201,6.73,4.43,7.895c1.531-1.188,3.061-2.377,4.592-3.565c1.811,1.899,3.713,3.73,5.328,5.777
			c0.217,0.273-0.879,1.78-1.621,2.446c-0.594,0.532-1.572,0.655-2.38,0.961c1.267,0.468,2.544,1.349,3.8,1.321
			c2.996-0.069,5.975-0.714,8.973-0.85c3.312-0.149,8.832,1.196,9.604-0.158c5.243-9.208,13.744-10.25,22.969-10.407
			c1.164-0.019,3.344-0.751,3.324-0.88c-0.377-2.278-0.354-5.237-1.822-6.53c-1.168-1.027-4.793-0.796-6.346,0.254
			c-4.547,3.078-7.963,8.344-14.878,5.329c-0.688-0.302-3.038,1.05-3.194,1.886c-0.826,4.439-3.018,3.769-5.975,2.063
			c-0.77-0.446-2.695-0.502-2.922-0.103c-2.448,4.295-4.818,1.432-7.09,0.002c-1.98-1.248-3.803-2.732-5.695-4.112
			c-3.533-4.604-7.707-8.877-10.437-13.896c-3.579-6.581-9.749-12.393-7.847-21.146c0.302-1.392-1.912-3.419-3.177-4.991
			c-2.526-3.144-5.261-6.132-7.786-9.277c-0.987-1.229-1.619-2.725-2.463-4.068c-2.203-3.514-3.889-7.711-9.561-6.636
			c-0.283,0.054-1.564-2.087-1.389-3.03c0.973-5.236,2.15-10.441,3.445-15.613c3.809-15.211,8.715-19.573,22.465-20.804
			c1.48-0.132,3.738,1.121,4.588,2.396c3.037,4.561,5.207,9.7,8.471,14.079c5.115,6.86,12.424,11.443,19.936,15.422
			c2.199,1.167,5.496,0.316,8.283,0.511c0.671,0.045,1.828,0.505,1.877,0.883c0.494,3.865-0.543,6.4-5.379,5.845
			c-1.592-0.182-3.285,0.491-4.932,0.773c0.469,1.145,1.125,2.255,1.355,3.444s0.383,2.607-0.088,3.642
			c-0.34,0.743-1.758,1.018-2.695,1.502c-0.053-1.255,0.055-2.543-0.195-3.761c-0.379-1.836-1.007-3.623-1.529-5.433
			c-3.114,4.106-6.494,3.948-10.51,1.058c-0.768-0.552-3.197,0.317-4.289,1.203c-0.957,0.777-1.932,2.918-1.492,3.728
			c2.91,5.342,11.902,3.587,13.565,10.767c0.073,0.316,2.032,0.159,3.095,0.326c5.08,0.801,11.821-0.001,14.803,2.882
			c3.631,3.512,5.223,1.354,7.918,0.562c1.38-0.404,2.877-0.425,4.32-0.618c-1.078,0.876-2.148,1.759-3.232,2.627
			c-1.086,0.868-2.186,1.719-3.279,2.578c0.553,0.424,1.316,1.331,1.621,1.201c6.482-2.73,12.844,8.486,19.328,0.175
			c0.053-0.067,0.352,0.003,0.51,0.067c0.924,0.375,1.842,0.77,2.764,1.157c-1.055-0.938-2.473-1.696-3.077-2.858
			c-0.821-1.577-1.019-3.461-1.482-5.214c1.278,0.024,2.653-0.239,3.819,0.128c2.828,0.893,6.322,3.703,8.201,2.866
			c8.346-3.713,9.961,0.161,9.947,7.013c-0.002,0.559,0.613,1.118,0.94,1.676c0.349-0.33,0.739-0.629,1.039-0.998
			c0.487-0.602,0.913-1.248,1.364-1.875c0.346,0.758,0.713,1.508,1.031,2.275c0.371,0.896,0.702,1.811,1.051,2.716
			c0.553-0.695,1.648-1.454,1.57-2.074c-0.562-4.493,2.752-4.688,5.814-5.548c1.059-0.297,2.691-1.988,2.51-2.619
			c-1.554-5.378,2.035-2.238,3.615-2.138c2.902,0.184,5.792,0.589,8.694,0.711c0.474,0.021,0.993-0.937,1.493-1.442
			c0.24,0.664,0.529,1.316,0.711,1.993c0.394,1.454,0.73,2.921,1.09,4.382c2.201-0.664,5.547-0.671,6.412-2.104
			c4.404-7.279,11.588-10.729,18.975-13.679c2.811-1.123,6.707-1.068,9.652-0.155c5.734,1.775,11.109,4.629,16.725,6.808
			c1.088,0.422,16.637-3.64,17.951-3.794 M285.229,408.45c-9.301,2.498-23.225,5.554-31.071,2.208 M438.199,172.674 M649.51,420.095
			c-1.045-0.248-6.023-0.99-7.069-1.231c0.976-0.794,1.97-1.565,2.921-2.386c5.369-4.632,12.1-8.423,15.803-14.093
			c7.657-11.727,17.713-19.824,31.037-23.842c6.885-2.076,14.209-3.328,21.41-3.756c22.359-1.331,44.752-2.125,67.137-3.029
			c3.365-0.135,6.756,0.254,10.137,0.399c-1.127-4.018-2.066-8.104-3.521-12.005c-0.348-0.933-2.754-2.07-3.658-1.726
			c-13.062,4.987-25.893,4.121-39.355,0.812c-11.843-2.911-24.4-2.942-36.426-5.295c-13.664-2.674-26.168-0.671-37.539,6.759
			c-3.459,2.26-7.371,6.11-8.061,9.772c-3.482,18.438-13.622,32.351-28.553,43.398c-3.191,2.363-6.877,6.242-10.078,6.011
			c-7.346-0.528-14.568-3.041-21.771-4.995c-2.775-0.754-5.359-2.184-8.451-3.481c-4.09,1.675-8.119,3.047-11.857,4.957
			 M588.531,453.643 M356.098,400.286c2.287,1.726,15.707,0.198,17.924,2.013c-1.924,0.832-4.008,1.429-5.729,2.553
			 M581.613,416.365c-6.295,4.433-27.981,18.806-33.59,23.974c-5.512,5.076-9.713,11.477-14.854,16.97
			c-4.873,5.207-12.568,6.615-18.342,2.806c-7.184-4.74-15.713-9.126-20.205-15.858c-12.531-18.771-33.399-23.958-51.842-33.131
			c-5.598-2.785-11.963-4.176-18.066-5.896c-4.182-1.179-8.496-2.422-12.795-2.598c-14.814-0.602-29.979,1.277-43.4-7.334
			 M368.293,404.852c-1.908,0.824-22.479,7.48-24.271,8.604c-9.457,5.929-19.293,1.337-28.852-0.495
			c-5.779-1.107-2.232-0.459-7.866-2.325c-1.448-0.479-12.022-0.624-13.534-0.922c1.75-0.898,3.512-2.584,5.242-2.556
			c6.322,0.103,11.506-0.32,17.82,0.138c0.172,0.467,1.469-0.166,1.643,0.3c10.465-2.88,27.176-4.366,37.623-7.31 M368.52,395.297
			c-14.668-4.887-42.838,9.425-55.219,7.493c-10.461-1.634-19.414,0.767-28.072,5.66"/>
		<path fill="none" stroke="#2980BA" stroke-width="3" stroke-linecap="round" stroke-linejoin="round" stroke-miterlimit="10" d="
			M226.002,804.008c1.501-3.478,13.69-26.852,14.369-30.475c1.434-7.673,3.225-9.236,11.061-7.677
			c10.988,2.188,61.332-70.835,70.502-77.731c0.007-0.007-0.158,0.166-0.158,0.166c5.113-2.508,10.344-4.816,15.279-7.621
			c2.002-1.136,3.364-3.347,4.983-5.098c0.028-0.029-0.485-0.655-0.54-0.627c-2.645,1.369-5.285,2.748-7.867,4.225
			c-0.391,0.225-0.367,1.089-0.754,1.38c-1.131,0.847-2.373,1.554-3.572,2.314c-0.029-1.239-0.363-2.556-0.043-3.7
			c2.141-7.603,3.983-15.323,6.768-22.702c3.467-9.182,7.531-18.173,11.791-27.037c1.584-3.298,3.607-6.361,9.113-4.276
			c3.82,1.446,8.67,0.355,13.053,0.207c0.293-0.011,0.525-1.656,0.786-2.541c-2.999-0.637-5.974-1.446-9.007-1.857
			c-2.447-0.332-4.963-0.185-7.451-0.251c1.102-1.47,2.077-3.056,3.342-4.38c1.333-1.396,3.771-2.306,4.24-3.854
			c0.334,0.876,12.646-4.494,13.955-5.198c9.652-5.189,16.344-15.437,28.799-15.9c0.441-0.017,0.947-0.602,1.275-1.029
			c3.736-4.853,8.576-9.253,10.957-14.678c9.334-21.252,26.27-31.047,49.022-33.064c0.503-0.044,0.829-1.579,1.314-2.375
			c0.378-0.624,0.771-1.496,1.349-1.678c0.564-0.176,1.371,0.386,2.071,0.623c-0.272,0.56-0.782,1.128-0.763,1.678
			c0.032,0.936,0.408,2.675,0.621,2.672c5.191-0.064,10.69,0.67,15.498-0.767c6.963-2.079,13.387-5.837,20.107-8.732
			c18.207-7.847,36.42-11.733,56.275-4.326c4.509,1.683,11.949-2.274,17.109-5.198c9.273-8.318,28.596-26.848,37.799-35.24
			c0.469-0.428,0.832-1.192,0.857-1.813c0.105-2.706-0.68-5.68,0.209-8.081c3.695-9.997,7.068-20.238,12.113-29.591
			c4.84-8.969,11.594-16.954,17.521-25.362c0.944-1.342,1.961-2.632,2.945-3.945c-0.475-0.124-0.947-0.257-1.424-0.37"/>
	</g>
	<pattern  id="SVGID_1_" xlink:href="#Vertical_Stripe_copy_3" patternTransform="matrix(1 0 0 1 53.4004 107.5293)">
	</pattern>
	
		<path fill="url(#SVGID_1_)" stroke="#2980BA" stroke-width="3" stroke-linecap="round" stroke-linejoin="round" stroke-miterlimit="10" d="
		M942.754,449.729c-6.246-7.426-9.425-18.779-10.557-28.655c-0.99-8.637-3.692-18.296-8.972-25.002
		c-10.587-13.453-26.719-15.885-42.961-12.877c-12.329,2.284-24.249,3.595-36.628,0.865c-13.09-2.888-26.342-5.077-39.504-7.664
		l-13.248-4.238c-3.381-0.146-6.771-0.534-10.137-0.399c-22.385,0.904-44.777,1.698-67.137,3.029
		c-7.201,0.428-14.525,1.68-21.41,3.756c-13.324,4.018-23.38,12.115-31.037,23.842c-3.703,5.67-10.434,9.461-15.803,14.093
		c-0.951,0.82-1.945,1.592-2.921,2.386c1.046,0.241,6.024,0.983,7.069,1.231c0.477,0.113,0.949,0.246,1.424,0.37
		c-0.984,1.313-2.001,2.604-2.945,3.945c-5.928,8.408-12.682,16.394-17.521,25.362c-5.045,9.353-8.418,19.594-12.113,29.591
		c-0.889,2.401-0.104,5.375-0.209,8.081c-0.025,0.621-0.389,1.386-0.857,1.813c-9.203,8.393-28.525,26.922-37.799,35.24
		c-5.16,2.924-12.601,6.881-17.109,5.198c-19.855-7.407-38.068-3.521-56.275,4.326c-6.721,2.896-13.145,6.653-20.107,8.732
		c-4.808,1.437-10.307,0.702-15.498,0.767c-0.213,0.003-0.589-1.736-0.621-2.672c-0.02-0.55,0.49-1.118,0.763-1.678
		c-0.7-0.237-1.507-0.799-2.071-0.623c-0.578,0.182-0.971,1.054-1.349,1.678c-0.485,0.796-0.812,2.331-1.314,2.375
		c-22.753,2.018-39.688,11.812-49.022,33.064c-2.381,5.425-7.221,9.825-10.957,14.678c-0.328,0.428-0.834,1.013-1.275,1.029
		c-12.455,0.464-19.146,10.711-28.799,15.9c-1.309,0.704-13.621,6.074-13.955,5.198c-0.469,1.549-2.907,2.458-4.24,3.854
		c-1.265,1.324-2.24,2.91-3.342,4.38c2.488,0.066,5.004-0.081,7.451,0.251c3.033,0.411,6.008,1.221,9.007,1.857
		c-0.261,0.885-0.493,2.53-0.786,2.541c-4.383,0.148-9.232,1.239-13.053-0.207c-5.506-2.085-7.529,0.979-9.113,4.276
		c-4.26,8.864-8.324,17.855-11.791,27.037c-2.784,7.379-4.627,15.1-6.768,22.702c-0.32,1.145,0.014,2.461,0.043,3.7
		c1.199-0.761,2.441-1.468,3.572-2.314c0.387-0.291,0.363-1.155,0.754-1.38c2.582-1.477,5.223-2.855,7.867-4.225
		c0.055-0.028,0.568,0.598,0.54,0.627c-1.619,1.751-2.981,3.962-4.983,5.098c-4.936,2.805-10.166,5.113-15.279,7.621
		c0,0,0.165-0.173,0.158-0.166c-9.17,6.896-59.514,79.919-70.502,77.731c-7.836-1.56-9.627,0.004-11.061,7.677
		c-0.679,3.623-12.868,26.997-14.369,30.475l716.752,1.197"/>
</g>
</svg>
