<?xml version="1.0" encoding="utf-8"?>
<!-- Generator: Adobe Illustrator 16.0.0, SVG Export Plug-In . SVG Version: 6.00 Build 0)  -->
<!DOCTYPE svg PUBLIC "-//W3C//DTD SVG 1.1//EN" "http://www.w3.org/Graphics/SVG/1.1/DTD/svg11.dtd">
<svg version="1.1" id="Layer_1" xmlns="http://www.w3.org/2000/svg" xmlns:xlink="http://www.w3.org/1999/xlink" x="0px" y="0px"
	 width="1130px" height="550px" viewBox="0 0 1130 550" enable-background="new 0 0 1130 550" xml:space="preserve">
<g>
	<g>
		<g enable-background="new    ">
			<g enable-background="new    ">
				<defs>
					<path id="SVGID_1_" enable-background="new    " d="M705.423,424.804c-0.01-0.185-0.02-0.295-0.119-0.611
						c0.012,0.035,0.049,0.041,0.119,0.017V424.804z"/>
				</defs>
				<clipPath id="SVGID_2_">
					<use xlink:href="#SVGID_1_"  overflow="visible"/>
				</clipPath>
				<g clip-path="url(#SVGID_2_)" enable-background="new    ">
					<path fill="#AAB2A1" d="M705.423,424.209v0.595c0,0.02,0.023,0.002,0.068-0.051l-0.188-0.561
						C705.315,424.228,705.353,424.233,705.423,424.209"/>
				</g>
			</g>
			<g>
				<rect x="421.941" y="424.209" fill="#CDD4BF" width="283.481" height="3.238"/>
			</g>
			<g enable-background="new    ">
				<defs>
					<path id="SVGID_3_" enable-background="new    " d="M422.06,424.191c-0.076,0.252-0.109,0.378-0.118,0.613v2.643
						c-2.077,0-3.833-3.154-3.833-6.9h3.239C421.386,422.781,422.129,423.985,422.06,424.191z"/>
				</defs>
				<clipPath id="SVGID_4_">
					<use xlink:href="#SVGID_3_"  overflow="visible"/>
				</clipPath>
				<g clip-path="url(#SVGID_4_)" enable-background="new    ">
					<path fill="#CCD3BE" d="M418.108,420.547h3.239c0.003,0.199,0.013,0.391,0.026,0.574l-3.235,0.27
						C418.118,421.113,418.108,420.832,418.108,420.547"/>
					<path fill="#CED6C1" d="M418.139,421.391l3.235-0.27c0.031,0.418,0.086,0.794,0.15,1.128l-3.109,0.955
						C418.278,422.632,418.184,422.023,418.139,421.391"/>
					<path fill="#D1D9C3" d="M418.415,423.204l3.109-0.955c0.095,0.478,0.211,0.868,0.312,1.173l-2.593,1.976
						C418.896,424.77,418.612,424.025,418.415,423.204"/>
					<path fill="#D4DBC5" d="M419.244,425.397l2.593-1.976c0.123,0.373,0.223,0.614,0.227,0.728l-1.287,2.959
						C420.196,426.762,419.671,426.168,419.244,425.397"/>
					<path fill="#D1D9C3" d="M420.776,427.108l1.287-2.959c0.002,0.031-0.004,0.053-0.018,0.063l-0.785,3.121
						C421.097,427.277,420.935,427.202,420.776,427.108"/>
					<path fill="#CED6C1" d="M421.261,427.334l0.785-3.121c-0.006,0.006-0.016,0.01-0.025,0.01l-0.522,3.177
						C421.419,427.382,421.34,427.36,421.261,427.334"/>
					<path fill="#CCD3BE" d="M421.498,427.399l0.522-3.177c-0.008,0.001-0.018,0.001-0.027,0l-0.312,3.208
						C421.618,427.423,421.559,427.413,421.498,427.399"/>
					<path fill="#C9D0BC" d="M421.681,427.431l0.312-3.208c-0.008-0.001-0.016-0.004-0.025-0.005l-0.152,3.226
						C421.771,427.44,421.726,427.437,421.681,427.431"/>
					<path fill="#C6CEBA" d="M421.815,427.443l0.152-3.226c-0.008-0.003-0.017-0.006-0.026-0.009v3.238
						C421.899,427.447,421.856,427.446,421.815,427.443"/>
				</g>
			</g>
			<g enable-background="new    ">
				<defs>
					<path id="SVGID_5_" enable-background="new    " d="M422.06,424.192c-0.012,0.035-0.049,0.041-0.119,0.017h0.115
						C422.058,424.202,422.058,424.198,422.06,424.192z"/>
				</defs>
				<clipPath id="SVGID_6_">
					<use xlink:href="#SVGID_5_"  overflow="visible"/>
				</clipPath>
				<g clip-path="url(#SVGID_6_)" enable-background="new    ">
					<path fill="#AAB2A1" d="M422.06,424.191l-0.188,0.562c0.044,0.054,0.069,0.071,0.069,0.051v-0.596
						C422.011,424.233,422.048,424.228,422.06,424.191"/>
				</g>
			</g>
			<g enable-background="new    ">
				<defs>
					<path id="SVGID_7_" enable-background="new    " d="M705.304,188.105c0.076-0.246,0.109-0.378,0.119-0.611v0.595
						C705.353,188.064,705.315,188.07,705.304,188.105z"/>
				</defs>
				<clipPath id="SVGID_8_">
					<use xlink:href="#SVGID_7_"  overflow="visible"/>
				</clipPath>
				<g clip-path="url(#SVGID_8_)" enable-background="new    ">
					<path fill="#AAB2A1" d="M705.304,188.105l0.188-0.561c-0.045-0.053-0.068-0.07-0.068-0.051v0.595
						C705.353,188.064,705.315,188.07,705.304,188.105"/>
				</g>
			</g>
			<g>
				<rect x="421.941" y="184.85" fill="#B0B8A7" width="283.481" height="3.239"/>
			</g>
			<g enable-background="new    ">
				<defs>
					<path id="SVGID_9_" enable-background="new    " d="M421.941,187.494c0.009,0.184,0.019,0.295,0.118,0.611
						c0.068,0.207-0.674,1.412-0.712,3.638h-3.239c0-3.737,1.756-6.894,3.833-6.894V187.494z"/>
				</defs>
				<clipPath id="SVGID_10_">
					<use xlink:href="#SVGID_9_"  overflow="visible"/>
				</clipPath>
				<g clip-path="url(#SVGID_10_)" enable-background="new    ">
					<path fill="#AAB2A1" d="M421.941,184.85v3.239c0.004-0.001,0.009-0.003,0.012-0.004l-0.065-3.234
						C421.905,184.85,421.924,184.85,421.941,184.85"/>
					<path fill="#ADB5A4" d="M421.888,184.851l0.065,3.234c0.026-0.009,0.048-0.013,0.064-0.011l-0.497-3.182
						C421.642,184.868,421.765,184.854,421.888,184.851"/>
					<path fill="#B0B7A6" d="M421.521,184.893l0.497,3.182c0.015,0.001,0.025,0.006,0.033,0.016l-0.853-3.104
						C421.304,184.947,421.411,184.916,421.521,184.893"/>
					<path fill="#B3BAA9" d="M421.198,184.986l0.853,3.104c0.008,0.008,0.013,0.021,0.013,0.039l-1.186-2.998
						C420.983,185.074,421.09,185.026,421.198,184.986"/>
					<path fill="#B6BDAB" d="M420.878,185.131l1.186,2.998c0.002,0.02-0.001,0.044-0.007,0.072l-1.516-2.855
						C420.651,185.265,420.763,185.193,420.878,185.131"/>
					<path fill="#B8C0AE" d="M420.541,185.346l1.516,2.855c-0.007,0.033-0.017,0.071-0.03,0.115l-1.846-2.668
						C420.298,185.536,420.418,185.436,420.541,185.346"/>
					<path fill="#BBC3B0" d="M420.181,185.648l1.846,2.668c-0.017,0.052-0.037,0.111-0.061,0.18l-2.176-2.42
						C419.916,185.92,420.046,185.777,420.181,185.648"/>
					<path fill="#BEC5B2" d="M419.791,186.076l2.175,2.42c-0.027,0.078-0.059,0.166-0.092,0.265l-2.49-2.101
						C419.513,186.449,419.647,186.254,419.791,186.076"/>
					<path fill="#C1C8B5" d="M419.384,186.66l2.49,2.101c-0.039,0.113-0.08,0.241-0.123,0.383l-2.777-1.706
						C419.099,187.16,419.235,186.9,419.384,186.66"/>
					<path fill="#C3CBB7" d="M418.974,187.438l2.777,1.706c-0.049,0.159-0.099,0.337-0.146,0.534l-3.011-1.237
						C418.704,188.087,418.831,187.752,418.974,187.438"/>
					<path fill="#C6CEBA" d="M418.595,188.44l3.011,1.237c-0.052,0.216-0.101,0.454-0.142,0.715l-3.172-0.721
						C418.37,189.243,418.472,188.83,418.595,188.44"/>
					<path fill="#C9D0BC" d="M418.292,189.672l3.172,0.721c-0.045,0.283-0.08,0.594-0.1,0.931l-3.24-0.193
						C418.15,190.628,418.208,190.141,418.292,189.672"/>
					<path fill="#CCD3BE" d="M418.124,191.13l3.24,0.193c-0.009,0.136-0.014,0.276-0.017,0.42h-3.239
						C418.108,191.537,418.114,191.332,418.124,191.13"/>
				</g>
			</g>
			<g enable-background="new    ">
				<defs>
					<path id="SVGID_11_" enable-background="new    " d="M421.94,188.089c0.07-0.024,0.107-0.019,0.119,0.017
						c-0.002-0.006-0.004-0.01-0.006-0.017H421.94z"/>
				</defs>
				<clipPath id="SVGID_12_">
					<use xlink:href="#SVGID_11_"  overflow="visible"/>
				</clipPath>
				<g clip-path="url(#SVGID_12_)" enable-background="new    ">
					<path fill="#AAB2A1" d="M421.941,188.089v-0.595c0-0.021-0.024-0.004-0.069,0.05l0.188,0.562
						C422.048,188.07,422.011,188.064,421.941,188.089"/>
				</g>
			</g>
			<g enable-background="new    ">
				<defs>
					<path id="SVGID_13_" enable-background="new    " d="M712.491,420.547c0.016,1.756-0.299,3.542-0.924,5.116
						c-0.412,0.435-0.881,0.928-1.58,1.39c-0.83,0.548-1.391,0.711-1.76,0.818c-0.35,0.101-0.916,0.2-1.625,0.094
						c-0.203-0.031-0.471-0.115-0.66-0.198c-0.168-0.074-0.373-0.213-0.523-0.319c0.379,0.218,0.75,0.316,1.242,0.33
						c-0.01-0.005-0.016-0.01-0.023-0.014c0.445-0.174,0.865-0.337,1.199-0.728c0.213-0.249,0.748-0.943,1.131-1.999
						c0.186-0.509,0.484-1.772,0.537-2.595c0.016-0.247,0.053-0.824,0.002-1.199c-0.045-0.334-0.049-0.361-0.125-0.573
						c-0.02-0.05-0.08-0.101-0.129-0.123C710.224,420.547,711.519,420.547,712.491,420.547z"/>
				</defs>
				<clipPath id="SVGID_14_">
					<use xlink:href="#SVGID_13_"  overflow="visible"/>
				</clipPath>
				<g clip-path="url(#SVGID_14_)" enable-background="new    ">
					<path fill="#CCD3BE" d="M709.253,420.547h3.238c0.002,0.293-0.004,0.587-0.02,0.881l-3.238-0.211
						C709.245,420.996,709.253,420.772,709.253,420.547"/>
					<path fill="#C9D0BC" d="M709.233,421.217l3.238,0.211c-0.031,0.575-0.096,1.148-0.195,1.713l-3.184-0.663
						C709.161,422.07,709.208,421.648,709.233,421.217"/>
					<path fill="#C6CEBA" d="M709.093,422.478l3.184,0.663c-0.092,0.512-0.209,1.016-0.355,1.506l-3.062-1.101
						C708.952,423.204,709.032,422.847,709.093,422.478"/>
					<path fill="#C3CBB7" d="M708.858,423.546l3.062,1.101c-0.133,0.44-0.287,0.87-0.463,1.284l-2.893-1.5
						C708.675,424.149,708.772,423.854,708.858,423.546"/>
					<path fill="#C1C8B5" d="M708.565,424.431l2.893,1.5c-0.158,0.371-0.334,0.731-0.529,1.073l-2.682-1.851
						C708.36,424.925,708.468,424.684,708.565,424.431"/>
					<path fill="#BEC5B2" d="M708.247,425.153l2.682,1.851c-0.176,0.312-0.367,0.611-0.574,0.894l-2.443-2.156
						C708.03,425.557,708.142,425.361,708.247,425.153"/>
					<path fill="#BBC3B0" d="M707.911,425.741l2.443,2.156c-0.189,0.261-0.391,0.506-0.604,0.736l-2.178-2.417
						C707.69,426.069,707.804,425.91,707.911,425.741"/>
					<path fill="#B8C0AE" d="M707.573,426.217l2.178,2.417c-0.203,0.22-0.418,0.425-0.643,0.614l-1.885-2.643
						C707.345,426.487,707.46,426.357,707.573,426.217"/>
					<path fill="#B6BDAB" d="M707.224,426.605l1.885,2.643c-0.221,0.187-0.453,0.358-0.697,0.513l-1.553-2.837
						C706.983,426.828,707.104,426.723,707.224,426.605"/>
					<path fill="#B3BAA9" d="M706.858,426.924l1.553,2.837c-0.254,0.162-0.52,0.305-0.797,0.428l-1.158-3.008
						C706.593,427.108,706.728,427.022,706.858,426.924"/>
					<path fill="#B0B7A6" d="M706.456,427.181l1.158,3.008c-0.32,0.142-0.656,0.255-1.006,0.338l-0.641-3.152
						C706.134,427.329,706.296,427.264,706.456,427.181"/>
					<path fill="#ADB5A4" d="M705.968,427.374l0.641,3.152c-0.379,0.091-0.775,0.146-1.189,0.16v-3.239
						C705.604,427.447,705.788,427.422,705.968,427.374"/>
				</g>
			</g>
			<g>
				<rect x="421.938" y="427.447" fill="#B0B8A7" width="283.48" height="3.239"/>
			</g>
			<g enable-background="new    ">
				<defs>
					<path id="SVGID_15_" enable-background="new    " d="M421.938,427.447v3.239c-4.622-0.166-7.117-5.271-7.072-10.14h3.239
						C418.105,424.293,419.861,427.447,421.938,427.447z"/>
				</defs>
				<clipPath id="SVGID_16_">
					<use xlink:href="#SVGID_15_"  overflow="visible"/>
				</clipPath>
				<g clip-path="url(#SVGID_16_)" enable-background="new    ">
					<path fill="#ADB5A4" d="M421.938,427.447v3.239c-0.056-0.002-0.111-0.005-0.166-0.008l0.091-3.232
						C421.888,427.447,421.913,427.447,421.938,427.447"/>
					<path fill="#AAB2A1" d="M421.863,427.446l-0.091,3.232c-4.516-0.281-6.951-5.322-6.906-10.132h3.239
						C418.105,424.248,419.819,427.372,421.863,427.446"/>
				</g>
			</g>
			<g>
				<rect x="414.866" y="191.744" fill="#AFB6A5" width="3.239" height="228.803"/>
			</g>
			<g>
				<rect x="421.938" y="181.611" fill="#CDD4BF" width="283.48" height="3.238"/>
			</g>
			<g enable-background="new    ">
				<defs>
					<path id="SVGID_17_" enable-background="new    " d="M710.063,420.547h3.24c0.047,5.46-2.887,10.818-7.881,10.948v-3.238
						C707.979,428.257,710.063,424.803,710.063,420.547z"/>
				</defs>
				<clipPath id="SVGID_18_">
					<use xlink:href="#SVGID_17_"  overflow="visible"/>
				</clipPath>
				<g clip-path="url(#SVGID_18_)" enable-background="new    ">
					<path fill="#CCD3BE" d="M710.063,420.547h3.24c0.002,0.312-0.004,0.625-0.021,0.936l-3.238-0.214
						C710.058,421.031,710.063,420.79,710.063,420.547"/>
					<path fill="#C9D0BC" d="M710.044,421.269l3.238,0.214c-0.031,0.605-0.102,1.207-0.205,1.796l-3.184-0.658
						C709.968,422.184,710.019,421.732,710.044,421.269"/>
					<path fill="#C6CEBA" d="M709.894,422.62l3.184,0.658c-0.094,0.536-0.219,1.062-0.371,1.572l-3.066-1.081
						C709.741,423.401,709.827,423.018,709.894,422.62"/>
					<path fill="#C3CBB7" d="M709.64,423.77l3.066,1.081c-0.137,0.466-0.299,0.92-0.484,1.355l-2.904-1.469
						C709.438,424.429,709.546,424.105,709.64,423.77"/>
					<path fill="#C1C8B5" d="M709.317,424.737l2.904,1.469c-0.17,0.401-0.359,0.788-0.566,1.157l-2.701-1.818
						C709.085,425.29,709.208,425.02,709.317,424.737"/>
					<path fill="#BEC5B2" d="M708.954,425.545l2.701,1.818c-0.191,0.34-0.398,0.665-0.619,0.973l-2.469-2.123
						C708.704,426.004,708.833,425.781,708.954,425.545"/>
					<path fill="#BBC3B0" d="M708.567,426.213l2.469,2.123c-0.211,0.291-0.434,0.566-0.67,0.824l-2.207-2.391
						C708.302,426.598,708.438,426.411,708.567,426.213"/>
					<path fill="#B8C0AE" d="M708.159,426.77l2.207,2.391c-0.229,0.248-0.467,0.479-0.719,0.693l-1.914-2.623
						C707.882,427.09,708.022,426.936,708.159,426.77"/>
					<path fill="#B6BDAB" d="M707.733,427.23l1.914,2.623c-0.25,0.213-0.512,0.408-0.785,0.584l-1.582-2.826
						C707.437,427.498,707.587,427.371,707.733,427.23"/>
					<path fill="#B3BAA9" d="M707.28,427.611l1.582,2.826c-0.289,0.186-0.592,0.351-0.906,0.49l-1.184-3.003
						C706.946,427.836,707.116,427.731,707.28,427.611"/>
					<path fill="#B0B7A6" d="M706.772,427.925l1.184,3.003c-0.361,0.161-0.74,0.291-1.137,0.386l-0.666-3.152
						C706.364,428.104,706.571,428.025,706.772,427.925"/>
					<path fill="#ADB5A4" d="M706.153,428.161l0.666,3.152c-0.445,0.106-0.912,0.169-1.396,0.182v-3.238
						C705.671,428.257,705.915,428.224,706.153,428.161"/>
				</g>
			</g>
			<g enable-background="new    ">
				<defs>
					<path id="SVGID_19_" enable-background="new    " d="M711.987,187.884c-1.424-1.354-2.285-2.173-3.596-2.778
						c-0.768-0.354-1.373-0.419-1.379-0.42c-0.254-0.021-0.596-0.046-0.85-0.02c-0.229,0.023-0.525,0.113-0.744,0.184v-3.238
						C708.802,181.732,711.046,184.502,711.987,187.884z"/>
				</defs>
				<clipPath id="SVGID_20_">
					<use xlink:href="#SVGID_19_"  overflow="visible"/>
				</clipPath>
				<g clip-path="url(#SVGID_20_)" enable-background="new    ">
					<path fill="#C9D0BC" d="M705.419,184.85v-3.238c0.176,0.006,0.348,0.02,0.516,0.039l-0.281,3.213
						C705.575,184.854,705.497,184.85,705.419,184.85"/>
					<path fill="#CCD3BE" d="M705.653,184.863l0.281-3.213c0.238,0.029,0.471,0.07,0.695,0.125l-0.652,3.151
						C705.87,184.897,705.763,184.876,705.653,184.863"/>
					<path fill="#CED6C1" d="M705.978,184.927l0.652-3.151c0.266,0.064,0.521,0.146,0.77,0.244l-1.049,3.045
						C706.228,185.008,706.103,184.961,705.978,184.927"/>
					<path fill="#D1D9C3" d="M706.351,185.064l1.049-3.045c0.367,0.146,0.717,0.326,1.045,0.539l-1.568,2.829
						C706.706,185.258,706.53,185.149,706.351,185.064"/>
					<path fill="#D4DBC5" d="M706.876,185.388l1.568-2.829c1.225,0.788,2.182,2.012,2.857,3.459l-2.83,1.613
						C708.06,186.653,707.509,185.871,706.876,185.388"/>
					<path fill="#D1D9C3" d="M708.472,187.631l2.83-1.613c0.361,0.772,0.643,1.607,0.84,2.474l-3.139,0.853
						C708.87,188.728,708.69,188.151,708.472,187.631"/>
				</g>
			</g>
			<g>
				<rect x="709.253" y="191.744" fill="#D0D8C2" width="3.238" height="228.803"/>
			</g>
			<g enable-background="new    ">
				<defs>
					<path id="SVGID_21_" enable-background="new    " d="M706.638,427.764c0.008,0.004,0.014,0.009,0.023,0.014
						c-0.492-0.014-0.863-0.112-1.242-0.33c0.217-0.018,0.51-0.051,0.713-0.125c0.229-0.082,0.52-0.24,0.713-0.387
						c0.18-0.137,0.725-0.551,1.271-1.534s0.777-1.967,0.852-2.289c0.244-1.043,0.266-1.853,0.285-2.565
						c0.115,0.054,0.172,0.08,0.254,0.696c0.051,0.375,0.014,0.952-0.002,1.199c-0.053,0.822-0.352,2.086-0.537,2.595
						c-0.383,1.056-0.918,1.75-1.131,1.999C707.503,427.427,707.083,427.59,706.638,427.764z"/>
				</defs>
				<clipPath id="SVGID_22_">
					<use xlink:href="#SVGID_21_"  overflow="visible"/>
				</clipPath>
				<g clip-path="url(#SVGID_22_)" enable-background="new    ">
					<path fill="#CCD3BE" d="M709.253,420.547h3.238c0.002,0.293-0.004,0.587-0.02,0.881l-3.238-0.211
						C709.245,420.996,709.253,420.772,709.253,420.547"/>
					<path fill="#C9D0BC" d="M709.233,421.217l3.238,0.211c-0.031,0.575-0.096,1.148-0.195,1.713l-3.184-0.663
						C709.161,422.07,709.208,421.648,709.233,421.217"/>
					<path fill="#C6CEBA" d="M709.093,422.478l3.184,0.663c-0.092,0.512-0.209,1.016-0.355,1.506l-3.062-1.101
						C708.952,423.204,709.032,422.847,709.093,422.478"/>
					<path fill="#C3CBB7" d="M708.858,423.546l3.062,1.101c-0.133,0.44-0.287,0.87-0.463,1.284l-2.893-1.5
						C708.675,424.149,708.772,423.854,708.858,423.546"/>
					<path fill="#C1C8B5" d="M708.565,424.431l2.893,1.5c-0.158,0.371-0.334,0.731-0.529,1.073l-2.682-1.851
						C708.36,424.925,708.468,424.684,708.565,424.431"/>
					<path fill="#BEC5B2" d="M708.247,425.153l2.682,1.851c-0.176,0.312-0.367,0.611-0.574,0.894l-2.443-2.156
						C708.03,425.557,708.142,425.361,708.247,425.153"/>
					<path fill="#BBC3B0" d="M707.911,425.741l2.443,2.156c-0.189,0.261-0.391,0.506-0.604,0.736l-2.178-2.417
						C707.69,426.069,707.804,425.91,707.911,425.741"/>
					<path fill="#B8C0AE" d="M707.573,426.217l2.178,2.417c-0.203,0.22-0.418,0.425-0.643,0.614l-1.885-2.643
						C707.345,426.487,707.46,426.357,707.573,426.217"/>
					<path fill="#B6BDAB" d="M707.224,426.605l1.885,2.643c-0.221,0.187-0.453,0.358-0.697,0.513l-1.553-2.837
						C706.983,426.828,707.104,426.723,707.224,426.605"/>
					<path fill="#B3BAA9" d="M706.858,426.924l1.553,2.837c-0.254,0.162-0.52,0.305-0.797,0.428l-1.158-3.008
						C706.593,427.108,706.728,427.022,706.858,426.924"/>
					<path fill="#B0B7A6" d="M706.456,427.181l1.158,3.008c-0.32,0.142-0.656,0.255-1.006,0.338l-0.641-3.152
						C706.134,427.329,706.296,427.264,706.456,427.181"/>
					<path fill="#ADB5A4" d="M705.968,427.374l0.641,3.152c-0.379,0.091-0.775,0.146-1.189,0.16v-3.239
						C705.604,427.447,705.788,427.422,705.968,427.374"/>
				</g>
			</g>
			<g>
				<rect x="418.108" y="191.743" fill="#D0D8C2" width="3.239" height="228.804"/>
			</g>
			<g enable-background="new    ">
				<defs>
					<path id="SVGID_23_" enable-background="new    " d="M705.423,424.804c-0.01-0.185-0.02-0.296-0.119-0.611
						c-0.068-0.206,0.676-1.411,0.713-3.646h3.238c0,3.746-1.756,6.9-3.832,6.9V424.804z"/>
				</defs>
				<clipPath id="SVGID_24_">
					<use xlink:href="#SVGID_23_"  overflow="visible"/>
				</clipPath>
				<g clip-path="url(#SVGID_24_)" enable-background="new    ">
					<path fill="#C9D0BC" d="M705.423,427.447v-3.238c-0.01,0.003-0.018,0.006-0.025,0.008l0.141,3.228
						C705.499,427.447,705.46,427.447,705.423,427.447"/>
					<path fill="#C6CEBA" d="M705.538,427.444l-0.141-3.228c-0.008,0.002-0.018,0.004-0.025,0.006l0.295,3.21
						C705.624,427.438,705.581,427.442,705.538,427.444"/>
					<path fill="#C3CBB7" d="M705.667,427.433l-0.295-3.21c-0.008,0-0.014,0.001-0.021,0.001l0.457,3.188
						C705.761,427.42,705.714,427.427,705.667,427.433"/>
					<path fill="#C1C8B5" d="M705.808,427.411l-0.457-3.188c-0.008,0-0.014-0.001-0.02-0.003l0.623,3.157
						C705.905,427.391,705.856,427.401,705.808,427.411"/>
					<path fill="#BEC5B2" d="M705.954,427.378l-0.623-3.157c-0.006-0.002-0.01-0.005-0.016-0.01l0.805,3.116
						C706.065,427.347,706.011,427.363,705.954,427.378"/>
					<path fill="#BBC3B0" d="M706.12,427.327l-0.805-3.115c-0.004-0.006-0.008-0.011-0.012-0.019l1.008,3.059
						C706.249,427.28,706.185,427.306,706.12,427.327"/>
					<path fill="#B8C0AE" d="M706.312,427.252l-1.008-3.059c-0.004-0.011-0.006-0.023-0.004-0.039l1.264,2.968
						C706.481,427.17,706.396,427.214,706.312,427.252"/>
					<path fill="#B6BDAB" d="M706.563,427.122l-1.264-2.968c0-0.021,0.004-0.048,0.012-0.079l1.586,2.821
						C706.788,426.981,706.677,427.057,706.563,427.122"/>
					<path fill="#B3BAA9" d="M706.897,426.896l-1.586-2.821c0.012-0.052,0.031-0.116,0.059-0.194l2.047,2.524
						C707.251,426.592,707.077,426.757,706.897,426.896"/>
					<path fill="#B0B7A6" d="M707.417,426.405l-2.047-2.524c0.051-0.148,0.123-0.344,0.199-0.589l2.689,1.843
						C708.013,425.625,707.729,426.055,707.417,426.405"/>
					<path fill="#ADB5A4" d="M708.259,425.135l-2.689-1.843c0.145-0.455,0.311-1.078,0.395-1.871l3.219,0.43
						C709.046,423.088,708.718,424.219,708.259,425.135"/>
					<path fill="#AAB2A1" d="M709.183,421.851l-3.219-0.43c0.027-0.271,0.049-0.563,0.053-0.874h3.238
						C709.255,420.991,709.231,421.427,709.183,421.851"/>
				</g>
			</g>
			<g enable-background="new    ">
				<defs>
					<path id="SVGID_25_" enable-background="new    " d="M711.987,187.884c0.346,1.237,0.516,2.558,0.504,3.86
						c-0.973,0-2.268,0-3.238,0c0.232-1.594-0.047-2.954-0.932-4.547c-0.086-0.153-0.205-0.355-0.299-0.502
						c-0.043-0.066-0.1-0.154-0.143-0.22c-0.193-0.292-0.402-0.573-0.596-0.866c-0.057-0.085-0.133-0.197-0.184-0.287
						c-0.021-0.041-0.041-0.107-0.078-0.139c-0.002-0.002-0.359-0.217-0.805-0.311c-0.385-0.08-0.654-0.043-0.799-0.023
						c0.219-0.07,0.516-0.16,0.744-0.184c0.254-0.026,0.596-0.002,0.85,0.02c0.006,0.001,0.611,0.065,1.379,0.42
						c0.799,0.369,1.352,0.795,1.795,1.137C710.739,186.67,711.972,187.856,711.987,187.884z"/>
				</defs>
				<clipPath id="SVGID_26_">
					<use xlink:href="#SVGID_25_"  overflow="visible"/>
				</clipPath>
				<g clip-path="url(#SVGID_26_)" enable-background="new    ">
					<path fill="#C9D0BC" d="M705.419,184.85v-3.238c0.176,0.006,0.348,0.02,0.516,0.039l-0.281,3.213
						C705.575,184.854,705.497,184.85,705.419,184.85"/>
					<path fill="#CCD3BE" d="M705.653,184.863l0.281-3.213c0.238,0.029,0.471,0.07,0.695,0.125l-0.652,3.151
						C705.87,184.897,705.763,184.876,705.653,184.863"/>
					<path fill="#CED6C1" d="M705.978,184.927l0.652-3.151c0.266,0.064,0.521,0.146,0.77,0.244l-1.049,3.045
						C706.228,185.008,706.103,184.961,705.978,184.927"/>
					<path fill="#D1D9C3" d="M706.351,185.064l1.049-3.045c0.367,0.146,0.717,0.326,1.045,0.539l-1.568,2.829
						C706.706,185.258,706.53,185.149,706.351,185.064"/>
					<path fill="#D4DBC5" d="M706.876,185.388l1.568-2.829c1.225,0.788,2.182,2.012,2.857,3.459l-2.83,1.613
						C708.06,186.653,707.509,185.871,706.876,185.388"/>
					<path fill="#D1D9C3" d="M708.472,187.631l2.83-1.613c0.361,0.772,0.643,1.607,0.84,2.474l-3.139,0.853
						C708.87,188.728,708.69,188.151,708.472,187.631"/>
					<path fill="#CED6C1" d="M709.003,189.344l3.139-0.853c0.158,0.689,0.262,1.399,0.314,2.111l-3.236,0.277
						C709.183,190.348,709.108,189.833,709.003,189.344"/>
					<path fill="#CCD3BE" d="M709.22,190.88l3.236-0.277c0.025,0.38,0.039,0.762,0.035,1.142h-3.238
						C709.253,191.451,709.241,191.163,709.22,190.88"/>
				</g>
			</g>
			<g enable-background="new    ">
				<defs>
					<path id="SVGID_27_" enable-background="new    " d="M705.423,184.041v-3.239c4.994,0.13,7.928,5.487,7.881,10.941h-3.24
						C710.063,187.495,707.979,184.041,705.423,184.041z"/>
				</defs>
				<clipPath id="SVGID_28_">
					<use xlink:href="#SVGID_27_"  overflow="visible"/>
				</clipPath>
				<g clip-path="url(#SVGID_28_)" enable-background="new    ">
					<path fill="#C9D0BC" d="M705.423,184.041v-3.239c0.213,0.006,0.424,0.021,0.629,0.045l-0.305,3.212
						C705.64,184.047,705.53,184.041,705.423,184.041"/>
					<path fill="#CCD3BE" d="M705.747,184.059l0.305-3.212c0.268,0.031,0.527,0.079,0.781,0.14l-0.672,3.152
						C706.024,184.102,705.888,184.076,705.747,184.059"/>
					<path fill="#CED6C1" d="M706.161,184.138l0.672-3.151c0.305,0.074,0.6,0.168,0.887,0.283l-1.078,3.041
						C706.483,184.239,706.323,184.182,706.161,184.138"/>
					<path fill="#D1D9C3" d="M706.642,184.311l1.078-3.041c0.416,0.165,0.809,0.372,1.182,0.615l-1.6,2.816
						C707.091,184.545,706.868,184.414,706.642,184.311"/>
					<path fill="#D4DBC5" d="M707.302,184.701l1.6-2.816c1.344,0.876,2.408,2.226,3.154,3.83l-2.846,1.581
						C708.729,186.17,708.069,185.269,707.302,184.701"/>
					<path fill="#D1D9C3" d="M709.21,187.296l2.846-1.581c0.377,0.812,0.672,1.691,0.881,2.607l-3.141,0.841
						C709.651,188.493,709.454,187.865,709.21,187.296"/>
					<path fill="#CED6C1" d="M709.796,189.163l3.141-0.841c0.164,0.719,0.273,1.461,0.328,2.211l-3.234,0.279
						C709.989,190.24,709.909,189.689,709.796,189.163"/>
					<path fill="#CCD3BE" d="M710.03,190.812l3.234-0.279c0.029,0.401,0.041,0.806,0.039,1.21h-3.24
						C710.063,191.428,710.052,191.117,710.03,190.812"/>
				</g>
			</g>
			<g>
				<rect x="710.063" y="191.743" fill="#D0D8C2" width="3.24" height="228.804"/>
			</g>
			<g>
				<rect x="421.941" y="428.257" fill="#B0B8A7" width="283.481" height="3.238"/>
			</g>
			<g enable-background="new    ">
				<defs>
					<path id="SVGID_29_" enable-background="new    " d="M421.941,428.257v3.238c-5.003-0.128-7.929-5.485-7.881-10.948h3.239
						C417.3,424.803,419.376,428.257,421.941,428.257z"/>
				</defs>
				<clipPath id="SVGID_30_">
					<use xlink:href="#SVGID_29_"  overflow="visible"/>
				</clipPath>
				<g clip-path="url(#SVGID_30_)" enable-background="new    ">
					<path fill="#ADB5A4" d="M421.941,428.257v3.238c-0.081-0.002-0.163-0.006-0.243-0.011l0.119-3.23
						C421.858,428.255,421.899,428.257,421.941,428.257"/>
					<path fill="#AAB2A1" d="M421.817,428.254l-0.119,3.23c-4.855-0.292-7.684-5.563-7.638-10.938h3.239
						C417.3,424.733,419.31,428.144,421.817,428.254"/>
				</g>
			</g>
			<g>
				<rect x="414.061" y="191.743" fill="#AFB6A5" width="3.239" height="228.804"/>
			</g>
			<g enable-background="new    ">
				<defs>
					<path id="SVGID_31_" enable-background="new    " d="M414.866,191.744c-0.045-4.861,2.451-9.967,7.072-10.133
						c0,0.972,0,2.267,0,3.238c-0.379-0.217-0.749-0.314-1.235-0.327c0.008,0.004,0.015,0.009,0.022,0.014
						c-0.444,0.175-0.91,0.383-1.297,0.83c-0.398,0.461-0.729,1.064-1.014,1.845c-0.129,0.355-0.398,1.096-0.438,2.388
						c-0.028,0.907,0.073,1.708,0.129,2.138l0,0c0,0.002,0,0.005,0,0.008C417.134,191.744,415.838,191.744,414.866,191.744z"/>
				</defs>
				<clipPath id="SVGID_32_">
					<use xlink:href="#SVGID_31_"  overflow="visible"/>
				</clipPath>
				<g clip-path="url(#SVGID_32_)" enable-background="new    ">
					<path fill="#AAB2A1" d="M418.105,191.744h-3.239c-0.005-0.557,0.023-1.117,0.084-1.672l3.223,0.414
						C418.128,190.895,418.105,191.316,418.105,191.744"/>
					<path fill="#ADB5A4" d="M418.173,190.486l-3.223-0.414c0.146-1.342,0.485-2.657,1.006-3.836l2.869,1.542
						C418.507,188.577,418.278,189.498,418.173,190.486"/>
					<path fill="#B0B7A6" d="M418.825,187.778l-2.869-1.542c0.283-0.642,0.62-1.243,1.01-1.787l2.459,2.14
						C419.2,186.943,418.999,187.342,418.825,187.778"/>
					<path fill="#B3BAA9" d="M419.425,186.589l-2.459-2.14c0.258-0.357,0.537-0.691,0.84-0.993l2.089,2.492
						C419.729,186.141,419.571,186.355,419.425,186.589"/>
					<path fill="#B6BDAB" d="M419.895,185.948l-2.089-2.492c0.227-0.226,0.465-0.435,0.715-0.624l1.757,2.725
						C420.146,185.674,420.018,185.805,419.895,185.948"/>
					<path fill="#B8C0AE" d="M420.277,185.557l-1.757-2.725c0.205-0.155,0.418-0.297,0.64-0.426l1.448,2.889
						C420.495,185.373,420.386,185.46,420.277,185.557"/>
					<path fill="#BBC3B0" d="M420.608,185.295l-1.448-2.889c0.192-0.111,0.39-0.213,0.594-0.302l1.153,3.01
						C420.806,185.167,420.706,185.228,420.608,185.295"/>
					<path fill="#BEC5B2" d="M420.907,185.114l-1.153-3.01c0.185-0.081,0.375-0.153,0.569-0.216l0.863,3.102
						C421.092,185.025,420.999,185.066,420.907,185.114"/>
					<path fill="#C1C8B5" d="M421.187,184.99l-0.863-3.102c0.184-0.059,0.371-0.108,0.564-0.149l0.566,3.168
						C421.364,184.93,421.274,184.957,421.187,184.99"/>
					<path fill="#C3CBB7" d="M421.454,184.907l-0.566-3.167c0.187-0.041,0.378-0.072,0.573-0.094l0.261,3.215
						C421.632,184.871,421.543,184.887,421.454,184.907"/>
					<path fill="#C6CEBA" d="M421.722,184.861l-0.261-3.215c0.156-0.018,0.315-0.029,0.478-0.035v3.238
						C421.866,184.85,421.794,184.854,421.722,184.861"/>
				</g>
			</g>
			<g enable-background="new    ">
				<defs>
					<path id="SVGID_33_" enable-background="new    " d="M417.3,191.743h-3.239c-0.048-5.452,2.878-10.813,7.881-10.941v3.239
						C419.376,184.041,417.3,187.495,417.3,191.743z"/>
				</defs>
				<clipPath id="SVGID_34_">
					<use xlink:href="#SVGID_33_"  overflow="visible"/>
				</clipPath>
				<g clip-path="url(#SVGID_34_)" enable-background="new    ">
					<path fill="#AAB2A1" d="M417.3,191.743h-3.239c-0.005-0.595,0.024-1.188,0.089-1.773l3.223,0.415
						C417.325,190.826,417.3,191.279,417.3,191.743"/>
					<path fill="#ADB5A4" d="M417.372,190.385l-3.223-0.415c0.156-1.417,0.512-2.79,1.051-4.021l2.883,1.511
						C417.733,188.326,417.486,189.318,417.372,190.385"/>
					<path fill="#B0B7A6" d="M418.083,187.459l-2.883-1.511c0.304-0.69,0.664-1.339,1.08-1.925l2.486,2.104
						C418.509,186.525,418.28,186.973,418.083,187.459"/>
					<path fill="#B3BAA9" d="M418.767,186.127l-2.486-2.104c0.281-0.397,0.588-0.767,0.92-1.104l2.123,2.463
						C419.126,185.607,418.94,185.855,418.767,186.127"/>
					<path fill="#B6BDAB" d="M419.323,185.383l-2.123-2.463c0.254-0.26,0.523-0.498,0.807-0.716l1.791,2.706
						C419.634,185.053,419.476,185.21,419.323,185.383"/>
					<path fill="#B8C0AE" d="M419.798,184.91l-1.791-2.706c0.23-0.177,0.469-0.337,0.716-0.483l1.485,2.875
						C420.067,184.69,419.931,184.795,419.798,184.91"/>
					<path fill="#BBC3B0" d="M420.208,184.596l-1.485-2.875c0.216-0.129,0.44-0.244,0.671-0.348l1.19,3.002
						C420.456,184.44,420.331,184.514,420.208,184.596"/>
					<path fill="#BEC5B2" d="M420.584,184.375l-1.19-3.002c0.211-0.094,0.428-0.178,0.648-0.25l0.898,3.098
						C420.819,184.265,420.7,184.316,420.584,184.375"/>
					<path fill="#C1C8B5" d="M420.94,184.221l-0.898-3.098c0.211-0.068,0.426-0.126,0.645-0.173l0.6,3.167
						C421.169,184.145,421.054,184.18,420.94,184.221"/>
					<path fill="#C3CBB7" d="M421.286,184.117l-0.6-3.167c0.215-0.046,0.434-0.083,0.656-0.107l0.289,3.215
						C421.515,184.07,421.399,184.09,421.286,184.117"/>
					<path fill="#C6CEBA" d="M421.632,184.058l-0.289-3.215c0.197-0.022,0.396-0.036,0.599-0.041v3.239
						C421.837,184.041,421.734,184.047,421.632,184.058"/>
				</g>
			</g>
			<g>
				<rect x="421.941" y="180.802" fill="#CDD4BF" width="283.481" height="3.239"/>
			</g>
			<g>
				<rect x="706.017" y="191.743" fill="#AFB6A5" width="3.238" height="228.804"/>
			</g>
			<g enable-background="new    ">
				<defs>
					<path id="SVGID_35_" enable-background="new    " d="M705.304,188.105c0.076-0.246,0.109-0.378,0.119-0.611v-2.645
						c2.076,0,3.832,3.156,3.832,6.894h-3.238C705.979,189.517,705.235,188.312,705.304,188.105z"/>
				</defs>
				<clipPath id="SVGID_36_">
					<use xlink:href="#SVGID_35_"  overflow="visible"/>
				</clipPath>
				<g clip-path="url(#SVGID_36_)" enable-background="new    ">
					<path fill="#AAB2A1" d="M709.255,191.743h-3.238c-0.043-2.532-0.998-3.743-0.635-3.666l0.234-3.218
						C707.608,185.049,709.255,188.123,709.255,191.743"/>
					<path fill="#ADB5A4" d="M705.616,184.859l-0.234,3.218c0.012,0.003,0.025,0.007,0.041,0.012v-3.239
						C705.487,184.85,705.552,184.854,705.616,184.859"/>
				</g>
			</g>
			<g enable-background="new    ">
				<defs>
					<path id="SVGID_37_" enable-background="new    " d="M707.022,185.184c0-0.002-0.357-0.217-0.805-0.311
						c-0.385-0.08-0.654-0.043-0.799-0.023c0.002,0,0.004,0,0.004,0c2.072,0.005,3.824,3.15,3.83,6.879c0,0.005,0,0.01,0,0.016
						c0.225-1.55-0.133-2.67-0.176-2.793c-0.16-0.477-0.328-0.969-0.756-1.754c-0.086-0.154-0.205-0.355-0.299-0.502
						c-0.043-0.066-0.1-0.154-0.143-0.22c-0.193-0.292-0.402-0.573-0.596-0.866c-0.057-0.085-0.133-0.197-0.184-0.287
						C707.079,185.281,707.058,185.218,707.022,185.184z"/>
				</defs>
				<clipPath id="SVGID_38_">
					<use xlink:href="#SVGID_37_"  overflow="visible"/>
				</clipPath>
				<g clip-path="url(#SVGID_38_)" enable-background="new    ">
					<path fill="#C9D0BC" d="M705.419,184.85v-3.238c0.176,0.006,0.348,0.02,0.516,0.039l-0.281,3.213
						C705.575,184.854,705.497,184.85,705.419,184.85"/>
					<path fill="#CCD3BE" d="M705.653,184.863l0.281-3.213c0.238,0.029,0.471,0.07,0.695,0.125l-0.652,3.151
						C705.87,184.897,705.763,184.876,705.653,184.863"/>
					<path fill="#CED6C1" d="M705.978,184.927l0.652-3.151c0.266,0.064,0.521,0.146,0.77,0.244l-1.049,3.045
						C706.228,185.008,706.103,184.961,705.978,184.927"/>
					<path fill="#D1D9C3" d="M706.351,185.064l1.049-3.045c0.367,0.146,0.717,0.326,1.045,0.539l-1.568,2.829
						C706.706,185.258,706.53,185.149,706.351,185.064"/>
					<path fill="#D4DBC5" d="M706.876,185.388l1.568-2.829c1.225,0.788,2.182,2.012,2.857,3.459l-2.83,1.613
						C708.06,186.653,707.509,185.871,706.876,185.388"/>
					<path fill="#D1D9C3" d="M708.472,187.631l2.83-1.613c0.361,0.772,0.643,1.607,0.84,2.474l-3.139,0.853
						C708.87,188.728,708.69,188.151,708.472,187.631"/>
					<path fill="#CED6C1" d="M709.003,189.344l3.139-0.853c0.158,0.689,0.262,1.399,0.314,2.111l-3.236,0.277
						C709.183,190.348,709.108,189.833,709.003,189.344"/>
					<path fill="#CCD3BE" d="M709.22,190.88l3.236-0.277c0.025,0.38,0.039,0.762,0.035,1.142h-3.238
						C709.253,191.451,709.241,191.163,709.22,190.88"/>
				</g>
			</g>
			<g enable-background="new    ">
				<defs>
					<path id="SVGID_39_" enable-background="new    " d="M420.726,184.536c-0.008-0.005-0.015-0.01-0.022-0.014
						c0.486,0.013,0.856,0.11,1.235,0.327c-2.076,0-3.83,3.151-3.833,6.887c-0.247-1.93-0.157-3.241,0.31-4.525
						c0.285-0.78,0.615-1.384,1.014-1.845C419.815,184.919,420.281,184.711,420.726,184.536z"/>
				</defs>
				<clipPath id="SVGID_40_">
					<use xlink:href="#SVGID_39_"  overflow="visible"/>
				</clipPath>
				<g clip-path="url(#SVGID_40_)" enable-background="new    ">
					<path fill="#AAB2A1" d="M418.105,191.744h-3.239c-0.005-0.557,0.023-1.117,0.084-1.672l3.223,0.414
						C418.128,190.895,418.105,191.316,418.105,191.744"/>
					<path fill="#ADB5A4" d="M418.173,190.486l-3.223-0.414c0.146-1.342,0.485-2.657,1.006-3.836l2.869,1.542
						C418.507,188.577,418.278,189.498,418.173,190.486"/>
					<path fill="#B0B7A6" d="M418.825,187.778l-2.869-1.542c0.283-0.642,0.62-1.243,1.01-1.787l2.459,2.14
						C419.2,186.943,418.999,187.342,418.825,187.778"/>
					<path fill="#B3BAA9" d="M419.425,186.589l-2.459-2.14c0.258-0.357,0.537-0.691,0.84-0.993l2.089,2.492
						C419.729,186.141,419.571,186.355,419.425,186.589"/>
					<path fill="#B6BDAB" d="M419.895,185.948l-2.089-2.492c0.227-0.226,0.465-0.435,0.715-0.624l1.757,2.725
						C420.146,185.674,420.018,185.805,419.895,185.948"/>
					<path fill="#B8C0AE" d="M420.277,185.557l-1.757-2.725c0.205-0.155,0.418-0.297,0.64-0.426l1.448,2.889
						C420.495,185.373,420.386,185.46,420.277,185.557"/>
					<path fill="#BBC3B0" d="M420.608,185.295l-1.448-2.889c0.192-0.111,0.39-0.213,0.594-0.302l1.153,3.01
						C420.806,185.167,420.706,185.228,420.608,185.295"/>
					<path fill="#BEC5B2" d="M420.907,185.114l-1.153-3.01c0.185-0.081,0.375-0.153,0.569-0.216l0.863,3.102
						C421.092,185.025,420.999,185.066,420.907,185.114"/>
					<path fill="#C1C8B5" d="M421.187,184.99l-0.863-3.102c0.184-0.059,0.371-0.108,0.564-0.149l0.566,3.168
						C421.364,184.93,421.274,184.957,421.187,184.99"/>
					<path fill="#C3CBB7" d="M421.454,184.907l-0.566-3.167c0.187-0.041,0.378-0.072,0.573-0.094l0.261,3.215
						C421.632,184.871,421.543,184.887,421.454,184.907"/>
					<path fill="#C6CEBA" d="M421.722,184.861l-0.261-3.215c0.156-0.018,0.315-0.029,0.478-0.035v3.238
						C421.866,184.85,421.794,184.854,421.722,184.861"/>
				</g>
			</g>
			<g>
				<path fill="#CCD4BF" d="M705.423,184.041c2.557,0,4.641,3.454,4.641,7.702v228.804c0,4.256-2.084,7.71-4.641,7.71H421.941
					c-2.565,0-4.642-3.454-4.642-7.71V191.743c0-4.248,2.076-7.702,4.642-7.702H705.423z M709.255,420.547V191.743
					c0-3.737-1.756-6.894-3.832-6.894H421.941c-2.077,0-3.833,3.156-3.833,6.894v228.804c0,3.746,1.756,6.9,3.833,6.9h283.481
					C707.499,427.447,709.255,424.293,709.255,420.547"/>
			</g>
			<g>
				<path fill="#CCD4BF" stroke="#9EA392" stroke-miterlimit="10" d="M705.419,184.85c2.076,0,3.834,3.156,3.834,6.895v228.803
					c0,3.746-1.758,6.9-3.834,6.9h-283.48c-2.077,0-3.833-3.154-3.833-6.9V191.744c0-3.738,1.756-6.895,3.833-6.895H705.419z"/>
			</g>
		</g>
	</g>
	<text transform="matrix(1 0 0 1 550.8247 232.3486)" fill="#616162" font-family="'OpenSans-Semibold'" font-size="16.1943">20°</text>
	<g>
		<g>
			<g enable-background="new    ">
				<g enable-background="new    ">
					<defs>
						<path id="SVGID_41_" enable-background="new    " d="M560.394,266.068v-8.098c26.58,0.01,48.168,21.59,48.178,48.178
							c-0.01,26.58-21.598,48.169-48.178,48.178c-26.588-0.008-48.168-21.598-48.178-48.178
							c0.008-26.586,21.59-48.169,48.178-48.178V266.068c-22.104,0-40.082,17.979-40.082,40.08
							c0,22.096,17.979,40.081,40.082,40.081c22.096,0,40.08-17.985,40.08-40.081C600.474,284.047,582.489,266.068,560.394,266.068z
							"/>
					</defs>
					<clipPath id="SVGID_42_">
						<use xlink:href="#SVGID_41_"  overflow="visible"/>
					</clipPath>
					<g clip-path="url(#SVGID_42_)" enable-background="new    ">
						<path fill="#95988C" d="M560.394,266.068v-8.098c0.668,0,1.334,0.015,1.996,0.041l-0.338,8.09
							C561.501,266.08,560.948,266.068,560.394,266.068"/>
						<path fill="#989B8F" d="M562.052,266.102l0.338-8.09c1.572,0.064,3.125,0.205,4.654,0.418l-1.121,8.019
							C564.651,266.271,563.36,266.155,562.052,266.102"/>
						<path fill="#9A9E91" d="M565.923,266.448l1.121-8.019c1.652,0.229,3.275,0.541,4.869,0.934l-1.941,7.861
							C568.647,266.898,567.296,266.639,565.923,266.448"/>
						<path fill="#9DA094" d="M569.972,267.225l1.941-7.861c1.832,0.451,3.625,1.008,5.369,1.662l-2.844,7.583
							C572.987,268.062,571.497,267.6,569.972,267.225"/>
						<path fill="#A0A396" d="M574.438,268.608l2.844-7.583c2.137,0.802,4.201,1.751,6.182,2.834l-3.883,7.107
							C577.933,270.065,576.216,269.275,574.438,268.608"/>
						<path fill="#A3A699" d="M579.581,270.967l3.883-7.107c3.311,1.812,6.385,4.001,9.166,6.509l-5.422,6.017
							C584.894,274.297,582.335,272.476,579.581,270.967"/>
						<path fill="#A5A89B" d="M587.208,276.385l5.422-6.017c3.26,2.94,6.117,6.318,8.479,10.042l-6.844,4.331
							C592.3,281.643,589.921,278.831,587.208,276.385"/>
						<path fill="#A3A699" d="M594.265,284.741l6.844-4.331c1.965,3.1,3.588,6.438,4.811,9.963l-7.65,2.656
							C597.251,290.099,595.901,287.32,594.265,284.741"/>
						<path fill="#A0A396" d="M598.269,293.029l7.65-2.656c0.732,2.109,1.322,4.286,1.758,6.518l-7.945,1.561
							C599.37,296.596,598.878,294.785,598.269,293.029"/>
						<path fill="#9DA094" d="M599.731,298.451l7.945-1.561c0.357,1.832,0.613,3.699,0.756,5.599l-8.072,0.617
							C600.241,301.527,600.03,299.975,599.731,298.451"/>
						<path fill="#9A9E91" d="M600.36,303.106l8.072-0.617c0.092,1.208,0.139,2.429,0.139,3.659c0,0.464-0.008,0.926-0.021,1.385
							l-8.092-0.232c0.01-0.383,0.016-0.767,0.016-1.152C600.474,305.125,600.435,304.111,600.36,303.106"/>
						<path fill="#989B8F" d="M600.458,307.301l8.092,0.232c-0.043,1.577-0.166,3.135-0.357,4.671l-8.033-1.021
							C600.319,309.906,600.421,308.611,600.458,307.301"/>
						<path fill="#95988C" d="M600.159,311.183l8.033,1.021c-0.188,1.474-0.439,2.927-0.756,4.356l-7.904-1.754
							C599.794,313.617,600.005,312.408,600.159,311.183"/>
						<path fill="#92958A" d="M599.532,314.807l7.904,1.754c-0.309,1.398-0.68,2.775-1.107,4.125l-7.719-2.449
							C598.966,317.113,599.274,315.969,599.532,314.807"/>
						<path fill="#8F9287" d="M598.61,318.236l7.719,2.449c-0.424,1.342-0.906,2.658-1.443,3.945l-7.477-3.112
							C597.854,320.447,598.257,319.353,598.61,318.236"/>
						<path fill="#8C9085" d="M597.409,321.519l7.477,3.112c-0.541,1.296-1.135,2.562-1.781,3.798l-7.18-3.751
							C596.464,323.65,596.96,322.596,597.409,321.519"/>
						<path fill="#898D82" d="M595.925,324.678l7.18,3.751c-0.658,1.258-1.371,2.483-2.135,3.673l-6.82-4.367
							C594.784,326.744,595.378,325.725,595.925,324.678"/>
						<path fill="#868A7F" d="M594.149,327.734l6.82,4.367c-0.783,1.222-1.621,2.405-2.508,3.549l-6.4-4.963
							C592.8,329.736,593.497,328.75,594.149,327.734"/>
						<path fill="#83877D" d="M592.062,330.688l6.4,4.963c-0.922,1.186-1.896,2.328-2.924,3.423l-5.91-5.537
							C590.481,332.625,591.294,331.674,592.062,330.688"/>
						<path fill="#80847A" d="M589.628,333.536l5.91,5.537c-1.072,1.145-2.199,2.235-3.379,3.271l-5.342-6.087
							C587.798,335.396,588.735,334.488,589.628,333.536"/>
						<path fill="#7D8177" d="M586.817,336.258l5.342,6.087c-1.25,1.099-2.559,2.135-3.922,3.103l-4.684-6.606
							C584.687,338.036,585.776,337.174,586.817,336.258"/>
						<path fill="#7A7E74" d="M583.554,338.841l4.684,6.606c-1.465,1.042-2.992,2.004-4.572,2.879l-3.918-7.09
							C581.063,340.509,582.333,339.709,583.554,338.841"/>
						<path fill="#777B72" d="M579.747,341.236l3.918,7.09c-1.734,0.959-3.535,1.816-5.393,2.561l-3.01-7.518
							C576.808,342.75,578.304,342.036,579.747,341.236"/>
						<path fill="#74786F" d="M575.263,343.369l3.01,7.518c-2.107,0.846-4.289,1.545-6.531,2.089l-1.912-7.868
							C571.694,344.655,573.509,344.072,575.263,343.369"/>
						<path fill="#72756C" d="M569.829,345.107l1.912,7.868c-2.736,0.663-5.564,1.093-8.463,1.265l-0.486-8.082
							C565.2,346.016,567.552,345.658,569.829,345.107"/>
						<path fill="#6F726A" d="M562.792,346.158l0.486,8.082c-0.955,0.057-1.916,0.086-2.885,0.086c-3.127,0-6.186-0.3-9.148-0.871
							l1.543-7.949c2.463,0.475,5.006,0.724,7.605,0.724C561.198,346.229,561.999,346.206,562.792,346.158"/>
						<path fill="#6C6F67" d="M552.788,345.506l-1.543,7.949c-21.85-4.213-38.463-23.207-39.016-46.141l8.094-0.196
							C520.778,326.184,534.616,342.002,552.788,345.506"/>
						<path fill="#6F726A" d="M520.323,307.118l-8.094,0.196c-0.01-0.387-0.014-0.775-0.014-1.166c0-3.712,0.422-7.327,1.221-10.799
							l7.889,1.819c-0.662,2.888-1.014,5.894-1.014,8.979C520.312,306.473,520.315,306.796,520.323,307.118"/>
						<path fill="#72756C" d="M521.325,297.169l-7.889-1.819c0.641-2.797,1.527-5.5,2.633-8.088l7.449,3.18
							C522.597,292.595,521.86,294.844,521.325,297.169"/>
						<path fill="#74786F" d="M523.519,290.441l-7.449-3.18c0.91-2.131,1.971-4.184,3.166-6.145l6.918,4.213
							C525.157,286.961,524.276,288.669,523.519,290.441"/>
						<path fill="#777B72" d="M526.153,285.33l-6.918-4.213c1.045-1.713,2.193-3.355,3.438-4.918l6.342,5.037
							C527.979,282.538,527.022,283.904,526.153,285.33"/>
						<path fill="#7A7E74" d="M529.015,281.236l-6.342-5.037c1.133-1.424,2.344-2.783,3.627-4.069l5.734,5.721
							C530.966,278.921,529.956,280.051,529.015,281.236"/>
						<path fill="#7D8177" d="M532.034,277.851l-5.734-5.721c1.174-1.175,2.406-2.291,3.695-3.341l5.113,6.281
							C534.036,275.944,533.011,276.872,532.034,277.851"/>
						<path fill="#80847A" d="M535.108,275.07l-5.113-6.281c1.211-0.986,2.473-1.917,3.777-2.785l4.479,6.748
							C537.165,273.475,536.116,274.248,535.108,275.07"/>
						<path fill="#83877D" d="M538.251,272.752l-4.479-6.748c1.24-0.824,2.521-1.594,3.838-2.303l3.836,7.135
							C540.349,271.426,539.284,272.066,538.251,272.752"/>
						<path fill="#868A7F" d="M541.446,270.836l-3.836-7.135c1.266-0.682,2.564-1.308,3.895-1.876l3.18,7.448
							C543.579,269.746,542.499,270.268,541.446,270.836"/>
						<path fill="#898D82" d="M544.685,269.273l-3.18-7.448c1.283-0.548,2.596-1.043,3.936-1.48l2.518,7.696
							C546.845,268.405,545.753,268.817,544.685,269.273"/>
						<path fill="#8C9085" d="M547.958,268.041l-2.518-7.696c1.316-0.431,2.66-0.806,4.023-1.124l1.842,7.886
							C550.171,267.371,549.054,267.684,547.958,268.041"/>
						<path fill="#8F9287" d="M551.306,267.106l-1.842-7.886c1.359-0.315,2.74-0.574,4.141-0.772l1.145,8.017
							C553.585,266.629,552.437,266.844,551.306,267.106"/>
						<path fill="#92958A" d="M554.749,266.465l-1.145-8.017c1.414-0.2,2.848-0.339,4.297-0.413l0.42,8.086
							C557.116,266.183,555.925,266.298,554.749,266.465"/>
						<path fill="#95988C" d="M558.321,266.121l-0.42-8.086c0.826-0.043,1.656-0.064,2.492-0.064v8.098
							C559.698,266.068,559.007,266.086,558.321,266.121"/>
					</g>
				</g>
				<g enable-background="new    ">
					<defs>
						<path id="SVGID_43_" enable-background="new    " d="M560.394,265.26v-8.098c27.031,0.009,48.979,21.955,48.986,48.986
							c-0.008,27.031-21.955,48.979-48.986,48.987c-27.031-0.009-48.979-21.956-48.988-48.987
							c0.01-27.031,21.957-48.978,48.988-48.986V265.26c-22.547,0-40.891,18.342-40.891,40.889s18.344,40.891,40.891,40.891
							s40.889-18.344,40.889-40.891S582.94,265.26,560.394,265.26z"/>
					</defs>
					<clipPath id="SVGID_44_">
						<use xlink:href="#SVGID_43_"  overflow="visible"/>
					</clipPath>
					<g clip-path="url(#SVGID_44_)" enable-background="new    ">
						<path fill="#878D7D" d="M560.394,265.26v-8.098c0.68,0,1.355,0.014,2.029,0.042l-0.336,8.09
							C561.524,265.271,560.96,265.26,560.394,265.26"/>
						<path fill="#898F7F" d="M562.087,265.294l0.336-8.09c1.6,0.065,3.18,0.208,4.736,0.425l-1.121,8.019
							C564.737,265.467,563.421,265.349,562.087,265.294"/>
						<path fill="#8C9281" d="M566.038,265.647l1.121-8.019c1.678,0.232,3.328,0.55,4.947,0.948l-1.939,7.862
							C568.813,266.107,567.437,265.841,566.038,265.647"/>
						<path fill="#8F9484" d="M570.167,266.439l1.939-7.862c1.865,0.46,3.689,1.024,5.463,1.69l-2.846,7.583
							C573.243,267.295,571.724,266.822,570.167,266.439"/>
						<path fill="#919786" d="M574.724,267.851l2.846-7.583c2.172,0.815,4.27,1.779,6.283,2.882l-3.883,7.107
							C578.288,269.336,576.536,268.531,574.724,267.851"/>
						<path fill="#949988" d="M579.97,270.257l3.883-7.107c3.365,1.842,6.49,4.067,9.316,6.616l-5.42,6.016
							C585.388,273.652,582.778,271.795,579.97,270.257"/>
						<path fill="#969B8A" d="M587.749,275.781l5.42-6.016c3.316,2.988,6.223,6.425,8.623,10.211l-6.844,4.332
							C592.942,281.146,590.517,278.278,587.749,275.781"/>
						<path fill="#949988" d="M594.948,284.309l6.844-4.332c1.998,3.151,3.648,6.547,4.891,10.131l-7.65,2.656
							C597.993,289.773,596.618,286.939,594.948,284.309"/>
						<path fill="#919786" d="M599.032,292.764l7.65-2.656c0.746,2.145,1.346,4.357,1.789,6.627l-7.945,1.561
							C600.155,296.401,599.655,294.555,599.032,292.764"/>
						<path fill="#8F9484" d="M600.526,298.295l7.945-1.561c0.363,1.862,0.621,3.762,0.768,5.693l-8.072,0.617
							C601.044,301.434,600.829,299.849,600.526,298.295"/>
						<path fill="#8C9281" d="M601.167,303.045l8.072-0.617c0.092,1.229,0.141,2.469,0.141,3.721c0,0.472-0.008,0.942-0.02,1.41
							l-8.094-0.234c0.01-0.391,0.016-0.782,0.016-1.176C601.282,305.104,601.243,304.069,601.167,303.045"/>
						<path fill="#898F7F" d="M601.267,307.324l8.094,0.234c-0.047,1.604-0.17,3.189-0.367,4.751l-8.031-1.021
							C601.126,309.985,601.228,308.663,601.267,307.324"/>
						<path fill="#878D7D" d="M600.962,311.288l8.031,1.021c-0.188,1.499-0.445,2.978-0.768,4.433l-7.904-1.756
							C600.589,313.772,600.804,312.539,600.962,311.288"/>
						<path fill="#848A7B" d="M600.321,314.986l7.904,1.756c-0.314,1.422-0.691,2.821-1.125,4.194l-7.719-2.45
							C599.745,317.341,600.06,316.173,600.321,314.986"/>
						<path fill="#828778" d="M599.382,318.486l7.719,2.45c-0.434,1.364-0.924,2.702-1.469,4.011l-7.477-3.113
							C598.61,320.742,599.021,319.625,599.382,318.486"/>
						<path fill="#7F8576" d="M598.155,321.834l7.477,3.113c-0.549,1.318-1.154,2.605-1.812,3.861l-7.178-3.751
							C597.192,324.01,597.696,322.934,598.155,321.834"/>
						<path fill="#7D8274" d="M596.642,325.058l7.178,3.751c-0.668,1.279-1.393,2.524-2.168,3.734l-6.82-4.368
							C595.479,327.165,596.083,326.125,596.642,325.058"/>
						<path fill="#7A8071" d="M594.831,328.175l6.82,4.368c-0.797,1.241-1.648,2.444-2.551,3.606l-6.4-4.964
							C593.454,330.216,594.165,329.211,594.831,328.175"/>
						<path fill="#777D6F" d="M592.7,331.186l6.4,4.964c-0.936,1.206-1.928,2.367-2.971,3.479l-5.91-5.537
							C591.091,333.162,591.919,332.193,592.7,331.186"/>
						<path fill="#747A6C" d="M590.22,334.092l5.91,5.537c-1.09,1.163-2.236,2.273-3.434,3.324l-5.344-6.086
							C588.353,335.988,589.31,335.062,590.22,334.092"/>
						<path fill="#72776A" d="M587.353,336.867l5.344,6.086c-1.271,1.119-2.602,2.172-3.986,3.154l-4.686-6.605
							C585.179,338.681,586.292,337.801,587.353,336.867"/>
						<path fill="#6F7568" d="M584.024,339.502l4.686,6.605c-1.49,1.059-3.041,2.037-4.648,2.926l-3.918-7.088
							C581.485,341.202,582.78,340.385,584.024,339.502"/>
						<path fill="#6C7265" d="M580.144,341.945l3.918,7.088c-1.764,0.977-3.596,1.848-5.482,2.604l-3.012-7.518
							C577.144,343.488,578.671,342.761,580.144,341.945"/>
						<path fill="#6A6F63" d="M575.567,344.12l3.012,7.518c-2.145,0.859-4.361,1.571-6.641,2.124l-1.914-7.868
							C571.927,345.432,573.778,344.837,575.567,344.12"/>
						<path fill="#676D60" d="M570.024,345.894l1.914,7.868c-2.785,0.675-5.662,1.111-8.609,1.286l-0.486-8.082
							C565.3,346.82,567.7,346.457,570.024,345.894"/>
						<path fill="#646A5E" d="M562.843,346.966l0.486,8.082c-0.971,0.058-1.949,0.088-2.936,0.088
							c-3.182-0.001-6.289-0.306-9.303-0.887l1.541-7.949c2.516,0.485,5.109,0.739,7.762,0.739
							C561.216,347.039,562.032,347.015,562.843,346.966"/>
						<path fill="#62675C" d="M552.632,346.3l-1.541,7.949c-22.213-4.284-39.107-23.591-39.67-46.913l8.094-0.197
							C519.979,326.593,534.099,342.725,552.632,346.3"/>
						<path fill="#646A5E" d="M519.515,307.139l-8.094,0.197c-0.01-0.395-0.016-0.791-0.016-1.188
							c0.002-3.773,0.432-7.449,1.242-10.979l7.891,1.818c-0.678,2.946-1.035,6.013-1.035,9.16
							C519.503,306.479,519.507,306.81,519.515,307.139"/>
						<path fill="#676D60" d="M520.538,296.988l-7.891-1.818c0.652-2.844,1.553-5.592,2.678-8.223l7.447,3.18
							C521.835,292.322,521.083,294.617,520.538,296.988"/>
						<path fill="#6A6F63" d="M522.772,290.127l-7.447-3.18c0.926-2.167,2.002-4.254,3.219-6.248l6.918,4.212
							C524.446,286.576,523.546,288.318,522.772,290.127"/>
						<path fill="#6C7265" d="M525.462,284.911l-6.918-4.212c1.062-1.742,2.23-3.412,3.496-5.002l6.342,5.037
							C527.325,282.062,526.349,283.457,525.462,284.911"/>
						<path fill="#6F7568" d="M528.382,280.734l-6.342-5.037c1.15-1.448,2.383-2.83,3.689-4.138l5.732,5.72
							C530.372,278.373,529.343,279.525,528.382,280.734"/>
						<path fill="#72776A" d="M531.462,277.279l-5.732-5.72c1.191-1.195,2.445-2.329,3.756-3.397l5.113,6.281
							C533.505,275.334,532.458,276.282,531.462,277.279"/>
						<path fill="#747A6C" d="M534.599,274.443l-5.113-6.281c1.232-1.004,2.514-1.949,3.842-2.832l4.479,6.748
							C536.698,272.814,535.628,273.604,534.599,274.443"/>
						<path fill="#777D6F" d="M537.806,272.078l-4.479-6.748c1.262-0.839,2.562-1.621,3.904-2.342l3.832,7.134
							C539.946,270.725,538.858,271.378,537.806,272.078"/>
						<path fill="#7A8071" d="M541.063,270.122l-3.832-7.134c1.285-0.693,2.607-1.33,3.959-1.907l3.18,7.448
							C543.241,269.012,542.14,269.544,541.063,270.122"/>
						<path fill="#7D8274" d="M544.37,268.529l-3.18-7.448c1.305-0.558,2.641-1.062,4-1.506l2.518,7.697
							C546.573,267.644,545.46,268.063,544.37,268.529"/>
						<path fill="#7F8576" d="M547.708,267.272l-2.518-7.697c1.34-0.438,2.705-0.819,4.094-1.142l1.84,7.885
							C549.966,266.588,548.827,266.906,547.708,267.272"/>
						<path fill="#828778" d="M551.124,266.318l-1.84-7.885c1.381-0.322,2.783-0.584,4.207-0.786l1.145,8.016
							C553.448,265.831,552.276,266.051,551.124,266.318"/>
						<path fill="#848A7B" d="M554.636,265.663l-1.145-8.016c1.438-0.204,2.895-0.345,4.369-0.421l0.42,8.086
							C557.05,265.376,555.835,265.493,554.636,265.663"/>
						<path fill="#878D7D" d="M558.28,265.312l-0.42-8.086c0.84-0.043,1.684-0.064,2.533-0.064v8.098
							C559.685,265.26,558.981,265.277,558.28,265.312"/>
					</g>
				</g>
				<g enable-background="new    ">
					<defs>
						<path id="SVGID_45_" enable-background="new    " d="M560.394,346.229v-8.097c17.609,0.01,31.992-14.373,31.982-31.984
							c0.01-17.617-14.371-31.992-31.982-31.983c-17.619-0.009-31.992,14.365-31.984,31.983
							c-0.01,17.612,14.367,31.993,31.984,31.984V346.229c-22.104,0-40.082-17.985-40.082-40.081
							c0-22.102,17.979-40.08,40.082-40.08c22.096,0,40.08,17.979,40.08,40.08C600.474,328.244,582.489,346.229,560.394,346.229z"/>
					</defs>
					<clipPath id="SVGID_46_">
						<use xlink:href="#SVGID_45_"  overflow="visible"/>
					</clipPath>
					<g clip-path="url(#SVGID_46_)" enable-background="new    ">
						<path fill="#878D7D" d="M560.394,346.229v-8.097c0.555,0,1.107-0.014,1.658-0.042l0.422,8.086
							C561.784,346.211,561.091,346.229,560.394,346.229"/>
						<path fill="#848A7B" d="M562.474,346.177l-0.422-8.086c0.957-0.05,1.904-0.141,2.84-0.272l1.145,8.016
							C564.864,346,563.675,346.115,562.474,346.177"/>
						<path fill="#828778" d="M566.036,345.834l-1.145-8.016c0.926-0.131,1.84-0.303,2.738-0.512l1.842,7.886
							C568.343,345.455,567.198,345.669,566.036,345.834"/>
						<path fill="#7F8576" d="M569.472,345.192l-1.842-7.886c0.904-0.211,1.795-0.459,2.668-0.745l2.516,7.698
							C571.72,344.617,570.604,344.929,569.472,345.192"/>
						<path fill="#7D8274" d="M572.813,344.26l-2.516-7.698c0.887-0.29,1.758-0.618,2.609-0.982l3.178,7.448
							C575.019,343.484,573.927,343.896,572.813,344.26"/>
						<path fill="#7A8071" d="M576.085,343.027l-3.178-7.448c0.883-0.378,1.746-0.794,2.586-1.247l3.834,7.135
							C578.272,342.035,577.192,342.555,576.085,343.027"/>
						<path fill="#777D6F" d="M579.327,341.467l-3.834-7.135c0.875-0.472,1.729-0.982,2.553-1.531l4.477,6.748
							C581.489,340.236,580.423,340.877,579.327,341.467"/>
						<path fill="#747A6C" d="M582.522,339.549l-4.477-6.748c0.867-0.578,1.705-1.197,2.512-1.854l5.113,6.281
							C584.661,338.052,583.61,338.826,582.522,339.549"/>
						<path fill="#72776A" d="M585.671,337.229l-5.113-6.281c0.857-0.699,1.68-1.441,2.459-2.224l5.734,5.721
							C587.772,335.424,586.745,336.354,585.671,337.229"/>
						<path fill="#6F7568" d="M588.751,334.444l-5.734-5.721c0.855-0.856,1.66-1.761,2.414-2.708l6.342,5.037
							C590.829,332.24,589.819,333.372,588.751,334.444"/>
						<path fill="#6C7265" d="M591.772,331.053l-6.342-5.037c0.828-1.04,1.594-2.133,2.287-3.271l6.918,4.211
							C593.767,328.381,592.81,329.75,591.772,331.053"/>
						<path fill="#6A6F63" d="M594.636,326.955l-6.918-4.211c0.795-1.303,1.5-2.666,2.105-4.08l7.449,3.177
							C596.515,323.615,595.634,325.322,594.636,326.955"/>
						<path fill="#676D60" d="M597.272,321.841l-7.449-3.177c0.732-1.717,1.322-3.51,1.746-5.362l7.893,1.818
							C598.927,317.443,598.192,319.69,597.272,321.841"/>
						<path fill="#646A5E" d="M599.462,315.12l-7.893-1.818c0.529-2.302,0.809-4.696,0.807-7.153c0-0.262-0.002-0.523-0.008-0.785
							l8.094-0.199c0.008,0.327,0.012,0.655,0.012,0.984C600.474,309.232,600.124,312.234,599.462,315.12"/>
						<path fill="#62675C" d="M600.462,305.164l-8.094,0.199c-0.363-15.197-11.428-27.829-25.914-30.623l1.541-7.949
							C586.159,270.294,599.999,286.1,600.462,305.164"/>
						<path fill="#646A5E" d="M567.995,266.791l-1.541,7.949c-1.963-0.378-3.99-0.576-6.061-0.575c-0.645,0-1.285,0.019-1.92,0.056
							l-0.488-8.081c0.797-0.048,1.6-0.071,2.408-0.071C562.991,266.068,565.534,266.316,567.995,266.791"/>
						<path fill="#676D60" d="M557.985,266.14l0.488,8.081c-1.918,0.114-3.793,0.398-5.607,0.838l-1.912-7.869
							C553.229,266.639,555.579,266.283,557.985,266.14"/>
						<path fill="#6A6F63" d="M550.954,267.189l1.912,7.869c-1.486,0.361-2.934,0.825-4.33,1.387l-3.012-7.52
							C547.276,268.224,549.091,267.642,550.954,267.189"/>
						<path fill="#6C7265" d="M545.524,268.926l3.012,7.52c-1.234,0.494-2.428,1.062-3.58,1.701l-3.918-7.09
							C542.483,270.258,543.979,269.545,545.524,268.926"/>
						<path fill="#6F7568" d="M541.038,271.057l3.918,7.09c-1.051,0.582-2.064,1.221-3.039,1.913l-4.684-6.606
							C538.452,272.586,539.724,271.785,541.038,271.057"/>
						<path fill="#72776A" d="M537.233,273.453l4.684,6.606c-0.904,0.643-1.775,1.331-2.607,2.062l-5.342-6.086
							C535.009,275.12,536.099,274.258,537.233,273.453"/>
						<path fill="#747A6C" d="M533.968,276.036l5.342,6.086c-0.781,0.688-1.531,1.414-2.244,2.175l-5.91-5.537
							C532.048,277.807,532.985,276.898,533.968,276.036"/>
						<path fill="#777D6F" d="M531.155,278.76l5.91,5.537c-0.684,0.728-1.332,1.486-1.943,2.275l-6.4-4.963
							C529.487,280.622,530.302,279.671,531.155,278.76"/>
						<path fill="#7A8071" d="M528.722,281.609l6.4,4.963c-0.59,0.76-1.148,1.547-1.668,2.357l-6.82-4.366
							C527.284,283.547,527.981,282.561,528.722,281.609"/>
						<path fill="#7D8274" d="M526.634,284.563l6.82,4.366c-0.508,0.791-0.98,1.604-1.418,2.44l-7.178-3.75
							C525.405,286.573,525.997,285.553,526.634,284.563"/>
						<path fill="#7F8576" d="M524.858,287.62l7.178,3.75c-0.43,0.819-0.824,1.661-1.184,2.521l-7.477-3.112
							C523.825,289.701,524.319,288.647,524.858,287.62"/>
						<path fill="#828778" d="M523.376,290.778l7.477,3.112c-0.355,0.854-0.676,1.727-0.959,2.617l-7.719-2.449
							C522.528,292.943,522.929,291.85,523.376,290.778"/>
						<path fill="#848A7B" d="M522.175,294.059l7.719,2.449c-0.283,0.895-0.529,1.807-0.734,2.734l-7.904-1.755
							C521.511,296.324,521.819,295.182,522.175,294.059"/>
						<path fill="#878D7D" d="M521.255,297.487l7.904,1.755c-0.209,0.947-0.377,1.91-0.5,2.887l-8.031-1.022
							C520.782,299.882,520.993,298.675,521.255,297.487"/>
						<path fill="#898F7F" d="M520.628,301.106l8.031,1.022c-0.127,1.016-0.207,2.047-0.236,3.09l-8.094-0.236
							C520.366,303.674,520.468,302.381,520.628,301.106"/>
						<path fill="#8C9281" d="M520.329,304.982l8.094,0.236c-0.01,0.31-0.014,0.619-0.014,0.93c0,0.817,0.031,1.628,0.09,2.43
							l-8.072,0.618c-0.076-1.006-0.115-2.022-0.115-3.048C520.312,305.759,520.317,305.37,520.329,304.982"/>
						<path fill="#8F9484" d="M520.427,309.196l8.072-0.618c0.096,1.258,0.264,2.494,0.5,3.707l-7.945,1.561
							C520.757,312.324,520.546,310.773,520.427,309.196"/>
						<path fill="#919786" d="M521.054,313.846l7.945-1.561c0.289,1.479,0.68,2.921,1.166,4.32l-7.65,2.656
							C521.907,317.508,521.417,315.699,521.054,313.846"/>
						<path fill="#949988" d="M522.515,319.262l7.65-2.656c0.812,2.339,1.891,4.557,3.197,6.616l-6.844,4.331
							C524.882,324.972,523.532,322.193,522.515,319.262"/>
						<path fill="#969B8A" d="M526.519,327.553l6.844-4.331c1.57,2.476,3.471,4.722,5.641,6.677l-5.422,6.017
							C530.866,333.467,528.485,330.652,526.519,327.553"/>
						<path fill="#949988" d="M533.581,335.915l5.422-6.017c1.848,1.668,3.893,3.123,6.092,4.328l-3.881,7.108
							C538.458,339.826,535.897,338.004,533.581,335.915"/>
						<path fill="#919786" d="M541.214,341.335l3.881-7.108c1.314,0.721,2.684,1.35,4.102,1.883l-2.842,7.583
							C544.577,343.025,542.86,342.236,541.214,341.335"/>
						<path fill="#8F9484" d="M546.354,343.692l2.842-7.583c1.158,0.434,2.346,0.803,3.561,1.103l-1.939,7.862
							C549.294,344.699,547.804,344.236,546.354,343.692"/>
						<path fill="#8C9281" d="M550.817,345.074l1.939-7.862c1.057,0.26,2.131,0.467,3.225,0.618l-1.123,8.02
							C553.489,345.658,552.14,345.399,550.817,345.074"/>
						<path fill="#898F7F" d="M554.858,345.85l1.123-8.02c1.012,0.141,2.039,0.232,3.08,0.275l-0.34,8.09
							C557.417,346.142,556.128,346.025,554.858,345.85"/>
						<path fill="#878D7D" d="M558.722,346.195l0.34-8.09c0.441,0.019,0.885,0.027,1.332,0.027v8.097
							C559.833,346.229,559.276,346.218,558.722,346.195"/>
					</g>
				</g>
				<g>
					<path fill="#96998E" d="M560.394,266.068c22.096,0,40.08,17.979,40.08,40.08c0,22.096-17.984,40.081-40.08,40.081
						c-22.104,0-40.082-17.985-40.082-40.081C520.312,284.047,538.29,266.068,560.394,266.068z"/>
				</g>
				<g>
					<path fill="#888E7E" d="M560.394,265.26c22.547,0,40.889,18.342,40.889,40.889s-18.342,40.891-40.889,40.891
						s-40.891-18.344-40.891-40.891S537.847,265.26,560.394,265.26z M560.394,346.229c22.096,0,40.08-17.985,40.08-40.081
						c0-22.102-17.984-40.08-40.08-40.08c-22.104,0-40.082,17.979-40.082,40.08C520.312,328.244,538.29,346.229,560.394,346.229"/>
				</g>
			</g>
		</g>
	</g>
	<text transform="matrix(1 0 0 1 472.0283 310.8027)" fill="#616162" font-family="'OpenSans-Semibold'" font-size="16.1943">10°</text>
	<text transform="matrix(1 0 0 1 629.623 310.8027)" fill="#616162" font-family="'OpenSans-Semibold'" font-size="16.1943">30°</text>
	<g>
		<g>
			<path fill="#EFF5DC" d="M620.835,368.85l-11.211-11.686c0.166-0.16,0.332-0.321,0.496-0.483l11.379,11.522
				C621.278,368.421,621.058,368.636,620.835,368.85z M497.856,366.762c-0.211-0.217-0.422-0.437-0.629-0.656l11.754-11.139
				c0.164,0.172,0.326,0.342,0.492,0.512L497.856,366.762z M611.036,256.533c-0.168-0.171-0.336-0.34-0.506-0.51l11.439-11.463
				c0.213,0.213,0.424,0.426,0.635,0.641L611.036,256.533z M511.462,254.846l-11.188-11.709c0.215-0.206,0.432-0.41,0.648-0.614
				l11.066,11.825L511.462,254.846z"/>
		</g>
	</g>
	<path fill-rule="evenodd" clip-rule="evenodd" fill="#C5CCB8" stroke="#9EA392" stroke-miterlimit="10" d="M586.668,356.08
		c-5.115-3.41-14.273-3.766-23.59-2.527c-9.314,1.237-20.814,5.594-31.797,9.299c-10.982,3.7-19.072,10.588-19.072,10.588
		c-5.623,0.906-19.264,9.291-19.264,9.291c-4.812,1.821-15.352,8.717-21.65,11.87c-6.297,3.149-7.219,2.734-10.115,2.761
		c-2.895,0.025-9.084,0.231-11.184-1.269c-2.096-1.496-6.703-3.573-7.963-4.47c-1.256-0.9-5.354-4.855-6.496-6.26
		c-1.145-1.396-4.006-6.125-5.338-8.832c-1.33-2.704-2.342-5.377-4.226-12.77c-1.882-7.391-3.042-9.242-3.042-9.242
		s1.568-1.512,1.805-4.509c0.242-2.996,1.973-6.097,4.191-12.749c2.224-6.651,4.485-9.955,7.709-16.375
		c3.223-6.422,2.762-16.722,2.762-16.722c0.994-1.222,1.128-1.271,3.043-3.062c5.193-3.652,16.77-15.069,23.42-22.939
		c6.648-7.872,11.344-19.286,11.344-19.286c4.605,0.856,15.836,1.033,21.973-0.528c6.137-1.557,10.516-4.134,10.516-4.134
		c4.289,3.265,10,4.009,10,4.009s4.707,1.732,9.371,2.943c4.666,1.213,17.162,0.302,24.617-3.438
		c7.449-3.738,6.449-11.618,6.449-11.618s0.822,0.147,0.014-1.992c-0.812-2.139-13.203-8.606-15.18-9.387
		c-1.979-0.779-7.227-5.365-11.309-8.863c-4.076-3.498-11.705-7.488-18.74-9.105c-7.037-1.613-21.064-2.724-28.057-2.216
		c-6.992,0.513-19.178-0.987-26.512-2.182c-7.337-1.199-10.262,0.368-16.635,4.927c-6.378,4.555-21.094,22.209-27.365,28.259
		c-6.27,6.045-24.484,27.777-24.484,27.777c-6.321-2.958-9.584-11.967-12.152-19.554c-2.568-7.586-1.789-10.984-0.204-20.717
		c1.583-9.729-3.015-24.088-3.534-30.31c1.215-6.886,7.457-21.479,14.516-31.495c7.063-10.013,9.717-21.57,9.717-21.57
		c1.285-0.64,8.557-7.676,14.517-12.535c5.956-4.856,11.575-11.418,15.327-19.264c3.756-7.845,3.254-13.615,2.242-19.502
		c-1.005-5.888-7.796-9.277-10.758-9.838c-2.965-0.557-20.912,16.641-20.912,16.641s-3.86,1.92-12.93,7.04
		c-9.066,5.115-15.657,12.353-16.933,14.214c-1.286,1.861-5.746,9.059-10.047,13.441c-4.303,4.381-9.431,11.826-12.176,16.688
		c-2.742,4.864-7.187,12.511-9.354,14.861c-2.168,2.352-7.98,10.821-7.98,10.821c0.196-1.908,0.354-9.154,0.354-9.154
		c1.564-2.735,3.234-14.07,5.405-19.634c2.175-5.563,4.057-12.698,3.751-19.156c-0.307-6.46-2.309-8.913-4.14-11.735
		c-1.836-2.819-5.923-4.329-8.25-4.824c-2.327-0.492-5.402,0.672-5.402,0.672s-1.126-0.948-3.117-0.957
		c-1.993-0.013-2.631,3.139-4.406,8.548c-1.771,5.411-3.108,16.009-6.487,20.806c-3.38,4.797-6.993,15.035-9.51,23.328
		c-2.514,8.291-6.571,16.555-9.027,22.992c-2.451,6.433-1.219,14.527-3.139,20.76c-1.917,6.231-4.597,16.115-5.372,23.746
		c-0.78,7.637,3.256,13.446,4.591,21.808c1.335,8.36,6.9,20.625,6.9,20.625s-1.467,1.78-0.041,7.969
		c1.428,6.186,2.483,12.206,2.733,16.086c0.25,3.884,0.207,11.851,2.992,22.417c2.775,10.562,1.493,16.862,0.848,23.223
		c-0.648,6.361,0.216,5.42-1.326,14.262c-1.543,8.842-2.25,6.97-4.939,14.409c-2.684,7.44-1.929,12.659-6.985,21.913
		c-5.054,9.256-18.047,45.982-23.233,56.509c-5.186,10.528-13.75,31.506-26.638,39.45c-12.894,7.941-17.671,19.54-24.445,35.562
		c-1.61,3.805-5.908,10.355-11.52,18.125H358.19c1.366-1.131,2.59-2.118,3.617-2.913c8.513-6.586,22.821-16.438,32.926-21.646
		c10.103-5.208,22.161-13.745,26.702-16.689c4.543-2.945,17.066-15.488,21.751-20.476c4.683-4.986,16.769-13.846,19.325-15.579
		c2.555-1.731,17.201-15.538,19.713-18.176c2.52-2.635,14.17-12.244,25.848-17.74c11.682-5.497,15.93-10.012,17.984-10.644
		c2.061-0.624,7.734-4.607,7.734-4.607c2.057-0.625,4.307-3.16,4.307-3.16c1.973-0.443,9.879-8.639,12.975-12.563
		c3.1-3.927,9.027-8.464,10.629-10.299c1.6-1.827,3.244-4.743,3.244-4.743c1.941-0.123,23.451-11.943,23.451-11.943
		s4.613-2.358,6.508-7.053C596.795,367.078,591.779,359.496,586.668,356.08z"/>
	<path fill-rule="evenodd" clip-rule="evenodd" fill="#C5CCB8" stroke="#9EA392" stroke-miterlimit="10" d="M331.201,182.252
		c0,0-10.201,16.748-5.201,29.248s0.402,61.5,5.201,77"/>
	<circle fill="#64675C" cx="572.499" cy="276.027" r="2.5"/>
</g>
</svg>
