<?xml version="1.0" encoding="utf-8"?>
<!-- Generator: Adobe Illustrator 15.0.2, SVG Export Plug-In . SVG Version: 6.00 Build 0)  -->
<!DOCTYPE svg PUBLIC "-//W3C//DTD SVG 1.1//EN" "http://www.w3.org/Graphics/SVG/1.1/DTD/svg11.dtd">
<svg version="1.1" id="Layer_1" xmlns="http://www.w3.org/2000/svg" xmlns:xlink="http://www.w3.org/1999/xlink" x="0px" y="0px"
	 width="50px" height="50.75px" viewBox="0 0 50 50.75" enable-background="new 0 0 50 50.75" xml:space="preserve">
<g>
	<path fill="none" stroke="#231F20" stroke-width="2" d="M25,1.398c-8.917,0-16.145,7.229-16.145,16.145
		C8.856,26.461,25,48.602,25,48.602s16.145-22.141,16.145-31.058S33.919,1.398,25,1.398z"/>
	<path fill="#05AC96" d="M25,1.398c-8.917,0-16.145,7.229-16.145,16.145C8.856,26.461,25,48.602,25,48.602
		s16.145-22.141,16.145-31.058S33.919,1.398,25,1.398z"/>
</g>
<g>
	
		<rect x="21.281" y="10.521" fill="#FFFFFF" stroke="#000000" stroke-width="0.75" stroke-miterlimit="10" width="3.278" height="3.277"/>
	
		<rect x="24.56" y="10.521" fill="#FFFFFF" stroke="#000000" stroke-width="0.75" stroke-miterlimit="10" width="3.277" height="3.277"/>
	
		<rect x="27.837" y="10.521" fill="#FFFFFF" stroke="#000000" stroke-width="0.75" stroke-miterlimit="10" width="3.278" height="3.277"/>
	
		<rect x="18.004" y="13.799" fill="#FFFFFF" stroke="#000000" stroke-width="0.75" stroke-miterlimit="10" width="3.277" height="3.277"/>
	
		<rect x="21.281" y="13.799" fill="#FFFFFF" stroke="#000000" stroke-width="0.75" stroke-miterlimit="10" width="3.278" height="3.277"/>
	
		<rect x="24.56" y="13.799" fill="#FFFFFF" fill-opacity="0.6" stroke="#000000" stroke-width="0.75" stroke-miterlimit="10" width="3.277" height="3.277"/>
	
		<rect x="27.837" y="13.799" fill="#FFFFFF" fill-opacity="0.6" stroke="#000000" stroke-width="0.75" stroke-miterlimit="10" width="3.278" height="3.277"/>
	
		<rect x="21.281" y="17.076" fill="#FFFFFF" stroke="#000000" stroke-width="0.75" stroke-miterlimit="10" width="3.278" height="3.277"/>
	
		<rect x="24.56" y="17.076" fill="#FFFFFF" fill-opacity="0.6" stroke="#000000" stroke-width="0.75" stroke-miterlimit="10" width="3.277" height="3.277"/>
	
		<rect x="27.837" y="17.076" fill="#FFFFFF" fill-opacity="0.6" stroke="#000000" stroke-width="0.75" stroke-miterlimit="10" width="3.278" height="3.277"/>
	
		<rect x="21.281" y="20.354" fill="#FFFFFF" stroke="#000000" stroke-width="0.75" stroke-miterlimit="10" width="3.278" height="3.277"/>
	
		<rect x="24.56" y="20.354" fill="#FFFFFF" stroke="#000000" stroke-width="0.75" stroke-miterlimit="10" width="3.277" height="3.277"/>
	
		<rect x="27.837" y="20.354" fill="#FFFFFF" stroke="#000000" stroke-width="0.75" stroke-miterlimit="10" width="3.278" height="3.277"/>
	
		<rect x="18.004" y="17.076" fill="#FFFFFF" stroke="#000000" stroke-width="0.75" stroke-miterlimit="10" width="3.277" height="3.277"/>
</g>
</svg>
