<?xml version="1.0" encoding="utf-8"?>
<!-- Generator: Adobe Illustrator 15.0.0, SVG Export Plug-In . SVG Version: 6.00 Build 0)  -->
<!DOCTYPE svg PUBLIC "-//W3C//DTD SVG 1.1//EN" "http://www.w3.org/Graphics/SVG/1.1/DTD/svg11.dtd">
<svg version="1.1" id="Слой_1" xmlns="http://www.w3.org/2000/svg" xmlns:xlink="http://www.w3.org/1999/xlink" x="0px" y="0px"
	 width="302px" height="124px" viewBox="0 0 302 124" enable-background="new 0 0 302 124" xml:space="preserve">
<g>
	<polygon fill="#444443" points="190.824,111.94 185.447,116.43 160.264,83.199 165.64,78.713 	"/>
	<rect x="1.582" y="1.866" fill="#444443" width="8.254" height="120.908"/>
	<polygon fill="#26B99A" points="78.867,123.263 144.646,123.263 144.646,59.432 78.867,19.615 	"/>
	<polygon fill="#14A085" points="7.234,123.263 79.217,123.263 79.217,54.373 7.234,80.096 	"/>
	<g>
		<rect x="12.918" y="94.123" fill="#FFFFFF" width="7.98" height="9.088"/>
		<rect x="23.646" y="94.123" fill="#FFFFFF" width="7.984" height="9.088"/>
		<rect x="34.377" y="94.123" fill="#FFFFFF" width="7.98" height="9.088"/>
		<rect x="45.107" y="94.123" fill="#FFFFFF" width="7.981" height="9.088"/>
		<rect x="55.838" y="94.123" fill="#FFFFFF" width="7.98" height="9.088"/>
		<rect x="67.005" y="94.123" fill="#FFFFFF" width="7.984" height="9.088"/>
	</g>
	
		<line fill="none" stroke="#455862" stroke-width="2.6154" stroke-miterlimit="10" x1="152.881" y1="63.833" x2="76.608" y2="17.714"/>
	<polyline fill="none" stroke="#8BAC52" stroke-width="0.8924" stroke-miterlimit="10" points="38.371,123.263 38.371,86.574 
		79.217,86.574 79.217,123.263 	"/>
	<polyline fill="none" stroke="#8BAC52" stroke-width="0.8924" stroke-miterlimit="10" points="38.371,119.735 77.949,104.914 
		38.371,88.815 	"/>
	<polyline fill="none" stroke="#8BAC52" stroke-width="0.8924" stroke-miterlimit="10" points="79.072,119.735 39.49,104.914 
		79.072,88.815 	"/>
	<rect x="33.577" y="83.908" fill="#8BAC52" width="49.804" height="2.648"/>
	<polygon fill="#D1E2E8" points="182.887,123.263 182.887,81.618 239.439,60.029 239.439,123.263 	"/>
	
		<line fill="none" stroke="#455862" stroke-width="2.6154" stroke-miterlimit="10" x1="174.306" y1="84.896" x2="244.812" y2="57.982"/>
	<polyline fill="#F3CC6F" points="237.215,123.263 237.215,65.756 185.633,84.505 185.633,123.263 	"/>
	
		<line fill="#6F6656" stroke="#C39C66" stroke-width="0.0487" stroke-miterlimit="10" x1="190.824" y1="83.123" x2="190.824" y2="123.343"/>
	
		<line fill="#6F6656" stroke="#C39C66" stroke-width="0.0502" stroke-miterlimit="10" x1="196.752" y1="80.626" x2="196.752" y2="123.343"/>
	
		<line fill="#6F6656" stroke="#C39C66" stroke-width="0.0514" stroke-miterlimit="10" x1="202.68" y1="78.51" x2="202.68" y2="123.343"/>
	
		<line fill="#6F6656" stroke="#C39C66" stroke-width="0.0527" stroke-miterlimit="10" x1="208.612" y1="76.201" x2="208.612" y2="123.343"/>
	
		<line fill="#6F6656" stroke="#C39C66" stroke-width="0.0539" stroke-miterlimit="10" x1="214.544" y1="74.111" x2="214.544" y2="123.343"/>
	
		<line fill="#6F6656" stroke="#C39C66" stroke-width="0.0551" stroke-miterlimit="10" x1="220.472" y1="71.921" x2="220.472" y2="123.343"/>
	
		<line fill="#6F6656" stroke="#C39C66" stroke-width="0.0561" stroke-miterlimit="10" x1="226.4" y1="69.485" x2="226.4" y2="122.774"/>
	
		<line fill="#6F6656" stroke="#C39C66" stroke-width="0.0567" stroke-miterlimit="10" x1="232.33" y1="68.188" x2="232.33" y2="122.774"/>
	<polygon fill="#D1E2E8" points="239.439,123.263 239.439,81.618 295.995,60.029 295.995,123.263 	"/>
	<polyline fill="#F3CC6F" points="240.535,123.263 240.535,84.505 292.119,65.756 292.119,123.263 	"/>
	
		<line fill="none" stroke="#455862" stroke-width="2.6154" stroke-miterlimit="10" x1="231.078" y1="84.896" x2="301.582" y2="57.982"/>
	<g>
		
			<line fill="#6F6656" stroke="#C39C66" stroke-width="0.0487" stroke-miterlimit="10" x1="245.57" y1="83.123" x2="245.57" y2="123.343"/>
		
			<line fill="#6F6656" stroke="#C39C66" stroke-width="0.0502" stroke-miterlimit="10" x1="251.502" y1="80.626" x2="251.502" y2="123.343"/>
		
			<line fill="#6F6656" stroke="#C39C66" stroke-width="0.0514" stroke-miterlimit="10" x1="257.436" y1="78.51" x2="257.436" y2="123.343"/>
		
			<line fill="#6F6656" stroke="#C39C66" stroke-width="0.0527" stroke-miterlimit="10" x1="263.362" y1="76.201" x2="263.362" y2="123.343"/>
		
			<line fill="#6F6656" stroke="#C39C66" stroke-width="0.0539" stroke-miterlimit="10" x1="269.293" y1="74.111" x2="269.293" y2="123.343"/>
		
			<line fill="#6F6656" stroke="#C39C66" stroke-width="0.0551" stroke-miterlimit="10" x1="275.225" y1="71.921" x2="275.225" y2="123.343"/>
		
			<line fill="#6F6656" stroke="#C39C66" stroke-width="0.0561" stroke-miterlimit="10" x1="281.156" y1="69.485" x2="281.156" y2="122.774"/>
		
			<line fill="#6F6656" stroke="#C39C66" stroke-width="0.0567" stroke-miterlimit="10" x1="287.08" y1="68.188" x2="287.08" y2="122.774"/>
	</g>
	<g>
		<path fill="#CF984D" d="M186.711,123.263c0,0,4.018-26.834,17.158-26.834c13.967,0,20.729,7.146,25.637,12.276
			c2.324,2.428,7.75,14.558,7.75,14.558H186.711z"/>
		<path fill="#C39C66" d="M186.972,123.263c0,0,6.833-8.496,15.849-11.071c6.74-1.924,16.224-18.892,22.109-18.892
			c13.586,0,10.947,29.963,10.947,29.963H186.972z"/>
		<path fill="#D8A969" d="M234.418,123.263c0,0-11.479-15.824-23.279-17.727c-11.803-1.901-8.294,11.257-14.674,11.106
			c-6.379-0.158-8.611,6.62-8.611,6.62H234.418z"/>
	</g>
	<g>
		<path fill="#CF984D" d="M291.602,123.263c0,0-4.018-34.455-17.162-34.455c-13.959,0-20.728,9.185-25.637,15.769
			c-2.324,3.116-7.748,18.687-7.748,18.687H291.602z"/>
		<path fill="#C39C66" d="M291.338,123.263c0,0-6.826-8.496-15.848-11.071c-6.738-1.924-16.223-18.892-22.111-18.892
			c-13.58,0-10.943,29.963-10.943,29.963H291.338z"/>
		<path fill="#D8A969" d="M243.89,123.263c0,0,11.53-28.161,23.38-31.542c11.852-3.382,8.331,20.037,14.734,19.761
			c6.406-0.279,8.646,11.781,8.646,11.781H243.89z"/>
	</g>
	<rect x="158.285" y="78.956" fill="#444443" width="6.75" height="31.103"/>
	<rect x="69.703" y="73.305" fill="#D25627" width="9.514" height="7.081"/>
	<rect x="30.847" y="73.305" fill="#D25627" width="9.516" height="7.081"/>
	<rect x="144.646" y="110.059" fill="#D25627" width="20.389" height="13.204"/>
	<g>
		<rect x="87.873" y="71.296" fill="#FFFFFF" width="7.983" height="9.096"/>
		<rect x="87.873" y="94.123" fill="#FFFFFF" width="7.983" height="9.088"/>
	</g>
	<g>
		<rect x="98.602" y="71.296" fill="#FFFFFF" width="7.98" height="9.096"/>
		<rect x="98.602" y="94.123" fill="#FFFFFF" width="7.98" height="9.088"/>
	</g>
	<g>
		<rect x="109.332" y="71.296" fill="#FFFFFF" width="7.984" height="9.096"/>
		<rect x="109.332" y="94.123" fill="#FFFFFF" width="7.984" height="9.088"/>
	</g>
	<g>
		<rect x="120.065" y="71.296" fill="#FFFFFF" width="7.981" height="9.096"/>
		<rect x="120.065" y="94.123" fill="#FFFFFF" width="7.981" height="9.088"/>
	</g>
	<rect x="130.793" y="71.296" fill="#FFFFFF" width="7.985" height="9.096"/>
	<rect x="130.793" y="94.123" fill="#FFFFFF" width="7.985" height="9.088"/>
	
		<line fill="none" stroke="#455862" stroke-width="2.6154" stroke-miterlimit="10" x1="2.408" y1="81.469" x2="84.449" y2="52.542"/>
	<rect x="39.022" y="66.546" fill="#E57E25" width="37.586" height="17.362"/>
	<rect x="68.127" y="63.221" fill="#D25627" width="5.742" height="3.325"/>
	<rect x="46.09" y="55.786" fill="#D25627" width="6.012" height="10.76"/>
</g>
</svg>
