<?xml version="1.0" encoding="utf-8"?>
<!-- Generator: Adobe Illustrator 18.1.0, SVG Export Plug-In . SVG Version: 6.00 Build 0)  -->
<svg version="1.1" id="Слой_1" xmlns="http://www.w3.org/2000/svg" xmlns:xlink="http://www.w3.org/1999/xlink" x="0px" y="0px"
	 viewBox="0 0 17 25.5" enable-background="new 0 0 17 25.5" xml:space="preserve">
<path id="rund_2_" fill="#089B7F" d="M13.8,24.8C13.8,24.8,13.7,24.8,13.8,24.8c0,0.1,0,0.1-0.1,0.1c0,0.1-0.1,0.2-0.2,0.2
	c0,0-0.1,0.1-0.1,0.1c-0.1,0.1-0.1,0.1-0.2,0.1c0,0-0.1,0-0.1,0.1c-0.1,0-0.2,0.1-0.4,0.1H1.1C0.5,25.5,0,25,0,24.4
	c0-0.6,0.5-1.1,1.1-1.1h10.6l-3.2-7.4V5.3c0-0.6,0.5-1.1,1.1-1.1h5.3V2.1H9.6C9,2.1,8.5,1.7,8.5,1.1C8.5,0.5,9,0,9.6,0h6.4
	C16.5,0,17,0.5,17,1.1v4.3c0,0.6-0.5,1.1-1.1,1.1h-5.3v9.6l2.1,5.5l2.1-5.5V9.6c0-0.6,0.5-1.1,1.1-1.1C16.5,8.5,17,9,17,9.6v6.4
	L13.8,24.8z"/>
</svg>
