<?xml version="1.0" encoding="utf-8"?>
<!-- Generator: Adobe Illustrator 18.1.0, SVG Export Plug-In . SVG Version: 6.00 Build 0)  -->
<svg version="1.1" id="Слой_1" xmlns="http://www.w3.org/2000/svg" xmlns:xlink="http://www.w3.org/1999/xlink" x="0px" y="0px"
	 viewBox="0 0 36.8 36.8" enable-background="new 0 0 36.8 36.8" xml:space="preserve">
<g>
	<g opacity="0.9">
		<path fill="#FAFAFA" d="M18.4,1.1C8.8,1.1,0.9,9,0.9,18.6c0,9.7,7.8,17.5,17.5,17.5c9.7,0,17.5-7.8,17.5-17.5
			C35.9,9,28.1,1.1,18.4,1.1z M18.2,10.2c0.3-0.4,0.7-0.6,1.2-0.6c0.4,0,0.7,0.1,1,0.4c0.3,0.3,0.4,0.6,0.4,1c0,0.5-0.2,0.9-0.5,1.3
			c-0.4,0.4-0.8,0.6-1.2,0.6c-0.4,0-0.7-0.1-1-0.4c-0.3-0.3-0.4-0.6-0.4-1C17.7,11,17.9,10.5,18.2,10.2z M20.7,24.3
			c-1.2,1.2-2.1,1.9-2.7,2.2c-0.6,0.4-1.1,0.5-1.6,0.5c-0.4,0-0.8-0.1-1-0.4c-0.3-0.3-0.4-0.6-0.4-1.1c0-1.2,0.7-3.8,2-8.2
			c0-0.1,0-0.1,0.1-0.2c0,0-0.1,0.1-0.2,0.1c-0.1,0.1-0.4,0.3-1.4,1.3c-0.1,0.2-0.4,0.2-0.6,0l-0.6-0.4c-0.1-0.1-0.1-0.2-0.2-0.3
			c0-0.1,0-0.2,0.1-0.3c0.9-1,1.8-1.7,2.5-2.2c0.8-0.4,1.5-0.7,2.1-0.7c0.4,0,0.7,0.1,0.9,0.3c0.2,0.2,0.4,0.5,0.4,0.8
			c0,0.2-0.1,0.8-0.9,3.4c-1.1,3.7-1.4,5-1.4,5.5c0.2-0.1,0.7-0.5,1.8-1.5c0.2-0.2,0.4-0.2,0.6,0l0.5,0.5c0.1,0.1,0.1,0.2,0.1,0.3
			C20.8,24.2,20.8,24.3,20.7,24.3z"/>
	</g>
</g>
</svg>
