<?xml version="1.0" encoding="utf-8"?>
<!-- Generator: Adobe Illustrator 15.0.0, SVG Export Plug-In . SVG Version: 6.00 Build 0)  -->
<!DOCTYPE svg PUBLIC "-//W3C//DTD SVG 1.1//EN" "http://www.w3.org/Graphics/SVG/1.1/DTD/svg11.dtd">
<svg version="1.1" id="Слой_1" xmlns="http://www.w3.org/2000/svg" xmlns:xlink="http://www.w3.org/1999/xlink" x="0px" y="0px"
	 width="505px" height="355px" viewBox="0 0 505 355" enable-background="new 0 0 505 355" xml:space="preserve">
<symbol  id="issue-insfrastructure" viewBox="-197.687 -138.263 395.373 276.527">
	
		<polyline fill="none" stroke="#2980BA" stroke-width="6.8786" stroke-linecap="round" stroke-linejoin="round" stroke-miterlimit="10" points="
		-34.803,-134.824 -34.803,6.821 64.795,6.821 64.795,134.824 	"/>
	
		<polyline fill="none" stroke="#8FAA64" stroke-width="6.8786" stroke-linecap="round" stroke-linejoin="round" stroke-miterlimit="10" points="
		-78.653,134.824 -78.653,44.896 -8.408,44.896 -8.408,-60.927 43.474,-60.927 43.474,-134.824 	"/>
	
		<polyline fill="none" stroke="#EAC980" stroke-width="6.8786" stroke-linecap="round" stroke-linejoin="round" stroke-miterlimit="10" points="
		49.508,134.824 49.508,-5.815 -19.775,-5.815 -19.775,-61.19 -194.248,-61.19 	"/>
	
		<polyline fill="none" stroke="#E64C3C" stroke-width="6.8786" stroke-linecap="round" stroke-linejoin="round" stroke-miterlimit="10" points="
		194.247,-18.554 15.689,-18.554 15.689,-72.752 -194.248,-72.752 	"/>
	
		<polyline fill="none" stroke="#26B99A" stroke-width="6.8786" stroke-linecap="round" stroke-linejoin="round" stroke-miterlimit="10" points="
		-67.688,134.824 -67.688,58.28 2.259,58.28 2.259,-47.883 56.83,-47.883 56.83,-134.824 	"/>
</symbol>
<use xlink:href="#issue-insfrastructure"  width="395.373" height="276.527" x="-197.687" y="-138.263" transform="matrix(1.2646 0 0 -1.2646 252.0449 177.0469)" overflow="visible"/>
</svg>
