<?xml version="1.0" encoding="utf-8"?>
<!-- Generator: Adobe Illustrator 15.0.0, SVG Export Plug-In . SVG Version: 6.00 Build 0)  -->
<!DOCTYPE svg PUBLIC "-//W3C//DTD SVG 1.1//EN" "http://www.w3.org/Graphics/SVG/1.1/DTD/svg11.dtd">
<svg version="1.1" id="Слой_1" xmlns="http://www.w3.org/2000/svg" xmlns:xlink="http://www.w3.org/1999/xlink" x="0px" y="0px"
	 width="505px" height="175px" viewBox="0 0 505 175" enable-background="new 0 0 505 175" xml:space="preserve">
<symbol  id="issue-views" viewBox="-240.263 -83.199 480.527 166.398">
	<g>
		<path fill="#829E83" d="M185.375-15.018c-6.217,2.379-4.521,2.974-7.347,4.162c-2.685,1.13-8.781,3.771-13.745,5.328
			c0.612-0.37,1.243-0.845,1.94-1.465c4.521-4.02,1.131-3.425,8.478-7.587s6.217-5.946,14.128-8.919
			c7.912-2.974,9.608-4.757,15.26-6.541c5.651-1.782,7.347-20.74,11.303-24.309c0.364-0.328,8.674-0.812,23.474-1.393
			c-13.2,9.332-38.756,34.656-43.891,37.111C188.757-15.657,191.591-17.396,185.375-15.018z"/>
		<path fill="#829E83" d="M130.723,10.995c-6.782,2.972-10.173,4.756-14.694,6.54s-15.26,3.568-20.911,5.945
			c-5.651,2.379-17.6,15.03-19.86,15.03c-2.26,0-18.649,4.163-20.346,6.687c-1.694,2.525-17.52,2.827-22.04,4.017
			c-4.521,1.189-5.651,1.189-5.651,1.189S4.024,61.53-0.497,62.434c-4.521,0.905-9.043,0-9.043,0l-22.291,6.117
			c1.202-1.375,1.946-2.312,1.946-2.312s10.738-2.332,15.259-5.305c4.521-2.974-0.413-12.503,6.933-14.286
			c7.348-1.784,18.982-0.008,18.982-0.008S1.611,2.11,11.218-0.269c9.607-2.378,14.003-14.246,20.22-14.841
			s20.953-2.634,20.953-2.634s33.253,7.297,34.948,6.703c1.696-0.595,19.543,25.597,21.804,25.002
			c2.26-0.594,8.477-4.162,10.737-4.757s15.26-8.324,27.692-11.297c7.157-1.712,10.755-1.745,13.382-2.231
			c-3.442,1.608-5.633,3.974-9.321,6.398C147.112,5.048,137.504,8.021,130.723,10.995z"/>
		<path fill="#829E83" d="M163.51-5.291c0.253-0.075,0.512-0.156,0.772-0.237c-1.072,0.647-2.095,0.976-3.328,1.204
			C161.733-4.687,162.573-5.012,163.51-5.291z"/>
	</g>
	<polygon fill="#80976A" points="2.321,39.618 9.801,21.321 45.129,8.333 96.555,19 18.16,45.128 	"/>
	<path fill="#556D49" d="M237.502-54.753c-3.957,3.568-27.334,23.214-32.984,24.996c-5.652,1.784-7.348,3.568-15.26,6.541
		s-6.781,4.757-14.129,8.919c-7.347,4.162-3.956,3.567-8.478,7.587c-4.521,4.021-6.216,1.928-18.649,4.9S122.571,8.892,120.31,9.487
		s-8.478,4.163-10.738,4.757c-1.434,0.378-8.351,3.384-12.467,5.686l0,0L45.544,8.333L10.215,21.321L2.75,39.327l15.839,5.802
		l-0.007,2.997c0,0-14.129,4.172-21.476,5.956c-7.347,1.784-6.782,4.162-11.303,7.136c-4.521,2.973-15.259,5.305-15.259,5.305
		s-0.744,0.936-1.946,2.312c-2.868,3.28-14.099,9.077-18.479,10.752c-6.216,2.379-5.651,2.974-9.042,3.567
		c-3.391,0.595-13.563-4.756-17.52-5.352c-0.914-0.137-1.708-0.37-2.541-0.713c-2.772-1.141-5.983-3.496-15.544-7.611
		c-12.433-5.352-5.651-1.188-15.824-3.567c-10.173-2.378-35.605-8.919-62.732-14.271c-12.643-2.494-28.001-2.017-40.796-0.797
		c4.587-1.99,19.399-7.548,21.582-8.122c2.261-0.594,18.085-4.757,24.867-5.946c6.782-1.188,11.303-4.161,18.085-4.757
		c6.782-0.594,23.171-1.783,28.822-2.972c5.652-1.19,21.476-2.974,27.127-4.758c5.652-1.783,3.956,1.189,17.52-4.756
		c13.564-5.946,12.434-6.541,28.258-7.136c15.824-0.595,23.251-3.504,26.077-4.098c2.826-0.595,16.389-6.541,16.389-6.541
		l44.648-25.568c0,0,25.997-11.891,29.387-13.675c2.642-1.39,25.462-19.011,35.425-26.735l135.958,0.813
		C240.263-63.408,239.661-56.7,237.502-54.753z"/>
	<polygon fill="#475D39" points="3.452,36.852 2.301,39.618 18.153,48.417 18.16,45.128 	"/>
	<polygon fill="#6E8058" points="98.296,20.22 98.295,20.22 98.296,20.22 	"/>
	<path fill="#658756" d="M69.598-36.048C66.208-34.264,40.21-22.374,40.21-22.374L-4.437,3.195c0,0-13.563,5.946-16.389,6.541
		c-2.826,0.594-10.253,3.503-26.077,4.098s-14.694,1.189-28.258,7.136c-13.563,5.945-11.868,2.973-17.52,4.756
		c-2.83,0.894-8.208,1.786-13.584,2.605l3.796-1.932l-4.325-5.197l7.181-12.869h-37.342l-17.75,24.856l5.961,0.276
		c-0.254,0.021,0.347-0.031,0.114-0.011c-6.781,0.596-11.303,3.568-18.085,4.757c-6.782,1.189-22.605,5.353-24.866,5.946
		c-2.182,0.574-18.141,4.985-22.728,6.976c-0.166,0.072-0.322,0.141-0.46,0.202c-0.53,0.239-1.147,0.49-1.818,0.746
		c-4.335,1.655-11.146,3.576-14.571,4.605c-3.956,1.189-9.104,0-9.104,0V1.966h6.844l19.11,17.542l11.817,3.598
		c0,0,4.678,3.852,9.199,1.473c4.521-2.378,25.399-13.017,27.095-14.206c1.695-1.188,17.52-4.162,19.215-5.352
		c1.695-1.189,5.086-9.204,9.607-11.44c4.521-2.235,16.987-5.272,20.378-8.245c3.391-2.974,9.6-10.065,19.208-14.822
		s12.434-5.351,27.127-8.324c14.694-2.973,48.118-10.045,48.118-10.045s34.541-9.839,53.984-16.074H106.5
		C97.55-56.985,72.38-37.511,69.598-36.048z"/>
	<path fill="#809E6E" d="M-136.956,8.333h37.342l-7.181,12.869l4.325,5.197l-3.796,0.32c-5.362,0.816-11.867,2.022-14.689,2.617
		c-5.457,1.148-20.689,2.195-27.791,2.591l-5.961,1.262L-136.956,8.333z"/>
	<polyline fill="#475D39" points="-154.829,33.465 -153.805,31.927 -148.745,31.927 -148.745,33.465 -154.829,33.465 	"/>
	<polygon fill="#475D39" points="-106.265,28.331 -106.265,26.719 -103.367,25.321 -102.469,26.399 	"/>
	<polygon fill="#547145" points="-106.794,21.202 -106.794,18.841 -100.481,8.333 -99.613,8.333 	"/>
	<polygon fill="#809E6E" points="-25.726,-8.008 -51.897,-13.116 -56.047,-27.159 -34.343,-40.564 9.801,-37.373 	"/>
	<polygon fill="#475D39" points="-51.897,-13.115 -56.047,-27.159 -51.897,-15.349 -25.726,-10.442 -25.726,-8.008 	"/>
	<polygon fill="#547145" points="-25.726,-10.442 7.795,-37.517 9.801,-37.373 -25.726,-8.008 	"/>
	<path fill="#80A370" d="M-190.097,10.862L-196.48,0.29l9.256-12.447l32.519,4.149l5.961,16.07l-0.007,0.002
		c-4.487,1.161-12.392,1.854-15.153,2.798c-0.512,0.175,0.191,1.096,0,1.23L-190.097,10.862L-190.097,10.862z"/>
	<path fill="#73925D" d="M31.438-63.93c-19.443,6.235-53.411,17.221-53.411,17.221s-33.423,7.072-48.118,10.045
		c-14.694,2.974-17.52,3.567-27.126,8.324c-9.608,4.757-16.39,10.702-19.781,13.676c-3.391,2.973-13.563,7.729-18.085,9.966
		c-4.521,2.235-7.912,10.25-9.607,11.439c-0.47,0.33-1.3,1.858-3.336,2.386l-3.092,1.098l1.177-2.713l-4.764-15.52l-32.519-4.149
		L-196.48,0.29l6.383,10.572l7.541,0.354l18.651,0.876c-1.696,1.189-24.867,10.108-29.388,12.486
		c-4.521,2.379-9.199,0.068-9.199,0.068l-11.817-3.597l-16.698-13.615l-9.255-5.469v-41.801l42.652,4.882
		c0,0,10.535,3.045,12.23,1.855c1.696-1.189,27.693-7.135,27.693-7.135s12.101-7.196,21.582-8.769l13.195,5.564l23.299-1.596
		l24.576-6.225l-20.107-10.852l-0.428,0.084c0.542-0.417,1.376-1.078,2.426-1.906H31.438z"/>
	<path fill="#80A370" d="M-75.037-51.256l-24.576,6.225l-23.299,1.596L-136.107-49c0.345-0.058,0.687-0.108,1.024-0.15
		c9.608-1.189,37.301-11.298,38.996-12.487c0.116-0.081,0.294-0.215,0.516-0.386l0.428-0.084L-75.037-51.256z"/>
	<polygon fill="#475D39" points="-163.906,12.092 -163.906,10.862 -189.978,9.489 -189.978,10.862 	"/>
	<polygon fill="#475D39" points="-189.978,9.489 -196.48,0.29 -189.978,10.862 	"/>
	<path fill="#789267" d="M-149.942,9.489"/>
	<polygon fill="#475D39" points="-151.119,10.224 -151.119,7.831 -150.174,6.752 -149.942,7.511 	"/>
	<polygon fill="#475D39" points="-122.913,-43.436 -122.913,-45.112 -133.661,-49.369 -136.107,-49 	"/>
	<polygon fill="#547145" points="-122.913,-45.112 -99.772,-46.403 -99.772,-45.032 -122.913,-43.436 	"/>
	<polygon fill="#547145" points="-99.772,-46.403 -76.645,-52.124 -75.037,-51.256 -99.772,-45.032 	"/>
	<g>
		<path fill="#6D8957" d="M-96.088-61.638c-1.695,1.189-29.387,11.298-38.996,12.487c-9.607,1.188-22.605,8.919-22.605,8.919
			s-25.997,5.945-27.693,7.135c-1.695,1.189-18.396-0.682-18.396-0.682l-36.486-6.056V-63.93h147.116
			C-94.626-62.762-95.688-61.917-96.088-61.638z"/>
	</g>
	<polygon fill="#A7A6A6" points="239.216,-83.199 -239.306,-83.199 -239.306,-63.408 239.216,-63.408 	"/>
	
		<line fill="none" stroke="#FFD115" stroke-width="1.3583" stroke-miterlimit="10" stroke-dasharray="13.5831" x1="-239.306" y1="-79.167" x2="239.952" y2="-79.167"/>
	<g>
		<path d="M12.754-65.833c2.847,0,5.153-2.308,5.153-5.153c0-2.849-2.307-5.156-5.153-5.156c-2.848,0-5.156,2.308-5.156,5.156
			C7.598-68.141,9.907-65.833,12.754-65.833z"/>
		<path fill="#C03A2B" d="M1.636-67.696c0,0.807,0.311,0.992,0.558,1.43c0.249,0.433,0.498,0.682,0.684,0.744
			c0.187,0.063,5.093,1.304,5.342,1.428c0.248,0.124,2.857,2.981,2.608,3.353c-0.249,0.374-0.683,0.559-0.683,0.559
			s1.489,0.313,1.862,0.313c0.374,0,1.119,0.063,1.429,0.248c0.311,0.187,9.564,5.838,15.402,7.205
			c5.838,1.366,11.366,2.048,19.006,1.614c7.638-0.435,12.483-1.181,12.731-1.677c0.248-0.498,1.863-3.914,2.36-5.652
			c0,0-2.299-0.808-2.796-1.615c0,0,2.671-2.608,4.348-3.29c0,0,0.87-0.745,0.87-1.181c0-0.435,0.124-2.485,0.124-2.919
			c0-0.433,0.31-0.372,0.248-1.241c-0.062-0.872-0.685-2.114-0.87-2.549c-0.184-0.432-1.862-0.807-1.862-0.807
			s-0.062,5.03-3.726,5.963c-3.665,0.932-6.024,0.123-7.392-1.243c-1.365-1.364-1.739-4.099-1.739-6.335H19.709
			c0,0-0.436,5.031-2.608,6.586c-2.175,1.552-4.782,1.862-7.765,0.559c-2.979-1.305-2.731-5.776-2.67-7.268c0,0-2.607,0-2.919,0.062
			c-0.31,0.062-0.498,0.934-0.498,0.934s-0.807,0.371-0.868,0.743c-0.063,0.375,0.248,0.498,0.372,0.807
			c0.124,0.312,0,1.492-0.435,1.677C1.884-69.064,1.636-67.696,1.636-67.696z"/>
		<path fill="#646363" d="M13.81-61.485c0.062,0.309,0.744,1.677,1.551,2.174c0.808,0.496,10.373,5.651,16.149,6.706
			c5.775,1.055,13.601,1.055,18.258,0.807c4.659-0.246,9.13-1.986,9.13-1.986s0.248-2.235-0.62-2.918
			c-0.87-0.684-6.522-1.864-7.949-2.051C48.9-58.94,13.81-61.485,13.81-61.485z"/>
		<path fill="#FFFFFF" d="M12.754-67.386c1.989,0,3.601-1.612,3.601-3.601c0-1.991-1.611-3.603-3.601-3.603
			c-1.992,0-3.603,1.611-3.603,3.603C9.152-68.999,10.762-67.386,12.754-67.386z"/>
		<path fill="#626061" stroke="#808080" stroke-width="1.2096" d="M12.754-67.821c1.748,0,3.166-1.418,3.166-3.166
			c0-1.752-1.418-3.168-3.166-3.168c-1.751,0-3.169,1.416-3.169,3.168C9.585-69.239,11.003-67.821,12.754-67.821z"/>
		<g>
			<path fill="#FFFFFF" stroke="#797979" stroke-width="1.2096" d="M16.03-70.82c0,0,0.173,0.405-0.474,1.456l-1.608-0.737
				c-0.151,0.205-0.352,0.366-0.584,0.471l0.242,1.81c0,0-0.331,0.288-1.531,0l0.202-1.755c-0.243-0.083-0.458-0.228-0.627-0.414
				l-1.645,0.793c0,0-0.379-0.229-0.474-1.459l1.731-0.35c0.003-0.263,0.076-0.511,0.199-0.725l-1.261-1.316
				c0,0,0.098-0.433,1.239-0.902l0.868,1.537c0.141-0.045,0.289-0.065,0.445-0.065c0.104,0,0.205,0.009,0.305,0.03l0.866-1.604
				c0,0,0.438-0.038,1.239,0.9l-1.196,1.301c0.144,0.202,0.239,0.443,0.268,0.703L16.03-70.82z"/>
		</g>
		<path d="M56.475-65.833c2.849,0,5.155-2.308,5.155-5.153c0-2.849-2.307-5.156-5.155-5.156c-2.845,0-5.153,2.308-5.153,5.156
			C51.322-68.141,53.63-65.833,56.475-65.833z"/>
		<path fill="#FFFFFF" d="M56.475-67.386c1.989,0,3.604-1.612,3.604-3.601c0-1.991-1.614-3.603-3.604-3.603
			c-1.988,0-3.601,1.611-3.601,3.603C52.875-68.999,54.487-67.386,56.475-67.386z"/>
		<path fill="#626061" stroke="#808080" stroke-width="1.2096" d="M56.475-67.821c1.75,0,3.17-1.418,3.17-3.166
			c0-1.752-1.42-3.168-3.17-3.168c-1.748,0-3.168,1.416-3.168,3.168C53.307-69.239,54.727-67.821,56.475-67.821z"/>
		<g>
			<path fill="#FFFFFF" stroke="#797979" stroke-width="1.2096" d="M59.752-70.82c0,0,0.174,0.405-0.475,1.456l-1.606-0.737
				c-0.151,0.205-0.353,0.366-0.585,0.471l0.243,1.81c0,0-0.332,0.288-1.532,0L56-69.576c-0.243-0.083-0.457-0.228-0.626-0.414
				l-1.646,0.793c0,0-0.377-0.229-0.475-1.459l1.733-0.35c0.004-0.263,0.076-0.511,0.199-0.725l-1.262-1.316
				c0,0,0.099-0.433,1.238-0.902l0.869,1.537c0.141-0.045,0.291-0.065,0.443-0.065c0.106,0,0.208,0.009,0.308,0.03l0.866-1.604
				c0,0,0.438-0.038,1.238,0.9l-1.195,1.301c0.144,0.202,0.239,0.443,0.267,0.703L59.752-70.82z"/>
		</g>
		
			<linearGradient id="SVGID_1_" gradientUnits="userSpaceOnUse" x1="-559.7256" y1="-16556.3301" x2="-556.4337" y2="-16554.5918" gradientTransform="matrix(1 0 0 -1 564 -16618)">
			<stop  offset="0" style="stop-color:#FFFFFF"/>
			<stop  offset="1" style="stop-color:#AED6E8"/>
		</linearGradient>
		<path fill="url(#SVGID_1_)" d="M10.145-60.183c-0.249-0.02-3.438-1.344-4.555-2.255c-1.118-0.911-2.816-2.484-2.713-3.084
			c0,0,5.031,1.18,5.342,1.428c0.311,0.25,2.878,2.981,2.608,3.353C10.559-60.368,10.145-60.183,10.145-60.183z"/>
		<path fill="#A6C6CB" d="M16.272-61.031c0,0,0.744,2.237,0.911,2.32c0.166,0.081,6.708,3.229,6.708,3.229l-1.368-5.009
			L16.272-61.031z"/>
		<path fill="#A6C6CB" d="M24.47-55.359l-1.407-5.092l14.491,1.201l1.49,6.957c0,0-5.466-0.25-8.404-0.994
			C27.7-54.035,24.47-55.359,24.47-55.359z"/>
		<polygon fill="#A6C6CB" points="41.114,-52.17 40.412,-59.043 51.259,-58.172 51.591,-55.564 50.1,-52.17 		"/>
		<path fill="none" stroke="#A4A5A6" stroke-width="0.6048" d="M40.121-51.798c0,0-1.282-8.239-1.324-8.569
			c-0.041-0.33-0.621-4.761-0.456-6.832c0.166-2.069,0.415-4.638,0.415-4.638s-16.396,0-16.977,0c-0.578,0-1.076,0.043-1.282,0.787
			c-0.208,0.745-1.615,6.419-0.167,9.98"/>
		<path fill="none" stroke="#A4A5A6" stroke-width="0.6048" d="M51.217-51.921l3.396-8.197c0,0-0.125-2.856-0.208-3.396
			c-0.083-0.538-0.206-1.077-0.704-1.325c-0.496-0.248-2.773-1.532-3.518-3.022c-0.745-1.49-0.581-3.725-1.49-3.809
			c-0.912-0.083-9.938-0.167-9.938-0.167"/>
		<path fill="#601E17" d="M33.331-62.396c0,0,0.374,0.661,0.911,0.786c0.539,0.125,2.69,0.579,2.69-0.042
			c0-0.62,0.291-0.994-0.909-1.242S33.538-63.266,33.331-62.396z"/>
		<path fill="#FFFFFF" d="M33.331-62.396l3.562,0.414c0,0,0.166,0.62-0.498,0.62c-0.661,0-2.153-0.248-2.441-0.414
			C33.663-61.94,33.331-62.396,33.331-62.396z"/>
		<path fill="#601E17" d="M49.728-60.698c0,0,0.372,0.66,0.909,0.786c0.539,0.125,2.691,0.578,2.691-0.042
			c0-0.621,0.291-0.994-0.909-1.242C51.217-61.444,49.935-61.57,49.728-60.698z"/>
		<path fill="#FFFFFF" d="M49.728-60.698l3.561,0.412c0,0,0.165,0.62-0.497,0.62c-0.663,0-2.154-0.246-2.443-0.412
			S49.728-60.698,49.728-60.698z"/>
		<path fill="#DD205C" d="M62.936-58.132c0,0,1.117,0.042,1.406-0.248c0.291-0.29,0.664-1.367,0.703-1.987
			c0.043-0.62,0.043-3.354,0.043-3.354l-0.601,0.685c0,0-1.925,1.138-2.421,1.511c-0.498,0.372-1.927,1.779-1.927,1.779
			S61.073-58.753,62.936-58.132z"/>
		<path fill="#A6C6CB" d="M60.576-52.48c0,0,3.105-4.453,3.767-5.9c0,0-0.868,0.372-1.406,0.248
			C62.936-58.132,60.865-52.916,60.576-52.48z"/>
		<path fill="#C03A2B" d="M21.862-60.491c-0.207,0.372-0.372,0.743-0.331,1.117c0.042,0.372,0.374,1.159,1.078,1.408
			c0.701,0.248,1.448,0,1.448,0s-0.043-1.492-0.124-1.821c-0.083-0.332-0.332-0.499-0.87-0.664
			C22.523-60.617,21.862-60.491,21.862-60.491z"/>
		<path fill="#E6B0AA" d="M21.406-70.595c0,0,25.754,0.582,26.085,0.622c0.331,0.041-0.786,0.207-1.324,0.288
			c-0.539,0.083-14.864,0.125-17.639,0C25.754-69.808,21.035-70.429,21.406-70.595z"/>
		<path fill="#EBC3C0" d="M61.104-59.56c0,0,2.327,0.187,2.546,0.216c0.217,0.033,0.466-0.31,0.497-0.495
			c0.03-0.187,0.093-0.466,0.03-0.59c-0.062-0.126-0.714-0.156-1.024-0.156s-0.962-0.156-1.366,0S60.605-59.684,61.104-59.56z"/>
		<path fill="#EBC3C0" d="M62.47-60.988c0.184,0.027,1.862,0.092,1.956,0.092s0.25-1.024,0.031-1.024c-0.218,0-0.745-0.155-1.057,0
			C63.09-61.765,62.067-61.052,62.47-60.988z"/>
		<path fill="#666666" d="M10.456-60.833c0,0-0.932,0-1.119-0.063c-0.185-0.062-0.185-0.775-0.029-0.995
			C9.307-61.891,9.926-61.671,10.456-60.833z"/>
		<path fill="#B2B9BA" d="M9.12-61.176c0,0-3.664-1.118-5.744-4.129c0,0,4.223,0.963,4.595,1.148
			c0.373,0.187,2.547,2.236,2.857,3.169C10.828-60.988,9.71-60.865,9.12-61.176z"/>
		
			<linearGradient id="SVGID_2_" gradientUnits="userSpaceOnUse" x1="-560.502" y1="-16554.543" x2="-555.8428" y2="-16554.543" gradientTransform="matrix(1 0 0 -1 564 -16618)">
			<stop  offset="0" style="stop-color:#FFFFFF"/>
			<stop  offset="1" style="stop-color:#666666"/>
		</linearGradient>
		<path fill="url(#SVGID_2_)" d="M8.157-61.642c0,0-1.893-1.832-1.893-2.949l-2.767-0.683C3.498-65.274,5.175-62.821,8.157-61.642z"
			/>
	</g>
	<path fill="#A7A6A6" d="M187.17-66.092"/>
	<g>
		<path fill="none" stroke="#A2A99F" stroke-width="0.9575" stroke-miterlimit="10" d="M-221.113-63.134
			c0,0,24.244,11.969,33.666,14.557c9.421,2.588,34.087,1.887,37.921,2.175s3.834,0.288,3.834,0.288"/>
		<path fill="none" stroke="#A2A99F" stroke-width="0.9575" stroke-miterlimit="10" d="M-135.083-4.699
			c-1.313,0.644-19.623-3.31-19.623-3.31l-32.519-4.149c0,0-34.527-10.532-41.549-15.001s-10.533-3.476-10.533-3.476"/>
		<path fill="none" stroke="#A2A99F" stroke-width="0.9575" stroke-miterlimit="10" d="M-99.613,8.333l73.888-16.341
			c0,0,45.98-2.146,48.789-4.149"/>
		<path fill="none" stroke="#A2A99F" stroke-width="0.9575" stroke-miterlimit="10" d="M-154.706-8.008
			c0,0,12.54-3.511,22.377-6.384c9.838-2.872,22.845-7.219,22.845-7.219"/>
		<path fill="none" stroke="#A2A99F" stroke-width="0.9575" stroke-miterlimit="10" d="M-73.565,20.22
			c0,0,70.118,1.147,75.866,0.981s7.914,0.119,7.914,0.119L45.544,8.333c0,0,49.638-4.22,68.788-8.365
			c19.149-4.146,55.565-10.506,55.565-10.506"/>
		<path fill="none" stroke="#A2A99F" stroke-width="0.9575" stroke-miterlimit="10" d="M102.28,2.072
			c0,0,28.142-19.336,32.704-26.358c4.563-7.021,56.268-13.375,57.545-13.23c1.276,0.145,40.534-11.852,40.534-11.852"/>
	</g>
</symbol>
<use xlink:href="#issue-views"  width="480.527" height="166.398" x="-240.263" y="-83.199" transform="matrix(1.0405 0 0 -1.0405 252.5278 87.3945)" overflow="visible"/>
</svg>
