<?xml version="1.0" encoding="utf-8"?>
<!-- Generator: Adobe Illustrator 15.0.0, SVG Export Plug-In . SVG Version: 6.00 Build 0)  -->
<!DOCTYPE svg PUBLIC "-//W3C//DTD SVG 1.1//EN" "http://www.w3.org/Graphics/SVG/1.1/DTD/svg11.dtd">
<svg version="1.1" id="Слой_1" xmlns="http://www.w3.org/2000/svg" xmlns:xlink="http://www.w3.org/1999/xlink" x="0px" y="0px"
	 width="505px" height="210px" viewBox="0 0 505 210" enable-background="new 0 0 505 210" xml:space="preserve">
<symbol  id="issue-methane" viewBox="-197.184 -82.075 394.368 164.15">
	<g>
		<linearGradient id="SVGID_1_" gradientUnits="userSpaceOnUse" x1="-157.0918" y1="-90.3618" x2="-19.3403" y2="73.804">
			<stop  offset="0" style="stop-color:#214391"/>
			<stop  offset="1" style="stop-color:#2369B2"/>
		</linearGradient>
		<path fill="url(#SVGID_1_)" d="M-197.184,39.839v-94.207h0.071c1.484-13.77,49.744-16.366,109.091-16.366
			c59.354,0,107.606,2.596,109.089,16.366h0.07v94.207H-197.184z"/>
		<path fill="#B4B5B7" d="M21.137,39.839c0,3.517-2.953,6.868-8.28,9.924C-5.594,64.672-88.383,80.625-88.383,80.625h0.719
			c0,0-82.788-15.953-101.241-30.862c-5.327-3.056-8.279-6.407-8.279-9.924c0-14.344,48.879-17.016,109.162-17.016
			C-27.734,22.824,21.137,25.495,21.137,39.839"/>
		<path fill="#9EA1A3" d="M-87.664,80.73c0,0-28.211-4.508-38.484-8.88c0,0-44.132-7.623-62.585-22.533
			c-5.319-3.063-8.272-6.417-8.272-9.933c0-6.81,11.567-7.424,29.572-12.053c0,0,14.634,11.883,23.728,20.709"/>
	</g>
	<path fill="#59595C" d="M111.504-63.482c-3.556-7.678-12.663-11.02-20.341-7.463c-7.678,3.556-11.019,12.663-7.463,20.34
		s12.663,11.02,20.34,7.463C111.718-46.698,115.06-55.805,111.504-63.482z"/>
	<path fill="#76B4B8" d="M124.818-54.611c-1.594-3.441-5.676-4.939-9.118-3.346c-3.441,1.594-4.939,5.676-3.346,9.118
		c1.594,3.442,5.677,4.939,9.118,3.346C124.915-47.087,126.413-51.169,124.818-54.611z"/>
	<path fill="#76B4B8" d="M94.743-40.682c-1.594-3.441-5.676-4.939-9.118-3.346c-3.442,1.594-4.94,5.676-3.346,9.118
		c1.594,3.442,5.676,4.939,9.118,3.346C94.839-33.158,96.337-37.24,94.743-40.682z"/>
	<path fill="#76B4B8" d="M113.943-78.092c-1.594-3.442-5.676-4.939-9.118-3.346c-3.442,1.594-4.94,5.676-3.346,9.118
		c1.594,3.441,5.676,4.939,9.118,3.346C114.04-70.568,115.538-74.65,113.943-78.092z"/>
	<path fill="#76B4B8" d="M83.869-64.163c-1.594-3.442-5.676-4.939-9.118-3.346c-3.442,1.594-4.939,5.676-3.346,9.118
		c1.594,3.441,5.676,4.939,9.118,3.346C83.964-56.639,85.462-60.721,83.869-64.163z"/>
	<polygon fill="none" points="91.5,-51.725 106.423,-51.725 106.423,-65.459 91.5,-65.459 	"/>
	<text transform="matrix(1 0 0 -1 91.5 -58.1484)" fill="#D0D1D1" font-family="'OpenSans-Semibold'" font-size="5.1929">ch4</text>
	<path fill="#59595C" d="M111.504-5.888c-3.556-7.678-12.663-11.02-20.341-7.464C83.485-9.795,80.144-0.689,83.7,6.989
		c3.556,7.678,12.663,11.019,20.34,7.463C111.718,10.896,115.06,1.79,111.504-5.888z"/>
	<path fill="#76B4B8" d="M124.818,2.984c-1.594-3.442-5.676-4.939-9.118-3.346c-3.441,1.594-4.939,5.676-3.346,9.118
		c1.594,3.441,5.677,4.939,9.118,3.345C124.915,10.508,126.413,6.426,124.818,2.984z"/>
	<path fill="#76B4B8" d="M94.743,16.913c-1.594-3.442-5.676-4.94-9.118-3.346c-3.442,1.594-4.94,5.676-3.346,9.118
		c1.594,3.442,5.676,4.94,9.118,3.346C94.839,24.437,96.337,20.354,94.743,16.913z"/>
	<path fill="#76B4B8" d="M113.943-20.497c-1.594-3.442-5.676-4.94-9.118-3.346c-3.442,1.594-4.94,5.676-3.346,9.118
		c1.594,3.442,5.676,4.94,9.118,3.346C114.04-12.973,115.538-17.056,113.943-20.497z"/>
	<path fill="#76B4B8" d="M83.869-6.568c-1.594-3.442-5.676-4.94-9.118-3.346c-3.442,1.594-4.939,5.676-3.346,9.118
		c1.594,3.442,5.676,4.94,9.118,3.346C83.964,0.956,85.462-3.127,83.869-6.568z"/>
	<polygon fill="none" points="91.5,5.87 106.423,5.87 106.423,-7.864 91.5,-7.864 	"/>
	<text transform="matrix(1 0 0 -1 91.5 -0.5547)" fill="#D0D1D1" font-family="'OpenSans-Semibold'" font-size="5.1929">ch4</text>
	<path fill="#59595C" d="M111.504,49.519c-3.556-7.678-12.663-11.02-20.341-7.464c-7.678,3.556-11.019,12.663-7.463,20.341
		c3.556,7.678,12.663,11.02,20.34,7.463C111.718,66.304,115.06,57.197,111.504,49.519z"/>
	<path fill="#76B4B8" d="M124.818,58.391c-1.594-3.442-5.676-4.939-9.118-3.346c-3.441,1.594-4.939,5.676-3.346,9.118
		c1.594,3.441,5.677,4.939,9.118,3.346C124.915,65.915,126.413,61.833,124.818,58.391z"/>
	<path fill="#76B4B8" d="M94.743,72.319c-1.594-3.442-5.676-4.939-9.118-3.346c-3.442,1.594-4.94,5.676-3.346,9.118
		c1.594,3.441,5.676,4.939,9.118,3.346C94.839,79.843,96.337,75.761,94.743,72.319z"/>
	<path fill="#76B4B8" d="M113.943,34.91c-1.594-3.442-5.676-4.94-9.118-3.346c-3.442,1.594-4.94,5.676-3.346,9.118
		c1.594,3.441,5.676,4.939,9.118,3.346C114.04,42.434,115.538,38.351,113.943,34.91z"/>
	<path fill="#76B4B8" d="M83.869,48.838c-1.594-3.442-5.676-4.939-9.118-3.346s-4.939,5.676-3.346,9.118
		c1.594,3.441,5.676,4.939,9.118,3.345C83.964,56.362,85.462,52.28,83.869,48.838z"/>
	<polygon fill="none" points="91.5,61.277 106.423,61.277 106.423,47.542 91.5,47.542 	"/>
	<text transform="matrix(1 0 0 -1 91.5 54.8516)" fill="#D0D1D1" font-family="'OpenSans-Semibold'" font-size="5.1929">ch4</text>
	<path fill="#59595C" d="M183.232-45.684c-3.556-7.678-12.663-11.019-20.34-7.463s-11.02,12.663-7.463,20.34
		c3.556,7.678,12.663,11.02,20.34,7.464C183.446-28.899,186.788-38.006,183.232-45.684z"/>
	<path fill="#76B4B8" d="M196.547-36.812c-1.594-3.442-5.676-4.94-9.118-3.346c-3.442,1.594-4.939,5.676-3.346,9.118
		c1.594,3.442,5.676,4.94,9.118,3.346C196.643-29.288,198.141-33.371,196.547-36.812z"/>
	<path fill="#76B4B8" d="M166.472-22.883c-1.594-3.442-5.676-4.94-9.118-3.346c-3.441,1.594-4.939,5.676-3.346,9.118
		c1.594,3.442,5.676,4.94,9.118,3.346C166.568-15.359,168.065-19.442,166.472-22.883z"/>
	<path fill="#76B4B8" d="M185.672-60.293c-1.594-3.441-5.676-4.939-9.118-3.345c-3.441,1.594-4.939,5.676-3.346,9.118
		c1.594,3.442,5.676,4.94,9.118,3.346S187.266-56.852,185.672-60.293z"/>
	<path fill="#76B4B8" d="M155.597-46.364c-1.594-3.442-5.676-4.94-9.118-3.346c-3.442,1.594-4.94,5.676-3.346,9.118
		c1.594,3.442,5.676,4.939,9.118,3.346C155.693-38.84,157.191-42.923,155.597-46.364z"/>
	<polygon fill="none" points="163.229,-33.926 178.151,-33.926 178.151,-47.661 163.229,-47.661 	"/>
	<text transform="matrix(1 0 0 -1 163.2285 -40.3506)" fill="#D0D1D1" font-family="'OpenSans-Semibold'" font-size="5.1929">ch4</text>
	<path fill="#59595C" d="M183.232,11.911c-3.556-7.678-12.663-11.02-20.34-7.463c-7.678,3.556-11.02,12.663-7.463,20.34
		c3.556,7.678,12.663,11.02,20.34,7.463C183.446,28.695,186.788,19.588,183.232,11.911z"/>
	<path fill="#76B4B8" d="M196.547,20.782c-1.594-3.441-5.676-4.939-9.118-3.346c-3.442,1.594-4.939,5.676-3.346,9.118
		s5.676,4.939,9.118,3.346C196.643,28.306,198.141,24.224,196.547,20.782z"/>
	<path fill="#76B4B8" d="M166.472,34.711c-1.594-3.441-5.676-4.939-9.118-3.346c-3.441,1.594-4.939,5.676-3.346,9.118
		c1.594,3.442,5.676,4.939,9.118,3.346C166.568,42.235,168.065,38.153,166.472,34.711z"/>
	<path fill="#76B4B8" d="M185.672-2.699c-1.594-3.442-5.676-4.939-9.118-3.346c-3.441,1.594-4.939,5.676-3.346,9.118
		c1.594,3.441,5.676,4.939,9.118,3.346C185.768,4.825,187.266,0.743,185.672-2.699z"/>
	<path fill="#76B4B8" d="M155.597,11.23c-1.594-3.442-5.676-4.939-9.118-3.346c-3.442,1.594-4.94,5.676-3.346,9.118
		c1.594,3.441,5.676,4.939,9.118,3.345C155.693,18.754,157.191,14.672,155.597,11.23z"/>
	<polygon fill="none" points="163.229,23.668 178.151,23.668 178.151,9.934 163.229,9.934 	"/>
	<text transform="matrix(1 0 0 -1 163.2285 17.2441)" fill="#D0D1D1" font-family="'OpenSans-Semibold'" font-size="5.1929">ch4</text>
</symbol>
<use xlink:href="#issue-methane"  width="394.368" height="164.15" x="-197.184" y="-82.075" transform="matrix(1.2678 0 0 -1.2678 252.0547 105.2939)" overflow="visible"/>
</svg>
