<?xml version="1.0" encoding="utf-8"?>
<!-- Generator: Adobe Illustrator 15.0.0, SVG Export Plug-In . SVG Version: 6.00 Build 0)  -->
<!DOCTYPE svg PUBLIC "-//W3C//DTD SVG 1.1//EN" "http://www.w3.org/Graphics/SVG/1.1/DTD/svg11.dtd">
<svg version="1.1" id="Слой_1" xmlns="http://www.w3.org/2000/svg" xmlns:xlink="http://www.w3.org/1999/xlink" x="0px" y="0px"
	 width="505px" height="165px" viewBox="0 0 505 165" enable-background="new 0 0 505 165" xml:space="preserve">
<symbol  id="viability" viewBox="-236.648 -76.268 473.297 152.536">
	<g>
		<polygon fill="#BCE4F2" points="-194.089,-51.07 -194.089,-53.618 -189.297,-51.619 -190.863,-49.158 		"/>
		<path fill="#BCE4F2" d="M-197.581-47.469c0,0,1.426,5.313,2.431,2.67l2.273,3.174l-1.79,2.909l-3.655-2.685L-197.581-47.469z"/>
		<path fill="#BCE4F2" d="M236.648-27.941h-6.64C231.351-27.977,236.648-27.941,236.648-27.941z"/>
		<path fill="#BCE4F2" d="M-235.736-25.158v-5.504l0.346-0.888c0,0,0.448-0.888,2.685,0c2.238,0.888,3.319,1.017,3.319,1.017
			l6.75-6.058l3.804-0.715l4.027-0.631l4.064,0.478l3.096-3.102l2.237-2.518c0,0,0.634-1.669,1.566-3.132
			c0.932-1.464,6.26-1.257,6.26-1.257v1.794l1.646,14.714"/>
		<path fill="#BCE4F2" d="M-192.877-55.034"/>
		<polyline fill="#BCE4F2" points="-151.007,-65.479 -151.036,-67.273 -176.767,-66.825 -188.402,-66.143 -197.464,-63.329 
			-197.581,-61.982 -189.492,-64.348 		"/>
		<path fill="#BCE4F2" d="M-151.007-62.322l-0.029-4.952l3.097,0.98l1.394,1.666l3.362,1.578l1.544,0.503l3.214,1.403
			c8.645,2.737,6.988,2.768,14.752,6.109c7.764,3.34,1.052,4.683,7.764,3.34c6.712-1.343,15.928-3.133,15.928-3.133l4.154-5.538
			l1.673-3.984l2.187,4.711l-14.768,17.285"/>
		<path fill="#BCE4F2" d="M113.659-40.506c0,0,0,0,4.503-10.356c4.502-10.357-6.292-18.309-6.292-18.309s-7.608-5.345-7.62-5.412
			c-0.012-0.067-44.104,4.936-44.104,4.936L49.88-75.032l-8.366-1.236c0,0-37.492,1.752-40.355,1.685
			c-2.864-0.067-15.551-0.706-15.551-0.706l-17.385,5.642c0,0-17.005-0.394-27.297,0.054c-10.292,0.447,0,0-20.033,0.422
			c0,0-14.984,1.193-15.991,1.898v1.987"/>
		<path fill="#BCE4F2" d="M124.007-22.886l44.052-2.72l0.083-1.475l-0.902-0.057c-4.59-0.272-14.473-1.154-20.465-0.838
			c-8.503,0.448,0,0-7.16,1.024s-8.95-1.024-13.873-1.56c-4.922-0.536-4.027-1.207-4.027-1.207l-8.782-8.159v2.739"/>
		<path fill="#BCE4F2" d="M235.559-24.805v-1.967l-10.026-0.181c0,0-8.055-1.024-12.083-7.194c-4.027-6.17-5.37-3.791-5.37-3.791
			l-8.502,2.382c0,0-7.16-1.819-9.169-2.382c-2.008-0.563-6.494-0.332-10.521,2.483s-7.048,4.755-7.048,4.755l-4.699,3.617v1.475"/>
		<path fill="#BCE4F2" d="M-2.245-59.525"/>
		<path fill="#BCE4F2" d="M-192.197-54.455C-192.092-54.301-192.074-54.174-192.197-54.455L-192.197-54.455z"/>
		<path fill="#BCE4F2" d="M-181.69-4.392"/>
	</g>
	<path fill="#8FD1EA" d="M-235.566-25.623v-3.344l-0.743-1.253c0,0,0.447-0.888,2.685,0c2.237,0.888,4.475,1.253,4.475,1.253
		l7.215-6.561l2.183-0.449l4.027-0.631l5.37,0.631l2.238-2.808l2.73-2.603c0,0,0.776-1.575,1.708-3.039s6.268-1.713,6.268-1.713
		s1.824,7.788,2.719-1.351s2.685-0.605,0.895-6.214s-3.614-8.742-3.614-8.742l8.089-2.366l11.635-0.682l26.85-0.449
		c0,0,2.849,3.394,11.493,6.131c8.645,2.736,6.988,2.768,14.753,6.108c7.764,3.34,1.052,4.683,7.764,3.34
		c6.712-1.342,16.996-3.34,16.996-3.34l2.226-1.945l2.212-4.164l1.41-5c0,0-6.077-2.607,13.956-3.029
		c20.033-0.422,9.74,0.025,20.033-0.422c10.292-0.447,27.297-0.054,27.297-0.054l17.386-5.642c0,0,12.688,0.639,15.551,0.706
		c2.863,0.067,40.355-1.685,40.355-1.685l8.366,1.236l10.265,5.385c0,0,44.093-5.003,44.104-4.936
		c0.012,0.067,7.62,5.412,7.62,5.412s10.795,7.952,6.292,18.309c-4.502,10.356-4.502,10.356-4.502,10.356l0.447,3.523l7.608,7.264
		c0,0-0.895,0.671,4.027,1.207c4.922,0.535,6.712,2.584,13.873,1.56c7.16-1.024-1.343-0.577,7.16-1.024
		c8.502-0.447,22.375,0.576,22.375,0.576l4.475-2.318c0,0,2.237-2.473,6.265-5.288c4.028-2.814,8.513-3.494,10.521-2.93
		c2.009,0.563,9.168,2.382,9.168,2.382l8.502-2.382c0,0,1.343-2.379,5.37,3.791s12.083,7.194,12.083,7.194s3.132,0.388,4.475,0.353
		c1.342-0.035,6.64,0,6.64,0V6.854c0,0-5.298-0.035-6.64,0c-1.343,0.035-4.475-0.353-4.475-0.353s-8.055-1.024-12.083-7.194
		s-5.37-3.791-5.37-3.791l-8.502,2.382c0,0-7.16-1.819-9.168-2.382c-2.009-0.563-6.494,0.116-10.521,2.931
		c-4.027,2.815-6.265,5.288-6.265,5.288l-4.475,2.318c0,0-13.873-1.023-22.375-0.576c-8.502,0.448,0,0-7.16,1.024
		c-7.16,1.024-8.95-1.024-13.873-1.56c-4.922-0.536-4.027-1.207-4.027-1.207l-7.608-7.264l-0.447-3.523c0,0,0,0,4.502-10.357
		c4.502-10.356-6.292-18.309-6.292-18.309s-7.607-5.344-7.62-5.412c-0.012-0.067-44.104,4.936-44.104,4.936L48.96-41.58
		l-8.366-1.236c0,0-37.492,1.752-40.355,1.685s-14.844-0.671-14.844-0.671l-17.05,5.606c0,0-18.048-0.394-28.34,0.054
		c-10.292,0.447,0.004,0.422-20.033,0.422c-14.752,0-13.956,3.029-13.956,3.029l-1.41,5l-2.212,4.164l-2.226,1.945
		c0,0-10.283,1.998-16.996,3.341c-6.712,1.342,0,0-7.764-3.341c-7.765-3.34-6.108-3.372-14.753-6.108
		c-8.644-2.736-11.493-6.13-11.493-6.13l-26.85,0.449l-11.635,0.682l-8.089,2.366c0,0,1.824,3.132,3.614,8.742
		c1.79,5.61,0-2.924-0.895,6.215s-2.719,1.351-2.719,1.351s-5.335,0.25-6.268,1.714s-1.708,3.039-1.708,3.039l-2.73,2.603
		l-2.238,2.808l-5.37-0.631l-4.027,0.631l-2.183,0.449l-7.215,6.562c0,0-2.237-0.366-4.475-1.253c-2.238-0.888-2.685,0-2.685,0
		l0.743,1.253V-25.623z"/>
	<path fill="#B4BCA7" d="M113.829-7.142c0,0,0,0,4.502-10.357c4.502-10.356-6.292-18.309-6.292-18.309s-7.607-5.345-7.619-5.412
		c-0.012-0.067-44.105,4.936-44.105,4.936L50.05-41.668l-8.366-1.236c0,0-37.492,1.751-40.355,1.685
		c-2.863-0.067-15.551-0.707-15.551-0.707l-17.385,5.642c0,0-17.005-0.394-27.297,0.054c-10.292,0.447,0,0-20.033,0.422
		c0,0-11.748-0.098-14.401,1.898v1.987"/>
	<polyline fill="#B4BCA7" points="-150.837,-32.115 -150.867,-33.909 -176.598,-33.46 -188.232,-32.778 -197.294,-29.965 
		-197.411,-28.618 -189.322,-30.984 	"/>
	<path fill="#B4BCA7" d="M124.177,10.478l44.052-2.72l0.083-1.475l-0.902-0.057c-4.591-0.272-14.473-1.154-20.466-0.838
		c-8.502,0.447,0,0-7.16,1.024c-7.16,1.024-8.95-1.024-13.872-1.56c-4.923-0.535-4.028-1.207-4.028-1.207l-8.782-8.159v2.739"/>
	<path fill="#B4BCA7" d="M235.729,8.56V6.593l-10.026-0.181c0,0-8.055-1.024-12.083-7.194c-4.028-6.17-5.37-3.791-5.37-3.791
		l-8.502,2.382c0,0-7.16-1.819-9.168-2.382c-2.009-0.563-6.494-0.332-10.521,2.483c-4.027,2.814-7.048,4.755-7.048,4.755
		l-4.699,3.617v1.475"/>
	<path fill="#B4BCA7" d="M-2.075-26.161"/>
	<path fill="#B4BCA7" d="M-181.52,28.972"/>
	<path fill="#BECBAA" d="M235.729,14.838c0,0.429-0.337,0.781-0.765,0.8c-4.055,0.181-23.304,1.009-35.121,1.009
		c-12.893,0-35.679-3.289-36.938-3.472c-0.038-0.006-0.074-0.008-0.112-0.008h-16.127c-0.049,0-0.096,0.004-0.144,0.013
		c-1.378,0.255-22.531,4.14-27.813,3.467c-5.165-0.658-12.424-0.694-13.195-0.696c-0.045,0-0.089,0.004-0.134,0.011l-14.193,2.4
		l-0.242-0.006c-0.755-0.084-7.116,0.535-7.116,0.241l1.7,0.069c0.813,0.033,1.072,1.134,0.348,1.506
		c-3.3,1.695-7.782,0.602-9.359,0.106c-0.332-0.104-0.556-0.414-0.556-0.762v-4.664c-0.167-0.075,7.554-4.473,7.368-4.482
		c-2.045-0.094-15.049-0.683-20.791-0.683c-6.241,0-7.458,1.458-25.4,2.851S24.919-3.616,22.579-3.616
		c-2.189,0-0.537-3.313-1.242-3.391c-0.055-0.006-0.103-0.008-0.158-0.008h-4.441c-0.151,0-0.301-0.015-0.449-0.044l-13.5-2.677
		c-0.21-0.042-0.407-0.127-0.572-0.251l-4.292,0.758c-0.098-0.073-5.11-0.988-5.219-1.044l0.035-5.579
		c-0.268-0.137-0.572-0.188-0.876-0.145c-2.983,0.425-19.54,2.781-24.502,3.414c-5.461,0.696-13.672,4.176-13.672,4.176
		l-5.562,2.643c-0.196,0.093-0.414,0.141-0.635,0.141h-18.944h-26.306h-2.317c-0.747,0,0.929,0.372,0.929,1.038h1.788
		c0,0.666-1.575,0.527-0.828,0.527l2.747,0.292l2.859,3.01c1.55,0-3.297,1.259-4.779,1.667l-3.766,1.039
		c-0.2,0.055-0.407,0.083-0.614,0.083h-18.812c-0.161,0-0.322,0.017-0.48,0.051l-16.146,3.429l-23.978,4.827
		c-0.15,0.03-0.302,0.045-0.455,0.045h-10.383c-0.25,0-0.499,0.041-0.736,0.12c-1.628,0.541-8.799,2.75-18.955,3.36
		c-5.8,0.348-7.19,1.044-7.131,1.653c0.062,0.637-0.646,1.131-1.362,1.131h-5.651h-4.681h-3.386c-0.272,0-0.538,0.074-0.763,0.211
		l-3,1.83c-0.654,0.399-0.785,1.213-0.282,1.761l3.5,3.807c0.083,0.091,0.187,0.161,0.302,0.206l0.766,0.294
		c0.829,0.319,0.6,1.548-0.288,1.548l0,0h-3.537c-0.1,0-0.2-0.019-0.293-0.056l-4.743-1.866c-0.062-0.024-0.126-0.041-0.192-0.049
		l-9.703-1.237c-0.103-0.013-0.202-0.046-0.292-0.097l-3.125-1.765c-0.202-0.114-0.345-0.311-0.391-0.538l-0.698-3.441
		c-0.073-0.36,0.108-0.724,0.44-0.882l6.958-3.313c0.592-0.282,0.613-1.118,0.035-1.428l-5.946-3.199
		c-0.259-0.139-0.421-0.41-0.421-0.705V5.083c0-0.144-0.039-0.285-0.112-0.408l-0.142-0.239c-0.332-0.56,0.105-1.268,0.753-1.208
		c0.369,0.034,0.841,0.144,1.443,0.383c1.666,0.661,3.331,1.032,4.074,1.179c0.25,0.049,0.507-0.021,0.695-0.193l6.758-6.146
		c0.106-0.097,0.237-0.163,0.377-0.192l1.968-0.405l3.919-0.614c0.072-0.011,0.145-0.013,0.217-0.004l4.819,0.566
		c0.275,0.032,0.547-0.08,0.72-0.296l1.926-2.417c0.022-0.028,0.047-0.055,0.074-0.081l2.589-2.469
		c0.066-0.063,0.122-0.138,0.163-0.22c0.201-0.398,0.869-1.695,1.646-2.915c0.727-1.141,4.129-1.544,5.594-1.667
		c0.381-0.032,0.733,0.208,0.837,0.576c0.468,1.648,1.823,5.506,2.555-1.974c0.895-9.139,2.685-0.605,0.895-6.214
		c-1.246-3.904-2.508-6.608-3.161-7.892c-0.227-0.446,0.01-0.986,0.491-1.127l7.057-2.064c0.058-0.017,0.118-0.027,0.178-0.031
		l11.544-0.677l26.498-0.443c0.214-0.003,0.422,0.077,0.574,0.229c0.814,0.813,3.983,3.588,11.271,5.896
		c8.645,2.737,6.988,2.768,14.753,6.109c7.764,3.34,1.052,4.683,7.764,3.34c6.146-1.229,15.287-3.008,16.784-3.299
		c0.139-0.027,0.268-0.09,0.374-0.183l1.507-1.902c0.074-0.064,0.166-0.262,0.211-0.348l2.221-3.656
		c0.027-0.05,0.192-0.287,0.208-0.342l1.369-4.119c0.089-0.317-0.017-0.666-0.284-0.86c-0.923-0.67-1.729-2.428,14.409-2.768
		c20.033-0.422,9.74,0.025,20.033-0.422c9.758-0.424,25.548-0.093,27.163-0.057c0.09,0.002,0.178-0.011,0.264-0.039l17.116-5.554
		c0.093-0.03,0.19-0.043,0.287-0.038c1.419,0.071,12.722,0.636,15.404,0.699c2.789,0.065,38.413-1.594,40.279-1.681
		c0.052-0.002,0.102,0,0.153,0.008l8.155,1.205c0.089,0.013,0.175,0.042,0.255,0.083l9.926,5.207
		c0.142,0.075,0.301,0.105,0.46,0.087c3.506-0.397,43.851-4.972,43.862-4.908c0.012,0.067,7.62,5.412,7.62,5.412
		s10.795,7.952,6.292,18.308L112.827-5.55c-0.058,0.132-0.078,0.277-0.06,0.42l0.384,3.023c0.023,0.183,0.108,0.352,0.241,0.479
		l7.178,6.854c0.1,0.096,0.142,0.229,0.163,0.366c0.035,0.229,0.603,0.676,4.089,1.056c4.922,0.535,6.712,2.584,13.873,1.56
		c7.16-1.024-1.343-0.577,7.16-1.024c7.87-0.414,20.34,0.432,22.152,0.56c0.147,0.01,0.292-0.02,0.423-0.088l4.151-2.15
		c0.081-0.042,0.151-0.095,0.214-0.162c0.456-0.483,2.617-2.704,6.174-5.19c4.028-2.814,8.513-3.494,10.521-2.93
		c1.807,0.506,7.782,2.029,8.964,2.33c0.136,0.035,0.275,0.032,0.41-0.006l8.073-2.262c0.131-0.037,0.246-0.113,0.342-0.21
		c0.404-0.408,1.896-1.203,5.252,3.938c4.027,6.17,12.083,7.194,12.083,7.194s3.132,0.388,4.475,0.353
		c1.019-0.026,4.314-0.013,5.845-0.004c0.44,0.002,0.795,0.36,0.795,0.801v3.025V14.838z"/>
	<g>
		<path fill="#5B5642" d="M118.616-19.916c0.129-7.852-7.667-14.497-7.667-14.497s-5.744-4.062-7.62-5.412v1.815
			c1.876,1.35,7.62,5.412,7.62,5.412l6.719,17.219l0.5-1.264L118.616-19.916z"/>
	</g>
	<path fill="#797358" d="M103.33-37.991c-0.011-0.064-40.355,4.511-43.862,4.908c-0.159,0.018-0.318-0.012-0.46-0.087l-9.926-5.207
		c-0.08-0.042-0.166-0.07-0.255-0.083l-8.155-1.205c-0.051-0.007-0.102-0.01-0.153-0.008c-1.866,0.087-37.491,1.747-40.279,1.681
		c-2.682-0.063-13.985-0.627-15.404-0.699c-0.097-0.005-0.194,0.008-0.287,0.038l-13.327,4.68v-1.833l13.327-4.68
		c0.093-0.03,0.19-0.043,0.287-0.038c1.419,0.071,12.722,0.636,15.404,0.699c2.789,0.065,38.413-1.594,40.279-1.681
		c0.052-0.002,0.102,0,0.153,0.008l8.155,1.205c0.089,0.013,0.175,0.041,0.255,0.083l9.926,5.207
		c0.142,0.074,0.301,0.104,0.46,0.086c3.506-0.397,43.851-4.972,43.862-4.908V-37.991z"/>
	<path opacity="0.8" fill="#AAB29D" d="M46.37,51.712l15.996,5.131l8.419-5.131l6.532,4.866l5.356-3.944l19.735,6.877l6.774-7.799
		l11.493,5.131l8.832-2.727l3.666,2.727l30.28-8.751l15.793-13.544c-0.152,0.178-0.281,0.327-0.394,0.459
		c-0.057,0.067-0.115,0.134-0.173,0.202c-0.016,0.018-0.035,0.042-0.05,0.058c-0.101,0.118-0.192,0.225-0.263,0.307
		c-0.037,0.042-0.066,0.077-0.085,0.099c-0.042,0.049-0.048,0.056,0,0c0.021-0.024,0.049-0.057,0.085-0.099
		c0.061-0.071,0.145-0.168,0.263-0.307c0.017-0.019,0.033-0.038,0.05-0.058c0.054-0.063,0.107-0.125,0.173-0.202
		c0.21-0.245,0.394-0.459,0.394-0.459l10.526-2.927l7.789-2.167l5.22-1.194c-21.775,13.894-54.028,34.275-56.823,34.905
		c-4.25,0.957-12.755,2.687-17.006,2.687c-4.252,0-7.896-0.607-14.579-2.532c-6.68-1.925-9.717-0.504-13.968-0.155
		c-4.252,0.349-12.757,0-12.757,0s-12.301-4.494-15.996-5.132l-10.121,5.132c0,0-13.363,5.724-16.399,7.546
		c-3.037,1.822-7.896,4.858-10.327,5.465c-2.43,0.608-6.681-1.821-17.613-6.681c-0.916-0.407-1.927-0.919-3.017-1.506L36.25,56.843
		L46.37,51.712z"/>
	<path fill="#A5AC99" d="M43.733,49.075l15.996,5.131l8.419-5.131l6.532,4.866l5.356-3.944l19.735,6.877l6.774-7.799l11.493,5.131
		l8.832-2.727l3.666,2.727l30.279-8.751l15.793-13.544c-0.152,0.177-0.281,0.327-0.394,0.459c-0.057,0.066-0.115,0.134-0.173,0.202
		c-0.016,0.018-0.035,0.042-0.05,0.058c-0.101,0.118-0.192,0.225-0.263,0.306c-0.037,0.043-0.066,0.078-0.085,0.099
		c-0.042,0.049-0.048,0.056,0,0c0.021-0.024,0.049-0.057,0.085-0.099c0.061-0.071,0.145-0.168,0.263-0.306
		c0.017-0.019,0.033-0.039,0.05-0.058c0.054-0.063,0.107-0.125,0.173-0.202c0.21-0.245,0.394-0.459,0.394-0.459l10.526-2.928
		l7.789-2.166l5.219-1.194c-21.774,13.894-54.027,34.275-56.823,34.904c-4.25,0.958-12.755,2.688-17.006,2.688
		c-4.252,0-7.896-0.608-14.579-2.532c-6.68-1.925-9.717-0.504-13.968-0.155c-4.252,0.349-12.757,0-12.757,0
		s-12.301-4.493-15.996-5.131l-10.121,5.131c0,0-13.363,5.725-16.399,7.547c-3.037,1.822-7.896,4.858-10.327,5.465
		c-2.429,0.608-6.681-1.821-17.613-6.681c-0.915-0.407-1.927-0.919-3.017-1.506l22.074-11.146L43.733,49.075z"/>
	<polygon fill="#A3BE88" points="-61.271,48.539 -62.943,47.312 -66.653,44.591 -79.761,46.775 -85.228,46.775 -93.362,40.198 
		-90.031,37.259 -70.278,32.337 -57.321,25.517 -56.022,24.371 58.369,24.371 58.819,24.492 58.774,24.371 217.81,24.371 
		216.507,25.12 208.507,26.949 202.78,28.259 197.561,29.454 189.772,31.62 179.246,34.547 163.453,48.092 133.173,56.843 
		129.507,54.116 120.675,56.843 109.183,51.712 102.409,59.511 82.673,52.634 77.317,56.578 70.785,51.712 62.366,56.843 
		46.37,51.712 36.25,56.843 14.176,67.989 8.8,70.703 -13.165,61.636 -22.161,64.103 -31.276,63.154 -37.565,61.028 -49.95,56.843 	
		"/>
	<polygon fill="#93AB7C" points="-64.857,45.617 -66.529,44.39 -70.239,41.669 -83.347,43.854 -88.813,43.854 -96.948,37.276 
		-93.617,34.338 -73.864,29.416 -60.907,22.595 -59.609,21.45 54.783,21.45 55.233,21.571 55.188,21.45 214.224,21.45 
		212.921,22.198 204.921,24.028 199.194,25.338 193.975,26.532 186.186,28.698 175.66,31.626 159.867,45.17 129.587,53.922 
		125.921,51.195 117.089,53.922 105.597,48.791 98.823,56.589 79.087,49.712 73.731,53.656 67.199,48.791 58.78,53.922 
		42.784,48.791 32.664,53.922 10.59,65.067 5.214,67.782 -16.751,58.715 -25.747,61.181 -34.862,60.232 -41.151,58.107 
		-53.536,53.922 	"/>
	<path fill="#9DB983" d="M3.84,24.371l2.44-0.875l3.378-1.237l4.957-1.493h2.939l5.091-0.682h7.822l7.005,0.682
		c0,0-4.245,0.341,1.632,0s5.877-0.341,5.877-0.341l4.898-0.341l7.184,0.853l6.11,0.512l11.522,0.779c0,0-13.667,0.096,2.635,0
		c16.303-0.097,13.691-0.097,16.303-0.097c2.612,0,7.183-0.319,11.754,0.097s10.775,0,10.775,0l20.145,1.098l5.978-0.17l7.184-0.927
		h1.959h1.633l5.551,0.756c0,0-9.796-0.17,1.632,0c11.429,0.171,24.163,1.387,24.163,1.387h-36.443"/>
	<polyline fill="#576047" points="-108.676,-17.921 -100.035,-7.142 -98.342,-4.374 -96.947,-2.958 -96.948,-1.249 -105.78,-2.249 
		-108.676,-16.176 	"/>
	<path fill="#8EA964" d="M-181.69-29.46l44.118,31.228l7.417-1.642l29.5-0.125c0,0,3.789-0.25,3.707-1.25
		c-0.082-1-2.124-1.542-2.624-2.042s-0.625-1.708-0.625-1.708l-1.083-2.402l-7.396-8.775l-9.667,0.927l-1.375,0.125l-1.784-2.188
		l-17.778-7.711l-12.75-5.914"/>
	<path fill="#6C804E" d="M-108.676-17.921c-2.742,0.538-5.687,1.12-8.151,1.612c-6.712,1.342,0,0-7.764-3.341
		c-11.383-4.897-6.252-3.417-14.753-6.108c-7.288-2.307-10.457-5.082-11.271-5.896c-0.152-0.151-0.36-0.233-0.574-0.229l-30.5,0.678
		v1.744l30.5-0.677c0.214-0.004,0.422,0.077,0.574,0.229c0.814,0.813,3.983,3.588,11.271,5.896
		c8.645,2.737,6.988,2.768,14.753,6.108c7.764,3.341,1.052,4.683,7.764,3.341c2.464-0.493,5.41-1.074,8.151-1.612V-17.921z"/>
	<g>
		<path fill="#7C926A" d="M37.138,24.836l-2.349,2.073l-23.443,12.34l-35.739,8.906l-6.026,5.316l-7.262,6.406l-16.543,5.495
			l-19.552,5.805l-10.059,2.986l-14.823-13.188l-6.117-5.443l-14.847-7.047l-6.637-3.149c0.168,0.187,0.383,0.351,0.656,0.473
			c1.713,0.767,1.347,3.299-0.514,3.549l-7.467,1.003l-4.168,0.56l-1.106,0.148c-0.082,0.011-0.165,0.017-0.248,0.017h-0.961h-19.48
			c-1.391,0-2.292-1.467-1.663-2.708l-64.36-23.541H37.138z M-86.422,29.956L-86.422,29.956l-0.283,0.152v0.092l0.28-0.07
			l11.514,4.527L-86.422,29.956z"/>
		<path fill="#7C926A" d="M-225.377,25.326l-3.719-4.318c-0.516-0.599-0.382-1.49,0.289-1.927l3.076-2.003
			c0.23-0.15,0.503-0.23,0.783-0.23h3.472h4.8h5.795c0.734,0,1.46-0.541,1.396-1.238c-0.061-0.667,1.366-1.428,7.313-1.809
			c10.734-0.688,18.216-3.236,19.575-3.727c0.156-0.056,0.313-0.082,0.48-0.082h10.866c0.103,0,0.205-0.011,0.305-0.032l24.668-5.3
			l16.641-3.773c0.105-0.024,0.213-0.036,0.321-0.036h28.666c0.139,0,0.277-0.02,0.409-0.059l3.971-1.169l1.615-0.872l-0.417-1.375
			l-0.875-0.625l-1-0.678l-0.583-1.363l-0.583-0.5l-0.458-0.542l-0.875-1.068l0.393-0.128h2.375h17.798h19.426
			c0.228,0,0.451-0.053,0.652-0.155l5.704-2.892c0,0,8.42-3.809,14.02-4.57c5.088-0.692,22.066-3.271,25.125-3.736
			c0.312-0.048,0.624,0.009,0.898,0.158l5.07,2.759c0.07,0.038,0.137,0.083,0.2,0.132l4.448,3.529
			c0.17,0.135,0.371,0.229,0.587,0.275l13.923,2.946c0.099,0.021,0.2,0.032,0.301,0.032h4.634c0.057,0,0.105,0.002,0.163,0.009
			c0.723,0.086,6.406,0.753,8.651,0.753c2.4,0-3.2,20.567,15.2,19.043c18.399-1.523,12-1.523,18.399-1.523
			c5.888,0,19.223,0.645,21.32,0.748c0.191,0.009,0.368,0.056,0.539,0.137l6.975,3.32c0.47,0.224,0.766,0.681,0.766,1.181v3.21
			c0,0.349-0.145,0.683-0.403,0.931l14.803-2.671c0,0,8,0,13.6,0.762c5.6,0.762,28.593-3.809,28.593-3.809h16.672
			c0,0,24.334,3.809,37.934,3.809c13.6,0,36.8-1.143,36.8-1.143l-4.145,5.713h-8.275l-5.98,3.908H50.518"/>
	</g>
	<path fill="#877C44" d="M-31.28-32.774"/>
	<path fill="#877C44" d="M-31.28-32.774c-1.615-0.036-18.612-0.367-28.37,0.057l-20.033,0.422
		c-9.417,0.198-12.436,1.152-13.657,1.818v-1.93c1.222-0.666,4.241-1.398,13.657-1.597l20.033-0.422
		c9.758-0.424,26.754-0.092,28.37-0.057"/>
	<g>
		<path fill="#B4A359" d="M-99.054-8.529l-8.335-7.889c6.146-1.229,7.194-1.407,8.692-1.699c0.139-0.027,0.268-0.09,0.374-0.183
			l3.125-3.802l-0.081,0.087c0.073-0.064,0.036-0.001,0.081-0.087l1.11-2.089c0.027-0.05,0.048-0.104,0.063-0.158l1.218-4.317
			c0.089-0.318-0.017-0.667-0.284-0.86c-0.923-0.671-1.729-2.428,14.409-2.769l20.033-0.422c9.758-0.424,25.754-0.092,27.37-0.057
			l17.563,12.914c-0.268-0.137-21.613,3.362-26.575,3.995c-5.461,0.696-13.672,4.176-13.672,4.176l-5.562,2.642
			c-0.196,0.093-0.414,0.142-0.635,0.142l-9.91,0.323h-26.083L-99.054-8.529"/>
	</g>
	<path fill="#B4BCA7" d="M-93.339-32.558v-1.351l-0.628,0.978l-1.426,5.241l-4.011,5.742c0,0-10.975,2.038-17.688,3.38
		c-6.712,1.342,0,0-7.765-3.341c-7.764-3.34-6.108-3.372-14.752-6.108l-3.214-1.403l-1.544-0.503l-3.362-1.578l-3.106-2.208v2.074
		l3.106,2.208l3.362,1.579l1.544,0.503l3.214,1.403c8.645,2.736,6.988,2.768,14.752,6.108c7.765,3.34,1.052,4.683,7.765,3.34
		c6.712-1.342,17.688-3.38,17.688-3.38l4.622-7.607l1.444-2.7l0,0V-32.558z"/>
	<path fill="#404B2E" d="M-94.409-32.105"/>
	<path fill="#404B2E" d="M-95.088-25.899c0.027-0.05,0.048-0.104,0.063-0.158"/>
	<path fill="#877C44" d="M-92.925-29.378c0.267,0.194,0.373,0.542,0.283,0.86l-1.464,4.257c-0.016,0.055-0.037,0.108-0.064,0.158
		l-0.669,1.417c-0.045,0.086-0.106,0.163-0.18,0.228l-0.26,0.445l-3.125,3.802c-0.106,0.093-1.154,0.27-1.292,0.297
		c-1.498,0.292-1.545,0.27-7.692,1.499v-1.643c6.146-1.229,6.194-1.208,7.692-1.499c0.139-0.027,0.561-0.057,0.667-0.15l3.188-3.75
		l0.754-1.565l1.757-4.539"/>
	<path fill="#404B2E" d="M-93.331-29.915"/>
	<polygon opacity="0.25" fill="#556347" points="-83.835,74.163 -74.201,61.996 -46.405,55.731 -31.149,47.182 -18.797,41.191 
		-2.075,38.508 19.269,31.327 37.138,24.836 12.25,38.508 -24.393,48.154 -37.681,59.876 	"/>
	<polygon fill="#665D33" points="-31.28,-34.482 -31.28,-32.774 -13.717,-19.86 -13.717,-21.6 	"/>
	<polygon fill="#797358" points="-12.738,-19.499 -12.738,-21.124 -12.254,-21.222 -10.488,-19.86 	"/>
	<polygon fill="#5B5642" points="120.732,7.025 120.732,5.782 113.345,-1.343 112.939,-4.374 112.095,-3.499 113.251,2.72 	"/>
	<path fill="#9F9875" d="M79.345,9.001l2.333,0.833l3.167,1.167l2.75,1.167l1.75,0.917l1.167,1.083l0.433,2.624l14.435-2.394
		c0.045-0.007,0.088-0.011,0.134-0.011c0.771,0.002,8.03,0.038,13.195,0.696l2.024-8.057c-0.021-0.137-0.063-0.27-0.163-0.366
		l-7.178-6.854c-0.133-0.127-0.218-0.296-0.241-0.479l-0.384-3.023c-0.018-0.143,0.002-0.288,0.06-0.42l4.415-10.154
		c4.502-10.357-6.292-18.309-6.292-18.309s-7.607-5.345-7.62-5.412c-0.011-0.064-40.355,4.511-43.862,4.908
		c-0.159,0.018-0.318-0.012-0.46-0.087l-9.926-5.207c-0.08-0.042-0.166-0.07-0.255-0.083l-8.155-1.205
		c-0.051-0.007-0.102-0.01-0.153-0.008c-1.866,0.087-37.491,1.747-40.279,1.681c-2.682-0.063-13.985-0.627-15.404-0.699
		c-0.097-0.005-0.194,0.008-0.287,0.038l-13.327,4.68l18.292,14.112l-2.25,0.361l5.5,3.083l4.5,3.333l14.167,3.167l5.333,0.083
		l9.583,1.304l1.667,9.78l2,4.833l2.5,2.25l4.083,1.417l5.833-0.25l10.25-1.167l2.917-0.083L79.345,9.001z"/>
</symbol>
<use xlink:href="#viability"  width="473.297" height="152.536" x="-236.648" y="-76.268" transform="matrix(1.0564 0 0 -1.0564 252.8066 82.7319)" overflow="visible"/>
</svg>
