<?xml version="1.0" encoding="utf-8"?>
<!-- Generator: Adobe Illustrator 15.0.0, SVG Export Plug-In . SVG Version: 6.00 Build 0)  -->
<!DOCTYPE svg PUBLIC "-//W3C//DTD SVG 1.1//EN" "http://www.w3.org/Graphics/SVG/1.1/DTD/svg11.dtd">
<svg version="1.1" id="Слой_1" xmlns="http://www.w3.org/2000/svg" xmlns:xlink="http://www.w3.org/1999/xlink" x="0px" y="0px"
	 width="615px" height="355px" viewBox="0 0 615 355" enable-background="new 0 0 615 355" xml:space="preserve">
<symbol  id="biogaschart" viewBox="-306.461 -175.301 613.885 350.537">
	<text transform="matrix(1 0 0 -1 -123.5396 -140.0508)" fill="#565756" font-family="'PTSans-Regular'" font-size="13">0</text>
	<text transform="matrix(1 0 0 -1 278.1484 -140.0508)" fill="#565756" font-family="'PTSans-Regular'" font-size="13">1500</text>
	<polygon fill="#C5CCB8" points="292.46,-122.508 -129.539,-122.508 -129.539,175.236 292.46,175.236 	"/>
	<text transform="matrix(1 0 0 -1 47.5034 -172.0508)" fill="#565756" font-family="'PTSans-Regular'" font-size="13">Hectares </text>
	<text transform="matrix(1 0 0 -1 195.6152 -140.0508)" fill="#565756" font-family="'PTSans-Regular'" font-size="13">1200</text>
	<text transform="matrix(1 0 0 -1 113.082 -140.0508)" fill="#565756" font-family="'PTSans-Regular'" font-size="13">9000</text>
	<text transform="matrix(1 0 0 -1 30.5488 -140.0508)" fill="#565756" font-family="'PTSans-Regular'" font-size="13">6000</text>
	<text transform="matrix(1 0 0 -1 -51.9844 -140.0508)" fill="#565756" font-family="'PTSans-Regular'" font-size="13">3000</text>
	<text transform="matrix(1 0 0 -1 -267.4736 -108.7891)" fill="#2980BA" font-family="'PTSans-Regular'" font-size="13">Bowen Island</text>
	<g>
		<g>
			<polygon fill="#E64C3C" points="-120.447,120.425 79.553,120.425 79.553,110.425 -120.447,110.425 			"/>
		</g>
		<text transform="matrix(1 0 0 -1 -210.7178 111.4922)" fill="#E64C3C" font-family="'PTSans-Regular'" font-size="13">delta</text>
	</g>
	<g>
		<g>
			<polygon fill="#E57E25" points="-120.447,169.377 280.559,169.377 280.559,159.377 -120.447,159.377 			"/>
		</g>
		<text transform="matrix(1 0 0 -1 -306.6172 160.4453)" fill="#E57E25" font-family="'PTSans-Regular'" font-size="13">langley (township)</text>
	</g>
	<g>
		<g>
			<polygon fill="#D25627" points="-120.447,46.998 -69.592,46.998 -69.592,36.998 -120.447,36.998 			"/>
		</g>
		<text transform="matrix(1 0 0 -1 -255.5146 38.0664)" fill="#D25627" font-family="'PTSans-Regular'" font-size="13">Maple Ridge</text>
	</g>
	<text transform="matrix(1 0 0 -1 -292.5049 -84.3145)" fill="#D25627" font-family="'PTSans-Regular'" font-size="13">New Westminster</text>
	<g>
		<g>
			<polygon fill="#9778B5" points="-120.447,95.555 20.525,95.555 20.525,85.555 -120.447,85.555 			"/>
		</g>
		<text transform="matrix(1 0 0 -1 -267.3896 87.0156)" fill="#9778B5" font-family="'PTSans-Regular'" font-size="13">pitt meadows</text>
	</g>
	<g>
		<g>
			<polygon fill="#C03A2B" points="-120.447,-1.954 -104.945,-1.954 -104.945,-11.954 -120.447,-11.954 			"/>
		</g>
		<g>
			<text transform="matrix(1 0 0 -1 -282.8203 -10.8867)" fill="#C03A2B" font-family="'PTSans-Regular'" font-size="13">Port Coquitlam</text>
		</g>
	</g>
	<g>
		<g>
			<polygon fill="#14A085" points="-120.447,71.473 3.474,71.473 3.474,61.473 -120.447,61.473 			"/>
		</g>
		<g>
			<text transform="matrix(1 0 0 -1 -241.2725 62.5391)" fill="#14A085" font-family="'PTSans-Regular'" font-size="13">Richmond</text>
		</g>
	</g>
	<g>
		<g>
			<polygon fill="#2980BA" points="-120.447,144.901 127.394,144.901 127.394,134.901 -120.447,134.901 			"/>
		</g>
		<g>
			<text transform="matrix(1 0 0 -1 -220.0439 135.9688)" fill="#2980BA" font-family="'PTSans-Regular'" font-size="13">Surrey</text>
		</g>
	</g>
	<g>
		<g>
			<text transform="matrix(1 0 0 -1 -248.0068 -59.8398)" fill="#26B99A" font-family="'PTSans-Regular'" font-size="13">Vancouver</text>
		</g>
	</g>
	<g>
		<text transform="matrix(1 0 0 -1 -247.0059 13.5898)" fill="#3B97D3" font-family="'PTSans-Regular'" font-size="13">Coquitlam</text>
		<g>
			<polygon fill="#3B97D3" points="-120.447,22.521 -100.021,22.521 -100.021,12.521 -120.447,12.521 			"/>
		</g>
	</g>
	<g>
		<text transform="matrix(1 0 0 -1 -231.0615 -35.3633)" fill="#894B9D" font-family="'PTSans-Regular'" font-size="13">Burnaby</text>
		<g>
			<polygon fill="#894B9D" points="-120.447,-26.431 -115.021,-26.431 -115.021,-36.431 -120.447,-36.431 			"/>
		</g>
	</g>
</symbol>
<use xlink:href="#biogaschart"  width="613.885" height="350.537" x="-306.461" y="-175.301" transform="matrix(1 0 0 -1 307.0186 176.8848)" overflow="visible"/>
</svg>
