<?xml version="1.0" encoding="utf-8"?>
<!-- Generator: Adobe Illustrator 16.0.0, SVG Export Plug-In . SVG Version: 6.00 Build 0)  -->
<!DOCTYPE svg PUBLIC "-//W3C//DTD SVG 1.1//EN" "http://www.w3.org/Graphics/SVG/1.1/DTD/svg11.dtd">
<svg version="1.1" id="Layer_1" xmlns="http://www.w3.org/2000/svg" xmlns:xlink="http://www.w3.org/1999/xlink" x="0px" y="0px"
	 width="1131px" height="600.123px" viewBox="0 0 1131 600.123" enable-background="new 0 0 1131 600.123" xml:space="preserve">
<pattern  x="-394" y="840.562" width="144" height="150" patternUnits="userSpaceOnUse" id="SVGID_26_" viewBox="0 -150 144 150" overflow="visible">
	<g>
		<polygon fill="none" points="0,0 144,0 144,-150 0,-150 		"/>
		<g>
			<polygon fill="none" points="0,0 144,0 144,-150 0,-150 			"/>
			<g>
				<line fill="none" stroke="#2980BA" stroke-width="2" stroke-miterlimit="10" x1="122" y1="0" x2="122" y2="-150"/>
				<line fill="none" stroke="#2980BA" stroke-width="2" stroke-miterlimit="10" x1="126" y1="0" x2="126" y2="-150"/>
				<line fill="none" stroke="#2980BA" stroke-width="2" stroke-miterlimit="10" x1="130" y1="0" x2="130" y2="-150"/>
				<line fill="none" stroke="#2980BA" stroke-width="2" stroke-miterlimit="10" x1="134" y1="0" x2="134" y2="-150"/>
				<line fill="none" stroke="#2980BA" stroke-width="2" stroke-miterlimit="10" x1="138" y1="0" x2="138" y2="-150"/>
				<line fill="none" stroke="#2980BA" stroke-width="2" stroke-miterlimit="10" x1="142" y1="0" x2="142" y2="-150"/>
			</g>
			<g>
				<line fill="none" stroke="#2980BA" stroke-width="2" stroke-miterlimit="10" x1="74" y1="0" x2="74" y2="-150"/>
				<line fill="none" stroke="#2980BA" stroke-width="2" stroke-miterlimit="10" x1="78" y1="0" x2="78" y2="-150"/>
				<line fill="none" stroke="#2980BA" stroke-width="2" stroke-miterlimit="10" x1="82" y1="0" x2="82" y2="-150"/>
				<line fill="none" stroke="#2980BA" stroke-width="2" stroke-miterlimit="10" x1="86" y1="0" x2="86" y2="-150"/>
				<line fill="none" stroke="#2980BA" stroke-width="2" stroke-miterlimit="10" x1="90" y1="0" x2="90" y2="-150"/>
				<line fill="none" stroke="#2980BA" stroke-width="2" stroke-miterlimit="10" x1="94" y1="0" x2="94" y2="-150"/>
				<line fill="none" stroke="#2980BA" stroke-width="2" stroke-miterlimit="10" x1="98" y1="0" x2="98" y2="-150"/>
				<line fill="none" stroke="#2980BA" stroke-width="2" stroke-miterlimit="10" x1="102" y1="0" x2="102" y2="-150"/>
				<line fill="none" stroke="#2980BA" stroke-width="2" stroke-miterlimit="10" x1="106" y1="0" x2="106" y2="-150"/>
				<line fill="none" stroke="#2980BA" stroke-width="2" stroke-miterlimit="10" x1="110" y1="0" x2="110" y2="-150"/>
				<line fill="none" stroke="#2980BA" stroke-width="2" stroke-miterlimit="10" x1="114" y1="0" x2="114" y2="-150"/>
				<line fill="none" stroke="#2980BA" stroke-width="2" stroke-miterlimit="10" x1="118" y1="0" x2="118" y2="-150"/>
				<line fill="none" stroke="#2980BA" stroke-width="2" stroke-miterlimit="10" x1="122" y1="0" x2="122" y2="-150"/>
				<line fill="none" stroke="#2980BA" stroke-width="2" stroke-miterlimit="10" x1="126" y1="0" x2="126" y2="-150"/>
				<line fill="none" stroke="#2980BA" stroke-width="2" stroke-miterlimit="10" x1="130" y1="0" x2="130" y2="-150"/>
				<line fill="none" stroke="#2980BA" stroke-width="2" stroke-miterlimit="10" x1="134" y1="0" x2="134" y2="-150"/>
				<line fill="none" stroke="#2980BA" stroke-width="2" stroke-miterlimit="10" x1="138" y1="0" x2="138" y2="-150"/>
				<line fill="none" stroke="#2980BA" stroke-width="2" stroke-miterlimit="10" x1="142" y1="0" x2="142" y2="-150"/>
			</g>
			<g>
				<line fill="none" stroke="#2980BA" stroke-width="2" stroke-miterlimit="10" x1="26" y1="0" x2="26" y2="-150"/>
				<line fill="none" stroke="#2980BA" stroke-width="2" stroke-miterlimit="10" x1="30" y1="0" x2="30" y2="-150"/>
				<line fill="none" stroke="#2980BA" stroke-width="2" stroke-miterlimit="10" x1="34" y1="0" x2="34" y2="-150"/>
				<line fill="none" stroke="#2980BA" stroke-width="2" stroke-miterlimit="10" x1="38" y1="0" x2="38" y2="-150"/>
				<line fill="none" stroke="#2980BA" stroke-width="2" stroke-miterlimit="10" x1="42" y1="0" x2="42" y2="-150"/>
				<line fill="none" stroke="#2980BA" stroke-width="2" stroke-miterlimit="10" x1="46" y1="0" x2="46" y2="-150"/>
				<line fill="none" stroke="#2980BA" stroke-width="2" stroke-miterlimit="10" x1="50" y1="0" x2="50" y2="-150"/>
				<line fill="none" stroke="#2980BA" stroke-width="2" stroke-miterlimit="10" x1="54" y1="0" x2="54" y2="-150"/>
				<line fill="none" stroke="#2980BA" stroke-width="2" stroke-miterlimit="10" x1="58" y1="0" x2="58" y2="-150"/>
				<line fill="none" stroke="#2980BA" stroke-width="2" stroke-miterlimit="10" x1="62" y1="0" x2="62" y2="-150"/>
				<line fill="none" stroke="#2980BA" stroke-width="2" stroke-miterlimit="10" x1="66" y1="0" x2="66" y2="-150"/>
				<line fill="none" stroke="#2980BA" stroke-width="2" stroke-miterlimit="10" x1="70" y1="0" x2="70" y2="-150"/>
				<line fill="none" stroke="#2980BA" stroke-width="2" stroke-miterlimit="10" x1="74" y1="0" x2="74" y2="-150"/>
				<line fill="none" stroke="#2980BA" stroke-width="2" stroke-miterlimit="10" x1="78" y1="0" x2="78" y2="-150"/>
				<line fill="none" stroke="#2980BA" stroke-width="2" stroke-miterlimit="10" x1="82" y1="0" x2="82" y2="-150"/>
				<line fill="none" stroke="#2980BA" stroke-width="2" stroke-miterlimit="10" x1="86" y1="0" x2="86" y2="-150"/>
				<line fill="none" stroke="#2980BA" stroke-width="2" stroke-miterlimit="10" x1="90" y1="0" x2="90" y2="-150"/>
				<line fill="none" stroke="#2980BA" stroke-width="2" stroke-miterlimit="10" x1="94" y1="0" x2="94" y2="-150"/>
				<line fill="none" stroke="#2980BA" stroke-width="2" stroke-miterlimit="10" x1="98" y1="0" x2="98" y2="-150"/>
				<line fill="none" stroke="#2980BA" stroke-width="2" stroke-miterlimit="10" x1="102" y1="0" x2="102" y2="-150"/>
				<line fill="none" stroke="#2980BA" stroke-width="2" stroke-miterlimit="10" x1="106" y1="0" x2="106" y2="-150"/>
				<line fill="none" stroke="#2980BA" stroke-width="2" stroke-miterlimit="10" x1="110" y1="0" x2="110" y2="-150"/>
				<line fill="none" stroke="#2980BA" stroke-width="2" stroke-miterlimit="10" x1="114" y1="0" x2="114" y2="-150"/>
				<line fill="none" stroke="#2980BA" stroke-width="2" stroke-miterlimit="10" x1="118" y1="0" x2="118" y2="-150"/>
			</g>
			<g>
				<line fill="none" stroke="#2980BA" stroke-width="2" stroke-miterlimit="10" x1="2" y1="0" x2="2" y2="-150"/>
				<line fill="none" stroke="#2980BA" stroke-width="2" stroke-miterlimit="10" x1="6" y1="0" x2="6" y2="-150"/>
				<line fill="none" stroke="#2980BA" stroke-width="2" stroke-miterlimit="10" x1="10" y1="0" x2="10" y2="-150"/>
				<line fill="none" stroke="#2980BA" stroke-width="2" stroke-miterlimit="10" x1="14" y1="0" x2="14" y2="-150"/>
				<line fill="none" stroke="#2980BA" stroke-width="2" stroke-miterlimit="10" x1="18" y1="0" x2="18" y2="-150"/>
				<line fill="none" stroke="#2980BA" stroke-width="2" stroke-miterlimit="10" x1="22" y1="0" x2="22" y2="-150"/>
				<line fill="none" stroke="#2980BA" stroke-width="2" stroke-miterlimit="10" x1="26" y1="0" x2="26" y2="-150"/>
				<line fill="none" stroke="#2980BA" stroke-width="2" stroke-miterlimit="10" x1="30" y1="0" x2="30" y2="-150"/>
				<line fill="none" stroke="#2980BA" stroke-width="2" stroke-miterlimit="10" x1="34" y1="0" x2="34" y2="-150"/>
				<line fill="none" stroke="#2980BA" stroke-width="2" stroke-miterlimit="10" x1="38" y1="0" x2="38" y2="-150"/>
				<line fill="none" stroke="#2980BA" stroke-width="2" stroke-miterlimit="10" x1="42" y1="0" x2="42" y2="-150"/>
				<line fill="none" stroke="#2980BA" stroke-width="2" stroke-miterlimit="10" x1="46" y1="0" x2="46" y2="-150"/>
				<line fill="none" stroke="#2980BA" stroke-width="2" stroke-miterlimit="10" x1="50" y1="0" x2="50" y2="-150"/>
				<line fill="none" stroke="#2980BA" stroke-width="2" stroke-miterlimit="10" x1="54" y1="0" x2="54" y2="-150"/>
				<line fill="none" stroke="#2980BA" stroke-width="2" stroke-miterlimit="10" x1="58" y1="0" x2="58" y2="-150"/>
				<line fill="none" stroke="#2980BA" stroke-width="2" stroke-miterlimit="10" x1="62" y1="0" x2="62" y2="-150"/>
				<line fill="none" stroke="#2980BA" stroke-width="2" stroke-miterlimit="10" x1="66" y1="0" x2="66" y2="-150"/>
				<line fill="none" stroke="#2980BA" stroke-width="2" stroke-miterlimit="10" x1="70" y1="0" x2="70" y2="-150"/>
			</g>
			<g>
				<line fill="none" stroke="#2980BA" stroke-width="2" stroke-miterlimit="10" x1="2" y1="0" x2="2" y2="-150"/>
				<line fill="none" stroke="#2980BA" stroke-width="2" stroke-miterlimit="10" x1="6" y1="0" x2="6" y2="-150"/>
				<line fill="none" stroke="#2980BA" stroke-width="2" stroke-miterlimit="10" x1="10" y1="0" x2="10" y2="-150"/>
				<line fill="none" stroke="#2980BA" stroke-width="2" stroke-miterlimit="10" x1="14" y1="0" x2="14" y2="-150"/>
				<line fill="none" stroke="#2980BA" stroke-width="2" stroke-miterlimit="10" x1="18" y1="0" x2="18" y2="-150"/>
				<line fill="none" stroke="#2980BA" stroke-width="2" stroke-miterlimit="10" x1="22" y1="0" x2="22" y2="-150"/>
			</g>
		</g>
	</g>
</pattern>
<g id="background">
</g>
<g>
	<polygon opacity="0.97" fill="#2980BA" enable-background="new    " points="0.259,300 703.438,300 829.259,149.287 829.259,0 
		0.259,0 	"/>
	<rect x="681" fill="#2980BA" width="150" height="150"/>
	<rect x="682" y="150" fill="#2980BA" width="150" height="150"/>
	<rect x="982" y="150" fill="#2980BA" width="150" height="150"/>
	<rect x="832" y="150" opacity="0.99" fill="#2980BA" enable-background="new    " width="150" height="150"/>
	<polyline opacity="0.8" fill="#2980BA" enable-background="new    " points="828.92,150.438 978.924,0.438 829.914,0.438 	"/>
	<rect x="0.259" y="150" opacity="0.96" fill="#2980BA" enable-background="new    " width="701.963" height="150"/>
	<line fill="none" x1="681.914" y1="300.438" x2="681.914" y2="150.438"/>
	<line fill="none" x1="686.914" y1="300.438" x2="686.914" y2="150.438"/>
	<line fill="none" x1="691.914" y1="300.438" x2="691.914" y2="150.438"/>
	<line fill="none" x1="696.914" y1="300.438" x2="696.914" y2="150.438"/>
	<line fill="none" x1="701.914" y1="300.438" x2="701.914" y2="150.438"/>
	<line fill="none" x1="706.914" y1="300.438" x2="706.914" y2="150.438"/>
	<line fill="none" x1="711.914" y1="300.438" x2="711.914" y2="150.438"/>
	<line fill="none" x1="716.914" y1="300.438" x2="716.914" y2="150.438"/>
	<line fill="none" x1="721.914" y1="300.438" x2="721.914" y2="150.438"/>
	<line fill="none" x1="726.914" y1="300.438" x2="726.914" y2="150.438"/>
	<line fill="none" x1="731.914" y1="300.438" x2="731.914" y2="150.438"/>
	<line fill="none" x1="736.914" y1="300.438" x2="736.914" y2="150.438"/>
	<line fill="none" x1="741.914" y1="300.438" x2="741.914" y2="150.438"/>
	<line fill="none" x1="746.914" y1="300.438" x2="746.914" y2="150.438"/>
	<line fill="none" x1="751.914" y1="300.438" x2="751.914" y2="150.438"/>
	<line fill="none" x1="756.914" y1="300.438" x2="756.914" y2="150.438"/>
	<line fill="none" x1="761.914" y1="300.438" x2="761.914" y2="150.438"/>
	<line fill="none" x1="766.914" y1="300.438" x2="766.914" y2="150.438"/>
	<line fill="none" x1="776.914" y1="300.438" x2="776.914" y2="150.438"/>
	<line fill="none" x1="796.914" y1="300.438" x2="796.914" y2="150.438"/>
	<line fill="none" x1="801.914" y1="300.438" x2="801.914" y2="150.438"/>
	<line fill="none" x1="811.914" y1="300.438" x2="811.914" y2="150.438"/>
	<line fill="none" x1="816.914" y1="300.438" x2="816.914" y2="150.438"/>
	<line fill="none" x1="821.914" y1="300.438" x2="821.914" y2="150.438"/>
	<line fill="none" x1="831.914" y1="300.438" x2="831.914" y2="150.438"/>
	<rect x="829.914" opacity="0.97" fill="#2980BA" enable-background="new    " width="301" height="299.438"/>
	<pattern  id="SVGID_1_" xlink:href="#SVGID_26_" patternTransform="matrix(1 0 0 -1 5527.3926 -18862.1641)">
	</pattern>
	<polyline opacity="0.1" fill="url(#SVGID_1_)" enable-background="new    " points="446.914,150.438 446.914,0.438 596.914,0.438 	
		"/>
	<polyline opacity="0.05" fill="#3B97D3" enable-background="new    " points="447.153,149.438 297.393,299.438 445.914,299.438 	
		"/>
	<polyline opacity="0.03" fill="#3B97D3" enable-background="new    " points="301.153,150.438 151.393,300.438 299.914,300.438 	
		"/>
	<g opacity="0.7">
		<polyline opacity="0.4" fill="#3B97D3" enable-background="new    " points="150,3.215 0,153.429 0,4 		"/>
	</g>
</g>
</svg>
