<?xml version="1.0" encoding="utf-8"?>
<!-- Generator: Adobe Illustrator 16.0.0, SVG Export Plug-In . SVG Version: 6.00 Build 0)  -->
<!DOCTYPE svg PUBLIC "-//W3C//DTD SVG 1.1//EN" "http://www.w3.org/Graphics/SVG/1.1/DTD/svg11.dtd">
<svg version="1.1" id="Layer_1" xmlns="http://www.w3.org/2000/svg" xmlns:xlink="http://www.w3.org/1999/xlink" x="0px" y="0px"
	 width="1131px" height="598.82px" viewBox="0 0 1131 598.82" enable-background="new 0 0 1131 598.82" xml:space="preserve">
<pattern  x="-394" y="839.91" width="144" height="150" patternUnits="userSpaceOnUse" id="SVGID_1_" viewBox="0 -150 144 150" overflow="visible">
	<g>
		<polygon fill="none" points="0,0 144,0 144,-150 0,-150 		"/>
		<g>
			<polygon fill="none" points="0,-150 144,-150 144,0 0,0 			"/>
			<g>
				<polygon fill="none" points="0,-150 144,-150 144,0 0,0 				"/>
				<g>
					<line fill="none" stroke="#26B99A" stroke-width="2" stroke-miterlimit="10" x1="122" y1="-150" x2="122" y2="0"/>
					<line fill="none" stroke="#E64C3C" stroke-width="2" stroke-miterlimit="10" x1="126" y1="-150" x2="126" y2="0"/>
					<line fill="none" stroke="#E64C3C" stroke-width="2" stroke-miterlimit="10" x1="130" y1="-150" x2="130" y2="0"/>
					<line fill="none" stroke="#E64C3C" stroke-width="2" stroke-miterlimit="10" x1="134" y1="-150" x2="134" y2="0"/>
					<line fill="none" stroke="#E64C3C" stroke-width="2" stroke-miterlimit="10" x1="138" y1="-150" x2="138" y2="0"/>
					<line fill="none" stroke="#E64C3C" stroke-width="2" stroke-miterlimit="10" x1="142" y1="-150" x2="142" y2="0"/>
				</g>
				<g>
					<line fill="none" stroke="#26B99A" stroke-width="2" stroke-miterlimit="10" x1="74" y1="-150" x2="74" y2="0"/>
					<line fill="none" stroke="#E64C3C" stroke-width="2" stroke-miterlimit="10" x1="78" y1="-150" x2="78" y2="0"/>
					<line fill="none" stroke="#E64C3C" stroke-width="2" stroke-miterlimit="10" x1="82" y1="-150" x2="82" y2="0"/>
					<line fill="none" stroke="#E64C3C" stroke-width="2" stroke-miterlimit="10" x1="86" y1="-150" x2="86" y2="0"/>
					<line fill="none" stroke="#E64C3C" stroke-width="2" stroke-miterlimit="10" x1="90" y1="-150" x2="90" y2="0"/>
					<line fill="none" stroke="#E64C3C" stroke-width="2" stroke-miterlimit="10" x1="94" y1="-150" x2="94" y2="0"/>
					<line fill="none" stroke="#E64C3C" stroke-width="2" stroke-miterlimit="10" x1="98" y1="-150" x2="98" y2="0"/>
					<line fill="none" stroke="#E64C3C" stroke-width="2" stroke-miterlimit="10" x1="102" y1="-150" x2="102" y2="0"/>
					<line fill="none" stroke="#E64C3C" stroke-width="2" stroke-miterlimit="10" x1="106" y1="-150" x2="106" y2="0"/>
					<line fill="none" stroke="#E64C3C" stroke-width="2" stroke-miterlimit="10" x1="110" y1="-150" x2="110" y2="0"/>
					<line fill="none" stroke="#E64C3C" stroke-width="2" stroke-miterlimit="10" x1="114" y1="-150" x2="114" y2="0"/>
					<line fill="none" stroke="#E64C3C" stroke-width="2" stroke-miterlimit="10" x1="118" y1="-150" x2="118" y2="0"/>
					<line fill="none" stroke="#E64C3C" stroke-width="2" stroke-miterlimit="10" x1="122" y1="-150" x2="122" y2="0"/>
					<line fill="none" stroke="#E64C3C" stroke-width="2" stroke-miterlimit="10" x1="126" y1="-150" x2="126" y2="0"/>
					<line fill="none" stroke="#E64C3C" stroke-width="2" stroke-miterlimit="10" x1="130" y1="-150" x2="130" y2="0"/>
					<line fill="none" stroke="#E64C3C" stroke-width="2" stroke-miterlimit="10" x1="134" y1="-150" x2="134" y2="0"/>
					<line fill="none" stroke="#E64C3C" stroke-width="2" stroke-miterlimit="10" x1="138" y1="-150" x2="138" y2="0"/>
					<line fill="none" stroke="#E64C3C" stroke-width="2" stroke-miterlimit="10" x1="142" y1="-150" x2="142" y2="0"/>
				</g>
				<g>
					<line fill="none" stroke="#26B99A" stroke-width="2" stroke-miterlimit="10" x1="26" y1="-150" x2="26" y2="0"/>
					<line fill="none" stroke="#E64C3C" stroke-width="2" stroke-miterlimit="10" x1="30" y1="-150" x2="30" y2="0"/>
					<line fill="none" stroke="#E64C3C" stroke-width="2" stroke-miterlimit="10" x1="34" y1="-150" x2="34" y2="0"/>
					<line fill="none" stroke="#E64C3C" stroke-width="2" stroke-miterlimit="10" x1="38" y1="-150" x2="38" y2="0"/>
					<line fill="none" stroke="#E64C3C" stroke-width="2" stroke-miterlimit="10" x1="42" y1="-150" x2="42" y2="0"/>
					<line fill="none" stroke="#E64C3C" stroke-width="2" stroke-miterlimit="10" x1="46" y1="-150" x2="46" y2="0"/>
					<line fill="none" stroke="#E64C3C" stroke-width="2" stroke-miterlimit="10" x1="50" y1="-150" x2="50" y2="0"/>
					<line fill="none" stroke="#E64C3C" stroke-width="2" stroke-miterlimit="10" x1="54" y1="-150" x2="54" y2="0"/>
					<line fill="none" stroke="#E64C3C" stroke-width="2" stroke-miterlimit="10" x1="58" y1="-150" x2="58" y2="0"/>
					<line fill="none" stroke="#E64C3C" stroke-width="2" stroke-miterlimit="10" x1="62" y1="-150" x2="62" y2="0"/>
					<line fill="none" stroke="#E64C3C" stroke-width="2" stroke-miterlimit="10" x1="66" y1="-150" x2="66" y2="0"/>
					<line fill="none" stroke="#E64C3C" stroke-width="2" stroke-miterlimit="10" x1="70" y1="-150" x2="70" y2="0"/>
					<line fill="none" stroke="#E64C3C" stroke-width="2" stroke-miterlimit="10" x1="74" y1="-150" x2="74" y2="0"/>
					<line fill="none" stroke="#E64C3C" stroke-width="2" stroke-miterlimit="10" x1="78" y1="-150" x2="78" y2="0"/>
					<line fill="none" stroke="#E64C3C" stroke-width="2" stroke-miterlimit="10" x1="82" y1="-150" x2="82" y2="0"/>
					<line fill="none" stroke="#E64C3C" stroke-width="2" stroke-miterlimit="10" x1="86" y1="-150" x2="86" y2="0"/>
					<line fill="none" stroke="#E64C3C" stroke-width="2" stroke-miterlimit="10" x1="90" y1="-150" x2="90" y2="0"/>
					<line fill="none" stroke="#E64C3C" stroke-width="2" stroke-miterlimit="10" x1="94" y1="-150" x2="94" y2="0"/>
					<line fill="none" stroke="#E64C3C" stroke-width="2" stroke-miterlimit="10" x1="98" y1="-150" x2="98" y2="0"/>
					<line fill="none" stroke="#E64C3C" stroke-width="2" stroke-miterlimit="10" x1="102" y1="-150" x2="102" y2="0"/>
					<line fill="none" stroke="#E64C3C" stroke-width="2" stroke-miterlimit="10" x1="106" y1="-150" x2="106" y2="0"/>
					<line fill="none" stroke="#E64C3C" stroke-width="2" stroke-miterlimit="10" x1="110" y1="-150" x2="110" y2="0"/>
					<line fill="none" stroke="#E64C3C" stroke-width="2" stroke-miterlimit="10" x1="114" y1="-150" x2="114" y2="0"/>
					<line fill="none" stroke="#E64C3C" stroke-width="2" stroke-miterlimit="10" x1="118" y1="-150" x2="118" y2="0"/>
				</g>
				<g>
					<line fill="none" stroke="#E64C3C" stroke-width="2" stroke-miterlimit="10" x1="2" y1="-150" x2="2" y2="0"/>
					<line fill="none" stroke="#E64C3C" stroke-width="2" stroke-miterlimit="10" x1="6" y1="-150" x2="6" y2="0"/>
					<line fill="none" stroke="#E64C3C" stroke-width="2" stroke-miterlimit="10" x1="10" y1="-150" x2="10" y2="0"/>
					<line fill="none" stroke="#E64C3C" stroke-width="2" stroke-miterlimit="10" x1="14" y1="-150" x2="14" y2="0"/>
					<line fill="none" stroke="#E64C3C" stroke-width="2" stroke-miterlimit="10" x1="18" y1="-150" x2="18" y2="0"/>
					<line fill="none" stroke="#E64C3C" stroke-width="2" stroke-miterlimit="10" x1="22" y1="-150" x2="22" y2="0"/>
					<line fill="none" stroke="#E64C3C" stroke-width="2" stroke-miterlimit="10" x1="26" y1="-150" x2="26" y2="0"/>
					<line fill="none" stroke="#E64C3C" stroke-width="2" stroke-miterlimit="10" x1="30" y1="-150" x2="30" y2="0"/>
					<line fill="none" stroke="#E64C3C" stroke-width="2" stroke-miterlimit="10" x1="34" y1="-150" x2="34" y2="0"/>
					<line fill="none" stroke="#E64C3C" stroke-width="2" stroke-miterlimit="10" x1="38" y1="-150" x2="38" y2="0"/>
					<line fill="none" stroke="#E64C3C" stroke-width="2" stroke-miterlimit="10" x1="42" y1="-150" x2="42" y2="0"/>
					<line fill="none" stroke="#E64C3C" stroke-width="2" stroke-miterlimit="10" x1="46" y1="-150" x2="46" y2="0"/>
					<line fill="none" stroke="#E64C3C" stroke-width="2" stroke-miterlimit="10" x1="50" y1="-150" x2="50" y2="0"/>
					<line fill="none" stroke="#E64C3C" stroke-width="2" stroke-miterlimit="10" x1="54" y1="-150" x2="54" y2="0"/>
					<line fill="none" stroke="#E64C3C" stroke-width="2" stroke-miterlimit="10" x1="58" y1="-150" x2="58" y2="0"/>
					<line fill="none" stroke="#E64C3C" stroke-width="2" stroke-miterlimit="10" x1="62" y1="-150" x2="62" y2="0"/>
					<line fill="none" stroke="#E64C3C" stroke-width="2" stroke-miterlimit="10" x1="66" y1="-150" x2="66" y2="0"/>
					<line fill="none" stroke="#E64C3C" stroke-width="2" stroke-miterlimit="10" x1="70" y1="-150" x2="70" y2="0"/>
				</g>
				<g>
					<line fill="none" stroke="#E64C3C" stroke-width="2" stroke-miterlimit="10" x1="2" y1="-150" x2="2" y2="0"/>
					<line fill="none" stroke="#E64C3C" stroke-width="2" stroke-miterlimit="10" x1="6" y1="-150" x2="6" y2="0"/>
					<line fill="none" stroke="#E64C3C" stroke-width="2" stroke-miterlimit="10" x1="10" y1="-150" x2="10" y2="0"/>
					<line fill="none" stroke="#E64C3C" stroke-width="2" stroke-miterlimit="10" x1="14" y1="-150" x2="14" y2="0"/>
					<line fill="none" stroke="#E64C3C" stroke-width="2" stroke-miterlimit="10" x1="18" y1="-150" x2="18" y2="0"/>
					<line fill="none" stroke="#E64C3C" stroke-width="2" stroke-miterlimit="10" x1="22" y1="-150" x2="22" y2="0"/>
				</g>
			</g>
		</g>
	</g>
</pattern>
<g id="background">
</g>
<g id="Layer_1_1_">
	<g>
		<polygon opacity="0.97" fill="#C03A2B" enable-background="new    " points="0.249,298.45 703.428,298.45 829.249,149.228 
			829.249,-0.06 0.249,-0.06 		"/>
		<rect x="681" y="-0.181" fill="#C03A2B" width="150" height="150"/>
		<rect x="682" y="149.819" fill="#C03A2B" width="150" height="150"/>
		<rect x="982" y="151.54" fill="#C03A2B" width="149" height="148.279"/>
		<rect x="832" y="149.819" opacity="0.99" fill="#C03A2B" enable-background="new    " width="150" height="150"/>
		<polyline opacity="0.8" fill="#C03A2B" enable-background="new    " points="829.4,149.94 979.404,-0.06 830.395,-0.06 		"/>
		<rect x="0.249" y="149.45" opacity="0.96" fill="#C03A2B" enable-background="new    " width="701.963" height="150"/>
		<line fill="none" x1="682.395" y1="299.45" x2="682.395" y2="149.45"/>
		<line fill="none" x1="687.395" y1="299.45" x2="687.395" y2="149.45"/>
		<line fill="none" x1="692.395" y1="299.45" x2="692.395" y2="149.45"/>
		<line fill="none" x1="697.395" y1="299.45" x2="697.395" y2="149.45"/>
		<line fill="none" x1="702.395" y1="299.45" x2="702.395" y2="149.45"/>
		<line fill="none" x1="707.395" y1="299.45" x2="707.395" y2="149.45"/>
		<line fill="none" x1="712.395" y1="299.45" x2="712.395" y2="149.45"/>
		<line fill="none" x1="717.395" y1="299.45" x2="717.395" y2="149.45"/>
		<line fill="none" x1="722.395" y1="299.45" x2="722.395" y2="149.45"/>
		<line fill="none" x1="727.395" y1="299.45" x2="727.395" y2="149.45"/>
		<line fill="none" x1="732.395" y1="299.45" x2="732.395" y2="149.45"/>
		<line fill="none" x1="737.395" y1="299.45" x2="737.395" y2="149.45"/>
		<line fill="none" x1="742.395" y1="299.45" x2="742.395" y2="149.45"/>
		<line fill="none" x1="747.395" y1="299.45" x2="747.395" y2="149.45"/>
		<line fill="none" x1="752.395" y1="299.45" x2="752.395" y2="149.45"/>
		<line fill="none" x1="757.395" y1="299.45" x2="757.395" y2="149.45"/>
		<line fill="none" x1="762.395" y1="299.45" x2="762.395" y2="149.45"/>
		<line fill="none" x1="767.395" y1="299.45" x2="767.395" y2="149.45"/>
		<line fill="none" x1="777.395" y1="299.45" x2="777.395" y2="149.45"/>
		<line fill="none" x1="797.395" y1="299.45" x2="797.395" y2="149.45"/>
		<line fill="none" x1="802.395" y1="299.45" x2="802.395" y2="149.45"/>
		<line fill="none" x1="812.395" y1="299.45" x2="812.395" y2="149.45"/>
		<line fill="none" x1="817.395" y1="299.45" x2="817.395" y2="149.45"/>
		<line fill="none" x1="822.395" y1="299.45" x2="822.395" y2="149.45"/>
		<line fill="none" x1="832.395" y1="299.45" x2="832.395" y2="149.45"/>
		<rect x="830.395" y="-0.06" opacity="0.97" fill="#C03A2B" enable-background="new    " width="301" height="299.879"/>
		<pattern  id="SVGID_2_" xlink:href="#SVGID_1_" patternTransform="matrix(1 0 0 1 -664.127 18106.4961)">
		</pattern>
		<polyline opacity="0.1" fill="url(#SVGID_2_)" enable-background="new    " points="447.395,149.94 447.395,-0.06 597.395,-0.06 
					"/>
		<polyline opacity="0.05" fill="#E64C3C" enable-background="new    " points="447.633,148.45 297.873,298.45 446.395,298.45 		"/>
		<polyline opacity="0.03" fill="#E64C3C" enable-background="new    " points="301.633,149.45 151.873,299.45 300.395,299.45 		"/>
		<g opacity="0.4">
			<polyline opacity="0.4" fill="#E64C3C" enable-background="new    " points="150,0 0,150.182 0,0.819 			"/>
		</g>
		<g opacity="0.8">
			<g>
				
					<linearGradient id="SVGID_3_" gradientUnits="userSpaceOnUse" x1="-563.751" y1="695.0625" x2="-264.4238" y2="695.0625" gradientTransform="matrix(1 0 0 1 564 -246.1807)">
					<stop  offset="0" style="stop-color:#C03A2B;stop-opacity:0.2"/>
					<stop  offset="1" style="stop-color:#C03A2B;stop-opacity:0.7"/>
				</linearGradient>
				<polyline opacity="0.1" fill="url(#SVGID_3_)" enable-background="new    " points="0.249,598.943 299.576,298.819 1,298.819 
									"/>
				
					<linearGradient id="SVGID_4_" gradientUnits="userSpaceOnUse" x1="-563" y1="620.0391" x2="-264.4238" y2="620.0391" gradientTransform="matrix(1 0 0 1 564 -246.1807)">
					<stop  offset="0" style="stop-color:#C03A2B;stop-opacity:0.2"/>
					<stop  offset="1" style="stop-color:#C03A2B;stop-opacity:0.7"/>
				</linearGradient>
				<polyline opacity="0.1" fill="url(#SVGID_4_)" enable-background="new    " points="150.294,448.898 299.576,298.819 1,298.819 
									"/>
			</g>
		</g>
	</g>
</g>
</svg>
