<?xml version="1.0" encoding="utf-8"?>
<!-- Generator: Adobe Illustrator 16.0.0, SVG Export Plug-In . SVG Version: 6.00 Build 0)  -->
<!DOCTYPE svg PUBLIC "-//W3C//DTD SVG 1.1//EN" "http://www.w3.org/Graphics/SVG/1.1/DTD/svg11.dtd">
<svg version="1.1" id="Layer_1" xmlns="http://www.w3.org/2000/svg" xmlns:xlink="http://www.w3.org/1999/xlink" x="0px" y="0px"
	 width="1131px" height="599.123px" viewBox="0 0 1131 599.123" enable-background="new 0 0 1131 599.123" xml:space="preserve">
<pattern  x="-394" y="840.062" width="144" height="150" patternUnits="userSpaceOnUse" id="SVGID_5_" viewBox="0 -150 144 150" overflow="visible">
	<g>
		<polygon fill="none" points="0,0 144,0 144,-150 0,-150 		"/>
		<g>
			<polygon fill="none" points="0,-150 144,-150 144,0 0,0 			"/>
			<g>
				<polygon fill="none" points="0,-150 144,-150 144,0 0,0 				"/>
				<g>
					<line fill="none" stroke="#26B99A" stroke-width="2" stroke-miterlimit="10" x1="122" y1="-150" x2="122" y2="0"/>
					<line fill="none" stroke="#26B99A" stroke-width="2" stroke-miterlimit="10" x1="126" y1="-150" x2="126" y2="0"/>
					<line fill="none" stroke="#26B99A" stroke-width="2" stroke-miterlimit="10" x1="130" y1="-150" x2="130" y2="0"/>
					<line fill="none" stroke="#26B99A" stroke-width="2" stroke-miterlimit="10" x1="134" y1="-150" x2="134" y2="0"/>
					<line fill="none" stroke="#26B99A" stroke-width="2" stroke-miterlimit="10" x1="138" y1="-150" x2="138" y2="0"/>
					<line fill="none" stroke="#26B99A" stroke-width="2" stroke-miterlimit="10" x1="142" y1="-150" x2="142" y2="0"/>
				</g>
				<g>
					<line fill="none" stroke="#26B99A" stroke-width="2" stroke-miterlimit="10" x1="74" y1="-150" x2="74" y2="0"/>
					<line fill="none" stroke="#26B99A" stroke-width="2" stroke-miterlimit="10" x1="78" y1="-150" x2="78" y2="0"/>
					<line fill="none" stroke="#26B99A" stroke-width="2" stroke-miterlimit="10" x1="82" y1="-150" x2="82" y2="0"/>
					<line fill="none" stroke="#26B99A" stroke-width="2" stroke-miterlimit="10" x1="86" y1="-150" x2="86" y2="0"/>
					<line fill="none" stroke="#26B99A" stroke-width="2" stroke-miterlimit="10" x1="90" y1="-150" x2="90" y2="0"/>
					<line fill="none" stroke="#26B99A" stroke-width="2" stroke-miterlimit="10" x1="94" y1="-150" x2="94" y2="0"/>
					<line fill="none" stroke="#26B99A" stroke-width="2" stroke-miterlimit="10" x1="98" y1="-150" x2="98" y2="0"/>
					<line fill="none" stroke="#26B99A" stroke-width="2" stroke-miterlimit="10" x1="102" y1="-150" x2="102" y2="0"/>
					<line fill="none" stroke="#26B99A" stroke-width="2" stroke-miterlimit="10" x1="106" y1="-150" x2="106" y2="0"/>
					<line fill="none" stroke="#26B99A" stroke-width="2" stroke-miterlimit="10" x1="110" y1="-150" x2="110" y2="0"/>
					<line fill="none" stroke="#26B99A" stroke-width="2" stroke-miterlimit="10" x1="114" y1="-150" x2="114" y2="0"/>
					<line fill="none" stroke="#26B99A" stroke-width="2" stroke-miterlimit="10" x1="118" y1="-150" x2="118" y2="0"/>
					<line fill="none" stroke="#26B99A" stroke-width="2" stroke-miterlimit="10" x1="122" y1="-150" x2="122" y2="0"/>
					<line fill="none" stroke="#26B99A" stroke-width="2" stroke-miterlimit="10" x1="126" y1="-150" x2="126" y2="0"/>
					<line fill="none" stroke="#26B99A" stroke-width="2" stroke-miterlimit="10" x1="130" y1="-150" x2="130" y2="0"/>
					<line fill="none" stroke="#26B99A" stroke-width="2" stroke-miterlimit="10" x1="134" y1="-150" x2="134" y2="0"/>
					<line fill="none" stroke="#26B99A" stroke-width="2" stroke-miterlimit="10" x1="138" y1="-150" x2="138" y2="0"/>
					<line fill="none" stroke="#26B99A" stroke-width="2" stroke-miterlimit="10" x1="142" y1="-150" x2="142" y2="0"/>
				</g>
				<g>
					<line fill="none" stroke="#26B99A" stroke-width="2" stroke-miterlimit="10" x1="26" y1="-150" x2="26" y2="0"/>
					<line fill="none" stroke="#26B99A" stroke-width="2" stroke-miterlimit="10" x1="30" y1="-150" x2="30" y2="0"/>
					<line fill="none" stroke="#26B99A" stroke-width="2" stroke-miterlimit="10" x1="34" y1="-150" x2="34" y2="0"/>
					<line fill="none" stroke="#26B99A" stroke-width="2" stroke-miterlimit="10" x1="38" y1="-150" x2="38" y2="0"/>
					<line fill="none" stroke="#26B99A" stroke-width="2" stroke-miterlimit="10" x1="42" y1="-150" x2="42" y2="0"/>
					<line fill="none" stroke="#26B99A" stroke-width="2" stroke-miterlimit="10" x1="46" y1="-150" x2="46" y2="0"/>
					<line fill="none" stroke="#26B99A" stroke-width="2" stroke-miterlimit="10" x1="50" y1="-150" x2="50" y2="0"/>
					<line fill="none" stroke="#26B99A" stroke-width="2" stroke-miterlimit="10" x1="54" y1="-150" x2="54" y2="0"/>
					<line fill="none" stroke="#26B99A" stroke-width="2" stroke-miterlimit="10" x1="58" y1="-150" x2="58" y2="0"/>
					<line fill="none" stroke="#26B99A" stroke-width="2" stroke-miterlimit="10" x1="62" y1="-150" x2="62" y2="0"/>
					<line fill="none" stroke="#26B99A" stroke-width="2" stroke-miterlimit="10" x1="66" y1="-150" x2="66" y2="0"/>
					<line fill="none" stroke="#26B99A" stroke-width="2" stroke-miterlimit="10" x1="70" y1="-150" x2="70" y2="0"/>
					<line fill="none" stroke="#26B99A" stroke-width="2" stroke-miterlimit="10" x1="74" y1="-150" x2="74" y2="0"/>
					<line fill="none" stroke="#26B99A" stroke-width="2" stroke-miterlimit="10" x1="78" y1="-150" x2="78" y2="0"/>
					<line fill="none" stroke="#26B99A" stroke-width="2" stroke-miterlimit="10" x1="82" y1="-150" x2="82" y2="0"/>
					<line fill="none" stroke="#26B99A" stroke-width="2" stroke-miterlimit="10" x1="86" y1="-150" x2="86" y2="0"/>
					<line fill="none" stroke="#26B99A" stroke-width="2" stroke-miterlimit="10" x1="90" y1="-150" x2="90" y2="0"/>
					<line fill="none" stroke="#26B99A" stroke-width="2" stroke-miterlimit="10" x1="94" y1="-150" x2="94" y2="0"/>
					<line fill="none" stroke="#26B99A" stroke-width="2" stroke-miterlimit="10" x1="98" y1="-150" x2="98" y2="0"/>
					<line fill="none" stroke="#26B99A" stroke-width="2" stroke-miterlimit="10" x1="102" y1="-150" x2="102" y2="0"/>
					<line fill="none" stroke="#26B99A" stroke-width="2" stroke-miterlimit="10" x1="106" y1="-150" x2="106" y2="0"/>
					<line fill="none" stroke="#26B99A" stroke-width="2" stroke-miterlimit="10" x1="110" y1="-150" x2="110" y2="0"/>
					<line fill="none" stroke="#26B99A" stroke-width="2" stroke-miterlimit="10" x1="114" y1="-150" x2="114" y2="0"/>
					<line fill="none" stroke="#26B99A" stroke-width="2" stroke-miterlimit="10" x1="118" y1="-150" x2="118" y2="0"/>
				</g>
				<g>
					<line fill="none" stroke="#26B99A" stroke-width="2" stroke-miterlimit="10" x1="2" y1="-150" x2="2" y2="0"/>
					<line fill="none" stroke="#26B99A" stroke-width="2" stroke-miterlimit="10" x1="6" y1="-150" x2="6" y2="0"/>
					<line fill="none" stroke="#26B99A" stroke-width="2" stroke-miterlimit="10" x1="10" y1="-150" x2="10" y2="0"/>
					<line fill="none" stroke="#26B99A" stroke-width="2" stroke-miterlimit="10" x1="14" y1="-150" x2="14" y2="0"/>
					<line fill="none" stroke="#26B99A" stroke-width="2" stroke-miterlimit="10" x1="18" y1="-150" x2="18" y2="0"/>
					<line fill="none" stroke="#26B99A" stroke-width="2" stroke-miterlimit="10" x1="22" y1="-150" x2="22" y2="0"/>
					<line fill="none" stroke="#26B99A" stroke-width="2" stroke-miterlimit="10" x1="26" y1="-150" x2="26" y2="0"/>
					<line fill="none" stroke="#26B99A" stroke-width="2" stroke-miterlimit="10" x1="30" y1="-150" x2="30" y2="0"/>
					<line fill="none" stroke="#26B99A" stroke-width="2" stroke-miterlimit="10" x1="34" y1="-150" x2="34" y2="0"/>
					<line fill="none" stroke="#26B99A" stroke-width="2" stroke-miterlimit="10" x1="38" y1="-150" x2="38" y2="0"/>
					<line fill="none" stroke="#26B99A" stroke-width="2" stroke-miterlimit="10" x1="42" y1="-150" x2="42" y2="0"/>
					<line fill="none" stroke="#26B99A" stroke-width="2" stroke-miterlimit="10" x1="46" y1="-150" x2="46" y2="0"/>
					<line fill="none" stroke="#26B99A" stroke-width="2" stroke-miterlimit="10" x1="50" y1="-150" x2="50" y2="0"/>
					<line fill="none" stroke="#26B99A" stroke-width="2" stroke-miterlimit="10" x1="54" y1="-150" x2="54" y2="0"/>
					<line fill="none" stroke="#26B99A" stroke-width="2" stroke-miterlimit="10" x1="58" y1="-150" x2="58" y2="0"/>
					<line fill="none" stroke="#26B99A" stroke-width="2" stroke-miterlimit="10" x1="62" y1="-150" x2="62" y2="0"/>
					<line fill="none" stroke="#26B99A" stroke-width="2" stroke-miterlimit="10" x1="66" y1="-150" x2="66" y2="0"/>
					<line fill="none" stroke="#26B99A" stroke-width="2" stroke-miterlimit="10" x1="70" y1="-150" x2="70" y2="0"/>
				</g>
				<g>
					<line fill="none" stroke="#26B99A" stroke-width="2" stroke-miterlimit="10" x1="2" y1="-150" x2="2" y2="0"/>
					<line fill="none" stroke="#26B99A" stroke-width="2" stroke-miterlimit="10" x1="6" y1="-150" x2="6" y2="0"/>
					<line fill="none" stroke="#26B99A" stroke-width="2" stroke-miterlimit="10" x1="10" y1="-150" x2="10" y2="0"/>
					<line fill="none" stroke="#26B99A" stroke-width="2" stroke-miterlimit="10" x1="14" y1="-150" x2="14" y2="0"/>
					<line fill="none" stroke="#26B99A" stroke-width="2" stroke-miterlimit="10" x1="18" y1="-150" x2="18" y2="0"/>
					<line fill="none" stroke="#26B99A" stroke-width="2" stroke-miterlimit="10" x1="22" y1="-150" x2="22" y2="0"/>
				</g>
			</g>
		</g>
	</g>
</pattern>
<pattern  x="-394" y="840.062" width="144" height="150" patternUnits="userSpaceOnUse" id="SVGID_6_" viewBox="0 -150 144 150" overflow="visible">
	<g>
		<polygon fill="none" points="0,0 144,0 144,-150 0,-150 		"/>
		<g>
			<polygon fill="none" points="0,-150 144,-150 144,0 0,0 			"/>
			<g>
				<polygon fill="none" points="0,-150 144,-150 144,0 0,0 				"/>
				<g>
					<line fill="none" stroke="#26B99A" stroke-width="2" stroke-miterlimit="10" x1="122" y1="-150" x2="122" y2="0"/>
					<line fill="none" stroke="#26B99A" stroke-width="2" stroke-miterlimit="10" x1="126" y1="-150" x2="126" y2="0"/>
					<line fill="none" stroke="#26B99A" stroke-width="2" stroke-miterlimit="10" x1="130" y1="-150" x2="130" y2="0"/>
					<line fill="none" stroke="#26B99A" stroke-width="2" stroke-miterlimit="10" x1="134" y1="-150" x2="134" y2="0"/>
					<line fill="none" stroke="#26B99A" stroke-width="2" stroke-miterlimit="10" x1="138" y1="-150" x2="138" y2="0"/>
					<line fill="none" stroke="#26B99A" stroke-width="2" stroke-miterlimit="10" x1="142" y1="-150" x2="142" y2="0"/>
				</g>
				<g>
					<line fill="none" stroke="#26B99A" stroke-width="2" stroke-miterlimit="10" x1="74" y1="-150" x2="74" y2="0"/>
					<line fill="none" stroke="#26B99A" stroke-width="2" stroke-miterlimit="10" x1="78" y1="-150" x2="78" y2="0"/>
					<line fill="none" stroke="#26B99A" stroke-width="2" stroke-miterlimit="10" x1="82" y1="-150" x2="82" y2="0"/>
					<line fill="none" stroke="#26B99A" stroke-width="2" stroke-miterlimit="10" x1="86" y1="-150" x2="86" y2="0"/>
					<line fill="none" stroke="#26B99A" stroke-width="2" stroke-miterlimit="10" x1="90" y1="-150" x2="90" y2="0"/>
					<line fill="none" stroke="#26B99A" stroke-width="2" stroke-miterlimit="10" x1="94" y1="-150" x2="94" y2="0"/>
					<line fill="none" stroke="#26B99A" stroke-width="2" stroke-miterlimit="10" x1="98" y1="-150" x2="98" y2="0"/>
					<line fill="none" stroke="#26B99A" stroke-width="2" stroke-miterlimit="10" x1="102" y1="-150" x2="102" y2="0"/>
					<line fill="none" stroke="#26B99A" stroke-width="2" stroke-miterlimit="10" x1="106" y1="-150" x2="106" y2="0"/>
					<line fill="none" stroke="#26B99A" stroke-width="2" stroke-miterlimit="10" x1="110" y1="-150" x2="110" y2="0"/>
					<line fill="none" stroke="#26B99A" stroke-width="2" stroke-miterlimit="10" x1="114" y1="-150" x2="114" y2="0"/>
					<line fill="none" stroke="#26B99A" stroke-width="2" stroke-miterlimit="10" x1="118" y1="-150" x2="118" y2="0"/>
					<line fill="none" stroke="#26B99A" stroke-width="2" stroke-miterlimit="10" x1="122" y1="-150" x2="122" y2="0"/>
					<line fill="none" stroke="#26B99A" stroke-width="2" stroke-miterlimit="10" x1="126" y1="-150" x2="126" y2="0"/>
					<line fill="none" stroke="#26B99A" stroke-width="2" stroke-miterlimit="10" x1="130" y1="-150" x2="130" y2="0"/>
					<line fill="none" stroke="#26B99A" stroke-width="2" stroke-miterlimit="10" x1="134" y1="-150" x2="134" y2="0"/>
					<line fill="none" stroke="#26B99A" stroke-width="2" stroke-miterlimit="10" x1="138" y1="-150" x2="138" y2="0"/>
					<line fill="none" stroke="#26B99A" stroke-width="2" stroke-miterlimit="10" x1="142" y1="-150" x2="142" y2="0"/>
				</g>
				<g>
					<line fill="none" stroke="#26B99A" stroke-width="2" stroke-miterlimit="10" x1="26" y1="-150" x2="26" y2="0"/>
					<line fill="none" stroke="#26B99A" stroke-width="2" stroke-miterlimit="10" x1="30" y1="-150" x2="30" y2="0"/>
					<line fill="none" stroke="#26B99A" stroke-width="2" stroke-miterlimit="10" x1="34" y1="-150" x2="34" y2="0"/>
					<line fill="none" stroke="#26B99A" stroke-width="2" stroke-miterlimit="10" x1="38" y1="-150" x2="38" y2="0"/>
					<line fill="none" stroke="#26B99A" stroke-width="2" stroke-miterlimit="10" x1="42" y1="-150" x2="42" y2="0"/>
					<line fill="none" stroke="#26B99A" stroke-width="2" stroke-miterlimit="10" x1="46" y1="-150" x2="46" y2="0"/>
					<line fill="none" stroke="#26B99A" stroke-width="2" stroke-miterlimit="10" x1="50" y1="-150" x2="50" y2="0"/>
					<line fill="none" stroke="#26B99A" stroke-width="2" stroke-miterlimit="10" x1="54" y1="-150" x2="54" y2="0"/>
					<line fill="none" stroke="#26B99A" stroke-width="2" stroke-miterlimit="10" x1="58" y1="-150" x2="58" y2="0"/>
					<line fill="none" stroke="#26B99A" stroke-width="2" stroke-miterlimit="10" x1="62" y1="-150" x2="62" y2="0"/>
					<line fill="none" stroke="#26B99A" stroke-width="2" stroke-miterlimit="10" x1="66" y1="-150" x2="66" y2="0"/>
					<line fill="none" stroke="#26B99A" stroke-width="2" stroke-miterlimit="10" x1="70" y1="-150" x2="70" y2="0"/>
					<line fill="none" stroke="#26B99A" stroke-width="2" stroke-miterlimit="10" x1="74" y1="-150" x2="74" y2="0"/>
					<line fill="none" stroke="#26B99A" stroke-width="2" stroke-miterlimit="10" x1="78" y1="-150" x2="78" y2="0"/>
					<line fill="none" stroke="#26B99A" stroke-width="2" stroke-miterlimit="10" x1="82" y1="-150" x2="82" y2="0"/>
					<line fill="none" stroke="#26B99A" stroke-width="2" stroke-miterlimit="10" x1="86" y1="-150" x2="86" y2="0"/>
					<line fill="none" stroke="#26B99A" stroke-width="2" stroke-miterlimit="10" x1="90" y1="-150" x2="90" y2="0"/>
					<line fill="none" stroke="#26B99A" stroke-width="2" stroke-miterlimit="10" x1="94" y1="-150" x2="94" y2="0"/>
					<line fill="none" stroke="#26B99A" stroke-width="2" stroke-miterlimit="10" x1="98" y1="-150" x2="98" y2="0"/>
					<line fill="none" stroke="#26B99A" stroke-width="2" stroke-miterlimit="10" x1="102" y1="-150" x2="102" y2="0"/>
					<line fill="none" stroke="#26B99A" stroke-width="2" stroke-miterlimit="10" x1="106" y1="-150" x2="106" y2="0"/>
					<line fill="none" stroke="#26B99A" stroke-width="2" stroke-miterlimit="10" x1="110" y1="-150" x2="110" y2="0"/>
					<line fill="none" stroke="#26B99A" stroke-width="2" stroke-miterlimit="10" x1="114" y1="-150" x2="114" y2="0"/>
					<line fill="none" stroke="#26B99A" stroke-width="2" stroke-miterlimit="10" x1="118" y1="-150" x2="118" y2="0"/>
				</g>
				<g>
					<line fill="none" stroke="#26B99A" stroke-width="2" stroke-miterlimit="10" x1="2" y1="-150" x2="2" y2="0"/>
					<line fill="none" stroke="#26B99A" stroke-width="2" stroke-miterlimit="10" x1="6" y1="-150" x2="6" y2="0"/>
					<line fill="none" stroke="#26B99A" stroke-width="2" stroke-miterlimit="10" x1="10" y1="-150" x2="10" y2="0"/>
					<line fill="none" stroke="#26B99A" stroke-width="2" stroke-miterlimit="10" x1="14" y1="-150" x2="14" y2="0"/>
					<line fill="none" stroke="#26B99A" stroke-width="2" stroke-miterlimit="10" x1="18" y1="-150" x2="18" y2="0"/>
					<line fill="none" stroke="#26B99A" stroke-width="2" stroke-miterlimit="10" x1="22" y1="-150" x2="22" y2="0"/>
					<line fill="none" stroke="#26B99A" stroke-width="2" stroke-miterlimit="10" x1="26" y1="-150" x2="26" y2="0"/>
					<line fill="none" stroke="#26B99A" stroke-width="2" stroke-miterlimit="10" x1="30" y1="-150" x2="30" y2="0"/>
					<line fill="none" stroke="#26B99A" stroke-width="2" stroke-miterlimit="10" x1="34" y1="-150" x2="34" y2="0"/>
					<line fill="none" stroke="#26B99A" stroke-width="2" stroke-miterlimit="10" x1="38" y1="-150" x2="38" y2="0"/>
					<line fill="none" stroke="#26B99A" stroke-width="2" stroke-miterlimit="10" x1="42" y1="-150" x2="42" y2="0"/>
					<line fill="none" stroke="#26B99A" stroke-width="2" stroke-miterlimit="10" x1="46" y1="-150" x2="46" y2="0"/>
					<line fill="none" stroke="#26B99A" stroke-width="2" stroke-miterlimit="10" x1="50" y1="-150" x2="50" y2="0"/>
					<line fill="none" stroke="#26B99A" stroke-width="2" stroke-miterlimit="10" x1="54" y1="-150" x2="54" y2="0"/>
					<line fill="none" stroke="#26B99A" stroke-width="2" stroke-miterlimit="10" x1="58" y1="-150" x2="58" y2="0"/>
					<line fill="none" stroke="#26B99A" stroke-width="2" stroke-miterlimit="10" x1="62" y1="-150" x2="62" y2="0"/>
					<line fill="none" stroke="#26B99A" stroke-width="2" stroke-miterlimit="10" x1="66" y1="-150" x2="66" y2="0"/>
					<line fill="none" stroke="#26B99A" stroke-width="2" stroke-miterlimit="10" x1="70" y1="-150" x2="70" y2="0"/>
				</g>
				<g>
					<line fill="none" stroke="#26B99A" stroke-width="2" stroke-miterlimit="10" x1="2" y1="-150" x2="2" y2="0"/>
					<line fill="none" stroke="#26B99A" stroke-width="2" stroke-miterlimit="10" x1="6" y1="-150" x2="6" y2="0"/>
					<line fill="none" stroke="#26B99A" stroke-width="2" stroke-miterlimit="10" x1="10" y1="-150" x2="10" y2="0"/>
					<line fill="none" stroke="#26B99A" stroke-width="2" stroke-miterlimit="10" x1="14" y1="-150" x2="14" y2="0"/>
					<line fill="none" stroke="#26B99A" stroke-width="2" stroke-miterlimit="10" x1="18" y1="-150" x2="18" y2="0"/>
					<line fill="none" stroke="#26B99A" stroke-width="2" stroke-miterlimit="10" x1="22" y1="-150" x2="22" y2="0"/>
				</g>
			</g>
		</g>
	</g>
</pattern>
<g id="background">
</g>
<g id="Layer_1_1_">
	<g>
		<g opacity="0.8">
			<g>
				
					<linearGradient id="SVGID_1_" gradientUnits="userSpaceOnUse" x1="296.498" y1="695.9385" x2="596.0742" y2="695.9385" gradientTransform="matrix(-1 0 0 1 1427 -245.877)">
					<stop  offset="0" style="stop-color:#14A085;stop-opacity:0.2"/>
					<stop  offset="1" style="stop-color:#14A085;stop-opacity:0.7"/>
				</linearGradient>
				<polyline opacity="0.1" fill="url(#SVGID_1_)" enable-background="new    " points="1130.502,600.123 830.926,300 1130,300 				
					"/>
				
					<linearGradient id="SVGID_2_" gradientUnits="userSpaceOnUse" x1="297" y1="620.916" x2="596.0742" y2="620.916" gradientTransform="matrix(-1 0 0 1 1427 -245.877)">
					<stop  offset="0" style="stop-color:#14A085;stop-opacity:0.2"/>
					<stop  offset="1" style="stop-color:#14A085;stop-opacity:0.7"/>
				</linearGradient>
				<polyline opacity="0.1" fill="url(#SVGID_2_)" enable-background="new    " points="980.457,450.078 830.926,300 1130,300 				
					"/>
			</g>
		</g>
		<pattern  id="SVGID_3_" xlink:href="#SVGID_5_" patternTransform="matrix(1 0 0 1 -3750.8779 18405.3242)">
		</pattern>
		<polyline opacity="0.1" fill="url(#SVGID_3_)" enable-background="new    " points="530,150 530,0 680,0 		"/>
		<rect y="150" opacity="0.96" fill="#14A085" enable-background="new    " width="830" height="150"/>
		<polygon opacity="0.96" fill="#14A085" enable-background="new    " points="1131,300 299.451,300 149.999,150.512 149.999,0 
			1131,0 		"/>
		<rect x="150" y="150" opacity="0.83" fill="#14A085" enable-background="new    " width="300" height="150"/>
		<rect x="981" opacity="0.99" fill="#14A085" enable-background="new    " width="150" height="300"/>
		<rect x="831" opacity="0.95" fill="#14A085" enable-background="new    " width="150" height="150"/>
		<polyline opacity="0.05" fill="#26B99A" enable-background="new    " points="679.811,151 829.623,301 681,301 		"/>
		<pattern  id="SVGID_4_" xlink:href="#SVGID_6_" patternTransform="matrix(-1 0 0 1 -45036.3789 14252.8154)">
		</pattern>
		<polyline opacity="0.1" fill="url(#SVGID_4_)" enable-background="new    " points="829.812,150 979.623,300 831,300 		"/>
		<g>
			<rect opacity="0.98" fill="#14A085" enable-background="new    " width="151.436" height="151.985"/>
			<polyline opacity="0.3" fill="#14A085" enable-background="new    " points="152,153 0.122,0 151.437,0 			"/>
		</g>
		<g opacity="0.7">
			<polyline opacity="0.4" fill="#26B99A" enable-background="new    " points="980,3.215 1130,153.429 1130,4 			"/>
		</g>
	</g>
</g>
</svg>
