<?xml version="1.0" encoding="utf-8"?>
<!-- Generator: Adobe Illustrator 16.0.0, SVG Export Plug-In . SVG Version: 6.00 Build 0)  -->
<!DOCTYPE svg PUBLIC "-//W3C//DTD SVG 1.1//EN" "http://www.w3.org/Graphics/SVG/1.1/DTD/svg11.dtd">
<svg version="1.1" id="Layer_1" xmlns="http://www.w3.org/2000/svg" xmlns:xlink="http://www.w3.org/1999/xlink" x="0px" y="0px"
	 width="1131px" height="751.123px" viewBox="0 0 1131 751.123" enable-background="new 0 0 1131 751.123" xml:space="preserve">
<pattern  x="-394" y="916.062" width="144" height="150" patternUnits="userSpaceOnUse" id="SVGID_1_" viewBox="0 -150 144 150" overflow="visible">
	<g>
		<polygon fill="none" points="0,0 144,0 144,-150 0,-150 		"/>
		<g>
			<polygon fill="none" points="0,0 144,0 144,-150 0,-150 			"/>
			<g>
				<line fill="none" stroke="#26B99A" stroke-width="2" stroke-miterlimit="10" x1="122" y1="0" x2="122" y2="-150"/>
				<line fill="none" stroke="#26B99A" stroke-width="2" stroke-miterlimit="10" x1="126" y1="0" x2="126" y2="-150"/>
				<line fill="none" stroke="#26B99A" stroke-width="2" stroke-miterlimit="10" x1="130" y1="0" x2="130" y2="-150"/>
				<line fill="none" stroke="#26B99A" stroke-width="2" stroke-miterlimit="10" x1="134" y1="0" x2="134" y2="-150"/>
				<line fill="none" stroke="#26B99A" stroke-width="2" stroke-miterlimit="10" x1="138" y1="0" x2="138" y2="-150"/>
				<line fill="none" stroke="#26B99A" stroke-width="2" stroke-miterlimit="10" x1="142" y1="0" x2="142" y2="-150"/>
			</g>
			<g>
				<line fill="none" stroke="#26B99A" stroke-width="2" stroke-miterlimit="10" x1="74" y1="0" x2="74" y2="-150"/>
				<line fill="none" stroke="#26B99A" stroke-width="2" stroke-miterlimit="10" x1="78" y1="0" x2="78" y2="-150"/>
				<line fill="none" stroke="#26B99A" stroke-width="2" stroke-miterlimit="10" x1="82" y1="0" x2="82" y2="-150"/>
				<line fill="none" stroke="#26B99A" stroke-width="2" stroke-miterlimit="10" x1="86" y1="0" x2="86" y2="-150"/>
				<line fill="none" stroke="#26B99A" stroke-width="2" stroke-miterlimit="10" x1="90" y1="0" x2="90" y2="-150"/>
				<line fill="none" stroke="#26B99A" stroke-width="2" stroke-miterlimit="10" x1="94" y1="0" x2="94" y2="-150"/>
				<line fill="none" stroke="#26B99A" stroke-width="2" stroke-miterlimit="10" x1="98" y1="0" x2="98" y2="-150"/>
				<line fill="none" stroke="#26B99A" stroke-width="2" stroke-miterlimit="10" x1="102" y1="0" x2="102" y2="-150"/>
				<line fill="none" stroke="#26B99A" stroke-width="2" stroke-miterlimit="10" x1="106" y1="0" x2="106" y2="-150"/>
				<line fill="none" stroke="#26B99A" stroke-width="2" stroke-miterlimit="10" x1="110" y1="0" x2="110" y2="-150"/>
				<line fill="none" stroke="#26B99A" stroke-width="2" stroke-miterlimit="10" x1="114" y1="0" x2="114" y2="-150"/>
				<line fill="none" stroke="#26B99A" stroke-width="2" stroke-miterlimit="10" x1="118" y1="0" x2="118" y2="-150"/>
				<line fill="none" stroke="#26B99A" stroke-width="2" stroke-miterlimit="10" x1="122" y1="0" x2="122" y2="-150"/>
				<line fill="none" stroke="#26B99A" stroke-width="2" stroke-miterlimit="10" x1="126" y1="0" x2="126" y2="-150"/>
				<line fill="none" stroke="#26B99A" stroke-width="2" stroke-miterlimit="10" x1="130" y1="0" x2="130" y2="-150"/>
				<line fill="none" stroke="#26B99A" stroke-width="2" stroke-miterlimit="10" x1="134" y1="0" x2="134" y2="-150"/>
				<line fill="none" stroke="#26B99A" stroke-width="2" stroke-miterlimit="10" x1="138" y1="0" x2="138" y2="-150"/>
				<line fill="none" stroke="#26B99A" stroke-width="2" stroke-miterlimit="10" x1="142" y1="0" x2="142" y2="-150"/>
			</g>
			<g>
				<line fill="none" stroke="#26B99A" stroke-width="2" stroke-miterlimit="10" x1="26" y1="0" x2="26" y2="-150"/>
				<line fill="none" stroke="#26B99A" stroke-width="2" stroke-miterlimit="10" x1="30" y1="0" x2="30" y2="-150"/>
				<line fill="none" stroke="#26B99A" stroke-width="2" stroke-miterlimit="10" x1="34" y1="0" x2="34" y2="-150"/>
				<line fill="none" stroke="#26B99A" stroke-width="2" stroke-miterlimit="10" x1="38" y1="0" x2="38" y2="-150"/>
				<line fill="none" stroke="#26B99A" stroke-width="2" stroke-miterlimit="10" x1="42" y1="0" x2="42" y2="-150"/>
				<line fill="none" stroke="#26B99A" stroke-width="2" stroke-miterlimit="10" x1="46" y1="0" x2="46" y2="-150"/>
				<line fill="none" stroke="#26B99A" stroke-width="2" stroke-miterlimit="10" x1="50" y1="0" x2="50" y2="-150"/>
				<line fill="none" stroke="#26B99A" stroke-width="2" stroke-miterlimit="10" x1="54" y1="0" x2="54" y2="-150"/>
				<line fill="none" stroke="#26B99A" stroke-width="2" stroke-miterlimit="10" x1="58" y1="0" x2="58" y2="-150"/>
				<line fill="none" stroke="#26B99A" stroke-width="2" stroke-miterlimit="10" x1="62" y1="0" x2="62" y2="-150"/>
				<line fill="none" stroke="#26B99A" stroke-width="2" stroke-miterlimit="10" x1="66" y1="0" x2="66" y2="-150"/>
				<line fill="none" stroke="#26B99A" stroke-width="2" stroke-miterlimit="10" x1="70" y1="0" x2="70" y2="-150"/>
				<line fill="none" stroke="#26B99A" stroke-width="2" stroke-miterlimit="10" x1="74" y1="0" x2="74" y2="-150"/>
				<line fill="none" stroke="#26B99A" stroke-width="2" stroke-miterlimit="10" x1="78" y1="0" x2="78" y2="-150"/>
				<line fill="none" stroke="#26B99A" stroke-width="2" stroke-miterlimit="10" x1="82" y1="0" x2="82" y2="-150"/>
				<line fill="none" stroke="#26B99A" stroke-width="2" stroke-miterlimit="10" x1="86" y1="0" x2="86" y2="-150"/>
				<line fill="none" stroke="#26B99A" stroke-width="2" stroke-miterlimit="10" x1="90" y1="0" x2="90" y2="-150"/>
				<line fill="none" stroke="#26B99A" stroke-width="2" stroke-miterlimit="10" x1="94" y1="0" x2="94" y2="-150"/>
				<line fill="none" stroke="#26B99A" stroke-width="2" stroke-miterlimit="10" x1="98" y1="0" x2="98" y2="-150"/>
				<line fill="none" stroke="#26B99A" stroke-width="2" stroke-miterlimit="10" x1="102" y1="0" x2="102" y2="-150"/>
				<line fill="none" stroke="#26B99A" stroke-width="2" stroke-miterlimit="10" x1="106" y1="0" x2="106" y2="-150"/>
				<line fill="none" stroke="#26B99A" stroke-width="2" stroke-miterlimit="10" x1="110" y1="0" x2="110" y2="-150"/>
				<line fill="none" stroke="#26B99A" stroke-width="2" stroke-miterlimit="10" x1="114" y1="0" x2="114" y2="-150"/>
				<line fill="none" stroke="#26B99A" stroke-width="2" stroke-miterlimit="10" x1="118" y1="0" x2="118" y2="-150"/>
			</g>
			<g>
				<line fill="none" stroke="#26B99A" stroke-width="2" stroke-miterlimit="10" x1="2" y1="0" x2="2" y2="-150"/>
				<line fill="none" stroke="#26B99A" stroke-width="2" stroke-miterlimit="10" x1="6" y1="0" x2="6" y2="-150"/>
				<line fill="none" stroke="#26B99A" stroke-width="2" stroke-miterlimit="10" x1="10" y1="0" x2="10" y2="-150"/>
				<line fill="none" stroke="#26B99A" stroke-width="2" stroke-miterlimit="10" x1="14" y1="0" x2="14" y2="-150"/>
				<line fill="none" stroke="#26B99A" stroke-width="2" stroke-miterlimit="10" x1="18" y1="0" x2="18" y2="-150"/>
				<line fill="none" stroke="#26B99A" stroke-width="2" stroke-miterlimit="10" x1="22" y1="0" x2="22" y2="-150"/>
				<line fill="none" stroke="#26B99A" stroke-width="2" stroke-miterlimit="10" x1="26" y1="0" x2="26" y2="-150"/>
				<line fill="none" stroke="#26B99A" stroke-width="2" stroke-miterlimit="10" x1="30" y1="0" x2="30" y2="-150"/>
				<line fill="none" stroke="#26B99A" stroke-width="2" stroke-miterlimit="10" x1="34" y1="0" x2="34" y2="-150"/>
				<line fill="none" stroke="#26B99A" stroke-width="2" stroke-miterlimit="10" x1="38" y1="0" x2="38" y2="-150"/>
				<line fill="none" stroke="#26B99A" stroke-width="2" stroke-miterlimit="10" x1="42" y1="0" x2="42" y2="-150"/>
				<line fill="none" stroke="#26B99A" stroke-width="2" stroke-miterlimit="10" x1="46" y1="0" x2="46" y2="-150"/>
				<line fill="none" stroke="#26B99A" stroke-width="2" stroke-miterlimit="10" x1="50" y1="0" x2="50" y2="-150"/>
				<line fill="none" stroke="#26B99A" stroke-width="2" stroke-miterlimit="10" x1="54" y1="0" x2="54" y2="-150"/>
				<line fill="none" stroke="#26B99A" stroke-width="2" stroke-miterlimit="10" x1="58" y1="0" x2="58" y2="-150"/>
				<line fill="none" stroke="#26B99A" stroke-width="2" stroke-miterlimit="10" x1="62" y1="0" x2="62" y2="-150"/>
				<line fill="none" stroke="#26B99A" stroke-width="2" stroke-miterlimit="10" x1="66" y1="0" x2="66" y2="-150"/>
				<line fill="none" stroke="#26B99A" stroke-width="2" stroke-miterlimit="10" x1="70" y1="0" x2="70" y2="-150"/>
			</g>
			<g>
				<line fill="none" stroke="#26B99A" stroke-width="2" stroke-miterlimit="10" x1="2" y1="0" x2="2" y2="-150"/>
				<line fill="none" stroke="#26B99A" stroke-width="2" stroke-miterlimit="10" x1="6" y1="0" x2="6" y2="-150"/>
				<line fill="none" stroke="#26B99A" stroke-width="2" stroke-miterlimit="10" x1="10" y1="0" x2="10" y2="-150"/>
				<line fill="none" stroke="#26B99A" stroke-width="2" stroke-miterlimit="10" x1="14" y1="0" x2="14" y2="-150"/>
				<line fill="none" stroke="#26B99A" stroke-width="2" stroke-miterlimit="10" x1="18" y1="0" x2="18" y2="-150"/>
				<line fill="none" stroke="#26B99A" stroke-width="2" stroke-miterlimit="10" x1="22" y1="0" x2="22" y2="-150"/>
			</g>
		</g>
	</g>
</pattern>
<pattern  x="-394" y="916.062" width="144" height="150" patternUnits="userSpaceOnUse" id="SVGID_2_" viewBox="0 -150 144 150" overflow="visible">
	<g>
		<polygon fill="none" points="0,0 144,0 144,-150 0,-150 		"/>
		<g>
			<polygon fill="none" points="0,0 144,0 144,-150 0,-150 			"/>
			<g>
				<line fill="none" stroke="#26B99A" stroke-width="2" stroke-miterlimit="10" x1="122" y1="0" x2="122" y2="-150"/>
				<line fill="none" stroke="#26B99A" stroke-width="2" stroke-miterlimit="10" x1="126" y1="0" x2="126" y2="-150"/>
				<line fill="none" stroke="#26B99A" stroke-width="2" stroke-miterlimit="10" x1="130" y1="0" x2="130" y2="-150"/>
				<line fill="none" stroke="#26B99A" stroke-width="2" stroke-miterlimit="10" x1="134" y1="0" x2="134" y2="-150"/>
				<line fill="none" stroke="#26B99A" stroke-width="2" stroke-miterlimit="10" x1="138" y1="0" x2="138" y2="-150"/>
				<line fill="none" stroke="#26B99A" stroke-width="2" stroke-miterlimit="10" x1="142" y1="0" x2="142" y2="-150"/>
			</g>
			<g>
				<line fill="none" stroke="#26B99A" stroke-width="2" stroke-miterlimit="10" x1="74" y1="0" x2="74" y2="-150"/>
				<line fill="none" stroke="#26B99A" stroke-width="2" stroke-miterlimit="10" x1="78" y1="0" x2="78" y2="-150"/>
				<line fill="none" stroke="#26B99A" stroke-width="2" stroke-miterlimit="10" x1="82" y1="0" x2="82" y2="-150"/>
				<line fill="none" stroke="#26B99A" stroke-width="2" stroke-miterlimit="10" x1="86" y1="0" x2="86" y2="-150"/>
				<line fill="none" stroke="#26B99A" stroke-width="2" stroke-miterlimit="10" x1="90" y1="0" x2="90" y2="-150"/>
				<line fill="none" stroke="#26B99A" stroke-width="2" stroke-miterlimit="10" x1="94" y1="0" x2="94" y2="-150"/>
				<line fill="none" stroke="#26B99A" stroke-width="2" stroke-miterlimit="10" x1="98" y1="0" x2="98" y2="-150"/>
				<line fill="none" stroke="#26B99A" stroke-width="2" stroke-miterlimit="10" x1="102" y1="0" x2="102" y2="-150"/>
				<line fill="none" stroke="#26B99A" stroke-width="2" stroke-miterlimit="10" x1="106" y1="0" x2="106" y2="-150"/>
				<line fill="none" stroke="#26B99A" stroke-width="2" stroke-miterlimit="10" x1="110" y1="0" x2="110" y2="-150"/>
				<line fill="none" stroke="#26B99A" stroke-width="2" stroke-miterlimit="10" x1="114" y1="0" x2="114" y2="-150"/>
				<line fill="none" stroke="#26B99A" stroke-width="2" stroke-miterlimit="10" x1="118" y1="0" x2="118" y2="-150"/>
				<line fill="none" stroke="#26B99A" stroke-width="2" stroke-miterlimit="10" x1="122" y1="0" x2="122" y2="-150"/>
				<line fill="none" stroke="#26B99A" stroke-width="2" stroke-miterlimit="10" x1="126" y1="0" x2="126" y2="-150"/>
				<line fill="none" stroke="#26B99A" stroke-width="2" stroke-miterlimit="10" x1="130" y1="0" x2="130" y2="-150"/>
				<line fill="none" stroke="#26B99A" stroke-width="2" stroke-miterlimit="10" x1="134" y1="0" x2="134" y2="-150"/>
				<line fill="none" stroke="#26B99A" stroke-width="2" stroke-miterlimit="10" x1="138" y1="0" x2="138" y2="-150"/>
				<line fill="none" stroke="#26B99A" stroke-width="2" stroke-miterlimit="10" x1="142" y1="0" x2="142" y2="-150"/>
			</g>
			<g>
				<line fill="none" stroke="#26B99A" stroke-width="2" stroke-miterlimit="10" x1="26" y1="0" x2="26" y2="-150"/>
				<line fill="none" stroke="#26B99A" stroke-width="2" stroke-miterlimit="10" x1="30" y1="0" x2="30" y2="-150"/>
				<line fill="none" stroke="#26B99A" stroke-width="2" stroke-miterlimit="10" x1="34" y1="0" x2="34" y2="-150"/>
				<line fill="none" stroke="#26B99A" stroke-width="2" stroke-miterlimit="10" x1="38" y1="0" x2="38" y2="-150"/>
				<line fill="none" stroke="#26B99A" stroke-width="2" stroke-miterlimit="10" x1="42" y1="0" x2="42" y2="-150"/>
				<line fill="none" stroke="#26B99A" stroke-width="2" stroke-miterlimit="10" x1="46" y1="0" x2="46" y2="-150"/>
				<line fill="none" stroke="#26B99A" stroke-width="2" stroke-miterlimit="10" x1="50" y1="0" x2="50" y2="-150"/>
				<line fill="none" stroke="#26B99A" stroke-width="2" stroke-miterlimit="10" x1="54" y1="0" x2="54" y2="-150"/>
				<line fill="none" stroke="#26B99A" stroke-width="2" stroke-miterlimit="10" x1="58" y1="0" x2="58" y2="-150"/>
				<line fill="none" stroke="#26B99A" stroke-width="2" stroke-miterlimit="10" x1="62" y1="0" x2="62" y2="-150"/>
				<line fill="none" stroke="#26B99A" stroke-width="2" stroke-miterlimit="10" x1="66" y1="0" x2="66" y2="-150"/>
				<line fill="none" stroke="#26B99A" stroke-width="2" stroke-miterlimit="10" x1="70" y1="0" x2="70" y2="-150"/>
				<line fill="none" stroke="#26B99A" stroke-width="2" stroke-miterlimit="10" x1="74" y1="0" x2="74" y2="-150"/>
				<line fill="none" stroke="#26B99A" stroke-width="2" stroke-miterlimit="10" x1="78" y1="0" x2="78" y2="-150"/>
				<line fill="none" stroke="#26B99A" stroke-width="2" stroke-miterlimit="10" x1="82" y1="0" x2="82" y2="-150"/>
				<line fill="none" stroke="#26B99A" stroke-width="2" stroke-miterlimit="10" x1="86" y1="0" x2="86" y2="-150"/>
				<line fill="none" stroke="#26B99A" stroke-width="2" stroke-miterlimit="10" x1="90" y1="0" x2="90" y2="-150"/>
				<line fill="none" stroke="#26B99A" stroke-width="2" stroke-miterlimit="10" x1="94" y1="0" x2="94" y2="-150"/>
				<line fill="none" stroke="#26B99A" stroke-width="2" stroke-miterlimit="10" x1="98" y1="0" x2="98" y2="-150"/>
				<line fill="none" stroke="#26B99A" stroke-width="2" stroke-miterlimit="10" x1="102" y1="0" x2="102" y2="-150"/>
				<line fill="none" stroke="#26B99A" stroke-width="2" stroke-miterlimit="10" x1="106" y1="0" x2="106" y2="-150"/>
				<line fill="none" stroke="#26B99A" stroke-width="2" stroke-miterlimit="10" x1="110" y1="0" x2="110" y2="-150"/>
				<line fill="none" stroke="#26B99A" stroke-width="2" stroke-miterlimit="10" x1="114" y1="0" x2="114" y2="-150"/>
				<line fill="none" stroke="#26B99A" stroke-width="2" stroke-miterlimit="10" x1="118" y1="0" x2="118" y2="-150"/>
			</g>
			<g>
				<line fill="none" stroke="#26B99A" stroke-width="2" stroke-miterlimit="10" x1="2" y1="0" x2="2" y2="-150"/>
				<line fill="none" stroke="#26B99A" stroke-width="2" stroke-miterlimit="10" x1="6" y1="0" x2="6" y2="-150"/>
				<line fill="none" stroke="#26B99A" stroke-width="2" stroke-miterlimit="10" x1="10" y1="0" x2="10" y2="-150"/>
				<line fill="none" stroke="#26B99A" stroke-width="2" stroke-miterlimit="10" x1="14" y1="0" x2="14" y2="-150"/>
				<line fill="none" stroke="#26B99A" stroke-width="2" stroke-miterlimit="10" x1="18" y1="0" x2="18" y2="-150"/>
				<line fill="none" stroke="#26B99A" stroke-width="2" stroke-miterlimit="10" x1="22" y1="0" x2="22" y2="-150"/>
				<line fill="none" stroke="#26B99A" stroke-width="2" stroke-miterlimit="10" x1="26" y1="0" x2="26" y2="-150"/>
				<line fill="none" stroke="#26B99A" stroke-width="2" stroke-miterlimit="10" x1="30" y1="0" x2="30" y2="-150"/>
				<line fill="none" stroke="#26B99A" stroke-width="2" stroke-miterlimit="10" x1="34" y1="0" x2="34" y2="-150"/>
				<line fill="none" stroke="#26B99A" stroke-width="2" stroke-miterlimit="10" x1="38" y1="0" x2="38" y2="-150"/>
				<line fill="none" stroke="#26B99A" stroke-width="2" stroke-miterlimit="10" x1="42" y1="0" x2="42" y2="-150"/>
				<line fill="none" stroke="#26B99A" stroke-width="2" stroke-miterlimit="10" x1="46" y1="0" x2="46" y2="-150"/>
				<line fill="none" stroke="#26B99A" stroke-width="2" stroke-miterlimit="10" x1="50" y1="0" x2="50" y2="-150"/>
				<line fill="none" stroke="#26B99A" stroke-width="2" stroke-miterlimit="10" x1="54" y1="0" x2="54" y2="-150"/>
				<line fill="none" stroke="#26B99A" stroke-width="2" stroke-miterlimit="10" x1="58" y1="0" x2="58" y2="-150"/>
				<line fill="none" stroke="#26B99A" stroke-width="2" stroke-miterlimit="10" x1="62" y1="0" x2="62" y2="-150"/>
				<line fill="none" stroke="#26B99A" stroke-width="2" stroke-miterlimit="10" x1="66" y1="0" x2="66" y2="-150"/>
				<line fill="none" stroke="#26B99A" stroke-width="2" stroke-miterlimit="10" x1="70" y1="0" x2="70" y2="-150"/>
			</g>
			<g>
				<line fill="none" stroke="#26B99A" stroke-width="2" stroke-miterlimit="10" x1="2" y1="0" x2="2" y2="-150"/>
				<line fill="none" stroke="#26B99A" stroke-width="2" stroke-miterlimit="10" x1="6" y1="0" x2="6" y2="-150"/>
				<line fill="none" stroke="#26B99A" stroke-width="2" stroke-miterlimit="10" x1="10" y1="0" x2="10" y2="-150"/>
				<line fill="none" stroke="#26B99A" stroke-width="2" stroke-miterlimit="10" x1="14" y1="0" x2="14" y2="-150"/>
				<line fill="none" stroke="#26B99A" stroke-width="2" stroke-miterlimit="10" x1="18" y1="0" x2="18" y2="-150"/>
				<line fill="none" stroke="#26B99A" stroke-width="2" stroke-miterlimit="10" x1="22" y1="0" x2="22" y2="-150"/>
			</g>
		</g>
	</g>
</pattern>
<pattern  x="-394" y="916.062" width="144" height="150" patternUnits="userSpaceOnUse" id="SVGID_3_" viewBox="0 -150 144 150" overflow="visible">
	<g>
		<polygon fill="none" points="0,0 144,0 144,-150 0,-150 		"/>
		<g>
			<polygon fill="none" points="0,0 144,0 144,-150 0,-150 			"/>
			<g>
				<line fill="none" stroke="#26B99A" stroke-width="2" stroke-miterlimit="10" x1="122" y1="0" x2="122" y2="-150"/>
				<line fill="none" stroke="#26B99A" stroke-width="2" stroke-miterlimit="10" x1="126" y1="0" x2="126" y2="-150"/>
				<line fill="none" stroke="#26B99A" stroke-width="2" stroke-miterlimit="10" x1="130" y1="0" x2="130" y2="-150"/>
				<line fill="none" stroke="#26B99A" stroke-width="2" stroke-miterlimit="10" x1="134" y1="0" x2="134" y2="-150"/>
				<line fill="none" stroke="#26B99A" stroke-width="2" stroke-miterlimit="10" x1="138" y1="0" x2="138" y2="-150"/>
				<line fill="none" stroke="#26B99A" stroke-width="2" stroke-miterlimit="10" x1="142" y1="0" x2="142" y2="-150"/>
			</g>
			<g>
				<line fill="none" stroke="#26B99A" stroke-width="2" stroke-miterlimit="10" x1="74" y1="0" x2="74" y2="-150"/>
				<line fill="none" stroke="#26B99A" stroke-width="2" stroke-miterlimit="10" x1="78" y1="0" x2="78" y2="-150"/>
				<line fill="none" stroke="#26B99A" stroke-width="2" stroke-miterlimit="10" x1="82" y1="0" x2="82" y2="-150"/>
				<line fill="none" stroke="#26B99A" stroke-width="2" stroke-miterlimit="10" x1="86" y1="0" x2="86" y2="-150"/>
				<line fill="none" stroke="#26B99A" stroke-width="2" stroke-miterlimit="10" x1="90" y1="0" x2="90" y2="-150"/>
				<line fill="none" stroke="#26B99A" stroke-width="2" stroke-miterlimit="10" x1="94" y1="0" x2="94" y2="-150"/>
				<line fill="none" stroke="#26B99A" stroke-width="2" stroke-miterlimit="10" x1="98" y1="0" x2="98" y2="-150"/>
				<line fill="none" stroke="#26B99A" stroke-width="2" stroke-miterlimit="10" x1="102" y1="0" x2="102" y2="-150"/>
				<line fill="none" stroke="#26B99A" stroke-width="2" stroke-miterlimit="10" x1="106" y1="0" x2="106" y2="-150"/>
				<line fill="none" stroke="#26B99A" stroke-width="2" stroke-miterlimit="10" x1="110" y1="0" x2="110" y2="-150"/>
				<line fill="none" stroke="#26B99A" stroke-width="2" stroke-miterlimit="10" x1="114" y1="0" x2="114" y2="-150"/>
				<line fill="none" stroke="#26B99A" stroke-width="2" stroke-miterlimit="10" x1="118" y1="0" x2="118" y2="-150"/>
				<line fill="none" stroke="#26B99A" stroke-width="2" stroke-miterlimit="10" x1="122" y1="0" x2="122" y2="-150"/>
				<line fill="none" stroke="#26B99A" stroke-width="2" stroke-miterlimit="10" x1="126" y1="0" x2="126" y2="-150"/>
				<line fill="none" stroke="#26B99A" stroke-width="2" stroke-miterlimit="10" x1="130" y1="0" x2="130" y2="-150"/>
				<line fill="none" stroke="#26B99A" stroke-width="2" stroke-miterlimit="10" x1="134" y1="0" x2="134" y2="-150"/>
				<line fill="none" stroke="#26B99A" stroke-width="2" stroke-miterlimit="10" x1="138" y1="0" x2="138" y2="-150"/>
				<line fill="none" stroke="#26B99A" stroke-width="2" stroke-miterlimit="10" x1="142" y1="0" x2="142" y2="-150"/>
			</g>
			<g>
				<line fill="none" stroke="#26B99A" stroke-width="2" stroke-miterlimit="10" x1="26" y1="0" x2="26" y2="-150"/>
				<line fill="none" stroke="#26B99A" stroke-width="2" stroke-miterlimit="10" x1="30" y1="0" x2="30" y2="-150"/>
				<line fill="none" stroke="#26B99A" stroke-width="2" stroke-miterlimit="10" x1="34" y1="0" x2="34" y2="-150"/>
				<line fill="none" stroke="#26B99A" stroke-width="2" stroke-miterlimit="10" x1="38" y1="0" x2="38" y2="-150"/>
				<line fill="none" stroke="#26B99A" stroke-width="2" stroke-miterlimit="10" x1="42" y1="0" x2="42" y2="-150"/>
				<line fill="none" stroke="#26B99A" stroke-width="2" stroke-miterlimit="10" x1="46" y1="0" x2="46" y2="-150"/>
				<line fill="none" stroke="#26B99A" stroke-width="2" stroke-miterlimit="10" x1="50" y1="0" x2="50" y2="-150"/>
				<line fill="none" stroke="#26B99A" stroke-width="2" stroke-miterlimit="10" x1="54" y1="0" x2="54" y2="-150"/>
				<line fill="none" stroke="#26B99A" stroke-width="2" stroke-miterlimit="10" x1="58" y1="0" x2="58" y2="-150"/>
				<line fill="none" stroke="#26B99A" stroke-width="2" stroke-miterlimit="10" x1="62" y1="0" x2="62" y2="-150"/>
				<line fill="none" stroke="#26B99A" stroke-width="2" stroke-miterlimit="10" x1="66" y1="0" x2="66" y2="-150"/>
				<line fill="none" stroke="#26B99A" stroke-width="2" stroke-miterlimit="10" x1="70" y1="0" x2="70" y2="-150"/>
				<line fill="none" stroke="#26B99A" stroke-width="2" stroke-miterlimit="10" x1="74" y1="0" x2="74" y2="-150"/>
				<line fill="none" stroke="#26B99A" stroke-width="2" stroke-miterlimit="10" x1="78" y1="0" x2="78" y2="-150"/>
				<line fill="none" stroke="#26B99A" stroke-width="2" stroke-miterlimit="10" x1="82" y1="0" x2="82" y2="-150"/>
				<line fill="none" stroke="#26B99A" stroke-width="2" stroke-miterlimit="10" x1="86" y1="0" x2="86" y2="-150"/>
				<line fill="none" stroke="#26B99A" stroke-width="2" stroke-miterlimit="10" x1="90" y1="0" x2="90" y2="-150"/>
				<line fill="none" stroke="#26B99A" stroke-width="2" stroke-miterlimit="10" x1="94" y1="0" x2="94" y2="-150"/>
				<line fill="none" stroke="#26B99A" stroke-width="2" stroke-miterlimit="10" x1="98" y1="0" x2="98" y2="-150"/>
				<line fill="none" stroke="#26B99A" stroke-width="2" stroke-miterlimit="10" x1="102" y1="0" x2="102" y2="-150"/>
				<line fill="none" stroke="#26B99A" stroke-width="2" stroke-miterlimit="10" x1="106" y1="0" x2="106" y2="-150"/>
				<line fill="none" stroke="#26B99A" stroke-width="2" stroke-miterlimit="10" x1="110" y1="0" x2="110" y2="-150"/>
				<line fill="none" stroke="#26B99A" stroke-width="2" stroke-miterlimit="10" x1="114" y1="0" x2="114" y2="-150"/>
				<line fill="none" stroke="#26B99A" stroke-width="2" stroke-miterlimit="10" x1="118" y1="0" x2="118" y2="-150"/>
			</g>
			<g>
				<line fill="none" stroke="#26B99A" stroke-width="2" stroke-miterlimit="10" x1="2" y1="0" x2="2" y2="-150"/>
				<line fill="none" stroke="#26B99A" stroke-width="2" stroke-miterlimit="10" x1="6" y1="0" x2="6" y2="-150"/>
				<line fill="none" stroke="#26B99A" stroke-width="2" stroke-miterlimit="10" x1="10" y1="0" x2="10" y2="-150"/>
				<line fill="none" stroke="#26B99A" stroke-width="2" stroke-miterlimit="10" x1="14" y1="0" x2="14" y2="-150"/>
				<line fill="none" stroke="#26B99A" stroke-width="2" stroke-miterlimit="10" x1="18" y1="0" x2="18" y2="-150"/>
				<line fill="none" stroke="#26B99A" stroke-width="2" stroke-miterlimit="10" x1="22" y1="0" x2="22" y2="-150"/>
				<line fill="none" stroke="#26B99A" stroke-width="2" stroke-miterlimit="10" x1="26" y1="0" x2="26" y2="-150"/>
				<line fill="none" stroke="#26B99A" stroke-width="2" stroke-miterlimit="10" x1="30" y1="0" x2="30" y2="-150"/>
				<line fill="none" stroke="#26B99A" stroke-width="2" stroke-miterlimit="10" x1="34" y1="0" x2="34" y2="-150"/>
				<line fill="none" stroke="#26B99A" stroke-width="2" stroke-miterlimit="10" x1="38" y1="0" x2="38" y2="-150"/>
				<line fill="none" stroke="#26B99A" stroke-width="2" stroke-miterlimit="10" x1="42" y1="0" x2="42" y2="-150"/>
				<line fill="none" stroke="#26B99A" stroke-width="2" stroke-miterlimit="10" x1="46" y1="0" x2="46" y2="-150"/>
				<line fill="none" stroke="#26B99A" stroke-width="2" stroke-miterlimit="10" x1="50" y1="0" x2="50" y2="-150"/>
				<line fill="none" stroke="#26B99A" stroke-width="2" stroke-miterlimit="10" x1="54" y1="0" x2="54" y2="-150"/>
				<line fill="none" stroke="#26B99A" stroke-width="2" stroke-miterlimit="10" x1="58" y1="0" x2="58" y2="-150"/>
				<line fill="none" stroke="#26B99A" stroke-width="2" stroke-miterlimit="10" x1="62" y1="0" x2="62" y2="-150"/>
				<line fill="none" stroke="#26B99A" stroke-width="2" stroke-miterlimit="10" x1="66" y1="0" x2="66" y2="-150"/>
				<line fill="none" stroke="#26B99A" stroke-width="2" stroke-miterlimit="10" x1="70" y1="0" x2="70" y2="-150"/>
			</g>
			<g>
				<line fill="none" stroke="#26B99A" stroke-width="2" stroke-miterlimit="10" x1="2" y1="0" x2="2" y2="-150"/>
				<line fill="none" stroke="#26B99A" stroke-width="2" stroke-miterlimit="10" x1="6" y1="0" x2="6" y2="-150"/>
				<line fill="none" stroke="#26B99A" stroke-width="2" stroke-miterlimit="10" x1="10" y1="0" x2="10" y2="-150"/>
				<line fill="none" stroke="#26B99A" stroke-width="2" stroke-miterlimit="10" x1="14" y1="0" x2="14" y2="-150"/>
				<line fill="none" stroke="#26B99A" stroke-width="2" stroke-miterlimit="10" x1="18" y1="0" x2="18" y2="-150"/>
				<line fill="none" stroke="#26B99A" stroke-width="2" stroke-miterlimit="10" x1="22" y1="0" x2="22" y2="-150"/>
			</g>
		</g>
	</g>
</pattern>
<g id="background">
</g>
<g id="Layer_1_1_">
	<g>
		<rect y="-0.877" opacity="0.99" fill="#14A085" enable-background="new    " width="1131" height="302.062"/>
		<polygon opacity="0.99" fill="#14A085" enable-background="new    " points="-1,449.123 703.68,449.123 828,298.72 828,149.123 
			-1,149.123 		"/>
		<rect x="681" y="299.123" opacity="0.98" fill="#14A085" enable-background="new    " width="450" height="150"/>
		<rect x="830" y="149.123" opacity="0.9" fill="#14A085" enable-background="new    " width="301" height="150"/>
		<rect x="681" y="-0.877" opacity="0.7" fill="#14A085" enable-background="new    " width="450" height="150"/>
		<pattern  id="SVGID_4_" xlink:href="#SVGID_1_" patternTransform="matrix(1 0 0 -1 1788.9805 -21035.168)">
		</pattern>
		<polyline opacity="0.1" fill="url(#SVGID_4_)" enable-background="new    " points="595,149.123 595,-0.877 745,-0.877 		"/>
		<pattern  id="SVGID_5_" xlink:href="#SVGID_2_" patternTransform="matrix(1 0 0 -1 1782.9805 -19835.6582)">
		</pattern>
		<polyline opacity="0.1" fill="url(#SVGID_5_)" enable-background="new    " points="445,299.123 445,149.123 595,149.123 		"/>
		<rect x="828" y="149.123" opacity="0.83" fill="#14A085" enable-background="new    " width="301" height="150"/>
		<polyline opacity="0.8" fill="#14A085" enable-background="new    " points="827.99,299.123 978.98,149.123 828,149.123 		"/>
		<polyline fill="#14A085" points="595.99,-0.877 446.98,149.123 594,149.123 		"/>
		<polyline opacity="0.05" fill="#26B99A" enable-background="new    " points="445.99,298.123 296.98,448.123 444,448.123 		"/>
		<pattern  id="SVGID_6_" xlink:href="#SVGID_3_" patternTransform="matrix(1 0 0 -1 1630.9805 -19686.6582)">
		</pattern>
		<polyline opacity="0.2" fill="url(#SVGID_6_)" enable-background="new    " points="299.99,299.123 150.98,449.123 298,449.123 		
			"/>
		<rect x="979" y="299.123" opacity="0.2" fill="#14A085" enable-background="new    " width="75" height="75"/>
		<rect x="1055" y="299.123" opacity="0.6" fill="#14A085" enable-background="new    " width="76" height="75"/>
		<rect x="979" y="374.123" opacity="0.8" fill="#14A085" enable-background="new    " width="75" height="75"/>
		<rect x="1055" y="374.123" fill="#14A085" width="76" height="75"/>
		<g opacity="0.7">
			<polyline opacity="0.4" fill="#26B99A" enable-background="new    " points="981,-0.829 1131,149.22 1131,0.123 			"/>
		</g>
		<rect x="295" y="-0.877" opacity="0.1" fill="#26B99A" enable-background="new    " width="150" height="150"/>
		<rect x="596" y="150.123" opacity="0.05" fill="#26B99A" enable-background="new    " width="150" height="150"/>
		<g>
			<g opacity="0.8">
				<g>
					
						<linearGradient id="SVGID_7_" gradientUnits="userSpaceOnUse" x1="-3720.6875" y1="386.9385" x2="-3420.8691" y2="386.9385" gradientTransform="matrix(-1 0 0 -1 -2589.4277 986.123)">
						<stop  offset="0" style="stop-color:#14A085;stop-opacity:0.2"/>
						<stop  offset="1" style="stop-color:#14A085;stop-opacity:0.7"/>
					</linearGradient>
					<polyline opacity="0.1" fill="url(#SVGID_7_)" enable-background="new    " points="1131.26,749.246 831.441,449.123 
						1131,449.123 					"/>
					
						<linearGradient id="SVGID_8_" gradientUnits="userSpaceOnUse" x1="-3720.4277" y1="461.9609" x2="-3420.8691" y2="461.9609" gradientTransform="matrix(-1 0 0 -1 -2589.4277 986.123)">
						<stop  offset="0" style="stop-color:#14A085;stop-opacity:0.2"/>
						<stop  offset="1" style="stop-color:#14A085;stop-opacity:0.7"/>
					</linearGradient>
					<polyline opacity="0.1" fill="url(#SVGID_8_)" enable-background="new    " points="981.215,599.201 831.441,449.123 
						1131,449.123 					"/>
				</g>
			</g>
		</g>
	</g>
</g>
</svg>
