<?xml version="1.0" encoding="utf-8"?>
<!-- Generator: Adobe Illustrator 16.0.0, SVG Export Plug-In . SVG Version: 6.00 Build 0)  -->
<!DOCTYPE svg PUBLIC "-//W3C//DTD SVG 1.1//EN" "http://www.w3.org/Graphics/SVG/1.1/DTD/svg11.dtd">
<svg version="1.1" id="Layer_1" xmlns="http://www.w3.org/2000/svg" xmlns:xlink="http://www.w3.org/1999/xlink" x="0px" y="0px"
	 width="1131px" height="599.123px" viewBox="0 0 1131 599.123" enable-background="new 0 0 1131 599.123" xml:space="preserve">
<pattern  x="-394" y="840.062" width="144" height="150" patternUnits="userSpaceOnUse" id="SVGID_3_" viewBox="0 -150 144 150" overflow="visible">
	<g>
		<polygon fill="none" points="0,0 144,0 144,-150 0,-150 		"/>
		<g>
			<polygon fill="none" points="0,-150 144,-150 144,0 0,0 			"/>
			<g>
				<polygon fill="none" points="0,0 144,0 144,-150 0,-150 				"/>
				<g>
					<polygon fill="none" points="0,0 144,0 144,-150 0,-150 					"/>
					<g>
						<line fill="none" stroke="#26B99A" stroke-width="2" stroke-miterlimit="10" x1="122" y1="0" x2="122" y2="-150"/>
						<line fill="none" stroke="#E64C3C" stroke-width="2" stroke-miterlimit="10" x1="126" y1="0" x2="126" y2="-150"/>
						<line fill="none" stroke="#E64C3C" stroke-width="2" stroke-miterlimit="10" x1="130" y1="0" x2="130" y2="-150"/>
						<line fill="none" stroke="#E64C3C" stroke-width="2" stroke-miterlimit="10" x1="134" y1="0" x2="134" y2="-150"/>
						<line fill="none" stroke="#E64C3C" stroke-width="2" stroke-miterlimit="10" x1="138" y1="0" x2="138" y2="-150"/>
						<line fill="none" stroke="#E64C3C" stroke-width="2" stroke-miterlimit="10" x1="142" y1="0" x2="142" y2="-150"/>
					</g>
					<g>
						<line fill="none" stroke="#26B99A" stroke-width="2" stroke-miterlimit="10" x1="74" y1="0" x2="74" y2="-150"/>
						<line fill="none" stroke="#E64C3C" stroke-width="2" stroke-miterlimit="10" x1="78" y1="0" x2="78" y2="-150"/>
						<line fill="none" stroke="#E64C3C" stroke-width="2" stroke-miterlimit="10" x1="82" y1="0" x2="82" y2="-150"/>
						<line fill="none" stroke="#E64C3C" stroke-width="2" stroke-miterlimit="10" x1="86" y1="0" x2="86" y2="-150"/>
						<line fill="none" stroke="#E64C3C" stroke-width="2" stroke-miterlimit="10" x1="90" y1="0" x2="90" y2="-150"/>
						<line fill="none" stroke="#E64C3C" stroke-width="2" stroke-miterlimit="10" x1="94" y1="0" x2="94" y2="-150"/>
						<line fill="none" stroke="#E64C3C" stroke-width="2" stroke-miterlimit="10" x1="98" y1="0" x2="98" y2="-150"/>
						<line fill="none" stroke="#E64C3C" stroke-width="2" stroke-miterlimit="10" x1="102" y1="0" x2="102" y2="-150"/>
						<line fill="none" stroke="#E64C3C" stroke-width="2" stroke-miterlimit="10" x1="106" y1="0" x2="106" y2="-150"/>
						<line fill="none" stroke="#E64C3C" stroke-width="2" stroke-miterlimit="10" x1="110" y1="0" x2="110" y2="-150"/>
						<line fill="none" stroke="#E64C3C" stroke-width="2" stroke-miterlimit="10" x1="114" y1="0" x2="114" y2="-150"/>
						<line fill="none" stroke="#E64C3C" stroke-width="2" stroke-miterlimit="10" x1="118" y1="0" x2="118" y2="-150"/>
						<line fill="none" stroke="#E64C3C" stroke-width="2" stroke-miterlimit="10" x1="122" y1="0" x2="122" y2="-150"/>
						<line fill="none" stroke="#E64C3C" stroke-width="2" stroke-miterlimit="10" x1="126" y1="0" x2="126" y2="-150"/>
						<line fill="none" stroke="#E64C3C" stroke-width="2" stroke-miterlimit="10" x1="130" y1="0" x2="130" y2="-150"/>
						<line fill="none" stroke="#E64C3C" stroke-width="2" stroke-miterlimit="10" x1="134" y1="0" x2="134" y2="-150"/>
						<line fill="none" stroke="#E64C3C" stroke-width="2" stroke-miterlimit="10" x1="138" y1="0" x2="138" y2="-150"/>
						<line fill="none" stroke="#E64C3C" stroke-width="2" stroke-miterlimit="10" x1="142" y1="0" x2="142" y2="-150"/>
					</g>
					<g>
						<line fill="none" stroke="#26B99A" stroke-width="2" stroke-miterlimit="10" x1="26" y1="0" x2="26" y2="-150"/>
						<line fill="none" stroke="#E64C3C" stroke-width="2" stroke-miterlimit="10" x1="30" y1="0" x2="30" y2="-150"/>
						<line fill="none" stroke="#E64C3C" stroke-width="2" stroke-miterlimit="10" x1="34" y1="0" x2="34" y2="-150"/>
						<line fill="none" stroke="#E64C3C" stroke-width="2" stroke-miterlimit="10" x1="38" y1="0" x2="38" y2="-150"/>
						<line fill="none" stroke="#E64C3C" stroke-width="2" stroke-miterlimit="10" x1="42" y1="0" x2="42" y2="-150"/>
						<line fill="none" stroke="#E64C3C" stroke-width="2" stroke-miterlimit="10" x1="46" y1="0" x2="46" y2="-150"/>
						<line fill="none" stroke="#E64C3C" stroke-width="2" stroke-miterlimit="10" x1="50" y1="0" x2="50" y2="-150"/>
						<line fill="none" stroke="#E64C3C" stroke-width="2" stroke-miterlimit="10" x1="54" y1="0" x2="54" y2="-150"/>
						<line fill="none" stroke="#E64C3C" stroke-width="2" stroke-miterlimit="10" x1="58" y1="0" x2="58" y2="-150"/>
						<line fill="none" stroke="#E64C3C" stroke-width="2" stroke-miterlimit="10" x1="62" y1="0" x2="62" y2="-150"/>
						<line fill="none" stroke="#E64C3C" stroke-width="2" stroke-miterlimit="10" x1="66" y1="0" x2="66" y2="-150"/>
						<line fill="none" stroke="#E64C3C" stroke-width="2" stroke-miterlimit="10" x1="70" y1="0" x2="70" y2="-150"/>
						<line fill="none" stroke="#E64C3C" stroke-width="2" stroke-miterlimit="10" x1="74" y1="0" x2="74" y2="-150"/>
						<line fill="none" stroke="#E64C3C" stroke-width="2" stroke-miterlimit="10" x1="78" y1="0" x2="78" y2="-150"/>
						<line fill="none" stroke="#E64C3C" stroke-width="2" stroke-miterlimit="10" x1="82" y1="0" x2="82" y2="-150"/>
						<line fill="none" stroke="#E64C3C" stroke-width="2" stroke-miterlimit="10" x1="86" y1="0" x2="86" y2="-150"/>
						<line fill="none" stroke="#E64C3C" stroke-width="2" stroke-miterlimit="10" x1="90" y1="0" x2="90" y2="-150"/>
						<line fill="none" stroke="#E64C3C" stroke-width="2" stroke-miterlimit="10" x1="94" y1="0" x2="94" y2="-150"/>
						<line fill="none" stroke="#E64C3C" stroke-width="2" stroke-miterlimit="10" x1="98" y1="0" x2="98" y2="-150"/>
						<line fill="none" stroke="#E64C3C" stroke-width="2" stroke-miterlimit="10" x1="102" y1="0" x2="102" y2="-150"/>
						<line fill="none" stroke="#E64C3C" stroke-width="2" stroke-miterlimit="10" x1="106" y1="0" x2="106" y2="-150"/>
						<line fill="none" stroke="#E64C3C" stroke-width="2" stroke-miterlimit="10" x1="110" y1="0" x2="110" y2="-150"/>
						<line fill="none" stroke="#E64C3C" stroke-width="2" stroke-miterlimit="10" x1="114" y1="0" x2="114" y2="-150"/>
						<line fill="none" stroke="#E64C3C" stroke-width="2" stroke-miterlimit="10" x1="118" y1="0" x2="118" y2="-150"/>
					</g>
					<g>
						<line fill="none" stroke="#E64C3C" stroke-width="2" stroke-miterlimit="10" x1="2" y1="0" x2="2" y2="-150"/>
						<line fill="none" stroke="#E64C3C" stroke-width="2" stroke-miterlimit="10" x1="6" y1="0" x2="6" y2="-150"/>
						<line fill="none" stroke="#E64C3C" stroke-width="2" stroke-miterlimit="10" x1="10" y1="0" x2="10" y2="-150"/>
						<line fill="none" stroke="#E64C3C" stroke-width="2" stroke-miterlimit="10" x1="14" y1="0" x2="14" y2="-150"/>
						<line fill="none" stroke="#E64C3C" stroke-width="2" stroke-miterlimit="10" x1="18" y1="0" x2="18" y2="-150"/>
						<line fill="none" stroke="#E64C3C" stroke-width="2" stroke-miterlimit="10" x1="22" y1="0" x2="22" y2="-150"/>
						<line fill="none" stroke="#E64C3C" stroke-width="2" stroke-miterlimit="10" x1="26" y1="0" x2="26" y2="-150"/>
						<line fill="none" stroke="#E64C3C" stroke-width="2" stroke-miterlimit="10" x1="30" y1="0" x2="30" y2="-150"/>
						<line fill="none" stroke="#E64C3C" stroke-width="2" stroke-miterlimit="10" x1="34" y1="0" x2="34" y2="-150"/>
						<line fill="none" stroke="#E64C3C" stroke-width="2" stroke-miterlimit="10" x1="38" y1="0" x2="38" y2="-150"/>
						<line fill="none" stroke="#E64C3C" stroke-width="2" stroke-miterlimit="10" x1="42" y1="0" x2="42" y2="-150"/>
						<line fill="none" stroke="#E64C3C" stroke-width="2" stroke-miterlimit="10" x1="46" y1="0" x2="46" y2="-150"/>
						<line fill="none" stroke="#E64C3C" stroke-width="2" stroke-miterlimit="10" x1="50" y1="0" x2="50" y2="-150"/>
						<line fill="none" stroke="#E64C3C" stroke-width="2" stroke-miterlimit="10" x1="54" y1="0" x2="54" y2="-150"/>
						<line fill="none" stroke="#E64C3C" stroke-width="2" stroke-miterlimit="10" x1="58" y1="0" x2="58" y2="-150"/>
						<line fill="none" stroke="#E64C3C" stroke-width="2" stroke-miterlimit="10" x1="62" y1="0" x2="62" y2="-150"/>
						<line fill="none" stroke="#E64C3C" stroke-width="2" stroke-miterlimit="10" x1="66" y1="0" x2="66" y2="-150"/>
						<line fill="none" stroke="#E64C3C" stroke-width="2" stroke-miterlimit="10" x1="70" y1="0" x2="70" y2="-150"/>
					</g>
					<g>
						<line fill="none" stroke="#E64C3C" stroke-width="2" stroke-miterlimit="10" x1="2" y1="0" x2="2" y2="-150"/>
						<line fill="none" stroke="#E64C3C" stroke-width="2" stroke-miterlimit="10" x1="6" y1="0" x2="6" y2="-150"/>
						<line fill="none" stroke="#E64C3C" stroke-width="2" stroke-miterlimit="10" x1="10" y1="0" x2="10" y2="-150"/>
						<line fill="none" stroke="#E64C3C" stroke-width="2" stroke-miterlimit="10" x1="14" y1="0" x2="14" y2="-150"/>
						<line fill="none" stroke="#E64C3C" stroke-width="2" stroke-miterlimit="10" x1="18" y1="0" x2="18" y2="-150"/>
						<line fill="none" stroke="#E64C3C" stroke-width="2" stroke-miterlimit="10" x1="22" y1="0" x2="22" y2="-150"/>
					</g>
				</g>
			</g>
		</g>
	</g>
</pattern>
<pattern  x="-394" y="840.062" width="144" height="150" patternUnits="userSpaceOnUse" id="SVGID_4_" viewBox="0 -150 144 150" overflow="visible">
	<g>
		<polygon fill="none" points="0,0 144,0 144,-150 0,-150 		"/>
		<g>
			<polygon fill="none" points="0,-150 144,-150 144,0 0,0 			"/>
			<g>
				<polygon fill="none" points="0,0 144,0 144,-150 0,-150 				"/>
				<g>
					<polygon fill="none" points="0,0 144,0 144,-150 0,-150 					"/>
					<g>
						<line fill="none" stroke="#26B99A" stroke-width="2" stroke-miterlimit="10" x1="122" y1="0" x2="122" y2="-150"/>
						<line fill="none" stroke="#E64C3C" stroke-width="2" stroke-miterlimit="10" x1="126" y1="0" x2="126" y2="-150"/>
						<line fill="none" stroke="#E64C3C" stroke-width="2" stroke-miterlimit="10" x1="130" y1="0" x2="130" y2="-150"/>
						<line fill="none" stroke="#E64C3C" stroke-width="2" stroke-miterlimit="10" x1="134" y1="0" x2="134" y2="-150"/>
						<line fill="none" stroke="#E64C3C" stroke-width="2" stroke-miterlimit="10" x1="138" y1="0" x2="138" y2="-150"/>
						<line fill="none" stroke="#E64C3C" stroke-width="2" stroke-miterlimit="10" x1="142" y1="0" x2="142" y2="-150"/>
					</g>
					<g>
						<line fill="none" stroke="#26B99A" stroke-width="2" stroke-miterlimit="10" x1="74" y1="0" x2="74" y2="-150"/>
						<line fill="none" stroke="#E64C3C" stroke-width="2" stroke-miterlimit="10" x1="78" y1="0" x2="78" y2="-150"/>
						<line fill="none" stroke="#E64C3C" stroke-width="2" stroke-miterlimit="10" x1="82" y1="0" x2="82" y2="-150"/>
						<line fill="none" stroke="#E64C3C" stroke-width="2" stroke-miterlimit="10" x1="86" y1="0" x2="86" y2="-150"/>
						<line fill="none" stroke="#E64C3C" stroke-width="2" stroke-miterlimit="10" x1="90" y1="0" x2="90" y2="-150"/>
						<line fill="none" stroke="#E64C3C" stroke-width="2" stroke-miterlimit="10" x1="94" y1="0" x2="94" y2="-150"/>
						<line fill="none" stroke="#E64C3C" stroke-width="2" stroke-miterlimit="10" x1="98" y1="0" x2="98" y2="-150"/>
						<line fill="none" stroke="#E64C3C" stroke-width="2" stroke-miterlimit="10" x1="102" y1="0" x2="102" y2="-150"/>
						<line fill="none" stroke="#E64C3C" stroke-width="2" stroke-miterlimit="10" x1="106" y1="0" x2="106" y2="-150"/>
						<line fill="none" stroke="#E64C3C" stroke-width="2" stroke-miterlimit="10" x1="110" y1="0" x2="110" y2="-150"/>
						<line fill="none" stroke="#E64C3C" stroke-width="2" stroke-miterlimit="10" x1="114" y1="0" x2="114" y2="-150"/>
						<line fill="none" stroke="#E64C3C" stroke-width="2" stroke-miterlimit="10" x1="118" y1="0" x2="118" y2="-150"/>
						<line fill="none" stroke="#E64C3C" stroke-width="2" stroke-miterlimit="10" x1="122" y1="0" x2="122" y2="-150"/>
						<line fill="none" stroke="#E64C3C" stroke-width="2" stroke-miterlimit="10" x1="126" y1="0" x2="126" y2="-150"/>
						<line fill="none" stroke="#E64C3C" stroke-width="2" stroke-miterlimit="10" x1="130" y1="0" x2="130" y2="-150"/>
						<line fill="none" stroke="#E64C3C" stroke-width="2" stroke-miterlimit="10" x1="134" y1="0" x2="134" y2="-150"/>
						<line fill="none" stroke="#E64C3C" stroke-width="2" stroke-miterlimit="10" x1="138" y1="0" x2="138" y2="-150"/>
						<line fill="none" stroke="#E64C3C" stroke-width="2" stroke-miterlimit="10" x1="142" y1="0" x2="142" y2="-150"/>
					</g>
					<g>
						<line fill="none" stroke="#26B99A" stroke-width="2" stroke-miterlimit="10" x1="26" y1="0" x2="26" y2="-150"/>
						<line fill="none" stroke="#E64C3C" stroke-width="2" stroke-miterlimit="10" x1="30" y1="0" x2="30" y2="-150"/>
						<line fill="none" stroke="#E64C3C" stroke-width="2" stroke-miterlimit="10" x1="34" y1="0" x2="34" y2="-150"/>
						<line fill="none" stroke="#E64C3C" stroke-width="2" stroke-miterlimit="10" x1="38" y1="0" x2="38" y2="-150"/>
						<line fill="none" stroke="#E64C3C" stroke-width="2" stroke-miterlimit="10" x1="42" y1="0" x2="42" y2="-150"/>
						<line fill="none" stroke="#E64C3C" stroke-width="2" stroke-miterlimit="10" x1="46" y1="0" x2="46" y2="-150"/>
						<line fill="none" stroke="#E64C3C" stroke-width="2" stroke-miterlimit="10" x1="50" y1="0" x2="50" y2="-150"/>
						<line fill="none" stroke="#E64C3C" stroke-width="2" stroke-miterlimit="10" x1="54" y1="0" x2="54" y2="-150"/>
						<line fill="none" stroke="#E64C3C" stroke-width="2" stroke-miterlimit="10" x1="58" y1="0" x2="58" y2="-150"/>
						<line fill="none" stroke="#E64C3C" stroke-width="2" stroke-miterlimit="10" x1="62" y1="0" x2="62" y2="-150"/>
						<line fill="none" stroke="#E64C3C" stroke-width="2" stroke-miterlimit="10" x1="66" y1="0" x2="66" y2="-150"/>
						<line fill="none" stroke="#E64C3C" stroke-width="2" stroke-miterlimit="10" x1="70" y1="0" x2="70" y2="-150"/>
						<line fill="none" stroke="#E64C3C" stroke-width="2" stroke-miterlimit="10" x1="74" y1="0" x2="74" y2="-150"/>
						<line fill="none" stroke="#E64C3C" stroke-width="2" stroke-miterlimit="10" x1="78" y1="0" x2="78" y2="-150"/>
						<line fill="none" stroke="#E64C3C" stroke-width="2" stroke-miterlimit="10" x1="82" y1="0" x2="82" y2="-150"/>
						<line fill="none" stroke="#E64C3C" stroke-width="2" stroke-miterlimit="10" x1="86" y1="0" x2="86" y2="-150"/>
						<line fill="none" stroke="#E64C3C" stroke-width="2" stroke-miterlimit="10" x1="90" y1="0" x2="90" y2="-150"/>
						<line fill="none" stroke="#E64C3C" stroke-width="2" stroke-miterlimit="10" x1="94" y1="0" x2="94" y2="-150"/>
						<line fill="none" stroke="#E64C3C" stroke-width="2" stroke-miterlimit="10" x1="98" y1="0" x2="98" y2="-150"/>
						<line fill="none" stroke="#E64C3C" stroke-width="2" stroke-miterlimit="10" x1="102" y1="0" x2="102" y2="-150"/>
						<line fill="none" stroke="#E64C3C" stroke-width="2" stroke-miterlimit="10" x1="106" y1="0" x2="106" y2="-150"/>
						<line fill="none" stroke="#E64C3C" stroke-width="2" stroke-miterlimit="10" x1="110" y1="0" x2="110" y2="-150"/>
						<line fill="none" stroke="#E64C3C" stroke-width="2" stroke-miterlimit="10" x1="114" y1="0" x2="114" y2="-150"/>
						<line fill="none" stroke="#E64C3C" stroke-width="2" stroke-miterlimit="10" x1="118" y1="0" x2="118" y2="-150"/>
					</g>
					<g>
						<line fill="none" stroke="#E64C3C" stroke-width="2" stroke-miterlimit="10" x1="2" y1="0" x2="2" y2="-150"/>
						<line fill="none" stroke="#E64C3C" stroke-width="2" stroke-miterlimit="10" x1="6" y1="0" x2="6" y2="-150"/>
						<line fill="none" stroke="#E64C3C" stroke-width="2" stroke-miterlimit="10" x1="10" y1="0" x2="10" y2="-150"/>
						<line fill="none" stroke="#E64C3C" stroke-width="2" stroke-miterlimit="10" x1="14" y1="0" x2="14" y2="-150"/>
						<line fill="none" stroke="#E64C3C" stroke-width="2" stroke-miterlimit="10" x1="18" y1="0" x2="18" y2="-150"/>
						<line fill="none" stroke="#E64C3C" stroke-width="2" stroke-miterlimit="10" x1="22" y1="0" x2="22" y2="-150"/>
						<line fill="none" stroke="#E64C3C" stroke-width="2" stroke-miterlimit="10" x1="26" y1="0" x2="26" y2="-150"/>
						<line fill="none" stroke="#E64C3C" stroke-width="2" stroke-miterlimit="10" x1="30" y1="0" x2="30" y2="-150"/>
						<line fill="none" stroke="#E64C3C" stroke-width="2" stroke-miterlimit="10" x1="34" y1="0" x2="34" y2="-150"/>
						<line fill="none" stroke="#E64C3C" stroke-width="2" stroke-miterlimit="10" x1="38" y1="0" x2="38" y2="-150"/>
						<line fill="none" stroke="#E64C3C" stroke-width="2" stroke-miterlimit="10" x1="42" y1="0" x2="42" y2="-150"/>
						<line fill="none" stroke="#E64C3C" stroke-width="2" stroke-miterlimit="10" x1="46" y1="0" x2="46" y2="-150"/>
						<line fill="none" stroke="#E64C3C" stroke-width="2" stroke-miterlimit="10" x1="50" y1="0" x2="50" y2="-150"/>
						<line fill="none" stroke="#E64C3C" stroke-width="2" stroke-miterlimit="10" x1="54" y1="0" x2="54" y2="-150"/>
						<line fill="none" stroke="#E64C3C" stroke-width="2" stroke-miterlimit="10" x1="58" y1="0" x2="58" y2="-150"/>
						<line fill="none" stroke="#E64C3C" stroke-width="2" stroke-miterlimit="10" x1="62" y1="0" x2="62" y2="-150"/>
						<line fill="none" stroke="#E64C3C" stroke-width="2" stroke-miterlimit="10" x1="66" y1="0" x2="66" y2="-150"/>
						<line fill="none" stroke="#E64C3C" stroke-width="2" stroke-miterlimit="10" x1="70" y1="0" x2="70" y2="-150"/>
					</g>
					<g>
						<line fill="none" stroke="#E64C3C" stroke-width="2" stroke-miterlimit="10" x1="2" y1="0" x2="2" y2="-150"/>
						<line fill="none" stroke="#E64C3C" stroke-width="2" stroke-miterlimit="10" x1="6" y1="0" x2="6" y2="-150"/>
						<line fill="none" stroke="#E64C3C" stroke-width="2" stroke-miterlimit="10" x1="10" y1="0" x2="10" y2="-150"/>
						<line fill="none" stroke="#E64C3C" stroke-width="2" stroke-miterlimit="10" x1="14" y1="0" x2="14" y2="-150"/>
						<line fill="none" stroke="#E64C3C" stroke-width="2" stroke-miterlimit="10" x1="18" y1="0" x2="18" y2="-150"/>
						<line fill="none" stroke="#E64C3C" stroke-width="2" stroke-miterlimit="10" x1="22" y1="0" x2="22" y2="-150"/>
					</g>
				</g>
			</g>
		</g>
	</g>
</pattern>
<g id="background">
</g>
<g id="Layer_1_1_">
	<g>
		<g opacity="0.8">
			<g>
				
					<linearGradient id="SVGID_1_" gradientUnits="userSpaceOnUse" x1="816.498" y1="193.1846" x2="1116.0742" y2="193.1846" gradientTransform="matrix(-1 0 0 -1 1947 642.2461)">
					<stop  offset="0" style="stop-color:#C03A2B;stop-opacity:0.2"/>
					<stop  offset="1" style="stop-color:#C03A2B;stop-opacity:0.7"/>
				</linearGradient>
				<polyline opacity="0.1" fill="url(#SVGID_1_)" enable-background="new    " points="1130.502,599.123 830.926,299 1130,299 				
					"/>
				
					<linearGradient id="SVGID_2_" gradientUnits="userSpaceOnUse" x1="817" y1="268.207" x2="1116.0742" y2="268.207" gradientTransform="matrix(-1 0 0 -1 1947 642.2461)">
					<stop  offset="0" style="stop-color:#C03A2B;stop-opacity:0.2"/>
					<stop  offset="1" style="stop-color:#C03A2B;stop-opacity:0.7"/>
				</linearGradient>
				<polyline opacity="0.1" fill="url(#SVGID_2_)" enable-background="new    " points="980.457,449.078 830.926,299 1130,299 				
					"/>
			</g>
		</g>
		<pattern  id="SVGID_5_" xlink:href="#SVGID_3_" patternTransform="matrix(1 0 0 -1 -5766.8779 -36681.1992)">
		</pattern>
		<polyline opacity="0.1" fill="url(#SVGID_5_)" enable-background="new    " points="530,150 530,0 680,0 		"/>
		<rect y="150" opacity="0.96" fill="#C03A2B" enable-background="new    " width="830" height="150"/>
		<polygon opacity="0.96" fill="#C03A2B" enable-background="new    " points="1131,300 299.451,300 148.998,148.387 148.998,0 
			1131,0 		"/>
		<polygon opacity="0.83" fill="#C03A2B" enable-background="new    " points="150,148.999 450,150 450,300 150,300 		"/>
		<polygon opacity="0.83" fill="#C03A2B" enable-background="new    " points="0,0 154.565,0.994 154.565,150 0,150 		"/>
		<rect x="981" opacity="0.99" fill="#C03A2B" enable-background="new    " width="150" height="300"/>
		<rect x="831" opacity="0.95" fill="#C03A2B" enable-background="new    " width="150" height="150"/>
		<polyline opacity="0.05" fill="#C03A2B" enable-background="new    " points="679.811,151 829.623,301 681,301 		"/>
		<pattern  id="SVGID_6_" xlink:href="#SVGID_4_" patternTransform="matrix(-1 0 0 -1 -59322.3789 -32528.6914)">
		</pattern>
		<polyline opacity="0.1" fill="url(#SVGID_6_)" enable-background="new    " points="829.812,150 979.623,300 831,300 		"/>
		<g>
			<rect opacity="0.98" fill="#C03A2B" enable-background="new    " width="151" height="151"/>
			<polyline opacity="0.3" fill="#C03A2B" enable-background="new    " points="154.565,151 0.122,0 154.004,0 			"/>
		</g>
		<g opacity="0.7">
			<polyline opacity="0.4" fill="#E64C3C" enable-background="new    " points="980,3.215 1130,153.429 1130,4 			"/>
		</g>
	</g>
</g>
</svg>
