<?xml version="1.0" encoding="utf-8"?>
<!-- Generator: Adobe Illustrator 16.0.0, SVG Export Plug-In . SVG Version: 6.00 Build 0)  -->
<!DOCTYPE svg PUBLIC "-//W3C//DTD SVG 1.1//EN" "http://www.w3.org/Graphics/SVG/1.1/DTD/svg11.dtd">
<svg version="1.1" id="Layer_1" xmlns="http://www.w3.org/2000/svg" xmlns:xlink="http://www.w3.org/1999/xlink" x="0px" y="0px"
	 width="1131px" height="752px" viewBox="0 0 1131 752" enable-background="new 0 0 1131 752" xml:space="preserve">
<pattern  x="-394" y="916.5" width="144" height="150" patternUnits="userSpaceOnUse" id="SVGID_1_" viewBox="0 -150 144 150" overflow="visible">
	<g>
		<polygon fill="none" points="0,0 144,0 144,-150 0,-150 		"/>
		<g>
			<polygon fill="none" points="0,0 144,0 144,-150 0,-150 			"/>
			<g>
				<line fill="none" stroke="#26B99A" stroke-width="2" stroke-miterlimit="10" x1="122" y1="0" x2="122" y2="-150"/>
				<line fill="none" stroke="#26B99A" stroke-width="2" stroke-miterlimit="10" x1="126" y1="0" x2="126" y2="-150"/>
				<line fill="none" stroke="#26B99A" stroke-width="2" stroke-miterlimit="10" x1="130" y1="0" x2="130" y2="-150"/>
				<line fill="none" stroke="#26B99A" stroke-width="2" stroke-miterlimit="10" x1="134" y1="0" x2="134" y2="-150"/>
				<line fill="none" stroke="#26B99A" stroke-width="2" stroke-miterlimit="10" x1="138" y1="0" x2="138" y2="-150"/>
				<line fill="none" stroke="#26B99A" stroke-width="2" stroke-miterlimit="10" x1="142" y1="0" x2="142" y2="-150"/>
			</g>
			<g>
				<line fill="none" stroke="#26B99A" stroke-width="2" stroke-miterlimit="10" x1="74" y1="0" x2="74" y2="-150"/>
				<line fill="none" stroke="#26B99A" stroke-width="2" stroke-miterlimit="10" x1="78" y1="0" x2="78" y2="-150"/>
				<line fill="none" stroke="#26B99A" stroke-width="2" stroke-miterlimit="10" x1="82" y1="0" x2="82" y2="-150"/>
				<line fill="none" stroke="#26B99A" stroke-width="2" stroke-miterlimit="10" x1="86" y1="0" x2="86" y2="-150"/>
				<line fill="none" stroke="#26B99A" stroke-width="2" stroke-miterlimit="10" x1="90" y1="0" x2="90" y2="-150"/>
				<line fill="none" stroke="#26B99A" stroke-width="2" stroke-miterlimit="10" x1="94" y1="0" x2="94" y2="-150"/>
				<line fill="none" stroke="#26B99A" stroke-width="2" stroke-miterlimit="10" x1="98" y1="0" x2="98" y2="-150"/>
				<line fill="none" stroke="#26B99A" stroke-width="2" stroke-miterlimit="10" x1="102" y1="0" x2="102" y2="-150"/>
				<line fill="none" stroke="#26B99A" stroke-width="2" stroke-miterlimit="10" x1="106" y1="0" x2="106" y2="-150"/>
				<line fill="none" stroke="#26B99A" stroke-width="2" stroke-miterlimit="10" x1="110" y1="0" x2="110" y2="-150"/>
				<line fill="none" stroke="#26B99A" stroke-width="2" stroke-miterlimit="10" x1="114" y1="0" x2="114" y2="-150"/>
				<line fill="none" stroke="#26B99A" stroke-width="2" stroke-miterlimit="10" x1="118" y1="0" x2="118" y2="-150"/>
				<line fill="none" stroke="#26B99A" stroke-width="2" stroke-miterlimit="10" x1="122" y1="0" x2="122" y2="-150"/>
				<line fill="none" stroke="#26B99A" stroke-width="2" stroke-miterlimit="10" x1="126" y1="0" x2="126" y2="-150"/>
				<line fill="none" stroke="#26B99A" stroke-width="2" stroke-miterlimit="10" x1="130" y1="0" x2="130" y2="-150"/>
				<line fill="none" stroke="#26B99A" stroke-width="2" stroke-miterlimit="10" x1="134" y1="0" x2="134" y2="-150"/>
				<line fill="none" stroke="#26B99A" stroke-width="2" stroke-miterlimit="10" x1="138" y1="0" x2="138" y2="-150"/>
				<line fill="none" stroke="#26B99A" stroke-width="2" stroke-miterlimit="10" x1="142" y1="0" x2="142" y2="-150"/>
			</g>
			<g>
				<line fill="none" stroke="#26B99A" stroke-width="2" stroke-miterlimit="10" x1="26" y1="0" x2="26" y2="-150"/>
				<line fill="none" stroke="#26B99A" stroke-width="2" stroke-miterlimit="10" x1="30" y1="0" x2="30" y2="-150"/>
				<line fill="none" stroke="#26B99A" stroke-width="2" stroke-miterlimit="10" x1="34" y1="0" x2="34" y2="-150"/>
				<line fill="none" stroke="#26B99A" stroke-width="2" stroke-miterlimit="10" x1="38" y1="0" x2="38" y2="-150"/>
				<line fill="none" stroke="#26B99A" stroke-width="2" stroke-miterlimit="10" x1="42" y1="0" x2="42" y2="-150"/>
				<line fill="none" stroke="#26B99A" stroke-width="2" stroke-miterlimit="10" x1="46" y1="0" x2="46" y2="-150"/>
				<line fill="none" stroke="#26B99A" stroke-width="2" stroke-miterlimit="10" x1="50" y1="0" x2="50" y2="-150"/>
				<line fill="none" stroke="#26B99A" stroke-width="2" stroke-miterlimit="10" x1="54" y1="0" x2="54" y2="-150"/>
				<line fill="none" stroke="#26B99A" stroke-width="2" stroke-miterlimit="10" x1="58" y1="0" x2="58" y2="-150"/>
				<line fill="none" stroke="#26B99A" stroke-width="2" stroke-miterlimit="10" x1="62" y1="0" x2="62" y2="-150"/>
				<line fill="none" stroke="#26B99A" stroke-width="2" stroke-miterlimit="10" x1="66" y1="0" x2="66" y2="-150"/>
				<line fill="none" stroke="#26B99A" stroke-width="2" stroke-miterlimit="10" x1="70" y1="0" x2="70" y2="-150"/>
				<line fill="none" stroke="#26B99A" stroke-width="2" stroke-miterlimit="10" x1="74" y1="0" x2="74" y2="-150"/>
				<line fill="none" stroke="#26B99A" stroke-width="2" stroke-miterlimit="10" x1="78" y1="0" x2="78" y2="-150"/>
				<line fill="none" stroke="#26B99A" stroke-width="2" stroke-miterlimit="10" x1="82" y1="0" x2="82" y2="-150"/>
				<line fill="none" stroke="#26B99A" stroke-width="2" stroke-miterlimit="10" x1="86" y1="0" x2="86" y2="-150"/>
				<line fill="none" stroke="#26B99A" stroke-width="2" stroke-miterlimit="10" x1="90" y1="0" x2="90" y2="-150"/>
				<line fill="none" stroke="#26B99A" stroke-width="2" stroke-miterlimit="10" x1="94" y1="0" x2="94" y2="-150"/>
				<line fill="none" stroke="#26B99A" stroke-width="2" stroke-miterlimit="10" x1="98" y1="0" x2="98" y2="-150"/>
				<line fill="none" stroke="#26B99A" stroke-width="2" stroke-miterlimit="10" x1="102" y1="0" x2="102" y2="-150"/>
				<line fill="none" stroke="#26B99A" stroke-width="2" stroke-miterlimit="10" x1="106" y1="0" x2="106" y2="-150"/>
				<line fill="none" stroke="#26B99A" stroke-width="2" stroke-miterlimit="10" x1="110" y1="0" x2="110" y2="-150"/>
				<line fill="none" stroke="#26B99A" stroke-width="2" stroke-miterlimit="10" x1="114" y1="0" x2="114" y2="-150"/>
				<line fill="none" stroke="#26B99A" stroke-width="2" stroke-miterlimit="10" x1="118" y1="0" x2="118" y2="-150"/>
			</g>
			<g>
				<line fill="none" stroke="#26B99A" stroke-width="2" stroke-miterlimit="10" x1="2" y1="0" x2="2" y2="-150"/>
				<line fill="none" stroke="#26B99A" stroke-width="2" stroke-miterlimit="10" x1="6" y1="0" x2="6" y2="-150"/>
				<line fill="none" stroke="#26B99A" stroke-width="2" stroke-miterlimit="10" x1="10" y1="0" x2="10" y2="-150"/>
				<line fill="none" stroke="#26B99A" stroke-width="2" stroke-miterlimit="10" x1="14" y1="0" x2="14" y2="-150"/>
				<line fill="none" stroke="#26B99A" stroke-width="2" stroke-miterlimit="10" x1="18" y1="0" x2="18" y2="-150"/>
				<line fill="none" stroke="#26B99A" stroke-width="2" stroke-miterlimit="10" x1="22" y1="0" x2="22" y2="-150"/>
				<line fill="none" stroke="#26B99A" stroke-width="2" stroke-miterlimit="10" x1="26" y1="0" x2="26" y2="-150"/>
				<line fill="none" stroke="#26B99A" stroke-width="2" stroke-miterlimit="10" x1="30" y1="0" x2="30" y2="-150"/>
				<line fill="none" stroke="#26B99A" stroke-width="2" stroke-miterlimit="10" x1="34" y1="0" x2="34" y2="-150"/>
				<line fill="none" stroke="#26B99A" stroke-width="2" stroke-miterlimit="10" x1="38" y1="0" x2="38" y2="-150"/>
				<line fill="none" stroke="#26B99A" stroke-width="2" stroke-miterlimit="10" x1="42" y1="0" x2="42" y2="-150"/>
				<line fill="none" stroke="#26B99A" stroke-width="2" stroke-miterlimit="10" x1="46" y1="0" x2="46" y2="-150"/>
				<line fill="none" stroke="#26B99A" stroke-width="2" stroke-miterlimit="10" x1="50" y1="0" x2="50" y2="-150"/>
				<line fill="none" stroke="#26B99A" stroke-width="2" stroke-miterlimit="10" x1="54" y1="0" x2="54" y2="-150"/>
				<line fill="none" stroke="#26B99A" stroke-width="2" stroke-miterlimit="10" x1="58" y1="0" x2="58" y2="-150"/>
				<line fill="none" stroke="#26B99A" stroke-width="2" stroke-miterlimit="10" x1="62" y1="0" x2="62" y2="-150"/>
				<line fill="none" stroke="#26B99A" stroke-width="2" stroke-miterlimit="10" x1="66" y1="0" x2="66" y2="-150"/>
				<line fill="none" stroke="#26B99A" stroke-width="2" stroke-miterlimit="10" x1="70" y1="0" x2="70" y2="-150"/>
			</g>
			<g>
				<line fill="none" stroke="#26B99A" stroke-width="2" stroke-miterlimit="10" x1="2" y1="0" x2="2" y2="-150"/>
				<line fill="none" stroke="#26B99A" stroke-width="2" stroke-miterlimit="10" x1="6" y1="0" x2="6" y2="-150"/>
				<line fill="none" stroke="#26B99A" stroke-width="2" stroke-miterlimit="10" x1="10" y1="0" x2="10" y2="-150"/>
				<line fill="none" stroke="#26B99A" stroke-width="2" stroke-miterlimit="10" x1="14" y1="0" x2="14" y2="-150"/>
				<line fill="none" stroke="#26B99A" stroke-width="2" stroke-miterlimit="10" x1="18" y1="0" x2="18" y2="-150"/>
				<line fill="none" stroke="#26B99A" stroke-width="2" stroke-miterlimit="10" x1="22" y1="0" x2="22" y2="-150"/>
			</g>
		</g>
	</g>
</pattern>
<g id="background">
</g>
<g id="Layer_1_1_">
	<g>
		<rect y="300" opacity="0.99" fill="#14A085" enable-background="new    " width="428" height="150"/>
		<rect fill="#14A085" width="1131" height="152"/>
		<pattern  id="SVGID_2_" xlink:href="#SVGID_1_" patternTransform="matrix(-1 0 0 -1 -28288.1094 -19385.2539)">
		</pattern>
		<polyline opacity="0.1" fill="url(#SVGID_2_)" enable-background="new    " points="537,150 537,0 387,0 		"/>
		<polyline opacity="0.8" fill="#14A085" enable-background="new    " points="304.445,300 153.89,150 304,150 		"/>
		<rect y="300" opacity="0.2" fill="#14A085" enable-background="new    " width="75" height="75"/>
		<rect x="77" y="375" opacity="0.6" fill="#14A085" enable-background="new    " width="76" height="75"/>
		<rect y="375" opacity="0.8" fill="#14A085" enable-background="new    " width="75" height="75"/>
		<rect x="77" y="300" fill="#14A085" width="76" height="75"/>
		<g opacity="0.5">
			<polyline opacity="0.4" fill="#26B99A" enable-background="new    " points="150,-0.128 0,149.744 0,1 			"/>
		</g>
		<polygon opacity="0.99" fill="#14A085" enable-background="new    " points="1133,450 429.19,450 304,299.244 304,150 1133,150 		
			"/>
		<g>
			<rect x="982" y="149" opacity="0.2" fill="#26B99A" enable-background="new    " width="150" height="150"/>
			<rect x="832" y="300" opacity="0.1" fill="#26B99A" enable-background="new    " width="150" height="150"/>
		</g>
		<g>
			<g opacity="0.8">
				<g>
					
						<linearGradient id="SVGID_3_" gradientUnits="userSpaceOnUse" x1="-4046.7515" y1="386.9385" x2="-3746.7393" y2="386.9385" gradientTransform="matrix(1 0 0 -1 4046.6875 987)">
						<stop  offset="0" style="stop-color:#14A085;stop-opacity:0.2"/>
						<stop  offset="1" style="stop-color:#14A085;stop-opacity:0.7"/>
					</linearGradient>
					<polyline opacity="0.1" fill="url(#SVGID_3_)" enable-background="new    " points="-0.064,750.123 299.948,450 0,450 					"/>
					
						<linearGradient id="SVGID_4_" gradientUnits="userSpaceOnUse" x1="-4046.6875" y1="461.9609" x2="-3746.7393" y2="461.9609" gradientTransform="matrix(1 0 0 -1 4046.6875 987)">
						<stop  offset="0" style="stop-color:#14A085;stop-opacity:0.2"/>
						<stop  offset="1" style="stop-color:#14A085;stop-opacity:0.7"/>
					</linearGradient>
					<polyline opacity="0.1" fill="url(#SVGID_4_)" enable-background="new    " points="149.98,600.078 299.948,450 0,450 					"/>
				</g>
			</g>
		</g>
		<polygon opacity="0.97" fill="#14A085" enable-background="new    " points="0,150 450,150 450,300 373.333,368.577 0,450 		"/>
	</g>
</g>
</svg>
