<?xml version="1.0" encoding="utf-8"?>
<!-- Generator: Adobe Illustrator 16.0.0, SVG Export Plug-In . SVG Version: 6.00 Build 0)  -->
<!DOCTYPE svg PUBLIC "-//W3C//DTD SVG 1.1//EN" "http://www.w3.org/Graphics/SVG/1.1/DTD/svg11.dtd">
<svg version="1.1" id="Слой_1" xmlns="http://www.w3.org/2000/svg" xmlns:xlink="http://www.w3.org/1999/xlink" x="0px" y="0px"
	 width="1728px" height="2592px" viewBox="0 0 1728 2592" enable-background="new 0 0 1728 2592" xml:space="preserve">
<g>
	<line fill="none" stroke="#B6B283" stroke-miterlimit="10" x1="865.917" y1="1212.128" x2="578.364" y2="1212.128"/>
	<line fill="none" stroke="#B6B283" stroke-miterlimit="10" x1="865.917" y1="1221.713" x2="578.364" y2="1221.713"/>
	<line fill="none" stroke="#B6B283" stroke-miterlimit="10" x1="865.917" y1="1231.298" x2="578.364" y2="1231.298"/>
	<line fill="none" stroke="#B6B283" stroke-miterlimit="10" x1="865.917" y1="1240.884" x2="578.364" y2="1240.884"/>
	<line fill="none" stroke="#B6B283" stroke-miterlimit="10" x1="865.917" y1="1250.469" x2="578.364" y2="1250.469"/>
	<line fill="none" stroke="#B6B283" stroke-miterlimit="10" x1="865.917" y1="1260.054" x2="578.364" y2="1260.054"/>
	<line fill="none" stroke="#B6B283" stroke-miterlimit="10" x1="865.917" y1="1269.639" x2="578.364" y2="1269.639"/>
	<line fill="none" stroke="#B6B283" stroke-miterlimit="10" x1="865.917" y1="1279.224" x2="578.364" y2="1279.224"/>
	<line fill="none" stroke="#B6B283" stroke-miterlimit="10" x1="865.917" y1="1288.809" x2="578.364" y2="1288.809"/>
	<line fill="none" stroke="#B6B283" stroke-miterlimit="10" x1="865.917" y1="1298.394" x2="578.364" y2="1298.394"/>
	<line fill="none" stroke="#B6B283" stroke-miterlimit="10" x1="865.917" y1="1307.979" x2="578.364" y2="1307.979"/>
	<line fill="none" stroke="#B6B283" stroke-miterlimit="10" x1="865.917" y1="1317.563" x2="578.364" y2="1317.563"/>
	<line fill="none" stroke="#B6B283" stroke-miterlimit="10" x1="865.917" y1="1327.149" x2="578.364" y2="1327.149"/>
	<line fill="none" stroke="#B6B283" stroke-miterlimit="10" x1="865.917" y1="1336.734" x2="578.364" y2="1336.734"/>
	<line fill="none" stroke="#B6B283" stroke-miterlimit="10" x1="865.917" y1="1346.319" x2="578.364" y2="1346.319"/>
	<line fill="none" stroke="#B6B283" stroke-miterlimit="10" x1="865.917" y1="1355.904" x2="578.364" y2="1355.904"/>
	<line fill="none" stroke="#B6B283" stroke-miterlimit="10" x1="865.917" y1="1365.489" x2="578.364" y2="1365.489"/>
	<line fill="none" stroke="#B6B283" stroke-miterlimit="10" x1="865.917" y1="1375.074" x2="578.364" y2="1375.074"/>
	<line fill="none" stroke="#B6B283" stroke-miterlimit="10" x1="865.917" y1="1384.659" x2="578.364" y2="1384.659"/>
	<line fill="none" stroke="#B6B283" stroke-miterlimit="10" x1="865.917" y1="1394.245" x2="578.364" y2="1394.245"/>
	<line fill="none" stroke="#B6B283" stroke-miterlimit="10" x1="865.917" y1="1403.83" x2="578.364" y2="1403.83"/>
	<line fill="none" stroke="#B6B283" stroke-miterlimit="10" x1="865.917" y1="1413.415" x2="578.364" y2="1413.415"/>
	<line fill="none" stroke="#B6B283" stroke-miterlimit="10" x1="865.917" y1="1423" x2="578.364" y2="1423"/>
	<line fill="none" stroke="#B6B283" stroke-miterlimit="10" x1="865.917" y1="1432.585" x2="578.364" y2="1432.585"/>
	<line fill="none" stroke="#B6B283" stroke-miterlimit="10" x1="865.917" y1="1442.17" x2="578.364" y2="1442.17"/>
	<line fill="none" stroke="#B6B283" stroke-miterlimit="10" x1="865.917" y1="1451.755" x2="578.364" y2="1451.755"/>
	<line fill="none" stroke="#B6B283" stroke-miterlimit="10" x1="865.917" y1="1461.341" x2="578.364" y2="1461.341"/>
	<line fill="none" stroke="#B6B283" stroke-miterlimit="10" x1="865.917" y1="1470.926" x2="578.364" y2="1470.926"/>
	<line fill="none" stroke="#B6B283" stroke-miterlimit="10" x1="865.917" y1="1480.511" x2="578.364" y2="1480.511"/>
	<line fill="none" stroke="#B6B283" stroke-miterlimit="10" x1="865.917" y1="1490.096" x2="578.364" y2="1490.096"/>
	<line fill="none" stroke="#B6B283" stroke-miterlimit="10" x1="865.917" y1="1499.681" x2="578.364" y2="1499.681"/>
	<rect x="576.447" y="60" opacity="0.92" fill="#E9EED8" enable-background="new    " width="1152.128" height="287.553"/>
	<rect x="576.447" y="347.553" opacity="0.9" fill="#E9EED8" enable-background="new    " width="1152.128" height="287.553"/>
	<rect x="288.895" y="60" fill="#E9EED8" width="287.553" height="287.553"/>
	<rect x="288.895" y="347.553" opacity="0.9" fill="#E9EED8" enable-background="new    " width="287.553" height="287.553"/>
	<rect x="288.895" y="922.658" opacity="0.6" fill="#E9EED8" enable-background="new    " width="287.553" height="287.553"/>
	<rect x="576.447" y="635.105" opacity="0.5" fill="#E9EED8" width="289.47" height="287.553"/>
	<rect x="1.342" y="347.553" opacity="0.6" fill="#E9EED8" enable-background="new    " width="287.553" height="287.553"/>
	<polyline opacity="0.45" fill="#E9EED8" enable-background="new    " points="1728.575,922.658 1728.575,635.105 1439.105,635.105 
			"/>
</g>
</svg>
