<?xml version="1.0" encoding="utf-8"?>
<!-- Generator: Adobe Illustrator 15.0.0, SVG Export Plug-In . SVG Version: 6.00 Build 0)  -->
<!DOCTYPE svg PUBLIC "-//W3C//DTD SVG 1.1//EN" "http://www.w3.org/Graphics/SVG/1.1/DTD/svg11.dtd">
<svg version="1.1" id="Слой_1" xmlns="http://www.w3.org/2000/svg" xmlns:xlink="http://www.w3.org/1999/xlink" x="0px" y="0px"
	 width="380px" height="290px" viewBox="0 0 380 290" enable-background="new 0 0 380 290" xml:space="preserve">
<symbol  id="genericfactory" viewBox="-129.704 -119.993 259.407 239.986">
	<polygon fill="#565756" points="-108.792,6.689 -99.961,6.689 -99.961,-61.147 -108.792,-61.147 	"/>
	<polygon fill="#565756" points="-61.64,6.689 -52.809,6.689 -52.809,-61.147 -61.64,-61.147 	"/>
	<polygon fill="#565756" points="-14.492,6.689 -5.663,6.689 -5.663,-61.147 -14.492,-61.147 	"/>
	<polygon fill="#E64C3C" points="15.256,-119.993 -129.704,-119.993 -129.704,-42.562 15.256,-42.562 	"/>
	<g>
		<polygon fill="#D1E2E8" points="-111.107,-63.131 -122.374,-63.131 -122.374,-51.858 -111.107,-51.858 		"/>
		<polygon fill="#D1E2E8" points="-81.263,-63.183 -92.536,-63.183 -92.536,-51.909 -81.263,-51.909 		"/>
		<polygon fill="#D1E2E8" points="-51.418,-63.233 -62.691,-63.233 -62.691,-51.96 -51.418,-51.96 		"/>
		<polygon fill="#D1E2E8" points="8.264,-63.074 -3.009,-63.074 -3.009,-51.807 8.264,-51.807 		"/>
		<polygon fill="#D1E2E8" points="-21.581,-63.284 -32.847,-63.284 -32.847,-52.017 -21.581,-52.017 		"/>
	</g>
	<g>
		<polygon fill="#D1E2E8" points="-111.107,-83.093 -122.374,-83.093 -122.374,-71.827 -111.107,-71.827 		"/>
		<polygon fill="#D1E2E8" points="-81.263,-83.151 -92.536,-83.151 -92.536,-71.877 -81.263,-71.877 		"/>
		<polygon fill="#D1E2E8" points="-51.418,-83.201 -62.691,-83.201 -62.691,-71.928 -51.418,-71.928 		"/>
		<polygon fill="#D1E2E8" points="8.264,-83.043 -3.009,-83.043 -3.009,-71.775 8.264,-71.775 		"/>
		<polygon fill="#D1E2E8" points="-21.581,-83.253 -32.847,-83.253 -32.847,-71.98 -21.581,-71.98 		"/>
	</g>
	<polygon fill="#576C75" points="4.857,-96.292 -9.485,-96.292 -9.485,-119.993 4.857,-119.993 	"/>
	<path opacity="0.98" fill="#E3E4E3" d="M-68.604,13.378c0,0-16.803-8.481-24.276-4.545l-7.082-2.144h-8.831
		c0,0-0.668,1.103-0.554,2.711c0.179,2.539,2.309,6.341,12.097,9.063c0,0,2.028,7.349,10.171,9.882c0,0,0.48,7.247,4.4,6.832
		c0,0,4.921,12.99,17.158,6.101c0,0,0.663,3.727,3.735,3.104c0,0,3.236,18.064,16.216,12.729c0,0-0.595,3.828,0.79,5.056
		c0,0-4.486,26.464,18.077,24.217c0,0,2.952,14.842,14.293,15.55c0,0-0.292,5.345,6.934,4.5c0,0,0.112,8.528,6.879,8.875
		c0,0,25.151,16.619,37.7-12.748c0,0,5.264,1.214,7.544-3.302c0,0,11.66,7.229,25.349-7.464c0,0,19.483-3.204,14.878-34.078
		c0,0-6.761-22.487-28.647-10.341c0,0-2.225-2.394-3.897-1.293c0,0-21.528-23.893-53.763-17.903c0,0-11.938-9.079-21.71-4.469
		c0,0-1.659-2.871-4.519-2.197c0,0-25.953-17.021-38.817-6.17C-64.479,15.342-64.841,13.612-68.604,13.378z"/>
	<path opacity="0.6" fill="#E3E4E3" d="M127.771,49.973c-2.762,5.13-4.61,1.158-18.971,7.868c0,0-14.951,11.719-24.28,0.582
		c0,0-19.115,15.188-25.183,0.073c0,0-17.311,0.577-18.351-9.909c0,0-16.704,3.817-21.463-11.199c0,0-2.241-1.215-2.759-5.038
		c0,0-14.053,3.803-14.619-9.762c0,0-9.478-0.109-8.413-5.605c0,0-7.013-1.044-7.526-4.896l-0.699-5.398h8.83
		c0,0,8.906,2.148,14.805,4.845c0,0,10.461-0.549,12.114,0.917c1.652,1.468,7.355-9.785,25.677,8.932c0,0,15.624-17.71,51.036,6.458
		c0,0,3.16,0.117,4.408,1.319C102.377,29.159,138.296,30.435,127.771,49.973z"/>
	<path opacity="0.98" fill="#D7D8D8" d="M80.624,49.973c-2.762,5.13-4.61,1.158-18.971,7.868c0,0-14.95,11.719-24.28,0.582
		c0,0-19.115,15.188-25.183,0.073c0,0-17.311,0.577-18.351-9.909c0,0-16.704,3.817-21.463-11.199c0,0-2.242-1.215-2.759-5.038
		c0,0-14.054,3.803-14.619-9.762c0,0-9.479-0.109-8.413-5.605c0,0-7.013-1.044-7.526-4.896l-0.699-5.398h8.83
		c0,0,8.906,2.148,14.805,4.845c0,0,10.461-0.549,12.114,0.917c1.652,1.468,7.355-9.785,25.677,8.932c0,0,15.624-17.71,51.036,6.458
		c0,0,3.16,0.117,4.408,1.319C55.23,29.159,91.149,30.435,80.624,49.973z"/>
</symbol>
<symbol  id="issues-airquality" viewBox="-181.172 -138.652 362.344 277.304">
	<g>
		<polygon fill="#404140" points="1.627,-22.454 9.7,-22.454 9.7,-84.477 1.627,-84.477 		"/>
		<polygon fill="#404140" points="44.739,-22.454 52.813,-22.454 52.813,-84.477 44.739,-84.477 		"/>
		<polygon fill="#404140" points="87.846,-22.454 95.919,-22.454 95.919,-84.477 87.846,-84.477 		"/>
		<polygon fill="#2980BA" points="115.045,-138.28 -17.494,-138.28 -17.494,-67.484 115.045,-67.484 		"/>
		<g>
			<polygon fill="#99C0DE" points="-0.49,-86.291 -10.791,-86.291 -10.791,-75.984 -0.49,-75.984 			"/>
			<polygon fill="#99C0DE" points="26.796,-86.338 16.49,-86.338 16.49,-76.03 26.796,-76.03 			"/>
			<polygon fill="#99C0DE" points="54.084,-86.384 43.777,-86.384 43.777,-76.077 54.084,-76.077 			"/>
			<polygon fill="#99C0DE" points="108.652,-86.239 98.345,-86.239 98.345,-75.937 108.652,-75.937 			"/>
			<polygon fill="#99C0DE" points="81.365,-86.431 71.064,-86.431 71.064,-76.129 81.365,-76.129 			"/>
		</g>
		<g>
			<polygon fill="#99C0DE" points="-0.49,-104.542 -10.791,-104.542 -10.791,-94.241 -0.49,-94.241 			"/>
			<polygon fill="#99C0DE" points="26.796,-104.595 16.49,-104.595 16.49,-94.288 26.796,-94.288 			"/>
			<polygon fill="#99C0DE" points="54.084,-104.641 43.777,-104.641 43.777,-94.334 54.084,-94.334 			"/>
			<polygon fill="#99C0DE" points="108.652,-104.497 98.345,-104.497 98.345,-94.194 108.652,-94.194 			"/>
			<polygon fill="#99C0DE" points="81.365,-104.688 71.064,-104.688 71.064,-94.382 81.365,-94.382 			"/>
		</g>
		<polygon fill="#3C4E54" points="3.368,-116.611 -9.745,-116.611 -9.745,-138.28 3.368,-138.28 		"/>
		<path opacity="0.52" fill="#E3E4E3" d="M38.371-16.337c0,0-15.363-7.755-22.196-4.156L9.7-22.454H1.627
			c0,0-0.611,1.008-0.507,2.479c0.164,2.322,2.111,5.798,11.06,8.287c0,0,1.854,6.719,9.299,9.036c0,0,0.439,6.626,4.024,6.246
			c0,0,4.499,11.877,15.688,5.578c0,0,0.606,3.408,3.415,2.838c0,0,2.958,16.517,14.826,11.638c0,0-0.544,3.5,0.723,4.623
			c0,0-4.102,24.196,16.528,22.143c0,0,2.699,13.57,13.068,14.217c0,0-0.266,4.887,6.34,4.115c0,0,0.103,7.798,6.29,8.115
			c0,0,22.996,15.195,34.469-11.656c0,0,4.813,1.11,6.897-3.02c0,0,10.661,6.61,23.177-6.824c0,0,17.814-2.93,13.603-31.158
			c0,0-6.182-20.561-26.192-9.455c0,0-2.035-2.189-3.563-1.182c0,0-19.683-21.846-49.156-16.369c0,0-10.915-8.301-19.851-4.086
			c0,0-1.516-2.625-4.131-2.009c0,0-23.729-15.563-35.492-5.642C42.143-14.542,41.811-16.124,38.371-16.337z"/>
		<path opacity="0.52" fill="#F5F0D1" d="M101.689,34.617c-2.548,7.138-3.563,1.983-14.949,12.321c0,0-12.295,17.112-18.249,3.042
			c0,0-15.739,22.155-18.878,2.444c0,0-13.026,2.386-12.828-11.583c0,0-12.873,6.677-15.041-13.023c0,0-1.566-1.42-1.598-6.5
			c0,0-10.885,6.41-10.046-11.732c0,0-7.092,0.736-5.782-6.736c0,0-5.158-0.747-5.184-5.866l-0.021-7.176l6.617-0.822
			c0,0,6.474,2.052,10.643,5.12c0,0,7.89-1.711,8.992,0.101c1.101,1.815,6.423-13.811,18.409,9.589c0,0,13.357-25.211,37.643,3.908
			c0,0,2.357-0.137,3.181,1.358C84.599,9.063,111.396,7.429,101.689,34.617z"/>
		<path opacity="0.52" fill="#D7D8D8" d="M158.816,5.258c-1.012,6.394-3.107,2.341-12.193,13.123c0,0-8.553,16.553-17.422,6.12
			c0,0-10.896,21.394-18.172,5.75c0,0-12.391,4.545-15.149-7.021c0,0-11.332,8.056-17.645-7.772c0,0-1.851-0.862-2.957-5.048
			c0,0-9.42,7.442-12.427-7.694c0,0-6.865,2.01-7.148-4.415c0,0-5.264,0.404-6.373-3.815l-1.539-5.917l6.376-1.987
			c0,0,6.843,0.413,11.62,2.12c0,0,7.449-2.973,8.923-1.695c1.474,1.28,3.438-12.667,20.253,4.272c0,0,7.892-23.446,38.092-4.22
			c0,0,2.305-0.579,3.436,0.492C136.493-12.45,162.675-19.098,158.816,5.258z"/>
	</g>
	<g>
		<polygon fill="#404140" points="-120.116,35.192 -127.128,35.192 -127.128,-18.671 -120.116,-18.671 		"/>
		<polygon fill="#404140" points="-139.848,35.192 -146.859,35.192 -146.859,-18.671 -139.848,-18.671 		"/>
		<polygon fill="#8EA964" points="-181.172,-138.28 -111.346,-138.28 -111.346,-17.678 -181.172,-17.678 		"/>
		<g>
			<polygon fill="#99C0DE" points="-128.231,-109.067 -119.281,-109.067 -119.281,-100.116 -128.231,-100.116 			"/>
			<polygon fill="#99C0DE" points="-175.62,-108.941 -166.669,-108.941 -166.669,-99.995 -175.62,-99.995 			"/>
			<polygon fill="#99C0DE" points="-151.923,-109.108 -142.978,-109.108 -142.978,-100.157 -151.923,-100.157 			"/>
		</g>
		<g>
			<polygon fill="#99C0DE" points="-128.231,-88.822 -119.281,-88.822 -119.281,-79.871 -128.231,-79.871 			"/>
			<polygon fill="#99C0DE" points="-175.62,-88.696 -166.669,-88.696 -166.669,-79.75 -175.62,-79.75 			"/>
			<polygon fill="#99C0DE" points="-151.923,-88.863 -142.978,-88.863 -142.978,-79.912 -151.923,-79.912 			"/>
		</g>
		<g>
			<polygon fill="#99C0DE" points="-128.231,-69.14 -119.281,-69.14 -119.281,-60.189 -128.231,-60.189 			"/>
			<polygon fill="#99C0DE" points="-175.62,-69.015 -166.669,-69.015 -166.669,-60.068 -175.62,-60.068 			"/>
			<polygon fill="#99C0DE" points="-151.923,-69.182 -142.978,-69.182 -142.978,-60.23 -151.923,-60.23 			"/>
		</g>
		<g>
			<polygon fill="#99C0DE" points="-128.231,-50.033 -119.281,-50.033 -119.281,-41.082 -128.231,-41.082 			"/>
			<polygon fill="#99C0DE" points="-175.62,-49.907 -166.669,-49.907 -166.669,-40.96 -175.62,-40.96 			"/>
			<polygon fill="#99C0DE" points="-151.923,-50.074 -142.978,-50.074 -142.978,-41.124 -151.923,-41.124 			"/>
		</g>
		<g>
			<polygon fill="#99C0DE" points="-128.231,-33.663 -119.281,-33.663 -119.281,-24.711 -128.231,-24.711 			"/>
			<polygon fill="#99C0DE" points="-175.62,-33.537 -166.669,-33.537 -166.669,-24.59 -175.62,-24.59 			"/>
			<polygon fill="#99C0DE" points="-151.923,-33.704 -142.978,-33.704 -142.978,-24.753 -151.923,-24.753 			"/>
		</g>
		<polygon fill="#3C4E54" points="-172.916,-119.462 -161.528,-119.462 -161.528,-138.28 -172.916,-138.28 		"/>
		<path opacity="0.52" fill="#E3E4E3" d="M-125.579,43.647c0,0-11.815-4.695-16.53-0.914l-4.879-0.89l-5.897,0.926
			c0,0-0.369,0.909-0.181,2.122c0.298,1.915,1.986,4.586,8.713,5.632c0,0,1.869,5.383,7.485,6.458c0,0,0.829,5.468,3.417,4.74
			c0,0,4.196,9.375,11.886,2.846c0,0,0.704,2.768,2.711,1.972c0,0,3.426,13.416,11.721,7.991c0,0-0.129,2.977,0.882,3.767
			c0,0-1.142,20.621,13.769,16.543c0,0,3.011,10.991,10.634,10.34c0,0,0.18,4.1,4.946,2.7c0,0,0.672,6.482,5.216,6.036
			c0,0,17.96,10.016,24.284-13.661c0,0,3.601,0.373,4.807-3.306c0,0,8.293,4.281,16.406-8.342c0,0,12.787-4.483,7.548-27.508
			c0,0-6.09-16.413-19.855-4.869c0,0-1.654-1.589-2.693-0.575c0,0-16.051-15.935-37.158-7.992c0,0-8.608-5.661-14.812-1.125
			c0,0-1.309-2.012-3.172-1.199c0,0-18.524-10.237-26.355-0.626C-122.686,44.71-123.05,43.431-125.579,43.647z"/>
		<path opacity="0.52" fill="#F5F0D1" d="M-3.671,61.856c-1.203,7.796-3.53,2.796-13.887,15.786c0,0-9.809,20.057-19.723,7.111
			c0,0-12.5,25.926-20.565,6.643c0,0-14.029,5.294-17.033-8.907c0,0-12.867,9.608-19.842-9.878c0,0-2.082-1.094-3.29-6.235
			c0,0-10.703,8.898-13.954-9.673c0,0-7.768,2.312-8.027-5.55c0,0-5.946,0.381-7.157-4.8l-1.681-7.268l7.216-2.294
			c0,0,7.72,0.65,13.095,2.84c0,0,8.436-3.476,10.088-1.882c1.651,1.596,4-15.414,22.82,5.655c0,0,9.128-28.499,43.036-4.348
			c0,0,2.606-0.659,3.873,0.675C-28.702,39.73,0.915,32.16-3.671,61.856z"/>
	</g>
	
		<use xlink:href="#genericfactory"  width="259.407" height="239.986" id="XMLID_4_" x="-129.704" y="-119.993" transform="matrix(1.1555 0 0 1.1555 17.5972 -4.882813e-004)" overflow="visible"/>
</symbol>
<use xlink:href="#issues-airquality"  width="362.344" height="277.304" x="-181.172" y="-138.652" transform="matrix(1.0379 0 0 -1.0379 191.3594 145)" overflow="visible"/>
</svg>
