<?xml version="1.0" encoding="utf-8"?>
<!-- Generator: Adobe Illustrator 15.0.0, SVG Export Plug-In . SVG Version: 6.00 Build 0)  -->
<!DOCTYPE svg PUBLIC "-//W3C//DTD SVG 1.1//EN" "http://www.w3.org/Graphics/SVG/1.1/DTD/svg11.dtd">
<svg version="1.1" id="Слой_1" xmlns="http://www.w3.org/2000/svg" xmlns:xlink="http://www.w3.org/1999/xlink" x="0px" y="0px"
	 width="350px" height="255px" viewBox="0 0 350 255" enable-background="new 0 0 350 255" xml:space="preserve">
<symbol  id="issues-retrofits" viewBox="-157.386 -113.493 314.772 226.987">
	<path fill="#E64C3C" d="M91.562-20.493h-204.489c-2.761,0-5,2.238-5,5v79.771c0,2.761,2.239,5,5,5H91.562c2.761,0,5-2.239,5-5
		v-79.771C96.562-18.255,94.323-20.493,91.562-20.493z"/>
	<path fill="none" stroke="#C03A2B" stroke-width="3" stroke-miterlimit="10" d="M80.837-16.005h-183.04c-2.762,0-5,2.239-5,5
		v70.793c0,2.761,2.238,5,5,5h183.04c2.762,0,5-2.239,5-5v-70.793C85.837-13.766,83.599-16.005,80.837-16.005z"/>
	<path fill="#C03A2B" d="M94.562-113.493h-210.489c-1.104,0-2,0.896-2,2v84.495c0,1.104,0.896,2,2,2H94.562c1.104,0,2-0.896,2-2
		v-84.495C96.562-112.598,95.667-113.493,94.562-113.493z"/>
	<path fill="#A0533C" stroke="#E64C3C" stroke-miterlimit="10" d="M83.499-38.844h-187.612c-1.088,0-1.97,0.638-1.97,1.425
		l-9.849,8.905c0,0.787,0.882,1.425,1.97,1.425H93.348c1.088,0,1.97-0.638,1.97-1.425l-9.849-8.905
		C85.468-38.206,84.586-38.844,83.499-38.844z"/>
	<polygon fill="#CCCBCB" points="-110.101,-109.435 -112.708,-104.935 -110.101,-100.435 -104.885,-100.435 -102.277,-104.935 
		-104.885,-109.435 	"/>
	<polygon fill="#CCCBCB" points="82.899,-109.435 80.292,-104.935 82.899,-100.435 88.115,-100.435 90.723,-104.935 
		88.115,-109.435 	"/>
	<g>
		<polygon fill="#CCCBCB" points="-67.683,-49.511 -85.683,-49.511 -85.683,-38.844 -67.683,-38.844 		"/>
		<polygon fill="#B3B2B3" points="-76.683,-55.639 -82.811,-49.511 -76.683,-43.383 -70.554,-49.511 		"/>
	</g>
	<g>
		<polygon fill="#CCCBCB" points="55.317,-49.511 37.317,-49.511 37.317,-38.844 55.317,-38.844 		"/>
		<polygon fill="#B3B2B3" points="46.317,-55.639 40.189,-49.511 46.317,-43.383 52.446,-49.511 		"/>
	</g>
	<g>
		<polygon fill="#3B97D3" points="-64.386,10.664 -80.333,0.752 -43.5,-58.507 -27.553,-48.595 		"/>
		<path fill="#5B89B0" d="M-27.722-48.323c0.48-0.772-2.701-3.618-7.104-6.354c-4.404-2.737-8.363-4.33-8.843-3.557
			c-0.48,0.772,2.701,3.618,7.104,6.354C-32.162-49.143-28.203-47.55-27.722-48.323z"/>
		<path fill="#62ACDC" d="M-64.33,10.574c0.48-0.773-2.701-3.618-7.104-6.355c-4.404-2.737-8.363-4.33-8.843-3.558
			c-0.48,0.773,2.701,3.618,7.104,6.355C-68.769,9.753-64.81,11.346-64.33,10.574z"/>
		<polygon fill="#CCCBCB" points="-103.33,66.852 -113.478,60.544 -77.659,2.917 -67.511,9.224 		"/>
		<polygon fill="#B3B2B3" points="-152.495,60.667 -130.247,74.495 -122.809,62.529 -145.057,48.701 		"/>
		<polygon fill="#B3B2B3" points="-112.299,91.927 -96.761,98.846 -89.088,86.503 -103.399,77.608 		"/>
		<polygon fill="#B3B2B3" points="-79.955,97.929 -96.707,98.572 -91.391,85.397 -80.931,86.808 		"/>
		<path fill="#B3B2B3" d="M-140.583,44.787l-2.945-1.831c-0.934-0.581-2.173-0.292-2.754,0.643l-10.804,17.382
			c-0.581,0.935-0.292,2.174,0.643,2.754l2.945,1.831c0.934,0.581,2.174,0.291,2.754-0.643l10.804-17.382
			C-139.359,46.606-139.648,45.367-140.583,44.787z"/>
		<polygon fill="#B3B2B3" points="-80.931,86.808 -72.116,85.75 -79.955,97.929 		"/>
		<g>
			<polygon fill="#B3B2B3" points="-118.555,56.886 -136.278,61.447 -132.522,79.357 -111.044,92.708 -103.926,81.555 
				-97.077,70.236 			"/>
			<polygon fill="#B3B2B3" points="-96.809,70.403 -93.053,88.313 -110.776,92.874 -132.254,79.524 -125.404,68.205 
				-118.287,57.053 			"/>
		</g>
	</g>
	<g>
		<polygon fill="#CCCBCB" stroke="#B3B2B3" stroke-miterlimit="10" points="156.68,94.479 57.702,-13.107 27.843,14.363 
			146.418,103.92 		"/>
		<polygon fill="none" stroke="#B3B2B3" stroke-miterlimit="10" points="146.352,101.356 32.192,13.206 56.47,-9.129 
			152.723,95.495 		"/>
		<polyline fill="#B3B2B3" points="56.991,-12.453 64.23,-12.151 63.929,-4.913 		"/>
		<polyline fill="#B3B2B3" points="155.969,95.134 156.271,87.895 149.032,87.593 		"/>
		<polyline fill="#B3B2B3" points="70.866,2.628 71.167,-4.611 63.929,-4.913 		"/>
		<polyline fill="#B3B2B3" points="77.406,9.737 77.708,2.499 70.469,2.197 		"/>
		<polyline fill="#B3B2B3" points="83.946,16.847 84.248,9.608 77.009,9.306 		"/>
		<polyline fill="#B3B2B3" points="90.487,23.956 90.789,16.717 83.55,16.416 		"/>
		<polyline fill="#B3B2B3" points="97.027,31.065 97.329,23.826 90.09,23.524 		"/>
		<polyline fill="#B3B2B3" points="103.567,38.174 103.869,30.936 96.63,30.634 		"/>
		<polyline fill="#B3B2B3" points="110.108,45.284 110.41,38.045 103.171,37.743 		"/>
		<polyline fill="#B3B2B3" points="116.648,52.393 116.95,45.154 109.711,44.853 		"/>
		<polyline fill="#B3B2B3" points="123.188,59.502 123.49,52.263 116.251,51.961 		"/>
		<polyline fill="#B3B2B3" points="129.729,66.611 130.031,59.373 122.792,59.071 		"/>
		<polyline fill="#B3B2B3" points="136.27,73.721 136.571,66.482 129.333,66.18 		"/>
		<polyline fill="#B3B2B3" points="142.81,80.83 143.111,73.591 135.873,73.29 		"/>
		<polyline fill="#B3B2B3" points="149.35,87.939 149.652,80.7 142.413,80.398 		"/>
		<path fill="#26B99A" stroke="#14A085" stroke-width="5" stroke-miterlimit="10" d="M27.022,13.945L3.47-2.616
			c0,0-4.062-30.643,33.95-30.866l18.865,20.506L27.022,13.945z M32.202-24.993c-24.022,0.324-20.58,18.28-20.58,18.28L25.669,3.898
			L43.603-12.6L32.202-24.993z"/>
	</g>
	<g>
		<g>
			<path fill="#E57E25" d="M-23.781-32.693c-0.307,1.803,2.756,3.829,6.843,4.524c4.086,0.695,7.647-0.203,7.954-2.006
				c0.307-1.803-2.757-3.829-6.843-4.524S-23.475-34.497-23.781-32.693z"/>
			<path fill="#E57E25" d="M-8.909-31.161c0,0,1.211,11.277-0.613,25.389C-11.346,8.34-20.774,27.683-21.445,31.625l-6.776-1.153
				l10.737-63.093L-8.909-31.161z"/>
			<path fill="#E57E25" d="M-23.534-33.65c0,0-4.873,10.241-7.82,24.162s-0.448,35.293-1.119,39.237l5.237,0.891l10.737-63.093
				L-23.534-33.65z"/>
			<path fill="#EA9851" d="M-32.625,30.03c-0.169,0.997,2.184,2.229,5.257,2.752c3.073,0.523,5.702,0.139,5.872-0.858
				c0.17-0.997-2.184-2.229-5.257-2.752C-29.827,28.649-32.455,29.033-32.625,30.03z"/>
		</g>
		<path fill="#CCCBCB" d="M-25.321,31.273l-11.71,68.81c-0.129,0.759-0.955,1.258-1.834,1.108l0,0
			c-0.88-0.149-1.494-0.893-1.365-1.652l11.71-68.81"/>
		<polygon fill="#B3B2B3" points="-38.282,113.494 -43.766,112.561 -41.551,99.548 -36.067,100.481 		"/>
	</g>
</symbol>
<use xlink:href="#issues-retrofits"  width="314.772" height="226.987" x="-157.386" y="-113.493" transform="matrix(1.1014 0 0 -1.1014 174.5879 127.5654)" overflow="visible"/>
</svg>
