<?xml version="1.0" encoding="utf-8"?>
<!-- Generator: Adobe Illustrator 15.0.0, SVG Export Plug-In . SVG Version: 6.00 Build 0)  -->
<!DOCTYPE svg PUBLIC "-//W3C//DTD SVG 1.1//EN" "http://www.w3.org/Graphics/SVG/1.1/DTD/svg11.dtd">
<svg version="1.1" id="Слой_1" xmlns="http://www.w3.org/2000/svg" xmlns:xlink="http://www.w3.org/1999/xlink" x="0px" y="0px"
	 width="805px" height="540px" viewBox="0 0 805 540" enable-background="new 0 0 805 540" xml:space="preserve">
<symbol  id="biggerplant_2" viewBox="-14.406 -14.337 28.813 28.675">
	<g>
		<path fill="#8EA964" d="M-2.033,5.997c0,0-3.794,6.437-8.78,3.417C-10.813,9.414-8.591,4.305-2.033,5.997z"/>
	</g>
	<g>
		<path fill="#8EA964" d="M-1.225,6.016c0,0,0.034,5.647,5.412,6.142C4.187,12.158,4.79,8.042-1.225,6.016z"/>
	</g>
	<g>
		<path fill="#8EA964" d="M-1.418,6.929c0,0,0.478-1.257,0.98-3.207c0.253-0.975,0.519-2.12,0.747-3.359
			c0.241-1.237,0.433-2.569,0.59-3.907c0.155-1.338,0.252-2.684,0.309-3.948c0.036-0.632,0.028-1.245,0.043-1.825
			c0.019-0.581-0.004-1.13-0.014-1.638c-0.008-1.016-0.072-1.86-0.111-2.452c-0.038-0.592-0.06-0.931-0.06-0.931l-1.472,0.173
			c0,0,0.042,0.327,0.115,0.898c0.074,0.572,0.188,1.39,0.258,2.378c0.041,0.494,0.097,1.029,0.114,1.597
			c0.021,0.567,0.066,1.167,0.07,1.787c0.022,1.241,0.01,2.567-0.06,3.893C0.02-2.286-0.086-0.96-0.248,0.276
			c-0.149,1.238-0.34,2.388-0.53,3.369c-0.378,1.964-0.772,3.239-0.772,3.239L-1.418,6.929z"/>
	</g>
	<g>
		<path fill="#8EA964" d="M6.64-2.3c0,0-0.663-0.148-1.479-0.735C4.34-3.604,3.44-4.611,2.813-5.778
			C2.647-6.064,2.496-6.357,2.371-6.66C2.234-6.955,2.105-7.247,2.009-7.544c-0.225-0.578-0.373-1.141-0.503-1.62
			c-0.136-0.477-0.193-0.892-0.259-1.173c-0.059-0.284-0.091-0.446-0.091-0.446l-1.06,0.23c0,0,0.05,0.167,0.136,0.459
			C0.327-9.803,0.423-9.38,0.609-8.891C0.79-8.399,0.996-7.827,1.286-7.238c0.127,0.3,0.291,0.597,0.461,0.896
			c0.159,0.305,0.345,0.6,0.545,0.887c0.767,1.169,1.806,2.145,2.713,2.663c0.899,0.535,1.609,0.631,1.609,0.631L6.64-2.3z"/>
	</g>
	<g opacity="0.5">
		<path fill="#8EA964" d="M-1.484,5.28c0,0-5.584,9.473-12.922,5.029C-14.407,10.309-11.136,2.79-1.484,5.28z"/>
	</g>
	<g opacity="0.5">
		<path fill="#8EA964" d="M-0.676,5.298c0,0,0.05,8.311,7.964,9.039C7.289,14.337,8.175,8.281-0.676,5.298z"/>
	</g>
	<g>
		<path fill="#8EA964" d="M6.08-2.459c0,0,0.814,4.75,5.412,4.418C11.491,1.959,11.425-1.59,6.08-2.459z"/>
	</g>
	<g opacity="0.5">
		<path fill="#8EA964" d="M6.442-3.14c0,0,1.199,6.991,7.964,6.502C14.406,3.363,14.31-1.861,6.442-3.14z"/>
	</g>
	<g>
		<path fill="#8EA964" d="M6.194-2.02c0,0-4.608,1.413-3.693,5.93C2.5,3.91,6.012,3.394,6.194-2.02z"/>
	</g>
	<g opacity="0.5">
		<path fill="#8EA964" d="M6.542-3.024c0,0-6.781,2.079-5.436,8.728C1.106,5.704,6.275,4.942,6.542-3.024z"/>
	</g>
</symbol>
<symbol  id="cement_plant" viewBox="-232.479 -185.106 492.681 370.212">
	<g>
		<g>
			<path fill="#A2A3A1" d="M-38.582-181.819c0-5.268-19.386-2.6-43.301-2.6s-43.301-2.668-43.301,2.6s19.387,9.538,43.301,9.538
				S-38.582-176.552-38.582-181.819z"/>
			<polyline fill="#959795" points="-38.582,-21.788 -38.582,-181.819 -125.184,-181.819 -125.184,-21.507 			"/>
			<path fill="#787877" d="M-38.582-21.005c0-2.142-19.386-3.878-43.301-3.878s-43.301,1.736-43.301,3.878
				s19.387,3.879,43.301,3.879S-38.582-18.863-38.582-21.005z"/>
			<path fill="#AFB1B0" d="M-125.61-127.046c0-2.061,19.791-3.731,44.204-3.731s44.204,1.67,44.204,3.731v44.242
				c0-2.061-19.791-3.731-44.204-3.731s-44.204,1.67-44.204,3.731V-127.046z"/>
		</g>
		<g>
			<path fill="#A2A3A1" d="M-100.089-182.111c0-4.799-19.386-2.368-43.301-2.368c-23.914,0-43.301-2.431-43.301,2.368
				s19.387,8.689,43.301,8.689C-119.476-173.422-100.089-177.312-100.089-182.111z"/>
			<polyline fill="#A2A3A1" points="-100.089,-36.319 -100.089,-182.111 -186.691,-182.111 -186.691,-36.064 			"/>
			<path fill="#808080" d="M-100.089-35.606c0-1.952-19.386-3.534-43.301-3.534c-23.914,0-43.301,1.582-43.301,3.534
				s19.387,3.534,43.301,3.534C-119.476-32.073-100.089-33.655-100.089-35.606z"/>
			<path fill="#BBBCBB" d="M-187.118-132.211c0-1.877,19.791-3.399,44.204-3.399s44.204,1.522,44.204,3.399v40.305
				c0-1.877-19.791-3.399-44.204-3.399s-44.204,1.522-44.204,3.399V-132.211z"/>
		</g>
		<g>
			<path fill="#B5B5B1" d="M-155.073-182.582c0-4.042-17.328-1.995-38.703-1.995s-38.703-2.047-38.703,1.995
				c0,4.042,17.328,7.318,38.703,7.318S-155.073-178.54-155.073-182.582z"/>
			<polyline fill="#B5B5B1" points="-155.073,-59.785 -155.073,-182.582 -232.479,-182.582 -232.479,-59.57 			"/>
			<path fill="#858684" d="M-155.073-58.342c0-1.644-17.328-2.977-38.703-2.977s-38.703,1.333-38.703,2.977
				c0,1.644,17.328,2.976,38.703,2.976S-155.073-56.699-155.073-58.342z"/>
			<path fill="#CACAC9" d="M-232.479-137.368c0-1.644,17.328-2.976,38.703-2.976s38.703,1.333,38.703,2.976v35.29
				c0-1.644-17.328-2.976-38.703-2.976s-38.703,1.333-38.703,2.976V-137.368z"/>
		</g>
		<g>
			<path fill="#26B99A" d="M-162.131-51.344v-18.443h12.716v18.443H-162.131z M-150.871-67.938h-9.805v3.509h9.805V-67.938z
				 M-150.871-62.609h-9.805v3.508h9.805V-62.609z M-150.871-57.281h-9.805v3.508h9.805V-57.281z"/>
			<path fill="#26B99A" d="M-162.131-68.558v-39.536h12.716v39.536H-162.131z M-150.871-106.245h-9.805v3.509h9.805V-106.245z
				 M-150.871-100.917h-9.805v3.509h9.805V-100.917z M-150.871-95.589h-9.805v3.509h9.805V-95.589z M-150.871-90.261h-9.805v3.509
				h9.805V-90.261z M-150.871-84.933h-9.805v3.509h9.805V-84.933z M-150.871-79.604h-9.805v3.509h9.805V-79.604z M-150.871-74.276
				h-9.805v3.509h9.805V-74.276z"/>
			<path fill="#26B99A" d="M-162.131-106.197v-39.536h12.716v39.536H-162.131z M-150.871-143.884h-9.805v3.509h9.805V-143.884z
				 M-150.871-138.555h-9.805v3.508h9.805V-138.555z M-150.871-133.228h-9.805v3.509h9.805V-133.228z M-150.871-127.899h-9.805
				v3.508h9.805V-127.899z M-150.871-122.571h-9.805v3.508h9.805V-122.571z M-150.871-117.243h-9.805v3.508h9.805V-117.243z
				 M-150.871-111.915h-9.805v3.509h9.805V-111.915z"/>
			<path fill="#26B99A" d="M-162.131-143.675v-39.536h12.716v39.536H-162.131z M-150.871-181.362h-9.805v3.509h9.805V-181.362z
				 M-150.871-176.034h-9.805v3.509h9.805V-176.034z M-150.871-170.706h-9.805v3.509h9.805V-170.706z M-150.871-165.378h-9.805
				v3.509h9.805V-165.378z M-150.871-160.05h-9.805v3.509h9.805V-160.05z M-150.871-154.722h-9.805v3.509h9.805V-154.722z
				 M-150.871-149.394h-9.805v3.509h9.805V-149.394z"/>
		</g>
	</g>
	<polygon fill="#59595C" points="-57.204,86.846 -37.868,86.846 -37.868,-74.129 -57.204,-74.129 	"/>
	<g>
		<polygon fill="#14A085" points="260.202,-185.105 137.202,-185.105 137.202,45.975 260.202,45.975 		"/>
		<g>
			<polygon fill="#99C0DE" points="250.25,8.806 146.816,8.806 146.816,27.846 250.25,27.846 			"/>
			<polygon fill="#C4D5D6" points="219.253,27.846 244.117,8.806 250.25,8.806 250.25,27.846 			"/>
		</g>
		<g>
			<polygon fill="#99C0DE" points="250.25,-25.91 146.816,-25.91 146.816,-6.87 250.25,-6.87 			"/>
			<polygon fill="#C4D5D6" points="219.253,-6.87 244.117,-25.91 250.25,-25.91 250.25,-6.87 			"/>
		</g>
		<g>
			<polygon fill="#99C0DE" points="250.25,-60.626 146.816,-60.626 146.816,-41.585 250.25,-41.585 			"/>
			<polygon fill="#C4D5D6" points="219.253,-41.585 244.117,-60.626 250.25,-60.626 250.25,-41.585 			"/>
		</g>
	</g>
	<g>
		<g>
			<polyline fill="none" stroke="#B5B5B1" stroke-width="8" stroke-miterlimit="10" points="99.832,82.405 99.832,97.18 
				123.325,97.18 123.325,-141.244 			"/>
			<g>
				<polyline fill="none" stroke="#B5B5B1" stroke-width="8" stroke-miterlimit="10" points="141.487,82.405 141.487,97.18 
					164.98,97.18 164.98,-141.244 				"/>
				<g>
					<polygon fill="#B5B5B1" points="119.43,82.405 146.676,82.405 146.676,-179.145 119.43,-179.145 					"/>
				</g>
				
					<line fill="none" stroke="#8C8E8E" stroke-width="1.9444" stroke-miterlimit="10" x1="133.123" y1="-142.541" x2="133.123" y2="82.405"/>
				
					<line fill="none" stroke="#8C8E8E" stroke-width="3.5" stroke-miterlimit="10" x1="115.114" y1="-142.541" x2="115.114" y2="82.405"/>
				
					<line fill="none" stroke="#8C8E8E" stroke-width="3.5" stroke-miterlimit="10" x1="151.134" y1="-142.541" x2="151.134" y2="82.405"/>
				
					<line fill="none" stroke="#8C8E8E" stroke-width="1.7491" stroke-miterlimit="10" x1="115.305" y1="72.681" x2="151.072" y2="72.681"/>
				
					<line fill="none" stroke="#8C8E8E" stroke-width="1.7491" stroke-miterlimit="10" x1="115.305" y1="66.827" x2="151.072" y2="66.827"/>
				
					<line fill="none" stroke="#8C8E8E" stroke-width="1.7491" stroke-miterlimit="10" x1="115.305" y1="6.511" x2="151.072" y2="6.511"/>
				
					<line fill="none" stroke="#8C8E8E" stroke-width="1.7491" stroke-miterlimit="10" x1="115.305" y1="0.667" x2="151.072" y2="0.667"/>
				
					<line fill="none" stroke="#8C8E8E" stroke-width="1.7491" stroke-miterlimit="10" x1="115.305" y1="-51.106" x2="151.072" y2="-51.106"/>
				
					<line fill="none" stroke="#8C8E8E" stroke-width="1.7491" stroke-miterlimit="10" x1="115.305" y1="-56.571" x2="151.072" y2="-56.571"/>
			</g>
			<polyline fill="none" stroke="#B5B5B1" stroke-width="8" stroke-miterlimit="10" points="57.881,82.405 57.881,97.18 
				81.375,97.18 81.375,-141.244 			"/>
			<g>
				<polygon fill="#B5B5B1" points="35.441,82.405 62.688,82.405 62.688,-179.145 35.441,-179.145 				"/>
			</g>
			
				<line fill="none" stroke="#8C8E8E" stroke-width="1.622" stroke-miterlimit="10" x1="49.134" y1="-74.124" x2="49.134" y2="82.405"/>
			
				<line fill="none" stroke="#8C8E8E" stroke-width="2.9196" stroke-miterlimit="10" x1="31.125" y1="-74.124" x2="31.125" y2="82.405"/>
			
				<line fill="none" stroke="#8C8E8E" stroke-width="2.9196" stroke-miterlimit="10" x1="67.146" y1="-74.124" x2="67.146" y2="82.405"/>
			
				<line fill="none" stroke="#8C8E8E" stroke-width="1.7491" stroke-miterlimit="10" x1="31.316" y1="72.681" x2="67.083" y2="72.681"/>
			
				<line fill="none" stroke="#8C8E8E" stroke-width="1.7491" stroke-miterlimit="10" x1="31.316" y1="66.827" x2="67.083" y2="66.827"/>
			
				<line fill="none" stroke="#8C8E8E" stroke-width="1.7491" stroke-miterlimit="10" x1="31.316" y1="6.511" x2="67.083" y2="6.511"/>
			
				<line fill="none" stroke="#8C8E8E" stroke-width="1.7491" stroke-miterlimit="10" x1="31.316" y1="0.667" x2="67.083" y2="0.667"/>
			
				<line fill="none" stroke="#8C8E8E" stroke-width="1.7491" stroke-miterlimit="10" x1="31.316" y1="-51.106" x2="67.083" y2="-51.106"/>
			
				<line fill="none" stroke="#8C8E8E" stroke-width="1.7491" stroke-miterlimit="10" x1="31.316" y1="-56.571" x2="67.083" y2="-56.571"/>
			<g>
				<polygon fill="#86A0AF" points="-24.041,-56.508 -69.158,-56.508 -69.158,-76.747 -24.041,-76.747 				"/>
				<polygon fill="#86A0AF" points="27.157,-56.508 -17.956,-56.508 -17.956,-76.747 27.157,-76.747 				"/>
				<path fill="#86A0AF" d="M-24.041-56.508v14.793c0,0-3.828-11.233-15.654-11.233v-6.36"/>
				<path fill="#86A0AF" d="M27.157-56.508v14.793c0,0-3.821-11.233-15.654-11.233v-6.36"/>
			</g>
			<polygon fill="#1C6080" points="33.802,-66.343 -140.916,-66.343 -140.916,-81.916 33.802,-81.916 			"/>
			<g>
				<polygon fill="#B5B5B1" points="77.775,82.405 105.021,82.405 105.021,-179.145 77.775,-179.145 				"/>
			</g>
			<g>
				<polygon fill="#D25627" points="-140.916,-74.124 114.021,-74.124 114.021,-183.976 -140.916,-183.976 				"/>
				<path fill="#D25627" d="M-140.916-88.853c0,0-17.857-2.187-17.857-17.869h17.857V-88.853z"/>
			</g>
			<g>
				
					<line fill="none" stroke="#E57E25" stroke-width="4.0045" stroke-miterlimit="10" x1="99.832" y1="-74.124" x2="99.832" y2="-183.976"/>
				
					<line fill="none" stroke="#E57E25" stroke-width="4.0045" stroke-miterlimit="10" x1="84.732" y1="-74.124" x2="84.732" y2="-183.976"/>
				
					<line fill="none" stroke="#E57E25" stroke-width="4.0045" stroke-miterlimit="10" x1="69.628" y1="-74.124" x2="69.628" y2="-183.976"/>
				
					<line fill="none" stroke="#E57E25" stroke-width="4.0045" stroke-miterlimit="10" x1="54.523" y1="-74.124" x2="54.523" y2="-183.976"/>
				
					<line fill="none" stroke="#E57E25" stroke-width="4.0045" stroke-miterlimit="10" x1="-126.728" y1="-74.124" x2="-126.728" y2="-183.976"/>
				
					<line fill="none" stroke="#E57E25" stroke-width="4.0045" stroke-miterlimit="10" x1="-111.627" y1="-74.124" x2="-111.627" y2="-183.976"/>
				
					<line fill="none" stroke="#E57E25" stroke-width="4.0045" stroke-miterlimit="10" x1="-96.507" y1="-74.124" x2="-96.507" y2="-183.976"/>
				
					<line fill="none" stroke="#E57E25" stroke-width="4.0045" stroke-miterlimit="10" x1="-81.407" y1="-74.124" x2="-81.407" y2="-183.976"/>
				
					<line fill="none" stroke="#E57E25" stroke-width="4.0045" stroke-miterlimit="10" x1="-66.304" y1="-74.124" x2="-66.304" y2="-183.976"/>
				
					<line fill="none" stroke="#E57E25" stroke-width="4.0045" stroke-miterlimit="10" x1="-51.204" y1="-74.124" x2="-51.204" y2="-183.976"/>
				
					<line fill="none" stroke="#E57E25" stroke-width="4.0045" stroke-miterlimit="10" x1="-20.995" y1="-74.124" x2="-20.995" y2="-183.976"/>
				
					<line fill="none" stroke="#E57E25" stroke-width="4.0045" stroke-miterlimit="10" x1="-36.101" y1="-74.124" x2="-36.101" y2="-183.976"/>
				
					<line fill="none" stroke="#E57E25" stroke-width="4.0045" stroke-miterlimit="10" x1="-5.9" y1="-74.124" x2="-5.9" y2="-183.976"/>
				
					<line fill="none" stroke="#E57E25" stroke-width="4.0045" stroke-miterlimit="10" x1="9.205" y1="-74.124" x2="9.205" y2="-183.976"/>
				
					<line fill="none" stroke="#E57E25" stroke-width="4.0045" stroke-miterlimit="10" x1="24.308" y1="-74.124" x2="24.308" y2="-183.976"/>
				
					<line fill="none" stroke="#E57E25" stroke-width="4.0045" stroke-miterlimit="10" x1="39.422" y1="-74.124" x2="39.422" y2="-183.976"/>
			</g>
			
				<line fill="none" stroke="#8C8E8E" stroke-width="1.622" stroke-miterlimit="10" x1="91.467" y1="-74.124" x2="91.467" y2="82.405"/>
			
				<line fill="none" stroke="#8C8E8E" stroke-width="2.9196" stroke-miterlimit="10" x1="73.458" y1="-74.124" x2="73.458" y2="82.405"/>
			
				<line fill="none" stroke="#8C8E8E" stroke-width="2.9196" stroke-miterlimit="10" x1="109.479" y1="-74.124" x2="109.479" y2="82.405"/>
			
				<line fill="none" stroke="#8C8E8E" stroke-width="1.7491" stroke-miterlimit="10" x1="73.65" y1="72.681" x2="109.416" y2="72.681"/>
			
				<line fill="none" stroke="#8C8E8E" stroke-width="1.7491" stroke-miterlimit="10" x1="73.65" y1="66.827" x2="109.416" y2="66.827"/>
			
				<line fill="none" stroke="#8C8E8E" stroke-width="1.7491" stroke-miterlimit="10" x1="73.65" y1="6.511" x2="109.416" y2="6.511"/>
			
				<line fill="none" stroke="#8C8E8E" stroke-width="1.7491" stroke-miterlimit="10" x1="73.65" y1="0.667" x2="109.416" y2="0.667"/>
			
				<line fill="none" stroke="#8C8E8E" stroke-width="1.7491" stroke-miterlimit="10" x1="73.65" y1="-51.106" x2="109.416" y2="-51.106"/>
			<g>
				<polygon fill="#878E96" points="172.597,-140.605 74.053,-140.605 74.053,-183.976 172.597,-183.976 				"/>
				<polygon fill="#9CA1A8" points="165.413,-132.296 150.357,-132.296 150.357,-140.605 165.413,-140.605 				"/>
				<polygon fill="#B5B8BD" points="108.341,-113.731 92.581,-113.731 92.581,-140.605 108.341,-140.605 				"/>
			</g>
			
				<line fill="none" stroke="#8C8E8E" stroke-width="1.7491" stroke-miterlimit="10" x1="73.65" y1="-56.571" x2="109.416" y2="-56.571"/>
			
				<line fill="none" stroke="#3F4040" stroke-width="1.6624" stroke-miterlimit="10" x1="74.053" y1="-153.086" x2="172.597" y2="-153.086"/>
			
				<line fill="none" stroke="#3F4040" stroke-width="1.6624" stroke-miterlimit="10" x1="74.053" y1="-157.546" x2="172.597" y2="-157.546"/>
		</g>
		<g>
			<g>
				<g>
					<path fill="#008DC1" d="M-78.249-45.989c1.679-0.404,1.203-1.144-1.062-1.632l-58.162-12.495
						c-0.907-0.194-1.899-0.013-2.22,0.395l0,0c-0.32,0.395,0.116,0.871,0.975,1.068l53.828,12.478
						C-82.836-45.699-79.867-45.602-78.249-45.989L-78.249-45.989z"/>
					<path fill="#0073A7" d="M-85.394-45.838c1.34-0.339,0.903-0.982-0.976-1.412l-50.699-11.512
						c-0.822-0.186-1.744-0.042-2.043,0.315l0,0c-0.302,0.349,0.102,0.781,0.892,0.971l47.354,11.47
						C-89.145-45.585-86.69-45.501-85.394-45.838L-85.394-45.838z"/>
					<path fill="#008DC1" d="M-58.879-46.637c2.8-0.564,2.12-1.606-1.511-2.278l-80.256-14.859c-1.08-0.197-2.217,0.075-2.552,0.601
						l0,0c-0.32,0.509,0.233,1.08,1.253,1.291L-69.4-46.885C-66.245-46.233-61.539-46.103-58.879-46.637L-58.879-46.637z"/>
					<path fill="#0073A7" d="M-69.385-46.275c1.902-0.42,1.14-1.244-1.689-1.816l-67.837-13.682
						c-0.989-0.197-2.022-0.016-2.315,0.395l0,0c-0.287,0.395,0.24,0.884,1.182,1.089l62.725,13.712
						C-74.782-46.022-71.215-45.875-69.385-46.275L-69.385-46.275z"/>
				</g>
				<polygon fill="#231F20" points="-140.006,-64.027 -127.137,-61.554 -61.865,-49.021 -59.415,-52.111 				"/>
				<g>
					<path fill="#FFF3C3" d="M-137.128-60.095l61.889,13.276c0.183,0.039,0.362-0.078,0.402-0.26
						c0.039-0.183-0.078-0.362-0.26-0.401l-0.003,0L-137.128-60.095z"/>
				</g>
				<g>
					<path fill="#FFF3C3" d="M-138.026-58.009l48.786,11.71c0.182,0.044,0.364-0.068,0.408-0.25c0.043-0.181-0.068-0.364-0.25-0.407
						c-0.001,0-0.003-0.001-0.004-0.001L-138.026-58.009z"/>
				</g>
				<g opacity="0.5">
					<path fill="#807F80" d="M-59.964-48.493c-6.07,0.195-12.14,0.362-18.211,0.492l-18.212,0.43l0.034,0.004l-20.092-4.819
						c-6.701-1.593-13.393-3.221-20.078-4.877l0.083,0.059l-3.563-6.479c-0.141-0.256-0.463-0.35-0.719-0.209
						c-0.257,0.141-0.35,0.463-0.209,0.719c0.009,0.017,0.019,0.033,0.03,0.048l4.232,6.065l0.083,0.06
						c6.705,1.575,13.403,3.179,20.092,4.818l20.078,4.878l0.035,0.004l18.216-0.229c6.071-0.09,12.144-0.143,18.217-0.167
						c0.22-0.001,0.397-0.18,0.396-0.4s-0.18-0.398-0.4-0.396C-59.956-48.493-59.961-48.493-59.964-48.493z"/>
				</g>
			</g>
			<polyline fill="#231F20" points="-127.137,-62.114 -125.917,-67.344 -127.936,-67.386 -128.786,-61.71 			"/>
			<polyline fill="#231F20" points="-66.909,-52.236 -65.472,-67.344 -67.492,-67.386 -68.338,-53.09 			"/>
		</g>
	</g>
	<g>
		<path fill="#E64C3C" d="M152.958-132.72c0,0-16.643,8.579-6.809,34.222c9.834,25.644,22.438,8.216,22.438,8.216
			s-6.309-2.919,0-12.792c6.309-9.874,6.309-22.94-5.039-29.646H152.958z"/>
		<path fill="#ED9122" d="M157.934-132.079c0,0-8.044,4.065,0,19.496C157.934-112.583,169.324-127.756,157.934-132.079z"/>
	</g>
	<path opacity="0.7" fill="#EFEFEF" d="M-82.37,99.785c0,0,13.747-5.532,19.25-1.07l9.007,0.173l3.058,0.487
		c0,0,0.838,1.138,0.621,2.567c-0.341,2.259-2.216,4.731-10.049,5.962c0,0-2.161,6.348-8.697,7.612c0,0-0.948,6.447-3.966,5.589
		c0,0-4.859,11.052-13.834,3.349c0,0-0.811,3.266-3.152,2.326c0,0-3.951,15.818-13.628,9.417c0,0,0.161,3.512-1.015,4.442
		c0,0,1.392,24.319-15.986,19.503c0,0-3.474,12.961-12.355,12.19c0,0-0.197,4.835-5.751,3.181c0,0-0.764,7.645-6.056,7.116
		c0,0-20.889,11.804-28.326-16.122c0,0-4.192,0.437-5.608-3.901c0,0-9.646,5.044-19.133-9.847c0,0-14.907-5.292-8.876-32.444
		c0,0,7.045-19.354,23.112-5.732c0,0,1.92-1.875,3.135-0.678c0,0,18.645-18.784,43.254-9.409c0,0,10.01-6.672,17.248-1.321
		c0,0,1.518-2.372,3.692-1.412c0,0,21.543-12.064,30.694-0.728C-85.735,101.036-85.315,99.529-82.37,99.785z"/>
</symbol>
<symbol  id="cementtruck" viewBox="-137.734 -71.092 275.469 142.183">
	<path fill="#7F8080" d="M49.196,40.255h-3.984c-0.962,0-1.75,0.788-1.75,1.75l0,0c0,0.962,0.788,1.75,1.75,1.75h3.984
		c0.963,0,1.75-0.788,1.75-1.75l0,0C50.946,41.043,50.159,40.255,49.196,40.255z"/>
	<path fill="#26B99A" d="M100.517-41.272c0,0-2.159,7.396-6.89,7.396H67.555l-1.69,1.479l-143.47,1.479l-7.181-16.774h0.846
		l5.493-6.801v-9.175h2.536v9.175h31.444v-7.492h2.15v7.492h2.748v-7.492h2.874l5.333,2.958L-6.186-57.1l1.268-1.92h72.473h1.056
		v-4.648h1.616v4.648h32.505h0.954v17.748H100.517z M-62.754-36.101l-5.112,2.225h9.753L-62.754-36.101z M-44.467-35.989
		l-4.951,2.113l4.951,0.528V-35.989z M-38.353-36.101v2.752l4.951-0.528l1.13-2.225H-38.353z M-7.757-36.101h-6.082l1.13,2.225
		l4.951,0.528V-36.101z M-6.186-36.101v2.752l9.634-0.528l2.199-2.225H-6.186z M19.909-36.101H8.077l2.199,2.225l9.633,0.528
		V-36.101z"/>
	<polygon fill="#737376" points="137.734,-58.175 103.686,-58.175 103.686,-41.272 137.734,-41.272 	"/>
	<polygon fill="#E57E25" points="127.751,16.462 125.427,16.462 125.427,20.054 127.751,20.054 	"/>
	<polygon fill="#737376" points="67.287,-22.371 69.118,-22.371 69.118,-27.911 71.407,-27.911 71.407,-25.141 76.671,-25.141 
		76.671,-8.522 81.021,-8.522 81.021,-33.876 67.287,-33.876 	"/>
	<path fill="#B1B1B4" d="M80.444-33.349V14.72c0,0,4.518,5.071,8.419,5.282s39.276,0.11,44.615-7.074c0,0,0.561-6.449,2.614-28.634
		c0,0,1.643,0.105,1.643-1.849c0-1.955,0-23.929,0-23.929h-57.29V-33.349z"/>
	<g>
		<path fill="#383738" d="M102.732-54.839c0-8.977-7.276-16.253-16.253-16.253c-8.976,0-16.253,7.276-16.253,16.253
			c0,8.976,7.277,16.252,16.253,16.252C95.456-38.586,102.732-45.863,102.732-54.839z"/>
		<path fill="#7D8D96" d="M97.781-54.839c0-6.242-5.06-11.302-11.302-11.302s-11.302,5.06-11.302,11.302s5.06,11.301,11.302,11.301
			S97.781-48.597,97.781-54.839z"/>
		<path fill="#707174" d="M96.651-54.839c0-5.618-4.554-10.172-10.172-10.172c-5.617,0-10.171,4.554-10.171,10.172
			c0,5.617,4.554,10.171,10.171,10.171C92.097-44.667,96.651-49.222,96.651-54.839z"/>
		<path fill="#BDC5CA" d="M88.514-54.839c0-1.124-0.911-2.035-2.034-2.035s-2.034,0.911-2.034,2.035
			c0,1.123,0.911,2.034,2.034,2.034S88.514-53.716,88.514-54.839z"/>
		<path fill="#BDC5CA" d="M79.333-54.839c0-3.947,3.2-7.147,7.147-7.147c3.947,0,7.147,3.2,7.147,7.147
			c0,3.947-3.2,7.146-7.147,7.146C82.533-47.692,79.333-50.892,79.333-54.839z"/>
		<path fill="#DFDFDF" d="M83.874-54.494c0-1.439,1.167-2.606,2.606-2.606c1.439,0,2.606,1.167,2.606,2.606
			c0,1.439-1.167,2.606-2.606,2.606C85.041-51.888,83.874-53.055,83.874-54.494z"/>
	</g>
	<g>
		<path fill="#383738" d="M-5.847-54.839c0-8.977-7.277-16.253-16.253-16.253s-16.253,7.276-16.253,16.253
			c0,8.976,7.277,16.252,16.253,16.252S-5.847-45.863-5.847-54.839z"/>
		<path fill="#7D8D96" d="M-10.798-54.839c0-6.242-5.06-11.302-11.302-11.302s-11.302,5.06-11.302,11.302s5.06,11.301,11.302,11.301
			S-10.798-48.597-10.798-54.839z"/>
		<path fill="#707174" d="M-11.928-54.839c0-5.618-4.554-10.172-10.171-10.172s-10.171,4.554-10.171,10.172
			c0,5.617,4.554,10.171,10.171,10.171S-11.928-49.222-11.928-54.839z"/>
		<path fill="#BDC5CA" d="M-20.065-54.839c0-1.124-0.911-2.035-2.034-2.035s-2.034,0.911-2.034,2.035
			c0,1.123,0.911,2.034,2.034,2.034S-20.065-53.716-20.065-54.839z"/>
		<path fill="#BDC5CA" d="M-29.247-54.839c0-3.947,3.2-7.147,7.147-7.147s7.147,3.2,7.147,7.147c0,3.947-3.2,7.146-7.147,7.146
			S-29.247-50.892-29.247-54.839z"/>
		<path fill="#DFDFDF" d="M-24.706-54.494c0-1.439,1.167-2.606,2.606-2.606c1.439,0,2.606,1.167,2.606,2.606
			c0,1.439-1.167,2.606-2.606,2.606C-23.539-51.888-24.706-53.055-24.706-54.494z"/>
	</g>
	<g>
		<path fill="#383738" d="M-44.467-54.839c0-8.977-7.277-16.253-16.253-16.253s-16.253,7.276-16.253,16.253
			c0,8.976,7.277,16.252,16.253,16.252S-44.467-45.863-44.467-54.839z"/>
		<path fill="#7D8D96" d="M-49.418-54.839c0-6.242-5.06-11.302-11.302-11.302s-11.302,5.06-11.302,11.302s5.06,11.301,11.302,11.301
			S-49.418-48.597-49.418-54.839z"/>
		<path fill="#707174" d="M-50.548-54.839c0-5.618-4.554-10.172-10.171-10.172s-10.171,4.554-10.171,10.172
			c0,5.617,4.554,10.171,10.171,10.171S-50.548-49.222-50.548-54.839z"/>
		<path fill="#BDC5CA" d="M-58.686-54.839c0-1.124-0.911-2.035-2.034-2.035s-2.034,0.911-2.034,2.035
			c0,1.123,0.911,2.034,2.034,2.034S-58.686-53.716-58.686-54.839z"/>
		<path fill="#BDC5CA" d="M-67.867-54.839c0-3.947,3.2-7.147,7.147-7.147s7.147,3.2,7.147,7.147c0,3.947-3.2,7.146-7.147,7.146
			S-67.867-50.892-67.867-54.839z"/>
		<path fill="#DFDFDF" d="M-63.326-54.494c0-1.439,1.167-2.606,2.606-2.606c1.439,0,2.606,1.167,2.606,2.606
			c0,1.439-1.167,2.606-2.606,2.606C-62.159-51.888-63.326-53.055-63.326-54.494z"/>
	</g>
	<polygon fill="#D8DADA" points="67.555,-58.175 40.721,-58.175 40.721,-41.272 67.555,-41.272 	"/>
	
		<line fill="none" stroke="#EFEFEF" stroke-width="2.5355" stroke-miterlimit="10" x1="45.581" y1="-41.272" x2="45.581" y2="-58.175"/>
	
		<line fill="none" stroke="#EFEFEF" stroke-width="2.5355" stroke-miterlimit="10" x1="63.329" y1="-41.272" x2="63.329" y2="-58.175"/>
	<g>
		<polygon fill="none" stroke="#737376" stroke-width="2.5355" stroke-miterlimit="10" points="38.397,-56.874 -1.114,-56.874 
			-1.114,-47.692 -1.114,-32.397 38.397,-32.397 		"/>
		
			<line fill="none" stroke="#737376" stroke-width="2.5355" stroke-miterlimit="10" x1="37.34" y1="-47.692" x2="-0.058" y2="-47.692"/>
	</g>
	<g>
		<polygon fill="#C3C4C6" points="73.018,-33.876 74.074,12.396 78.542,12.396 79.599,-33.876 		"/>
	</g>
	<polygon fill="#E3E4E5" points="78.542,12.396 74.074,12.396 73.625,-7.254 78.991,-7.254 	"/>
	<path fill="none" stroke="#E3E4E5" stroke-width="3.0426" stroke-miterlimit="10" d="M76.308,12.396v27.679
		c0,0,0.333,5.705-3.894,5.705"/>
	<g>
		<path fill="#343433" d="M77.595,11.445c0-0.11-0.09-0.2-0.2-0.2s-0.2,0.09-0.2,0.2s0.089,0.2,0.2,0.2S77.595,11.556,77.595,11.445
			z"/>
		<path fill="#343433" d="M76.514,11.445c0-0.11-0.089-0.2-0.2-0.2s-0.2,0.09-0.2,0.2s0.09,0.2,0.2,0.2S76.514,11.556,76.514,11.445
			z"/>
		<path fill="#343433" d="M75.434,11.445c0-0.11-0.089-0.2-0.2-0.2s-0.2,0.09-0.2,0.2s0.089,0.2,0.2,0.2
			S75.434,11.556,75.434,11.445z"/>
	</g>
	<g>
		<path fill="#343433" d="M77.595,10.475c0-0.11-0.09-0.2-0.2-0.2s-0.2,0.089-0.2,0.2s0.089,0.2,0.2,0.2
			S77.595,10.585,77.595,10.475z"/>
		<path fill="#343433" d="M76.514,10.475c0-0.11-0.089-0.2-0.2-0.2s-0.2,0.089-0.2,0.2s0.09,0.2,0.2,0.2
			S76.514,10.585,76.514,10.475z"/>
		<path fill="#343433" d="M75.434,10.475c0-0.11-0.089-0.2-0.2-0.2s-0.2,0.089-0.2,0.2s0.089,0.2,0.2,0.2
			S75.434,10.585,75.434,10.475z"/>
	</g>
	<g>
		<path fill="#343433" d="M77.595,9.504c0-0.11-0.09-0.2-0.2-0.2s-0.2,0.089-0.2,0.2s0.089,0.2,0.2,0.2S77.595,9.614,77.595,9.504z"
			/>
		<path fill="#343433" d="M76.514,9.504c0-0.11-0.089-0.2-0.2-0.2s-0.2,0.089-0.2,0.2s0.09,0.2,0.2,0.2S76.514,9.614,76.514,9.504z"
			/>
		<path fill="#343433" d="M75.434,9.504c0-0.11-0.089-0.2-0.2-0.2s-0.2,0.089-0.2,0.2s0.089,0.2,0.2,0.2S75.434,9.614,75.434,9.504z
			"/>
	</g>
	<g>
		<path fill="#343433" d="M77.595,8.533c0-0.11-0.09-0.2-0.2-0.2s-0.2,0.089-0.2,0.2s0.089,0.2,0.2,0.2S77.595,8.644,77.595,8.533z"
			/>
		<path fill="#343433" d="M76.514,8.533c0-0.11-0.089-0.2-0.2-0.2s-0.2,0.089-0.2,0.2s0.09,0.2,0.2,0.2S76.514,8.644,76.514,8.533z"
			/>
		<path fill="#343433" d="M75.434,8.533c0-0.11-0.089-0.2-0.2-0.2s-0.2,0.089-0.2,0.2s0.089,0.2,0.2,0.2S75.434,8.644,75.434,8.533z
			"/>
	</g>
	<g>
		<path fill="#343433" d="M77.595,7.563c0-0.11-0.09-0.2-0.2-0.2s-0.2,0.089-0.2,0.2c0,0.111,0.089,0.2,0.2,0.2
			S77.595,7.673,77.595,7.563z"/>
		<path fill="#343433" d="M76.514,7.563c0-0.11-0.089-0.2-0.2-0.2s-0.2,0.089-0.2,0.2c0,0.111,0.09,0.2,0.2,0.2
			S76.514,7.673,76.514,7.563z"/>
		<path fill="#343433" d="M75.434,7.563c0-0.11-0.089-0.2-0.2-0.2s-0.2,0.089-0.2,0.2c0,0.111,0.089,0.2,0.2,0.2
			S75.434,7.673,75.434,7.563z"/>
	</g>
	<polygon fill="#343433" points="106.909,-22.678 100.462,-22.678 100.462,-20.988 106.909,-20.988 	"/>
	
		<line fill="none" stroke="#C2C8B4" stroke-width="2.5355" stroke-miterlimit="10" x1="-120.04" y1="5.212" x2="-76.123" y2="-29.032"/>
	<polygon fill="#6B6969" points="-77.201,-28.013 -82.906,-28.013 -82.906,-17.554 -77.201,-17.554 	"/>
	<path fill="#C03A2B" d="M-77.439-19.588c0-0.832-0.674-1.505-1.505-1.505s-1.505,0.674-1.505,1.505
		c0,0.831,0.674,1.505,1.505,1.505S-77.439-18.757-77.439-19.588z"/>
	<polygon fill="#F4D280" points="-77.676,-24.052 -80.212,-24.052 -80.212,-21.833 -77.676,-21.833 	"/>
	<polygon fill="#9AB565" points="-77.676,-27.221 -80.212,-27.221 -80.212,-25.161 -77.676,-25.161 	"/>
	<polygon fill="#E57E25" points="-60.245,-33.349 -69.436,-33.349 -69.436,-31.764 -60.245,-31.764 	"/>
	<polygon fill="#E57E25" points="60.138,-33.349 50.946,-33.349 50.946,-31.764 60.138,-31.764 	"/>
	<polygon fill="#D25627" points="-77.927,-54.423 -79.961,-54.423 -79.961,-49.353 -77.927,-49.353 	"/>
	<polygon fill="#E57E25" points="67.217,10.019 65.527,10.019 65.527,13.61 67.217,13.61 	"/>
	<path fill="#D1E2E8" stroke="#D1E2E8" stroke-width="2.5355" stroke-miterlimit="10" d="M86.991,12.929h44.533l4.521-28.313
		l-36.13,6.973c0,0-12.255,0.106-13.1,6.18C85.969,3.843,86.991,12.929,86.991,12.929z"/>
	
		<line fill="none" stroke="#9D9EA1" stroke-width="0.9561" stroke-miterlimit="10" x1="96.586" y1="-9.119" x2="96.586" y2="-36.101"/>
	<polygon fill="#EFF5F7" points="108.123,12.929 133.785,-1.228 131.524,12.929 	"/>
	<g>
		
			<line fill="none" stroke="#C3C3C5" stroke-width="0.8729" stroke-miterlimit="10" x1="137.734" y1="-21.833" x2="129.674" y2="-21.833"/>
		
			<line fill="none" stroke="#C3C3C5" stroke-width="0.8729" stroke-miterlimit="10" x1="137.734" y1="-23.946" x2="129.674" y2="-23.946"/>
		
			<line fill="none" stroke="#C3C3C5" stroke-width="0.8729" stroke-miterlimit="10" x1="137.734" y1="-26.693" x2="129.674" y2="-26.693"/>
	</g>
	<polygon fill="#FFFFFF" points="137.719,-49.353 129.689,-49.353 129.689,-43.173 137.719,-43.173 	"/>
	<polygon fill="#D25627" points="131.803,-49.353 129.689,-49.353 129.689,-43.173 131.803,-43.173 	"/>
	<path fill="#E3E4E3" d="M23.269,35.171c0,0,6.339-40.4-18.171-58.021h-41.835c0,0-30.848,9.424-39.3,16.186
		c-8.452,6.761-37.187,25.144-37.187,25.144l9.296,41.201c0,0,46.062,4.648,52.823,4.226c6.761-0.423,38.455-5.071,42.258-7.184
		C-5.044,54.61,23.269,35.171,23.269,35.171z"/>
	<path fill="#BEC0C2" d="M23.269,35.171c0,0-11.786-23.926-18.171-58.021C5.098-22.85,27.964-13.848,23.269,35.171z"/>
	<path fill="#26B99A" d="M-28.925-22.942l-6.181-0.313l-9.016,2.237c0.064,0.256,6.408,25.822,9.854,41.165
		c3.692,16.433,16.235,39.893,16.768,40.885l13.4-7.199c-0.119-0.224-12.093-22.625-15.327-37.021
		C-22.909,1.303-28.863-22.685-28.925-22.942z"/>
	<path fill="none" stroke="#737376" stroke-width="2.5355" stroke-miterlimit="10" d="M-58.114,63.934
		c0,0-12.345-38.84-17.924-70.598"/>
	
		<line fill="#7A7B7F" stroke="#BEC0C2" stroke-width="1.2677" stroke-miterlimit="10" x1="-84.786" y1="61.521" x2="-96.083" y2="7.306"/>
	<path fill="#26B99A" d="M54.186,30.486c0-6.631-5.375-12.007-12.007-12.007s-12.007,5.375-12.007,12.007
		s5.375,12.007,12.007,12.007S54.186,37.118,54.186,30.486z"/>
	<polygon fill="#7F8080" points="-117.451,18.479 -111.112,56.3 -104.773,63.934 -137.734,71.091 -131.818,58.836 -133.086,13.197 
		-93.786,-30.751 -59.557,-30.751 	"/>
	<path fill="#7F8080" d="M29.607,20.169c0,0,5.705-5.282,12.572-5.282l4.754-30.003h10.142l9.297-15.636H5.098
		C5.098-30.751,27.283-12.581,29.607,20.169z"/>
	<polygon fill="#579B89" points="66.372,-13.848 48.624,-13.848 48.624,14.042 66.372,14.042 	"/>
	<g>
		<path fill="none" stroke="#F1A197" stroke-width="2.5355" stroke-miterlimit="10" d="M60.878,8.126"/>
	</g>
	<g>
		<path fill="none" stroke="#F1A197" stroke-width="2.5355" stroke-miterlimit="10" d="M60.878,8.126"/>
	</g>
	<g>
		<polygon fill="#E57E25" points="-78.332,-35.214 -79.989,-34.522 -78.484,-30.915 -76.827,-31.606 		"/>
		<polygon fill="#D25627" points="-79.958,-39.114 -81.616,-38.422 -79.989,-34.522 -78.332,-35.214 		"/>
	</g>
	<path fill="#737376" d="M-119.52,21.67V-9.968h12.59V21.67H-119.52z M-118.078-5.681h9.707v-2.808h-9.707V-5.681z M-118.078-1.417
		h9.707v-2.808h-9.707V-1.417z M-118.078,2.847h9.707V0.039h-9.707V2.847z M-118.078,7.11h9.707V4.303h-9.707V7.11z
		 M-118.078,11.374h9.707V8.566h-9.707V11.374z M-118.078,15.638h9.707V12.83h-9.707V15.638z M-118.078,19.902h9.707v-2.808h-9.707
		V19.902z"/>
	<polyline fill="none" stroke="#737376" stroke-width="2.5355" stroke-miterlimit="10" points="-129.236,14.042 -129.236,57.746 
		-92.155,57.746 -92.155,19.643 -104.492,7.306 	"/>
	<polyline fill="none" stroke="#737376" stroke-width="2.5355" stroke-miterlimit="10" points="-120.04,57.746 -120.04,14.042 
		-137.734,14.042 	"/>
	
		<line fill="none" stroke="#363435" stroke-width="7.6064" stroke-miterlimit="10" x1="42.179" y1="33.375" x2="28.915" y2="-18.083"/>
	<polygon fill="#D8DADA" points="-68.147,-28.862 -68.347,-27.51 -67.275,-26.661 -66.004,-27.164 -65.805,-28.517 -66.876,-29.366 
			"/>
	<polygon fill="#D8DADA" points="54.471,-18.404 54.271,-17.051 55.342,-16.202 56.613,-16.705 56.813,-18.058 55.742,-18.907 	"/>
	<polygon fill="#D8DADA" points="49.875,-18.404 49.675,-17.051 50.747,-16.202 52.018,-16.705 52.218,-18.058 51.146,-18.907 	"/>
	<polygon fill="#D8DADA" points="-130.308,12.08 -130.507,13.432 -129.436,14.281 -128.165,13.778 -127.965,12.426 -129.037,11.577 
			"/>
	<polygon fill="#D8DADA" points="-127.766,8.455 -127.965,9.807 -126.894,10.656 -125.623,10.153 -125.423,8.801 -126.495,7.952 	
		"/>
	<polygon fill="#D8DADA" points="-71.822,-26.01 -72.021,-24.658 -70.95,-23.809 -69.679,-24.312 -69.479,-25.664 -70.551,-26.513 	
		"/>
</symbol>
<symbol  id="cucumber" viewBox="-7.263 -4.857 14.526 9.714">
	<path fill="#658756" d="M-0.738,1.753C1.531-0.534,8.417-3.21,7.096-4.521S-1.969-3.034-4.238-0.747
		C-6.506,1.54-8.106,3.083-6.785,4.395S-3.006,4.04-0.738,1.753z"/>
	<path fill="none" stroke="#A5B99D" stroke-width="0.25" stroke-miterlimit="10" d="M-4.75,4.689c0,0,4.231-6.364,11.789-8.317"/>
	<path fill="none" stroke="#A5B99D" stroke-width="0.25" stroke-miterlimit="10" d="M-5.894,4.158c0,0,4.23-6.364,11.788-8.316"/>
</symbol>
<symbol  id="dumptruck" viewBox="-123.64 -70.915 247.28 141.829">
	<g>
		<path fill="#666363" d="M71.407,14.167L-100.658-2.363v-31.652h81.693H93.66L71.407,14.167z M-6.58-29.105l-5.052,23.575
			l24.514-16.912L-6.58-29.105z"/>
	</g>
	<path fill="#989A9D" d="M-43.295,62.293c0,0,0.415,3.686,11.032,2.08s4.439,4.615,12.528,2.838
		c8.089-1.777,22.45,3.089,26.936,0.323c4.486-2.767,19.062,3.521,23.441,3.377c4.379-0.144,9.402-2.557,14.557-6.017
		c5.155-3.46,17.057-6.561,17.1-10.103s3.213,2.968,12.305,0c9.092-2.968,18.417,2.037,22.417,0.006c4-2.03,9.518-6.898,9.518-6.898
		l-144.581-8.594L-43.295,62.293z"/>
	<g>
		<path fill="#383738" d="M6.94-32.165c-6.786,0-15.562,2.153-23.973,10.565C-33.392-5.239-46.968-3.688-47.103-3.675l0.625,6.741
			c0.643-0.058,15.98-1.625,34.233-19.878c13.651-13.651,27.681-7.173,28.273-6.89l2.968-6.084
			C18.899-29.833,13.998-32.165,6.94-32.165z"/>
		<path fill="#E29B27" d="M-40.321,20.171l-6.938-16.285h19.29l-8.138,16.406C-36.988,22.067-39.544,21.994-40.321,20.171z"/>
		<polygon fill="#E29B27" points="-109.708,-12.637 -106.041,-3.407 -106.041,3.886 -88.095,0.95 -99.834,-14.948 -107.733,-14.435 
			-107.733,-12.637 		"/>
		<polygon fill="#E29B27" points="-43.195,-6.837 -106.041,-6.837 -106.041,4.316 -43.195,4.316 		"/>
		<path fill="#F4C051" d="M-123.64-12.488v-32.176h12.804v32.176H-123.64z M-112.302-43.159h-9.872v2.855h9.872V-43.159z
			 M-112.302-38.823h-9.872v2.855h9.872V-38.823z M-112.302-34.487h-9.872v2.856h9.872V-34.487z M-112.302-30.15h-9.872v2.855h9.872
			V-30.15z M-112.302-25.814h-9.872v2.855h9.872V-25.814z M-112.302-21.478h-9.872v2.855h9.872V-21.478z M-112.302-17.142h-9.872
			v2.856h9.872V-17.142z"/>
		<path fill="#F4C051" d="M93.66,0.55"/>
		<path fill="#666363" d="M-70.754,15.626l20.999,5.806c-3.809,9.469-7.829,19.256-8.292,19.55
			c-0.903,0.573-28.707,1.028-31.567,0.168c-2.224-0.667-7.034-17.003-9.071-24.264l27.932,2.916V15.626z"/>
		<path fill="#F4C051" d="M-99.638,3.886l56.932-0.169c0,0-3.43,8.714-7.05,17.715l-20.999-5.806v4.176l-27.932-2.916
			c-0.583-2.08-0.952-3.455-0.952-3.455V3.886z"/>
		<g>
			<polyline fill="none" stroke="#635D52" stroke-width="2.1757" stroke-miterlimit="10" points="-122.4,-10.003 -122.4,0.95 
				-112.81,0.95 -112.81,-10.003 			"/>
			<polyline fill="none" stroke="#635D52" stroke-width="2.1757" stroke-miterlimit="10" points="-112.81,0.406 -105.194,13.505 
				-65.726,13.505 -65.726,3.649 			"/>
			
				<line fill="none" stroke="#635D52" stroke-width="2.1757" stroke-miterlimit="10" x1="-75.544" y1="3.649" x2="-75.544" y2="13.505"/>
			
				<line fill="none" stroke="#635D52" stroke-width="2.1757" stroke-miterlimit="10" x1="-85.336" y1="3.649" x2="-85.336" y2="13.505"/>
			
				<line fill="none" stroke="#635D52" stroke-width="2.1757" stroke-miterlimit="10" x1="-95.433" y1="3.649" x2="-95.433" y2="13.505"/>
			
				<line fill="none" stroke="#635D52" stroke-width="2.1757" stroke-miterlimit="10" x1="-105.053" y1="3.649" x2="-105.053" y2="13.505"/>
		</g>
		<polygon fill="#D1E2E8" points="-88.095,36.718 -73.235,36.718 -73.235,23.038 -93.519,20.601 		"/>
		<polygon fill="#D1E2E8" points="-68.326,36.718 -63.417,36.718 -58.508,23.789 -68.949,20.601 		"/>
		<path fill="#231F20" d="M22.124-27.621c0-2.552-2.069-4.621-4.621-4.621c-2.552,0-4.621,2.069-4.621,4.621
			c0,2.552,2.069,4.621,4.621,4.621C20.055-23,22.124-25.068,22.124-27.621z"/>
		<polygon fill="#F4C051" points="-123.64,-12.488 -123.64,-8.499 -110.836,-8.499 -109.143,-3.407 -106.041,-3.407 
			-109.708,-12.637 		"/>
		<path fill="#231F20" d="M-42.16-0.305c0-2.552-2.069-4.621-4.621-4.621c-2.552,0-4.621,2.069-4.621,4.621
			c0,2.552,2.069,4.621,4.621,4.621C-44.229,4.316-42.16,2.248-42.16-0.305z"/>
		<polygon fill="#F6F9FA" points="-84.3,36.718 -73.235,24.807 -73.024,36.641 		"/>
		<polygon fill="#F6F9FA" points="-68.326,36.718 -58.508,23.789 -63.411,36.641 		"/>
		<g>
			<path fill="#E29B27" d="M-26.582,3.112c3.429-7.308,5.859-12.525,5.859-12.525L92.949,15.013l-3.103,10.718L-26.582,3.112z"/>
			<g>
				<path fill="#F4C051" d="M123.64,32.5l-1.921,10.437l-25.95,6.487c0,0-119.313-3.667-123.544-0.846
					c-4.231,2.821-15.208,14.104-15.208,14.104h-11.209l-7.175,4.38h-44.54V57.04c0,0,50.146,0.64,55.175-8.668
					c3.37-6.239,17.181-30.409,24.149-45.26L112.08,30.185L123.64,32.5z"/>
			</g>
			<polygon fill="#F5DAA0" points="-21.851,14.167 -35.39,43.219 96.616,43.219 117.771,38.424 117.771,36.45 			"/>
			<polygon fill="#E29B27" points="13.689,-0.874 17.638,-23.205 24.972,-20.272 20.882,1.118 			"/>
			
				<line fill="none" stroke="#F4C051" stroke-width="4.3514" stroke-linecap="round" stroke-miterlimit="10" x1="-4.474" y1="43.219" x2="7.543" y2="18.858"/>
			
				<line fill="none" stroke="#F4C051" stroke-width="4.3514" stroke-linecap="round" stroke-miterlimit="10" x1="22.979" y1="44.811" x2="34.997" y2="20.449"/>
			
				<line fill="none" stroke="#F4C051" stroke-width="4.3514" stroke-linecap="round" stroke-miterlimit="10" x1="50.88" y1="45.312" x2="61.934" y2="22.906"/>
		</g>
		<g>
			<path fill="#292928" d="M-40.803-39.879c0-16.367-13.268-29.635-29.635-29.635c-16.367,0-29.635,13.268-29.635,29.635
				c0,16.367,13.268,29.635,29.635,29.635C-54.071-10.245-40.803-23.513-40.803-39.879z"/>
			<g>
				<g>
					<polygon fill="none" points="-46.766,-33.589 -45.538,-38.125 -40.629,-36.797 -41.856,-32.261 					"/>
					<g>
						<polygon fill="#231F20" points="-46.766,-33.589 -43.647,-35.379 -41.856,-32.261 -41.293,-34.343 -43.083,-37.461 
							-46.202,-35.671 						"/>
					</g>
				</g>
				<g>
					<polygon fill="none" points="-48.093,-28.68 -46.866,-33.216 -41.957,-31.888 -43.184,-27.352 					"/>
					<g>
						<polygon fill="#231F20" points="-48.093,-28.68 -44.975,-30.47 -43.184,-27.352 -42.621,-29.434 -44.412,-32.552 
							-47.53,-30.762 						"/>
					</g>
				</g>
				<g>
					<polygon fill="none" points="-49.421,-23.771 -48.194,-28.307 -43.285,-26.979 -44.512,-22.442 					"/>
					<g>
						<polygon fill="#231F20" points="-49.421,-23.771 -46.303,-25.561 -44.512,-22.442 -43.949,-24.524 -45.74,-27.643 
							-48.858,-25.853 						"/>
					</g>
				</g>
				<g>
					<polygon fill="none" points="-53.334,-21.872 -50.011,-25.195 -46.415,-21.599 -49.738,-18.275 					"/>
					<g>
						<polygon fill="#231F20" points="-53.334,-21.872 -49.738,-21.872 -49.738,-18.275 -48.213,-19.801 -48.213,-23.397 
							-51.809,-23.397 						"/>
					</g>
				</g>
				<g>
					<polygon fill="none" points="-56.931,-18.275 -53.607,-21.599 -50.011,-18.003 -53.334,-14.68 					"/>
					<g>
						<polygon fill="#231F20" points="-56.931,-18.275 -53.334,-18.275 -53.334,-14.68 -51.809,-16.205 -51.809,-19.801 
							-55.405,-19.801 						"/>
					</g>
				</g>
				<g>
					<polygon fill="none" points="-60.152,-16.648 -55.615,-17.875 -54.288,-12.966 -58.824,-11.739 					"/>
					<g>
						<polygon fill="#231F20" points="-60.152,-16.648 -57.034,-14.857 -58.824,-11.739 -56.742,-12.302 -54.951,-15.421 
							-58.07,-17.211 						"/>
					</g>
				</g>
				<g>
					<polygon fill="none" points="-65.062,-15.32 -60.525,-16.547 -59.197,-11.638 -63.733,-10.411 					"/>
					<g>
						<polygon fill="#231F20" points="-65.062,-15.32 -61.943,-13.53 -63.733,-10.411 -61.651,-10.974 -59.861,-14.093 
							-62.979,-15.883 						"/>
					</g>
				</g>
				<g>
					<polygon fill="none" points="-69.971,-13.992 -65.434,-15.22 -64.106,-10.31 -68.643,-9.083 					"/>
					<g>
						<polygon fill="#231F20" points="-69.971,-13.992 -66.852,-12.202 -68.643,-9.083 -66.561,-9.646 -64.77,-12.765 
							-67.889,-14.556 						"/>
					</g>
				</g>
				<g>
					<polygon fill="none" points="-73.552,-14.366 -69.015,-13.139 -70.343,-8.229 -74.88,-9.457 					"/>
					<g>
						<polygon fill="#231F20" points="-73.552,-14.366 -71.761,-11.248 -74.88,-9.457 -72.798,-8.894 -69.679,-10.684 
							-71.47,-13.803 						"/>
					</g>
				</g>
				<g>
					<polygon fill="none" points="-78.461,-15.694 -73.924,-14.467 -75.252,-9.558 -79.789,-10.785 					"/>
					<g>
						<polygon fill="#231F20" points="-78.461,-15.694 -76.67,-12.575 -79.789,-10.785 -77.707,-10.222 -74.588,-12.012 
							-76.379,-15.131 						"/>
					</g>
				</g>
				<g>
					<polygon fill="none" points="-83.37,-17.022 -78.833,-15.795 -80.162,-10.886 -84.698,-12.113 					"/>
					<g>
						<polygon fill="#231F20" points="-83.37,-17.022 -81.58,-13.903 -84.698,-12.113 -82.616,-11.549 -79.498,-13.34 
							-81.288,-16.458 						"/>
					</g>
				</g>
				<g>
					<polygon fill="none" points="-86.223,-19.288 -82.899,-15.964 -86.495,-12.368 -89.818,-15.691 					"/>
					<g>
						<polygon fill="#231F20" points="-86.223,-19.288 -86.223,-15.692 -89.818,-15.691 -88.293,-14.167 -84.697,-14.167 
							-84.697,-17.763 						"/>
					</g>
				</g>
				<g>
					<polygon fill="none" points="-89.818,-22.884 -86.495,-19.561 -90.091,-15.964 -93.415,-19.288 					"/>
					<g>
						<polygon fill="#231F20" points="-89.818,-22.884 -89.819,-19.288 -93.415,-19.288 -91.89,-17.763 -88.293,-17.763 
							-88.293,-21.359 						"/>
					</g>
				</g>
				<g>
					<polygon fill="none" points="-93.415,-26.48 -90.091,-23.157 -93.688,-19.561 -97.011,-22.884 					"/>
					<g>
						<polygon fill="#231F20" points="-93.415,-26.48 -93.415,-22.884 -97.011,-22.884 -95.486,-21.359 -91.89,-21.358 
							-91.89,-24.955 						"/>
					</g>
				</g>
				<g>
					<polygon fill="none" points="-94.421,-30.061 -93.194,-25.524 -98.103,-24.196 -99.331,-28.733 					"/>
					<g>
						<polygon fill="#231F20" points="-94.421,-30.061 -96.212,-26.943 -99.331,-28.733 -98.767,-26.651 -95.648,-24.86 
							-93.858,-27.979 						"/>
					</g>
				</g>
				<g>
					<polygon fill="none" points="-95.749,-34.97 -94.522,-30.434 -99.431,-29.105 -100.658,-33.643 					"/>
					<g>
						<polygon fill="#231F20" points="-95.749,-34.97 -97.54,-31.852 -100.658,-33.643 -100.095,-31.56 -96.977,-29.77 
							-95.186,-32.888 						"/>
					</g>
				</g>
				<g>
					<polygon fill="none" points="-97.077,-39.879 -95.85,-35.343 -100.759,-34.015 -101.986,-38.552 					"/>
					<g>
						<polygon fill="#231F20" points="-97.077,-39.879 -98.868,-36.761 -101.986,-38.552 -101.423,-36.47 -98.305,-34.679 
							-96.514,-37.797 						"/>
					</g>
				</g>
				<g>
					<polygon fill="none" points="-95.976,-43.461 -97.204,-38.924 -102.113,-40.252 -100.886,-44.789 					"/>
					<g>
						<polygon fill="#231F20" points="-95.976,-43.461 -99.095,-41.67 -100.886,-44.789 -101.449,-42.707 -99.658,-39.588 
							-96.54,-41.379 						"/>
					</g>
				</g>
				<g>
					<polygon fill="none" points="-94.648,-48.37 -95.875,-43.833 -100.785,-45.161 -99.558,-49.698 					"/>
					<g>
						<polygon fill="#231F20" points="-94.648,-48.37 -97.767,-46.58 -99.558,-49.698 -100.121,-47.616 -98.33,-44.497 
							-95.211,-46.288 						"/>
					</g>
				</g>
				<g>
					<polygon fill="none" points="-93.32,-53.279 -94.547,-48.743 -99.457,-50.07 -98.229,-54.607 					"/>
					<g>
						<polygon fill="#231F20" points="-93.32,-53.279 -96.439,-51.489 -98.229,-54.607 -98.792,-52.525 -97.002,-49.407 
							-93.883,-51.197 						"/>
					</g>
				</g>
				<g>
					<polygon fill="none" points="-90.434,-55.772 -93.757,-52.449 -97.353,-56.045 -94.03,-59.368 					"/>
					<g>
						<polygon fill="#231F20" points="-90.434,-55.772 -94.029,-55.772 -94.03,-59.368 -95.555,-57.843 -95.555,-54.247 
							-91.958,-54.247 						"/>
					</g>
				</g>
				<g>
					<polygon fill="none" points="-86.837,-59.368 -90.161,-56.045 -93.757,-59.641 -90.434,-62.964 					"/>
					<g>
						<polygon fill="#231F20" points="-86.837,-59.368 -90.434,-59.368 -90.434,-62.964 -91.958,-61.439 -91.958,-57.843 
							-88.363,-57.843 						"/>
					</g>
				</g>
				<g>
					<polygon fill="none" points="-83.241,-62.964 -86.564,-59.641 -90.161,-63.237 -86.837,-66.56 					"/>
					<g>
						<polygon fill="#231F20" points="-83.241,-62.964 -86.837,-62.964 -86.837,-66.56 -88.362,-65.035 -88.363,-61.439 
							-84.767,-61.439 						"/>
					</g>
				</g>
				<g>
					<polygon fill="none" points="-79.301,-63.35 -83.837,-62.123 -85.166,-67.032 -80.628,-68.259 					"/>
					<g>
						<polygon fill="#231F20" points="-79.301,-63.35 -82.419,-65.14 -80.628,-68.259 -82.71,-67.696 -84.501,-64.577 
							-81.383,-62.787 						"/>
					</g>
				</g>
				<g>
					<polygon fill="none" points="-74.392,-64.678 -78.928,-63.45 -80.256,-68.359 -75.719,-69.587 					"/>
					<g>
						<polygon fill="#231F20" points="-74.392,-64.678 -77.51,-66.468 -75.719,-69.587 -77.801,-69.023 -79.592,-65.905 
							-76.474,-64.114 						"/>
					</g>
				</g>
				<g>
					<polygon fill="none" points="-69.482,-66.005 -74.019,-64.778 -75.347,-69.688 -70.81,-70.915 					"/>
					<g>
						<polygon fill="#231F20" points="-69.482,-66.005 -72.601,-67.796 -70.81,-70.915 -72.892,-70.352 -74.683,-67.233 
							-71.564,-65.442 						"/>
					</g>
				</g>
				<g>
					<polygon fill="none" points="-65.901,-64.178 -70.438,-65.405 -69.11,-70.314 -64.573,-69.087 					"/>
					<g>
						<polygon fill="#231F20" points="-65.901,-64.178 -67.691,-67.296 -64.573,-69.087 -66.655,-69.65 -69.773,-67.859 
							-67.983,-64.741 						"/>
					</g>
				</g>
				<g>
					<polygon fill="none" points="-60.992,-62.85 -65.528,-64.077 -64.2,-68.986 -59.664,-67.759 					"/>
					<g>
						<polygon fill="#231F20" points="-60.992,-62.85 -62.782,-65.968 -59.664,-67.759 -61.746,-68.322 -64.864,-66.531 
							-63.074,-63.413 						"/>
					</g>
				</g>
				<g>
					<polygon fill="none" points="-56.083,-61.521 -60.619,-62.749 -59.291,-67.658 -54.754,-66.431 					"/>
					<g>
						<polygon fill="#231F20" points="-56.083,-61.521 -57.873,-64.64 -54.754,-66.431 -56.836,-66.994 -59.955,-65.204 
							-58.165,-62.085 						"/>
					</g>
				</g>
				<g>
					<polygon fill="none" points="-53.949,-58.014 -57.272,-61.337 -53.676,-64.933 -50.353,-61.61 					"/>
					<g>
						<polygon fill="#231F20" points="-53.949,-58.014 -53.949,-61.61 -50.353,-61.61 -51.878,-63.135 -55.475,-63.135 
							-55.475,-59.539 						"/>
					</g>
				</g>
				<g>
					<polygon fill="none" points="-50.353,-54.417 -53.676,-57.741 -50.081,-61.337 -46.757,-58.014 					"/>
					<g>
						<polygon fill="#231F20" points="-50.353,-54.417 -50.353,-58.014 -46.757,-58.014 -48.282,-59.539 -51.878,-59.539 
							-51.878,-55.943 						"/>
					</g>
				</g>
				<g>
					<polygon fill="none" points="-46.757,-50.822 -50.081,-54.145 -46.484,-57.741 -43.161,-54.418 					"/>
					<g>
						<polygon fill="#231F20" points="-46.757,-50.822 -46.757,-54.417 -43.161,-54.418 -44.686,-55.943 -48.282,-55.943 
							-48.282,-52.347 						"/>
					</g>
				</g>
				<g>
					<polygon fill="none" points="-46.993,-46.521 -48.22,-51.058 -43.311,-52.386 -42.083,-47.85 					"/>
					<g>
						<polygon fill="#231F20" points="-46.993,-46.521 -45.202,-49.64 -42.083,-47.85 -42.646,-49.932 -45.765,-51.722 
							-47.556,-48.604 						"/>
					</g>
				</g>
				<g>
					<polygon fill="none" points="-45.665,-41.612 -46.892,-46.149 -41.982,-47.477 -40.755,-42.94 					"/>
					<g>
						<polygon fill="#231F20" points="-45.665,-41.612 -43.874,-44.73 -40.755,-42.94 -41.318,-45.022 -44.437,-46.813 
							-46.228,-43.694 						"/>
					</g>
				</g>
				<g>
					<polygon fill="none" points="-44.336,-36.703 -45.564,-41.24 -40.655,-42.568 -39.427,-38.031 					"/>
					<g>
						<polygon fill="#231F20" points="-44.336,-36.703 -42.546,-39.821 -39.427,-38.031 -39.991,-40.113 -43.109,-41.904 
							-44.9,-38.785 						"/>
					</g>
				</g>
			</g>
			<path fill="#F4C051" d="M-52.104-39.693c0-10.125-8.208-18.334-18.334-18.334c-10.126,0-18.334,8.208-18.334,18.334
				c0,10.126,8.208,18.334,18.334,18.334C-60.312-21.358-52.104-29.567-52.104-39.693z"/>
			<path fill="#C19548" d="M-55.771-39.303c0-8.101-6.566-14.667-14.667-14.667s-14.667,6.567-14.667,14.667
				s6.567,14.667,14.667,14.667S-55.771-31.203-55.771-39.303z"/>
			<path fill="#F6D080" d="M-59.437-38.924c0-6.075-4.925-11-11-11c-6.076,0-11,4.925-11,11c0,6.076,4.925,11,11,11
				C-64.362-27.924-59.437-32.849-59.437-38.924z"/>
			<path fill="#F4C051" d="M-68.299-39.693c0-1.181-0.958-2.138-2.138-2.138c-1.181,0-2.139,0.957-2.139,2.138
				s0.958,2.139,2.139,2.139C-69.257-37.554-68.299-38.512-68.299-39.693z"/>
		</g>
		<g>
			<path fill="#292928" d="M86.374-39.879c0-16.367-13.268-29.635-29.635-29.635S27.104-56.247,27.104-39.879
				c0,16.367,13.268,29.635,29.635,29.635S86.374-23.513,86.374-39.879z"/>
			<g>
				<g>
					<polygon fill="none" points="80.412,-33.589 81.639,-38.125 86.548,-36.797 85.321,-32.261 					"/>
					<g>
						<polygon fill="#231F20" points="80.412,-33.589 83.53,-35.379 85.321,-32.261 85.884,-34.343 84.093,-37.461 80.975,-35.671 
													"/>
					</g>
				</g>
				<g>
					<polygon fill="none" points="79.083,-28.68 80.311,-33.216 85.22,-31.888 83.993,-27.352 					"/>
					<g>
						<polygon fill="#231F20" points="79.083,-28.68 82.202,-30.47 83.993,-27.352 84.556,-29.434 82.765,-32.552 79.646,-30.762 
													"/>
					</g>
				</g>
				<g>
					<polygon fill="none" points="77.755,-23.771 78.982,-28.307 83.892,-26.979 82.665,-22.442 					"/>
					<g>
						<polygon fill="#231F20" points="77.755,-23.771 80.874,-25.561 82.665,-22.442 83.228,-24.524 81.437,-27.643 78.318,-25.853 
													"/>
					</g>
				</g>
				<g>
					<polygon fill="none" points="73.842,-21.872 77.166,-25.195 80.762,-21.599 77.438,-18.275 					"/>
					<g>
						<polygon fill="#231F20" points="73.842,-21.872 77.438,-21.872 77.438,-18.275 78.964,-19.801 78.964,-23.397 75.368,-23.397 
													"/>
					</g>
				</g>
				<g>
					<polygon fill="none" points="70.247,-18.275 73.57,-21.599 77.166,-18.003 73.842,-14.68 					"/>
					<g>
						<polygon fill="#231F20" points="70.247,-18.275 73.842,-18.275 73.842,-14.68 75.368,-16.205 75.368,-19.801 71.771,-19.801 
													"/>
					</g>
				</g>
				<g>
					<polygon fill="none" points="67.025,-16.648 71.562,-17.875 72.889,-12.966 68.353,-11.739 					"/>
					<g>
						<polygon fill="#231F20" points="67.025,-16.648 70.143,-14.857 68.353,-11.739 70.435,-12.302 72.226,-15.421 69.107,-17.211 
													"/>
					</g>
				</g>
				<g>
					<polygon fill="none" points="62.116,-15.32 66.652,-16.547 67.98,-11.638 63.443,-10.411 					"/>
					<g>
						<polygon fill="#231F20" points="62.116,-15.32 65.234,-13.53 63.443,-10.411 65.525,-10.974 67.316,-14.093 64.197,-15.883 
													"/>
					</g>
				</g>
				<g>
					<polygon fill="none" points="57.206,-13.992 61.743,-15.22 63.071,-10.31 58.534,-9.083 					"/>
					<g>
						<polygon fill="#231F20" points="57.206,-13.992 60.325,-12.202 58.534,-9.083 60.616,-9.646 62.407,-12.765 59.288,-14.556 
													"/>
					</g>
				</g>
				<g>
					<polygon fill="none" points="53.625,-14.366 58.162,-13.139 56.834,-8.229 52.297,-9.457 					"/>
					<g>
						<polygon fill="#231F20" points="53.625,-14.366 55.416,-11.248 52.297,-9.457 54.379,-8.894 57.498,-10.684 55.707,-13.803 
													"/>
					</g>
				</g>
				<g>
					<polygon fill="none" points="48.716,-15.694 53.252,-14.467 51.924,-9.558 47.388,-10.785 					"/>
					<g>
						<polygon fill="#231F20" points="48.716,-15.694 50.506,-12.575 47.388,-10.785 49.47,-10.222 52.588,-12.012 50.798,-15.131 
													"/>
					</g>
				</g>
				<g>
					<polygon fill="none" points="43.807,-17.022 48.343,-15.795 47.015,-10.886 42.479,-12.113 					"/>
					<g>
						<polygon fill="#231F20" points="43.807,-17.022 45.597,-13.903 42.479,-12.113 44.561,-11.549 47.679,-13.34 45.889,-16.458 
													"/>
					</g>
				</g>
				<g>
					<polygon fill="none" points="40.955,-19.288 44.278,-15.964 40.682,-12.368 37.358,-15.691 					"/>
					<g>
						<polygon fill="#231F20" points="40.955,-19.288 40.954,-15.692 37.358,-15.691 38.883,-14.167 42.479,-14.167 42.479,-17.763 
													"/>
					</g>
				</g>
				<g>
					<polygon fill="none" points="37.358,-22.884 40.682,-19.561 37.085,-15.964 33.762,-19.288 					"/>
					<g>
						<polygon fill="#231F20" points="37.358,-22.884 37.358,-19.288 33.762,-19.288 35.287,-17.763 38.883,-17.763 38.883,-21.359 
													"/>
					</g>
				</g>
				<g>
					<polygon fill="none" points="33.762,-26.48 37.085,-23.157 33.489,-19.561 30.166,-22.884 					"/>
					<g>
						<polygon fill="#231F20" points="33.762,-26.48 33.762,-22.884 30.166,-22.884 31.691,-21.359 35.288,-21.358 35.287,-24.955 
													"/>
					</g>
				</g>
				<g>
					<polygon fill="none" points="32.756,-30.061 33.983,-25.524 29.074,-24.196 27.847,-28.733 					"/>
					<g>
						<polygon fill="#231F20" points="32.756,-30.061 30.965,-26.943 27.847,-28.733 28.41,-26.651 31.528,-24.86 33.319,-27.979 
													"/>
					</g>
				</g>
				<g>
					<polygon fill="none" points="31.428,-34.97 32.655,-30.434 27.746,-29.105 26.519,-33.643 					"/>
					<g>
						<polygon fill="#231F20" points="31.428,-34.97 29.637,-31.852 26.519,-33.643 27.082,-31.56 30.2,-29.77 31.991,-32.888 
													"/>
					</g>
				</g>
				<g>
					<polygon fill="none" points="30.1,-39.879 31.327,-35.343 26.417,-34.015 25.19,-38.552 					"/>
					<g>
						<polygon fill="#231F20" points="30.1,-39.879 28.309,-36.761 25.19,-38.552 25.754,-36.47 28.873,-34.679 30.663,-37.797 
													"/>
					</g>
				</g>
				<g>
					<polygon fill="none" points="31.201,-43.461 29.974,-38.924 25.064,-40.252 26.292,-44.789 					"/>
					<g>
						<polygon fill="#231F20" points="31.201,-43.461 28.082,-41.67 26.292,-44.789 25.728,-42.707 27.519,-39.588 30.637,-41.379 
													"/>
					</g>
				</g>
				<g>
					<polygon fill="none" points="32.529,-48.37 31.301,-43.833 26.392,-45.161 27.62,-49.698 					"/>
					<g>
						<polygon fill="#231F20" points="32.529,-48.37 29.41,-46.58 27.62,-49.698 27.056,-47.616 28.847,-44.497 31.965,-46.288 
													"/>
					</g>
				</g>
				<g>
					<polygon fill="none" points="33.856,-53.279 32.629,-48.743 27.72,-50.07 28.947,-54.607 					"/>
					<g>
						<polygon fill="#231F20" points="33.856,-53.279 30.738,-51.489 28.947,-54.607 28.384,-52.525 30.175,-49.407 33.293,-51.197 
													"/>
					</g>
				</g>
				<g>
					<polygon fill="none" points="36.743,-55.772 33.42,-52.449 29.824,-56.045 33.147,-59.368 					"/>
					<g>
						<polygon fill="#231F20" points="36.743,-55.772 33.147,-55.772 33.147,-59.368 31.622,-57.843 31.622,-54.247 35.218,-54.247 
													"/>
					</g>
				</g>
				<g>
					<polygon fill="none" points="40.339,-59.368 37.016,-56.045 33.42,-59.641 36.743,-62.964 					"/>
					<g>
						<polygon fill="#231F20" points="40.339,-59.368 36.744,-59.368 36.743,-62.964 35.218,-61.439 35.218,-57.843 38.814,-57.843 
													"/>
					</g>
				</g>
				<g>
					<polygon fill="none" points="43.936,-62.964 40.612,-59.641 37.016,-63.237 40.339,-66.56 					"/>
					<g>
						<polygon fill="#231F20" points="43.936,-62.964 40.34,-62.964 40.339,-66.56 38.814,-65.035 38.814,-61.439 42.41,-61.439 
													"/>
					</g>
				</g>
				<g>
					<polygon fill="none" points="47.876,-63.35 43.339,-62.123 42.012,-67.032 46.548,-68.259 					"/>
					<g>
						<polygon fill="#231F20" points="47.876,-63.35 44.758,-65.14 46.548,-68.259 44.466,-67.696 42.675,-64.577 45.794,-62.787 
													"/>
					</g>
				</g>
				<g>
					<polygon fill="none" points="52.786,-64.678 48.249,-63.45 46.921,-68.359 51.458,-69.587 					"/>
					<g>
						<polygon fill="#231F20" points="52.786,-64.678 49.667,-66.468 51.458,-69.587 49.375,-69.023 47.585,-65.905 50.704,-64.114 
													"/>
					</g>
				</g>
				<g>
					<polygon fill="none" points="57.695,-66.005 53.158,-64.778 51.83,-69.688 56.367,-70.915 					"/>
					<g>
						<polygon fill="#231F20" points="57.695,-66.005 54.576,-67.796 56.367,-70.915 54.285,-70.352 52.494,-67.233 55.613,-65.442 
													"/>
					</g>
				</g>
				<g>
					<polygon fill="none" points="61.276,-64.178 56.739,-65.405 58.067,-70.314 62.604,-69.087 					"/>
					<g>
						<polygon fill="#231F20" points="61.276,-64.178 59.485,-67.296 62.604,-69.087 60.522,-69.65 57.403,-67.859 59.194,-64.741 
													"/>
					</g>
				</g>
				<g>
					<polygon fill="none" points="66.185,-62.85 61.648,-64.077 62.977,-68.986 67.513,-67.759 					"/>
					<g>
						<polygon fill="#231F20" points="66.185,-62.85 64.395,-65.968 67.513,-67.759 65.431,-68.322 62.313,-66.531 64.103,-63.413 
													"/>
					</g>
				</g>
				<g>
					<polygon fill="none" points="71.094,-61.521 66.558,-62.749 67.886,-67.658 72.422,-66.431 					"/>
					<g>
						<polygon fill="#231F20" points="71.094,-61.521 69.304,-64.64 72.422,-66.431 70.34,-66.994 67.222,-65.204 69.012,-62.085 
													"/>
					</g>
				</g>
				<g>
					<polygon fill="none" points="73.228,-58.014 69.904,-61.337 73.5,-64.933 76.824,-61.61 					"/>
					<g>
						<polygon fill="#231F20" points="73.228,-58.014 73.228,-61.61 76.824,-61.61 75.298,-63.135 71.702,-63.135 71.703,-59.539 
													"/>
					</g>
				</g>
				<g>
					<polygon fill="none" points="76.824,-54.417 73.5,-57.741 77.097,-61.337 80.42,-58.014 					"/>
					<g>
						<polygon fill="#231F20" points="76.824,-54.417 76.824,-58.014 80.42,-58.014 78.895,-59.539 75.298,-59.539 75.298,-55.943 
													"/>
					</g>
				</g>
				<g>
					<polygon fill="none" points="80.42,-50.822 77.097,-54.145 80.692,-57.741 84.016,-54.418 					"/>
					<g>
						<polygon fill="#231F20" points="80.42,-50.822 80.42,-54.417 84.016,-54.418 82.491,-55.943 78.895,-55.943 78.895,-52.347 
													"/>
					</g>
				</g>
				<g>
					<polygon fill="none" points="80.184,-46.521 78.957,-51.058 83.866,-52.386 85.093,-47.85 					"/>
					<g>
						<polygon fill="#231F20" points="80.184,-46.521 81.975,-49.64 85.093,-47.85 84.53,-49.932 81.412,-51.722 79.621,-48.604 
													"/>
					</g>
				</g>
				<g>
					<polygon fill="none" points="81.512,-41.612 80.285,-46.149 85.194,-47.477 86.421,-42.94 					"/>
					<g>
						<polygon fill="#231F20" points="81.512,-41.612 83.303,-44.73 86.421,-42.94 85.858,-45.022 82.74,-46.813 80.949,-43.694 
													"/>
					</g>
				</g>
				<g>
					<polygon fill="none" points="82.84,-36.703 81.613,-41.24 86.522,-42.568 87.75,-38.031 					"/>
					<g>
						<polygon fill="#231F20" points="82.84,-36.703 84.631,-39.821 87.75,-38.031 87.187,-40.113 84.067,-41.904 82.277,-38.785 
													"/>
					</g>
				</g>
			</g>
			<path fill="#F4C051" d="M75.073-39.693c0-10.125-8.208-18.334-18.334-18.334s-18.334,8.208-18.334,18.334
				c0,10.126,8.208,18.334,18.334,18.334S75.073-29.567,75.073-39.693z"/>
			<path fill="#C19548" d="M71.407-39.303c0-8.101-6.567-14.667-14.667-14.667s-14.667,6.567-14.667,14.667
				s6.567,14.667,14.667,14.667S71.407-31.203,71.407-39.303z"/>
			<path fill="#F6D080" d="M67.74-38.924c0-6.075-4.925-11-11-11s-11,4.925-11,11c0,6.076,4.925,11,11,11S67.74-32.849,67.74-38.924
				z"/>
			<path fill="#F4C051" d="M58.878-39.693c0-1.181-0.958-2.138-2.139-2.138s-2.139,0.957-2.139,2.138s0.958,2.139,2.139,2.139
				S58.878-38.512,58.878-39.693z"/>
		</g>
	</g>
</symbol>
<symbol  id="greenhouse1" viewBox="-92.221 -82.329 184.448 164.657">
	<polygon opacity="0.12" fill="#C4D5D6" points="87.323,10.644 22.269,75.698 -42.785,10.644 -42.785,-70.356 87.323,-70.356 	"/>
	<polyline fill="none" stroke="#C4D5D6" stroke-miterlimit="10" points="9.497,74.887 -60.537,9.313 -60.537,-73.856 	"/>
	<polyline fill="none" stroke="#C4D5D6" stroke-miterlimit="10" points="-4.04,70.761 -74.073,7.491 -74.073,-77.746 	"/>
	<polygon fill="none" stroke="#80CDEE" stroke-width="8" stroke-miterlimit="10" points="88.226,11.617 23.172,76.671 
		-41.881,11.617 -41.881,-69.383 88.226,-69.383 	"/>
	<line fill="none" stroke="#80CDEE" stroke-width="8" stroke-miterlimit="10" x1="-88.222" y1="2.671" x2="-41.881" y2="11.617"/>
	
		<line fill="none" stroke="#80CDEE" stroke-width="8" stroke-miterlimit="10" x1="-88.222" y1="-78.329" x2="-41.881" y2="-69.383"/>
	<polygon opacity="0.43" fill="#C4D5D6" points="-85.008,9.005 -85.008,-77.746 -43.674,-66.383 -43.464,11.312 23.172,76.671 
		-21.509,67.725 	"/>
	<path fill="#6A6957" d="M-88.222-78.329c0,0,16.15,13,34.15,12.333s18.667,4.667,25.333,4c6.667-0.667,36.575,0.782,38.288,0.058
		v-7.445l-66.288-8.946H-88.222z"/>
	<path fill="#817F71" d="M-46.919-78.329c0,0,16.15,13,34.15,12.333s18.667,4.667,25.333,4c6.667-0.667,36.575,0.782,38.287,0.058
		v-7.445l-66.287-8.946H-46.919z"/>
	<path fill="#6A6957" d="M-7-78.329c0,0,16.15,13,34.15,12.333s18.667,4.667,25.333,4c6.667-0.667,30.682,0.782,32.394,0.058v-7.445
		l-60.394-8.946H-7z"/>
	<g>
		<g>
			
				<use xlink:href="#smallplant_2"  width="16.006" height="13.97" x="-8.003" y="-6.985" transform="matrix(1 0 0 1 -26.5625 -66.0625)" overflow="visible"/>
			
				<use xlink:href="#smallplant_2"  width="16.006" height="13.97" x="-8.003" y="-6.985" transform="matrix(1 0 0 1 -26.5625 -55.5518)" overflow="visible"/>
			
				<use xlink:href="#smallplant_2"  width="16.006" height="13.97" x="-8.003" y="-6.985" transform="matrix(1 0 0 1 -26.5625 -46.4668)" overflow="visible"/>
			
				<use xlink:href="#smallplant_2"  width="16.006" height="13.97" x="-8.003" y="-6.985" transform="matrix(1 0 0 1 -26.5625 -38.3135)" overflow="visible"/>
			
				<use xlink:href="#smallplant_2"  width="16.006" height="13.97" x="-8.003" y="-6.985" transform="matrix(1 0 0 1 -26.5625 -28.3286)" overflow="visible"/>
		</g>
		<g>
			
				<use xlink:href="#smallplant_2"  width="16.006" height="13.97" x="-8.003" y="-6.985" transform="matrix(1 0 0 1 -10.0195 -59.6929)" overflow="visible"/>
			
				<use xlink:href="#smallplant_2"  width="16.006" height="13.97" x="-8.003" y="-6.985" transform="matrix(1 0 0 1 -10.0195 -49.1826)" overflow="visible"/>
			
				<use xlink:href="#smallplant_2"  width="16.006" height="13.97" x="-8.003" y="-6.985" transform="matrix(1 0 0 1 -10.0195 -40.0972)" overflow="visible"/>
			
				<use xlink:href="#smallplant_2"  width="16.006" height="13.97" x="-8.003" y="-6.985" transform="matrix(1 0 0 1 -10.0195 -31.9443)" overflow="visible"/>
			
				<use xlink:href="#smallplant_2"  width="16.006" height="13.97" x="-8.003" y="-6.985" transform="matrix(1 0 0 1 -10.0195 -21.9595)" overflow="visible"/>
		</g>
		<g>
			
				<use xlink:href="#smallplant_2"  width="16.006" height="13.97" x="-8.003" y="-6.985" transform="matrix(1 0 0 1 7.0762 -55.8784)" overflow="visible"/>
			
				<use xlink:href="#smallplant_2"  width="16.006" height="13.97" x="-8.003" y="-6.985" transform="matrix(1 0 0 1 7.0762 -45.3677)" overflow="visible"/>
			
				<use xlink:href="#smallplant_2"  width="16.006" height="13.97" x="-8.003" y="-6.985" transform="matrix(1 0 0 1 7.0762 -36.2822)" overflow="visible"/>
			
				<use xlink:href="#smallplant_2"  width="16.006" height="13.97" x="-8.003" y="-6.985" transform="matrix(1 0 0 1 7.0762 -28.1294)" overflow="visible"/>
			
				<use xlink:href="#smallplant_2"  width="16.006" height="13.97" x="-8.003" y="-6.985" transform="matrix(1 0 0 1 7.0762 -18.1445)" overflow="visible"/>
		</g>
		<g>
			
				<use xlink:href="#smallplant_2"  width="16.006" height="13.97" x="-8.003" y="-6.985" transform="matrix(1 0 0 1 25.3257 -54.9292)" overflow="visible"/>
			
				<use xlink:href="#smallplant_2"  width="16.006" height="13.97" x="-8.003" y="-6.985" transform="matrix(1 0 0 1 25.3257 -44.4185)" overflow="visible"/>
			
				<use xlink:href="#smallplant_2"  width="16.006" height="13.97" x="-8.003" y="-6.985" transform="matrix(1 0 0 1 25.3257 -35.333)" overflow="visible"/>
			
				<use xlink:href="#smallplant_2"  width="16.006" height="13.97" x="-8.003" y="-6.985" transform="matrix(1 0 0 1 25.3257 -27.1802)" overflow="visible"/>
			
				<use xlink:href="#smallplant_2"  width="16.006" height="13.97" x="-8.003" y="-6.985" transform="matrix(1 0 0 1 25.3257 -17.1953)" overflow="visible"/>
		</g>
	</g>
	<g>
		
			<use xlink:href="#plantgrown"  width="35.373" height="44.37" x="-17.687" y="-22.185" transform="matrix(1 0 0 1 27.9087 -50.8975)" overflow="visible"/>
		
			<use xlink:href="#plantgrown"  width="35.373" height="44.37" x="-17.687" y="-22.185" transform="matrix(1 0 0 1 43.0122 -47.3667)" overflow="visible"/>
		
			<use xlink:href="#plantgrown"  width="35.373" height="44.37" x="-17.687" y="-22.185" transform="matrix(1 0 0 1 57.7168 -43.7847)" overflow="visible"/>
		
			<use xlink:href="#plantgrown"  width="35.373" height="44.37" x="-17.687" y="-22.185" transform="matrix(1 0 0 1 68.8428 -41.5005)" overflow="visible"/>
	</g>
	
		<use xlink:href="#cucumber"  width="14.526" height="9.714" x="-7.263" y="-4.857" transform="matrix(-0.5577 -0.2367 -0.2367 0.5577 19.9775 -49.0615)" overflow="visible"/>
	
		<use xlink:href="#cucumber"  width="14.526" height="9.714" x="-7.263" y="-4.857" transform="matrix(-0.5577 -0.2367 -0.2367 0.5577 -57.9287 -46.7324)" overflow="visible"/>
	
		<use xlink:href="#cucumber"  width="14.526" height="9.714" x="-7.263" y="-4.857" transform="matrix(-0.5577 -0.2367 -0.2367 0.5577 -73.3682 -58.3965)" overflow="visible"/>
	
		<use xlink:href="#cucumber"  width="14.526" height="9.714" x="-7.263" y="-4.857" transform="matrix(-0.5577 -0.2367 -0.2367 0.5577 52.8555 -56.1436)" overflow="visible"/>
	
		<use xlink:href="#cucumber"  width="14.526" height="9.714" x="-7.263" y="-4.857" transform="matrix(0.5577 -0.2367 0.2367 0.5577 -20.8442 -68.4971)" overflow="visible"/>
	
		<use xlink:href="#cucumber"  width="14.526" height="9.714" x="-7.263" y="-4.857" transform="matrix(0.5577 -0.2367 0.2367 0.5577 -4.9795 -51.5776)" overflow="visible"/>
	
		<use xlink:href="#cucumber"  width="14.526" height="9.714" x="-7.263" y="-4.857" transform="matrix(0.5577 -0.2367 0.2367 0.5577 -8.0366 -62.4819)" overflow="visible"/>
	
		<use xlink:href="#cucumber"  width="14.526" height="9.714" x="-7.263" y="-4.857" transform="matrix(0.5577 -0.2367 0.2367 0.5577 30.0645 -30.4546)" overflow="visible"/>
	
		<use xlink:href="#cucumber"  width="14.526" height="9.714" x="-7.263" y="-4.857" transform="matrix(0.5577 -0.2367 0.2367 0.5577 -21.5215 -30.9106)" overflow="visible"/>
	
		<use xlink:href="#cucumber"  width="14.526" height="9.714" x="-7.263" y="-4.857" transform="matrix(0.5577 -0.2367 0.2367 0.5577 24.7236 -54.8081)" overflow="visible"/>
	<g>
		
			<use xlink:href="#plantgrown"  width="35.373" height="44.37" x="-17.687" y="-22.185" transform="matrix(1 0 0 1 -67.9595 -49.8975)" overflow="visible"/>
		
			<use xlink:href="#plantgrown"  width="35.373" height="44.37" x="-17.687" y="-22.185" transform="matrix(1 0 0 1 -52.8564 -46.3667)" overflow="visible"/>
		
			<use xlink:href="#plantgrown"  width="35.373" height="44.37" x="-17.687" y="-22.185" transform="matrix(1 0 0 1 -38.1519 -42.7847)" overflow="visible"/>
		
			<use xlink:href="#plantgrown"  width="35.373" height="44.37" x="-17.687" y="-22.185" transform="matrix(1 0 0 1 -27.0254 -40.5005)" overflow="visible"/>
	</g>
	<g>
		
			<use xlink:href="#cucumber"  width="14.526" height="9.714" x="-7.263" y="-4.857" transform="matrix(-0.5577 -0.2367 -0.2367 0.5577 -24.1421 -56.6724)" overflow="visible"/>
		
			<use xlink:href="#cucumber"  width="14.526" height="9.714" x="-7.263" y="-4.857" transform="matrix(-0.5577 -0.2367 -0.2367 0.5577 21.8706 -35.5991)" overflow="visible"/>
		
			<use xlink:href="#cucumber"  width="14.526" height="9.714" x="-7.263" y="-4.857" transform="matrix(-0.5577 -0.2367 -0.2367 0.5577 7.1611 -35.5991)" overflow="visible"/>
		
			<use xlink:href="#cucumber"  width="14.526" height="9.714" x="-7.263" y="-4.857" transform="matrix(-0.5577 -0.2367 -0.2367 0.5577 -11.6392 -39.0967)" overflow="visible"/>
		
			<use xlink:href="#cucumber"  width="14.526" height="9.714" x="-7.263" y="-4.857" transform="matrix(-0.5577 -0.2367 -0.2367 0.5577 -29.7153 -47.8892)" overflow="visible"/>
		
			<use xlink:href="#cucumber"  width="14.526" height="9.714" x="-7.263" y="-4.857" transform="matrix(-0.5577 -0.2367 -0.2367 0.5577 -43.5601 -46.4575)" overflow="visible"/>
		
			<use xlink:href="#cucumber"  width="14.526" height="9.714" x="-7.263" y="-4.857" transform="matrix(-0.5577 -0.2367 -0.2367 0.5577 -58.894 -34.3325)" overflow="visible"/>
		
			<use xlink:href="#cucumber"  width="14.526" height="9.714" x="-7.263" y="-4.857" transform="matrix(-0.5577 -0.2367 -0.2367 0.5577 62.8047 -39.1982)" overflow="visible"/>
		
			<use xlink:href="#cucumber"  width="14.526" height="9.714" x="-7.263" y="-4.857" transform="matrix(-0.5577 -0.2367 -0.2367 0.5577 51.6787 -32.8291)" overflow="visible"/>
		
			<use xlink:href="#cucumber"  width="14.526" height="9.714" x="-7.263" y="-4.857" transform="matrix(0.5577 -0.2367 0.2367 0.5577 12.7944 -46.4575)" overflow="visible"/>
		
			<use xlink:href="#cucumber"  width="14.526" height="9.714" x="-7.263" y="-4.857" transform="matrix(0.5577 -0.2367 0.2367 0.5577 68.9375 -46.4575)" overflow="visible"/>
		
			<use xlink:href="#cucumber"  width="14.526" height="9.714" x="-7.263" y="-4.857" transform="matrix(0.5577 -0.2367 0.2367 0.5577 -38.9609 -31.4038)" overflow="visible"/>
	</g>
	<polygon opacity="0.43" fill="#C4D5D6" points="84.878,9.005 84.878,-69.383 43.544,-78.329 43.544,2.671 -21.509,67.725 
		19.144,75.921 	"/>
	<line fill="none" stroke="#80CDEE" stroke-width="8" stroke-miterlimit="10" x1="41.886" y1="2.671" x2="88.226" y2="11.617"/>
	<line fill="none" stroke="#80CDEE" stroke-width="8" stroke-miterlimit="10" x1="41.886" y1="-78.329" x2="90.771" y2="-69.383"/>
	<polyline fill="none" stroke="#80CDEE" stroke-width="8" stroke-miterlimit="10" points="-23.167,68.921 24.678,78.171 
		-23.167,67.725 	"/>
	<polygon opacity="0.31" fill="#C4D5D6" points="41.886,2.671 -23.167,67.725 -88.222,2.671 -88.222,-78.329 41.886,-78.329 	"/>
	<line fill="none" stroke="#DAE4E5" stroke-width="5" stroke-miterlimit="10" x1="-90.739" y1="2.671" x2="38.939" y2="2.671"/>
	<polyline fill="none" stroke="#DAE4E5" stroke-width="2" stroke-miterlimit="10" points="-46.919,-78.329 -46.919,42.59 
		1.967,42.59 1.967,-78.329 	"/>
	<polygon fill="none" stroke="#2BABE2" stroke-width="8" stroke-miterlimit="10" points="41.886,2.671 -23.167,67.725 
		-88.222,2.671 -88.222,-78.329 41.886,-78.329 	"/>
	<polyline fill="none" stroke="#DAE4E5" stroke-miterlimit="10" points="-1.49,67.725 57.594,7.144 57.594,-72.898 	"/>
	<polyline fill="none" stroke="#DAE4E5" stroke-miterlimit="10" points="12.449,70.761 71.562,12.338 71.562,-69.383 	"/>
</symbol>
<symbol  id="greenhouse2" viewBox="-92.224 -82.329 184.448 164.657">
	<polygon opacity="0.12" fill="#C4D5D6" points="87.32,10.645 22.267,75.698 -42.787,10.645 -42.787,-70.355 87.32,-70.355 	"/>
	<polyline fill="none" stroke="#C4D5D6" stroke-miterlimit="10" points="9.495,74.887 -60.539,9.313 -60.539,-73.855 	"/>
	<polyline fill="none" stroke="#C4D5D6" stroke-miterlimit="10" points="-4.042,70.761 -74.075,7.491 -74.075,-77.746 	"/>
	<polygon fill="none" stroke="#80CDEE" stroke-width="8" stroke-miterlimit="10" points="88.224,11.617 23.17,76.671 
		-41.884,11.617 -41.884,-69.383 88.224,-69.383 	"/>
	<line fill="none" stroke="#80CDEE" stroke-width="8" stroke-miterlimit="10" x1="-88.224" y1="2.671" x2="-41.884" y2="11.617"/>
	
		<line fill="none" stroke="#80CDEE" stroke-width="8" stroke-miterlimit="10" x1="-88.224" y1="-78.329" x2="-41.884" y2="-69.383"/>
	<polygon opacity="0.43" fill="#C4D5D6" points="-85.011,9.005 -85.011,-77.746 -43.677,-66.382 -43.467,11.312 23.17,76.671 
		-21.512,67.725 	"/>
	<path fill="#6A6957" d="M-88.224-78.329c0,0,16.15,13,34.15,12.333c18-0.667,18.667,4.667,25.333,4
		c6.667-0.667,36.575,0.783,38.288,0.058v-7.445l-66.288-8.946H-88.224z"/>
	<path fill="#817F71" d="M-46.921-78.329c0,0,16.15,13,34.15,12.333c18-0.667,18.667,4.667,25.333,4
		c6.667-0.667,36.575,0.783,38.288,0.058v-7.445l-66.288-8.946H-46.921z"/>
	<path fill="#6A6957" d="M-7.001-78.329c0,0,16.15,13,34.15,12.333c18-0.667,18.667,4.667,25.333,4
		c6.667-0.667,30.682,0.783,32.394,0.058v-7.445l-60.394-8.946H-7.001z"/>
	<g>
		
			<use xlink:href="#tomato"  width="6.765" height="7.703" x="-3.383" y="-3.852" transform="matrix(1 0 0 1 -11.9146 -26.2998)" overflow="visible"/>
		
			<use xlink:href="#tomato"  width="6.765" height="7.703" x="-3.383" y="-3.852" transform="matrix(1 0 0 1 -5.0762 -38.2466)" overflow="visible"/>
		
			<use xlink:href="#tomato"  width="6.765" height="7.703" x="-3.383" y="-3.852" transform="matrix(1 0 0 1 -11.9146 -44.5439)" overflow="visible"/>
		
			<use xlink:href="#tomato"  width="6.765" height="7.703" x="-3.383" y="-3.852" transform="matrix(1 0 0 1 12.02 -16.6421)" overflow="visible"/>
		
			<use xlink:href="#tomato"  width="6.765" height="7.703" x="-3.383" y="-3.852" transform="matrix(1 0 0 1 8.542 -33.8174)" overflow="visible"/>
		
			<use xlink:href="#tomato"  width="6.765" height="7.703" x="-3.383" y="-3.852" transform="matrix(1 0 0 1 23.4316 -37.6694)" overflow="visible"/>
		
			<use xlink:href="#tomato"  width="6.765" height="7.703" x="-3.383" y="-3.852" transform="matrix(1 0 0 1 57.7148 -43.5986)" overflow="visible"/>
		
			<use xlink:href="#tomato"  width="6.765" height="7.703" x="-3.383" y="-3.852" transform="matrix(1 0 0 1 75.4014 -49.6118)" overflow="visible"/>
		
			<use xlink:href="#tomato"  width="6.765" height="7.703" x="-3.383" y="-3.852" transform="matrix(1 0 0 1 -40.3438 -28.3735)" overflow="visible"/>
		
			<use xlink:href="#tomato"  width="6.765" height="7.703" x="-3.383" y="-3.852" transform="matrix(1 0 0 1 -55.8403 -40.8765)" overflow="visible"/>
		
			<use xlink:href="#tomato"  width="6.765" height="7.703" x="-3.383" y="-3.852" transform="matrix(1 0 0 1 -50.168 -52.8818)" overflow="visible"/>
	</g>
	<g>
		<g>
			
				<use xlink:href="#smallplant_2"  width="16.006" height="13.97" x="-8.003" y="-6.985" transform="matrix(1 0 0 1 -26.5645 -66.062)" overflow="visible"/>
			
				<use xlink:href="#smallplant_2"  width="16.006" height="13.97" x="-8.003" y="-6.985" transform="matrix(1 0 0 1 -26.5645 -55.5513)" overflow="visible"/>
			
				<use xlink:href="#smallplant_2"  width="16.006" height="13.97" x="-8.003" y="-6.985" transform="matrix(1 0 0 1 -26.5645 -46.4658)" overflow="visible"/>
			
				<use xlink:href="#smallplant_2"  width="16.006" height="13.97" x="-8.003" y="-6.985" transform="matrix(1 0 0 1 -26.5645 -38.313)" overflow="visible"/>
			
				<use xlink:href="#smallplant_2"  width="16.006" height="13.97" x="-8.003" y="-6.985" transform="matrix(1 0 0 1 -26.5645 -28.3281)" overflow="visible"/>
		</g>
		<g>
			
				<use xlink:href="#smallplant_2"  width="16.006" height="13.97" x="-8.003" y="-6.985" transform="matrix(1 0 0 1 -10.0215 -59.6924)" overflow="visible"/>
			
				<use xlink:href="#smallplant_2"  width="16.006" height="13.97" x="-8.003" y="-6.985" transform="matrix(1 0 0 1 -10.0215 -49.1816)" overflow="visible"/>
			
				<use xlink:href="#smallplant_2"  width="16.006" height="13.97" x="-8.003" y="-6.985" transform="matrix(1 0 0 1 -10.0215 -40.0967)" overflow="visible"/>
			
				<use xlink:href="#smallplant_2"  width="16.006" height="13.97" x="-8.003" y="-6.985" transform="matrix(1 0 0 1 -10.0215 -31.9434)" overflow="visible"/>
			
				<use xlink:href="#smallplant_2"  width="16.006" height="13.97" x="-8.003" y="-6.985" transform="matrix(1 0 0 1 -10.0215 -21.9585)" overflow="visible"/>
		</g>
		<g>
			
				<use xlink:href="#smallplant_2"  width="16.006" height="13.97" x="-8.003" y="-6.985" transform="matrix(1 0 0 1 7.0742 -55.8774)" overflow="visible"/>
			
				<use xlink:href="#smallplant_2"  width="16.006" height="13.97" x="-8.003" y="-6.985" transform="matrix(1 0 0 1 7.0742 -45.3667)" overflow="visible"/>
			
				<use xlink:href="#smallplant_2"  width="16.006" height="13.97" x="-8.003" y="-6.985" transform="matrix(1 0 0 1 7.0742 -36.2817)" overflow="visible"/>
			
				<use xlink:href="#smallplant_2"  width="16.006" height="13.97" x="-8.003" y="-6.985" transform="matrix(1 0 0 1 7.0742 -28.1289)" overflow="visible"/>
			
				<use xlink:href="#smallplant_2"  width="16.006" height="13.97" x="-8.003" y="-6.985" transform="matrix(1 0 0 1 7.0742 -18.1436)" overflow="visible"/>
		</g>
		<g>
			
				<use xlink:href="#smallplant_2"  width="16.006" height="13.97" x="-8.003" y="-6.985" transform="matrix(1 0 0 1 25.3237 -54.9277)" overflow="visible"/>
			
				<use xlink:href="#smallplant_2"  width="16.006" height="13.97" x="-8.003" y="-6.985" transform="matrix(1 0 0 1 25.3237 -44.4175)" overflow="visible"/>
			
				<use xlink:href="#smallplant_2"  width="16.006" height="13.97" x="-8.003" y="-6.985" transform="matrix(1 0 0 1 25.3237 -35.3325)" overflow="visible"/>
			
				<use xlink:href="#smallplant_2"  width="16.006" height="13.97" x="-8.003" y="-6.985" transform="matrix(1 0 0 1 25.3237 -27.1792)" overflow="visible"/>
			
				<use xlink:href="#smallplant_2"  width="16.006" height="13.97" x="-8.003" y="-6.985" transform="matrix(1 0 0 1 25.3237 -17.1943)" overflow="visible"/>
		</g>
	</g>
	<g>
		
			<use xlink:href="#plantgrown"  width="35.373" height="44.37" x="-17.687" y="-22.185" transform="matrix(1 0 0 1 27.9067 -50.8975)" overflow="visible"/>
		
			<use xlink:href="#plantgrown"  width="35.373" height="44.37" x="-17.687" y="-22.185" transform="matrix(1 0 0 1 43.0107 -47.3662)" overflow="visible"/>
		
			<use xlink:href="#plantgrown"  width="35.373" height="44.37" x="-17.687" y="-22.185" transform="matrix(1 0 0 1 57.7148 -43.7842)" overflow="visible"/>
		
			<use xlink:href="#plantgrown"  width="35.373" height="44.37" x="-17.687" y="-22.185" transform="matrix(1 0 0 1 68.8408 -41.5)" overflow="visible"/>
	</g>
	<g>
		
			<use xlink:href="#plantgrown"  width="35.373" height="44.37" x="-17.687" y="-22.185" transform="matrix(1 0 0 1 -67.9614 -49.8975)" overflow="visible"/>
		
			<use xlink:href="#plantgrown"  width="35.373" height="44.37" x="-17.687" y="-22.185" transform="matrix(1 0 0 1 -52.8579 -46.3662)" overflow="visible"/>
		
			<use xlink:href="#plantgrown"  width="35.373" height="44.37" x="-17.687" y="-22.185" transform="matrix(1 0 0 1 -38.1533 -42.7842)" overflow="visible"/>
		
			<use xlink:href="#plantgrown"  width="35.373" height="44.37" x="-17.687" y="-22.185" transform="matrix(1 0 0 1 -27.0273 -40.5)" overflow="visible"/>
	</g>
	
		<use xlink:href="#tomato"  width="6.765" height="7.703" x="-3.383" y="-3.852" transform="matrix(1 0 0 1 -31.8174 -35.6973)" overflow="visible"/>
	
		<use xlink:href="#tomato"  width="6.765" height="7.703" x="-3.383" y="-3.852" transform="matrix(1 0 0 1 -24.6763 -24.48)" overflow="visible"/>
	
		<use xlink:href="#tomato"  width="6.765" height="7.703" x="-3.383" y="-3.852" transform="matrix(1 0 0 1 -23.1699 -46.5117)" overflow="visible"/>
	
		<use xlink:href="#tomato"  width="6.765" height="7.703" x="-3.383" y="-3.852" transform="matrix(1 0 0 1 -31.2334 -55.8779)" overflow="visible"/>
	
		<use xlink:href="#tomato"  width="6.765" height="7.703" x="-3.383" y="-3.852" transform="matrix(1 0 0 1 -7.166 -57.4409)" overflow="visible"/>
	
		<use xlink:href="#tomato"  width="6.765" height="7.703" x="-3.383" y="-3.852" transform="matrix(1 0 0 1 4.0166 -26.0762)" overflow="visible"/>
	
		<use xlink:href="#tomato"  width="6.765" height="7.703" x="-3.383" y="-3.852" transform="matrix(1 0 0 1 5.4272 -44.3657)" overflow="visible"/>
	
		<use xlink:href="#tomato"  width="6.765" height="7.703" x="-3.383" y="-3.852" transform="matrix(1 0 0 1 12.02 -52.5845)" overflow="visible"/>
	
		<use xlink:href="#tomato"  width="6.765" height="7.703" x="-3.383" y="-3.852" transform="matrix(1 0 0 1 31.6821 -16.8418)" overflow="visible"/>
	
		<use xlink:href="#tomato"  width="6.765" height="7.703" x="-3.383" y="-3.852" transform="matrix(1 0 0 1 23.4316 -23.3809)" overflow="visible"/>
	
		<use xlink:href="#tomato"  width="6.765" height="7.703" x="-3.383" y="-3.852" transform="matrix(1 0 0 1 30.4658 -29.8433)" overflow="visible"/>
	
		<use xlink:href="#tomato"  width="6.765" height="7.703" x="-3.383" y="-3.852" transform="matrix(1 0 0 1 32.4331 -45.6558)" overflow="visible"/>
	
		<use xlink:href="#tomato"  width="6.765" height="7.703" x="-3.383" y="-3.852" transform="matrix(1 0 0 1 23.1699 -53.9092)" overflow="visible"/>
	
		<use xlink:href="#tomato"  width="6.765" height="7.703" x="-3.383" y="-3.852" transform="matrix(1 0 0 1 66.3267 -27.5908)" overflow="visible"/>
	
		<use xlink:href="#tomato"  width="6.765" height="7.703" x="-3.383" y="-3.852" transform="matrix(1 0 0 1 50.8496 -31.166)" overflow="visible"/>
	
		<use xlink:href="#tomato"  width="6.765" height="7.703" x="-3.383" y="-3.852" transform="matrix(1 0 0 1 50.8496 -53.9092)" overflow="visible"/>
	
		<use xlink:href="#tomato"  width="6.765" height="7.703" x="-3.383" y="-3.852" transform="matrix(1 0 0 1 -68.9644 -51.8384)" overflow="visible"/>
	
		<use xlink:href="#tomato"  width="6.765" height="7.703" x="-3.383" y="-3.852" transform="matrix(1 0 0 1 -60.8203 -34.8438)" overflow="visible"/>
	<polygon opacity="0.43" fill="#C4D5D6" points="84.876,9.005 84.876,-69.383 43.542,-78.329 43.542,2.671 -21.512,67.725 
		19.141,75.921 	"/>
	<line fill="none" stroke="#80CDEE" stroke-width="8" stroke-miterlimit="10" x1="41.884" y1="2.671" x2="88.224" y2="11.617"/>
	<line fill="none" stroke="#80CDEE" stroke-width="8" stroke-miterlimit="10" x1="41.884" y1="-78.329" x2="90.77" y2="-69.383"/>
	<polyline fill="none" stroke="#80CDEE" stroke-width="8" stroke-miterlimit="10" points="-23.17,68.921 24.675,78.171 
		-23.17,67.725 	"/>
	<polygon opacity="0.31" fill="#C4D5D6" points="41.884,2.671 -23.17,67.725 -88.224,2.671 -88.224,-78.329 41.884,-78.329 	"/>
	<line fill="none" stroke="#DAE4E5" stroke-width="5" stroke-miterlimit="10" x1="-90.742" y1="2.671" x2="38.937" y2="2.671"/>
	<polyline fill="none" stroke="#DAE4E5" stroke-width="2" stroke-miterlimit="10" points="-46.921,-78.329 -46.921,42.591 
		1.964,42.591 1.964,-78.329 	"/>
	<polygon fill="none" stroke="#2BABE2" stroke-width="8" stroke-miterlimit="10" points="41.884,2.671 -23.17,67.725 -88.224,2.671 
		-88.224,-78.329 41.884,-78.329 	"/>
	<polyline fill="none" stroke="#DAE4E5" stroke-miterlimit="10" points="-1.493,67.725 57.592,7.145 57.592,-72.898 	"/>
	<polyline fill="none" stroke="#DAE4E5" stroke-miterlimit="10" points="12.447,70.761 71.559,12.338 71.559,-69.383 	"/>
</symbol>
<symbol  id="industrial-heatrecovery" viewBox="-524.244 -352.617 1048.488 705.233">
	
		<use xlink:href="#cement_plant"  width="492.681" height="370.212" id="XMLID_28_" x="-232.479" y="-185.106" transform="matrix(1 0 0 1 -50.5776 167.5107)" overflow="visible"/>
	
		<use xlink:href="#cementtruck"  width="275.469" height="142.183" id="XMLID_27_" x="-137.734" y="-71.092" transform="matrix(0.959 0 0 0.959 392.1567 43.1011)" overflow="visible"/>
	
		<use xlink:href="#dumptruck"  width="247.28" height="141.829" id="XMLID_26_" x="-123.64" y="-70.915" transform="matrix(0.8878 0 0 0.8878 -414.4766 42.5879)" overflow="visible"/>
	<polygon fill="none" stroke="#BB3E2E" stroke-width="5" stroke-miterlimit="10" stroke-dasharray="10,10" points="152.687,-16.465 
		65.443,-16.465 65.443,150.384 152.687,150.384 	"/>
	<polyline fill="none" stroke="#E64C3C" stroke-width="8" stroke-miterlimit="10" points="152.122,46.143 241.349,46.143 
		241.349,-71.272 -325.573,-71.272 -325.573,-284.642 -286.704,-284.642 	"/>
	<g>
		<g>
			<path fill="none" stroke="#231F20" stroke-width="5.9424" stroke-miterlimit="10" d="M-45.311-159.998
				c6.162-5.937,14.536-9.595,23.769-9.595c18.926,0,34.269,15.343,34.269,34.27"/>
			<polyline fill="#231F20" points="-2.877,-135.323 12.922,-113.715 28.722,-135.323 			"/>
		</g>
		<g>
			<path fill="none" stroke="#231F20" stroke-width="5.9424" stroke-miterlimit="10" d="M4.181-109.45
				c-6.162,5.937-14.535,9.595-23.768,9.595c-18.926,0-34.269-15.343-34.269-34.27"/>
			<polyline fill="#231F20" points="-38.253,-134.125 -54.052,-155.732 -69.852,-134.125 			"/>
		</g>
	</g>
	
		<use xlink:href="#greenhouse1"  width="184.448" height="164.657" id="XMLID_25_" x="-92.221" y="-82.329" transform="matrix(1 0 0 1 -195.9644 -270.2866)" overflow="visible"/>
	
		<use xlink:href="#greenhouse1"  width="184.448" height="164.657" id="XMLID_24_" x="-92.221" y="-82.329" transform="matrix(1 0 0 1 -68.9409 -270.2866)" overflow="visible"/>
	
		<use xlink:href="#greenhouse2"  width="184.448" height="164.657" id="XMLID_23_" x="-92.224" y="-82.329" transform="matrix(1 0 0 1 59.0029 -270.2881)" overflow="visible"/>
	
		<use xlink:href="#greenhouse2"  width="184.448" height="164.657" id="XMLID_22_" x="-92.224" y="-82.329" transform="matrix(1 0 0 1 192.9746 -270.2881)" overflow="visible"/>
	<polyline fill="#E64C3C" points="164.626,-87.109 147.4,-74.514 164.626,-61.918 	"/>
	<polyline fill="#E64C3C" points="-202.133,-87.109 -219.359,-74.514 -202.133,-61.918 	"/>
</symbol>
<symbol  id="plantgrown" viewBox="-17.687 -22.185 35.373 44.37">
	
		<use xlink:href="#biggerplant_2"  width="28.813" height="28.675" x="-14.406" y="-14.337" transform="matrix(1 0 0 1 -3.2803 -7.8481)" overflow="visible"/>
	
		<use xlink:href="#smallplant_2"  width="16.006" height="13.97" x="-8.003" y="-6.985" transform="matrix(1 0 0 1 -5.9429 6.4985)" overflow="visible"/>
	
		<use xlink:href="#smallplant_2"  width="16.006" height="13.97" x="-8.003" y="-6.985" transform="matrix(1 0 0 1 -5.3135 15.1997)" overflow="visible"/>
	
		<use xlink:href="#smallplant_2"  width="16.006" height="13.97" x="-8.003" y="-6.985" transform="matrix(-0.975 0.2222 0.2222 0.975 6.0313 -2.0439)" overflow="visible"/>
	
		<use xlink:href="#smallplant_2"  width="16.006" height="13.97" x="-8.003" y="-6.985" transform="matrix(-0.975 0.2222 0.2222 0.975 9.0137 6.0107)" overflow="visible"/>
</symbol>
<symbol  id="smallplant_2" viewBox="-8.003 -6.985 16.006 13.97">
	<g>
		<path fill="#8EA964" d="M1.468,0.615c0,0-2.904,4.927-6.721,2.616C-5.253,3.231-3.552-0.68,1.468,0.615z"/>
	</g>
	<g>
		<path fill="#8EA964" d="M1.468,0.615c0,0,0.026,4.323,4.143,4.701C5.61,5.316,6.071,2.167,1.468,0.615z"/>
	</g>
	<g>
		<path fill="#8EA964" d="M1.534,0.639c0,0,0.783-1.683,1.144-3.563c0.083-0.471,0.153-0.952,0.155-1.423
			C2.848-4.815,2.801-5.275,2.683-5.68C2.644-5.882,2.556-6.067,2.475-6.232c-0.072-0.167-0.153-0.307-0.25-0.413
			c-0.18-0.216-0.283-0.34-0.283-0.34L0.994-5.846c0,0,0.047,0.048,0.146,0.124C1.196-5.693,1.25-5.63,1.303-5.545
			c0.06,0.079,0.135,0.165,0.184,0.298c0.125,0.239,0.233,0.58,0.291,0.971C1.85-3.889,1.867-3.447,1.871-3.004
			c-0.009,1.792-0.47,3.596-0.47,3.596L1.534,0.639z"/>
	</g>
	<g opacity="0.5">
		<path fill="#8EA964" d="M1.888,0.066c0,0-4.274,7.251-9.891,3.849C-8.003,3.916-5.5-1.84,1.888,0.066z"/>
	</g>
	<g opacity="0.5">
		<path fill="#8EA964" d="M1.888,0.066c0,0,0.039,6.362,6.097,6.918C7.984,6.985,8.663,2.349,1.888,0.066z"/>
	</g>
</symbol>
<symbol  id="tomato" viewBox="-3.383 -3.852 6.765 7.703">
	<path fill="#E64C3C" d="M3.383-0.727c0-1.726-1.515-3.125-3.383-3.125s-3.383,1.399-3.383,3.125c0,1.726,1.515,3.125,3.383,3.125
		S3.383,0.999,3.383-0.727z"/>
	<g>
		<path fill="#8EA964" d="M0.584,1.317c0,0-1.156,1.96-2.674,1.041C-2.09,2.358-1.413,0.802,0.584,1.317z"/>
	</g>
	<g>
		<path fill="#8EA964" d="M0.584,1.317c0,0,0.01,1.72,1.648,1.871C2.232,3.188,2.416,1.935,0.584,1.317z"/>
	</g>
	<g opacity="0.5">
		<path fill="#8EA964" d="M0.751,1.099c0,0-1.701,2.885-3.935,1.531C-3.184,2.63-2.188,0.341,0.751,1.099z"/>
	</g>
	<g opacity="0.5">
		<path fill="#8EA964" d="M0.751,1.099c0,0,0.015,2.531,2.425,2.752C3.176,3.852,3.446,2.007,0.751,1.099z"/>
	</g>
</symbol>
<use xlink:href="#industrial-heatrecovery"  width="1048.488" height="705.233" x="-524.244" y="-352.617" transform="matrix(0.763 0 0 -0.763 402.5 270)" overflow="visible"/>
</svg>
