<?xml version="1.0" encoding="utf-8"?>
<!-- Generator: Adobe Illustrator 15.0.0, SVG Export Plug-In . SVG Version: 6.00 Build 0)  -->
<!DOCTYPE svg PUBLIC "-//W3C//DTD SVG 1.1//EN" "http://www.w3.org/Graphics/SVG/1.1/DTD/svg11.dtd">
<svg version="1.1" id="Слой_1" xmlns="http://www.w3.org/2000/svg" xmlns:xlink="http://www.w3.org/1999/xlink" x="0px" y="0px"
	 width="450px" height="135px" viewBox="0 0 450 135" enable-background="new 0 0 450 135" xml:space="preserve">
<symbol  id="issue-viability" viewBox="-215.699 -64.069 431.397 128.139">
	<path fill="#343433" d="M-81.327-14.878c0,0-3.551-4.187-3.357-6.78c0.193-2.593-0.531-3.066,1.404-4.5s0.314-0.75,3.162-2.517
		s5.208-2.936,7.161-1.763c1.953,1.173,4.866,2.703,5.702,5.381c0.836,2.677,3.123,8.085,0.967,9.866s-4.719,4.121-7.474,3.702
		c-2.755-0.419-6.76-1.765-6.76-1.765l0.733,4.036l-1.217-0.943l-2.546-0.522l-0.662-1.336l0.802-0.754c0,0-2.708-2.106-2.173-2.015
		c0.535,0.091,2.251,0.787,2.251,0.787L-81.327-14.878z"/>
	<path fill="#4D6047" d="M-69.928,3.419c0,0,4.187,3.551,6.78,3.358c2.593-0.194,3.066,0.531,4.5-1.404s0.75-0.314,2.517-3.162
		s2.936-5.208,1.763-7.161c-1.173-1.953-2.703-4.866-5.381-5.702c-2.677-0.836-8.085-3.123-9.866-0.967s-4.121,4.719-3.702,7.474
		c0.419,2.755,1.765,6.761,1.765,6.761l-4.036-0.734l0.943,1.217l0.522,2.546l1.336,0.662l0.754-0.802c0,0,2.106,2.709,2.015,2.174
		c-0.091-0.536-0.787-2.251-0.787-2.251L-69.928,3.419z"/>
	<path fill="#344130" d="M-78.871-31.812c0,0-2.2,3.596-2.301,4.443s-4.841-0.111-4.841-0.111l1.047,1.786l-1.159,2.111l1.418-0.52
		l0.207,0.923l0.657-0.818l0.754-0.794c0,0,2.273-1.507,3.317-0.158s2.902,7.042,7.316,7.265c4.414,0.223,4.441,0.992,5.748,0.117
		c1.307-0.875,2.131,0.638,3.309-0.596s3.497-10.142,1.929-11.294s-4.393-2.507-4.393-2.507L-78.871-31.812z"/>
	<path fill="#A4A4AC" d="M-75.2,0.837c0,0-3.572-3.317-4.007-4.213c-0.436-0.896-4.664,1.455-4.664,1.455l0.307-2.236l-1.967-1.984
		l1.586,0.177l-0.167-1.064l0.965,0.711l1.049,0.659c0,0,2.811,1.018,3.289-0.742c0.479-1.76,0.017-8.483,4.22-9.943
		c4.203-1.459,3.923-2.307,5.542-1.713c1.619,0.594,1.818-1.283,3.455-0.261c1.637,1.021,7.44,10.102,6.375,11.79
		c-1.065,1.689-3.272,3.946-3.272,3.946L-75.2,0.837z"/>
	<g>
		<path fill="#65805E" d="M-215.699-25.913l2.902-4.236l3.14-0.465l3.647-30.605c0,0,16.283-1.631,17.629,0.96
			c1.347,2.591-0.007,33.517-0.007,33.517s1.715-0.337,0.744,2.854c-0.971,3.192-6.856,3.904-10.995,3.394
			S-215.699-25.913-215.699-25.913z"/>
		<polyline fill="#E1E9D1" points="-209.657,-30.614 -188.343,-27.821 -187.874,-42.792 -207.914,-45.244 -209.723,-31.058 		"/>
		<path fill="#343433" d="M-201.497-60.239c-0.33-2.225-2.401-3.762-4.626-3.432c-2.226,0.33-3.762,2.401-3.433,4.626
			c0.33,2.225,2.401,3.762,4.626,3.432S-201.167-58.014-201.497-60.239z"/>
		<g opacity="0.8">
			<path fill="#9BB663" d="M-203.872-35.277l2.885-0.702l1.084,3.252c0,0-1.372,1.154-2.456,0.609
				C-203.441-32.663-203.872-35.277-203.872-35.277z"/>
			<path fill="#9BB663" d="M-201.281-31.816l3.643,0.877c0,0,1.021-0.562,1.324-1.231l0.797,0.606l-0.877-2.726l-2.934-0.733
				l0.549,0.882C-198.779-34.141-198.147-32.7-201.281-31.816z"/>
			<path fill="#9BB663" d="M-194.966-33.415l-2.274-2.111l2.856-2.674c0,0,1.947,0.566,1.948,1.791
				C-192.435-35.185-194.966-33.415-194.966-33.415z"/>
			<path fill="#9BB663" d="M-192.688-37.499l-1.01-3.608c0,0-1.135-0.58-2.002-0.483l0.216-1.011l-2.412,2.214l0.785,2.92
				l0.64-0.945C-196.472-38.412-195.287-39.727-192.688-37.499z"/>
			<path fill="#9BB663" d="M-197.982-41.876l-0.858,2.873l-3.431-0.855c0,0-0.316-1.818,0.72-2.452
				C-200.515-42.945-197.982-41.876-197.982-41.876z"/>
			<path fill="#9BB663" d="M-202.371-41.55l-2.643,2.657c0,0-0.027,1.188,0.409,1.818l-0.944,0.354l2.859,0.745l2.152-2.125
				l-1.062-0.013C-201.598-38.114-203.196-38.363-202.371-41.55z"/>
		</g>
		<path fill="#B2B1B2" d="M-203.109-60c-0.198-1.335-1.44-2.257-2.775-2.059c-1.335,0.198-2.257,1.44-2.06,2.775
			c0.198,1.335,1.44,2.257,2.776,2.06C-203.833-57.422-202.911-58.665-203.109-60z"/>
	</g>
	<g>
		<path fill="#65805E" d="M-180.126-25.913l2.901-4.236l3.14-0.465l3.647-30.605c0,0,16.283-1.631,17.629,0.96
			c1.347,2.591-0.007,33.517-0.007,33.517s1.715-0.337,0.744,2.854c-0.971,3.192-6.856,3.904-10.995,3.394
			S-180.126-25.913-180.126-25.913z"/>
		<polyline fill="#E1E9D1" points="-174.084,-30.614 -152.771,-27.821 -152.302,-42.792 -172.341,-45.244 -174.15,-31.058 		"/>
		<path fill="#343433" d="M-165.925-60.239c-0.33-2.225-2.401-3.762-4.626-3.432c-2.226,0.33-3.762,2.401-3.432,4.626
			c0.33,2.225,2.401,3.762,4.626,3.432C-167.131-55.942-165.595-58.014-165.925-60.239z"/>
		<g opacity="0.8">
			<path fill="#9BB663" d="M-168.299-35.277l2.885-0.702l1.085,3.252c0,0-1.373,1.154-2.456,0.609
				C-167.869-32.663-168.299-35.277-168.299-35.277z"/>
			<path fill="#9BB663" d="M-165.709-31.816l3.643,0.877c0,0,1.021-0.562,1.324-1.231l0.797,0.606l-0.877-2.726l-2.934-0.733
				l0.549,0.882C-163.207-34.141-162.575-32.7-165.709-31.816z"/>
			<path fill="#9BB663" d="M-159.393-33.415l-2.274-2.111l2.857-2.674c0,0,1.947,0.566,1.947,1.791
				C-156.862-35.185-159.393-33.415-159.393-33.415z"/>
			<path fill="#9BB663" d="M-157.116-37.499l-1.01-3.608c0,0-1.135-0.58-2.002-0.483l0.216-1.011l-2.412,2.214l0.785,2.92
				l0.64-0.945C-160.899-38.412-159.714-39.727-157.116-37.499z"/>
			<path fill="#9BB663" d="M-162.41-41.876l-0.859,2.873l-3.431-0.855c0,0-0.316-1.818,0.721-2.452
				C-164.942-42.945-162.41-41.876-162.41-41.876z"/>
			<path fill="#9BB663" d="M-166.798-41.55l-2.643,2.657c0,0-0.027,1.188,0.409,1.818l-0.944,0.354l2.859,0.745l2.152-2.125
				l-1.062-0.013C-166.026-38.114-167.624-38.363-166.798-41.55z"/>
		</g>
		<path fill="#B2B1B2" d="M-167.536-60c-0.198-1.335-1.441-2.257-2.776-2.059c-1.335,0.198-2.257,1.44-2.06,2.775
			c0.198,1.335,1.441,2.257,2.776,2.06S-167.338-58.665-167.536-60z"/>
	</g>
	<g>
		<polygon fill="#C9C9CA" points="-84.903,-45.858 -56.158,-45.858 -56.158,-47.857 -84.903,-47.857 		"/>
		<path fill="#8D8F91" d="M175.425-30.73c0,0-2.336,8-7.457,8h-28.211l-1.83,1.602l-155.252,1.6l-7.77-18.15h0.916l5.943-7.36v-9.93
			h2.744v9.93h34.028v-8.108h2.327v8.108h2.974v-8.108h3.108l5.771,3.202l27.245,2.087l1.372-2.079h78.426h1.142v-5.032h1.75v5.032
			h35.175h1.031v19.206H175.425z M-1.255-25.136l-5.533,2.406H3.767L-1.255-25.136z M18.535-25.015l-5.358,2.286l5.358,0.573
			V-25.015z M25.15-25.136v2.979l5.359-0.573l1.222-2.406H25.15z M58.257-25.136h-6.581l1.225,2.406l5.356,0.573V-25.136z
			 M59.959-25.136v2.979l10.425-0.573l2.379-2.406H59.959z M88.197-25.136H75.392l2.379,2.406l10.426,0.573V-25.136z"/>
		<polygon fill="#5E6062" points="215.699,-49.022 178.854,-49.022 178.854,-30.73 215.699,-30.73 		"/>
		<polygon fill="#E57E25" points="204.896,31.745 202.379,31.745 202.379,35.633 204.896,35.633 		"/>
		<polygon fill="#5E6062" points="139.464,-10.278 141.447,-10.278 141.447,-16.272 143.923,-16.272 143.923,-13.276 
			149.622,-13.276 149.622,4.708 154.327,4.708 154.327,-22.729 139.464,-22.729 		"/>
		<path fill="#FFFFFF" d="M153.703-22.156v52.015c0,0,4.887,5.487,9.109,5.715c4.223,0.23,42.501,0.121,48.281-7.652
			c0,0,0.605-6.98,2.827-30.987c0,0,1.779,0.115,1.779-2.001c0-2.114,0-25.894,0-25.894h-61.996V-22.156z"/>
		<g>
			<path fill="#2A292A" d="M177.823-45.413c0-9.713-7.875-17.588-17.587-17.588c-9.716,0-17.587,7.875-17.587,17.588
				c0,9.715,7.872,17.587,17.587,17.587C169.948-27.826,177.823-35.698,177.823-45.413z"/>
			<path fill="#6A7E86" d="M172.464-45.413c0-6.752-5.474-12.229-12.229-12.229c-6.755,0-12.231,5.477-12.231,12.229
				c0,6.757,5.477,12.231,12.231,12.231C166.99-33.182,172.464-38.656,172.464-45.413z"/>
			<path fill="#5D5E61" d="M171.242-45.413c0-6.077-4.93-11.007-11.007-11.007c-6.08,0-11.007,4.93-11.007,11.007
				c0,6.082,4.927,11.007,11.007,11.007C166.312-34.406,171.242-39.331,171.242-45.413z"/>
			<path fill="#B3BBC3" d="M162.435-45.413c0-1.214-0.986-2.2-2.2-2.2c-1.216,0-2.203,0.986-2.203,2.2
				c0,1.216,0.986,2.202,2.203,2.202C161.449-43.211,162.435-44.197,162.435-45.413z"/>
			<path fill="#B3BBC3" d="M152.5-45.413c0-4.271,3.464-7.733,7.735-7.733s7.732,3.462,7.732,7.733s-3.461,7.735-7.732,7.735
				S152.5-41.142,152.5-45.413z"/>
			<path fill="#DBDAD9" d="M157.414-45.038c0-1.557,1.262-2.819,2.822-2.819c1.557,0,2.819,1.262,2.819,2.819
				s-1.262,2.819-2.819,2.819C158.676-42.219,157.414-43.481,157.414-45.038z"/>
		</g>
		<g>
			<path fill="#2A292A" d="M60.326-45.413c0-9.713-7.875-17.588-17.587-17.588S25.15-55.126,25.15-45.413
				c0,9.715,7.875,17.587,17.588,17.587S60.326-35.698,60.326-45.413z"/>
			<path fill="#6A7E86" d="M54.967-45.413c0-6.752-5.474-12.229-12.229-12.229S30.51-52.166,30.51-45.413
				c0,6.757,5.474,12.231,12.229,12.231S54.967-38.656,54.967-45.413z"/>
			<path fill="#5D5E61" d="M53.745-45.413c0-6.077-4.927-11.007-11.007-11.007s-11.007,4.93-11.007,11.007
				c0,6.082,4.927,11.007,11.007,11.007S53.745-39.331,53.745-45.413z"/>
			<path fill="#B3BBC3" d="M44.94-45.413c0-1.214-0.985-2.2-2.202-2.2c-1.217,0-2.202,0.986-2.202,2.2
				c0,1.216,0.985,2.202,2.202,2.202C43.955-43.211,44.94-44.197,44.94-45.413z"/>
			<path fill="#B3BBC3" d="M35.005-45.413c0-4.271,3.462-7.733,7.733-7.733s7.733,3.462,7.733,7.733s-3.462,7.735-7.733,7.735
				S35.005-41.142,35.005-45.413z"/>
			<path fill="#DBDAD9" d="M39.919-45.038c0-1.557,1.262-2.819,2.819-2.819s2.819,1.262,2.819,2.819s-1.262,2.819-2.819,2.819
				S39.919-43.481,39.919-45.038z"/>
		</g>
		<g>
			<path fill="#2A292A" d="M18.535-45.413c0-9.713-7.874-17.588-17.587-17.588c-9.716,0-17.587,7.875-17.587,17.588
				c0,9.715,7.872,17.587,17.587,17.587C10.661-27.826,18.535-35.698,18.535-45.413z"/>
			<path fill="#6A7E86" d="M13.176-45.413c0-6.752-5.477-12.229-12.229-12.229c-6.755,0-12.231,5.477-12.231,12.229
				c0,6.757,5.477,12.231,12.231,12.231C7.7-33.182,13.176-38.656,13.176-45.413z"/>
			<path fill="#5D5E61" d="M11.955-45.413c0-6.077-4.93-11.007-11.007-11.007c-6.08,0-11.007,4.93-11.007,11.007
				c0,6.082,4.927,11.007,11.007,11.007C7.024-34.406,11.955-39.331,11.955-45.413z"/>
			<path fill="#B3BBC3" d="M3.147-45.413c0-1.214-0.986-2.2-2.2-2.2c-1.216,0-2.203,0.986-2.203,2.2
				c0,1.216,0.986,2.202,2.203,2.202C2.162-43.211,3.147-44.197,3.147-45.413z"/>
			<path fill="#B3BBC3" d="M-6.788-45.413c0-4.271,3.461-7.733,7.735-7.733c4.271,0,7.732,3.462,7.732,7.733
				s-3.461,7.735-7.732,7.735C-3.326-37.678-6.788-41.142-6.788-45.413z"/>
			<path fill="#DBDAD9" d="M-1.874-45.038c0-1.557,1.262-2.819,2.822-2.819c1.557,0,2.819,1.262,2.819,2.819
				s-1.262,2.819-2.819,2.819C-0.612-42.219-1.874-43.481-1.874-45.038z"/>
		</g>
		<polygon fill="#D2D3D4" points="139.756,-49.022 110.717,-49.022 110.717,-30.73 139.756,-30.73 		"/>
		<line fill="none" stroke="#EBECEC" stroke-miterlimit="10" x1="115.977" y1="-30.73" x2="115.977" y2="-49.022"/>
		<line fill="none" stroke="#EBECEC" stroke-miterlimit="10" x1="135.183" y1="-30.73" x2="135.183" y2="-49.022"/>
		<g>
			<polygon fill="none" stroke="#5E6062" stroke-miterlimit="10" points="108.204,-47.613 65.446,-47.613 65.446,-37.678 
				65.446,-21.127 108.204,-21.127 			"/>
			<line fill="none" stroke="#5E6062" stroke-miterlimit="10" x1="107.06" y1="-37.678" x2="66.59" y2="-37.678"/>
		</g>
		<g>
			<polygon fill="#B7B9BC" points="147.93,-22.729 148.347,27.343 150.109,27.343 150.526,-22.729 			"/>
		</g>
		<polygon fill="#DFE0E0" points="151.645,27.343 146.812,27.343 146.324,6.079 152.13,6.079 		"/>
		<path fill="none" stroke="#DFE0E0" stroke-width="1.2" stroke-miterlimit="10" d="M149.229,27.343v29.953
			c0,0,0.359,6.173-4.215,6.173"/>
		<g>
			<path fill="#272626" d="M150.619,26.314c0-0.118-0.096-0.214-0.217-0.214c-0.118,0-0.214,0.096-0.214,0.214
				c0,0.121,0.097,0.22,0.214,0.22C150.522,26.534,150.619,26.435,150.619,26.314z"/>
			<path fill="#272626" d="M149.451,26.314c0-0.118-0.097-0.214-0.217-0.214c-0.118,0-0.217,0.096-0.217,0.214
				c0,0.121,0.099,0.22,0.217,0.22C149.354,26.534,149.451,26.435,149.451,26.314z"/>
			<path fill="#272626" d="M148.283,26.314c0-0.118-0.1-0.214-0.218-0.214c-0.12,0-0.216,0.096-0.216,0.214
				c0,0.121,0.096,0.22,0.216,0.22C148.183,26.534,148.283,26.435,148.283,26.314z"/>
		</g>
		<g>
			<path fill="#272626" d="M150.619,25.264c0-0.118-0.096-0.214-0.217-0.214c-0.118,0-0.214,0.096-0.214,0.214
				c0,0.121,0.097,0.217,0.214,0.217C150.522,25.481,150.619,25.385,150.619,25.264z"/>
			<path fill="#272626" d="M149.451,25.264c0-0.118-0.097-0.214-0.217-0.214c-0.118,0-0.217,0.096-0.217,0.214
				c0,0.121,0.099,0.217,0.217,0.217C149.354,25.481,149.451,25.385,149.451,25.264z"/>
			<path fill="#272626" d="M148.283,25.264c0-0.118-0.1-0.214-0.218-0.214c-0.12,0-0.216,0.096-0.216,0.214
				c0,0.121,0.096,0.217,0.216,0.217C148.183,25.481,148.283,25.385,148.283,25.264z"/>
		</g>
		<g>
			<path fill="#272626" d="M150.619,24.213c0-0.118-0.096-0.214-0.217-0.214c-0.118,0-0.214,0.096-0.214,0.214
				c0,0.121,0.097,0.22,0.214,0.22C150.522,24.433,150.619,24.334,150.619,24.213z"/>
			<path fill="#272626" d="M149.451,24.213c0-0.118-0.097-0.214-0.217-0.214c-0.118,0-0.217,0.096-0.217,0.214
				c0,0.121,0.099,0.22,0.217,0.22C149.354,24.433,149.451,24.334,149.451,24.213z"/>
			<path fill="#272626" d="M148.283,24.213c0-0.118-0.1-0.214-0.218-0.214c-0.12,0-0.216,0.096-0.216,0.214
				c0,0.121,0.096,0.22,0.216,0.22C148.183,24.433,148.283,24.334,148.283,24.213z"/>
		</g>
		<g>
			<path fill="#272626" d="M150.619,23.163c0-0.118-0.096-0.214-0.217-0.214c-0.118,0-0.214,0.096-0.214,0.214
				c0,0.121,0.097,0.22,0.214,0.22C150.522,23.383,150.619,23.284,150.619,23.163z"/>
			<path fill="#272626" d="M149.451,23.163c0-0.118-0.097-0.214-0.217-0.214c-0.118,0-0.217,0.096-0.217,0.214
				c0,0.121,0.099,0.22,0.217,0.22C149.354,23.383,149.451,23.284,149.451,23.163z"/>
			<path fill="#272626" d="M148.283,23.163c0-0.118-0.1-0.214-0.218-0.214c-0.12,0-0.216,0.096-0.216,0.214
				c0,0.121,0.096,0.22,0.216,0.22C148.183,23.383,148.283,23.284,148.283,23.163z"/>
		</g>
		<g>
			<path fill="#272626" d="M150.619,22.113c0-0.118-0.096-0.214-0.217-0.214c-0.118,0-0.214,0.096-0.214,0.214
				c0,0.121,0.097,0.22,0.214,0.22C150.522,22.333,150.619,22.233,150.619,22.113z"/>
			<path fill="#272626" d="M149.451,22.113c0-0.118-0.097-0.214-0.217-0.214c-0.118,0-0.217,0.096-0.217,0.214
				c0,0.121,0.099,0.22,0.217,0.22C149.354,22.333,149.451,22.233,149.451,22.113z"/>
			<path fill="#272626" d="M148.283,22.113c0-0.118-0.1-0.214-0.218-0.214c-0.12,0-0.216,0.096-0.216,0.214
				c0,0.121,0.096,0.22,0.216,0.22C148.183,22.333,148.283,22.233,148.283,22.113z"/>
		</g>
		<polygon fill="#272626" points="182.34,-10.611 175.366,-10.611 175.366,-8.781 182.34,-8.781 		"/>
		<path fill="#FFFFFF" d="M-11.284-22.729l-6.953-10.452h-4.571v-5.552l-13.949-8.879c0,0-10.517-0.244-16.918-0.244
			c-6.403,0-16.188,10.68-16.188,10.68l-3.671,3.671l5.683,5.68V19.57h-5.487v4.343h5.945l30.636,33.382h29.969"/>
		<line fill="none" stroke="#B6BDA6" stroke-miterlimit="10" x1="-63.245" y1="19.57" x2="-15.721" y2="-17.486"/>
		<path fill="#C9C9CA" d="M-67.851-1.466h-8.917v-16.69c0,0,3.657-0.914,2.058-4.574c-1.6-3.657-2.058-5.943-2.058-5.943
			l3.234-4.833l5.683,5.68V-1.466z"/>
		<polygon fill="#FFFFFF" points="-19.836,-22.729 139.756,-22.729 139.756,57.296 -6.788,57.296 		"/>
		<polygon fill="#B6BDA6" points="-7.868,-16.728 127.785,-16.728 127.785,51.294 3.225,51.294 		"/>
		<polygon fill="#E1E9D1" points="-5.62,-13.813 125.58,-13.813 125.58,48.837 5.109,48.837 		"/>
		<polygon fill="#585655" points="-16.889,-16.385 -23.063,-16.385 -23.063,-5.067 -16.889,-5.067 		"/>
		<path fill="#C03A2B" d="M-17.146-7.267c0-0.897-0.729-1.629-1.629-1.629c-0.897,0-1.629,0.732-1.629,1.629
			c0,0.9,0.731,1.629,1.629,1.629C-17.875-5.638-17.146-6.366-17.146-7.267z"/>
		<polygon fill="#F0CA69" points="-17.403,-12.098 -20.147,-12.098 -20.147,-9.697 -17.403,-9.697 		"/>
		<polygon fill="#8BA64C" points="-17.403,-15.527 -20.147,-15.527 -20.147,-13.298 -17.403,-13.298 		"/>
		<polygon fill="#E57E25" points="1.459,-22.156 -8.486,-22.156 -8.486,-20.441 1.459,-20.441 		"/>
		<polygon fill="#E57E25" points="131.729,-22.156 121.783,-22.156 121.783,-20.441 131.729,-20.441 		"/>
		<polygon fill="#E57E25" points="-67.736,15.055 -69.681,15.055 -69.681,19.283 -67.736,19.283 		"/>
		<polygon fill="#D25627" points="-67.736,10.481 -69.681,10.481 -69.681,15.055 -67.736,15.055 		"/>
		<polygon fill="#D25627" points="-17.674,-44.963 -19.875,-44.963 -19.875,-39.476 -17.674,-39.476 		"/>
		<polygon fill="#E57E25" points="141.161,53.408 139.331,53.408 139.331,57.296 141.161,57.296 		"/>
		<path fill="#C9C9CA" d="M-65.793-29.739h39.098V-37.6l-12.079-7.283c0,0-12.614-1.656-16.272,0
			c-3.66,1.656-14.635,11.455-14.635,11.455L-65.793-29.739z"/>
		<polygon fill="#E57E25" points="-56.158,-33.932 -63.245,-33.932 -63.245,-32.788 -56.158,-32.788 		"/>
		<polygon fill="none" stroke="#B6BDA6" stroke-miterlimit="10" points="-63.245,-25.015 -63.245,19.57 -34.241,51.294 
			-3.513,51.294 -15.721,-17.486 -19.676,-25.015 		"/>
		<line fill="none" stroke="#B6BDA6" stroke-miterlimit="10" x1="-63.621" y1="-7.267" x2="-3.513" y2="51.294"/>
		
			<line fill="none" stroke="#B6BDA6" stroke-width="2" stroke-miterlimit="10" x1="-63.245" y1="-24.562" x2="-38.083" y2="-0.048"/>
		<path fill="#D1E2E8" stroke="#D1E2E8" stroke-miterlimit="10" d="M160.787,27.922h48.191l4.893-30.639l-39.098,7.545
			c0,0-13.263,0.115-14.177,6.688C159.683,18.088,160.787,27.922,160.787,27.922z"/>
		
			<line fill="none" stroke="#8D8F91" stroke-width="0.3771" stroke-miterlimit="10" x1="171.17" y1="4.064" x2="171.17" y2="-25.136"/>
		<polygon fill="#EFF5F7" points="183.656,27.922 211.425,12.601 208.979,27.922 		"/>
		<g>
			
				<line fill="none" stroke="#B7B8BA" stroke-width="0.3443" stroke-miterlimit="10" x1="215.699" y1="-9.697" x2="206.977" y2="-9.697"/>
			
				<line fill="none" stroke="#B7B8BA" stroke-width="0.3443" stroke-miterlimit="10" x1="215.699" y1="-11.982" x2="206.977" y2="-11.982"/>
			
				<line fill="none" stroke="#B7B8BA" stroke-width="0.3443" stroke-miterlimit="10" x1="215.699" y1="-14.954" x2="206.977" y2="-14.954"/>
		</g>
		<polygon fill="#FFFFFF" points="215.683,-39.476 206.993,-39.476 206.993,-32.788 215.683,-32.788 		"/>
		<polygon fill="#D25627" points="209.279,-39.476 206.993,-39.476 206.993,-32.788 209.279,-32.788 		"/>
		<g opacity="0.8">
			<path fill="#8BA64C" d="M44.799,27.992l9.541-5.011l6.677,10.495c0,0-3.815,5.268-8.111,4.303
				C48.614,36.815,44.799,27.992,44.799,27.992z"/>
			<path fill="#8BA64C" d="M56.96,37.897l13.595-0.118c0,0,3.101-2.872,3.578-5.496l3.338,1.431l-5.485-8.823H61.017l2.706,2.623
				C63.723,27.515,67.217,32.03,56.96,37.897z"/>
			<path fill="#8BA64C" d="M77.785,26.716l-9.861-5.434l7.704-11.923c0,0,7.35,0.278,8.43,4.592
				C85.137,18.26,77.785,26.716,77.785,26.716z"/>
			<path fill="#8BA64C" d="M82.21,10.34L75.483-1.474c0,0-4.504-1.042-7.473,0.062l-0.128-3.746l-6.543,9.912l5.332,9.589
				l1.42-3.891C68.091,10.452,71.105,4.78,82.21,10.34z"/>
			<path fill="#8BA64C" d="M59.729-0.415l-0.499,10.867l-12.829,0.003c0,0-2.712-6.117,0.38-9.263
				C49.876-1.948,59.729-0.415,59.729-0.415z"/>
			<path fill="#8BA64C" d="M44.568,4.593l-6.967,11.674c0,0,0.949,4.207,3.039,6.039l-3.012,2.074l10.721,0.107l5.707-9.367
				l-3.749,0.887C50.308,16.007,44.466,16.537,44.568,4.593z"/>
		</g>
	</g>
	<path fill="#4D4D5D" d="M-115.797-41.355c0,0,4.02,1.269,4.867,1.164c0.846-0.106,1.058,4.726,1.058,4.726l1.481-1.446l2.328,0.616
		l-0.846-1.251l0.846-0.423l-0.952-0.441l-0.952-0.541c0,0-2.01-1.843-0.952-3.182c1.058-1.338,6.136-4.512,5.29-8.85
		c-0.847-4.338-0.106-4.549-1.27-5.607c-1.164-1.058,0.106-2.222-1.375-3.068c-1.481-0.846-10.686-0.952-11.426,0.847
		c-0.741,1.798-1.375,4.867-1.375,4.867L-115.797-41.355z"/>
	<path fill="#191A19" d="M-124.645-41.355c0,0-5.038,1.269-6.099,1.164c-1.061-0.106-1.326,4.726-1.326,4.726l-1.856-1.446
		l-2.917,0.616l1.061-1.251l-1.061-0.423l1.193-0.441l1.193-0.541c0,0,2.519-1.843,1.193-3.182s-7.69-4.512-6.629-8.85
		c1.061-4.338,0.132-4.549,1.591-5.607s-0.133-2.222,1.724-3.068c1.856-0.846,13.391-0.952,14.319,0.847
		c0.928,1.798,1.724,4.867,1.724,4.867L-124.645-41.355z"/>
	<path fill="#212133" d="M-125.208-39.731c0,0,5.385,1.237,7.495-0.504c2.109-1.741,2.884-1.263,3.115-4.142
		c0.23-2.878,0.478-0.774,0.524-4.807c0.047-4.033-0.166-7.2-2.166-8.55s-4.794-3.495-7.503-2.782s-8.487,1.525-8.9,4.84
		s-1.093,7.39,0.674,10.028c1.768,2.638,4.966,6.038,4.966,6.038l-3.814,1.626l1.427,0.715l1.749,2.358l1.478-0.099l0.231-1.288
		c0,0,3.182,1.588,2.83,1.082s-1.824-1.892-1.824-1.892L-125.208-39.731z"/>
	<path fill="#343433" d="M-99.267-42.99c0,0-5.472-0.449-7.168-2.419c-1.696-1.97-2.543-1.793-2.189-4.175
		c0.354-2.382-0.309-0.753,0.456-4.016s1.606-5.758,3.817-6.31s5.352-1.529,7.836-0.228c2.485,1.302,7.925,3.509,7.66,6.292
		s-0.423,6.25-2.667,7.902c-2.245,1.651-6.028,3.533-6.028,3.533l3.373,2.335l-1.527,0.193l-2.17,1.431l-1.414-0.477l0.034-1.101
		c0,0-3.405,0.426-2.962,0.112c0.443-0.313,2.149-1.035,2.149-1.035L-99.267-42.99z"/>
	<g>
		<path fill="#4A6144" d="M-170.008-28.122l3.492-3.765h3.174l8.094-29.741c0,0,16.346,0.773,17.298,3.534
			s-4.919,33.154-4.919,33.154s1.746-0.083,0.317,2.933c-1.428,3.016-7.354,2.857-11.374,1.746
			C-157.947-21.373-170.008-28.122-170.008-28.122z"/>
		<polyline fill="#E1E9D1" points="-163.343,-31.887 -142.668,-26 -140.01,-40.741 -159.474,-46.104 -163.343,-32.336 		"/>
		<path fill="#343433" d="M-150.929-59.996c0-2.25-1.823-4.073-4.073-4.073c-2.25,0-4.073,1.824-4.073,4.073
			s1.824,4.073,4.073,4.073C-152.752-55.923-150.929-57.747-150.929-59.996z"/>
		<g opacity="0.8">
			<path fill="#9BB663" d="M-156.937-35.652l2.957-0.271l0.597,3.376c0,0-1.527,0.94-2.519,0.243
				C-156.894-33.002-156.937-35.652-156.937-35.652z"/>
			<path fill="#9BB663" d="M-154.881-31.848l3.475,1.401c0,0,1.092-0.405,1.49-1.023l0.7,0.716l-0.468-2.825l-2.794-1.155
				l0.414,0.953C-152.065-33.781-151.651-32.263-154.881-31.848z"/>
			<path fill="#9BB663" d="M-148.399-32.504l-1.94-2.422l3.218-2.226c0,0,1.843,0.845,1.665,2.057
				C-145.637-33.884-148.399-32.504-148.399-32.504z"/>
			<path fill="#9BB663" d="M-145.548-36.21l-0.471-3.718c0,0-1.037-0.74-1.91-0.771l0.362-0.969l-2.71,1.837l0.349,3.003
				l0.771-0.841C-149.157-37.668-147.792-38.795-145.548-36.21z"/>
			<path fill="#9BB663" d="M-150.143-41.317l-1.271,2.716l-3.269-1.35c0,0-0.046-1.845,1.072-2.319
				C-152.492-42.745-150.143-41.317-150.143-41.317z"/>
			<path fill="#9BB663" d="M-154.532-41.637l-3.003,2.241c0,0-0.201,1.171,0.139,1.858l-0.986,0.211l2.72,1.156l2.44-1.786
				l-1.048-0.168C-154.271-38.125-155.816-38.605-154.532-41.637z"/>
		</g>
		<path fill="#B2B1B2" d="M-152.558-59.996c0-1.35-1.094-2.444-2.444-2.444s-2.444,1.094-2.444,2.444
			c0,1.35,1.094,2.444,2.444,2.444S-152.558-58.646-152.558-59.996z"/>
	</g>
	<g>
		<path fill="#4A6144" d="M-197.026-25.913l2.902-4.236l3.14-0.465l3.647-30.605c0,0,16.283-1.631,17.629,0.96
			c1.346,2.591-0.007,33.517-0.007,33.517s1.715-0.337,0.744,2.854c-0.971,3.192-6.856,3.904-10.996,3.394
			S-197.026-25.913-197.026-25.913z"/>
		<polyline fill="#E1E9D1" points="-190.985,-30.614 -169.67,-27.821 -169.202,-42.792 -189.242,-45.244 -191.051,-31.058 		"/>
		<path fill="#343433" d="M-182.825-60.239c-0.33-2.225-2.401-3.762-4.626-3.432c-2.225,0.33-3.762,2.401-3.432,4.626
			c0.33,2.225,2.401,3.762,4.626,3.432C-184.032-55.942-182.495-58.014-182.825-60.239z"/>
		<g opacity="0.8">
			<path fill="#9BB663" d="M-185.2-35.277l2.886-0.702l1.084,3.252c0,0-1.372,1.154-2.456,0.609
				C-184.769-32.663-185.2-35.277-185.2-35.277z"/>
			<path fill="#9BB663" d="M-182.609-31.816l3.643,0.877c0,0,1.021-0.562,1.324-1.231l0.797,0.606l-0.877-2.726l-2.934-0.733
				l0.549,0.882C-180.107-34.141-179.475-32.7-182.609-31.816z"/>
			<path fill="#9BB663" d="M-176.293-33.415l-2.274-2.111l2.856-2.674c0,0,1.947,0.566,1.948,1.791
				C-173.763-35.185-176.293-33.415-176.293-33.415z"/>
			<path fill="#9BB663" d="M-174.016-37.499l-1.01-3.608c0,0-1.135-0.58-2.002-0.483l0.216-1.011l-2.411,2.214l0.785,2.92
				l0.64-0.945C-177.799-38.412-176.614-39.727-174.016-37.499z"/>
			<path fill="#9BB663" d="M-179.31-41.876l-0.859,2.873l-3.431-0.855c0,0-0.316-1.818,0.721-2.452S-179.31-41.876-179.31-41.876z"
				/>
			<path fill="#9BB663" d="M-183.699-41.55l-2.643,2.657c0,0-0.027,1.188,0.41,1.818l-0.944,0.354l2.86,0.745l2.152-2.125
				l-1.062-0.013C-182.926-38.114-184.524-38.363-183.699-41.55z"/>
		</g>
		<path fill="#B2B1B2" d="M-184.437-60c-0.198-1.335-1.44-2.257-2.776-2.059c-1.335,0.198-2.257,1.44-2.059,2.775
			c0.198,1.335,1.44,2.257,2.775,2.06C-185.161-57.422-184.239-58.665-184.437-60z"/>
	</g>
</symbol>
<use xlink:href="#issue-viability"  width="431.397" height="128.139" x="-215.699" y="-64.069" transform="matrix(1.0379 0 0 -1.0379 225.8369 67.2358)" overflow="visible"/>
</svg>
