<?xml version="1.0" encoding="utf-8"?>
<!-- Generator: Adobe Illustrator 15.0.0, SVG Export Plug-In . SVG Version: 6.00 Build 0)  -->
<!DOCTYPE svg PUBLIC "-//W3C//DTD SVG 1.1//EN" "http://www.w3.org/Graphics/SVG/1.1/DTD/svg11.dtd">
<svg version="1.1" id="Слой_1" xmlns="http://www.w3.org/2000/svg" xmlns:xlink="http://www.w3.org/1999/xlink" x="0px" y="0px"
	 width="430px" height="225px" viewBox="0 0 430 225" enable-background="new 0 0 430 225" xml:space="preserve">
<symbol  id="issues-water" viewBox="-117.451 -74.099 282.798 148.198">
	<path fill="#3B97D3" d="M-117.451,74.023h0.02c-0.001,0.025-0.002,0.051-0.003,0.076L-117.451,74.023z"/>
	<path fill="#3B97D3" d="M-105.668,74.088c0-0.021-0.001-0.043-0.002-0.065h0.02L-105.668,74.088z"/>
	<path opacity="0.81" fill="#A1CDEA" d="M104.224-70.38c0-1.68,11.214-3.042,25.046-3.042c13.833,0,25.046,1.362,25.046,3.042
		l6.275,56.757c0,2.101-14.023,3.803-31.322,3.803s-31.321-1.703-31.321-3.803L104.224-70.38z"/>
	<path fill="none" stroke="#3B97D3" stroke-width="1.5816" stroke-miterlimit="10" d="M-80.009-36.871c0,0,20.987-5.272,30.17-5.272
		c9.183,0,31.36,5.272,31.36,5.272"/>
	<path fill="none" stroke="#3B97D3" stroke-width="2.6811" stroke-miterlimit="10" d="M-101.394-45.44
		c0,0,35.576-8.937,51.142-8.937c15.566,0,53.158,8.937,53.158,8.937"/>
	<path fill="none" stroke="#3B97D3" stroke-width="3.3772" stroke-miterlimit="10" d="M-114.936-61.153
		c0,0,44.813-11.257,64.421-11.257s66.961,11.257,66.961,11.257"/>
	<path fill="#8AC1E5" d="M-44.625,32.666c-0.094,0.146-0.199,0.281-0.302,0.417l-4.867,10.821l-4.415-11.833l-0.918-4.296
		c0.001-0.025,0.001-0.051,0.003-0.076c0.199-3.776,2.752-6.765,5.88-6.765c3.129,0,5.682,2.989,5.881,6.765
		c0.001,0.021,0.001,0.043,0.002,0.065L-44.625,32.666z"/>
	<path fill="#8AC1E5" d="M-59.618-1.946c-0.094,0.146-0.199,0.281-0.302,0.417l-4.867,10.821l-4.415-11.833l-0.918-4.296
		c0.001-0.025,0.001-0.051,0.003-0.076c0.199-3.776,2.752-6.766,5.88-6.766c3.129,0,5.682,2.99,5.881,6.766
		c0.001,0.021,0.001,0.043,0.002,0.065L-59.618-1.946z"/>
	<g>
		<path fill="#E8F3FA" d="M-51.07,35.581c-0.456-1.396-0.854-2.822-1.161-4.252c-0.15-0.715-0.276-1.434-0.344-2.146
			c-0.061-0.691-0.075-1.463,0.137-1.939l0.016-0.036c0.114-0.256-0.001-0.558-0.258-0.672c-0.256-0.115-0.558,0-0.672,0.257
			c-0.006,0.014-0.012,0.029-0.017,0.043c-0.315,0.926-0.174,1.688-0.085,2.454c0.118,0.758,0.292,1.492,0.49,2.216
			c0.401,1.447,0.885,2.854,1.431,4.244c0.05,0.127,0.193,0.189,0.32,0.14C-51.092,35.843-51.031,35.704-51.07,35.581z"/>
	</g>
	<path fill="#8AC1E5" d="M-34.292-17.836c-0.094,0.146-0.199,0.281-0.302,0.417l-4.867,10.821l-4.415-11.833l-0.918-4.296
		c0.001-0.025,0.001-0.051,0.003-0.076c0.199-3.776,2.752-6.765,5.88-6.765c3.129,0,5.682,2.989,5.881,6.765
		c0.001,0.021,0.001,0.043,0.002,0.065L-34.292-17.836z"/>
	<g>
		<path fill="#E8F3FA" d="M-40.737-14.921c-0.456-1.396-0.854-2.822-1.161-4.252c-0.151-0.715-0.276-1.434-0.345-2.146
			c-0.061-0.691-0.075-1.463,0.138-1.939l0.016-0.036c0.114-0.257-0.001-0.558-0.257-0.672c-0.257-0.115-0.558,0-0.672,0.257
			c-0.006,0.014-0.012,0.029-0.017,0.043c-0.315,0.925-0.175,1.688-0.085,2.454c0.118,0.758,0.292,1.492,0.49,2.216
			c0.401,1.447,0.885,2.854,1.431,4.244c0.05,0.127,0.193,0.189,0.32,0.14C-40.759-14.66-40.698-14.799-40.737-14.921z"/>
	</g>
	<g>
		<path fill="#E8F3FA" d="M-66.335,0.488c-0.456-1.396-0.854-2.822-1.161-4.252c-0.15-0.715-0.276-1.434-0.344-2.146
			c-0.061-0.691-0.075-1.463,0.137-1.939l0.016-0.036c0.114-0.256-0.001-0.558-0.258-0.672c-0.257-0.115-0.558,0.001-0.672,0.257
			c-0.006,0.014-0.012,0.029-0.017,0.043c-0.315,0.925-0.174,1.688-0.085,2.454c0.118,0.758,0.292,1.492,0.49,2.216
			c0.4,1.447,0.885,2.854,1.431,4.244c0.05,0.127,0.193,0.189,0.32,0.14C-66.356,0.75-66.295,0.61-66.335,0.488z"/>
	</g>
	<path fill="none" stroke="#EAF6FD" stroke-width="0.8693" stroke-miterlimit="10" d="M164.85,22.803c0-2.386-15.93-4.32-35.58-4.32
		s-35.58,1.934-35.58,4.32c0,2.386,15.93,4.32,35.58,4.32S164.85,25.189,164.85,22.803z"/>
	<path opacity="0.81" fill="#8AC1E5" d="M160.592-13.623c0-2.101-14.023-3.804-31.322-3.804s-31.321,1.703-31.321,3.804
		s14.023,3.803,31.321,3.803S160.592-11.522,160.592-13.623z"/>
	<path opacity="0.25" fill="#EAF6FD" d="M154.317-70.38c0-1.68-11.213-3.042-25.046-3.042c-13.833,0-25.046,1.362-25.046,3.042
		s11.214,3.041,25.046,3.041C143.104-67.339,154.317-68.7,154.317-70.38z"/>
	<path fill="none" stroke="#EAF6FD" stroke-width="0.8693" stroke-miterlimit="10" d="M154.317-70.38
		c0-1.68-11.213-3.042-25.046-3.042c-13.833,0-25.046,1.362-25.046,3.042"/>
	<line fill="none" stroke="#EAF6FD" stroke-miterlimit="10" x1="164.85" y1="22.803" x2="154.317" y2="-70.38"/>
	<polyline fill="none" stroke="#EAF6FD" stroke-miterlimit="10" points="97.949,-13.623 104.224,-70.38 93.691,22.803 	"/>
	<path opacity="0.15" fill="#F9FCFF" d="M108.844,19.266l8.33-92.688c0,0,1.375,0-6.097,0.952l-10.588,92.733
		C100.489,20.264,97.309,21.047,108.844,19.266z"/>
	<g opacity="0.3">
		<path fill="#F9FCFF" d="M138.125-11.403c-5.875,0.276-11.767,0.323-17.642,0.084c-2.937-0.126-5.871-0.333-8.785-0.693
			c-1.456-0.185-2.906-0.408-4.342-0.697c-0.718-0.144-1.429-0.314-2.136-0.495c-0.704-0.193-1.4-0.409-2.085-0.653l0,0l0.019,0.462
			c0.841-0.339,1.772-0.571,2.687-0.762c0.921-0.188,1.855-0.317,2.792-0.413c0.938-0.097,1.88-0.141,2.822-0.163
			c0.943-0.02,1.887,0.003,2.829,0.042l0.006,0c0.205,0.008,0.378-0.151,0.386-0.356c0.009-0.205-0.151-0.378-0.356-0.387
			c-0.001,0-0.005,0-0.008,0c-0.959-0.02-1.918-0.021-2.877,0.019c-0.959,0.043-1.917,0.108-2.87,0.228
			c-0.954,0.118-1.903,0.27-2.843,0.482c-0.941,0.22-1.861,0.464-2.778,0.856l-0.6,0.256l0.619,0.206l0,0
			c0.704,0.246,1.416,0.46,2.133,0.652c0.72,0.178,1.441,0.346,2.168,0.486c1.453,0.282,2.915,0.496,4.381,0.672
			c2.933,0.34,5.877,0.527,8.823,0.632c5.892,0.197,11.787,0.108,17.671-0.21c0.068-0.003,0.121-0.062,0.117-0.13
			C138.252-11.354,138.193-11.406,138.125-11.403z"/>
	</g>
</symbol>
<use xlink:href="#issues-water"  width="282.798" height="148.198" id="XMLID_6_" x="-117.451" y="-74.099" transform="matrix(1.512 0 0 -1.512 177.5859 112.29)" overflow="visible"/>
</svg>
