<?xml version="1.0" encoding="utf-8"?>
<!-- Generator: Adobe Illustrator 15.0.0, SVG Export Plug-In . SVG Version: 6.00 Build 0)  -->
<!DOCTYPE svg PUBLIC "-//W3C//DTD SVG 1.1//EN" "http://www.w3.org/Graphics/SVG/1.1/DTD/svg11.dtd">
<svg version="1.1" id="Слой_1" xmlns="http://www.w3.org/2000/svg" xmlns:xlink="http://www.w3.org/1999/xlink" x="0px" y="0px"
	 width="570px" height="142px" viewBox="0 0 545 142" enable-background="new 0 0 545 142" xml:space="preserve">
<symbol  id="poweringhouse" viewBox="-55.098 -64.109 110.196 128.217">
	<g>
		<polygon fill="#9AAEB8" points="-23.891,42.055 23.353,42.055 53.514,10.732 -53.514,10.732 		"/>
		<polygon fill="#595870" points="22.072,39.415 -23.891,39.415 0,62.55 		"/>
		<polygon fill="#4E4C61" points="0,-21.579 44.519,-21.579 44.519,-62.685 0,-62.685 -44.52,-62.685 -44.52,-21.579 		"/>
		<polygon fill="#A8AAAD" points="-3.085,-28.47 -3.085,16 44.519,16 44.519,-28.47 		"/>
		<polygon fill="#B8B8B9" points="-44.52,-28.47 -44.52,16 11.749,16 11.749,-28.47 		"/>
		<polyline fill="#7D8078" stroke="#616555" stroke-width="1.8937" stroke-miterlimit="10" points="44.519,-62.685 0,-62.685 
			-44.52,-62.685 		"/>
		<g>
			<polygon fill="#90ABB3" stroke="#D1D0D0" stroke-width="0.4573" stroke-miterlimit="10" points="-33.063,-18.076 -4.248,-18.076 
				-4.248,-1.375 -33.063,-1.375 			"/>
			
				<line fill="#90ABB3" stroke="#D1D0D0" stroke-width="0.4573" stroke-miterlimit="10" x1="-25.337" y1="-1.375" x2="-25.337" y2="-18.076"/>
			
				<line fill="#90ABB3" stroke="#D1D0D0" stroke-width="0.4573" stroke-miterlimit="10" x1="-11.815" y1="-1.375" x2="-11.815" y2="-18.076"/>
		</g>
		<g>
			<polygon fill="#B4C3C9" stroke="#D1D0D0" stroke-width="0.4573" stroke-miterlimit="10" points="-14.24,18.787 14.576,18.787 
				14.576,35.488 -14.24,35.488 			"/>
			
				<line fill="#B4C3C9" stroke="#D1D0D0" stroke-width="0.4573" stroke-miterlimit="10" x1="-6.513" y1="35.488" x2="-6.513" y2="18.787"/>
			
				<line fill="#B4C3C9" stroke="#D1D0D0" stroke-width="0.4573" stroke-miterlimit="10" x1="7.008" y1="35.488" x2="7.008" y2="18.787"/>
		</g>
		<polygon fill="#CDCFCF" points="18.131,-28.551 35.383,-28.551 35.383,6.497 18.131,6.497 		"/>
		<g>
			<polygon fill="#90ABB3" stroke="#808181" stroke-width="0.1892" stroke-miterlimit="10" points="20.792,-11.068 32.723,-11.068 
				32.723,3.55 20.792,3.55 			"/>
			<g>
				<polygon fill="#90ABB3" stroke="#808181" stroke-width="0.1892" stroke-miterlimit="10" points="20.792,-22.561 23.353,-25.121 
					28.826,-25.121 20.792,-17.09 				"/>
				<polygon fill="#90ABB3" stroke="#808181" stroke-width="0.1892" stroke-miterlimit="10" points="20.792,-17.09 28.826,-25.121 
					32.723,-25.121 32.723,-23.686 20.792,-11.756 				"/>
				<polygon fill="#90ABB3" stroke="#808181" stroke-width="0.1892" stroke-miterlimit="10" points="20.792,-25.121 23.353,-25.121 
					20.792,-22.561 				"/>
				<polygon fill="#90ABB3" stroke="#808181" stroke-width="0.1892" stroke-miterlimit="10" points="24.526,-10.501 20.792,-10.501 
					20.792,-11.756 32.723,-23.686 32.723,-18.697 				"/>
				<polygon fill="#90ABB3" stroke="#808181" stroke-width="0.1892" stroke-miterlimit="10" points="32.723,-13.232 29.992,-10.501 
					24.526,-10.501 32.723,-18.697 				"/>
				<polygon fill="#90ABB3" stroke="#808181" stroke-width="0.1892" stroke-miterlimit="10" points="32.723,-10.501 29.992,-10.501 
					32.723,-13.232 				"/>
			</g>
		</g>
		<g>
			<polygon fill="#B4C3C9" stroke="#D1D0D0" stroke-width="0.4169" stroke-miterlimit="10" points="-33.063,-49.063 -5.321,-49.063 
				-5.321,-34.646 -33.063,-34.646 			"/>
			
				<line fill="#B4C3C9" stroke="#D1D0D0" stroke-width="0.4169" stroke-miterlimit="10" x1="-25.624" y1="-34.646" x2="-25.624" y2="-49.063"/>
			
				<line fill="#B4C3C9" stroke="#D1D0D0" stroke-width="0.4169" stroke-miterlimit="10" x1="-12.607" y1="-34.646" x2="-12.607" y2="-49.063"/>
		</g>
		<polygon fill="#90ABB3" stroke="#D1D0D0" stroke-width="0.4573" stroke-miterlimit="10" points="-4.248,5.606 -33.063,5.606 
			-33.063,-1.375 -4.248,-1.375 		"/>
		<polygon fill="#545453" points="36.785,10.226 37.245,10.226 37.02,10.254 		"/>
		<polygon fill="#545453" points="-14.708,15.995 -19.789,15.995 -17.242,15.739 		"/>
		<polygon fill="#545453" points="-5.547,15.995 -10.588,15.995 -8.063,15.739 		"/>
		<polygon fill="#545453" points="45.738,10.254 45.752,10.254 45.745,10.254 		"/>
		<polygon fill="#545453" points="-23.846,15.995 -28.968,16 -26.399,15.739 		"/>
		<polygon fill="#545453" points="12.731,15.991 7.768,15.991 10.257,15.739 		"/>
		<polygon fill="#545453" points="21.867,15.987 16.948,15.987 19.414,15.739 		"/>
		<polygon fill="#545453" points="-25.976,10.059 -22.424,10.067 -24.157,10.254 		"/>
		<polygon fill="#545453" points="31.086,15.987 26.204,15.987 28.651,15.739 		"/>
		<polygon fill="#545453" points="-43.881,10.009 -39.443,10.023 -41.608,10.254 		"/>
		<polygon fill="#545453" points="-34.927,10.038 -30.933,10.046 -32.88,10.254 		"/>
		<polygon fill="#545453" points="3.591,15.991 -1.409,15.991 1.096,15.739 		"/>
		<polygon fill="#545453" points="9.853,10.156 11.637,10.16 10.767,10.254 		"/>
		<polygon fill="#545453" points="27.833,10.204 28.732,10.204 28.292,10.254 		"/>
		<polygon fill="#545453" points="0.899,10.13 3.128,10.138 2.043,10.254 		"/>
		<polygon fill="#545453" points="-17.025,10.086 -13.896,10.09 -15.42,10.254 		"/>
		<polygon fill="#545453" points="-8.052,10.108 -5.383,10.117 -6.682,10.254 		"/>
		<polygon fill="#545453" points="-32.986,16 -38.148,16 -35.56,15.739 		"/>
		<polygon fill="#545453" points="-43.241,16 -43.388,15.875 -42.123,16 		"/>
		<polygon fill="#545453" points="49.364,15.981 44.563,15.981 46.966,15.739 		"/>
		<g>
			<polygon fill="#545453" points="53.875,10.272 53.374,10.759 48.004,15.981 -46.942,16 -53.699,9.992 			"/>
			<polygon fill="#545453" points="35.827,15.991 31.086,15.991 33.46,15.747 			"/>
			<polygon fill="#4E4F51" points="45.928,15.712 41.442,15.252 36.955,15.712 32.47,15.252 27.984,15.712 23.496,15.252 19,15.716 
				19,15.895 18.943,15.895 18.943,15.716 14.447,15.252 9.958,15.712 5.474,15.252 0.989,15.712 -3.5,15.252 -7.986,15.712 
				-12.474,15.252 -16.971,15.716 -21.467,15.252 -25.954,15.712 -30.439,15.252 -34.925,15.712 -39.414,15.252 -43.9,15.712 
				-47.581,15.335 -48.259,14.733 -43.911,15.182 -43.911,15.182 -43.9,15.182 -43.892,15.182 -43.892,15.182 -39.414,14.72 
				-34.936,15.182 -34.936,15.182 -34.925,15.182 -34.916,15.182 -34.916,15.182 -30.439,14.72 -25.963,15.182 -25.963,15.182 
				-25.954,15.182 -25.943,15.182 -25.943,15.182 -21.467,14.72 -16.971,15.182 -12.474,14.72 -7.997,15.182 -7.997,15.182 
				-7.986,15.182 -7.978,15.182 -7.978,15.182 -3.5,14.72 0.978,15.182 0.978,15.182 0.989,15.182 0.997,15.182 0.997,15.182 
				5.474,14.72 9.951,15.182 9.951,15.182 9.958,15.182 9.971,15.182 9.971,15.182 14.447,14.72 18.943,15.182 18.943,14.792 
				14.447,14.325 9.958,14.785 5.474,14.325 0.989,14.785 -3.5,14.325 -7.986,14.785 -12.474,14.325 -16.971,14.792 -21.467,14.325 
				-25.954,14.785 -30.439,14.325 -34.925,14.785 -39.414,14.325 -43.9,14.785 -48.388,14.325 -48.684,14.356 -49.221,13.878 
				-48.388,13.793 -43.911,14.255 -43.911,14.255 -43.9,14.255 -43.892,14.255 -43.892,14.255 -39.414,13.793 -34.936,14.255 
				-34.936,14.255 -34.925,14.255 -34.917,14.255 -34.917,14.255 -30.439,13.793 -25.963,14.255 -25.963,14.255 -25.954,14.255 
				-25.943,14.255 -25.943,14.255 -21.467,13.793 -16.971,14.255 -12.474,13.793 -7.997,14.255 -7.997,14.255 -7.986,14.255 
				-7.978,14.255 -7.978,14.255 -3.5,13.793 0.978,14.255 0.978,14.255 0.989,14.255 0.997,14.255 0.997,14.255 5.474,13.793 
				9.951,14.255 9.951,14.255 9.958,14.255 9.971,14.255 9.971,14.255 14.447,13.793 18.943,14.255 18.943,13.865 14.447,13.399 
				9.958,13.859 5.474,13.399 0.989,13.859 -3.5,13.399 -7.986,13.859 -12.474,13.399 -16.971,13.865 -21.467,13.399 
				-25.954,13.859 -30.439,13.399 -34.925,13.859 -39.414,13.399 -43.9,13.859 -48.388,13.399 -49.617,13.527 -50.154,13.049 
				-48.388,12.869 -43.911,13.329 -43.911,13.329 -43.9,13.329 -43.892,13.329 -43.892,13.329 -39.414,12.869 -34.936,13.329 
				-34.936,13.329 -34.925,13.329 -34.917,13.329 -34.917,13.329 -30.439,12.869 -25.963,13.329 -25.963,13.329 -25.954,13.329 
				-25.943,13.329 -25.943,13.329 -21.467,12.869 -16.971,13.329 -12.474,12.869 -7.997,13.329 -7.997,13.329 -7.986,13.329 
				-7.978,13.329 -7.978,13.329 -3.5,12.869 0.978,13.329 0.978,13.329 0.989,13.329 0.997,13.329 0.997,13.329 5.474,12.869 
				9.951,13.329 9.951,13.329 9.958,13.329 9.971,13.329 9.971,13.329 14.447,12.869 18.943,13.329 18.943,12.939 14.447,12.472 
				9.958,12.935 5.474,12.472 0.989,12.935 -3.5,12.472 -7.986,12.935 -12.474,12.472 -16.971,12.939 -21.467,12.472 
				-25.954,12.935 -30.439,12.472 -34.925,12.935 -39.414,12.472 -43.9,12.935 -48.388,12.472 -50.549,12.695 -51.088,12.216 
				-48.388,11.942 -43.911,12.402 -43.911,12.402 -43.9,12.402 -43.892,12.402 -43.892,12.402 -39.414,11.942 -34.936,12.402 
				-34.936,12.402 -34.925,12.402 -34.917,12.402 -34.917,12.402 -30.439,11.942 -25.963,12.402 -25.963,12.402 -25.954,12.402 
				-25.943,12.402 -25.943,12.402 -21.467,11.942 -16.971,12.402 -12.474,11.942 -7.997,12.402 -7.997,12.402 -7.988,12.402 
				-7.978,12.402 -7.978,12.402 -3.5,11.942 0.978,12.402 0.978,12.402 0.989,12.402 0.997,12.402 0.997,12.402 5.474,11.942 
				9.951,12.402 9.951,12.402 9.958,12.402 9.971,12.402 9.971,12.402 14.447,11.942 18.943,12.402 18.943,12.009 14.447,11.546 
				9.958,12.009 5.474,11.546 0.989,12.009 -3.5,11.546 -7.988,12.009 -12.474,11.546 -16.971,12.009 -21.467,11.546 
				-25.954,12.009 -30.439,11.546 -34.925,12.009 -39.414,11.546 -43.9,12.009 -48.388,11.546 -51.484,11.866 -52.02,11.389 
				-48.388,11.017 -43.911,11.476 -43.911,11.476 -43.9,11.476 -43.892,11.476 -43.892,11.476 -39.414,11.017 -34.936,11.476 
				-34.936,11.476 -34.925,11.476 -34.917,11.476 -34.917,11.476 -30.439,11.017 -25.963,11.476 -25.963,11.476 -25.954,11.476 
				-25.943,11.476 -25.943,11.476 -21.467,11.017 -16.971,11.476 -12.474,11.017 -7.997,11.476 -7.997,11.476 -7.988,11.476 
				-7.978,11.476 -7.978,11.476 -3.5,11.017 0.978,11.476 0.978,11.476 0.989,11.476 0.997,11.476 0.997,11.476 5.474,11.017 
				9.951,11.476 9.951,11.476 9.958,11.476 9.971,11.476 9.971,11.476 14.447,11.017 18.943,11.476 18.943,11.083 14.447,10.623 
				9.958,11.083 5.474,10.623 0.989,11.083 -3.5,10.623 -7.988,11.083 -12.474,10.623 -16.971,11.083 -21.467,10.623 
				-25.954,11.083 -30.439,10.623 -34.925,11.083 -39.414,10.623 -43.9,11.083 -48.388,10.623 -52.417,11.037 -53.699,9.895 
				-50.429,9.903 -52.884,10.156 -52.884,10.553 -48.388,10.09 -43.911,10.553 -43.911,10.553 -43.9,10.553 -43.892,10.553 
				-43.892,10.553 -39.414,10.09 -34.936,10.553 -34.936,10.553 -34.925,10.553 -34.917,10.553 -34.917,10.553 -30.439,10.09 
				-25.963,10.553 -25.963,10.553 -25.954,10.553 -25.943,10.553 -25.943,10.553 -21.467,10.09 -16.971,10.553 -12.474,10.09 
				-7.997,10.553 -7.997,10.553 -7.988,10.553 -7.978,10.553 -7.978,10.553 -3.5,10.09 0.978,10.553 0.978,10.553 0.989,10.553 
				0.997,10.553 0.997,10.553 5.474,10.09 9.951,10.553 9.951,10.553 9.958,10.553 9.971,10.553 9.971,10.553 14.447,10.09 
				18.943,10.553 18.943,10.156 18.226,10.086 19.679,10.09 19,10.156 19,10.553 23.405,10.099 23.591,10.099 27.974,10.553 
				27.974,10.553 27.984,10.553 27.993,10.553 27.993,10.553 32.155,10.121 32.797,10.121 36.944,10.553 36.944,10.553 
				36.955,10.553 36.966,10.553 36.966,10.553 40.908,10.143 42.004,10.148 45.918,10.553 45.918,10.553 45.928,10.553 
				45.939,10.553 45.939,10.553 49.659,10.167 51.21,10.171 53.626,10.417 53.375,10.662 53.129,10.9 50.417,10.623 45.928,11.083 
				41.442,10.623 36.955,11.083 32.47,10.623 27.984,11.083 23.496,10.623 19,11.083 19,11.476 23.496,11.017 27.974,11.476 
				27.974,11.476 27.984,11.476 27.993,11.476 27.993,11.476 32.47,11.017 36.944,11.476 36.944,11.476 36.955,11.476 
				36.966,11.476 36.966,11.476 41.442,11.017 45.92,11.476 45.92,11.476 45.928,11.476 45.939,11.476 45.939,11.476 50.417,11.017 
				52.764,11.255 52.271,11.737 50.417,11.546 45.928,12.009 41.442,11.546 36.955,12.009 32.47,11.546 27.984,12.009 
				23.496,11.546 19,12.009 19,12.402 23.496,11.942 27.974,12.402 27.974,12.402 27.984,12.402 27.993,12.402 27.993,12.402 
				32.47,11.942 36.944,12.402 36.944,12.402 36.955,12.402 36.966,12.402 36.966,12.402 41.442,11.942 45.92,12.402 45.92,12.402 
				45.928,12.402 45.939,12.402 45.939,12.402 50.417,11.942 51.905,12.093 51.41,12.574 50.417,12.472 45.928,12.935 
				41.442,12.472 36.955,12.935 32.47,12.472 27.984,12.935 23.496,12.472 19,12.939 19,13.329 23.496,12.869 27.974,13.329 
				27.974,13.329 27.984,13.329 27.993,13.329 27.993,13.329 32.47,12.869 36.944,13.329 36.944,13.329 36.955,13.329 
				36.966,13.329 36.966,13.329 41.442,12.869 45.92,13.329 45.92,13.329 45.928,13.329 45.939,13.329 45.939,13.329 50.417,12.869 
				51.044,12.93 50.547,13.412 50.417,13.399 45.928,13.859 41.442,13.399 36.955,13.859 32.47,13.399 27.984,13.859 23.496,13.399 
				19,13.865 19,14.255 23.496,13.793 27.974,14.255 27.974,14.255 27.984,14.255 27.993,14.255 27.993,14.255 32.47,13.793 
				36.944,14.255 36.944,14.255 36.955,14.255 36.966,14.255 36.966,14.255 41.442,13.793 45.92,14.255 45.92,14.255 45.928,14.255 
				45.939,14.255 45.939,14.255 50.126,13.82 49.513,14.419 45.928,14.785 41.442,14.325 36.955,14.785 32.47,14.325 27.984,14.785 
				23.496,14.325 19,14.792 19,15.182 23.496,14.72 27.974,15.182 27.974,15.182 27.984,15.182 27.993,15.182 27.993,15.182 
				32.47,14.72 36.944,15.182 36.944,15.182 36.955,15.182 36.966,15.182 36.966,15.182 41.442,14.72 45.92,15.182 45.92,15.182 
				45.928,15.182 45.939,15.182 45.939,15.182 49.06,14.858 48.451,15.455 			"/>
		</g>
		<polyline fill="none" stroke="#282827" stroke-width="0.4734" stroke-miterlimit="10" points="54.132,9.992 -0.149,9.992 
			-53.794,9.992 		"/>
		<polyline fill="none" stroke="#807B77" stroke-width="1.026" stroke-miterlimit="10" points="21.867,39.415 -0.409,39.415 
			-22.424,39.415 		"/>
		<polyline fill="none" stroke="#454548" stroke-width="2.2402" stroke-linecap="square" stroke-miterlimit="10" points="
			53.514,10.732 0,62.55 -53.514,10.732 		"/>
		<g>
			<polygon fill="#788080" points="41.898,-44.359 12.839,-44.359 12.839,-41.608 41.898,-41.608 			"/>
			<polygon fill="#788080" points="41.898,-48.798 12.839,-48.798 12.839,-46.042 41.898,-46.042 			"/>
			<polygon fill="#788080" points="41.898,-53.237 12.839,-53.237 12.839,-50.48 41.898,-50.48 			"/>
			<polygon fill="#788080" points="41.898,-62.108 12.839,-62.108 12.839,-59.359 41.898,-59.359 			"/>
			<polygon fill="#788080" points="41.898,-57.675 12.839,-57.675 12.839,-54.919 41.898,-54.919 			"/>
			<polygon fill="#545453" points="13.844,-38.425 11.749,-38.425 11.749,-23.362 13.844,-23.362 			"/>
			<polygon fill="#5D5959" points="13.52,-50.817 12.247,-50.817 12.247,-26.056 13.52,-26.056 			"/>
			<polygon fill="#545453" points="13.931,-64.108 11.835,-64.108 11.835,-49.05 13.931,-49.05 			"/>
			<polygon fill="#545453" points="42.298,-38.425 40.199,-38.425 40.199,-23.362 42.298,-23.362 			"/>
			<polygon fill="#5D5959" points="41.975,-50.817 40.699,-50.817 40.699,-26.056 41.975,-26.056 			"/>
			<polygon fill="#545453" points="42.383,-64.108 40.289,-64.108 40.289,-49.05 42.383,-49.05 			"/>
		</g>
	</g>
	<path opacity="0.4" fill="#D1EADE" d="M34.457-6.759c0-19.153-15.527-34.68-34.681-34.68s-34.681,15.527-34.681,34.68
		c0,19.154,15.527,34.681,34.681,34.681S34.457,12.395,34.457-6.759z"/>
	<g>
		<path fill="none" stroke="#3F75BA" stroke-width="5" stroke-miterlimit="10" d="M9.797,7.392c4.806-3.2,7.973-8.667,7.973-14.873
			c0-9.861-7.994-17.855-17.855-17.855s-17.855,7.995-17.855,17.855c0,5.715,2.685,10.803,6.862,14.07"/>
		<line fill="none" stroke="#3F75BA" stroke-width="5" stroke-miterlimit="10" x1="-0.156" y1="13.128" x2="-0.156" y2="-16.842"/>
	</g>
</symbol>
<g>
	
		<use xlink:href="#poweringhouse"  width="110.196" height="128.217" x="-55.098" y="-64.109" transform="matrix(1 0 0 -1 408.6123 64.5225)" overflow="visible"/>
	<g>
		<path opacity="0.81" fill="#A1CDEA" d="M231.726,109.926c0,0-98.63-28.723-120.85-32.057
			c-22.221-3.331-57.552-14.732-47.903-26.364s5.674-9.818-10.783-13.652c-16.457-3.832-6.713-5.703-8.552-12.34
			c-1.84-6.639-46.681-8.864-46.681-8.864s23.581,6.426,23.642,12.638s-11.441,9.875-6.981,12.05
			c4.459,2.175,33.353,7.217,11.218,12.759c-22.134,5.542-9.575,19.175,1.547,22.174c0,0,37.971,13.754,50.34,19.92
			c16.412,8.182,121.588,45.404,121.588,45.404l0,0"/>
		<polygon fill="#C4CAB9" points="193.53,95.589 193.53,95.589 225.422,85.845 225.234,66.74 262.641,75.775 		"/>
		<polygon fill="#EECB80" points="118.827,45.713 118.391,41.207 150.324,25.567 149.27,40.904 		"/>
		<polygon fill="#EECB80" points="119.125,76.195 118.827,45.713 149.27,40.904 149.562,70.851 		"/>
		<polygon fill="#EECB80" points="195.026,95.574 119.125,76.195 118.813,44.163 194.714,63.488 		"/>
		<g>
			<polygon fill="#F0A64D" points="193.53,95.589 193.231,65.106 225.139,57.003 225.422,85.845 			"/>
			<polygon fill="#F0A64D" points="193.251,67.053 193.191,60.901 224.985,41.317 225.143,57.31 			"/>
		</g>
		<polygon fill="#B8A47F" points="150.285,21.472 229.584,38.429 192.063,64.297 114.163,45.054 		"/>
		<polygon fill="#A49473" points="150.265,19.453 229.568,36.737 192.046,62.605 114.147,43.363 		"/>
		<polygon fill="#817957" points="192.046,62.605 229.568,36.737 229.584,38.429 192.063,64.297 		"/>
		<polygon fill="#A99978" points="192.046,62.605 114.147,43.363 114.163,45.054 192.063,64.297 		"/>
		<g>
			
				<line fill="none" stroke="#C4C5B3" stroke-width="0.2662" stroke-miterlimit="10" x1="150.169" y1="19.353" x2="114.147" y2="43.363"/>
			
				<line fill="none" stroke="#C4C5B3" stroke-width="0.2662" stroke-miterlimit="10" x1="153.345" y1="20.048" x2="117.282" y2="44.122"/>
			
				<line fill="none" stroke="#C4C5B3" stroke-width="0.2662" stroke-miterlimit="10" x1="156.521" y1="20.744" x2="120.417" y2="44.88"/>
			
				<line fill="none" stroke="#C4C5B3" stroke-width="0.2662" stroke-miterlimit="10" x1="159.697" y1="21.439" x2="123.553" y2="45.638"/>
			
				<line fill="none" stroke="#C4C5B3" stroke-width="0.2662" stroke-miterlimit="10" x1="162.873" y1="22.134" x2="126.688" y2="46.396"/>
			
				<line fill="none" stroke="#C4C5B3" stroke-width="0.2662" stroke-miterlimit="10" x1="166.049" y1="22.83" x2="129.823" y2="47.155"/>
			
				<line fill="none" stroke="#C4C5B3" stroke-width="0.2662" stroke-miterlimit="10" x1="169.225" y1="23.525" x2="132.958" y2="47.913"/>
			
				<line fill="none" stroke="#C4C5B3" stroke-width="0.2662" stroke-miterlimit="10" x1="172.401" y1="24.221" x2="136.093" y2="48.672"/>
			
				<line fill="none" stroke="#C4C5B3" stroke-width="0.2662" stroke-miterlimit="10" x1="175.577" y1="24.916" x2="139.229" y2="49.43"/>
			
				<line fill="none" stroke="#C4C5B3" stroke-width="0.2662" stroke-miterlimit="10" x1="178.753" y1="25.611" x2="142.364" y2="50.188"/>
			
				<line fill="none" stroke="#C4C5B3" stroke-width="0.2662" stroke-miterlimit="10" x1="181.929" y1="26.307" x2="145.499" y2="50.947"/>
			
				<line fill="none" stroke="#C4C5B3" stroke-width="0.2662" stroke-miterlimit="10" x1="185.104" y1="27.002" x2="148.634" y2="51.705"/>
			
				<line fill="none" stroke="#C4C5B3" stroke-width="0.2662" stroke-miterlimit="10" x1="188.281" y1="27.697" x2="151.77" y2="52.463"/>
			
				<line fill="none" stroke="#C4C5B3" stroke-width="0.2662" stroke-miterlimit="10" x1="191.457" y1="28.393" x2="154.905" y2="53.222"/>
			
				<line fill="none" stroke="#C4C5B3" stroke-width="0.2662" stroke-miterlimit="10" x1="194.632" y1="29.088" x2="158.04" y2="53.98"/>
			
				<line fill="none" stroke="#C4C5B3" stroke-width="0.2662" stroke-miterlimit="10" x1="197.809" y1="29.783" x2="161.175" y2="54.738"/>
			
				<line fill="none" stroke="#C4C5B3" stroke-width="0.2662" stroke-miterlimit="10" x1="200.984" y1="30.479" x2="164.311" y2="55.497"/>
			
				<line fill="none" stroke="#C4C5B3" stroke-width="0.2662" stroke-miterlimit="10" x1="204.16" y1="31.174" x2="167.446" y2="56.255"/>
			
				<line fill="none" stroke="#C4C5B3" stroke-width="0.2662" stroke-miterlimit="10" x1="207.336" y1="31.869" x2="170.581" y2="57.013"/>
			
				<line fill="none" stroke="#C4C5B3" stroke-width="0.2662" stroke-miterlimit="10" x1="210.512" y1="32.565" x2="173.716" y2="57.772"/>
			
				<line fill="none" stroke="#C4C5B3" stroke-width="0.2662" stroke-miterlimit="10" x1="213.688" y1="33.26" x2="176.851" y2="58.53"/>
			
				<line fill="none" stroke="#C4C5B3" stroke-width="0.2662" stroke-miterlimit="10" x1="216.864" y1="33.956" x2="179.986" y2="59.289"/>
			
				<line fill="none" stroke="#C4C5B3" stroke-width="0.2662" stroke-miterlimit="10" x1="220.04" y1="34.651" x2="183.122" y2="60.047"/>
			
				<line fill="none" stroke="#C4C5B3" stroke-width="0.2662" stroke-miterlimit="10" x1="223.216" y1="35.346" x2="186.257" y2="60.805"/>
			
				<line fill="none" stroke="#C4C5B3" stroke-width="0.2662" stroke-miterlimit="10" x1="226.392" y1="36.042" x2="189.392" y2="61.563"/>
			
				<line fill="none" stroke="#C4C5B3" stroke-width="0.2662" stroke-miterlimit="10" x1="229.568" y1="36.737" x2="192.527" y2="62.322"/>
		</g>
		<polygon fill="#D1E2E8" points="187.087,74.618 148.6,64.904 148.519,56.62 187.006,66.335 		"/>
		<polygon fill="#BBC1AD" points="188.229,93.777 177.492,90.85 177.353,76.608 188.089,79.537 		"/>
		<g>
		</g>
		<g>
		</g>
		<g>
		</g>
		<path fill="none" stroke="#D1E2E8" stroke-width="0.7448" stroke-miterlimit="10" d="M11.425,19.552
			c0,0,25.301,3.039,19.75,11.828c-5.552,8.791,1.897,15.307,13.068,15.307c11.172,0-15.127,9.544-1.397,16.526"/>
		<path fill="none" stroke="#D1E2E8" stroke-width="0.7448" stroke-miterlimit="10" d="M59.593,46.293
			c0,0-21.379,17.935-6.205,23.198c15.173,5.26,25.82,15.001,59.39,20.457c33.571,5.457,53.844,15.81,53.844,15.81"/>
		<path fill="none" stroke="#D1E2E8" stroke-width="0.7448" stroke-miterlimit="10" d="M30.938,55.024
			c0,0-13.956,13.343,18.416,23.143c32.371,9.801,43.886,13.149,54.16,16.439"/>
		<path fill="none" stroke="#D1E2E8" stroke-width="0.7448" stroke-miterlimit="10" d="M126.829,98.699
			c0,0,52.575,17.796,60.715,22.682c8.139,4.886,14.686,7.925,14.686,7.925"/>
		<path fill="none" stroke="#D1E2E8" stroke-width="0.7448" stroke-miterlimit="10" d="M172.451,100.736
			c0,0,12.491,6.084,29.626,12.898c17.134,6.816,13.398,5.611,13.398,5.611"/>
	</g>
	<g>
		<g>
			
				<line fill="none" stroke="#B3B6AD" stroke-width="5" stroke-miterlimit="10" x1="277.655" y1="76.165" x2="324.218" y2="76.165"/>
			<g>
				<polygon fill="#B3B6AD" points="322.395,82.398 333.188,76.165 322.395,69.933 				"/>
			</g>
		</g>
	</g>
	<text transform="matrix(1 0 0 1 475.9844 86.9004)" fill="#565756" font-family="'OpenSans-Semibold'" font-size="20">X 7,500</text>
</g>
</svg>
