<?xml version="1.0" encoding="utf-8"?>
<!-- Generator: Adobe Illustrator 18.1.0, SVG Export Plug-In . SVG Version: 6.00 Build 0)  -->
<svg version="1.1" id="Слой_1" xmlns="http://www.w3.org/2000/svg" xmlns:xlink="http://www.w3.org/1999/xlink" x="0px" y="0px"
	 viewBox="0 0 85 85" enable-background="new 0 0 85 85" xml:space="preserve">
<g>
	<rect x="24.5" y="60.6" fill="#267DBA" width="18" height="18"/>
	<rect x="24.5" y="42.6" fill="#4298D3" width="18" height="18"/>
	<rect x="24.5" y="24.6" fill="#E47A09" width="18" height="18"/>
	<rect x="24.5" y="6.6" fill="#D14C16" width="18" height="18"/>
	<rect x="42.5" y="60.6" fill="#A07AB4" width="18" height="18"/>
	<rect x="42.5" y="6.6" fill="#E83C36" width="18" height="18"/>
	<rect x="60.5" y="60.6" fill="#8E4292" width="18" height="18"/>
	<rect x="60.5" y="6.6" fill="#CA2E26" width="18" height="18"/>
	<rect x="6.5" y="42.6" fill="#2CB195" width="18" height="18"/>
	<rect x="6.5" y="24.6" fill="#089B7F" width="18" height="18"/>
	<rect x="42.5" y="24.6" fill="#CFD2BE" width="18" height="18"/>
	<polyline fill="#F5F7E2" points="78.5,60.6 60.5,60.6 60.5,42.6 78.5,42.6 	"/>
	<polyline fill="#E9EED8" points="60.5,60.6 42.5,60.6 42.5,42.6 60.5,42.6 	"/>
	<polyline fill="#E9EED8" points="78.5,42.6 60.5,42.6 60.5,24.6 78.5,24.6 	"/>
</g>
</svg>
