<?xml version="1.0" encoding="utf-8"?>
<!-- Generator: Adobe Illustrator 15.0.0, SVG Export Plug-In . SVG Version: 6.00 Build 0)  -->
<!DOCTYPE svg PUBLIC "-//W3C//DTD SVG 1.1//EN" "http://www.w3.org/Graphics/SVG/1.1/DTD/svg11.dtd">
<svg version="1.1" id="Слой_1" xmlns="http://www.w3.org/2000/svg" xmlns:xlink="http://www.w3.org/1999/xlink" x="0px" y="0px"
	 width="17px" height="10px" viewBox="0 0 17 10" enable-background="new 0 0 17 10" xml:space="preserve">
<g>
	<path fill="#F6EC50" d="M15.045,2.293c0,0,1.23,1.477,1.783,1.852s-0.969,0.096-1.187,0s-1.52-0.775-1.52-0.775l-0.478-0.721
		l0.959-0.732L15.045,2.293"/>
	<path fill="#D7B687" d="M12.902,9.813c0,0-6.591,0.654-9.554-0.764C0.387,7.631,0.091,6.15,0.091,6.15l-0.04-0.129l1.639,0.193
		l4.458-1.4h4.079l1.498,0.832l0.641,0.125l1.079,2.504L12.902,9.813z"/>
	<path fill="#178A38" d="M15.045,2.293c0,0-0.51-3.441-3.12-1.824c0,0-0.97,0.834-0.596,3.93c0,0,1.827,1.32,2.51,0.313
		c0,0-0.267-0.164-0.194-0.492c0.071-0.326,0.256-0.238,0.22-0.568c-0.037-0.33,0.206-0.285,0.258-0.281
		c0.052,0.002,0.042-0.365,0.042-0.365s0.494,0.018,0.439-0.355s0.059-0.432,0.059-0.432L15.045,2.293z"/>
	<path fill="#9F4526" d="M13.852,4.711c0,0,3.111,5.197-0.949,5.102c0,0-0.317,0.059-0.041-0.914c0.275-0.975-0.608-2.605-0.787-2.9
		c-0.179-0.297-0.816-1.287-0.816-1.287l0.084-0.313L13.852,4.711z"/>
	<path fill="#FFFFFF" d="M13.839,4.67c0,0-0.108,0.789-2.497-0.271l-0.041-0.254c0,0,2.127,0.697,2.303,0.254L13.839,4.67z"/>
	<path fill="#1A1718" d="M11.301,4.596c0,0-0.283,0.045-0.905-0.268C9.772,4.016,8.395,3.584,6.287,4.219
		C4.182,4.855,1.21,5.043,1.21,5.043s1.28,0.473,1.679,0.479L0.81,5.467c0,0,0.579,0.463,0.799,0.506L0.051,6.021
		c0,0,1.433,0.611,4.584-0.342c3.152-0.951,4.428-0.229,5.054,0c0.626,0.23,1.772,0.734,2.386,0.318"/>
	<path fill="#BD7E5C" d="M10.49,7.725c0,0-1.559-0.773-5.762-1.076S2.09,6.473,2.09,6.473S1.924,7.979,4.009,8.258
		C6.094,8.535,10.501,7.869,10.49,7.725z"/>
</g>
</svg>
