<?xml version="1.0" encoding="utf-8"?>
<!-- Generator: Adobe Illustrator 15.0.0, SVG Export Plug-In . SVG Version: 6.00 Build 0)  -->
<!DOCTYPE svg PUBLIC "-//W3C//DTD SVG 1.1//EN" "http://www.w3.org/Graphics/SVG/1.1/DTD/svg11.dtd">
<svg version="1.1" id="Слой_1" xmlns="http://www.w3.org/2000/svg" xmlns:xlink="http://www.w3.org/1999/xlink" x="0px" y="0px"
	 width="13px" height="15px" viewBox="0 0 13 15" enable-background="new 0 0 13 15" xml:space="preserve">
<g id="BIRDS_2_">
	<path fill="#404041" d="M12.061,13.539c0.068,0.102,0.146,0.197,0.201,0.305c0.057,0.111,0.09,0.234,0.135,0.354
		c-0.119-0.061-0.246-0.111-0.354-0.188c-0.137-0.094-0.258-0.209-0.438-0.277c0.021,0.059,0.051,0.113,0.064,0.172
		c0.053,0.197,0.098,0.395,0.146,0.592c-0.146-0.115-0.293-0.232-0.443-0.344c-0.049-0.037-0.115-0.055-0.172-0.082
		c-0.014,0.063-0.027,0.125-0.039,0.188c-0.021,0.123-0.045,0.248-0.068,0.371c-0.086-0.1-0.184-0.193-0.258-0.303
		c-0.096-0.143-0.166-0.305-0.266-0.447c-0.029-0.043-0.111-0.051-0.168-0.076c-0.008,0.063-0.023,0.125-0.018,0.186
		c0.01,0.066,0.059,0.129,0.057,0.193c-0.002,0.094-0.035,0.186-0.053,0.279c-0.072-0.045-0.182-0.07-0.211-0.135
		c-0.256-0.553-0.865-0.627-1.285-0.957c-0.811-0.635-1.826-0.938-2.604-1.668c-0.4-0.377-0.846-0.711-1.207-1.139
		c-0.043-0.051-0.18-0.053-0.262-0.031c-0.047,0.012-0.072,0.111-0.111,0.17c-0.195,0.291-0.266,0.785-0.688,0.76
		c-0.615-0.035-1.287-0.156-1.684-0.672c-0.214-0.279-0.201-0.742-0.259-1.127C2.072,9.611,2.246,9.51,2.352,9.469
		c0.338-0.135,0.684-0.248,1.025-0.377c0.23-0.086,0.34-0.16,0.123-0.436C3.089,8.139,2.662,7.604,2.398,7.008
		C2.113,6.361,1.688,5.743,1.723,4.971C1.73,4.794,1.527,4.616,1.461,4.425c-0.197-0.58-0.363-1.172-0.572-1.749
		c-0.053-0.147-0.221-0.253-0.33-0.383C0.503,2.227,0.462,2.149,0.414,2.077C0.51,2.074,0.607,2.06,0.699,2.071
		C0.801,2.085,0.9,2.123,1,2.15c0.064,0.021,0.128,0.042,0.195,0.063C1.156,2.167,1.117,2.122,1.078,2.076
		C0.855,1.881,0.63,1.688,0.412,1.488C0.365,1.445,0.337,1.38,0.303,1.324c0.076-0.008,0.16-0.039,0.227-0.019
		c0.146,0.046,0.287,0.119,0.43,0.181C1.012,1.484,1.064,1.482,1.115,1.48c-0.029-0.031-0.059-0.063-0.09-0.094
		C1.01,1.357,0.992,1.328,0.977,1.298C0.854,1.074,0.73,0.852,0.607,0.629c0.205,0.128,0.41,0.258,0.615,0.384
		C1.279,1.048,1.342,1.076,1.4,1.107C1.389,1.032,1.383,0.955,1.363,0.882C1.295,0.637,1.223,0.393,1.15,0.148
		C1.324,0.327,1.5,0.504,1.67,0.686c0.045,0.048,0.074,0.109,0.193,0.147C1.828,0.634,1.787,0.436,1.758,0.236
		c-0.008-0.05,0.01-0.103,0.018-0.154c0.053,0.033,0.131,0.054,0.158,0.102c0.229,0.403,0.451,0.813,0.74,1.2
		c0-0.179,0-0.358,0-0.544c0.055,0.006,0.098,0,0.104,0.013c0.49,0.995,0.99,1.986,1.459,2.991C4.574,4.566,4.889,5.301,5.18,6.043
		c0.342,0.871,0.734,1.688,1.574,2.21C6.918,8.354,6.98,8.615,7.096,8.797c0.08,0.127,0.146,0.279,0.26,0.365
		c0.332,0.254,0.668,0.512,1.033,0.709c0.869,0.471,1.598,1.105,2.307,1.783c0.48,0.461,1.059,0.816,1.666,1.17
		c-0.143,0.008-0.287,0.016-0.514,0.029c0.258,0.203,0.463,0.359,0.662,0.521c0.068,0.057,0.125,0.129,0.188,0.193
		c-0.086,0-0.174,0.014-0.256-0.004c-0.1-0.021-0.193-0.068-0.291-0.105c-0.055-0.021-0.107-0.043-0.162-0.066
		C12.012,13.441,12.035,13.49,12.061,13.539z M11.174,13.941c-0.012-0.014-0.021-0.023-0.033-0.035
		c-0.012,0.021-0.027,0.041-0.033,0.064c-0.002,0.008,0.02,0.021,0.031,0.031C11.15,13.982,11.162,13.961,11.174,13.941z"/>
</g>
</svg>
