<?xml version="1.0" encoding="utf-8"?>
<!-- Generator: Adobe Illustrator 16.0.0, SVG Export Plug-In . SVG Version: 6.00 Build 0)  -->
<!DOCTYPE svg PUBLIC "-//W3C//DTD SVG 1.1//EN" "http://www.w3.org/Graphics/SVG/1.1/DTD/svg11.dtd">
<svg version="1.1" id="Слой_1" xmlns="http://www.w3.org/2000/svg" xmlns:xlink="http://www.w3.org/1999/xlink" x="0px" y="0px"
	 width="587px" height="150px" viewBox="0 0 587 150" enable-background="new 0 0 587 150" xml:space="preserve">
<path fill="#808284" d="M552.543,149.255h-0.658h-53.749h-2.854h-2.412H460.18h-30.934h-1.756h-27.203h-6.363h-11.627h-3.291h-1.535
	h-5.924H253.734h-26.108h-4.167h-1.535h-8.775h-1.756H151.06v0.524H0.998v-5.119v-2.09v-5.466h5.923v-11.456h7.351v-1.828h5.813
	v1.828h1.535v11.456h3.292v-4.979h8.557v4.979h3.729v-8.219h1.536v-1.042h3.072v1.042h11.188v-4.072h14.918v4.072h5.266v8.219h4.388
	v-23.155h17.769v23.155h7.459v-18.352H115.3V97.654h5.704v-3.969h23.036v3.969h1.975v44.916h5.045v-6.686v-11.071v-2.507V53.365
	h25.23v68.941h3.511v-3.554h3.727v-1.879h5.048v1.879h3.509v3.554h3.51v-3.554h3.291v17.132h2.415v-1.532h5.047v1.532h5.044v-8.041
	h4.168v-2.195h6.363v2.195h1.535v7.369h5.266v-0.86h5.923v-2.227h12.285v3.087h6.801v-6.222h3.072v-18.855h12.833v-2.455h11.189
	v2.455h11.297v-2.455h11.19v2.455h1.535v18.855h5.924v-12.327h4.607v-4.386h7.24V92.431h2.852v-4.387h1.45v-1.567l4.034-3.841v-0.44
	h2.854v-4.83l-0.195-0.185l4.033-3.84l4.035,3.84h0.625v5.015h1.813v0.44l4.033,3.841h0.135v1.567h2.414v4.387h2.633v19.848h6.58
	v4.386h4.17v12.327h7.459v5.361h5.924v8.219h1.535v-2.715v-9.82h3.291v-10.022h11.627v19.843h6.363v-3.135v-9.285h5.703v-1.788
	h4.607v1.788h1.098v9.285h1.975V121.26h13.82v15.462h1.756v5.64h5.484v-16.713h10.75v-1.996h6.143v1.996h2.633v16.713h5.924V63.601
	V52.736l-3.73-2.716v-2.715l-3.729-1.881v-2.716l-1.975-1.88h-1.535v-3.552h6.032l4.937-3.55h-1.098v-4.181h4.718l0.169-5.013
	h-1.156v-0.836h1.186l0.203-6.059h-1.389v-0.836h1.418l0.195-5.85h-1.613v-0.835h1.643l0.332-9.818h0.658l0.332,9.818h1.643v0.835
	h-1.616l0.198,5.85h1.418v0.836h-1.389l0.203,6.059h1.186v0.836h-1.156l0.17,5.013h5.154v4.181l4.937,3.55h6.032v3.552h-1.535
	l-1.975,1.88v2.716l-3.728,1.881v2.715l-3.731,2.716v10.864h21.281v78.761h2.412v-8.148v-1.669V84.493h7.68v-5.015h6.201
	c0.306-6.967,5.982-12.535,12.995-12.535s12.69,5.568,12.996,12.535h6.2v5.015h7.24v48.051h3.291v-1.882v-3.969h31.152v3.969h4.389
	v-3.969"/>
</svg>
